<?xml version="1.0" encoding="UTF-8"?>
<svg id="Layer_2" data-name="Layer 2" xmlns="http://www.w3.org/2000/svg" viewBox="0 0 290.12 93.83">
  <defs>
    <style>
      .cls-1 {
        fill: #d3d3d3;
      }
    </style>
  </defs>
  <g id="Layer_1-2" data-name="Layer 1">
    <path d="m5.08,2.4c0-1.06.89-1.92,1.98-1.92s1.98.86,1.98,1.92-.89,1.92-1.98,1.92-1.98-.86-1.98-1.92Zm1.65,12.18v5.13c0,.71-.59,1.28-1.32,1.28s-1.32-.57-1.32-1.28v-8.94l-1.18,1.91c-.38.61-1.19.8-1.81.44s-.83-1.15-.45-1.76l2.41-3.89c.72-1.16,2.01-1.87,3.4-1.87h1.23c1.39,0,2.68.71,3.4,1.87l2.41,3.89c.38.61.17,1.39-.45,1.76s-1.44.17-1.81-.44l-1.19-1.91v8.94c0,.71-.59,1.28-1.32,1.28s-1.32-.57-1.32-1.28v-5.13h-.66Z"/>
    <path class="cls-1" d="m77.61,2.4c0-1.06.89-1.92,1.98-1.92s1.98.86,1.98,1.92-.89,1.92-1.98,1.92-1.98-.86-1.98-1.92Zm1.65,12.18v5.13c0,.71-.59,1.28-1.32,1.28s-1.32-.57-1.32-1.28v-8.94l-1.18,1.91c-.38.61-1.19.8-1.81.44s-.83-1.15-.45-1.76l2.41-3.89c.72-1.16,2.01-1.87,3.4-1.87h1.23c1.39,0,2.68.71,3.4,1.87l2.41,3.89c.38.61.17,1.39-.45,1.76s-1.44.17-1.81-.44l-1.19-1.91v8.94c0,.71-.59,1.28-1.32,1.28s-1.32-.57-1.32-1.28v-5.13h-.66Z"/>
    <path class="cls-1" d="m63.11,2.4c0-1.06.89-1.92,1.98-1.92s1.98.86,1.98,1.92-.89,1.92-1.98,1.92-1.98-.86-1.98-1.92Zm1.65,12.18v5.13c0,.71-.59,1.28-1.32,1.28s-1.32-.57-1.32-1.28v-8.94l-1.18,1.91c-.38.61-1.19.8-1.81.44s-.83-1.15-.45-1.76l2.41-3.89c.72-1.16,2.01-1.87,3.4-1.87h1.23c1.39,0,2.68.71,3.4,1.87l2.41,3.89c.38.61.17,1.39-.45,1.76s-1.44.17-1.81-.44l-1.19-1.91v8.94c0,.71-.59,1.28-1.32,1.28s-1.32-.57-1.32-1.28v-5.13h-.66Z"/>
    <path class="cls-1" d="m48.6,2.4c0-1.06.89-1.92,1.98-1.92s1.98.86,1.98,1.92-.89,1.92-1.98,1.92-1.98-.86-1.98-1.92Zm1.65,12.18v5.13c0,.71-.59,1.28-1.32,1.28s-1.32-.57-1.32-1.28v-8.94l-1.18,1.91c-.38.61-1.19.8-1.81.44s-.83-1.15-.45-1.76l2.41-3.89c.72-1.16,2.01-1.87,3.4-1.87h1.23c1.39,0,2.68.71,3.4,1.87l2.41,3.89c.38.61.17,1.39-.45,1.76s-1.44.17-1.81-.44l-1.19-1.91v8.94c0,.71-.59,1.28-1.32,1.28s-1.32-.57-1.32-1.28v-5.13h-.66Z"/>
    <path class="cls-1" d="m34.09,2.4c0-1.06.89-1.92,1.98-1.92s1.98.86,1.98,1.92-.89,1.92-1.98,1.92-1.98-.86-1.98-1.92Zm1.65,12.18v5.13c0,.71-.59,1.28-1.32,1.28s-1.32-.57-1.32-1.28v-8.94l-1.18,1.91c-.38.61-1.19.8-1.81.44s-.83-1.15-.45-1.76l2.41-3.89c.72-1.16,2.01-1.87,3.4-1.87h1.23c1.39,0,2.68.71,3.4,1.87l2.41,3.89c.38.61.17,1.39-.45,1.76s-1.44.17-1.81-.44l-1.19-1.91v8.94c0,.71-.59,1.28-1.32,1.28s-1.32-.57-1.32-1.28v-5.13h-.66Z"/>
    <path class="cls-1" d="m19.58,2.4c0-1.06.89-1.92,1.98-1.92s1.98.86,1.98,1.92-.89,1.92-1.98,1.92-1.98-.86-1.98-1.92Zm1.65,12.18v5.13c0,.71-.59,1.28-1.32,1.28s-1.32-.57-1.32-1.28v-8.94l-1.18,1.91c-.38.61-1.19.8-1.81.44s-.83-1.15-.45-1.76l2.41-3.89c.72-1.16,2.01-1.87,3.4-1.87h1.23c1.39,0,2.68.71,3.4,1.87l2.41,3.89c.38.61.17,1.39-.45,1.76s-1.44.17-1.81-.44l-1.19-1.91v8.94c0,.71-.59,1.28-1.32,1.28s-1.32-.57-1.32-1.28v-5.13h-.66Z"/>
    <path class="cls-1" d="m92.12,2.4c0-1.06.89-1.92,1.98-1.92s1.98.86,1.98,1.92-.89,1.92-1.98,1.92-1.98-.86-1.98-1.92Zm1.65,12.18v5.13c0,.71-.59,1.28-1.32,1.28s-1.32-.57-1.32-1.28v-8.94l-1.18,1.91c-.38.61-1.19.8-1.81.44s-.83-1.15-.45-1.76l2.41-3.89c.72-1.16,2.01-1.87,3.4-1.87h1.23c1.39,0,2.68.71,3.4,1.87l2.41,3.89c.38.61.17,1.39-.45,1.76s-1.44.17-1.81-.44l-1.19-1.91v8.94c0,.71-.59,1.28-1.32,1.28s-1.32-.57-1.32-1.28v-5.13h-.66Z"/>
    <path class="cls-1" d="m4.85,49.94c0-1.06.89-1.92,1.98-1.92s1.98.86,1.98,1.92-.89,1.92-1.98,1.92-1.98-.86-1.98-1.92Zm1.65,12.18v5.13c0,.71-.59,1.28-1.32,1.28s-1.32-.57-1.32-1.28v-8.94l-1.18,1.91c-.38.61-1.19.8-1.81.44s-.83-1.15-.45-1.76l2.41-3.89c.72-1.16,2.01-1.87,3.4-1.87h1.23c1.39,0,2.68.71,3.4,1.87l2.41,3.89c.38.61.17,1.39-.45,1.76s-1.44.17-1.81-.44l-1.19-1.91v8.94c0,.71-.59,1.28-1.32,1.28s-1.32-.57-1.32-1.28v-5.13h-.66Z"/>
    <path class="cls-1" d="m19.36,49.94c0-1.06.89-1.92,1.98-1.92s1.98.86,1.98,1.92-.89,1.92-1.98,1.92-1.98-.86-1.98-1.92Zm1.65,12.18v5.13c0,.71-.59,1.28-1.32,1.28s-1.32-.57-1.32-1.28v-8.94l-1.18,1.91c-.38.61-1.19.8-1.81.44s-.83-1.15-.45-1.76l2.41-3.89c.72-1.16,2.01-1.87,3.4-1.87h1.23c1.39,0,2.68.71,3.4,1.87l2.41,3.89c.38.61.17,1.39-.45,1.76s-1.44.17-1.81-.44l-1.19-1.91v8.94c0,.71-.59,1.28-1.32,1.28s-1.32-.57-1.32-1.28v-5.13h-.66Z"/>
    <path class="cls-1" d="m135.64,2.4c0-1.06.89-1.92,1.98-1.92s1.98.86,1.98,1.92-.89,1.92-1.98,1.92-1.98-.86-1.98-1.92Zm1.65,12.18v5.13c0,.71-.59,1.28-1.32,1.28s-1.32-.57-1.32-1.28v-8.94l-1.18,1.91c-.38.61-1.19.8-1.81.44s-.83-1.15-.45-1.76l2.41-3.89c.72-1.16,2.01-1.87,3.4-1.87h1.23c1.39,0,2.68.71,3.4,1.87l2.41,3.89c.38.61.17,1.39-.45,1.76s-1.44.17-1.81-.44l-1.19-1.91v8.94c0,.71-.59,1.28-1.32,1.28s-1.32-.57-1.32-1.28v-5.13h-.66Z"/>
    <path class="cls-1" d="m121.13,2.4c0-1.06.89-1.92,1.98-1.92s1.98.86,1.98,1.92-.89,1.92-1.98,1.92-1.98-.86-1.98-1.92Zm1.65,12.18v5.13c0,.71-.59,1.28-1.32,1.28s-1.32-.57-1.32-1.28v-8.94l-1.18,1.91c-.38.61-1.19.8-1.81.44s-.83-1.15-.45-1.76l2.41-3.89c.72-1.16,2.01-1.87,3.4-1.87h1.23c1.39,0,2.68.71,3.4,1.87l2.41,3.89c.38.61.17,1.39-.45,1.76s-1.44.17-1.81-.44l-1.19-1.91v8.94c0,.71-.59,1.28-1.32,1.28s-1.32-.57-1.32-1.28v-5.13h-.66Z"/>
    <path class="cls-1" d="m106.63,2.4c0-1.06.89-1.92,1.98-1.92s1.98.86,1.98,1.92-.89,1.92-1.98,1.92-1.98-.86-1.98-1.92Zm1.65,12.18v5.13c0,.71-.59,1.28-1.32,1.28s-1.32-.57-1.32-1.28v-8.94l-1.18,1.91c-.38.61-1.19.8-1.81.44s-.83-1.15-.45-1.76l2.41-3.89c.72-1.16,2.01-1.87,3.4-1.87h1.23c1.39,0,2.68.71,3.4,1.87l2.41,3.89c.38.61.17,1.39-.45,1.76s-1.44.17-1.81-.44l-1.19-1.91v8.94c0,.71-.59,1.28-1.32,1.28s-1.32-.57-1.32-1.28v-5.13h-.66Z"/>
    <path class="cls-1" d="m4.62,26.31c0-1.06.89-1.92,1.98-1.92s1.98.86,1.98,1.92-.89,1.92-1.98,1.92-1.98-.86-1.98-1.92Zm1.65,12.18v5.13c0,.71-.59,1.28-1.32,1.28s-1.32-.57-1.32-1.28v-8.94l-1.18,1.91c-.38.61-1.19.8-1.81.44s-.83-1.15-.45-1.76l2.41-3.89c.72-1.16,2.01-1.87,3.4-1.87h1.23c1.39,0,2.68.71,3.4,1.87l2.41,3.89c.38.61.17,1.39-.45,1.76s-1.44.17-1.81-.44l-1.19-1.91v8.94c0,.71-.59,1.28-1.32,1.28s-1.32-.57-1.32-1.28v-5.13h-.66Z"/>
    <path class="cls-1" d="m77.38,49.94c0-1.06.89-1.92,1.98-1.92s1.98.86,1.98,1.92-.89,1.92-1.98,1.92-1.98-.86-1.98-1.92Zm1.65,12.18v5.13c0,.71-.59,1.28-1.32,1.28s-1.32-.57-1.32-1.28v-8.94l-1.18,1.91c-.38.61-1.19.8-1.81.44s-.83-1.15-.45-1.76l2.41-3.89c.72-1.16,2.01-1.87,3.4-1.87h1.23c1.39,0,2.68.71,3.4,1.87l2.41,3.89c.38.61.17,1.39-.45,1.76s-1.44.17-1.81-.44l-1.19-1.91v8.94c0,.71-.59,1.28-1.32,1.28s-1.32-.57-1.32-1.28v-5.13h-.66Z"/>
    <path class="cls-1" d="m62.87,49.94c0-1.06.89-1.92,1.98-1.92s1.98.86,1.98,1.92-.89,1.92-1.98,1.92-1.98-.86-1.98-1.92Zm1.65,12.18v5.13c0,.71-.59,1.28-1.32,1.28s-1.32-.57-1.32-1.28v-8.94l-1.18,1.91c-.38.61-1.19.8-1.81.44s-.83-1.15-.45-1.76l2.41-3.89c.72-1.16,2.01-1.87,3.4-1.87h1.23c1.39,0,2.68.71,3.4,1.87l2.41,3.89c.38.61.17,1.39-.45,1.76s-1.44.17-1.81-.44l-1.19-1.91v8.94c0,.71-.59,1.28-1.32,1.28s-1.32-.57-1.32-1.28v-5.13h-.66Z"/>
    <path class="cls-1" d="m48.37,49.94c0-1.06.89-1.92,1.98-1.92s1.98.86,1.98,1.92-.89,1.92-1.98,1.92-1.98-.86-1.98-1.92Zm1.65,12.18v5.13c0,.71-.59,1.28-1.32,1.28s-1.32-.57-1.32-1.28v-8.94l-1.18,1.91c-.38.61-1.19.8-1.81.44s-.83-1.15-.45-1.76l2.41-3.89c.72-1.16,2.01-1.87,3.4-1.87h1.23c1.39,0,2.68.71,3.4,1.87l2.41,3.89c.38.61.17,1.39-.45,1.76s-1.44.17-1.81-.44l-1.19-1.91v8.94c0,.71-.59,1.28-1.32,1.28s-1.32-.57-1.32-1.28v-5.13h-.66Z"/>
    <path class="cls-1" d="m33.76,26.31c0-1.06.89-1.92,1.98-1.92s1.98.86,1.98,1.92-.89,1.92-1.98,1.92-1.98-.86-1.98-1.92Zm1.65,12.18v5.13c0,.71-.59,1.28-1.32,1.28s-1.32-.57-1.32-1.28v-8.94l-1.18,1.91c-.38.61-1.19.8-1.81.44s-.83-1.15-.45-1.76l2.41-3.89c.72-1.16,2.01-1.87,3.4-1.87h1.23c1.39,0,2.68.71,3.4,1.87l2.41,3.89c.38.61.17,1.39-.45,1.76s-1.44.17-1.81-.44l-1.19-1.91v8.94c0,.71-.59,1.28-1.32,1.28s-1.32-.57-1.32-1.28v-5.13h-.66Z"/>
    <path class="cls-1" d="m19.19,26.31c0-1.06.89-1.92,1.98-1.92s1.98.86,1.98,1.92-.89,1.92-1.98,1.92-1.98-.86-1.98-1.92Zm1.65,12.18v5.13c0,.71-.59,1.28-1.32,1.28s-1.32-.57-1.32-1.28v-8.94l-1.18,1.91c-.38.61-1.19.8-1.81.44s-.83-1.15-.45-1.76l2.41-3.89c.72-1.16,2.01-1.87,3.4-1.87h1.23c1.39,0,2.68.71,3.4,1.87l2.41,3.89c.38.61.17,1.39-.45,1.76s-1.44.17-1.81-.44l-1.19-1.91v8.94c0,.71-.59,1.28-1.32,1.28s-1.32-.57-1.32-1.28v-5.13h-.66Z"/>
    <path class="cls-1" d="m91.88,49.94c0-1.06.89-1.92,1.98-1.92s1.98.86,1.98,1.92-.89,1.92-1.98,1.92-1.98-.86-1.98-1.92Zm1.65,12.18v5.13c0,.71-.59,1.28-1.32,1.28s-1.32-.57-1.32-1.28v-8.94l-1.18,1.91c-.38.61-1.19.8-1.81.44s-.83-1.15-.45-1.76l2.41-3.89c.72-1.16,2.01-1.87,3.4-1.87h1.23c1.39,0,2.68.71,3.4,1.87l2.41,3.89c.38.61.17,1.39-.45,1.76s-1.44.17-1.81-.44l-1.19-1.91v8.94c0,.71-.59,1.28-1.32,1.28s-1.32-.57-1.32-1.28v-5.13h-.66Z"/>
    <path class="cls-1" d="m33.86,49.94c0-1.06.89-1.92,1.98-1.92s1.98.86,1.98,1.92-.89,1.92-1.98,1.92-1.98-.86-1.98-1.92Zm1.65,12.18v5.13c0,.71-.59,1.28-1.32,1.28s-1.32-.57-1.32-1.28v-8.94l-1.18,1.91c-.38.61-1.19.8-1.81.44s-.83-1.15-.45-1.76l2.41-3.89c.72-1.16,2.01-1.87,3.4-1.87h1.23c1.39,0,2.68.71,3.4,1.87l2.41,3.89c.38.61.17,1.39-.45,1.76s-1.44.17-1.81-.44l-1.19-1.91v8.94c0,.71-.59,1.28-1.32,1.28s-1.32-.57-1.32-1.28v-5.13h-.66Z"/>
    <path class="cls-1" d="m135.4,49.94c0-1.06.89-1.92,1.98-1.92s1.98.86,1.98,1.92-.89,1.92-1.98,1.92-1.98-.86-1.98-1.92Zm1.65,12.18v5.13c0,.71-.59,1.28-1.32,1.28s-1.32-.57-1.32-1.28v-8.94l-1.18,1.91c-.38.61-1.19.8-1.81.44s-.83-1.15-.45-1.76l2.41-3.89c.72-1.16,2.01-1.87,3.4-1.87h1.23c1.39,0,2.68.71,3.4,1.87l2.41,3.89c.38.61.17,1.39-.45,1.76s-1.44.17-1.81-.44l-1.19-1.91v8.94c0,.71-.59,1.28-1.32,1.28s-1.32-.57-1.32-1.28v-5.13h-.66Z"/>
    <path class="cls-1" d="m120.89,49.94c0-1.06.89-1.92,1.98-1.92s1.98.86,1.98,1.92-.89,1.92-1.98,1.92-1.98-.86-1.98-1.92Zm1.65,12.18v5.13c0,.71-.59,1.28-1.32,1.28s-1.32-.57-1.32-1.28v-8.94l-1.18,1.91c-.38.61-1.19.8-1.81.44s-.83-1.15-.45-1.76l2.41-3.89c.72-1.16,2.01-1.87,3.4-1.87h1.23c1.39,0,2.68.71,3.4,1.87l2.41,3.89c.38.61.17,1.39-.45,1.76s-1.44.17-1.81-.44l-1.19-1.91v8.94c0,.71-.59,1.28-1.32,1.28s-1.32-.57-1.32-1.28v-5.13h-.66Z"/>
    <path class="cls-1" d="m106.39,49.94c0-1.06.89-1.92,1.98-1.92s1.98.86,1.98,1.92-.89,1.92-1.98,1.92-1.98-.86-1.98-1.92Zm1.65,12.18v5.13c0,.71-.59,1.28-1.32,1.28s-1.32-.57-1.32-1.28v-8.94l-1.18,1.91c-.38.61-1.19.8-1.81.44s-.83-1.15-.45-1.76l2.41-3.89c.72-1.16,2.01-1.87,3.4-1.87h1.23c1.39,0,2.68.71,3.4,1.87l2.41,3.89c.38.61.17,1.39-.45,1.76s-1.44.17-1.81-.44l-1.19-1.91v8.94c0,.71-.59,1.28-1.32,1.28s-1.32-.57-1.32-1.28v-5.13h-.66Z"/>
    <path class="cls-1" d="m92.03,26.31c0-1.06.89-1.92,1.98-1.92s1.98.86,1.98,1.92-.89,1.92-1.98,1.92-1.98-.86-1.98-1.92Zm1.65,12.18v5.13c0,.71-.59,1.28-1.32,1.28s-1.32-.57-1.32-1.28v-8.94l-1.18,1.91c-.38.61-1.19.8-1.81.44s-.83-1.15-.45-1.76l2.41-3.89c.72-1.16,2.01-1.87,3.4-1.87h1.23c1.39,0,2.68.71,3.4,1.87l2.41,3.89c.38.61.17,1.39-.45,1.76s-1.44.17-1.81-.44l-1.19-1.91v8.94c0,.71-.59,1.28-1.32,1.28s-1.32-.57-1.32-1.28v-5.13h-.66Z"/>
    <path class="cls-1" d="m77.46,26.31c0-1.06.89-1.92,1.98-1.92s1.98.86,1.98,1.92-.89,1.92-1.98,1.92-1.98-.86-1.98-1.92Zm1.65,12.18v5.13c0,.71-.59,1.28-1.32,1.28s-1.32-.57-1.32-1.28v-8.94l-1.18,1.91c-.38.61-1.19.8-1.81.44s-.83-1.15-.45-1.76l2.41-3.89c.72-1.16,2.01-1.87,3.4-1.87h1.23c1.39,0,2.68.71,3.4,1.87l2.41,3.89c.38.61.17,1.39-.45,1.76s-1.44.17-1.81-.44l-1.19-1.91v8.94c0,.71-.59,1.28-1.32,1.28s-1.32-.57-1.32-1.28v-5.13h-.66Z"/>
    <path class="cls-1" d="m62.89,26.31c0-1.06.89-1.92,1.98-1.92s1.98.86,1.98,1.92-.89,1.92-1.98,1.92-1.98-.86-1.98-1.92Zm1.65,12.18v5.13c0,.71-.59,1.28-1.32,1.28s-1.32-.57-1.32-1.28v-8.94l-1.18,1.91c-.38.61-1.19.8-1.81.44s-.83-1.15-.45-1.76l2.41-3.89c.72-1.16,2.01-1.87,3.4-1.87h1.23c1.39,0,2.68.71,3.4,1.87l2.41,3.89c.38.61.17,1.39-.45,1.76s-1.44.17-1.81-.44l-1.19-1.91v8.94c0,.71-.59,1.28-1.32,1.28s-1.32-.57-1.32-1.28v-5.13h-.66Z"/>
    <path class="cls-1" d="m106.59,26.31c0-1.06.89-1.92,1.98-1.92s1.98.86,1.98,1.92-.89,1.92-1.98,1.92-1.98-.86-1.98-1.92Zm1.65,12.18v5.13c0,.71-.59,1.28-1.32,1.28s-1.32-.57-1.32-1.28v-8.94l-1.18,1.91c-.38.61-1.19.8-1.81.44s-.83-1.15-.45-1.76l2.41-3.89c.72-1.16,2.01-1.87,3.4-1.87h1.23c1.39,0,2.68.71,3.4,1.87l2.41,3.89c.38.61.17,1.39-.45,1.76s-1.44.17-1.81-.44l-1.19-1.91v8.94c0,.71-.59,1.28-1.32,1.28s-1.32-.57-1.32-1.28v-5.13h-.66Z"/>
    <path class="cls-1" d="m48.32,26.31c0-1.06.89-1.92,1.98-1.92s1.98.86,1.98,1.92-.89,1.92-1.98,1.92-1.98-.86-1.98-1.92Zm1.65,12.18v5.13c0,.71-.59,1.28-1.32,1.28s-1.32-.57-1.32-1.28v-8.94l-1.18,1.91c-.38.61-1.19.8-1.81.44s-.83-1.15-.45-1.76l2.41-3.89c.72-1.16,2.01-1.87,3.4-1.87h1.23c1.39,0,2.68.71,3.4,1.87l2.41,3.89c.38.61.17,1.39-.45,1.76s-1.44.17-1.81-.44l-1.19-1.91v8.94c0,.71-.59,1.28-1.32,1.28s-1.32-.57-1.32-1.28v-5.13h-.66Z"/>
    <path class="cls-1" d="m135.73,26.31c0-1.06.89-1.92,1.98-1.92s1.98.86,1.98,1.92-.89,1.92-1.98,1.92-1.98-.86-1.98-1.92Zm1.65,12.18v5.13c0,.71-.59,1.28-1.32,1.28s-1.32-.57-1.32-1.28v-8.94l-1.18,1.91c-.38.61-1.19.8-1.81.44s-.83-1.15-.45-1.76l2.41-3.89c.72-1.16,2.01-1.87,3.4-1.87h1.23c1.39,0,2.68.71,3.4,1.87l2.41,3.89c.38.61.17,1.39-.45,1.76s-1.44.17-1.81-.44l-1.19-1.91v8.94c0,.71-.59,1.28-1.32,1.28s-1.32-.57-1.32-1.28v-5.13h-.66Z"/>
    <path class="cls-1" d="m121.16,26.31c0-1.06.89-1.92,1.98-1.92s1.98.86,1.98,1.92-.89,1.92-1.98,1.92-1.98-.86-1.98-1.92Zm1.65,12.18v5.13c0,.71-.59,1.28-1.32,1.28s-1.32-.57-1.32-1.28v-8.94l-1.18,1.91c-.38.61-1.19.8-1.81.44s-.83-1.15-.45-1.76l2.41-3.89c.72-1.16,2.01-1.87,3.4-1.87h1.23c1.39,0,2.68.71,3.4,1.87l2.41,3.89c.38.61.17,1.39-.45,1.76s-1.44.17-1.81-.44l-1.19-1.91v8.94c0,.71-.59,1.28-1.32,1.28s-1.32-.57-1.32-1.28v-5.13h-.66Z"/>
    <path class="cls-1" d="m4.84,75.24c0-1.06.89-1.92,1.98-1.92s1.98.86,1.98,1.92-.89,1.92-1.98,1.92-1.98-.86-1.98-1.92Zm1.65,12.18v5.13c0,.71-.59,1.28-1.32,1.28s-1.32-.57-1.32-1.28v-8.94l-1.18,1.91c-.38.61-1.19.8-1.81.44s-.83-1.15-.45-1.76l2.41-3.89c.72-1.16,2.01-1.87,3.4-1.87h1.23c1.39,0,2.68.71,3.4,1.87l2.41,3.89c.38.61.17,1.39-.45,1.76s-1.44.17-1.81-.44l-1.19-1.91v8.94c0,.71-.59,1.28-1.32,1.28s-1.32-.57-1.32-1.28v-5.13h-.66Z"/>
    <path class="cls-1" d="m77.38,75.24c0-1.06.89-1.92,1.98-1.92s1.98.86,1.98,1.92-.89,1.92-1.98,1.92-1.98-.86-1.98-1.92Zm1.65,12.18v5.13c0,.71-.59,1.28-1.32,1.28s-1.32-.57-1.32-1.28v-8.94l-1.18,1.91c-.38.61-1.19.8-1.81.44s-.83-1.15-.45-1.76l2.41-3.89c.72-1.16,2.01-1.87,3.4-1.87h1.23c1.39,0,2.68.71,3.4,1.87l2.41,3.89c.38.61.17,1.39-.45,1.76s-1.44.17-1.81-.44l-1.19-1.91v8.94c0,.71-.59,1.28-1.32,1.28s-1.32-.57-1.32-1.28v-5.13h-.66Z"/>
    <path class="cls-1" d="m62.87,75.24c0-1.06.89-1.92,1.98-1.92s1.98.86,1.98,1.92-.89,1.92-1.98,1.92-1.98-.86-1.98-1.92Zm1.65,12.18v5.13c0,.71-.59,1.28-1.32,1.28s-1.32-.57-1.32-1.28v-8.94l-1.18,1.91c-.38.61-1.19.8-1.81.44s-.83-1.15-.45-1.76l2.41-3.89c.72-1.16,2.01-1.87,3.4-1.87h1.23c1.39,0,2.68.71,3.4,1.87l2.41,3.89c.38.61.17,1.39-.45,1.76s-1.44.17-1.81-.44l-1.19-1.91v8.94c0,.71-.59,1.28-1.32,1.28s-1.32-.57-1.32-1.28v-5.13h-.66Z"/>
    <path class="cls-1" d="m48.36,75.24c0-1.06.89-1.92,1.98-1.92s1.98.86,1.98,1.92-.89,1.92-1.98,1.92-1.98-.86-1.98-1.92Zm1.65,12.18v5.13c0,.71-.59,1.28-1.32,1.28s-1.32-.57-1.32-1.28v-8.94l-1.18,1.91c-.38.61-1.19.8-1.81.44s-.83-1.15-.45-1.76l2.41-3.89c.72-1.16,2.01-1.87,3.4-1.87h1.23c1.39,0,2.68.71,3.4,1.87l2.41,3.89c.38.61.17,1.39-.45,1.76s-1.44.17-1.81-.44l-1.19-1.91v8.94c0,.71-.59,1.28-1.32,1.28s-1.32-.57-1.32-1.28v-5.13h-.66Z"/>
    <path class="cls-1" d="m33.86,75.24c0-1.06.89-1.92,1.98-1.92s1.98.86,1.98,1.92-.89,1.92-1.98,1.92-1.98-.86-1.98-1.92Zm1.65,12.18v5.13c0,.71-.59,1.28-1.32,1.28s-1.32-.57-1.32-1.28v-8.94l-1.18,1.91c-.38.61-1.19.8-1.81.44s-.83-1.15-.45-1.76l2.41-3.89c.72-1.16,2.01-1.87,3.4-1.87h1.23c1.39,0,2.68.71,3.4,1.87l2.41,3.89c.38.61.17,1.39-.45,1.76s-1.44.17-1.81-.44l-1.19-1.91v8.94c0,.71-.59,1.28-1.32,1.28s-1.32-.57-1.32-1.28v-5.13h-.66Z"/>
    <path class="cls-1" d="m19.35,75.24c0-1.06.89-1.92,1.98-1.92s1.98.86,1.98,1.92-.89,1.92-1.98,1.92-1.98-.86-1.98-1.92Zm1.65,12.18v5.13c0,.71-.59,1.28-1.32,1.28s-1.32-.57-1.32-1.28v-8.94l-1.18,1.91c-.38.61-1.19.8-1.81.44s-.83-1.15-.45-1.76l2.41-3.89c.72-1.16,2.01-1.87,3.4-1.87h1.23c1.39,0,2.68.71,3.4,1.87l2.41,3.89c.38.61.17,1.39-.45,1.76s-1.44.17-1.81-.44l-1.19-1.91v8.94c0,.71-.59,1.28-1.32,1.28s-1.32-.57-1.32-1.28v-5.13h-.66Z"/>
    <path class="cls-1" d="m91.88,75.24c0-1.06.89-1.92,1.98-1.92s1.98.86,1.98,1.92-.89,1.92-1.98,1.92-1.98-.86-1.98-1.92Zm1.65,12.18v5.13c0,.71-.59,1.28-1.32,1.28s-1.32-.57-1.32-1.28v-8.94l-1.18,1.91c-.38.61-1.19.8-1.81.44s-.83-1.15-.45-1.76l2.41-3.89c.72-1.16,2.01-1.87,3.4-1.87h1.23c1.39,0,2.68.71,3.4,1.87l2.41,3.89c.38.61.17,1.39-.45,1.76s-1.44.17-1.81-.44l-1.19-1.91v8.94c0,.71-.59,1.28-1.32,1.28s-1.32-.57-1.32-1.28v-5.13h-.66Z"/>
    <path class="cls-1" d="m106.39,75.24c0-1.06.89-1.92,1.98-1.92s1.98.86,1.98,1.92-.89,1.92-1.98,1.92-1.98-.86-1.98-1.92Zm1.65,12.18v5.13c0,.71-.59,1.28-1.32,1.28s-1.32-.57-1.32-1.28v-8.94l-1.18,1.91c-.38.61-1.19.8-1.81.44s-.83-1.15-.45-1.76l2.41-3.89c.72-1.16,2.01-1.87,3.4-1.87h1.23c1.39,0,2.68.71,3.4,1.87l2.41,3.89c.38.61.17,1.39-.45,1.76s-1.44.17-1.81-.44l-1.19-1.91v8.94c0,.71-.59,1.28-1.32,1.28s-1.32-.57-1.32-1.28v-5.13h-.66Z"/>
    <path class="cls-1" d="m150.88,1.92c0-1.06.89-1.92,1.98-1.92s1.98.86,1.98,1.92-.89,1.92-1.98,1.92-1.98-.86-1.98-1.92Zm1.65,12.18v5.13c0,.71-.59,1.28-1.32,1.28s-1.32-.57-1.32-1.28v-8.94l-1.18,1.91c-.38.61-1.19.8-1.81.44s-.83-1.15-.45-1.76l2.41-3.89c.72-1.16,2.01-1.87,3.4-1.87h1.23c1.39,0,2.68.71,3.4,1.87l2.41,3.89c.38.61.17,1.39-.45,1.76s-1.44.17-1.81-.44l-1.19-1.91v8.94c0,.71-.59,1.28-1.32,1.28s-1.32-.57-1.32-1.28v-5.13h-.66Z"/>
    <path class="cls-1" d="m223.41,1.92c0-1.06.89-1.92,1.98-1.92s1.98.86,1.98,1.92-.89,1.92-1.98,1.92-1.98-.86-1.98-1.92Zm1.65,12.18v5.13c0,.71-.59,1.28-1.32,1.28s-1.32-.57-1.32-1.28v-8.94l-1.18,1.91c-.38.61-1.19.8-1.81.44s-.83-1.15-.45-1.76l2.41-3.89c.72-1.16,2.01-1.87,3.4-1.87h1.23c1.39,0,2.68.71,3.4,1.87l2.41,3.89c.38.61.17,1.39-.45,1.76s-1.44.17-1.81-.44l-1.19-1.91v8.94c0,.71-.59,1.28-1.32,1.28s-1.32-.57-1.32-1.28v-5.13h-.66Z"/>
    <path class="cls-1" d="m208.91,1.92c0-1.06.89-1.92,1.98-1.92s1.98.86,1.98,1.92-.89,1.92-1.98,1.92-1.98-.86-1.98-1.92Zm1.65,12.18v5.13c0,.71-.59,1.28-1.32,1.28s-1.32-.57-1.32-1.28v-8.94l-1.18,1.91c-.38.61-1.19.8-1.81.44s-.83-1.15-.45-1.76l2.41-3.89c.72-1.16,2.01-1.87,3.4-1.87h1.23c1.39,0,2.68.71,3.4,1.87l2.41,3.89c.38.61.17,1.39-.45,1.76s-1.44.17-1.81-.44l-1.19-1.91v8.94c0,.71-.59,1.28-1.32,1.28s-1.32-.57-1.32-1.28v-5.13h-.66Z"/>
    <path class="cls-1" d="m194.4,1.92c0-1.06.89-1.92,1.98-1.92s1.98.86,1.98,1.92-.89,1.92-1.98,1.92-1.98-.86-1.98-1.92Zm1.65,12.18v5.13c0,.71-.59,1.28-1.32,1.28s-1.32-.57-1.32-1.28v-8.94l-1.18,1.91c-.38.61-1.19.8-1.81.44s-.83-1.15-.45-1.76l2.41-3.89c.72-1.16,2.01-1.87,3.4-1.87h1.23c1.39,0,2.68.71,3.4,1.87l2.41,3.89c.38.61.17,1.39-.45,1.76s-1.44.17-1.81-.44l-1.19-1.91v8.94c0,.71-.59,1.28-1.32,1.28s-1.32-.57-1.32-1.28v-5.13h-.66Z"/>
    <path class="cls-1" d="m179.89,1.92c0-1.06.89-1.92,1.98-1.92s1.98.86,1.98,1.92-.89,1.92-1.98,1.92-1.98-.86-1.98-1.92Zm1.65,12.18v5.13c0,.71-.59,1.28-1.32,1.28s-1.32-.57-1.32-1.28v-8.94l-1.18,1.91c-.38.61-1.19.8-1.81.44s-.83-1.15-.45-1.76l2.41-3.89c.72-1.16,2.01-1.87,3.4-1.87h1.23c1.39,0,2.68.71,3.4,1.87l2.41,3.89c.38.61.17,1.39-.45,1.76s-1.44.17-1.81-.44l-1.19-1.91v8.94c0,.71-.59,1.28-1.32,1.28s-1.32-.57-1.32-1.28v-5.13h-.66Z"/>
    <path class="cls-1" d="m165.39,1.92c0-1.06.89-1.92,1.98-1.92s1.98.86,1.98,1.92-.89,1.92-1.98,1.92-1.98-.86-1.98-1.92Zm1.65,12.18v5.13c0,.71-.59,1.28-1.32,1.28s-1.32-.57-1.32-1.28v-8.94l-1.18,1.91c-.38.61-1.19.8-1.81.44s-.83-1.15-.45-1.76l2.41-3.89c.72-1.16,2.01-1.87,3.4-1.87h1.23c1.39,0,2.68.71,3.4,1.87l2.41,3.89c.38.61.17,1.39-.45,1.76s-1.44.17-1.81-.44l-1.19-1.91v8.94c0,.71-.59,1.28-1.32,1.28s-1.32-.57-1.32-1.28v-5.13h-.66Z"/>
    <path class="cls-1" d="m237.92,1.92c0-1.06.89-1.92,1.98-1.92s1.98.86,1.98,1.92-.89,1.92-1.98,1.92-1.98-.86-1.98-1.92Zm1.65,12.18v5.13c0,.71-.59,1.28-1.32,1.28s-1.32-.57-1.32-1.28v-8.94l-1.18,1.91c-.38.61-1.19.8-1.81.44s-.83-1.15-.45-1.76l2.41-3.89c.72-1.16,2.01-1.87,3.4-1.87h1.23c1.39,0,2.68.71,3.4,1.87l2.41,3.89c.38.61.17,1.39-.45,1.76s-1.44.17-1.81-.44l-1.19-1.91v8.94c0,.71-.59,1.28-1.32,1.28s-1.32-.57-1.32-1.28v-5.13h-.66Z"/>
    <path class="cls-1" d="m150.65,49.46c0-1.06.89-1.92,1.98-1.92s1.98.86,1.98,1.92-.89,1.92-1.98,1.92-1.98-.86-1.98-1.92Zm1.65,12.18v5.13c0,.71-.59,1.28-1.32,1.28s-1.32-.57-1.32-1.28v-8.94l-1.18,1.91c-.38.61-1.19.8-1.81.44s-.83-1.15-.45-1.76l2.41-3.89c.72-1.16,2.01-1.87,3.4-1.87h1.23c1.39,0,2.68.71,3.4,1.87l2.41,3.89c.38.61.17,1.39-.45,1.76s-1.44.17-1.81-.44l-1.19-1.91v8.94c0,.71-.59,1.28-1.32,1.28s-1.32-.57-1.32-1.28v-5.13h-.66Z"/>
    <path class="cls-1" d="m165.16,49.46c0-1.06.89-1.92,1.98-1.92s1.98.86,1.98,1.92-.89,1.92-1.98,1.92-1.98-.86-1.98-1.92Zm1.65,12.18v5.13c0,.71-.59,1.28-1.32,1.28s-1.32-.57-1.32-1.28v-8.94l-1.18,1.91c-.38.61-1.19.8-1.81.44s-.83-1.15-.45-1.76l2.41-3.89c.72-1.16,2.01-1.87,3.4-1.87h1.23c1.39,0,2.68.71,3.4,1.87l2.41,3.89c.38.61.17,1.39-.45,1.76s-1.44.17-1.81-.44l-1.19-1.91v8.94c0,.71-.59,1.28-1.32,1.28s-1.32-.57-1.32-1.28v-5.13h-.66Z"/>
    <path class="cls-1" d="m281.44,1.92c0-1.06.89-1.92,1.98-1.92s1.98.86,1.98,1.92-.89,1.92-1.98,1.92-1.98-.86-1.98-1.92Zm1.65,12.18v5.13c0,.71-.59,1.28-1.32,1.28s-1.32-.57-1.32-1.28v-8.94l-1.18,1.91c-.38.61-1.19.8-1.81.44s-.83-1.15-.45-1.76l2.41-3.89c.72-1.16,2.01-1.87,3.4-1.87h1.23c1.39,0,2.68.71,3.4,1.87l2.41,3.89c.38.61.17,1.39-.45,1.76s-1.44.17-1.81-.44l-1.19-1.91v8.94c0,.71-.59,1.28-1.32,1.28s-1.32-.57-1.32-1.28v-5.13h-.66Z"/>
    <path class="cls-1" d="m266.94,1.92c0-1.06.89-1.92,1.98-1.92s1.98.86,1.98,1.92-.89,1.92-1.98,1.92-1.98-.86-1.98-1.92Zm1.65,12.18v5.13c0,.71-.59,1.28-1.32,1.28s-1.32-.57-1.32-1.28v-8.94l-1.18,1.91c-.38.61-1.19.8-1.81.44s-.83-1.15-.45-1.76l2.41-3.89c.72-1.16,2.01-1.87,3.4-1.87h1.23c1.39,0,2.68.71,3.4,1.87l2.41,3.89c.38.61.17,1.39-.45,1.76s-1.44.17-1.81-.44l-1.19-1.91v8.94c0,.71-.59,1.28-1.32,1.28s-1.32-.57-1.32-1.28v-5.13h-.66Z"/>
    <path class="cls-1" d="m252.43,1.92c0-1.06.89-1.92,1.98-1.92s1.98.86,1.98,1.92-.89,1.92-1.98,1.92-1.98-.86-1.98-1.92Zm1.65,12.18v5.13c0,.71-.59,1.28-1.32,1.28s-1.32-.57-1.32-1.28v-8.94l-1.18,1.91c-.38.61-1.19.8-1.81.44s-.83-1.15-.45-1.76l2.41-3.89c.72-1.16,2.01-1.87,3.4-1.87h1.23c1.39,0,2.68.71,3.4,1.87l2.41,3.89c.38.61.17,1.39-.45,1.76s-1.44.17-1.81-.44l-1.19-1.91v8.94c0,.71-.59,1.28-1.32,1.28s-1.32-.57-1.32-1.28v-5.13h-.66Z"/>
    <path class="cls-1" d="m150.43,25.83c0-1.06.89-1.92,1.98-1.92s1.98.86,1.98,1.92-.89,1.92-1.98,1.92-1.98-.86-1.98-1.92Zm1.65,12.18v5.13c0,.71-.59,1.28-1.32,1.28s-1.32-.57-1.32-1.28v-8.94l-1.18,1.91c-.38.61-1.19.8-1.81.44s-.83-1.15-.45-1.76l2.41-3.89c.72-1.16,2.01-1.87,3.4-1.87h1.23c1.39,0,2.68.71,3.4,1.87l2.41,3.89c.38.61.17,1.39-.45,1.76s-1.44.17-1.81-.44l-1.19-1.91v8.94c0,.71-.59,1.28-1.32,1.28s-1.32-.57-1.32-1.28v-5.13h-.66Z"/>
    <path class="cls-1" d="m223.18,49.46c0-1.06.89-1.92,1.98-1.92s1.98.86,1.98,1.92-.89,1.92-1.98,1.92-1.98-.86-1.98-1.92Zm1.65,12.18v5.13c0,.71-.59,1.28-1.32,1.28s-1.32-.57-1.32-1.28v-8.94l-1.18,1.91c-.38.61-1.19.8-1.81.44s-.83-1.15-.45-1.76l2.41-3.89c.72-1.16,2.01-1.87,3.4-1.87h1.23c1.39,0,2.68.71,3.4,1.87l2.41,3.89c.38.61.17,1.39-.45,1.76s-1.44.17-1.81-.44l-1.19-1.91v8.94c0,.71-.59,1.28-1.32,1.28s-1.32-.57-1.32-1.28v-5.13h-.66Z"/>
    <path class="cls-1" d="m208.67,49.46c0-1.06.89-1.92,1.98-1.92s1.98.86,1.98,1.92-.89,1.92-1.98,1.92-1.98-.86-1.98-1.92Zm1.65,12.18v5.13c0,.71-.59,1.28-1.32,1.28s-1.32-.57-1.32-1.28v-8.94l-1.18,1.91c-.38.61-1.19.8-1.81.44s-.83-1.15-.45-1.76l2.41-3.89c.72-1.16,2.01-1.87,3.4-1.87h1.23c1.39,0,2.68.71,3.4,1.87l2.41,3.89c.38.61.17,1.39-.45,1.76s-1.44.17-1.81-.44l-1.19-1.91v8.94c0,.71-.59,1.28-1.32,1.28s-1.32-.57-1.32-1.28v-5.13h-.66Z"/>
    <path class="cls-1" d="m194.17,49.46c0-1.06.89-1.92,1.98-1.92s1.98.86,1.98,1.92-.89,1.92-1.98,1.92-1.98-.86-1.98-1.92Zm1.65,12.18v5.13c0,.71-.59,1.28-1.32,1.28s-1.32-.57-1.32-1.28v-8.94l-1.18,1.91c-.38.61-1.19.8-1.81.44s-.83-1.15-.45-1.76l2.41-3.89c.72-1.16,2.01-1.87,3.4-1.87h1.23c1.39,0,2.68.71,3.4,1.87l2.41,3.89c.38.61.17,1.39-.45,1.76s-1.44.17-1.81-.44l-1.19-1.91v8.94c0,.71-.59,1.28-1.32,1.28s-1.32-.57-1.32-1.28v-5.13h-.66Z"/>
    <path class="cls-1" d="m179.56,25.83c0-1.06.89-1.92,1.98-1.92s1.98.86,1.98,1.92-.89,1.92-1.98,1.92-1.98-.86-1.98-1.92Zm1.65,12.18v5.13c0,.71-.59,1.28-1.32,1.28s-1.32-.57-1.32-1.28v-8.94l-1.18,1.91c-.38.61-1.19.8-1.81.44s-.83-1.15-.45-1.76l2.41-3.89c.72-1.16,2.01-1.87,3.4-1.87h1.23c1.39,0,2.68.71,3.4,1.87l2.41,3.89c.38.61.17,1.39-.45,1.76s-1.44.17-1.81-.44l-1.19-1.91v8.94c0,.71-.59,1.28-1.32,1.28s-1.32-.57-1.32-1.28v-5.13h-.66Z"/>
    <path class="cls-1" d="m164.99,25.83c0-1.06.89-1.92,1.98-1.92s1.98.86,1.98,1.92-.89,1.92-1.98,1.92-1.98-.86-1.98-1.92Zm1.65,12.18v5.13c0,.71-.59,1.28-1.32,1.28s-1.32-.57-1.32-1.28v-8.94l-1.18,1.91c-.38.61-1.19.8-1.81.44s-.83-1.15-.45-1.76l2.41-3.89c.72-1.16,2.01-1.87,3.4-1.87h1.23c1.39,0,2.68.71,3.4,1.87l2.41,3.89c.38.61.17,1.39-.45,1.76s-1.44.17-1.81-.44l-1.19-1.91v8.94c0,.71-.59,1.28-1.32,1.28s-1.32-.57-1.32-1.28v-5.13h-.66Z"/>
    <path class="cls-1" d="m237.68,49.46c0-1.06.89-1.92,1.98-1.92s1.98.86,1.98,1.92-.89,1.92-1.98,1.92-1.98-.86-1.98-1.92Zm1.65,12.18v5.13c0,.71-.59,1.28-1.32,1.28s-1.32-.57-1.32-1.28v-8.94l-1.18,1.91c-.38.61-1.19.8-1.81.44s-.83-1.15-.45-1.76l2.41-3.89c.72-1.16,2.01-1.87,3.4-1.87h1.23c1.39,0,2.68.71,3.4,1.87l2.41,3.89c.38.61.17,1.39-.45,1.76s-1.44.17-1.81-.44l-1.19-1.91v8.94c0,.71-.59,1.28-1.32,1.28s-1.32-.57-1.32-1.28v-5.13h-.66Z"/>
    <path class="cls-1" d="m179.66,49.46c0-1.06.89-1.92,1.98-1.92s1.98.86,1.98,1.92-.89,1.92-1.98,1.92-1.98-.86-1.98-1.92Zm1.65,12.18v5.13c0,.71-.59,1.28-1.32,1.28s-1.32-.57-1.32-1.28v-8.94l-1.18,1.91c-.38.61-1.19.8-1.81.44s-.83-1.15-.45-1.76l2.41-3.89c.72-1.16,2.01-1.87,3.4-1.87h1.23c1.39,0,2.68.71,3.4,1.87l2.41,3.89c.38.61.17,1.39-.45,1.76s-1.44.17-1.81-.44l-1.19-1.91v8.94c0,.71-.59,1.28-1.32,1.28s-1.32-.57-1.32-1.28v-5.13h-.66Z"/>
    <path class="cls-1" d="m281.2,49.46c0-1.06.89-1.92,1.98-1.92s1.98.86,1.98,1.92-.89,1.92-1.98,1.92-1.98-.86-1.98-1.92Zm1.65,12.18v5.13c0,.71-.59,1.28-1.32,1.28s-1.32-.57-1.32-1.28v-8.94l-1.18,1.91c-.38.61-1.19.8-1.81.44s-.83-1.15-.45-1.76l2.41-3.89c.72-1.16,2.01-1.87,3.4-1.87h1.23c1.39,0,2.68.71,3.4,1.87l2.41,3.89c.38.61.17,1.39-.45,1.76s-1.44.17-1.81-.44l-1.19-1.91v8.94c0,.71-.59,1.28-1.32,1.28s-1.32-.57-1.32-1.28v-5.13h-.66Z"/>
    <path class="cls-1" d="m266.69,49.46c0-1.06.89-1.92,1.98-1.92s1.98.86,1.98,1.92-.89,1.92-1.98,1.92-1.98-.86-1.98-1.92Zm1.65,12.18v5.13c0,.71-.59,1.28-1.32,1.28s-1.32-.57-1.32-1.28v-8.94l-1.18,1.91c-.38.61-1.19.8-1.81.44s-.83-1.15-.45-1.76l2.41-3.89c.72-1.16,2.01-1.87,3.4-1.87h1.23c1.39,0,2.68.71,3.4,1.87l2.41,3.89c.38.61.17,1.39-.45,1.76s-1.44.17-1.81-.44l-1.19-1.91v8.94c0,.71-.59,1.28-1.32,1.28s-1.32-.57-1.32-1.28v-5.13h-.66Z"/>
    <path class="cls-1" d="m252.19,49.46c0-1.06.89-1.92,1.98-1.92s1.98.86,1.98,1.92-.89,1.92-1.98,1.92-1.98-.86-1.98-1.92Zm1.65,12.18v5.13c0,.71-.59,1.28-1.32,1.28s-1.32-.57-1.32-1.28v-8.94l-1.18,1.91c-.38.61-1.19.8-1.81.44s-.83-1.15-.45-1.76l2.41-3.89c.72-1.16,2.01-1.87,3.4-1.87h1.23c1.39,0,2.68.71,3.4,1.87l2.41,3.89c.38.61.17,1.39-.45,1.76s-1.44.17-1.81-.44l-1.19-1.91v8.94c0,.71-.59,1.28-1.32,1.28s-1.32-.57-1.32-1.28v-5.13h-.66Z"/>
    <path class="cls-1" d="m237.83,25.83c0-1.06.89-1.92,1.98-1.92s1.98.86,1.98,1.92-.89,1.92-1.98,1.92-1.98-.86-1.98-1.92Zm1.65,12.18v5.13c0,.71-.59,1.28-1.32,1.28s-1.32-.57-1.32-1.28v-8.94l-1.18,1.91c-.38.61-1.19.8-1.81.44s-.83-1.15-.45-1.76l2.41-3.89c.72-1.16,2.01-1.87,3.4-1.87h1.23c1.39,0,2.68.71,3.4,1.87l2.41,3.89c.38.61.17,1.39-.45,1.76s-1.44.17-1.81-.44l-1.19-1.91v8.94c0,.71-.59,1.28-1.32,1.28s-1.32-.57-1.32-1.28v-5.13h-.66Z"/>
    <path class="cls-1" d="m223.26,25.83c0-1.06.89-1.92,1.98-1.92s1.98.86,1.98,1.92-.89,1.92-1.98,1.92-1.98-.86-1.98-1.92Zm1.65,12.18v5.13c0,.71-.59,1.28-1.32,1.28s-1.32-.57-1.32-1.28v-8.94l-1.18,1.91c-.38.61-1.19.8-1.81.44s-.83-1.15-.45-1.76l2.41-3.89c.72-1.16,2.01-1.87,3.4-1.87h1.23c1.39,0,2.68.71,3.4,1.87l2.41,3.89c.38.61.17,1.39-.45,1.76s-1.44.17-1.81-.44l-1.19-1.91v8.94c0,.71-.59,1.28-1.32,1.28s-1.32-.57-1.32-1.28v-5.13h-.66Z"/>
    <path class="cls-1" d="m208.69,25.83c0-1.06.89-1.92,1.98-1.92s1.98.86,1.98,1.92-.89,1.92-1.98,1.92-1.98-.86-1.98-1.92Zm1.65,12.18v5.13c0,.71-.59,1.28-1.32,1.28s-1.32-.57-1.32-1.28v-8.94l-1.18,1.91c-.38.61-1.19.8-1.81.44s-.83-1.15-.45-1.76l2.41-3.89c.72-1.16,2.01-1.87,3.4-1.87h1.23c1.39,0,2.68.71,3.4,1.87l2.41,3.89c.38.61.17,1.39-.45,1.76s-1.44.17-1.81-.44l-1.19-1.91v8.94c0,.71-.59,1.28-1.32,1.28s-1.32-.57-1.32-1.28v-5.13h-.66Z"/>
    <path class="cls-1" d="m252.39,25.83c0-1.06.89-1.92,1.98-1.92s1.98.86,1.98,1.92-.89,1.92-1.98,1.92-1.98-.86-1.98-1.92Zm1.65,12.18v5.13c0,.71-.59,1.28-1.32,1.28s-1.32-.57-1.32-1.28v-8.94l-1.18,1.91c-.38.61-1.19.8-1.81.44s-.83-1.15-.45-1.76l2.41-3.89c.72-1.16,2.01-1.87,3.4-1.87h1.23c1.39,0,2.68.71,3.4,1.87l2.41,3.89c.38.61.17,1.39-.45,1.76s-1.44.17-1.81-.44l-1.19-1.91v8.94c0,.71-.59,1.28-1.32,1.28s-1.32-.57-1.32-1.28v-5.13h-.66Z"/>
    <path class="cls-1" d="m194.13,25.83c0-1.06.89-1.92,1.98-1.92s1.98.86,1.98,1.92-.89,1.92-1.98,1.92-1.98-.86-1.98-1.92Zm1.65,12.18v5.13c0,.71-.59,1.28-1.32,1.28s-1.32-.57-1.32-1.28v-8.94l-1.18,1.91c-.38.61-1.19.8-1.81.44s-.83-1.15-.45-1.76l2.41-3.89c.72-1.16,2.01-1.87,3.4-1.87h1.23c1.39,0,2.68.71,3.4,1.87l2.41,3.89c.38.61.17,1.39-.45,1.76s-1.44.17-1.81-.44l-1.19-1.91v8.94c0,.71-.59,1.28-1.32,1.28s-1.32-.57-1.32-1.28v-5.13h-.66Z"/>
    <path class="cls-1" d="m281.53,25.83c0-1.06.89-1.92,1.98-1.92s1.98.86,1.98,1.92-.89,1.92-1.98,1.92-1.98-.86-1.98-1.92Zm1.65,12.18v5.13c0,.71-.59,1.28-1.32,1.28s-1.32-.57-1.32-1.28v-8.94l-1.18,1.91c-.38.61-1.19.8-1.81.44s-.83-1.15-.45-1.76l2.41-3.89c.72-1.16,2.01-1.87,3.4-1.87h1.23c1.39,0,2.68.71,3.4,1.87l2.41,3.89c.38.61.17,1.39-.45,1.76s-1.44.17-1.81-.44l-1.19-1.91v8.94c0,.71-.59,1.28-1.32,1.28s-1.32-.57-1.32-1.28v-5.13h-.66Z"/>
    <path class="cls-1" d="m266.96,25.83c0-1.06.89-1.92,1.98-1.92s1.98.86,1.98,1.92-.89,1.92-1.98,1.92-1.98-.86-1.98-1.92Zm1.65,12.18v5.13c0,.71-.59,1.28-1.32,1.28s-1.32-.57-1.32-1.28v-8.94l-1.18,1.91c-.38.61-1.19.8-1.81.44s-.83-1.15-.45-1.76l2.41-3.89c.72-1.16,2.01-1.87,3.4-1.87h1.23c1.39,0,2.68.71,3.4,1.87l2.41,3.89c.38.61.17,1.39-.45,1.76s-1.44.17-1.81-.44l-1.19-1.91v8.94c0,.71-.59,1.28-1.32,1.28s-1.32-.57-1.32-1.28v-5.13h-.66Z"/>
  </g>
</svg>