<?xml version="1.0" encoding="UTF-8"?>
<svg id="Layer_2" data-name="Layer 2" xmlns="http://www.w3.org/2000/svg" viewBox="0 0 293.64 134.63">
  <defs>
    <style>
      .cls-1 {
        fill: #d3d3d3;
      }
    </style>
  </defs>
  <g id="Layer_1-2" data-name="Layer 1">
    <path d="m10.33,3.91c0-2.16,1.81-3.91,4.03-3.91s4.03,1.75,4.03,3.91-1.81,3.91-4.03,3.91-4.03-1.75-4.03-3.91Zm3.36,24.79v10.44c0,1.44-1.2,2.61-2.69,2.61s-2.69-1.17-2.69-2.61v-18.19l-2.4,3.88c-.76,1.23-2.42,1.63-3.69.89s-1.68-2.35-.92-3.58l4.9-7.91c1.46-2.36,4.08-3.8,6.91-3.8h2.5c2.83,0,5.45,1.44,6.91,3.8l4.9,7.91c.76,1.23.35,2.84-.92,3.58s-2.92.34-3.69-.89l-2.41-3.88v18.19c0,1.44-1.2,2.61-2.69,2.61s-2.69-1.17-2.69-2.61v-10.44h-1.34Z"/>
    <path class="cls-1" d="m157.92,3.91c0-2.16,1.81-3.91,4.03-3.91s4.03,1.75,4.03,3.91-1.81,3.91-4.03,3.91-4.03-1.75-4.03-3.91Zm3.36,24.79v10.44c0,1.44-1.2,2.61-2.69,2.61s-2.69-1.17-2.69-2.61v-18.19l-2.4,3.88c-.76,1.23-2.42,1.63-3.69.89s-1.68-2.35-.92-3.58l4.9-7.91c1.46-2.36,4.08-3.8,6.91-3.8h2.5c2.83,0,5.45,1.44,6.91,3.8l4.9,7.91c.76,1.23.35,2.84-.92,3.58s-2.92.34-3.69-.89l-2.41-3.88v18.19c0,1.44-1.2,2.61-2.69,2.61s-2.69-1.17-2.69-2.61v-10.44h-1.34Z"/>
    <path class="cls-1" d="m128.4,3.91c0-2.16,1.81-3.91,4.03-3.91s4.03,1.75,4.03,3.91-1.81,3.91-4.03,3.91-4.03-1.75-4.03-3.91Zm3.36,24.79v10.44c0,1.44-1.2,2.61-2.69,2.61s-2.69-1.17-2.69-2.61v-18.19l-2.4,3.88c-.76,1.23-2.42,1.63-3.69.89s-1.68-2.35-.92-3.58l4.9-7.91c1.46-2.36,4.08-3.8,6.91-3.8h2.5c2.83,0,5.45,1.44,6.91,3.8l4.9,7.91c.76,1.23.35,2.84-.92,3.58s-2.92.34-3.69-.89l-2.41-3.88v18.19c0,1.44-1.2,2.61-2.69,2.61s-2.69-1.17-2.69-2.61v-10.44h-1.34Z"/>
    <path class="cls-1" d="m98.88,3.91c0-2.16,1.81-3.91,4.03-3.91s4.03,1.75,4.03,3.91-1.81,3.91-4.03,3.91-4.03-1.75-4.03-3.91Zm3.36,24.79v10.44c0,1.44-1.2,2.61-2.69,2.61s-2.69-1.17-2.69-2.61v-18.19l-2.4,3.88c-.76,1.23-2.42,1.63-3.69.89s-1.68-2.35-.92-3.58l4.9-7.91c1.46-2.36,4.08-3.8,6.91-3.8h2.5c2.83,0,5.45,1.44,6.91,3.8l4.9,7.91c.76,1.23.35,2.84-.92,3.58s-2.92.34-3.69-.89l-2.41-3.88v18.19c0,1.44-1.2,2.61-2.69,2.61s-2.69-1.17-2.69-2.61v-10.44h-1.34Z"/>
    <path class="cls-1" d="m69.37,3.91c0-2.16,1.81-3.91,4.03-3.91s4.03,1.75,4.03,3.91-1.81,3.91-4.03,3.91-4.03-1.75-4.03-3.91Zm3.36,24.79v10.44c0,1.44-1.2,2.61-2.69,2.61s-2.69-1.17-2.69-2.61v-18.19l-2.4,3.88c-.76,1.23-2.42,1.63-3.69.89s-1.68-2.35-.92-3.58l4.9-7.91c1.46-2.36,4.08-3.8,6.91-3.8h2.5c2.83,0,5.45,1.44,6.91,3.8l4.9,7.91c.76,1.23.35,2.84-.92,3.58s-2.92.34-3.69-.89l-2.41-3.88v18.19c0,1.44-1.2,2.61-2.69,2.61s-2.69-1.17-2.69-2.61v-10.44h-1.34Z"/>
    <path class="cls-1" d="m39.85,3.91c0-2.16,1.81-3.91,4.03-3.91s4.03,1.75,4.03,3.91-1.81,3.91-4.03,3.91-4.03-1.75-4.03-3.91Zm3.36,24.79v10.44c0,1.44-1.2,2.61-2.69,2.61s-2.69-1.17-2.69-2.61v-18.19l-2.4,3.88c-.76,1.23-2.42,1.63-3.69.89s-1.68-2.35-.92-3.58l4.9-7.91c1.46-2.36,4.08-3.8,6.91-3.8h2.5c2.83,0,5.45,1.44,6.91,3.8l4.9,7.91c.76,1.23.35,2.84-.92,3.58s-2.92.34-3.69-.89l-2.41-3.88v18.19c0,1.44-1.2,2.61-2.69,2.61s-2.69-1.17-2.69-2.61v-10.44h-1.34Z"/>
    <path class="cls-1" d="m187.44,3.91c0-2.16,1.81-3.91,4.03-3.91s4.03,1.75,4.03,3.91-1.81,3.91-4.03,3.91-4.03-1.75-4.03-3.91Zm3.36,24.79v10.44c0,1.44-1.2,2.61-2.69,2.61s-2.69-1.17-2.69-2.61v-18.19l-2.4,3.88c-.76,1.23-2.42,1.63-3.69.89s-1.68-2.35-.92-3.58l4.9-7.91c1.46-2.36,4.08-3.8,6.91-3.8h2.5c2.83,0,5.45,1.44,6.91,3.8l4.9,7.91c.76,1.23.35,2.84-.92,3.58s-2.92.34-3.69-.89l-2.41-3.88v18.19c0,1.44-1.2,2.61-2.69,2.61s-2.69-1.17-2.69-2.61v-10.44h-1.34Z"/>
    <path class="cls-1" d="m275.99,3.91c0-2.16,1.81-3.91,4.03-3.91s4.03,1.75,4.03,3.91-1.81,3.91-4.03,3.91-4.03-1.75-4.03-3.91Zm3.36,24.79v10.44c0,1.44-1.2,2.61-2.69,2.61s-2.69-1.17-2.69-2.61v-18.19l-2.4,3.88c-.76,1.23-2.42,1.63-3.69.89s-1.68-2.35-.92-3.58l4.9-7.91c1.46-2.36,4.08-3.8,6.91-3.8h2.5c2.83,0,5.45,1.44,6.91,3.8l4.9,7.91c.76,1.23.35,2.84-.92,3.58s-2.92.34-3.69-.89l-2.41-3.88v18.19c0,1.44-1.2,2.61-2.69,2.61s-2.69-1.17-2.69-2.61v-10.44h-1.34Z"/>
    <path class="cls-1" d="m246.47,3.91c0-2.16,1.81-3.91,4.03-3.91s4.03,1.75,4.03,3.91-1.81,3.91-4.03,3.91-4.03-1.75-4.03-3.91Zm3.36,24.79v10.44c0,1.44-1.2,2.61-2.69,2.61s-2.69-1.17-2.69-2.61v-18.19l-2.4,3.88c-.76,1.23-2.42,1.63-3.69.89s-1.68-2.35-.92-3.58l4.9-7.91c1.46-2.36,4.08-3.8,6.91-3.8h2.5c2.83,0,5.45,1.44,6.91,3.8l4.9,7.91c.76,1.23.35,2.84-.92,3.58s-2.92.34-3.69-.89l-2.41-3.88v18.19c0,1.44-1.2,2.61-2.69,2.61s-2.69-1.17-2.69-2.61v-10.44h-1.34Z"/>
    <path class="cls-1" d="m216.95,3.91c0-2.16,1.81-3.91,4.03-3.91s4.03,1.75,4.03,3.91-1.81,3.91-4.03,3.91-4.03-1.75-4.03-3.91Zm3.36,24.79v10.44c0,1.44-1.2,2.61-2.69,2.61s-2.69-1.17-2.69-2.61v-18.19l-2.4,3.88c-.76,1.23-2.42,1.63-3.69.89s-1.68-2.35-.92-3.58l4.9-7.91c1.46-2.36,4.08-3.8,6.91-3.8h2.5c2.83,0,5.45,1.44,6.91,3.8l4.9,7.91c.76,1.23.35,2.84-.92,3.58s-2.92.34-3.69-.89l-2.41-3.88v18.19c0,1.44-1.2,2.61-2.69,2.61s-2.69-1.17-2.69-2.61v-10.44h-1.34Z"/>
    <path class="cls-1" d="m9.41,49.57c0-2.16,1.81-3.91,4.03-3.91s4.03,1.75,4.03,3.91-1.81,3.91-4.03,3.91-4.03-1.75-4.03-3.91Zm3.36,24.79v10.44c0,1.44-1.2,2.61-2.69,2.61s-2.69-1.17-2.69-2.61v-18.19l-2.4,3.88c-.76,1.23-2.42,1.63-3.69.89s-1.68-2.35-.92-3.58l4.9-7.91c1.46-2.36,4.08-3.8,6.91-3.8h2.5c2.83,0,5.45,1.44,6.91,3.8l4.9,7.91c.76,1.23.35,2.84-.92,3.58s-2.92.34-3.69-.89l-2.41-3.88v18.19c0,1.44-1.2,2.61-2.69,2.61s-2.69-1.17-2.69-2.61v-10.44h-1.34Z"/>
    <path class="cls-1" d="m68.69,49.57c0-2.16,1.81-3.91,4.03-3.91s4.03,1.75,4.03,3.91-1.81,3.91-4.03,3.91-4.03-1.75-4.03-3.91Zm3.36,24.79v10.44c0,1.44-1.2,2.61-2.69,2.61s-2.69-1.17-2.69-2.61v-18.19l-2.4,3.88c-.76,1.23-2.42,1.63-3.69.89s-1.68-2.35-.92-3.58l4.9-7.91c1.46-2.36,4.08-3.8,6.91-3.8h2.5c2.83,0,5.45,1.44,6.91,3.8l4.9,7.91c.76,1.23.35,2.84-.92,3.58s-2.92.34-3.69-.89l-2.41-3.88v18.19c0,1.44-1.2,2.61-2.69,2.61s-2.69-1.17-2.69-2.61v-10.44h-1.34Z"/>
    <path class="cls-1" d="m39.05,49.57c0-2.16,1.81-3.91,4.03-3.91s4.03,1.75,4.03,3.91-1.81,3.91-4.03,3.91-4.03-1.75-4.03-3.91Zm3.36,24.79v10.44c0,1.44-1.2,2.61-2.69,2.61s-2.69-1.17-2.69-2.61v-18.19l-2.4,3.88c-.76,1.23-2.42,1.63-3.69.89s-1.68-2.35-.92-3.58l4.9-7.91c1.46-2.36,4.08-3.8,6.91-3.8h2.5c2.83,0,5.45,1.44,6.91,3.8l4.9,7.91c.76,1.23.35,2.84-.92,3.58s-2.92.34-3.69-.89l-2.41-3.88v18.19c0,1.44-1.2,2.61-2.69,2.61s-2.69-1.17-2.69-2.61v-10.44h-1.34Z"/>
    <path class="cls-1" d="m187.24,49.57c0-2.16,1.81-3.91,4.03-3.91s4.03,1.75,4.03,3.91-1.81,3.91-4.03,3.91-4.03-1.75-4.03-3.91Zm3.36,24.79v10.44c0,1.44-1.2,2.61-2.69,2.61s-2.69-1.17-2.69-2.61v-18.19l-2.4,3.88c-.76,1.23-2.42,1.63-3.69.89s-1.68-2.35-.92-3.58l4.9-7.91c1.46-2.36,4.08-3.8,6.91-3.8h2.5c2.83,0,5.45,1.44,6.91,3.8l4.9,7.91c.76,1.23.35,2.84-.92,3.58s-2.92.34-3.69-.89l-2.41-3.88v18.19c0,1.44-1.2,2.61-2.69,2.61s-2.69-1.17-2.69-2.61v-10.44h-1.34Z"/>
    <path class="cls-1" d="m157.61,49.57c0-2.16,1.81-3.91,4.03-3.91s4.03,1.75,4.03,3.91-1.81,3.91-4.03,3.91-4.03-1.75-4.03-3.91Zm3.36,24.79v10.44c0,1.44-1.2,2.61-2.69,2.61s-2.69-1.17-2.69-2.61v-18.19l-2.4,3.88c-.76,1.23-2.42,1.63-3.69.89s-1.68-2.35-.92-3.58l4.9-7.91c1.46-2.36,4.08-3.8,6.91-3.8h2.5c2.83,0,5.45,1.44,6.91,3.8l4.9,7.91c.76,1.23.35,2.84-.92,3.58s-2.92.34-3.69-.89l-2.41-3.88v18.19c0,1.44-1.2,2.61-2.69,2.61s-2.69-1.17-2.69-2.61v-10.44h-1.34Z"/>
    <path class="cls-1" d="m127.97,49.57c0-2.16,1.81-3.91,4.03-3.91s4.03,1.75,4.03,3.91-1.81,3.91-4.03,3.91-4.03-1.75-4.03-3.91Zm3.36,24.79v10.44c0,1.44-1.2,2.61-2.69,2.61s-2.69-1.17-2.69-2.61v-18.19l-2.4,3.88c-.76,1.23-2.42,1.63-3.69.89s-1.68-2.35-.92-3.58l4.9-7.91c1.46-2.36,4.08-3.8,6.91-3.8h2.5c2.83,0,5.45,1.44,6.91,3.8l4.9,7.91c.76,1.23.35,2.84-.92,3.58s-2.92.34-3.69-.89l-2.41-3.88v18.19c0,1.44-1.2,2.61-2.69,2.61s-2.69-1.17-2.69-2.61v-10.44h-1.34Z"/>
    <path class="cls-1" d="m216.88,49.57c0-2.16,1.81-3.91,4.03-3.91s4.03,1.75,4.03,3.91-1.81,3.91-4.03,3.91-4.03-1.75-4.03-3.91Zm3.36,24.79v10.44c0,1.44-1.2,2.61-2.69,2.61s-2.69-1.17-2.69-2.61v-18.19l-2.4,3.88c-.76,1.23-2.42,1.63-3.69.89s-1.68-2.35-.92-3.58l4.9-7.91c1.46-2.36,4.08-3.8,6.91-3.8h2.5c2.83,0,5.45,1.44,6.91,3.8l4.9,7.91c.76,1.23.35,2.84-.92,3.58s-2.92.34-3.69-.89l-2.41-3.88v18.19c0,1.44-1.2,2.61-2.69,2.61s-2.69-1.17-2.69-2.61v-10.44h-1.34Z"/>
    <path class="cls-1" d="m98.33,49.57c0-2.16,1.81-3.91,4.03-3.91s4.03,1.75,4.03,3.91-1.81,3.91-4.03,3.91-4.03-1.75-4.03-3.91Zm3.36,24.79v10.44c0,1.44-1.2,2.61-2.69,2.61s-2.69-1.17-2.69-2.61v-18.19l-2.4,3.88c-.76,1.23-2.42,1.63-3.69.89s-1.68-2.35-.92-3.58l4.9-7.91c1.46-2.36,4.08-3.8,6.91-3.8h2.5c2.83,0,5.45,1.44,6.91,3.8l4.9,7.91c.76,1.23.35,2.84-.92,3.58s-2.92.34-3.69-.89l-2.41-3.88v18.19c0,1.44-1.2,2.61-2.69,2.61s-2.69-1.17-2.69-2.61v-10.44h-1.34Z"/>
    <path class="cls-1" d="m276.16,49.57c0-2.16,1.81-3.91,4.03-3.91s4.03,1.75,4.03,3.91-1.81,3.91-4.03,3.91-4.03-1.75-4.03-3.91Zm3.36,24.79v10.44c0,1.44-1.2,2.61-2.69,2.61s-2.69-1.17-2.69-2.61v-18.19l-2.4,3.88c-.76,1.23-2.42,1.63-3.69.89s-1.68-2.35-.92-3.58l4.9-7.91c1.46-2.36,4.08-3.8,6.91-3.8h2.5c2.83,0,5.45,1.44,6.91,3.8l4.9,7.91c.76,1.23.35,2.84-.92,3.58s-2.92.34-3.69-.89l-2.41-3.88v18.19c0,1.44-1.2,2.61-2.69,2.61s-2.69-1.17-2.69-2.61v-10.44h-1.34Z"/>
    <path class="cls-1" d="m246.52,49.57c0-2.16,1.81-3.91,4.03-3.91s4.03,1.75,4.03,3.91-1.81,3.91-4.03,3.91-4.03-1.75-4.03-3.91Zm3.36,24.79v10.44c0,1.44-1.2,2.61-2.69,2.61s-2.69-1.17-2.69-2.61v-18.19l-2.4,3.88c-.76,1.23-2.42,1.63-3.69.89s-1.68-2.35-.92-3.58l4.9-7.91c1.46-2.36,4.08-3.8,6.91-3.8h2.5c2.83,0,5.45,1.44,6.91,3.8l4.9,7.91c.76,1.23.35,2.84-.92,3.58s-2.92.34-3.69-.89l-2.41-3.88v18.19c0,1.44-1.2,2.61-2.69,2.61s-2.69-1.17-2.69-2.61v-10.44h-1.34Z"/>
    <path class="cls-1" d="m9.67,96.79c0-2.16,1.81-3.91,4.03-3.91s4.03,1.75,4.03,3.91-1.81,3.91-4.03,3.91-4.03-1.75-4.03-3.91Zm3.36,24.79v10.44c0,1.44-1.2,2.61-2.69,2.61s-2.69-1.17-2.69-2.61v-18.19l-2.4,3.88c-.76,1.23-2.42,1.63-3.69.89s-1.68-2.35-.92-3.58l4.9-7.91c1.46-2.36,4.08-3.8,6.91-3.8h2.5c2.83,0,5.45,1.44,6.91,3.8l4.9,7.91c.76,1.23.35,2.84-.92,3.58s-2.92.34-3.69-.89l-2.41-3.88v18.19c0,1.44-1.2,2.61-2.69,2.61s-2.69-1.17-2.69-2.61v-10.44h-1.34Z"/>
    <path class="cls-1" d="m68.95,96.79c0-2.16,1.81-3.91,4.03-3.91s4.03,1.75,4.03,3.91-1.81,3.91-4.03,3.91-4.03-1.75-4.03-3.91Zm3.36,24.79v10.44c0,1.44-1.2,2.61-2.69,2.61s-2.69-1.17-2.69-2.61v-18.19l-2.4,3.88c-.76,1.23-2.42,1.63-3.69.89s-1.68-2.35-.92-3.58l4.9-7.91c1.46-2.36,4.08-3.8,6.91-3.8h2.5c2.83,0,5.45,1.44,6.91,3.8l4.9,7.91c.76,1.23.35,2.84-.92,3.58s-2.92.34-3.69-.89l-2.41-3.88v18.19c0,1.44-1.2,2.61-2.69,2.61s-2.69-1.17-2.69-2.61v-10.44h-1.34Z"/>
    <path class="cls-1" d="m39.31,96.79c0-2.16,1.81-3.91,4.03-3.91s4.03,1.75,4.03,3.91-1.81,3.91-4.03,3.91-4.03-1.75-4.03-3.91Zm3.36,24.79v10.44c0,1.44-1.2,2.61-2.69,2.61s-2.69-1.17-2.69-2.61v-18.19l-2.4,3.88c-.76,1.23-2.42,1.63-3.69.89s-1.68-2.35-.92-3.58l4.9-7.91c1.46-2.36,4.08-3.8,6.91-3.8h2.5c2.83,0,5.45,1.44,6.91,3.8l4.9,7.91c.76,1.23.35,2.84-.92,3.58s-2.92.34-3.69-.89l-2.41-3.88v18.19c0,1.44-1.2,2.61-2.69,2.61s-2.69-1.17-2.69-2.61v-10.44h-1.34Z"/>
    <path class="cls-1" d="m128.23,96.79c0-2.16,1.81-3.91,4.03-3.91s4.03,1.75,4.03,3.91-1.81,3.91-4.03,3.91-4.03-1.75-4.03-3.91Zm3.36,24.79v10.44c0,1.44-1.2,2.61-2.69,2.61s-2.69-1.17-2.69-2.61v-18.19l-2.4,3.88c-.76,1.23-2.42,1.63-3.69.89s-1.68-2.35-.92-3.58l4.9-7.91c1.46-2.36,4.08-3.8,6.91-3.8h2.5c2.83,0,5.45,1.44,6.91,3.8l4.9,7.91c.76,1.23.35,2.84-.92,3.58s-2.92.34-3.69-.89l-2.41-3.88v18.19c0,1.44-1.2,2.61-2.69,2.61s-2.69-1.17-2.69-2.61v-10.44h-1.34Z"/>
    <path class="cls-1" d="m98.59,96.79c0-2.16,1.81-3.91,4.03-3.91s4.03,1.75,4.03,3.91-1.81,3.91-4.03,3.91-4.03-1.75-4.03-3.91Zm3.36,24.79v10.44c0,1.44-1.2,2.61-2.69,2.61s-2.69-1.17-2.69-2.61v-18.19l-2.4,3.88c-.76,1.23-2.42,1.63-3.69.89s-1.68-2.35-.92-3.58l4.9-7.91c1.46-2.36,4.08-3.8,6.91-3.8h2.5c2.83,0,5.45,1.44,6.91,3.8l4.9,7.91c.76,1.23.35,2.84-.92,3.58s-2.92.34-3.69-.89l-2.41-3.88v18.19c0,1.44-1.2,2.61-2.69,2.61s-2.69-1.17-2.69-2.61v-10.44h-1.34Z"/>
  </g>
</svg>