<?xml version="1.0" encoding="UTF-8"?>
<svg id="Layer_2" data-name="Layer 2" xmlns="http://www.w3.org/2000/svg" viewBox="0 0 143 219.22">
  <defs>
    <style>
      .cls-1 {
        font-family: MyriadPro-Regular, 'Myriad Pro';
        font-size: 14px;
      }

      .cls-2 {
        fill: #f1d6c2;
      }

      .cls-3 {
        fill: #fcf1df;
      }

      .cls-4 {
        fill: #e8bda5;
      }

      .cls-5 {
        fill: #c14642;
      }

      .cls-6 {
        fill: #d1826f;
      }

      .cls-7 {
        fill: #c76356;
      }

      .cls-8 {
        fill: #db9e87;
      }
    </style>
  </defs>
  <g id="Layer_1-2" data-name="Layer 1">
    <rect class="cls-3" y="1.22" width="21" height="21"/>
    <text class="cls-1" transform="translate(30.1 16.38)"><tspan x="0" y="0">0.09-0.32 µg/m</tspan></text>
    <text class="cls-1" transform="translate(118.3 11.72) scale(.58)"><tspan x="0" y="0">3</tspan></text>
    <rect class="cls-8" y="99.72" width="21" height="21"/>
    <rect class="cls-2" y="34.05" width="21" height="21"/>
    <rect class="cls-4" y="66.88" width="21" height="21"/>
    <rect class="cls-6" y="132.55" width="21" height="21"/>
    <rect class="cls-7" y="165.38" width="21" height="21"/>
    <rect class="cls-5" y="198.22" width="21" height="21"/>
    <text class="cls-1" transform="translate(30.26 50.42)"><tspan x="0" y="0">0.33-0.56 µg/m</tspan></text>
    <text class="cls-1" transform="translate(118.46 45.75) scale(.58)"><tspan x="0" y="0">3</tspan></text>
    <text class="cls-1" transform="translate(30.25 83.22)"><tspan x="0" y="0">0.57-0.83 µg/m</tspan></text>
    <text class="cls-1" transform="translate(118.44 78.56) scale(.58)"><tspan x="0" y="0">3</tspan></text>
    <text class="cls-1" transform="translate(30.25 116.03)"><tspan x="0" y="0">0.84-1.09 µg/m</tspan></text>
    <text class="cls-1" transform="translate(118.44 111.37) scale(.58)"><tspan x="0" y="0">3</tspan></text>
    <text class="cls-1" transform="translate(30.25 148.84)"><tspan x="0" y="0">1.10-1.37 µg/m</tspan></text>
    <text class="cls-1" transform="translate(118.44 144.17) scale(.58)"><tspan x="0" y="0">3</tspan></text>
    <text class="cls-1" transform="translate(30.25 181.64)"><tspan x="0" y="0">1.38-1.74 µg/m</tspan></text>
    <text class="cls-1" transform="translate(118.44 176.98) scale(.58)"><tspan x="0" y="0">3</tspan></text>
    <text class="cls-1" transform="translate(30.25 214.45)"><tspan x="0" y="0">1.75-2.60 µg/m</tspan></text>
    <text class="cls-1" transform="translate(118.44 209.79) scale(.58)"><tspan x="0" y="0">3</tspan></text>
  </g>
</svg>