<?xml version="1.0" encoding="utf-8"?>
<!-- Generator: Adobe Illustrator 27.4.0, SVG Export Plug-In . SVG Version: 6.00 Build 0)  -->
<svg version="1.1" id="Layer_1" xmlns="http://www.w3.org/2000/svg" xmlns:xlink="http://www.w3.org/1999/xlink" x="0px" y="0px"
	 viewBox="0 0 640 512" style="enable-background:new 0 0 640 512;" xml:space="preserve">
<style type="text/css">
	.st0{fill:none;}
	.st1{font-family:'Arial-BoldMT';}
	.st2{font-size:15.404px;}
	.st3{font-family:'ArialMT';}
	.st4{fill:#D2D2D3;}
	.st5{fill:#D3D3D3;}
</style>
<path d="M16.5,9.6c0-0.9,0.7-1.6,1.7-1.6h5.6c0.9,0,1.7,0.7,1.7,1.6v15.7h-2.8v-2.7c0-0.9-0.7-1.6-1.7-1.6s-1.7,0.7-1.7,1.6v2.7
	h-2.8V9.6z M11.5,11.3h3.9v14h-3.9c-0.9,0-1.7-0.7-1.7-1.6v-4.9h2.8c0.3,0,0.6-0.2,0.6-0.5s-0.3-0.5-0.6-0.5H9.8v-2.2h2.8
	c0.3,0,0.6-0.2,0.6-0.5c0-0.3-0.3-0.5-0.6-0.5H9.8v-1.6C9.8,12,10.6,11.3,11.5,11.3z M30.4,11.3c0.9,0,1.7,0.7,1.7,1.6v1.6h-2.8
	c-0.3,0-0.6,0.2-0.6,0.5c0,0.3,0.3,0.5,0.6,0.5h2.8v2.2h-2.8c-0.3,0-0.6,0.2-0.6,0.5s0.3,0.5,0.6,0.5h2.8v4.9c0,0.9-0.7,1.6-1.7,1.6
	h-3.9v-14H30.4z M20.7,10.2c-0.3,0-0.6,0.2-0.6,0.5v0.8h-0.8c-0.3,0-0.6,0.2-0.6,0.5v0.5c0,0.3,0.3,0.5,0.6,0.5h0.8V14
	c0,0.3,0.3,0.5,0.6,0.5h0.6c0.3,0,0.6-0.2,0.6-0.5v-0.8h0.8c0.3,0,0.6-0.2,0.6-0.5v-0.5c0-0.3-0.3-0.5-0.6-0.5h-0.8v-0.8
	c0-0.3-0.3-0.5-0.6-0.5H20.7z"/>
<rect x="40.1" y="11.8" class="st0" width="334.8" height="15.7"/>
<text transform="matrix(1.0302 0 0 1 40.1129 22.8685)"><tspan x="0" y="0" class="st1 st2">1</tspan><tspan x="8.6" y="0" class="st1 st2"> </tspan><tspan x="12.8" y="0" class="st3 st2">in 31 respiratory hospitalizations</tspan></text>
<rect x="219.8" y="619.7" class="st0" width="324.5" height="59.5"/>
<text transform="matrix(1 0 0 1 219.7886 635.441)"><tspan x="0" y="0" class="st3" style="fill:#108EC6; font-size:22px;">1</tspan><tspan x="12.2" y="0" class="st3" style="font-size:22px;"> </tspan><tspan x="18.3" y="0" class="st3" style="font-size:22px;">in 17 emergency room visits</tspan></text>
<path d="M135.6,651.4c1.1,0,2-0.9,2-2c0.1-0.6-0.2-1.1-0.7-1.5L121.1,634c-0.4-0.3-0.9-0.4-1.3-0.4c-0.4,0-0.9,0.1-1.4,0.5
	l-15.9,13.9c-0.4,0.4-0.6,0.9-0.6,1.5c0,1.1,0.9,2,2,2h2v10c0,2.2,1.8,4,4,4h19.9c2.2,0,4-1.8,4-4l0-9.9L135.6,651.4L135.6,651.4z
	 M117.8,646.4c0-0.5,0.4-1,1-1h2c0.5,0,1,0.4,1,1v3h3c0.5,0,1,0.4,1,1v2c0,0.5-0.4,1-1,1h-3v3c0,0.5-0.4,1-1,1h-2c-0.5,0-1-0.4-1-1
	v-3h-3c-0.5,0-1-0.4-1-1v-2c0-0.5,0.4-1,1-1h3V646.4z"/>
<rect x="53.6" y="617.5" class="st0" width="357.4" height="20.2"/>
<text transform="matrix(1 0 0 1 53.5572 633.2932)"><tspan x="0" y="0" class="st3" style="fill:#108EC6; font-size:22px;">1</tspan><tspan x="12.2" y="0" class="st3" style="font-size:22px;"> </tspan><tspan x="18.3" y="0" class="st3" style="font-size:22px;">in 20 deaths</tspan></text>
<rect x="407.2" y="669.4" class="st0" width="356.3" height="49.6"/>
<text transform="matrix(1 0 0 1 407.1998 685.142)"><tspan x="0" y="0" class="st3" style="fill:#108EC6; font-size:22px;">1</tspan><tspan x="12.2" y="0" class="st3" style="font-size:22px;"> </tspan><tspan x="18.3" y="0" class="st3" style="font-size:22px;">in 17 asthma emergency room </tspan><tspan x="0" y="26.4" class="st3" style="font-size:22px;">visits</tspan></text>
<path d="M44.3,621.7c1.1,0,2-0.9,2-2c0.1-0.6-0.2-1.1-0.7-1.5l-15.9-13.9c-0.4-0.3-0.9-0.4-1.3-0.4s-0.9,0.1-1.4,0.5l-15.9,13.9
	c-0.4,0.4-0.6,0.9-0.6,1.5c0,1.1,0.9,2,2,2h2v10c0,2.2,1.8,4,4,4h19.9c2.2,0,4-1.8,4-4l0-9.9L44.3,621.7L44.3,621.7z M26.4,616.7
	c0-0.5,0.4-1,1-1h2c0.5,0,1,0.4,1,1v3h3c0.5,0,1,0.4,1,1v2c0,0.5-0.4,1-1,1h-3v3c0,0.5-0.4,1-1,1h-2c-0.5,0-1-0.4-1-1v-3h-3
	c-0.5,0-1-0.4-1-1v-2c0-0.5,0.4-1,1-1h3V616.7z"/>
<path d="M38.8,714.7c0-1.4,1.2-2.6,2.6-2.6H50c1.4,0,2.6,1.2,2.6,2.6v25h-4.3v-4.3c0-1.4-1.2-2.6-2.6-2.6s-2.6,1.2-2.6,2.6v4.3h-4.3
	V714.7z M31,717.3h6v22.4h-6c-1.4,0-2.6-1.2-2.6-2.6v-7.8h4.3c0.5,0,0.9-0.4,0.9-0.9s-0.4-0.9-0.9-0.9h-4.3v-3.5h4.3
	c0.5,0,0.9-0.4,0.9-0.9s-0.4-0.9-0.9-0.9h-4.3v-2.6C28.4,718.4,29.6,717.3,31,717.3z M60.3,717.3c1.4,0,2.6,1.2,2.6,2.6v2.6h-4.3
	c-0.5,0-0.9,0.4-0.9,0.9s0.4,0.9,0.9,0.9h4.3v3.5h-4.3c-0.5,0-0.9,0.4-0.9,0.9s0.4,0.9,0.9,0.9h4.3v7.8c0,1.4-1.2,2.6-2.6,2.6h-6
	v-22.4H60.3z M45.2,715.6c-0.5,0-0.9,0.4-0.9,0.9v1.3h-1.3c-0.5,0-0.9,0.4-0.9,0.9v0.9c0,0.5,0.4,0.9,0.9,0.9h1.3v1.3
	c0,0.5,0.4,0.9,0.9,0.9h0.9c0.5,0,0.9-0.4,0.9-0.9v-1.3h1.3c0.5,0,0.9-0.4,0.9-0.9v-0.9c0-0.5-0.4-0.9-0.9-0.9H47v-1.3
	c0-0.5-0.4-0.9-0.9-0.9H45.2z"/>
<path d="M15.8,39c0-2.2,1.8-3.9,4-3.9s4,1.8,4,3.9s-1.8,3.9-4,3.9S15.8,41.2,15.8,39z M19.1,63.8v10.4c0,1.4-1.2,2.6-2.7,2.6
	s-2.7-1.2-2.7-2.6V56l-2.4,3.9c-0.8,1.2-2.4,1.6-3.7,0.9c-1.3-0.7-1.7-2.3-0.9-3.6l4.9-7.9c1.5-2.4,4.1-3.8,6.9-3.8h2.5
	c2.8,0,5.5,1.4,6.9,3.8l4.9,7.9c0.8,1.2,0.4,2.8-0.9,3.6c-1.3,0.7-2.9,0.3-3.7-0.9L25.9,56v18.2c0,1.4-1.2,2.6-2.7,2.6
	s-2.7-1.2-2.7-2.6V63.8H19.1z"/>
<path class="st4" d="M507.7,600.5c0-26.5,21.5-48,48-48c26.5,0,48,21.5,48,48c0,26.5-21.5,48-48,48
	C529.2,648.5,507.7,627.1,507.7,600.5z M547.7,904.5v128c0,17.7-14.3,32-32,32c-17.7,0-32-14.3-32-32V809.4L455.1,857
	c-9.1,15.1-28.8,20-43.9,10.9c-15.1-9.1-20-28.8-10.9-43.9l58.3-97c17.4-28.9,48.6-46.6,82.3-46.6h29.7c33.7,0,64.9,17.7,82.3,46.6
	l58.3,97c9.1,15.1,4.2,34.8-10.9,43.9c-15.1,9.1-34.8,4.2-43.9-10.9l-28.7-47.6v223.1c0,17.7-14.3,32-32,32c-17.7,0-32-14.3-32-32
	v-128H547.7z"/>
<path class="st5" d="M163.4,39c0-2.2,1.8-3.9,4-3.9c2.2,0,4,1.8,4,3.9s-1.8,3.9-4,3.9C165.2,42.9,163.4,41.2,163.4,39z M166.7,63.8
	v10.4c0,1.4-1.2,2.6-2.7,2.6c-1.5,0-2.7-1.2-2.7-2.6V56l-2.4,3.9c-0.8,1.2-2.4,1.6-3.7,0.9c-1.3-0.7-1.7-2.3-0.9-3.6l4.9-7.9
	c1.5-2.4,4.1-3.8,6.9-3.8h2.5c2.8,0,5.5,1.4,6.9,3.8l4.9,7.9c0.8,1.2,0.4,2.8-0.9,3.6c-1.3,0.7-2.9,0.3-3.7-0.9l-2.4-3.9v18.2
	c0,1.4-1.2,2.6-2.7,2.6c-1.5,0-2.7-1.2-2.7-2.6V63.8H166.7z"/>
<path class="st5" d="M133.8,39c0-2.2,1.8-3.9,4-3.9c2.2,0,4,1.8,4,3.9s-1.8,3.9-4,3.9C135.6,42.9,133.8,41.2,133.8,39z M137.2,63.8
	v10.4c0,1.4-1.2,2.6-2.7,2.6s-2.7-1.2-2.7-2.6V56l-2.4,3.9c-0.8,1.2-2.4,1.6-3.7,0.9c-1.3-0.7-1.7-2.3-0.9-3.6l4.9-7.9
	c1.5-2.4,4.1-3.8,6.9-3.8h2.5c2.8,0,5.5,1.4,6.9,3.8l4.9,7.9c0.8,1.2,0.4,2.8-0.9,3.6c-1.3,0.7-2.9,0.3-3.7-0.9l-2.4-3.9v18.2
	c0,1.4-1.2,2.6-2.7,2.6c-1.5,0-2.7-1.2-2.7-2.6V63.8H137.2z"/>
<path class="st5" d="M104.3,39c0-2.2,1.8-3.9,4-3.9s4,1.8,4,3.9s-1.8,3.9-4,3.9S104.3,41.2,104.3,39z M107.7,63.8v10.4
	c0,1.4-1.2,2.6-2.7,2.6c-1.5,0-2.7-1.2-2.7-2.6V56l-2.4,3.9c-0.8,1.2-2.4,1.6-3.7,0.9c-1.3-0.7-1.7-2.3-0.9-3.6l4.9-7.9
	c1.5-2.4,4.1-3.8,6.9-3.8h2.5c2.8,0,5.5,1.4,6.9,3.8l4.9,7.9c0.8,1.2,0.4,2.8-0.9,3.6c-1.3,0.7-2.9,0.3-3.7-0.9l-2.4-3.9v18.2
	c0,1.4-1.2,2.6-2.7,2.6c-1.5,0-2.7-1.2-2.7-2.6V63.8H107.7z"/>
<path class="st5" d="M74.8,39c0-2.2,1.8-3.9,4-3.9s4,1.8,4,3.9s-1.8,3.9-4,3.9S74.8,41.2,74.8,39z M78.2,63.8v10.4
	c0,1.4-1.2,2.6-2.7,2.6c-1.5,0-2.7-1.2-2.7-2.6V56l-2.4,3.9c-0.8,1.2-2.4,1.6-3.7,0.9c-1.3-0.7-1.7-2.3-0.9-3.6l4.9-7.9
	c1.5-2.4,4.1-3.8,6.9-3.8h2.5c2.8,0,5.5,1.4,6.9,3.8l4.9,7.9c0.8,1.2,0.4,2.8-0.9,3.6c-1.3,0.7-2.9,0.3-3.7-0.9L84.9,56v18.2
	c0,1.4-1.2,2.6-2.7,2.6c-1.5,0-2.7-1.2-2.7-2.6V63.8H78.2z"/>
<path class="st5" d="M45.3,39c0-2.2,1.8-3.9,4-3.9s4,1.8,4,3.9s-1.8,3.9-4,3.9S45.3,41.2,45.3,39z M48.7,63.8v10.4
	c0,1.4-1.2,2.6-2.7,2.6c-1.5,0-2.7-1.2-2.7-2.6V56l-2.4,3.9c-0.8,1.2-2.4,1.6-3.7,0.9c-1.3-0.7-1.7-2.3-0.9-3.6l4.9-7.9
	c1.5-2.4,4.1-3.8,6.9-3.8h2.5c2.8,0,5.5,1.4,6.9,3.8l4.9,7.9c0.8,1.2,0.4,2.8-0.9,3.6c-1.3,0.7-2.9,0.3-3.7-0.9L55.4,56v18.2
	c0,1.4-1.2,2.6-2.7,2.6S50,75.7,50,74.2V63.8H48.7z"/>
<path class="st5" d="M192.9,39c0-2.2,1.8-3.9,4-3.9c2.2,0,4,1.8,4,3.9s-1.8,3.9-4,3.9C194.7,42.9,192.9,41.2,192.9,39z M196.2,63.8
	v10.4c0,1.4-1.2,2.6-2.7,2.6c-1.5,0-2.7-1.2-2.7-2.6V56l-2.4,3.9c-0.8,1.2-2.4,1.6-3.7,0.9c-1.3-0.7-1.7-2.3-0.9-3.6l4.9-7.9
	c1.5-2.4,4.1-3.8,6.9-3.8h2.5c2.8,0,5.5,1.4,6.9,3.8l4.9,7.9c0.8,1.2,0.4,2.8-0.9,3.6c-1.3,0.7-2.9,0.3-3.7-0.9L203,56v18.2
	c0,1.4-1.2,2.6-2.7,2.6c-1.5,0-2.7-1.2-2.7-2.6V63.8H196.2z"/>
<path class="st5" d="M15.3,135.7c0-2.2,1.8-3.9,4-3.9s4,1.8,4,3.9c0,2.2-1.8,3.9-4,3.9S15.3,137.9,15.3,135.7z M18.7,160.5V171
	c0,1.4-1.2,2.6-2.7,2.6s-2.7-1.2-2.7-2.6v-18.2l-2.4,3.9c-0.8,1.2-2.4,1.6-3.7,0.9s-1.7-2.3-0.9-3.6l4.9-7.9
	c1.5-2.4,4.1-3.8,6.9-3.8h2.5c2.8,0,5.5,1.4,6.9,3.8l4.9,7.9c0.8,1.2,0.4,2.8-0.9,3.6c-1.3,0.7-2.9,0.3-3.7-0.9l-2.4-3.9V171
	c0,1.4-1.2,2.6-2.7,2.6S20,172.4,20,171v-10.4H18.7z"/>
<path class="st5" d="M44.8,135.7c0-2.2,1.8-3.9,4-3.9s4,1.8,4,3.9c0,2.2-1.8,3.9-4,3.9S44.8,137.9,44.8,135.7z M48.2,160.5V171
	c0,1.4-1.2,2.6-2.7,2.6c-1.5,0-2.7-1.2-2.7-2.6v-18.2l-2.4,3.9c-0.8,1.2-2.4,1.6-3.7,0.9c-1.3-0.7-1.7-2.3-0.9-3.6l4.9-7.9
	c1.5-2.4,4.1-3.8,6.9-3.8h2.5c2.8,0,5.5,1.4,6.9,3.8l4.9,7.9c0.8,1.2,0.4,2.8-0.9,3.6s-2.9,0.3-3.7-0.9l-2.4-3.9V171
	c0,1.4-1.2,2.6-2.7,2.6s-2.7-1.2-2.7-2.6v-10.4H48.2z"/>
<path class="st5" d="M281.4,39c0-2.2,1.8-3.9,4-3.9c2.2,0,4,1.8,4,3.9s-1.8,3.9-4,3.9C283.2,42.9,281.4,41.2,281.4,39z M284.8,63.8
	v10.4c0,1.4-1.2,2.6-2.7,2.6s-2.7-1.2-2.7-2.6V56l-2.4,3.9c-0.8,1.2-2.4,1.6-3.7,0.9c-1.3-0.7-1.7-2.3-0.9-3.6l4.9-7.9
	c1.5-2.4,4.1-3.8,6.9-3.8h2.5c2.8,0,5.5,1.4,6.9,3.8l4.9,7.9c0.8,1.2,0.4,2.8-0.9,3.6c-1.3,0.7-2.9,0.3-3.7-0.9l-2.4-3.9v18.2
	c0,1.4-1.2,2.6-2.7,2.6s-2.7-1.2-2.7-2.6V63.8H284.8z"/>
<path class="st5" d="M251.9,39c0-2.2,1.8-3.9,4-3.9c2.2,0,4,1.8,4,3.9s-1.8,3.9-4,3.9C253.7,42.9,251.9,41.2,251.9,39z M255.3,63.8
	v10.4c0,1.4-1.2,2.6-2.7,2.6c-1.5,0-2.7-1.2-2.7-2.6V56l-2.4,3.9c-0.8,1.2-2.4,1.6-3.7,0.9c-1.3-0.7-1.7-2.3-0.9-3.6l4.9-7.9
	c1.5-2.4,4.1-3.8,6.9-3.8h2.5c2.8,0,5.5,1.4,6.9,3.8l4.9,7.9c0.8,1.2,0.4,2.8-0.9,3.6c-1.3,0.7-2.9,0.3-3.7-0.9L262,56v18.2
	c0,1.4-1.2,2.6-2.7,2.6c-1.5,0-2.7-1.2-2.7-2.6V63.8H255.3z"/>
<path class="st5" d="M222.4,39c0-2.2,1.8-3.9,4-3.9c2.2,0,4,1.8,4,3.9s-1.8,3.9-4,3.9C224.2,42.9,222.4,41.2,222.4,39z M225.8,63.8
	v10.4c0,1.4-1.2,2.6-2.7,2.6c-1.5,0-2.7-1.2-2.7-2.6V56l-2.4,3.9c-0.8,1.2-2.4,1.6-3.7,0.9c-1.3-0.7-1.7-2.3-0.9-3.6l4.9-7.9
	c1.5-2.4,4.1-3.8,6.9-3.8h2.5c2.8,0,5.5,1.4,6.9,3.8l4.9,7.9c0.8,1.2,0.4,2.8-0.9,3.6c-1.3,0.7-2.9,0.3-3.7-0.9l-2.4-3.9v18.2
	c0,1.4-1.2,2.6-2.7,2.6c-1.5,0-2.7-1.2-2.7-2.6V63.8H225.8z"/>
<path class="st5" d="M14.8,87.7c0-2.2,1.8-3.9,4-3.9s4,1.8,4,3.9c0,2.2-1.8,3.9-4,3.9S14.8,89.8,14.8,87.7z M18.2,112.4v10.4
	c0,1.4-1.2,2.6-2.7,2.6s-2.7-1.2-2.7-2.6v-18.2l-2.4,3.9c-0.8,1.2-2.4,1.6-3.7,0.9s-1.7-2.3-0.9-3.6l4.9-7.9
	c1.5-2.4,4.1-3.8,6.9-3.8h2.5c2.8,0,5.5,1.4,6.9,3.8l4.9,7.9c0.8,1.2,0.4,2.8-0.9,3.6s-2.9,0.3-3.7-0.9l-2.4-3.9v18.2
	c0,1.4-1.2,2.6-2.7,2.6c-1.5,0-2.7-1.2-2.7-2.6v-10.4H18.2z"/>
<path class="st5" d="M162.9,135.7c0-2.2,1.8-3.9,4-3.9c2.2,0,4,1.8,4,3.9c0,2.2-1.8,3.9-4,3.9C164.7,139.6,162.9,137.9,162.9,135.7z
	 M166.2,160.5V171c0,1.4-1.2,2.6-2.7,2.6c-1.5,0-2.7-1.2-2.7-2.6v-18.2l-2.4,3.9c-0.8,1.2-2.4,1.6-3.7,0.9s-1.7-2.3-0.9-3.6l4.9-7.9
	c1.5-2.4,4.1-3.8,6.9-3.8h2.5c2.8,0,5.5,1.4,6.9,3.8l4.9,7.9c0.8,1.2,0.4,2.8-0.9,3.6s-2.9,0.3-3.7-0.9l-2.4-3.9V171
	c0,1.4-1.2,2.6-2.7,2.6c-1.5,0-2.7-1.2-2.7-2.6v-10.4H166.2z"/>
<path class="st5" d="M133.4,135.7c0-2.2,1.8-3.9,4-3.9c2.2,0,4,1.8,4,3.9c0,2.2-1.8,3.9-4,3.9C135.2,139.6,133.4,137.9,133.4,135.7z
	 M136.7,160.5V171c0,1.4-1.2,2.6-2.7,2.6c-1.5,0-2.7-1.2-2.7-2.6v-18.2l-2.4,3.9c-0.8,1.2-2.4,1.6-3.7,0.9c-1.3-0.7-1.7-2.3-0.9-3.6
	l4.9-7.9c1.5-2.4,4.1-3.8,6.9-3.8h2.5c2.8,0,5.5,1.4,6.9,3.8l4.9,7.9c0.8,1.2,0.4,2.8-0.9,3.6s-2.9,0.3-3.7-0.9l-2.4-3.9V171
	c0,1.4-1.2,2.6-2.7,2.6c-1.5,0-2.7-1.2-2.7-2.6v-10.4H136.7z"/>
<path class="st5" d="M103.9,135.7c0-2.2,1.8-3.9,4-3.9s4,1.8,4,3.9c0,2.2-1.8,3.9-4,3.9S103.9,137.9,103.9,135.7z M107.2,160.5V171
	c0,1.4-1.2,2.6-2.7,2.6c-1.5,0-2.7-1.2-2.7-2.6v-18.2l-2.4,3.9c-0.8,1.2-2.4,1.6-3.7,0.9c-1.3-0.7-1.7-2.3-0.9-3.6l4.9-7.9
	c1.5-2.4,4.1-3.8,6.9-3.8h2.5c2.8,0,5.5,1.4,6.9,3.8l4.9,7.9c0.8,1.2,0.4,2.8-0.9,3.6c-1.3,0.7-2.9,0.3-3.7-0.9l-2.4-3.9V171
	c0,1.4-1.2,2.6-2.7,2.6c-1.5,0-2.7-1.2-2.7-2.6v-10.4H107.2z"/>
<path class="st5" d="M74.1,87.7c0-2.2,1.8-3.9,4-3.9s4,1.8,4,3.9c0,2.2-1.8,3.9-4,3.9S74.1,89.8,74.1,87.7z M77.5,112.4v10.4
	c0,1.4-1.2,2.6-2.7,2.6s-2.7-1.2-2.7-2.6v-18.2l-2.4,3.9c-0.8,1.2-2.4,1.6-3.7,0.9c-1.3-0.7-1.7-2.3-0.9-3.6L70,98
	c1.5-2.4,4.1-3.8,6.9-3.8h2.5c2.8,0,5.5,1.4,6.9,3.8l4.9,7.9c0.8,1.2,0.4,2.8-0.9,3.6c-1.3,0.7-2.9,0.3-3.7-0.9l-2.4-3.9v18.2
	c0,1.4-1.2,2.6-2.7,2.6c-1.5,0-2.7-1.2-2.7-2.6v-10.4H77.5z"/>
<path class="st5" d="M44.5,87.7c0-2.2,1.8-3.9,4-3.9s4,1.8,4,3.9c0,2.2-1.8,3.9-4,3.9S44.5,89.8,44.5,87.7z M47.8,112.4v10.4
	c0,1.4-1.2,2.6-2.7,2.6c-1.5,0-2.7-1.2-2.7-2.6v-18.2l-2.4,3.9c-0.8,1.2-2.4,1.6-3.7,0.9c-1.3-0.7-1.7-2.3-0.9-3.6l4.9-7.9
	c1.5-2.4,4.1-3.8,6.9-3.8h2.5c2.8,0,5.5,1.4,6.9,3.8l4.9,7.9c0.8,1.2,0.4,2.8-0.9,3.6c-1.3,0.7-2.9,0.3-3.7-0.9l-2.4-3.9v18.2
	c0,1.4-1.2,2.6-2.7,2.6c-1.5,0-2.7-1.2-2.7-2.6v-10.4H47.8z"/>
<path class="st5" d="M192.4,135.7c0-2.2,1.8-3.9,4-3.9c2.2,0,4,1.8,4,3.9c0,2.2-1.8,3.9-4,3.9C194.2,139.6,192.4,137.9,192.4,135.7z
	 M195.8,160.5V171c0,1.4-1.2,2.6-2.7,2.6c-1.5,0-2.7-1.2-2.7-2.6v-18.2l-2.4,3.9c-0.8,1.2-2.4,1.6-3.7,0.9s-1.7-2.3-0.9-3.6l4.9-7.9
	c1.5-2.4,4.1-3.8,6.9-3.8h2.5c2.8,0,5.5,1.4,6.9,3.8l4.9,7.9c0.8,1.2,0.4,2.8-0.9,3.6s-2.9,0.3-3.7-0.9l-2.4-3.9V171
	c0,1.4-1.2,2.6-2.7,2.6c-1.5,0-2.7-1.2-2.7-2.6v-10.4H195.8z"/>
<path class="st5" d="M14.4,184.3c0-2.2,1.8-3.9,4-3.9s4,1.8,4,3.9c0,2.2-1.8,3.9-4,3.9S14.4,186.5,14.4,184.3z M17.7,209.1v10.4
	c0,1.4-1.2,2.6-2.7,2.6s-2.7-1.2-2.7-2.6v-18.2l-2.4,3.9c-0.8,1.2-2.4,1.6-3.7,0.9s-1.7-2.3-0.9-3.6l4.9-7.9
	c1.5-2.4,4.1-3.8,6.9-3.8h2.5c2.8,0,5.5,1.4,6.9,3.8l4.9,7.9c0.8,1.2,0.4,2.8-0.9,3.6c-1.3,0.7-2.9,0.3-3.7-0.9l-2.4-3.9v18.2
	c0,1.4-1.2,2.6-2.7,2.6c-1.5,0-2.7-1.2-2.7-2.6v-10.4H17.7z"/>
<path class="st5" d="M74.3,135.7c0-2.2,1.8-3.9,4-3.9s4,1.8,4,3.9c0,2.2-1.8,3.9-4,3.9S74.3,137.9,74.3,135.7z M77.7,160.5V171
	c0,1.4-1.2,2.6-2.7,2.6c-1.5,0-2.7-1.2-2.7-2.6v-18.2l-2.4,3.9c-0.8,1.2-2.4,1.6-3.7,0.9c-1.3-0.7-1.7-2.3-0.9-3.6l4.9-7.9
	c1.5-2.4,4.1-3.8,6.9-3.8h2.5c2.8,0,5.5,1.4,6.9,3.8l4.9,7.9c0.8,1.2,0.4,2.8-0.9,3.6c-1.3,0.7-2.9,0.3-3.7-0.9l-2.4-3.9V171
	c0,1.4-1.2,2.6-2.7,2.6c-1.5,0-2.7-1.2-2.7-2.6v-10.4H77.7z"/>
<path class="st5" d="M280.9,135.7c0-2.2,1.8-3.9,4-3.9c2.2,0,4,1.8,4,3.9c0,2.2-1.8,3.9-4,3.9C282.7,139.6,280.9,137.9,280.9,135.7z
	 M284.3,160.5V171c0,1.4-1.2,2.6-2.7,2.6s-2.7-1.2-2.7-2.6v-18.2l-2.4,3.9c-0.8,1.2-2.4,1.6-3.7,0.9s-1.7-2.3-0.9-3.6l4.9-7.9
	c1.5-2.4,4.1-3.8,6.9-3.8h2.5c2.8,0,5.5,1.4,6.9,3.8l4.9,7.9c0.8,1.2,0.4,2.8-0.9,3.6s-2.9,0.3-3.7-0.9l-2.4-3.9V171
	c0,1.4-1.2,2.6-2.7,2.6s-2.7-1.2-2.7-2.6v-10.4H284.3z"/>
<path class="st5" d="M251.4,135.7c0-2.2,1.8-3.9,4-3.9s4,1.8,4,3.9c0,2.2-1.8,3.9-4,3.9S251.4,137.9,251.4,135.7z M254.8,160.5V171
	c0,1.4-1.2,2.6-2.7,2.6c-1.5,0-2.7-1.2-2.7-2.6v-18.2l-2.4,3.9c-0.8,1.2-2.4,1.6-3.7,0.9s-1.7-2.3-0.9-3.6l4.9-7.9
	c1.5-2.4,4.1-3.8,6.9-3.8h2.5c2.8,0,5.5,1.4,6.9,3.8l4.9,7.9c0.8,1.2,0.4,2.8-0.9,3.6s-2.9,0.3-3.7-0.9l-2.4-3.9V171
	c0,1.4-1.2,2.6-2.7,2.6c-1.5,0-2.7-1.2-2.7-2.6v-10.4H254.8z"/>
<path class="st5" d="M221.9,135.7c0-2.2,1.8-3.9,4-3.9c2.2,0,4,1.8,4,3.9c0,2.2-1.8,3.9-4,3.9C223.7,139.6,221.9,137.9,221.9,135.7z
	 M225.3,160.5V171c0,1.4-1.2,2.6-2.7,2.6c-1.5,0-2.7-1.2-2.7-2.6v-18.2l-2.4,3.9c-0.8,1.2-2.4,1.6-3.7,0.9s-1.7-2.3-0.9-3.6l4.9-7.9
	c1.5-2.4,4.1-3.8,6.9-3.8h2.5c2.8,0,5.5,1.4,6.9,3.8l4.9,7.9c0.8,1.2,0.4,2.8-0.9,3.6s-2.9,0.3-3.7-0.9l-2.4-3.9V171
	c0,1.4-1.2,2.6-2.7,2.6c-1.5,0-2.7-1.2-2.7-2.6v-10.4H225.3z"/>
<path class="st5" d="M192.7,87.7c0-2.2,1.8-3.9,4-3.9c2.2,0,4,1.8,4,3.9c0,2.2-1.8,3.9-4,3.9C194.5,91.6,192.7,89.8,192.7,87.7z
	 M196,112.4v10.4c0,1.4-1.2,2.6-2.7,2.6s-2.7-1.2-2.7-2.6v-18.2l-2.4,3.9c-0.8,1.2-2.4,1.6-3.7,0.9s-1.7-2.3-0.9-3.6l4.9-7.9
	c1.5-2.4,4.1-3.8,6.9-3.8h2.5c2.8,0,5.5,1.4,6.9,3.8l4.9,7.9c0.8,1.2,0.4,2.8-0.9,3.6s-2.9,0.3-3.7-0.9l-2.4-3.9v18.2
	c0,1.4-1.2,2.6-2.7,2.6c-1.5,0-2.7-1.2-2.7-2.6v-10.4H196z"/>
<path class="st5" d="M163,87.7c0-2.2,1.8-3.9,4-3.9c2.2,0,4,1.8,4,3.9c0,2.2-1.8,3.9-4,3.9C164.9,91.6,163,89.8,163,87.7z
	 M166.4,112.4v10.4c0,1.4-1.2,2.6-2.7,2.6c-1.5,0-2.7-1.2-2.7-2.6v-18.2l-2.4,3.9c-0.8,1.2-2.4,1.6-3.7,0.9
	c-1.3-0.7-1.7-2.3-0.9-3.6l4.9-7.9c1.5-2.4,4.1-3.8,6.9-3.8h2.5c2.8,0,5.5,1.4,6.9,3.8l4.9,7.9c0.8,1.2,0.4,2.8-0.9,3.6
	c-1.3,0.7-2.9,0.3-3.7-0.9l-2.4-3.9v18.2c0,1.4-1.2,2.6-2.7,2.6c-1.5,0-2.7-1.2-2.7-2.6v-10.4H166.4z"/>
<path class="st5" d="M133.4,87.7c0-2.2,1.8-3.9,4-3.9c2.2,0,4,1.8,4,3.9c0,2.2-1.8,3.9-4,3.9C135.2,91.6,133.4,89.8,133.4,87.7z
	 M136.8,112.4v10.4c0,1.4-1.2,2.6-2.7,2.6c-1.5,0-2.7-1.2-2.7-2.6v-18.2l-2.4,3.9c-0.8,1.2-2.4,1.6-3.7,0.9s-1.7-2.3-0.9-3.6
	l4.9-7.9c1.5-2.4,4.1-3.8,6.9-3.8h2.5c2.8,0,5.5,1.4,6.9,3.8l4.9,7.9c0.8,1.2,0.4,2.8-0.9,3.6c-1.3,0.7-2.9,0.3-3.7-0.9l-2.4-3.9
	v18.2c0,1.4-1.2,2.6-2.7,2.6s-2.7-1.2-2.7-2.6v-10.4H136.8z"/>
<path class="st5" d="M222.3,87.7c0-2.2,1.8-3.9,4-3.9c2.2,0,4,1.8,4,3.9c0,2.2-1.8,3.9-4,3.9C224.1,91.6,222.3,89.8,222.3,87.7z
	 M225.7,112.4v10.4c0,1.4-1.2,2.6-2.7,2.6s-2.7-1.2-2.7-2.6v-18.2l-2.4,3.9c-0.8,1.2-2.4,1.6-3.7,0.9s-1.7-2.3-0.9-3.6l4.9-7.9
	c1.5-2.4,4.1-3.8,6.9-3.8h2.5c2.8,0,5.5,1.4,6.9,3.8l4.9,7.9c0.8,1.2,0.4,2.8-0.9,3.6s-2.9,0.3-3.7-0.9l-2.4-3.9v18.2
	c0,1.4-1.2,2.6-2.7,2.6c-1.5,0-2.7-1.2-2.7-2.6v-10.4H225.7z"/>
<path class="st5" d="M103.8,87.7c0-2.2,1.8-3.9,4-3.9c2.2,0,4,1.8,4,3.9c0,2.2-1.8,3.9-4,3.9C105.6,91.6,103.8,89.8,103.8,87.7z
	 M107.1,112.4v10.4c0,1.4-1.2,2.6-2.7,2.6s-2.7-1.2-2.7-2.6v-18.2l-2.4,3.9c-0.8,1.2-2.4,1.6-3.7,0.9s-1.7-2.3-0.9-3.6l4.9-7.9
	c1.5-2.4,4.1-3.8,6.9-3.8h2.5c2.8,0,5.5,1.4,6.9,3.8l4.9,7.9c0.8,1.2,0.4,2.8-0.9,3.6c-1.3,0.7-2.9,0.3-3.7-0.9l-2.4-3.9v18.2
	c0,1.4-1.2,2.6-2.7,2.6s-2.7-1.2-2.7-2.6v-10.4H107.1z"/>
<path class="st5" d="M281.6,87.7c0-2.2,1.8-3.9,4-3.9c2.2,0,4,1.8,4,3.9c0,2.2-1.8,3.9-4,3.9C283.4,91.6,281.6,89.8,281.6,87.7z
	 M285,112.4v10.4c0,1.4-1.2,2.6-2.7,2.6s-2.7-1.2-2.7-2.6v-18.2l-2.4,3.9c-0.8,1.2-2.4,1.6-3.7,0.9s-1.7-2.3-0.9-3.6l4.9-7.9
	c1.5-2.4,4.1-3.8,6.9-3.8h2.5c2.8,0,5.5,1.4,6.9,3.8l4.9,7.9c0.8,1.2,0.4,2.8-0.9,3.6s-2.9,0.3-3.7-0.9l-2.4-3.9v18.2
	c0,1.4-1.2,2.6-2.7,2.6s-2.7-1.2-2.7-2.6v-10.4H285z"/>
<path class="st5" d="M252,87.7c0-2.2,1.8-3.9,4-3.9s4,1.8,4,3.9c0,2.2-1.8,3.9-4,3.9S252,89.8,252,87.7z M255.3,112.4v10.4
	c0,1.4-1.2,2.6-2.7,2.6s-2.7-1.2-2.7-2.6v-18.2l-2.4,3.9c-0.8,1.2-2.4,1.6-3.7,0.9s-1.7-2.3-0.9-3.6l4.9-7.9
	c1.5-2.4,4.1-3.8,6.9-3.8h2.5c2.8,0,5.5,1.4,6.9,3.8l4.9,7.9c0.8,1.2,0.4,2.8-0.9,3.6c-1.3,0.7-2.9,0.3-3.7-0.9l-2.4-3.9v18.2
	c0,1.4-1.2,2.6-2.7,2.6s-2.7-1.2-2.7-2.6v-10.4H255.3z"/>
<path d="M334.7,9.6c0-0.9,0.7-1.6,1.7-1.6h5.6c0.9,0,1.7,0.7,1.7,1.6v15.7h-2.8v-2.7c0-0.9-0.7-1.6-1.7-1.6s-1.7,0.7-1.7,1.6v2.7
	h-2.8V9.6z M329.6,11.3h3.9v14h-3.9c-0.9,0-1.7-0.7-1.7-1.6v-4.9h2.8c0.3,0,0.6-0.2,0.6-0.5s-0.3-0.5-0.6-0.5H328v-2.2h2.8
	c0.3,0,0.6-0.2,0.6-0.5c0-0.3-0.3-0.5-0.6-0.5H328v-1.6C328,12,328.7,11.3,329.6,11.3z M348.6,11.3c0.9,0,1.7,0.7,1.7,1.6v1.6h-2.8
	c-0.3,0-0.6,0.2-0.6,0.5c0,0.3,0.3,0.5,0.6,0.5h2.8v2.2h-2.8c-0.3,0-0.6,0.2-0.6,0.5s0.3,0.5,0.6,0.5h2.8v4.9c0,0.9-0.7,1.6-1.7,1.6
	h-3.9v-14H348.6z M338.8,10.2c-0.3,0-0.6,0.2-0.6,0.5v0.8h-0.8c-0.3,0-0.6,0.2-0.6,0.5v0.5c0,0.3,0.3,0.5,0.6,0.5h0.8V14
	c0,0.3,0.3,0.5,0.6,0.5h0.6c0.3,0,0.6-0.2,0.6-0.5v-0.8h0.8c0.3,0,0.6-0.2,0.6-0.5v-0.5c0-0.3-0.3-0.5-0.6-0.5h-0.8v-0.8
	c0-0.3-0.3-0.5-0.6-0.5H338.8z"/>
<rect x="358.3" y="11.8" class="st0" width="334.8" height="15.7"/>
<text transform="matrix(1.0302 0 0 1 358.2622 22.8685)"><tspan x="0" y="0" class="st1 st2">1</tspan><tspan x="8.6" y="0" class="st1 st2"> </tspan><tspan x="12.8" y="0" class="st3 st2">in 31 cardiovascular hospitalizations</tspan></text>
<path d="M333.9,39c0-2.2,1.8-3.9,4-3.9c2.2,0,4,1.8,4,3.9s-1.8,3.9-4,3.9C335.7,42.9,333.9,41.2,333.9,39z M337.3,63.8v10.4
	c0,1.4-1.2,2.6-2.7,2.6c-1.5,0-2.7-1.2-2.7-2.6V56l-2.4,3.9c-0.8,1.2-2.4,1.6-3.7,0.9c-1.3-0.7-1.7-2.3-0.9-3.6l4.9-7.9
	c1.5-2.4,4.1-3.8,6.9-3.8h2.5c2.8,0,5.5,1.4,6.9,3.8l4.9,7.9c0.8,1.2,0.4,2.8-0.9,3.6c-1.3,0.7-2.9,0.3-3.7-0.9L344,56v18.2
	c0,1.4-1.2,2.6-2.7,2.6s-2.7-1.2-2.7-2.6V63.8H337.3z"/>
<path class="st5" d="M481.5,39c0-2.2,1.8-3.9,4-3.9s4,1.8,4,3.9s-1.8,3.9-4,3.9S481.5,41.2,481.5,39z M484.9,63.8v10.4
	c0,1.4-1.2,2.6-2.7,2.6c-1.5,0-2.7-1.2-2.7-2.6V56l-2.4,3.9c-0.8,1.2-2.4,1.6-3.7,0.9c-1.3-0.7-1.7-2.3-0.9-3.6l4.9-7.9
	c1.5-2.4,4.1-3.8,6.9-3.8h2.5c2.8,0,5.5,1.4,6.9,3.8l4.9,7.9c0.8,1.2,0.4,2.8-0.9,3.6c-1.3,0.7-2.9,0.3-3.7-0.9l-2.4-3.9v18.2
	c0,1.4-1.2,2.6-2.7,2.6s-2.7-1.2-2.7-2.6V63.8H484.9z"/>
<path class="st5" d="M452,39c0-2.2,1.8-3.9,4-3.9c2.2,0,4,1.8,4,3.9s-1.8,3.9-4,3.9C453.8,42.9,452,41.2,452,39z M455.4,63.8v10.4
	c0,1.4-1.2,2.6-2.7,2.6s-2.7-1.2-2.7-2.6V56l-2.4,3.9c-0.8,1.2-2.4,1.6-3.7,0.9c-1.3-0.7-1.7-2.3-0.9-3.6l4.9-7.9
	c1.5-2.4,4.1-3.8,6.9-3.8h2.5c2.8,0,5.5,1.4,6.9,3.8l4.9,7.9c0.8,1.2,0.4,2.8-0.9,3.6c-1.3,0.7-2.9,0.3-3.7-0.9l-2.4-3.9v18.2
	c0,1.4-1.2,2.6-2.7,2.6s-2.7-1.2-2.7-2.6V63.8H455.4z"/>
<path class="st5" d="M422.5,39c0-2.2,1.8-3.9,4-3.9s4,1.8,4,3.9s-1.8,3.9-4,3.9S422.5,41.2,422.5,39z M425.8,63.8v10.4
	c0,1.4-1.2,2.6-2.7,2.6c-1.5,0-2.7-1.2-2.7-2.6V56l-2.4,3.9c-0.8,1.2-2.4,1.6-3.7,0.9c-1.3-0.7-1.7-2.3-0.9-3.6l4.9-7.9
	c1.5-2.4,4.1-3.8,6.9-3.8h2.5c2.8,0,5.5,1.4,6.9,3.8l4.9,7.9c0.8,1.2,0.4,2.8-0.9,3.6c-1.3,0.7-2.9,0.3-3.7-0.9l-2.4-3.9v18.2
	c0,1.4-1.2,2.6-2.7,2.6c-1.5,0-2.7-1.2-2.7-2.6V63.8H425.8z"/>
<path class="st5" d="M393,39c0-2.2,1.8-3.9,4-3.9c2.2,0,4,1.8,4,3.9s-1.8,3.9-4,3.9C394.8,42.9,393,41.2,393,39z M396.3,63.8v10.4
	c0,1.4-1.2,2.6-2.7,2.6s-2.7-1.2-2.7-2.6V56l-2.4,3.9c-0.8,1.2-2.4,1.6-3.7,0.9c-1.3-0.7-1.7-2.3-0.9-3.6l4.9-7.9
	c1.5-2.4,4.1-3.8,6.9-3.8h2.5c2.8,0,5.5,1.4,6.9,3.8l4.9,7.9c0.8,1.2,0.4,2.8-0.9,3.6c-1.3,0.7-2.9,0.3-3.7-0.9L403,56v18.2
	c0,1.4-1.2,2.6-2.7,2.6s-2.7-1.2-2.7-2.6V63.8H396.3z"/>
<path class="st5" d="M363.4,39c0-2.2,1.8-3.9,4-3.9s4,1.8,4,3.9s-1.8,3.9-4,3.9S363.4,41.2,363.4,39z M366.8,63.8v10.4
	c0,1.4-1.2,2.6-2.7,2.6s-2.7-1.2-2.7-2.6V56l-2.4,3.9c-0.8,1.2-2.4,1.6-3.7,0.9c-1.3-0.7-1.7-2.3-0.9-3.6l4.9-7.9
	c1.5-2.4,4.1-3.8,6.9-3.8h2.5c2.8,0,5.5,1.4,6.9,3.8l4.9,7.9c0.8,1.2,0.4,2.8-0.9,3.6c-1.3,0.7-2.9,0.3-3.7-0.9l-2.4-3.9v18.2
	c0,1.4-1.2,2.6-2.7,2.6c-1.5,0-2.7-1.2-2.7-2.6V63.8H366.8z"/>
<path class="st5" d="M511,39c0-2.2,1.8-3.9,4-3.9c2.2,0,4,1.8,4,3.9s-1.8,3.9-4,3.9C512.8,42.9,511,41.2,511,39z M514.4,63.8v10.4
	c0,1.4-1.2,2.6-2.7,2.6s-2.7-1.2-2.7-2.6V56l-2.4,3.9c-0.8,1.2-2.4,1.6-3.7,0.9c-1.3-0.7-1.7-2.3-0.9-3.6l4.9-7.9
	c1.5-2.4,4.1-3.8,6.9-3.8h2.5c2.8,0,5.5,1.4,6.9,3.8l4.9,7.9c0.8,1.2,0.4,2.8-0.9,3.6c-1.3,0.7-2.9,0.3-3.7-0.9l-2.4-3.9v18.2
	c0,1.4-1.2,2.6-2.7,2.6s-2.7-1.2-2.7-2.6V63.8H514.4z"/>
<path class="st5" d="M333.5,135.7c0-2.2,1.8-3.9,4-3.9s4,1.8,4,3.9c0,2.2-1.8,3.9-4,3.9S333.5,137.9,333.5,135.7z M336.8,160.5V171
	c0,1.4-1.2,2.6-2.7,2.6c-1.5,0-2.7-1.2-2.7-2.6v-18.2l-2.4,3.9c-0.8,1.2-2.4,1.6-3.7,0.9s-1.7-2.3-0.9-3.6l4.9-7.9
	c1.5-2.4,4.1-3.8,6.9-3.8h2.5c2.8,0,5.5,1.4,6.9,3.8l4.9,7.9c0.8,1.2,0.4,2.8-0.9,3.6s-2.9,0.3-3.7-0.9l-2.4-3.9V171
	c0,1.4-1.2,2.6-2.7,2.6c-1.5,0-2.7-1.2-2.7-2.6v-10.4H336.8z"/>
<path class="st5" d="M363,135.7c0-2.2,1.8-3.9,4-3.9c2.2,0,4,1.8,4,3.9c0,2.2-1.8,3.9-4,3.9C364.8,139.6,363,137.9,363,135.7z
	 M366.3,160.5V171c0,1.4-1.2,2.6-2.7,2.6s-2.7-1.2-2.7-2.6v-18.2l-2.4,3.9c-0.8,1.2-2.4,1.6-3.7,0.9s-1.7-2.3-0.9-3.6l4.9-7.9
	c1.5-2.4,4.1-3.8,6.9-3.8h2.5c2.8,0,5.5,1.4,6.9,3.8l4.9,7.9c0.8,1.2,0.4,2.8-0.9,3.6s-2.9,0.3-3.7-0.9l-2.4-3.9V171
	c0,1.4-1.2,2.6-2.7,2.6s-2.7-1.2-2.7-2.6v-10.4H366.3z"/>
<path class="st5" d="M599.6,39c0-2.2,1.8-3.9,4-3.9c2.2,0,4,1.8,4,3.9s-1.8,3.9-4,3.9C601.4,42.9,599.6,41.2,599.6,39z M602.9,63.8
	v10.4c0,1.4-1.2,2.6-2.7,2.6s-2.7-1.2-2.7-2.6V56l-2.4,3.9c-0.8,1.2-2.4,1.6-3.7,0.9c-1.3-0.7-1.7-2.3-0.9-3.6l4.9-7.9
	c1.5-2.4,4.1-3.8,6.9-3.8h2.5c2.8,0,5.5,1.4,6.9,3.8l4.9,7.9c0.8,1.2,0.4,2.8-0.9,3.6c-1.3,0.7-2.9,0.3-3.7-0.9l-2.4-3.9v18.2
	c0,1.4-1.2,2.6-2.7,2.6c-1.5,0-2.7-1.2-2.7-2.6V63.8H602.9z"/>
<path class="st5" d="M570.1,39c0-2.2,1.8-3.9,4-3.9s4,1.8,4,3.9s-1.8,3.9-4,3.9S570.1,41.2,570.1,39z M573.4,63.8v10.4
	c0,1.4-1.2,2.6-2.7,2.6s-2.7-1.2-2.7-2.6V56l-2.4,3.9c-0.8,1.2-2.4,1.6-3.7,0.9c-1.3-0.7-1.7-2.3-0.9-3.6l4.9-7.9
	c1.5-2.4,4.1-3.8,6.9-3.8h2.5c2.8,0,5.5,1.4,6.9,3.8l4.9,7.9c0.8,1.2,0.4,2.8-0.9,3.6c-1.3,0.7-2.9,0.3-3.7-0.9l-2.4-3.9v18.2
	c0,1.4-1.2,2.6-2.7,2.6s-2.7-1.2-2.7-2.6V63.8H573.4z"/>
<path class="st5" d="M540.5,39c0-2.2,1.8-3.9,4-3.9c2.2,0,4,1.8,4,3.9s-1.8,3.9-4,3.9C542.4,42.9,540.5,41.2,540.5,39z M543.9,63.8
	v10.4c0,1.4-1.2,2.6-2.7,2.6s-2.7-1.2-2.7-2.6V56l-2.4,3.9c-0.8,1.2-2.4,1.6-3.7,0.9c-1.3-0.7-1.7-2.3-0.9-3.6l4.9-7.9
	c1.5-2.4,4.1-3.8,6.9-3.8h2.5c2.8,0,5.5,1.4,6.9,3.8l4.9,7.9c0.8,1.2,0.4,2.8-0.9,3.6c-1.3,0.7-2.9,0.3-3.7-0.9l-2.4-3.9v18.2
	c0,1.4-1.2,2.6-2.7,2.6s-2.7-1.2-2.7-2.6V63.8H543.9z"/>
<path class="st5" d="M333,87.7c0-2.2,1.8-3.9,4-3.9c2.2,0,4,1.8,4,3.9c0,2.2-1.8,3.9-4,3.9C334.8,91.6,333,89.8,333,87.7z
	 M336.4,112.4v10.4c0,1.4-1.2,2.6-2.7,2.6s-2.7-1.2-2.7-2.6v-18.2l-2.4,3.9c-0.8,1.2-2.4,1.6-3.7,0.9s-1.7-2.3-0.9-3.6l4.9-7.9
	c1.5-2.4,4.1-3.8,6.9-3.8h2.5c2.8,0,5.5,1.4,6.9,3.8l4.9,7.9c0.8,1.2,0.4,2.8-0.9,3.6s-2.9,0.3-3.7-0.9l-2.4-3.9v18.2
	c0,1.4-1.2,2.6-2.7,2.6s-2.7-1.2-2.7-2.6v-10.4H336.4z"/>
<path class="st5" d="M481,135.7c0-2.2,1.8-3.9,4-3.9c2.2,0,4,1.8,4,3.9c0,2.2-1.8,3.9-4,3.9C482.8,139.6,481,137.9,481,135.7z
	 M484.4,160.5V171c0,1.4-1.2,2.6-2.7,2.6s-2.7-1.2-2.7-2.6v-18.2l-2.4,3.9c-0.8,1.2-2.4,1.6-3.7,0.9s-1.7-2.3-0.9-3.6l4.9-7.9
	c1.5-2.4,4.1-3.8,6.9-3.8h2.5c2.8,0,5.5,1.4,6.9,3.8l4.9,7.9c0.8,1.2,0.4,2.8-0.9,3.6s-2.9,0.3-3.7-0.9l-2.4-3.9V171
	c0,1.4-1.2,2.6-2.7,2.6s-2.7-1.2-2.7-2.6v-10.4H484.4z"/>
<path class="st5" d="M451.5,135.7c0-2.2,1.8-3.9,4-3.9s4,1.8,4,3.9c0,2.2-1.8,3.9-4,3.9S451.5,137.9,451.5,135.7z M454.9,160.5V171
	c0,1.4-1.2,2.6-2.7,2.6c-1.5,0-2.7-1.2-2.7-2.6v-18.2l-2.4,3.9c-0.8,1.2-2.4,1.6-3.7,0.9s-1.7-2.3-0.9-3.6l4.9-7.9
	c1.5-2.4,4.1-3.8,6.9-3.8h2.5c2.8,0,5.5,1.4,6.9,3.8l4.9,7.9c0.8,1.2,0.4,2.8-0.9,3.6s-2.9,0.3-3.7-0.9l-2.4-3.9V171
	c0,1.4-1.2,2.6-2.7,2.6c-1.5,0-2.7-1.2-2.7-2.6v-10.4H454.9z"/>
<path class="st5" d="M422,135.7c0-2.2,1.8-3.9,4-3.9c2.2,0,4,1.8,4,3.9c0,2.2-1.8,3.9-4,3.9C423.8,139.6,422,137.9,422,135.7z
	 M425.4,160.5V171c0,1.4-1.2,2.6-2.7,2.6s-2.7-1.2-2.7-2.6v-18.2l-2.4,3.9c-0.8,1.2-2.4,1.6-3.7,0.9s-1.7-2.3-0.9-3.6l4.9-7.9
	c1.5-2.4,4.1-3.8,6.9-3.8h2.5c2.8,0,5.5,1.4,6.9,3.8l4.9,7.9c0.8,1.2,0.4,2.8-0.9,3.6s-2.9,0.3-3.7-0.9l-2.4-3.9V171
	c0,1.4-1.2,2.6-2.7,2.6s-2.7-1.2-2.7-2.6v-10.4H425.4z"/>
<path class="st5" d="M392.3,87.7c0-2.2,1.8-3.9,4-3.9c2.2,0,4,1.8,4,3.9c0,2.2-1.8,3.9-4,3.9C394.1,91.6,392.3,89.8,392.3,87.7z
	 M395.6,112.4v10.4c0,1.4-1.2,2.6-2.7,2.6s-2.7-1.2-2.7-2.6v-18.2l-2.4,3.9c-0.8,1.2-2.4,1.6-3.7,0.9s-1.7-2.3-0.9-3.6l4.9-7.9
	c1.5-2.4,4.1-3.8,6.9-3.8h2.5c2.8,0,5.5,1.4,6.9,3.8l4.9,7.9c0.8,1.2,0.4,2.8-0.9,3.6s-2.9,0.3-3.7-0.9l-2.4-3.9v18.2
	c0,1.4-1.2,2.6-2.7,2.6s-2.7-1.2-2.7-2.6v-10.4H395.6z"/>
<path class="st5" d="M362.6,87.7c0-2.2,1.8-3.9,4-3.9s4,1.8,4,3.9c0,2.2-1.8,3.9-4,3.9S362.6,89.8,362.6,87.7z M366,112.4v10.4
	c0,1.4-1.2,2.6-2.7,2.6c-1.5,0-2.7-1.2-2.7-2.6v-18.2l-2.4,3.9c-0.8,1.2-2.4,1.6-3.7,0.9c-1.3-0.7-1.7-2.3-0.9-3.6l4.9-7.9
	c1.5-2.4,4.1-3.8,6.9-3.8h2.5c2.8,0,5.5,1.4,6.9,3.8l4.9,7.9c0.8,1.2,0.4,2.8-0.9,3.6c-1.3,0.7-2.9,0.3-3.7-0.9l-2.4-3.9v18.2
	c0,1.4-1.2,2.6-2.7,2.6s-2.7-1.2-2.7-2.6v-10.4H366z"/>
<path class="st5" d="M510.5,135.7c0-2.2,1.8-3.9,4-3.9s4,1.8,4,3.9c0,2.2-1.8,3.9-4,3.9S510.5,137.9,510.5,135.7z M513.9,160.5V171
	c0,1.4-1.2,2.6-2.7,2.6c-1.5,0-2.7-1.2-2.7-2.6v-18.2l-2.4,3.9c-0.8,1.2-2.4,1.6-3.7,0.9s-1.7-2.3-0.9-3.6l4.9-7.9
	c1.5-2.4,4.1-3.8,6.9-3.8h2.5c2.8,0,5.5,1.4,6.9,3.8l4.9,7.9c0.8,1.2,0.4,2.8-0.9,3.6s-2.9,0.3-3.7-0.9l-2.4-3.9V171
	c0,1.4-1.2,2.6-2.7,2.6s-2.7-1.2-2.7-2.6v-10.4H513.9z"/>
<path class="st5" d="M332.5,184.3c0-2.2,1.8-3.9,4-3.9c2.2,0,4,1.8,4,3.9c0,2.2-1.8,3.9-4,3.9C334.3,188.3,332.5,186.5,332.5,184.3z
	 M335.9,209.1v10.4c0,1.4-1.2,2.6-2.7,2.6s-2.7-1.2-2.7-2.6v-18.2l-2.4,3.9c-0.8,1.2-2.4,1.6-3.7,0.9s-1.7-2.3-0.9-3.6l4.9-7.9
	c1.5-2.4,4.1-3.8,6.9-3.8h2.5c2.8,0,5.5,1.4,6.9,3.8l4.9,7.9c0.8,1.2,0.4,2.8-0.9,3.6s-2.9,0.3-3.7-0.9l-2.4-3.9v18.2
	c0,1.4-1.2,2.6-2.7,2.6s-2.7-1.2-2.7-2.6v-10.4H335.9z"/>
<path class="st5" d="M392.5,135.7c0-2.2,1.8-3.9,4-3.9s4,1.8,4,3.9c0,2.2-1.8,3.9-4,3.9S392.5,137.9,392.5,135.7z M395.8,160.5V171
	c0,1.4-1.2,2.6-2.7,2.6c-1.5,0-2.7-1.2-2.7-2.6v-18.2l-2.4,3.9c-0.8,1.2-2.4,1.6-3.7,0.9s-1.7-2.3-0.9-3.6l4.9-7.9
	c1.5-2.4,4.1-3.8,6.9-3.8h2.5c2.8,0,5.5,1.4,6.9,3.8l4.9,7.9c0.8,1.2,0.4,2.8-0.9,3.6s-2.9,0.3-3.7-0.9l-2.4-3.9V171
	c0,1.4-1.2,2.6-2.7,2.6c-1.5,0-2.7-1.2-2.7-2.6v-10.4H395.8z"/>
<path class="st5" d="M599.1,135.7c0-2.2,1.8-3.9,4-3.9c2.2,0,4,1.8,4,3.9c0,2.2-1.8,3.9-4,3.9C600.9,139.6,599.1,137.9,599.1,135.7z
	 M602.4,160.5V171c0,1.4-1.2,2.6-2.7,2.6c-1.5,0-2.7-1.2-2.7-2.6v-18.2l-2.4,3.9c-0.8,1.2-2.4,1.6-3.7,0.9s-1.7-2.3-0.9-3.6l4.9-7.9
	c1.5-2.4,4.1-3.8,6.9-3.8h2.5c2.8,0,5.5,1.4,6.9,3.8l4.9,7.9c0.8,1.2,0.4,2.8-0.9,3.6s-2.9,0.3-3.7-0.9l-2.4-3.9V171
	c0,1.4-1.2,2.6-2.7,2.6s-2.7-1.2-2.7-2.6v-10.4H602.4z"/>
<path class="st5" d="M569.6,135.7c0-2.2,1.8-3.9,4-3.9c2.2,0,4,1.8,4,3.9c0,2.2-1.8,3.9-4,3.9C571.4,139.6,569.6,137.9,569.6,135.7z
	 M572.9,160.5V171c0,1.4-1.2,2.6-2.7,2.6s-2.7-1.2-2.7-2.6v-18.2l-2.4,3.9c-0.8,1.2-2.4,1.6-3.7,0.9s-1.7-2.3-0.9-3.6l4.9-7.9
	c1.5-2.4,4.1-3.8,6.9-3.8h2.5c2.8,0,5.5,1.4,6.9,3.8l4.9,7.9c0.8,1.2,0.4,2.8-0.9,3.6s-2.9,0.3-3.7-0.9l-2.4-3.9V171
	c0,1.4-1.2,2.6-2.7,2.6s-2.7-1.2-2.7-2.6v-10.4H572.9z"/>
<path class="st5" d="M540.1,135.7c0-2.2,1.8-3.9,4-3.9c2.2,0,4,1.8,4,3.9c0,2.2-1.8,3.9-4,3.9C541.9,139.6,540.1,137.9,540.1,135.7z
	 M543.4,160.5V171c0,1.4-1.2,2.6-2.7,2.6s-2.7-1.2-2.7-2.6v-18.2l-2.4,3.9c-0.8,1.2-2.4,1.6-3.7,0.9s-1.7-2.3-0.9-3.6l4.9-7.9
	c1.5-2.4,4.1-3.8,6.9-3.8h2.5c2.8,0,5.5,1.4,6.9,3.8l4.9,7.9c0.8,1.2,0.4,2.8-0.9,3.6s-2.9,0.3-3.7-0.9l-2.4-3.9V171
	c0,1.4-1.2,2.6-2.7,2.6c-1.5,0-2.7-1.2-2.7-2.6v-10.4H543.4z"/>
<path class="st5" d="M510.8,87.7c0-2.2,1.8-3.9,4-3.9s4,1.8,4,3.9c0,2.2-1.8,3.9-4,3.9S510.8,89.8,510.8,87.7z M514.2,112.4v10.4
	c0,1.4-1.2,2.6-2.7,2.6c-1.5,0-2.7-1.2-2.7-2.6v-18.2l-2.4,3.9c-0.8,1.2-2.4,1.6-3.7,0.9s-1.7-2.3-0.9-3.6l4.9-7.9
	c1.5-2.4,4.1-3.8,6.9-3.8h2.5c2.8,0,5.5,1.4,6.9,3.8l4.9,7.9c0.8,1.2,0.4,2.8-0.9,3.6s-2.9,0.3-3.7-0.9l-2.4-3.9v18.2
	c0,1.4-1.2,2.6-2.7,2.6s-2.7-1.2-2.7-2.6v-10.4H514.2z"/>
<path class="st5" d="M481.2,87.7c0-2.2,1.8-3.9,4-3.9c2.2,0,4,1.8,4,3.9c0,2.2-1.8,3.9-4,3.9C483,91.6,481.2,89.8,481.2,87.7z
	 M484.6,112.4v10.4c0,1.4-1.2,2.6-2.7,2.6s-2.7-1.2-2.7-2.6v-18.2l-2.4,3.9c-0.8,1.2-2.4,1.6-3.7,0.9s-1.7-2.3-0.9-3.6l4.9-7.9
	c1.5-2.4,4.1-3.8,6.9-3.8h2.5c2.8,0,5.5,1.4,6.9,3.8l4.9,7.9c0.8,1.2,0.4,2.8-0.9,3.6s-2.9,0.3-3.7-0.9l-2.4-3.9v18.2
	c0,1.4-1.2,2.6-2.7,2.6s-2.7-1.2-2.7-2.6v-10.4H484.6z"/>
<path class="st5" d="M451.6,87.7c0-2.2,1.8-3.9,4-3.9s4,1.8,4,3.9c0,2.2-1.8,3.9-4,3.9S451.6,89.8,451.6,87.7z M454.9,112.4v10.4
	c0,1.4-1.2,2.6-2.7,2.6s-2.7-1.2-2.7-2.6v-18.2l-2.4,3.9c-0.8,1.2-2.4,1.6-3.7,0.9s-1.7-2.3-0.9-3.6l4.9-7.9
	c1.5-2.4,4.1-3.8,6.9-3.8h2.5c2.8,0,5.5,1.4,6.9,3.8l4.9,7.9c0.8,1.2,0.4,2.8-0.9,3.6s-2.9,0.3-3.7-0.9l-2.4-3.9v18.2
	c0,1.4-1.2,2.6-2.7,2.6c-1.5,0-2.7-1.2-2.7-2.6v-10.4H454.9z"/>
<path class="st5" d="M540.5,87.7c0-2.2,1.8-3.9,4-3.9c2.2,0,4,1.8,4,3.9c0,2.2-1.8,3.9-4,3.9C542.3,91.6,540.5,89.8,540.5,87.7z
	 M543.8,112.4v10.4c0,1.4-1.2,2.6-2.7,2.6c-1.5,0-2.7-1.2-2.7-2.6v-18.2l-2.4,3.9c-0.8,1.2-2.4,1.6-3.7,0.9s-1.7-2.3-0.9-3.6
	l4.9-7.9c1.5-2.4,4.1-3.8,6.9-3.8h2.5c2.8,0,5.5,1.4,6.9,3.8l4.9,7.9c0.8,1.2,0.4,2.8-0.9,3.6s-2.9,0.3-3.7-0.9l-2.4-3.9v18.2
	c0,1.4-1.2,2.6-2.7,2.6s-2.7-1.2-2.7-2.6v-10.4H543.8z"/>
<path class="st5" d="M421.9,87.7c0-2.2,1.8-3.9,4-3.9c2.2,0,4,1.8,4,3.9c0,2.2-1.8,3.9-4,3.9C423.7,91.6,421.9,89.8,421.9,87.7z
	 M425.3,112.4v10.4c0,1.4-1.2,2.6-2.7,2.6s-2.7-1.2-2.7-2.6v-18.2l-2.4,3.9c-0.8,1.2-2.4,1.6-3.7,0.9s-1.7-2.3-0.9-3.6l4.9-7.9
	c1.5-2.4,4.1-3.8,6.9-3.8h2.5c2.8,0,5.5,1.4,6.9,3.8l4.9,7.9c0.8,1.2,0.4,2.8-0.9,3.6s-2.9,0.3-3.7-0.9l-2.4-3.9v18.2
	c0,1.4-1.2,2.6-2.7,2.6s-2.7-1.2-2.7-2.6v-10.4H425.3z"/>
<path class="st5" d="M599.8,87.7c0-2.2,1.8-3.9,4-3.9c2.2,0,4,1.8,4,3.9c0,2.2-1.8,3.9-4,3.9C601.6,91.6,599.8,89.8,599.8,87.7z
	 M603.1,112.4v10.4c0,1.4-1.2,2.6-2.7,2.6s-2.7-1.2-2.7-2.6v-18.2l-2.4,3.9c-0.8,1.2-2.4,1.6-3.7,0.9c-1.3-0.7-1.7-2.3-0.9-3.6
	l4.9-7.9c1.5-2.4,4.1-3.8,6.9-3.8h2.5c2.8,0,5.5,1.4,6.9,3.8l4.9,7.9c0.8,1.2,0.4,2.8-0.9,3.6c-1.3,0.7-2.9,0.3-3.7-0.9l-2.4-3.9
	v18.2c0,1.4-1.2,2.6-2.7,2.6s-2.7-1.2-2.7-2.6v-10.4H603.1z"/>
<path class="st5" d="M570.1,87.7c0-2.2,1.8-3.9,4-3.9c2.2,0,4,1.8,4,3.9c0,2.2-1.8,3.9-4,3.9C571.9,91.6,570.1,89.8,570.1,87.7z
	 M573.5,112.4v10.4c0,1.4-1.2,2.6-2.7,2.6s-2.7-1.2-2.7-2.6v-18.2l-2.4,3.9c-0.8,1.2-2.4,1.6-3.7,0.9s-1.7-2.3-0.9-3.6L566,98
	c1.5-2.4,4.1-3.8,6.9-3.8h2.5c2.8,0,5.5,1.4,6.9,3.8l4.9,7.9c0.8,1.2,0.4,2.8-0.9,3.6s-2.9,0.3-3.7-0.9l-2.4-3.9v18.2
	c0,1.4-1.2,2.6-2.7,2.6s-2.7-1.2-2.7-2.6v-10.4H573.5z"/>
<path d="M16.3,279.7c0-0.9,0.7-1.6,1.7-1.6h5.6c0.9,0,1.7,0.7,1.7,1.6v15.7h-2.8v-2.7c0-0.9-0.7-1.6-1.7-1.6s-1.7,0.7-1.7,1.6v2.7
	h-2.8V279.7z M11.3,281.4h3.9v14h-3.9c-0.9,0-1.7-0.7-1.7-1.6v-4.9h2.8c0.3,0,0.6-0.2,0.6-0.5c0-0.3-0.3-0.5-0.6-0.5H9.7v-2.2h2.8
	c0.3,0,0.6-0.2,0.6-0.5c0-0.3-0.3-0.5-0.6-0.5H9.7V283C9.7,282.1,10.4,281.4,11.3,281.4z M30.2,281.4c0.9,0,1.7,0.7,1.7,1.6v1.6
	h-2.8c-0.3,0-0.6,0.2-0.6,0.5c0,0.3,0.3,0.5,0.6,0.5h2.8v2.2h-2.8c-0.3,0-0.6,0.2-0.6,0.5c0,0.3,0.3,0.5,0.6,0.5h2.8v4.9
	c0,0.9-0.7,1.6-1.7,1.6h-3.9v-14H30.2z M20.5,280.3c-0.3,0-0.6,0.2-0.6,0.5v0.8h-0.8c-0.3,0-0.6,0.2-0.6,0.5v0.5
	c0,0.3,0.3,0.5,0.6,0.5H20v0.8c0,0.3,0.3,0.5,0.6,0.5h0.6c0.3,0,0.6-0.2,0.6-0.5v-0.8h0.8c0.3,0,0.6-0.2,0.6-0.5v-0.5
	c0-0.3-0.3-0.5-0.6-0.5h-0.8v-0.8c0-0.3-0.3-0.5-0.6-0.5H20.5z"/>
<rect x="40" y="281.9" class="st0" width="249.4" height="27.2"/>
<text transform="matrix(1.0302 0 0 1 39.953 292.9689)"><tspan x="0" y="0" class="st1 st2">1</tspan><tspan x="8.6" y="0" class="st1 st2"> </tspan><tspan x="12.8" y="0" class="st3 st2">in 20 deaths</tspan></text>
<path d="M15.6,309.1c0-2.2,1.8-3.9,4-3.9s4,1.8,4,3.9c0,2.2-1.8,3.9-4,3.9S15.6,311.3,15.6,309.1z M19,333.9v10.4
	c0,1.4-1.2,2.6-2.7,2.6s-2.7-1.2-2.7-2.6v-18.2l-2.4,3.9c-0.8,1.2-2.4,1.6-3.7,0.9c-1.3-0.7-1.7-2.3-0.9-3.6l4.9-7.9
	c1.5-2.4,4.1-3.8,6.9-3.8h2.5c2.8,0,5.5,1.4,6.9,3.8l4.9,7.9c0.8,1.2,0.4,2.8-0.9,3.6c-1.3,0.7-2.9,0.3-3.7-0.9l-2.4-3.9v18.2
	c0,1.4-1.2,2.6-2.7,2.6s-2.7-1.2-2.7-2.6v-10.4H19z"/>
<path class="st5" d="M163.2,309.1c0-2.2,1.8-3.9,4-3.9c2.2,0,4,1.8,4,3.9c0,2.2-1.8,3.9-4,3.9C165,313,163.2,311.3,163.2,309.1z
	 M166.6,333.9v10.4c0,1.4-1.2,2.6-2.7,2.6c-1.5,0-2.7-1.2-2.7-2.6v-18.2l-2.4,3.9c-0.8,1.2-2.4,1.6-3.7,0.9
	c-1.3-0.7-1.7-2.3-0.9-3.6l4.9-7.9c1.5-2.4,4.1-3.8,6.9-3.8h2.5c2.8,0,5.5,1.4,6.9,3.8l4.9,7.9c0.8,1.2,0.4,2.8-0.9,3.6
	c-1.3,0.7-2.9,0.3-3.7-0.9l-2.4-3.9v18.2c0,1.4-1.2,2.6-2.7,2.6c-1.5,0-2.7-1.2-2.7-2.6v-10.4H166.6z"/>
<path class="st5" d="M133.7,309.1c0-2.2,1.8-3.9,4-3.9c2.2,0,4,1.8,4,3.9c0,2.2-1.8,3.9-4,3.9C135.5,313,133.7,311.3,133.7,309.1z
	 M137,333.9v10.4c0,1.4-1.2,2.6-2.7,2.6c-1.5,0-2.7-1.2-2.7-2.6v-18.2l-2.4,3.9c-0.8,1.2-2.4,1.6-3.7,0.9c-1.3-0.7-1.7-2.3-0.9-3.6
	l4.9-7.9c1.5-2.4,4.1-3.8,6.9-3.8h2.5c2.8,0,5.5,1.4,6.9,3.8l4.9,7.9c0.8,1.2,0.4,2.8-0.9,3.6c-1.3,0.7-2.9,0.3-3.7-0.9l-2.4-3.9
	v18.2c0,1.4-1.2,2.6-2.7,2.6c-1.5,0-2.7-1.2-2.7-2.6v-10.4H137z"/>
<path class="st5" d="M104.2,309.1c0-2.2,1.8-3.9,4-3.9s4,1.8,4,3.9c0,2.2-1.8,3.9-4,3.9S104.2,311.3,104.2,309.1z M107.5,333.9v10.4
	c0,1.4-1.2,2.6-2.7,2.6c-1.5,0-2.7-1.2-2.7-2.6v-18.2l-2.4,3.9c-0.8,1.2-2.4,1.6-3.7,0.9c-1.3-0.7-1.7-2.3-0.9-3.6l4.9-7.9
	c1.5-2.4,4.1-3.8,6.9-3.8h2.5c2.8,0,5.5,1.4,6.9,3.8l4.9,7.9c0.8,1.2,0.4,2.8-0.9,3.6c-1.3,0.7-2.9,0.3-3.7-0.9l-2.4-3.9v18.2
	c0,1.4-1.2,2.6-2.7,2.6s-2.7-1.2-2.7-2.6v-10.4H107.5z"/>
<path class="st5" d="M74.6,309.1c0-2.2,1.8-3.9,4-3.9s4,1.8,4,3.9c0,2.2-1.8,3.9-4,3.9S74.6,311.3,74.6,309.1z M78,333.9v10.4
	c0,1.4-1.2,2.6-2.7,2.6s-2.7-1.2-2.7-2.6v-18.2l-2.4,3.9c-0.8,1.2-2.4,1.6-3.7,0.9c-1.3-0.7-1.7-2.3-0.9-3.6l4.9-7.9
	c1.5-2.4,4.1-3.8,6.9-3.8h2.5c2.8,0,5.5,1.4,6.9,3.8l4.9,7.9c0.8,1.2,0.4,2.8-0.9,3.6c-1.3,0.7-2.9,0.3-3.7-0.9l-2.4-3.9v18.2
	c0,1.4-1.2,2.6-2.7,2.6s-2.7-1.2-2.7-2.6v-10.4H78z"/>
<path class="st5" d="M45.1,309.1c0-2.2,1.8-3.9,4-3.9s4,1.8,4,3.9c0,2.2-1.8,3.9-4,3.9S45.1,311.3,45.1,309.1z M48.5,333.9v10.4
	c0,1.4-1.2,2.6-2.7,2.6c-1.5,0-2.7-1.2-2.7-2.6v-18.2l-2.4,3.9c-0.8,1.2-2.4,1.6-3.7,0.9c-1.3-0.7-1.7-2.3-0.9-3.6l4.9-7.9
	c1.5-2.4,4.1-3.8,6.9-3.8h2.5c2.8,0,5.5,1.4,6.9,3.8l4.9,7.9c0.8,1.2,0.4,2.8-0.9,3.6c-1.3,0.7-2.9,0.3-3.7-0.9l-2.4-3.9v18.2
	c0,1.4-1.2,2.6-2.7,2.6s-2.7-1.2-2.7-2.6v-10.4H48.5z"/>
<path class="st5" d="M192.7,309.1c0-2.2,1.8-3.9,4-3.9c2.2,0,4,1.8,4,3.9c0,2.2-1.8,3.9-4,3.9C194.5,313,192.7,311.3,192.7,309.1z
	 M196.1,333.9v10.4c0,1.4-1.2,2.6-2.7,2.6c-1.5,0-2.7-1.2-2.7-2.6v-18.2l-2.4,3.9c-0.8,1.2-2.4,1.6-3.7,0.9
	c-1.3-0.7-1.7-2.3-0.9-3.6l4.9-7.9c1.5-2.4,4.1-3.8,6.9-3.8h2.5c2.8,0,5.5,1.4,6.9,3.8l4.9,7.9c0.8,1.2,0.4,2.8-0.9,3.6
	c-1.3,0.7-2.9,0.3-3.7-0.9l-2.4-3.9v18.2c0,1.4-1.2,2.6-2.7,2.6s-2.7-1.2-2.7-2.6v-10.4H196.1z"/>
<path class="st5" d="M281.3,309.1c0-2.2,1.8-3.9,4-3.9s4,1.8,4,3.9c0,2.2-1.8,3.9-4,3.9S281.3,311.3,281.3,309.1z M284.6,333.9v10.4
	c0,1.4-1.2,2.6-2.7,2.6c-1.5,0-2.7-1.2-2.7-2.6v-18.2l-2.4,3.9c-0.8,1.2-2.4,1.6-3.7,0.9c-1.3-0.7-1.7-2.3-0.9-3.6l4.9-7.9
	c1.5-2.4,4.1-3.8,6.9-3.8h2.5c2.8,0,5.5,1.4,6.9,3.8l4.9,7.9c0.8,1.2,0.4,2.8-0.9,3.6c-1.3,0.7-2.9,0.3-3.7-0.9l-2.4-3.9v18.2
	c0,1.4-1.2,2.6-2.7,2.6s-2.7-1.2-2.7-2.6v-10.4H284.6z"/>
<path class="st5" d="M251.8,309.1c0-2.2,1.8-3.9,4-3.9c2.2,0,4,1.8,4,3.9c0,2.2-1.8,3.9-4,3.9C253.6,313,251.8,311.3,251.8,309.1z
	 M255.1,333.9v10.4c0,1.4-1.2,2.6-2.7,2.6c-1.5,0-2.7-1.2-2.7-2.6v-18.2l-2.4,3.9c-0.8,1.2-2.4,1.6-3.7,0.9
	c-1.3-0.7-1.7-2.3-0.9-3.6l4.9-7.9c1.5-2.4,4.1-3.8,6.9-3.8h2.5c2.8,0,5.5,1.4,6.9,3.8l4.9,7.9c0.8,1.2,0.4,2.8-0.9,3.6
	c-1.3,0.7-2.9,0.3-3.7-0.9l-2.4-3.9v18.2c0,1.4-1.2,2.6-2.7,2.6s-2.7-1.2-2.7-2.6v-10.4H255.1z"/>
<path class="st5" d="M222.2,309.1c0-2.2,1.8-3.9,4-3.9c2.2,0,4,1.8,4,3.9c0,2.2-1.8,3.9-4,3.9C224,313,222.2,311.3,222.2,309.1z
	 M225.6,333.9v10.4c0,1.4-1.2,2.6-2.7,2.6c-1.5,0-2.7-1.2-2.7-2.6v-18.2l-2.4,3.9c-0.8,1.2-2.4,1.6-3.7,0.9
	c-1.3-0.7-1.7-2.3-0.9-3.6l4.9-7.9c1.5-2.4,4.1-3.8,6.9-3.8h2.5c2.8,0,5.5,1.4,6.9,3.8l4.9,7.9c0.8,1.2,0.4,2.8-0.9,3.6
	c-1.3,0.7-2.9,0.3-3.7-0.9l-2.4-3.9v18.2c0,1.4-1.2,2.6-2.7,2.6s-2.7-1.2-2.7-2.6v-10.4H225.6z"/>
<path class="st5" d="M14.7,357.8c0-2.2,1.8-3.9,4-3.9s4,1.8,4,3.9s-1.8,3.9-4,3.9S14.7,359.9,14.7,357.8z M18,382.6V393
	c0,1.4-1.2,2.6-2.7,2.6s-2.7-1.2-2.7-2.6v-18.2l-2.4,3.9c-0.8,1.2-2.4,1.6-3.7,0.9s-1.7-2.3-0.9-3.6l4.9-7.9
	c1.5-2.4,4.1-3.8,6.9-3.8H20c2.8,0,5.5,1.4,6.9,3.8l4.9,7.9c0.8,1.2,0.4,2.8-0.9,3.6s-2.9,0.3-3.7-0.9l-2.4-3.9V393
	c0,1.4-1.2,2.6-2.7,2.6s-2.7-1.2-2.7-2.6v-10.4H18z"/>
<path class="st5" d="M74,357.8c0-2.2,1.8-3.9,4-3.9s4,1.8,4,3.9s-1.8,3.9-4,3.9S74,359.9,74,357.8z M77.3,382.6V393
	c0,1.4-1.2,2.6-2.7,2.6c-1.5,0-2.7-1.2-2.7-2.6v-18.2l-2.4,3.9c-0.8,1.2-2.4,1.6-3.7,0.9s-1.7-2.3-0.9-3.6l4.9-7.9
	c1.5-2.4,4.1-3.8,6.9-3.8h2.5c2.8,0,5.5,1.4,6.9,3.8l4.9,7.9c0.8,1.2,0.4,2.8-0.9,3.6c-1.3,0.7-2.9,0.3-3.7-0.9l-2.4-3.9V393
	c0,1.4-1.2,2.6-2.7,2.6s-2.7-1.2-2.7-2.6v-10.4H77.3z"/>
<path class="st5" d="M44.3,357.8c0-2.2,1.8-3.9,4-3.9s4,1.8,4,3.9s-1.8,3.9-4,3.9S44.3,359.9,44.3,357.8z M47.7,382.6V393
	c0,1.4-1.2,2.6-2.7,2.6c-1.5,0-2.7-1.2-2.7-2.6v-18.2l-2.4,3.9c-0.8,1.2-2.4,1.6-3.7,0.9c-1.3-0.7-1.7-2.3-0.9-3.6l4.9-7.9
	c1.5-2.4,4.1-3.8,6.9-3.8h2.5c2.8,0,5.5,1.4,6.9,3.8l4.9,7.9c0.8,1.2,0.4,2.8-0.9,3.6s-2.9,0.3-3.7-0.9l-2.4-3.9V393
	c0,1.4-1.2,2.6-2.7,2.6c-1.5,0-2.7-1.2-2.7-2.6v-10.4H47.7z"/>
<path class="st5" d="M192.5,357.8c0-2.2,1.8-3.9,4-3.9c2.2,0,4,1.8,4,3.9s-1.8,3.9-4,3.9C194.3,361.7,192.5,359.9,192.5,357.8z
	 M195.9,382.6V393c0,1.4-1.2,2.6-2.7,2.6s-2.7-1.2-2.7-2.6v-18.2l-2.4,3.9c-0.8,1.2-2.4,1.6-3.7,0.9s-1.7-2.3-0.9-3.6l4.9-7.9
	c1.5-2.4,4.1-3.8,6.9-3.8h2.5c2.8,0,5.5,1.4,6.9,3.8l4.9,7.9c0.8,1.2,0.4,2.8-0.9,3.6s-2.9,0.3-3.7-0.9l-2.4-3.9V393
	c0,1.4-1.2,2.6-2.7,2.6c-1.5,0-2.7-1.2-2.7-2.6v-10.4H195.9z"/>
<path class="st5" d="M162.9,357.8c0-2.2,1.8-3.9,4-3.9c2.2,0,4,1.8,4,3.9s-1.8,3.9-4,3.9C164.7,361.7,162.9,359.9,162.9,357.8z
	 M166.2,382.6V393c0,1.4-1.2,2.6-2.7,2.6s-2.7-1.2-2.7-2.6v-18.2l-2.4,3.9c-0.8,1.2-2.4,1.6-3.7,0.9s-1.7-2.3-0.9-3.6l4.9-7.9
	c1.5-2.4,4.1-3.8,6.9-3.8h2.5c2.8,0,5.5,1.4,6.9,3.8l4.9,7.9c0.8,1.2,0.4,2.8-0.9,3.6s-2.9,0.3-3.7-0.9l-2.4-3.9V393
	c0,1.4-1.2,2.6-2.7,2.6c-1.5,0-2.7-1.2-2.7-2.6v-10.4H166.2z"/>
<path class="st5" d="M133.2,357.8c0-2.2,1.8-3.9,4-3.9c2.2,0,4,1.8,4,3.9s-1.8,3.9-4,3.9C135.1,361.7,133.2,359.9,133.2,357.8z
	 M136.6,382.6V393c0,1.4-1.2,2.6-2.7,2.6s-2.7-1.2-2.7-2.6v-18.2l-2.4,3.9c-0.8,1.2-2.4,1.6-3.7,0.9c-1.3-0.7-1.7-2.3-0.9-3.6
	l4.9-7.9c1.5-2.4,4.1-3.8,6.9-3.8h2.5c2.8,0,5.5,1.4,6.9,3.8l4.9,7.9c0.8,1.2,0.4,2.8-0.9,3.6s-2.9,0.3-3.7-0.9l-2.4-3.9V393
	c0,1.4-1.2,2.6-2.7,2.6c-1.5,0-2.7-1.2-2.7-2.6v-10.4H136.6z"/>
<path class="st5" d="M222.2,357.8c0-2.2,1.8-3.9,4-3.9c2.2,0,4,1.8,4,3.9s-1.8,3.9-4,3.9C224,361.7,222.2,359.9,222.2,357.8z
	 M225.5,382.6V393c0,1.4-1.2,2.6-2.7,2.6c-1.5,0-2.7-1.2-2.7-2.6v-18.2l-2.4,3.9c-0.8,1.2-2.4,1.6-3.7,0.9s-1.7-2.3-0.9-3.6l4.9-7.9
	c1.5-2.4,4.1-3.8,6.9-3.8h2.5c2.8,0,5.5,1.4,6.9,3.8l4.9,7.9c0.8,1.2,0.4,2.8-0.9,3.6s-2.9,0.3-3.7-0.9l-2.4-3.9V393
	c0,1.4-1.2,2.6-2.7,2.6c-1.5,0-2.7-1.2-2.7-2.6v-10.4H225.5z"/>
<path class="st5" d="M103.6,357.8c0-2.2,1.8-3.9,4-3.9s4,1.8,4,3.9s-1.8,3.9-4,3.9S103.6,359.9,103.6,357.8z M107,382.6V393
	c0,1.4-1.2,2.6-2.7,2.6c-1.5,0-2.7-1.2-2.7-2.6v-18.2l-2.4,3.9c-0.8,1.2-2.4,1.6-3.7,0.9c-1.3-0.7-1.7-2.3-0.9-3.6l4.9-7.9
	c1.5-2.4,4.1-3.8,6.9-3.8h2.5c2.8,0,5.5,1.4,6.9,3.8l4.9,7.9c0.8,1.2,0.4,2.8-0.9,3.6c-1.3,0.7-2.9,0.3-3.7-0.9l-2.4-3.9V393
	c0,1.4-1.2,2.6-2.7,2.6c-1.5,0-2.7-1.2-2.7-2.6v-10.4H107z"/>
<path class="st5" d="M281.4,357.8c0-2.2,1.8-3.9,4-3.9c2.2,0,4,1.8,4,3.9s-1.8,3.9-4,3.9C283.3,361.7,281.4,359.9,281.4,357.8z
	 M284.8,382.6V393c0,1.4-1.2,2.6-2.7,2.6s-2.7-1.2-2.7-2.6v-18.2l-2.4,3.9c-0.8,1.2-2.4,1.6-3.7,0.9s-1.7-2.3-0.9-3.6l4.9-7.9
	c1.5-2.4,4.1-3.8,6.9-3.8h2.5c2.8,0,5.5,1.4,6.9,3.8l4.9,7.9c0.8,1.2,0.4,2.8-0.9,3.6s-2.9,0.3-3.7-0.9l-2.4-3.9V393
	c0,1.4-1.2,2.6-2.7,2.6s-2.7-1.2-2.7-2.6v-10.4H284.8z"/>
<path class="st5" d="M251.8,357.8c0-2.2,1.8-3.9,4-3.9c2.2,0,4,1.8,4,3.9s-1.8,3.9-4,3.9C253.6,361.7,251.8,359.9,251.8,357.8z
	 M255.2,382.6V393c0,1.4-1.2,2.6-2.7,2.6c-1.5,0-2.7-1.2-2.7-2.6v-18.2l-2.4,3.9c-0.8,1.2-2.4,1.6-3.7,0.9s-1.7-2.3-0.9-3.6l4.9-7.9
	c1.5-2.4,4.1-3.8,6.9-3.8h2.5c2.8,0,5.5,1.4,6.9,3.8l4.9,7.9c0.8,1.2,0.4,2.8-0.9,3.6s-2.9,0.3-3.7-0.9l-2.4-3.9V393
	c0,1.4-1.2,2.6-2.7,2.6c-1.5,0-2.7-1.2-2.7-2.6v-10.4H255.2z"/>
<path d="M337.6,279.7c0-0.9,0.7-1.6,1.7-1.6h5.6c0.9,0,1.7,0.7,1.7,1.6v15.7h-2.8v-2.7c0-0.9-0.7-1.6-1.7-1.6s-1.7,0.7-1.7,1.6v2.7
	h-2.8V279.7z M332.6,281.4h3.9v14h-3.9c-0.9,0-1.7-0.7-1.7-1.6v-4.9h2.8c0.3,0,0.6-0.2,0.6-0.5c0-0.3-0.3-0.5-0.6-0.5h-2.8v-2.2h2.8
	c0.3,0,0.6-0.2,0.6-0.5c0-0.3-0.3-0.5-0.6-0.5h-2.8V283C330.9,282.1,331.6,281.4,332.6,281.4z M351.5,281.4c0.9,0,1.7,0.7,1.7,1.6
	v1.6h-2.8c-0.3,0-0.6,0.2-0.6,0.5c0,0.3,0.3,0.5,0.6,0.5h2.8v2.2h-2.8c-0.3,0-0.6,0.2-0.6,0.5c0,0.3,0.3,0.5,0.6,0.5h2.8v4.9
	c0,0.9-0.7,1.6-1.7,1.6h-3.9v-14H351.5z M341.7,280.3c-0.3,0-0.6,0.2-0.6,0.5v0.8h-0.8c-0.3,0-0.6,0.2-0.6,0.5v0.5
	c0,0.3,0.3,0.5,0.6,0.5h0.8v0.8c0,0.3,0.3,0.5,0.6,0.5h0.6c0.3,0,0.6-0.2,0.6-0.5v-0.8h0.8c0.3,0,0.6-0.2,0.6-0.5v-0.5
	c0-0.3-0.3-0.5-0.6-0.5h-0.8v-0.8c0-0.3-0.3-0.5-0.6-0.5H341.7z"/>
<rect x="361.2" y="281.9" class="st0" width="334.8" height="15.7"/>
<text transform="matrix(1.0302 0 0 1 361.1836 292.9694)"><tspan x="0" y="0" class="st1 st2">1</tspan><tspan x="8.6" y="0" class="st1 st2"> </tspan><tspan x="12.8" y="0" class="st3 st2">in 17 asthma emergency room visits</tspan></text>
<path d="M336.8,309.1c0-2.2,1.8-3.9,4-3.9s4,1.8,4,3.9c0,2.2-1.8,3.9-4,3.9S336.8,311.3,336.8,309.1z M340.2,333.9v10.4
	c0,1.4-1.2,2.6-2.7,2.6s-2.7-1.2-2.7-2.6v-18.2l-2.4,3.9c-0.8,1.2-2.4,1.6-3.7,0.9c-1.3-0.7-1.7-2.3-0.9-3.6l4.9-7.9
	c1.5-2.4,4.1-3.8,6.9-3.8h2.5c2.8,0,5.5,1.4,6.9,3.8l4.9,7.9c0.8,1.2,0.4,2.8-0.9,3.6c-1.3,0.7-2.9,0.3-3.7-0.9l-2.4-3.9v18.2
	c0,1.4-1.2,2.6-2.7,2.6c-1.5,0-2.7-1.2-2.7-2.6v-10.4H340.2z"/>
<path class="st5" d="M484.4,309.1c0-2.2,1.8-3.9,4-3.9c2.2,0,4,1.8,4,3.9c0,2.2-1.8,3.9-4,3.9C486.2,313,484.4,311.3,484.4,309.1z
	 M487.8,333.9v10.4c0,1.4-1.2,2.6-2.7,2.6s-2.7-1.2-2.7-2.6v-18.2L480,330c-0.8,1.2-2.4,1.6-3.7,0.9c-1.3-0.7-1.7-2.3-0.9-3.6
	l4.9-7.9c1.5-2.4,4.1-3.8,6.9-3.8h2.5c2.8,0,5.5,1.4,6.9,3.8l4.9,7.9c0.8,1.2,0.4,2.8-0.9,3.6c-1.3,0.7-2.9,0.3-3.7-0.9l-2.4-3.9
	v18.2c0,1.4-1.2,2.6-2.7,2.6s-2.7-1.2-2.7-2.6v-10.4H487.8z"/>
<path class="st5" d="M454.9,309.1c0-2.2,1.8-3.9,4-3.9s4,1.8,4,3.9c0,2.2-1.8,3.9-4,3.9S454.9,311.3,454.9,309.1z M458.3,333.9v10.4
	c0,1.4-1.2,2.6-2.7,2.6c-1.5,0-2.7-1.2-2.7-2.6v-18.2l-2.4,3.9c-0.8,1.2-2.4,1.6-3.7,0.9c-1.3-0.7-1.7-2.3-0.9-3.6l4.9-7.9
	c1.5-2.4,4.1-3.8,6.9-3.8h2.5c2.8,0,5.5,1.4,6.9,3.8l4.9,7.9c0.8,1.2,0.4,2.8-0.9,3.6c-1.3,0.7-2.9,0.3-3.7-0.9l-2.4-3.9v18.2
	c0,1.4-1.2,2.6-2.7,2.6s-2.7-1.2-2.7-2.6v-10.4H458.3z"/>
<path class="st5" d="M425.4,309.1c0-2.2,1.8-3.9,4-3.9c2.2,0,4,1.8,4,3.9c0,2.2-1.8,3.9-4,3.9C427.2,313,425.4,311.3,425.4,309.1z
	 M428.8,333.9v10.4c0,1.4-1.2,2.6-2.7,2.6s-2.7-1.2-2.7-2.6v-18.2L421,330c-0.8,1.2-2.4,1.6-3.7,0.9c-1.3-0.7-1.7-2.3-0.9-3.6
	l4.9-7.9c1.5-2.4,4.1-3.8,6.9-3.8h2.5c2.8,0,5.5,1.4,6.9,3.8l4.9,7.9c0.8,1.2,0.4,2.8-0.9,3.6c-1.3,0.7-2.9,0.3-3.7-0.9l-2.4-3.9
	v18.2c0,1.4-1.2,2.6-2.7,2.6s-2.7-1.2-2.7-2.6v-10.4H428.8z"/>
<path class="st5" d="M395.9,309.1c0-2.2,1.8-3.9,4-3.9s4,1.8,4,3.9c0,2.2-1.8,3.9-4,3.9S395.9,311.3,395.9,309.1z M399.2,333.9v10.4
	c0,1.4-1.2,2.6-2.7,2.6c-1.5,0-2.7-1.2-2.7-2.6v-18.2l-2.4,3.9c-0.8,1.2-2.4,1.6-3.7,0.9c-1.3-0.7-1.7-2.3-0.9-3.6l4.9-7.9
	c1.5-2.4,4.1-3.8,6.9-3.8h2.5c2.8,0,5.5,1.4,6.9,3.8l4.9,7.9c0.8,1.2,0.4,2.8-0.9,3.6c-1.3,0.7-2.9,0.3-3.7-0.9l-2.4-3.9v18.2
	c0,1.4-1.2,2.6-2.7,2.6c-1.5,0-2.7-1.2-2.7-2.6v-10.4H399.2z"/>
<path class="st5" d="M366.4,309.1c0-2.2,1.8-3.9,4-3.9c2.2,0,4,1.8,4,3.9c0,2.2-1.8,3.9-4,3.9C368.2,313,366.4,311.3,366.4,309.1z
	 M369.7,333.9v10.4c0,1.4-1.2,2.6-2.7,2.6s-2.7-1.2-2.7-2.6v-18.2l-2.4,3.9c-0.8,1.2-2.4,1.6-3.7,0.9c-1.3-0.7-1.7-2.3-0.9-3.6
	l4.9-7.9c1.5-2.4,4.1-3.8,6.9-3.8h2.5c2.8,0,5.5,1.4,6.9,3.8l4.9,7.9c0.8,1.2,0.4,2.8-0.9,3.6c-1.3,0.7-2.9,0.3-3.7-0.9l-2.4-3.9
	v18.2c0,1.4-1.2,2.6-2.7,2.6s-2.7-1.2-2.7-2.6v-10.4H369.7z"/>
<path class="st5" d="M513.9,309.1c0-2.2,1.8-3.9,4-3.9c2.2,0,4,1.8,4,3.9c0,2.2-1.8,3.9-4,3.9C515.8,313,513.9,311.3,513.9,309.1z
	 M517.3,333.9v10.4c0,1.4-1.2,2.6-2.7,2.6s-2.7-1.2-2.7-2.6v-18.2l-2.4,3.9c-0.8,1.2-2.4,1.6-3.7,0.9c-1.3-0.7-1.7-2.3-0.9-3.6
	l4.9-7.9c1.5-2.4,4.1-3.8,6.9-3.8h2.5c2.8,0,5.5,1.4,6.9,3.8l4.9,7.9c0.8,1.2,0.4,2.8-0.9,3.6c-1.3,0.7-2.9,0.3-3.7-0.9l-2.4-3.9
	v18.2c0,1.4-1.2,2.6-2.7,2.6s-2.7-1.2-2.7-2.6v-10.4H517.3z"/>
<path class="st5" d="M602.5,309.1c0-2.2,1.8-3.9,4-3.9c2.2,0,4,1.8,4,3.9c0,2.2-1.8,3.9-4,3.9C604.3,313,602.5,311.3,602.5,309.1z
	 M605.9,333.9v10.4c0,1.4-1.2,2.6-2.7,2.6s-2.7-1.2-2.7-2.6v-18.2l-2.4,3.9c-0.8,1.2-2.4,1.6-3.7,0.9c-1.3-0.7-1.7-2.3-0.9-3.6
	l4.9-7.9c1.5-2.4,4.1-3.8,6.9-3.8h2.5c2.8,0,5.5,1.4,6.9,3.8l4.9,7.9c0.8,1.2,0.4,2.8-0.9,3.6c-1.3,0.7-2.9,0.3-3.7-0.9l-2.4-3.9
	v18.2c0,1.4-1.2,2.6-2.7,2.6s-2.7-1.2-2.7-2.6v-10.4H605.9z"/>
<path class="st5" d="M573,309.1c0-2.2,1.8-3.9,4-3.9c2.2,0,4,1.8,4,3.9c0,2.2-1.8,3.9-4,3.9C574.8,313,573,311.3,573,309.1z
	 M576.3,333.9v10.4c0,1.4-1.2,2.6-2.7,2.6s-2.7-1.2-2.7-2.6v-18.2l-2.4,3.9c-0.8,1.2-2.4,1.6-3.7,0.9c-1.3-0.7-1.7-2.3-0.9-3.6
	l4.9-7.9c1.5-2.4,4.1-3.8,6.9-3.8h2.5c2.8,0,5.5,1.4,6.9,3.8l4.9,7.9c0.8,1.2,0.4,2.8-0.9,3.6c-1.3,0.7-2.9,0.3-3.7-0.9l-2.4-3.9
	v18.2c0,1.4-1.2,2.6-2.7,2.6c-1.5,0-2.7-1.2-2.7-2.6v-10.4H576.3z"/>
<path class="st5" d="M543.5,309.1c0-2.2,1.8-3.9,4-3.9s4,1.8,4,3.9c0,2.2-1.8,3.9-4,3.9S543.5,311.3,543.5,309.1z M546.8,333.9v10.4
	c0,1.4-1.2,2.6-2.7,2.6s-2.7-1.2-2.7-2.6v-18.2L539,330c-0.8,1.2-2.4,1.6-3.7,0.9c-1.3-0.7-1.7-2.3-0.9-3.6l4.9-7.9
	c1.5-2.4,4.1-3.8,6.9-3.8h2.5c2.8,0,5.5,1.4,6.9,3.8l4.9,7.9c0.8,1.2,0.4,2.8-0.9,3.6c-1.3,0.7-2.9,0.3-3.7-0.9l-2.4-3.9v18.2
	c0,1.4-1.2,2.6-2.7,2.6s-2.7-1.2-2.7-2.6v-10.4H546.8z"/>
<path class="st5" d="M335.9,357.8c0-2.2,1.8-3.9,4-3.9s4,1.8,4,3.9s-1.8,3.9-4,3.9S335.9,359.9,335.9,357.8z M339.3,382.6V393
	c0,1.4-1.2,2.6-2.7,2.6c-1.5,0-2.7-1.2-2.7-2.6v-18.2l-2.4,3.9c-0.8,1.2-2.4,1.6-3.7,0.9c-1.3-0.7-1.7-2.3-0.9-3.6l4.9-7.9
	c1.5-2.4,4.1-3.8,6.9-3.8h2.5c2.8,0,5.5,1.4,6.9,3.8l4.9,7.9c0.8,1.2,0.4,2.8-0.9,3.6c-1.3,0.7-2.9,0.3-3.7-0.9l-2.4-3.9V393
	c0,1.4-1.2,2.6-2.7,2.6s-2.7-1.2-2.7-2.6v-10.4H339.3z"/>
<path class="st5" d="M395.2,357.8c0-2.2,1.8-3.9,4-3.9c2.2,0,4,1.8,4,3.9s-1.8,3.9-4,3.9C397,361.7,395.2,359.9,395.2,357.8z
	 M398.6,382.6V393c0,1.4-1.2,2.6-2.7,2.6s-2.7-1.2-2.7-2.6v-18.2l-2.4,3.9c-0.8,1.2-2.4,1.6-3.7,0.9s-1.7-2.3-0.9-3.6l4.9-7.9
	c1.5-2.4,4.1-3.8,6.9-3.8h2.5c2.8,0,5.5,1.4,6.9,3.8l4.9,7.9c0.8,1.2,0.4,2.8-0.9,3.6s-2.9,0.3-3.7-0.9l-2.4-3.9V393
	c0,1.4-1.2,2.6-2.7,2.6s-2.7-1.2-2.7-2.6v-10.4H398.6z"/>
<path class="st5" d="M365.6,357.8c0-2.2,1.8-3.9,4-3.9s4,1.8,4,3.9s-1.8,3.9-4,3.9S365.6,359.9,365.6,357.8z M368.9,382.6V393
	c0,1.4-1.2,2.6-2.7,2.6s-2.7-1.2-2.7-2.6v-18.2l-2.4,3.9c-0.8,1.2-2.4,1.6-3.7,0.9s-1.7-2.3-0.9-3.6l4.9-7.9
	c1.5-2.4,4.1-3.8,6.9-3.8h2.5c2.8,0,5.5,1.4,6.9,3.8l4.9,7.9c0.8,1.2,0.4,2.8-0.9,3.6s-2.9,0.3-3.7-0.9l-2.4-3.9V393
	c0,1.4-1.2,2.6-2.7,2.6c-1.5,0-2.7-1.2-2.7-2.6v-10.4H368.9z"/>
<path class="st5" d="M513.8,357.8c0-2.2,1.8-3.9,4-3.9c2.2,0,4,1.8,4,3.9s-1.8,3.9-4,3.9C515.6,361.7,513.8,359.9,513.8,357.8z
	 M517.1,382.6V393c0,1.4-1.2,2.6-2.7,2.6s-2.7-1.2-2.7-2.6v-18.2l-2.4,3.9c-0.8,1.2-2.4,1.6-3.7,0.9s-1.7-2.3-0.9-3.6l4.9-7.9
	c1.5-2.4,4.1-3.8,6.9-3.8h2.5c2.8,0,5.5,1.4,6.9,3.8l4.9,7.9c0.8,1.2,0.4,2.8-0.9,3.6c-1.3,0.7-2.9,0.3-3.7-0.9l-2.4-3.9V393
	c0,1.4-1.2,2.6-2.7,2.6c-1.5,0-2.7-1.2-2.7-2.6v-10.4H517.1z"/>
<path class="st5" d="M484.1,357.8c0-2.2,1.8-3.9,4-3.9s4,1.8,4,3.9s-1.8,3.9-4,3.9S484.1,359.9,484.1,357.8z M487.5,382.6V393
	c0,1.4-1.2,2.6-2.7,2.6c-1.5,0-2.7-1.2-2.7-2.6v-18.2l-2.4,3.9c-0.8,1.2-2.4,1.6-3.7,0.9s-1.7-2.3-0.9-3.6l4.9-7.9
	c1.5-2.4,4.1-3.8,6.9-3.8h2.5c2.8,0,5.5,1.4,6.9,3.8l4.9,7.9c0.8,1.2,0.4,2.8-0.9,3.6s-2.9,0.3-3.7-0.9l-2.4-3.9V393
	c0,1.4-1.2,2.6-2.7,2.6c-1.5,0-2.7-1.2-2.7-2.6v-10.4H487.5z"/>
<path class="st5" d="M454.5,357.8c0-2.2,1.8-3.9,4-3.9c2.2,0,4,1.8,4,3.9s-1.8,3.9-4,3.9C456.3,361.7,454.5,359.9,454.5,357.8z
	 M457.8,382.6V393c0,1.4-1.2,2.6-2.7,2.6s-2.7-1.2-2.7-2.6v-18.2l-2.4,3.9c-0.8,1.2-2.4,1.6-3.7,0.9s-1.7-2.3-0.9-3.6l4.9-7.9
	c1.5-2.4,4.1-3.8,6.9-3.8h2.5c2.8,0,5.5,1.4,6.9,3.8l4.9,7.9c0.8,1.2,0.4,2.8-0.9,3.6s-2.9,0.3-3.7-0.9l-2.4-3.9V393
	c0,1.4-1.2,2.6-2.7,2.6s-2.7-1.2-2.7-2.6v-10.4H457.8z"/>
<path class="st5" d="M424.8,357.8c0-2.2,1.8-3.9,4-3.9s4,1.8,4,3.9s-1.8,3.9-4,3.9S424.8,359.9,424.8,357.8z M428.2,382.6V393
	c0,1.4-1.2,2.6-2.7,2.6s-2.7-1.2-2.7-2.6v-18.2l-2.4,3.9c-0.8,1.2-2.4,1.6-3.7,0.9s-1.7-2.3-0.9-3.6l4.9-7.9
	c1.5-2.4,4.1-3.8,6.9-3.8h2.5c2.8,0,5.5,1.4,6.9,3.8l4.9,7.9c0.8,1.2,0.4,2.8-0.9,3.6s-2.9,0.3-3.7-0.9l-2.4-3.9V393
	c0,1.4-1.2,2.6-2.7,2.6c-1.5,0-2.7-1.2-2.7-2.6v-10.4H428.2z"/>
</svg>
