<?xml version="1.0" encoding="UTF-8"?>
<svg id="Layer_2" data-name="Layer 2" xmlns="http://www.w3.org/2000/svg" viewBox="0 0 200.53 83.31">
  <defs>
    <style>
      .cls-1 {
        stroke-miterlimit: 10;
      }

      .cls-1, .cls-2, .cls-3, .cls-4, .cls-5, .cls-6, .cls-7, .cls-8, .cls-9 {
        stroke: #fff;
      }

      .cls-2 {
        stroke-miterlimit: 10;
        stroke-width: 1px;
      }

      .cls-3 {
        stroke-miterlimit: 10;
        stroke-width: 1px;
      }

      .cls-4 {
        stroke-miterlimit: 10;
        stroke-width: 1px;
      }

      .cls-5 {
        stroke-miterlimit: 10;
        stroke-width: 1px;
      }

      .cls-6 {
        stroke-miterlimit: 10;
        stroke-width: 1px;
      }

      .cls-7 {
        stroke-miterlimit: 10;
        stroke-width: 1px;
      }

      .cls-8 {
        stroke-miterlimit: 10;
        stroke-width: 1px;
      }

      .cls-9 {
        stroke-miterlimit: 10;
        stroke-width: 1px;
      }
    </style>
  </defs>
  <g id="Layer_1-2" data-name="Layer 1">
    <g id="Layer_1-3" data-name="Layer 1">
      <path class="cls-1" d="m119.3,74.09c.34.55.68,1.02,1.09,1.57q.07.07.14.14c0,.14.07.27.07.34.07.07.14.2.2.27,0,.14-.07.34,0,.48.2.75.2,1.57-.07,2.32q-.07.07-.14.14c0,.14,0,.27-.07.34-.07.14-.2.34-.27.48-1.16,2.12-3.28,2.94-5.6,2.53-1.98-.34-3.69-2.19-3.96-4.17-.14-1.16,0-2.25.61-3.28.07-.07.07-.14.14-.14.34-.41.61-.82.96-1.23l.07-.07q0-.07-.07-.14h-19.88c-.14,0-.34,0-.61.07.27.41.48.82.75,1.09,1.02,1.23,1.16,2.66.75,4.17q-.07.07-.14.14c0,.14-.07.27-.07.34q-.07.07-.14.14c-.41.82-.75,1.64-1.57,2.12q-.07.07-.14.14c-1.57,1.3-4.85,1.37-6.63-.68-.96-1.09-1.5-2.25-1.43-3.69.07-1.43.61-2.66,1.64-3.62-.55-.2-2.66-.27-4.17-.14-.2,1.37.07,2.87-.14,4.3-.34,0-.61.07-.96.07h-6.15c-.34,0-.68.07-1.02.07-.2.07-.34.2-.27.48-.34,1.71-1.5,2.8-3.01,3.42-3.07,1.16-6.01-.75-6.76-3.35-.07-.14-.14-.27-.2-.41q-.07-.07-.14-.14h-3.21c-.07-1.23-.07-2.32-.14-3.42v-.41.07c-.07.14-.2.2-.27.34-.2.2-.34.41-.55.68-.34-.68-.75-1.16-.82-1.84.2-.14.41-.27.68-.34.2.07.41.14.55.2.14,0,.34,0,.48-.07-.07-.14-.2-.2-.27-.34v-.2c.07-.27.2-.61.2-.89,0-.82.2-1.57.82-2.19,1.57-1.57,3.07-3.21,4.51-4.85.96-1.09,1.64-2.46,2.25-3.76v-.2c-.61-.2-26.79-.27-28.22-.07-.07.2-.14.48-.2.75-.07.07-.07.14-.14.14,0,.14,0,.2-.07.34-.07.07-.07.14-.14.14-.14.27-.27.48-.34.75-.34.75-1.02,1.23-1.71,1.64-.07.07-.14.14-.14.14-.07,0-.14,0-.2.07-.07.07-.14.07-.14.14-.82.27-1.64.48-2.46.41-2.25-.2-3.69-1.43-4.44-3.55-.14-.34-.2-.68-.34-1.16h-15.1c-.07-.07-.14-.07-.14-.14.07-1.16.14-2.25.2-3.42.2-2.25.41-4.44.61-6.7.2-2.25.41-4.44.61-6.7.2-2.12.41-4.3.55-6.42.14-1.37.27-2.73.41-4.24h14.14c.07,0,.14-.07.27-.07-.07-.07-.07-.14-.14-.14-.27-.75-.61-1.43-.89-2.25h-3.35c-.07-.27-.14-.48-.14-.61v-6.29c0-.27.14-.61.27-.82,1.16-1.37,2.32-2.8,3.62-4.03,1.23-1.16,2.19-2.39,2.94-3.83.14-.27.2-.55.34-.75q.07-.07.14-.14c.75-1.3,1.23-2.6,1.5-4.03.14-.68.41-1.3.89-1.84,1.43-1.84,3.35-3.14,5.4-4.24,2.94-1.5,6.01-2.39,9.22-2.87,3.01-.48,6.01-.68,9.09-.68h96c0,.41.07.68.07,1.02,0,3.76,0,7.58.07,11.34,0,2.8.07,5.6.07,8.47,0,.2.07.41.07.61h1.3c0-.48-.07-.96-.07-1.43.75-.07,1.43-.2,2.25-.27.2.34.55.82.82,1.3.07.07.07.27.07.34-.48.68-.2,1.43-.2,2.19-.07.68,0,1.37,0,2.19-1.37,0-2.66.07-3.96.07q-.07.07-.14.14c0,1.37-.07,2.73-.07,4.1q-.07.07-.14.14h-5.88c-.14.34-.2.55-.27.82-.61,2.12-1.98,3.48-4.17,3.83-2.25.34-4.1-.48-5.33-2.46-.07-.14-.2-.27-.27-.41-.07-.07-.07-.14-.14-.2-.07.07-.07.14-.14.2-.61,1.02-1.3,1.91-2.46,2.46-2.8,1.37-6.22.07-7.17-3.01-.14-.34-.2-.68-.27-.96-.61-.2-42.77-.2-44-.07-.27.75-.55,1.57-.89,2.46h20.91c.14.14.2.2.34.34,0,2.46,0,4.85.07,7.31,0,2.32.07,4.71.14,7.04.07.07.14.07.14.14h1.91c.07-.07.14-.14.2-.14.41-.96,1.23-1.3,2.12-1.78.34.68.61,1.23.89,1.84h.27c.27,0,.48.07.75.07.07,0,.2,0,.27-.07-.07-.07-.2-.2-.27-.27-.27-.48-.55-1.02-.82-1.5-.07-.14,0-.34.07-.48.07-.07.34-.2.41-.14.75.75,1.71.61,2.66.61.14,0,.34.07.55.14-.07.48-.14,1.02-.2,1.5v.2h.82q-.07-.07-.14-.14v-.55c.27-.07.55-.07.82-.14-.14-.34-.34-.61-.27-.75.2-.48.55-.89.75-1.3.68.34,1.09.75,1.5,1.43-.2.41-.41.82-.68,1.43,1.43,0,2.73.07,3.96,0,.27-.14.14-.2,0-.34.07-.14.07-.34.14-.48.14-.27.34-.61.61-.96.07,0,.27.07.48.07.14.14.27.27.41.41.07.41.2.89.34,1.3,0,.07.2,0,.34.07h3.28c.07-.07.14-.14.2-.14-.14-.27-.34-.55-.55-.82.27-.55.61-1.09.96-1.78.82.55,1.37,1.23,1.78,2.05-.34.48-1.16.41-1.16,1.16v.48h.14c0-.2.07-.34.07-.55.41.07.82.14,1.23.27.34.07.27.41.27.61s0,.41-.07.61c-.27.27-.48.61-.75.89q-.07.07-.14.14c-.75.61-.75,1.43-.75,2.25.07,5.06.07,10.04.07,15.1,0,.34.07.75.07,1.09.07.07.14.14.27.14h1.02v-1.43c.75-.14,1.43-.2,2.19-.34.2.34.48.75.75,1.16.07.14.14.27.07.41-.34,1.09-.07,2.25-.14,3.42v1.02h-11.27c-.34,0-.68,0-1.02.07-.14-.14-.14-.07-.14,0Zm-3.07-26.58h-.41c0,.07.07.14.07.27.14-.14.2-.2.34-.27h0Zm-41.89,10.39h.82c0,.2.07.41.07.61v8.13c0,.2-.07.41-.07.68h-5.74c-.96,0-1.91.07-2.94-.07.48-1.37.96-2.6,1.37-3.83-.55.55-.96,1.09-1.3,1.71-.55.82-1.02,1.71-1.84,2.32-.34.27-.61.75-.96,1.09-.34.41-.68.75-1.02,1.09-.2.27-.48.48-.75.68-.75.82-1.43,1.64-.96,2.87.07.14-.07.27-.07.41-.07.82-.07,1.64,0,2.46h1.37c.82-2.25,2.39-3.62,4.78-3.69,2.66-.14,4.17,1.5,5.33,3.69h5.94c.2-.82.2-17.63,0-18.45-1.02.07-2.05.14-3.07.2h-.89c-.14,0-.2-.07-.34-.07s-.27.07-.41.14c0,0,0,.27.07.27.14.07.27.07.48.07,0-.07.07-.21.14-.34Zm-53.3-17.63c-.07.07-.14.14-.14.27v17.9c.07.07.14.14.14.2h5.47s.07,0,.14-.07v-18.38c-1.91,0-3.76-.07-5.6.07Zm79.4-1.98c0,.34.07.68.07,1.02v7.65c0,.34,0,.68.07.96h1.78v-12.71H17.55c-.27,0-.55.07-.82.14-.68,7.79-1.37,15.58-2.05,23.37,1.43,0,2.73.07,4.1-.07v-19.54c0-.34.07-.68.14-.96h80.36c.34,0,.75,0,1.09.07,0-.07.07,0,.07.07ZM33.54,15.74c-.61,1.23-1.3,2.39-2.25,3.42-1.37,1.43-2.66,2.87-4.03,4.3-.34.34-.48.68-.41,1.16v3.14c0,.2.07.41.07.61q1.23.27,1.64-.75c.96-1.98,2.53-3.01,4.65-3.01s3.76,1.02,4.71,3.01c.14.27.2.48.34.75,1.5.2,17.7.14,18.31-.07,0-.2.07-.41.07-.68-.07-8.06-.14-16.13-.14-24.12,0-.27-.07-.55-.07-.89h-.96c-1.5.14-2.94.2-4.44.34-2.8.27-5.47.89-8.13,1.91-2.39.89-4.58,2.12-6.35,4.03-.55.55-1.02,1.16-1.09,1.98-.2.55-.41,1.09-.61,1.64-.41,1.02-.89,2.12-1.3,3.21Zm104.68,12.5c1.43-3.76,6.15-4.03,8.27-1.78.41.48.75.96,1.09,1.5.2.27.34.48.75.48.2,0,.41.07.61.07,1.02,0,2.12.14,3.07-.14.2-1.02.07-25.08-.14-25.69-.07,0-.2-.07-.34-.07H59.17c-.14,0-.2,0-.34.07,0,0-.07,0-.07.07l-.14.14v1.37c.07,5.47.07,10.86.14,16.33v6.49c0,.48.07.96.07,1.43.2,0,.34.07.48.07,1.37,0,2.8-.07,4.17-.07.55,0,.82-.2,1.09-.68.96-1.71,2.39-2.66,4.44-2.73,2.05,0,3.55.89,4.58,2.6.14.2.2.34.41.55.14-.2.2-.34.27-.48,1.02-1.71,2.46-2.66,4.51-2.73,2.05,0,3.55.89,4.51,2.66.34.55.68.68,1.3.68h42.84c.61,0,1.02-.14,1.3-.75,1.02-1.91,3.21-2.94,5.33-2.6,1.91.34,3.21,1.43,3.96,3.14q.14.07.2.07Zm-56.85,43.32h43.87v-1.02c-.07-4.78-.07-9.63-.14-14.42v-4.85c0-.27-.07-.61-.07-.89-.14-.07-.27-.07-.34-.07h-42.71c-.2,0-.41.07-.61.07,0,0-.07,0-.07.07,0,0-.07.07-.14.14.14,6.83.2,13.87.2,20.98Zm-52.61-22.21c.07,2.53-.14,4.99.14,7.58.41-.27.61-.55.89-.68.55-.27,1.02-.55,1.64-.75,1.09-.41,2.19-.2,3.21.14,1.16.34,2.05,1.02,2.53,2.12.34.68.68.96,1.5.96h28.63c.2-.82.34-1.57.55-2.39,3.76-.34,7.52-.68,11.34-1.02,0-2.05.07-3.96-.07-5.88-16.88-.07-33.55-.07-50.36-.07Zm8.61-16.33c1.02.2,26.79.14,27.4-.07-.27-.75-.55-1.5-.82-2.32-.96-.14-24.94-.14-25.56,0-.34.82-.68,1.57-1.02,2.39Zm14.49,10.25h-10.11v3.76c.96.2,9.43.14,10.11-.07v-3.69Zm2.25,3.83c1.37.2,9.09.14,9.77-.07.07-1.23,0-2.46,0-3.62-1.23-.2-9.22-.14-9.77.07v3.62Zm23.37,0c1.3.2,8.75.14,9.43-.07,0-1.23.07-2.46,0-3.69h-9.43c0,1.23-.07,2.46,0,3.76Zm-2.19-3.83h-9.22v3.83h9.22v-3.83Zm23.03,3.83v-3.83c-1.43-.14-8.54-.14-9.22.07v3.69c3.14.07,6.15.07,9.22.07Zm-58.76,0v-3.83h-8.95v3.83h8.95Zm27.74,33.28c1.5.07,2.94-1.16,3.01-2.94.07-1.5-1.16-3.01-3.07-3.07-1.37,0-2.87,1.37-2.94,2.6,0,.96,0,1.84.75,2.53.61.55,1.37.89,2.25.89Zm-37.51-20.02c0,1.91,1.37,3.07,3.07,3.07,1.64-.07,2.94-1.37,2.87-3.07,0-1.64-1.37-2.94-3.01-2.94-1.5-.07-3.07,1.5-2.94,2.94Zm85.75,20.43c1.37.14,3.07-.89,3.21-3.01.07-1.57-1.37-3.01-2.94-3.01-1.71,0-2.94,1.3-3.01,2.94-.14,1.71,1.3,3.14,2.73,3.07ZM36.28,29.75c0-1.64-1.37-3.01-2.94-3.01s-3.01,1.37-3.01,2.94c0,1.71,1.37,3.07,3.07,3.07,1.5,0,2.87-1.43,2.87-3.01Zm96.96,3.42c1.64,0,3.01-1.3,3.07-2.94.07-1.57-1.3-3.01-2.94-3.07-1.71,0-3.07,1.3-3.14,2.94,0,1.64,1.37,3.01,3.01,3.07Zm-44.96,47.63c1.64,0,3.07-1.3,3.07-2.94,0-1.91-1.43-3.01-3.01-3.07-1.3-.07-3.01,1.16-3.01,2.94,0,1.37,1.5,3.35,2.94,3.07Zm-12.44-50.7c0,1.71,1.3,3.01,2.94,3.01s3.01-1.3,3.07-2.94c0-1.64-1.3-3.07-3.01-3.07-1.64.07-2.94,1.37-3.01,3.01Zm-3.69.07c0-1.64-1.3-3.01-2.94-3.01s-3.01,1.3-3.01,3.01,1.37,2.94,3.01,2.94c1.57,0,2.94-1.3,2.94-2.94Zm73.8,0c0-1.71-1.3-2.94-2.94-2.94s-3.01,1.3-3.01,2.94,1.37,3.07,3.07,3.01c1.57-.07,2.87-1.37,2.87-3.01Zm-72.98,29.86h-1.23c-.34,0-.55.14-.61.48-.48,1.3-.96,2.6-1.43,3.89-.07.2-.07.48-.14.75,1.23.07,2.25.07,3.42,0v-5.12Zm-18.86-19c.61.07,1.16.07,1.71.07,2.39,0,4.78-.07,7.17-.07h.41c.27,0,.48-.2.41-.41-.07-.14-.2-.34-.34-.41-.2-.07-.41,0-.61,0h-7.86c-.27,0-.55,0-.89.07,0,.21,0,.48,0,.75Zm-12.23-.75c-.14.75-.14.82.48.82h9.09c.27,0,.48-.2.41-.48-.07-.14-.2-.34-.34-.41s-.34,0-.48,0h-8.34c-.34,0-.61,0-.82.07Zm33.35,0h-9.16c-.14.75-.14.82.48.82h8.2q.61-.07.48-.82Zm2.46,0q-.14.75.34.82c.61.07,1.23,0,1.84,0h5.94c.2,0,.48,0,.68-.07.14-.07.27-.27.27-.41s-.14-.27-.27-.34c-.2-.07-.41-.07-.61-.07h-7.58c-.14,0-.41,0-.61.07Zm20.5,0h-9.02c-.07.75-.07.82.55.82h7.99q.55-.07.48-.82Zm-67.51.82h8.2c.75,0,.75-.07.61-.82h-8.88c.07.27.07.48.07.82Zm43.94-7.99c-.2-.41-.34-.75-.61-1.23-.2.48-.34.82-.55,1.23h1.16Zm-5.4,26.24c.07.07.14.07.2.14.14-.34.2-.61.34-.96-.07,0-.14-.07-.2-.07-.14.27-.27.55-.34.89Zm-.55,2.05q-.07,0-.14-.07c-.07.14-.07.27-.14.34q.07,0,.14.07c.07-.14.07-.27.14-.34Zm-.41,1.02c0-.07.07-.07.07-.14-.07-.07-.14-.07-.14-.14,0,.07-.07.07-.07.14,0,.14.07.14.14.14Zm58.97-11.14c.07,0,.07.07.14.07l.07-.07c-.07,0-.14-.07-.2,0q0-.07,0,0Z"/>
      <path class="cls-1" d="m42.08,75.25c-.61-.14-1.09-.27-1.3-.96,0-.14-.2-.2-.27-.27-.07-.07-.14-.07-.27-.14,0,.14,0,.2.07.34.07.41.14.82.27,1.43.2.07.55.27.89.41,0,.89-.07.96-.96.89-.14-.27-.2-.55-.34-.82h-.07.07c0,.27,0,.55.07.89,0,.41-.07.82-.07,1.16v1.09c-.68.2-1.3.07-1.91.14-.41,0-.82,0-1.23.27-.2.14-.55.2-.82.2h-2.19c-.55,0-.96.14-1.23.68-.55,1.09-1.5,1.64-2.73,1.64s-2.19-.55-2.73-1.71c-.27-.48-.55-.55-1.02-.55h-14.69c-.55,0-.89.14-1.16.61-1.23,1.91-3.83,1.91-5.12,0-.14-.2-.27-.34-.41-.61H.68c-.14-.61-.14-1.16,0-1.64.75-3.35,2.8-5.53,5.88-6.76,1.09-.41,2.25-.68,3.35-.89.68-.14,1.23-.34,1.71-.82.27-.34.68-.55.96-.89,1.43-1.71,3.35-2.46,5.47-3.01,3.62-.89,7.17-.89,10.73.61,1.98.82,3.69,2.19,5.19,3.69,1.57,1.57,3.01,3.21,3.89,5.33.2.48.48.55.89.27.2-.14.34-.27.55-.41.2.07.41.2.61-.14-.2-.14-.41-.27-.61-.41-.2-.2-.34-.41-.55-.61.41-.75.96-1.02,1.71-.89.07-.07.07-.14.14-.2s.2-.14.27-.14c.41.34.75.14,1.3,0-.55-.34-.96-.61-1.43-.89.2-.34.41-.68.75-1.16.55.55.96,1.02,1.37,1.5,0,.2-.07.41-.07.61.2,0,.55-.07.68,0,.48.41.82.89,1.23,1.37-.14.07-.27.2-.34.27,0,0-.07,0-.07.07,0,0,.07,0,.07.07-.14.48-.27.96-.41,1.43-.61-.2-1.02-.48-1.37-.96.14-.2.27-.41.48-.75-.96-.14-.89.27-.96.62Zm-15.17,2.87c.07-.27.14.07.27-.2.48-1.16,1.3-1.84,2.6-1.98,1.16-.14,2.12.34,2.87,1.23.14.2.34.48.55.48.89.07,1.78,0,2.66,0,.27-.82,0-1.43-.34-1.98-.96-1.78-2.25-3.21-3.69-4.51h-.14c-.61,1.23-.96,1.43-2.39,1.43h-4.92c-.27,0-.61,0-.96.07v5.47c1.09,0,2.25,0,3.48,0Zm-23.85-.41c.27,0,.41.07.55.07.82.07,1.43-.07,1.91-.82.61-.96,1.64-1.3,2.8-1.09,1.23.14,2.05.89,2.53,2.05.14.34.2,0,.34.34h1.16c.2-1.09.07-5.4-.07-5.88-.48.14-.96.27-1.5.34-.48.07-.89.14-1.37.2-2.05.41-3.83,1.23-5.19,2.87-.48.48-.96,1.02-1.16,1.91Zm11.48-4.37c-.07,1.5-.14,2.94,0,4.3,1.23.2,5.94.14,6.56-.07v-4.24h-6.56Zm.82-2.87c1.98,0,3.89.14,5.74-.14v-2.12c-1.57-.14-4.71,1.02-5.74,2.25Zm13.12-.14c-1.23-1.3-2.66-1.91-4.37-2.12v2.19c1.43,0,2.87.2,4.37-.07Zm-20.64,9.43c.55,0,1.02-.41,1.02-.96,0-.48-.48-.96-.96-.96s-.96.41-.96.89c-.07.55.34,1.02.89,1.02Zm22.28.2c.48,0,.96-.41.89-.96,0-.55-.48-.96-1.02-.96s-.96.55-.96,1.02c.14.55.55.89,1.09.89Zm12.78-5.67c.07-.07.14-.14.2-.2-.14-.07-.2-.07-.34-.14h-.34v.14c.2,0,.34.14.48.2Zm.75.27c0-.07-.07-.07-.07-.14-.07,0-.07.07-.14.07,0,0,0,.07.07.07.07,0,.14,0,.14,0Z"/>
      <path class="cls-1" d="m54.86,72.79c-.14.07-.27.14-.48.27.14.2.2.41.34.61-.41.55-.82,1.09-1.23,1.64-.07.07-.07.2-.14.27.14,0,.2,0,.34-.07.34-.07.61-.48,1.23-.2-.34.2-.55.34-.75.41-.61.14-1.02.55-1.3,1.09-.14.27-.34.55-.61.96-.34-.68-.89-1.23-.82-1.98.14-.14.27-.2.34-.34h-.41c-.14-.07-.48-.07-.48-.14-.14-.55-.27-1.16-.41-1.64.89-.48,1.5.2,2.25.41.07-.82-.2-1.43-.55-2.05.48-.34.89-.68,1.3-1.02.07-.07.2-.14.2-.14.61.41,1.16-.14,1.84.07.07.61.2,1.23.27,1.98h-.75c0-.07-.07-.14-.07-.14-.14-.27-.34-.55-.55-.89-.34.14-.61.27-.89.41v.2c.2.07.34.07.55.14.34,0,.55.07.75.14Z"/>
      <path class="cls-1" d="m48.44,71.29c-.14.07-.27.14-.41.14-.41,0-.61-.27-.41-.68.07-.2.2-.34.27-.55.2-.27.34-.55.55-.89.55.27,1.02.48,1.64.75.14.27.27.68.41,1.09q.2.61-.41.96c0-.07,0-.14-.07-.2h-.07c0,.07.07.14.07.2-.27.2-.48.48-.75.68.34.48.61.82.89,1.23-.27.2-.55.41-.75.55.14.75.75.07.96.27-.07.34-.07.68-.07.96,0,.14-.07.34-.2.48-.34.41-.61.75-1.02,1.23-.41-.75-.41-1.5-.61-2.12.2-.07.41-.2.61-.27-.27-.41-.48-.2-.68-.07-.14-.07-.2-.14-.34-.2v-.34c.2-.27.34-.55.55-.89.27-.48.48-.89,0-1.37-.27-.27-.14-.55.14-.82.14-.14.41-.2.14-.48-.07.07-.27.27-.41.34Z"/>
      <path class="cls-1" d="m43.04,72.45v-1.91c1.43-.14,2.05.14,3.07,1.16-.07.14-.2.34-.27.48h-.07l.07.07c.34.41.82.55,1.37.48.14.55.34,1.02.48,1.57,0,.14-.07.34-.07.48-.27.14-.48.2-.75.34s-.48.34-.82.61c-.27-.34-.48-.68-.68-.96.2-.34.34-.55.48-.82q-.07-.07-.14-.14c-.34.14-.61.34-.96.48.07-.68-.34-1.09-.75-1.43-.07-.34.41-.55.14-.96-.34.2-.48,1.09-1.09.55Zm2.32-.34c0-.07-.07-.07-.07-.14h-.07q.07.07.14.14Z"/>
      <path class="cls-1" d="m142.26,60.02c-.07.41-.07.75-.14,1.23.55.41,1.3.55,1.78,1.3-.41.48-.82,1.02-1.23,1.5-.48-.27-.89-.48-1.3-.75.07-.89.2-1.91-.96-2.32v-1.43c.2-.07.48-.14.82-.2-.14-.2-.27-.41-.41-.61.2-.34.48-.75.75-1.23.68.2,1.23.68,1.78,1.16-.27.41-.55.75-.82,1.16h-.2c-.07.14-.07.2-.07.2Z"/>
      <path class="cls-1" d="m121.21,45.12c-.55.55-.96,1.02-1.43,1.57-.48-.2-.89-.48-1.37-.68,0-.41.14-.96-.07-1.37-.14-.41-.61-.75-.89-1.02,0-.48.07-.89.07-1.37.27-.07.48-.07.75-.14.07-.07.07-.14.14-.2-.2-.07-.48-.2-.68-.27.34-.55.61-.96.96-1.43.61.41,1.09.75,1.71,1.16-.2.41-.41.68-.61,1.02h-.96c.82.48.55,1.02.48,1.5.61.41,1.23.75,1.91,1.23Z"/>
      <path class="cls-1" d="m168.97,12.46c.41.41-.07.82.07,1.23.55.41,1.37.55,1.71,1.37-.41.41-.82.89-1.23,1.37-.48-.27-.89-.48-1.37-.75,0-.48.14-.96-.07-1.37-.14-.41-.61-.68-.89-1.02,0-.48.07-.89.07-1.37.2-.07.48-.07.89-.14l-.61-.61c.27-.41.55-.82.89-1.37.61.41,1.09.75,1.64,1.16-.2.55-.27,1.02-.89,1.16-.14,0-.34-.07-.48-.07.07.14.2.27.27.41Z"/>
      <path class="cls-1" d="m159.27,65.62c-.55.55-.61,1.43-1.5,1.71-.07,0-.14.2-.2.34-.34.55-.68,1.09-1.02,1.71-.55-.55-.82-1.16-.96-1.78-.07-.41.27-.82.34-1.23.41-.2.68.48,1.02-.07-.07-.14-.14-.34-.2-.55.2-.68,1.64-.82,2.53-.14Zm-1.84,1.5s.07,0,0,0c0-.07,0-.14-.07-.14,0,0,0,.07-.07.07.07.07.14.07.14.07Z"/>
      <path class="cls-1" d="m184.48,19.84c-.34.61-.68,1.23-1.02,1.98-.61-.61-.75-1.3-1.09-1.84.2-.48.34-.89.48-1.23.34.07.61.07.82.14v-.82c.89-.68,1.5-.75,2.39-.07-.41.61-.68,1.37-1.43,1.78-.07-.2-.2-.41-.55-.2.2.07.34.14.41.27Z"/>
      <path class="cls-1" d="m164.05,17.58v-.55c.27-.07.55-.07.89-.14-.82-.96.14-1.37.48-2.05.68.34,1.09.89,1.64,1.43-.2.34-.41.68-.68,1.02-.27-.07-.55-.07-.82-.14,0,.07-.07.14-.07.2.61.68.61.89-.14,2.12-.41-.27-.82-.55-1.16-.82-.14-.14-.07-.41-.14-.61.14-.2.21-.34,0-.48Z"/>
      <path class="cls-1" d="m140.14,63.91c-.27.41-.48.68-.75,1.02-.27,0-.61-.07-.89-.07,0,.07-.07.07-.07.14.2.14.41.34.61.55-.2.55-.41,1.09-.61,1.71-.55-.41-.96-.75-1.37-1.02-.14-.41.41-.68,0-1.09-.14-.14,0-.41.34-.48h.55c-.14-.27-.27-.48-.41-.75.27-.41.61-.89,1.02-1.43.55.48,1.02.96,1.57,1.43Z"/>
      <path class="cls-1" d="m145.13,64.59c.14.34.14.61-.2.82-.27.14-.48.41-.82.61-.34-.41-.61-.82-.89-1.16.2-.41.82-.55.55-1.16,0-.07.2-.27.34-.27s.34.07.48.14c.2-1.02,1.02-1.02,1.84-1.23.14.68.27,1.3.41,1.98-.48.14-.89.75-1.43.27-.07-.2-.14-.48-.55-.48.14.2.2.34.27.48Z"/>
      <path class="cls-1" d="m173.83,16.69c-.61.2-1.02.34-1.43.48-.48.41-.89.82-1.37,1.23-.34-.48-.61-.89-.89-1.23.2-.41.68-.61.55-1.16,0-.07.14-.27.2-.2.55.14.68-.41,1.02-.61.34-.27.89-.34,1.43-.61.21.75.34,1.37.48,2.12Zm-1.78.27c.07-.07.14-.07.2-.14-.07-.14-.2-.27-.27-.41-.07.07-.2.14-.2.14.14.14.2.27.27.41Z"/>
      <path class="cls-1" d="m163.03,17.92c-.07,0-.2.07-.34.07-.41.07-.96.34-1.16.14-.55-.34-1.09-.82-1.23-1.57-.07-.2-.27-.41-.34-.61s-.07-.41,0-.61c.14-.2.34-.2.61-.07.55.48,1.23.55,1.91.55.34,0,.68.07,1.09.07-.07.82-.14,1.02-.55,2.05Z"/>
      <path class="cls-1" d="m134.67,50.45c-.34.48-.68,1.02-1.09,1.57-.34-.68-.68-1.3-.89-1.78.14-.34.2-.61.27-.89.07-.34.2-.55.55-.27,0,0,.07.07.14.07q.55-.07.34-.82c.68-.61,1.5-.68,2.39-.14-.34.68-.75,1.3-1.43,1.78-.14-.27-.27-.48-.61-.27.14.27.27.48.34.75Z"/>
      <path class="cls-1" d="m136.72,63.71c-.14.61-.34,1.16-.48,1.78-.48.14-.89.27-1.37.41-.55-.48-1.3-.89-1.5-1.84-.07-.2-.27-.27-.34-.48-.07-.14-.14-.41-.07-.48.07-.14.41-.2.48-.2.89.75,1.91.61,2.94.61h.14c0,.07.07.14.2.21Z"/>
      <path class="cls-1" d="m127.16,40.54c.2,0,.41.07.61.07.07-.89.75-1.02,1.5-1.37.27.61.55,1.23.82,1.91-.55.34-.96.75-1.64.48-.07.68-.61,1.02-1.23,1.43-.27-.41-.61-.75-.82-1.09.2-.48.48-.96.75-1.43Z"/>
      <path class="cls-1" d="m149.7,57.76c.2.07.48.14.75.27.07-.89.89-.96,1.57-1.3.27.68.48,1.23.75,1.91-.41.34-.82.68-1.37.48-.07-.27-.2-.48-.55-.55-.14.41.07.55.27.75-.14.61-.75.68-1.16,1.16-.34-.48-.61-.82-.96-1.23.55-.41.75-.96.68-1.5h0Z"/>
      <path class="cls-1" d="m176.97,12.8c-.34-.48-.61-.82-.89-1.16.14-.48.75-.61.55-1.16,0,0,.27-.2.41-.2s.27.07.41.14c.07-.96.82-1.02,1.57-1.3.27.61.48,1.23.75,1.91-.41.2-.75.41-1.09.55-.27-.27-.48-.48-.68-.75-.41.48.2.68.07,1.23-.34.14-.68.41-1.09.75Z"/>
      <path class="cls-1" d="m181.75,18.88c-.48-.14-.89-.34-1.43-.48-.14-.61-.27-1.23-.41-1.91,1.3-.34,2.25,0,3.21.89-.34.68-.89,1.09-1.37,1.5Z"/>
      <path class="cls-1" d="m156.26,65.21c-.48.41-.96.89-1.5,1.37-.07-.07-.2-.14-.34-.2-1.37-.2-1.16-1.3-1.3-2.19,1.16-.34,2.32,0,3.14,1.02Z"/>
      <path class="cls-1" d="m130.64,48.67c-.07-.61-.2-1.23-.34-1.91,1.3-.27,2.25.14,3.21.89-.48.55-.96,1.02-1.37,1.5-.55-.14-.96-.27-1.5-.48Z"/>
      <path class="cls-1" d="m158.11,18.74c-.55-.41-1.02-.75-1.57-1.23.41-.96,1.3-1.3,2.19-1.78.27.68.55,1.23.82,1.78-.55.48-.96.82-1.43,1.23Z"/>
      <path class="cls-1" d="m178.13,17.1c-.68.34-1.23.61-1.84.96-.34-.41-.68-.82-1.09-1.3.34-.55.68-1.16,1.02-1.78.96.48,1.43,1.23,1.91,2.12Z"/>
      <path class="cls-1" d="m129.62,65.14c.55-.89,1.23-1.37,2.19-1.71.27.61.55,1.16.82,1.78-.48.41-.96.75-1.5,1.16-.48-.34-.96-.75-1.5-1.23Z"/>
      <path class="cls-1" d="m150.05,65.41c-.2.07-.41.14-.68.2-.34-.34-.61-.68-1.02-1.16.34-.55.68-1.16,1.09-1.78.89.55,1.43,1.23,1.78,2.12-.34.2-.55.34-.75.55-.2-.07-.34,0-.41.07Z"/>
      <path class="cls-1" d="m149.7,57.76c-.41-.2-.61.2-.82.41q-.48.34-.89-.07c-.2-.27-.48-.55-.82-.89.27-.48.61-1.02,1.02-1.64.75.34,1.23.82,1.71,1.37-.14.21-.2.55-.2.82h0Z"/>
      <path class="cls-1" d="m182.98,10.75c-.55-.07-1.02-.14-1.64-.27,0-.68-.07-1.3-.07-1.98.75-.2,1.37-.07,1.98.14.34.14.55.34.34.68-.2.48-.41.96-.61,1.43Z"/>
      <path class="cls-1" d="m134.06,39.24c-.27.61-.55,1.16-.75,1.78-.55-.07-1.02-.14-1.64-.2-.07-.68-.07-1.3-.14-2.05.96-.21,1.71-.07,2.53.48Z"/>
      <path class="cls-1" d="m116.56,42.93c-.48-.14-.89-.2-1.37-.27-.27-.68-.2-1.3-.14-2.05.89-.27,1.57.14,2.39.41-.14.82-.48,1.3-.89,1.91Z"/>
      <path class="cls-1" d="m166.31,12.73c-.55-.14-.96-.2-1.5-.34,0-.68-.07-1.3-.07-1.98.89-.34,1.57.07,2.39.34,0,.82-.48,1.3-.82,1.98Z"/>
      <path class="cls-1" d="m160.91,59.61c.75-.55,1.43-.82,2.32-.82.07.68.14,1.37.27,1.98-.55.2-1.02.34-1.57.55-.34-.55-.68-1.09-1.02-1.71Z"/>
      <path class="cls-1" d="m136.59,60.49c-.41.48-.68.89-1.02,1.37-.61-.34-1.16-.61-1.84-1.02.48-.68.89-1.3,1.3-1.91.82.41,1.09,1.02,1.57,1.57Z"/>
      <path class="cls-1" d="m156.88,56.6c-.07.2-.14.34-.2.55q-.61,1.37-2.12.96c-.07-.61-.14-1.23-.2-1.84.96-.27,1.71-.21,2.53.34Z"/>
      <path class="cls-1" d="m190.29,11.09c.07.75.07,1.37.07,2.05-.55.2-1.02.41-1.57.61-.34-.61-.61-1.16-.96-1.78.75-.55,1.5-.75,2.46-.89Z"/>
      <path class="cls-1" d="m158.72,60.84c-.2.07-.41.07-.68.14-.27-.55-.55-1.02-.82-1.64.55-.41,1.02-.75,1.64-1.23.55.61.89,1.3,1.16,2.05-.27.14-.48.27-.75.41-.2.14-.34.21-.55.27Z"/>
      <path class="cls-1" d="m112.53,41.57c.48.55.89,1.02,1.37,1.57-.34.48-.68.89-1.09,1.37-.61-.34-1.16-.61-1.71-.96.2-.75.68-1.37,1.43-1.98Z"/>
      <path class="cls-1" d="m166.79,61.79c-.2.14-.48.2-.68.34-.34-.34-.75-.68-1.16-1.16.34-.55.68-1.09,1.02-1.71.82.34,1.3.96,1.84,1.71-.27.2-.55.34-.75.55-.14.2-.21.27-.27.27Z"/>
      <path class="cls-1" d="m175.33,10.82c-.48-.41-.89-.82-1.37-1.23.34-.61.68-1.09,1.02-1.71.75.34,1.3.89,1.78,1.5-.41.48-.89.89-1.43,1.43Z"/>
      <path class="cls-1" d="m124.35,39.93c.34-.61.68-1.09.96-1.71.75.27,1.3.82,1.78,1.3-.2.75-.96.96-1.43,1.5-.41-.34-.82-.68-1.3-1.09Z"/>
      <path class="cls-1" d="m192.82,11.71c.82.41,1.37.96,1.84,1.71-.55.41-1.09.75-1.64,1.16-.41-.41-.75-.82-1.16-1.3.27-.41.61-.96.96-1.57Z"/>
      <path class="cls-1" d="m122.85,37.4v2.05c-.41.14-.82.34-1.23.55-.41-.55-.75-1.02-1.23-1.64.68-.61,1.43-.96,2.46-.96Z"/>
      <path class="cls-1" d="m146.56,43c1.23-.2,2.05.2,2.73,1.02-.34.55-.89.82-1.3,1.16-.27.2-.89-.07-1.02-.48-.14-.48-.27-1.02-.41-1.71Z"/>
      <path class="cls-1" d="m142.19,43.68c.27-.55.55-1.09.89-1.71.82.34,1.37.89,1.78,1.71-.55.41-1.09.82-1.64,1.23-.34-.48-.61-.82-1.02-1.23Z"/>
      <path class="cls-1" d="m184.07,11.71c.61-.41,1.09-.75,1.64-1.09.61.55.89,1.16,1.09,2.05-.61.27-1.23.48-1.84.75-.27-.61-.55-1.09-.89-1.71Z"/>
      <path class="cls-1" d="m140.34,41.36c.34.68.27,1.37.27,2.05-.41.2-.89.34-1.37.55-.55-.48-.75-1.09-1.09-1.71.68-.55,1.43-.68,2.19-.89Z"/>
      <path class="cls-1" d="m139.46,60.36c-.55-.14-.96-.27-1.43-.41v-1.98c.82-.14,1.57.14,2.39.55-.41.68-.68,1.23-.96,1.84Z"/>
      <path class="cls-1" d="m196.31,12.87c1.09-.34,1.98.07,2.8,1.09-.41.34-.82.68-1.3,1.02-.27.2-.89,0-1.02-.41-.27-.61-.34-1.16-.48-1.71Z"/>
      <path class="cls-1" d="m169.38,60.43c1.3-.27,2.12.07,2.73,1.09-.07.07-.14.2-.27.27-.41.34-.82.61-1.23.96-1.16-.41-.89-1.5-1.23-2.32Z"/>
      <path class="cls-1" d="m172.53,9.11q-1.23.61-1.98-.41c-.14-.2-.27-.34-.34-.55.61-.75,1.3-1.02,2.39-.89-.07.61-.07,1.23-.07,1.84Z"/>
      <path class="cls-1" d="m177.24,18.06c.34.14.55.55,1.02.34.27-.14.48.27.34.41-.27.34.07.55.07.75-.48.55-.96,1.16-1.57,1.84-.2-.82-.34-1.5-.55-2.19,0-.07-.07-.2,0-.27.27-.27.48-.61.68-.89Z"/>
      <path class="cls-1" d="m159.2,61.04c.2.48.68.41,1.09.34.48,1.37-.55,2.05-1.3,2.87-.41-.68-.48-1.37-.61-2.05,0-.34.2-.68.34-.96.2-.07.34-.14.48-.2Z"/>
      <path class="cls-1" d="m136.04,43.41c-.27.07-.48.14-.82.2-.27-.48-.48-.96-.75-1.5.55-.41,1.02-.82,1.57-1.23.55.61.89,1.23,1.09,1.98-.27.14-.55.34-.75.48-.14-.07-.27,0-.34.07Z"/>
      <path class="cls-1" d="m143.14,55.78c.75-.61,1.43-.96,2.46-.89.07.61.07,1.23.14,1.84-.48.21-.89.34-1.37.55-.41-.48-.75-.96-1.23-1.5Z"/>
      <path class="cls-1" d="m136.38,43.62c.2.27.48.48.89.48.14,0,.34.2.48.34-.07.07-.14.14-.14.2.14.41.07.75-.27,1.09-.41.34-.68.82-1.16,1.37-.2-.68-.34-1.3-.48-1.84-.2-.68.34-1.02.55-1.57,0-.07.07-.07.14-.07Z"/>
      <path class="cls-1" d="m185.85,16.83c-.2-.89-.41-1.64-.61-2.32.2-.34.48-.68.61-.96.41.14.82.2,1.37.34.2.61.2,1.3-.48,1.84-.27.27-.55.61-.89,1.09Z"/>
      <path class="cls-1" d="m162.48,14.23c-.61-.34-1.16-.61-1.78-.96.41-.75.75-1.37,1.5-1.84.41.48.82.96,1.3,1.5-.34.41-.68.82-1.02,1.3Z"/>
      <path class="cls-1" d="m167.13,61.93c.41.07.82.2,1.37.34.55,1.09-.14,1.84-.82,2.73-.61-.48-.75-1.23-.96-1.71.14-.48.2-.82.34-1.23,0-.07.07-.14.07-.14Z"/>
      <path class="cls-1" d="m150.25,65.76c.55.14.96.2,1.37.34.27,1.02-.07,1.84-1.43,2.73-.14-.75-.41-1.37-.48-2.05,0-.34.34-.68.55-1.02Z"/>
      <path class="cls-1" d="m145.6,44.64c.61,1.23-.07,2.05-.75,2.94-.48-.55-.75-1.09-.89-1.71-.07-.34.14-.82.34-1.23,0-.07.27-.07.34-.07.14,0,.34.14.48.14.14.07.27,0,.48-.07Z"/>
      <path class="cls-1" d="m195.42,14.51c.07.34-.07.75.2,1.09.07.07-.07.2-.14.27-.27.48-.61.96-.96,1.5-.48-.55-.75-1.16-.96-1.78-.07-.34.14-.75.27-1.16,0-.07.27-.14.34-.14.48.14.82.14,1.23.21Z"/>
      <path class="cls-1" d="m122.1,46.69c-.14-.14-.27-.27-.41-.41.07-.07.14-.07.2-.14.27-.89,1.02-1.02,1.84-1.16.14.68.27,1.3.41,1.91-.48.27-.89.55-1.37.41-.2-.27-.2-.75-.68-.61Z"/>
      <path class="cls-1" d="m160.77,20.18q-.14,1.02-1.16,1.16c-.27-.48-.61-.89-.82-1.37-.07-.14,0-.41.14-.55.07-.07.34-.14.48-.07.48.27.89.55,1.37.82Z"/>
      <path class="cls-1" d="m133.85,67.81q-.14,1.02-1.16,1.16c-.27-.41-.61-.89-.89-1.3-.07-.14,0-.41.14-.55s.41-.14.55-.07c.48.2.89.48,1.37.75Z"/>
      <path class="cls-1" d="m56.91,73.34c-.2-.07-.41-.14-.68-.27.41-.61.75-1.23,1.16-1.91.34.27.68.55.96.75-.14.55-.68.68-.55,1.16-.27.14-.61.21-.89.27Z"/>
      <path class="cls-1" d="m46.66,71.22c-.48-.68-.89-1.23-1.3-1.78.48-.48.89-.68,1.57-.55,0,.75.27,1.5-.27,2.32Z"/>
      <path class="cls-1" d="m51.24,69.51c.55.07.89.07,1.37.14.07.75-.27,1.3-.61,1.84-.2.27-.55.14-.61-.2-.07-.55-.07-1.09-.14-1.78Z"/>
      <path class="cls-1" d="m43.04,72.45c.61.61.75-.27,1.09-.48.27.34-.2.55-.14.96.41.34.89.68.75,1.43-.07.07-.2.14-.27.14-.41-.48-.82-.96-1.23-1.37-.14-.14-.41,0-.68,0,0-.2.07-.41.07-.61.2-.07.27-.07.41-.07Z"/>
      <path class="cls-1" d="m135.7,50.31c.55-.34,1.09-.61,1.64-.96.34.2.48.41.2.61-.48.27-.96.41-1.5.61-.07,0-.2-.07-.27-.07,0-.07,0-.14-.07-.2Z"/>
      <path class="cls-1" d="m148,46.14c.68-.34,1.16-.61,1.71-.82.14-.07.27.07.41.14-.07.14-.07.34-.2.41-.48.2-.89.41-1.37.61-.07-.07-.2-.2-.55-.34Z"/>
      <path class="cls-1" d="m185.44,20.18c.48-.55,1.09-.75,1.64-.96.07,0,.27.2.41.27-.82.68-1.5.89-2.05.68Z"/>
      <path class="cls-1" d="m171.09,63.91c.07-.61.2-.75,1.64-1.3.27.27.27.48-.07.68-.14.07-.27.14-.41.2-.34.07-.68.21-1.16.41Z"/>
      <path class="cls-1" d="m197.88,15.81c.48-.27.96-.55,1.5-.75.14-.07.34.07.48.14-.07.14-.14.34-.27.34-.41.2-.89.41-1.3.55-.14.07-.27-.07-.41-.14,0,0,0-.07,0-.14Z"/>
      <path class="cls-1" d="m158.66,67.94c.34-.68.96-.82,1.5-1.09.07,0,.2.07.27.14,0,.14,0,.34-.07.34-.55.34-1.09.61-1.71.61Z"/>
      <path class="cls-1" d="m54.86,72.79c-.2-.07-.41-.07-.61-.14-.2-.07-.34-.07-.55-.14v-.2c.27-.14.55-.27.89-.41.2.34.34.61.55.89h-.27Z"/>
      <path class="cls-1" d="m122.1,46.69c.48-.07.48.34.61.61v.75c-.14,0-.27,0-.34-.07-.14-.48-.2-.89-.27-1.3Z"/>
      <path class="cls-1" d="m42.08,75.25c.07-.34,0-.75.75-.61-.2.27-.34.55-.48.75-.07-.07-.2-.14-.27-.14Z"/>
      <path class="cls-1" d="m134.67,50.45c-.14-.2-.2-.48-.34-.75.34-.2.48,0,.61.27-.07.14-.14.27-.27.48Z"/>
      <path class="cls-1" d="m56.91,73.34c.27-.07.55-.14.89-.2h0c-.07,0-.07.07-.07.14-.2.14-.41.27-.68.34-.07-.07-.07-.2-.14-.27Z"/>
      <path class="cls-1" d="m151.21,59.33c-.2-.2-.41-.41-.27-.75.34,0,.41.27.55.55-.14,0-.2.07-.27.2Z"/>
      <path class="cls-1" d="m39.15,74.77c.2.14.41.27.61.41-.2.34-.41.2-.61.14v-.55Z"/>
      <path class="cls-1" d="m48.37,75.05c.2-.14.41-.27.68.07-.2.07-.41.2-.61.27-.07-.14-.07-.2-.07-.34Z"/>
      <path class="cls-1" d="m127.5,48.4c0,.2-.07.34-.07.55h-.14v-.48c0-.07.07-.07.2-.07Z"/>
      <path class="cls-1" d="m184.48,19.84l-.34-.34c.34-.2.48,0,.55.2-.07.07-.14.07-.2.14Z"/>
      <path class="cls-1" d="m159.2,61.04c-.14.07-.34.14-.48.2v-.41c.14-.07.34-.14.48-.2.07.14.07.27,0,.41Z"/>
      <path class="cls-1" d="m40.17,76c.14.27.2.55.34.82h-.27c0-.2-.07-.48-.07-.82h0Z"/>
      <path class="cls-1" d="m145.13,64.59c-.07-.14-.14-.27-.2-.48.41,0,.48.27.55.48h-.34Z"/>
      <path class="cls-1" d="m168.97,12.46c-.07-.14-.2-.27-.27-.41.14,0,.34.07.48.07-.07.14-.14.2-.21.34Z"/>
      <path class="cls-1" d="m51.45,75.46h.41c-.14.14-.27.2-.34.34-.07-.14-.07-.2-.07-.34Z"/>
      <path class="cls-1" d="m57.73,73.27c0-.07,0-.14.07-.14.14,0,.27-.07.48-.07l.07.07v.34c-.27-.07-.48-.14-.61-.2Z"/>
      <path class="cls-1" d="m72.22,78.74c-.07-.27.07-.41.27-.48-.14.2-.2.34-.27.48Z"/>
      <path class="cls-1" d="m120.19,80.31c.07-.14.2-.34.27-.48-.07.14-.14.34-.27.48Z"/>
      <path class="cls-1" d="m167.13,61.93q-.07.07-.14.14c-.07-.07-.14-.14-.2-.2.07-.07.2-.14.27-.2,0,.07.07.14.07.27Z"/>
      <path class="cls-1" d="m128.93,49.9c0-.2,0-.41.07-.61.07.21.27.41-.07.61Z"/>
      <path class="cls-1" d="m47.62,74.77c0-.14.07-.34.07-.48.14.07.2.14.34.14v.34c-.14.07-.27.07-.41,0Z"/>
      <path class="cls-1" d="m104.4,33.5c-.14-.14-.2-.2-.34-.34.27,0,.34.07.34.34Z"/>
      <path class="cls-1" d="m120.73,76.48c-.07-.07-.14-.2-.2-.27.07.07.14.2.2.27Z"/>
      <path class="cls-1" d="m136.38,43.62h-.14c-.07-.07-.14-.14-.2-.2.14-.07.2-.07.34-.14v.34Z"/>
      <path class="cls-1" d="m150.05,65.41c.14-.07.2-.14.34-.14-.07.2-.14.34-.34.14Z"/>
      <path class="cls-1" d="m110.89,47.65c.07.07.2.2.27.27-.07,0-.2,0-.27.07v-.34Z"/>
      <path class="cls-1" d="m58.42,74.84c.07-.14.2-.2.27-.34h0v.34h-.27Z"/>
      <path class="cls-1" d="m53.7,75.53c-.14,0-.2,0-.34.07.07-.07.07-.2.14-.27.07.07.14.14.2.21Z"/>
      <path class="cls-1" d="m40.31,74.23c0-.14,0-.2-.07-.34.07.07.14.07.27.14-.07,0-.14.07-.2.2Z"/>
      <path class="cls-1" d="m114.31,47.85q.07.07.14.14h-.27q.07-.07.14-.14Z"/>
      <path class="cls-1" d="m119.3,74.09v-.27.27Z"/>
      <path class="cls-1" d="m106.79,47.85c-.07.07-.14.14-.2.14.14-.07.2-.07.2-.14Z"/>
      <path class="cls-1" d="m29.03,32.89c.07.07.07.14.14.14-.07,0-.14.07-.27.07.07-.07.07-.14.14-.21Z"/>
      <path class="cls-1" d="m126.13,47.85c-.07.07-.14.14-.2.14.07-.07.14-.07.2-.14Z"/>
      <path class="cls-1" d="m50.08,72.11c0-.07-.07-.14-.07-.2h.07v.2h0Z"/>
      <path class="cls-1" d="m138.02,32.27c.07-.07.07-.14.14-.2.07.07.07.14.14.2h-.27Z"/>
      <path class="cls-1" d="m127.63,69.51c-.07-.07-.14-.14-.27-.14.14.07.2.07.27.14Z"/>
      <path class="cls-1" d="m164.05,17.58c.2.14.14.27,0,.41v-.41Z"/>
      <path class="cls-1" d="m120.46,47.65c.14.14.27.27,0,.34v-.34Z"/>
      <path class="cls-1" d="m128.04,50.93q.07-.07.14-.14c-.07,0-.14.07-.14.14Z"/>
      <path class="cls-1" d="m34.91,65.07c.07-.07.14-.07.14-.14-.07.07-.14.14-.14.14Z"/>
      <path class="cls-1" d="m35.25,64.94c.07-.07.14-.14.14-.14-.07,0-.14.07-.14.14Z"/>
      <path class="cls-1" d="m45.84,72.25l-.07-.07h.07v.07Z"/>
      <path class="cls-1" d="m31.97,14.03q-.07.07-.14.14c.07,0,.07-.07.14-.14Z"/>
      <path class="cls-1" d="m37.51,62.34c.07-.07.07-.14.14-.14-.07.07-.14.07-.14.14Z"/>
      <path class="cls-1" d="m55.07,72.79h.14c0,.07.07.14.07.14-.14,0-.14-.07-.2-.14Z"/>
      <path class="cls-1" d="m58.48,72.93v.2h-.14l-.07-.07c0-.07.14-.07.2-.14Z"/>
      <path class="cls-1" d="m40.44,73.13c-.07.07-.07.14-.14.2.07-.07.14-.14.14-.2Z"/>
      <path class="cls-1" d="m137.54,44.57c.07-.07.14-.14.14-.2,0,.14-.07.14-.14.2Z"/>
      <path class="cls-1" d="m37.64,61.86c.07-.07.07-.14.14-.14,0,0-.07.07-.14.14Z"/>
      <path class="cls-1" d="m112.33,73.82q0,.07.07.14s0,.07-.07.07v-.2Z"/>
      <path class="cls-1" d="m12.36,60.63c.07.07.14.07.14.14-.07,0-.14-.07-.14-.14Z"/>
      <path class="cls-1" d="m154.15,30.57q.07-.07.14-.14t-.14.14Z"/>
      <path class="cls-1" d="m44.13,74.84s-.07,0-.07-.07c0,0,.07,0,.07-.07v.14Z"/>
      <path class="cls-1" d="m154.35,26.33q.07-.07.14-.14c-.07,0-.14.07-.14.14Z"/>
      <path class="cls-1" d="m111.37,75.18c-.07.07-.07.14-.14.14.07,0,.07-.07.14-.14Z"/>
      <path class="cls-1" d="m104.74,47.99c-.07-.07-.14-.07-.14-.14,0,.07.07.07.14.14Z"/>
      <path class="cls-1" d="m110.14,47.85h-.27.27Z"/>
      <path class="cls-1" d="m113.63,47.99v-.2.2Z"/>
      <path class="cls-1" d="m120.46,75.87q-.07-.07-.14-.14c.07,0,.14.07.14.14Z"/>
      <path class="cls-1" d="m62.04,78.26q.07.07.14.14s-.07-.07-.14-.14Z"/>
      <path class="cls-1" d="m133.65,49.15c-.07,0-.07-.07-.14-.07q.07,0,.14.07Z"/>
      <path class="cls-1" d="m93.2,79.28q.07-.07.14-.14c-.07,0-.07.07-.14.14Z"/>
      <path class="cls-1" d="m120.53,79.42q.07-.07.14-.14c-.07.07-.07.14-.14.14Z"/>
      <path class="cls-1" d="m92.99,79.76q.07-.07.14-.14c0,.07-.07.14-.14.14Z"/>
      <path class="cls-1" d="m91.28,82.02q.07-.07.14-.14t-.14.14Z"/>
      <path class="cls-1" d="m35.46,10.82c.27-.48.75-.61,1.3-.61,1.16.07,2.25,0,3.42,0h.82c.2.68.27,8.27.07,9.22-.61.2-7.79.2-8.61,0,.07-.27.14-.55.2-.75.27-.82.61-1.57.89-2.39.07-.2.2-.41-.07-.61.48-1.09.89-2.12,1.37-3.21.27-.48.41-1.09.61-1.64Zm3.48,1.64c-.27,0-.41-.07-.61-.07-.96,0-1.02,0-1.37.89-.41,1.09-.82,2.19-1.23,3.28-.07.27-.14.55-.27.89,1.23.07,2.25.07,3.42,0,.07-1.71.07-3.35.07-4.99Z"/>
      <path class="cls-1" d="m54.11,41.02v-.82c.34,0,.61-.07.89-.07h7.86c.2,0,.41-.07.61,0,.14.07.34.2.34.41.07.27-.14.41-.41.41h-.41c-2.39,0-4.78.07-7.17.07-.55.14-1.09.07-1.71,0Z"/>
      <path class="cls-1" d="m41.88,40.27c.2,0,.48-.07.75-.07h8.34c.14,0,.34-.07.48,0s.34.2.34.41c.07.27-.14.41-.41.48h-9.09c-.55-.07-.55-.14-.41-.82Z"/>
      <path class="cls-1" d="m75.22,40.27c.07.75.07.82-.48.82h-8.2c-.55,0-.55-.07-.48-.82h9.16Z"/>
      <path class="cls-1" d="m77.68,40.27c.2,0,.48-.07.75-.07h7.58c.2,0,.41,0,.61.07.14.07.27.27.27.34,0,.14-.14.34-.27.41-.2.07-.48.07-.68.07h-5.94c-.61,0-1.23.07-1.84,0-.61-.07-.61-.14-.48-.82Z"/>
      <path class="cls-1" d="m98.18,40.27c.07.75.07.82-.55.82h-7.99c-.61,0-.61-.07-.55-.82h9.09Z"/>
      <path class="cls-1" d="m30.67,41.09v-.82h8.88c.14.75.14.82-.61.82h-8.27Z"/>
      <path class="cls-1" d="m74.61,33.09h-1.16c.2-.41.34-.68.55-1.23.2.48.41.82.61,1.23Z"/>
      <path class="cls-1" d="m74.34,57.9c-.07.07-.14.2-.2.2-.14,0-.34,0-.48-.07-.07,0-.07-.27-.07-.27.14-.07.27-.14.41-.14s.2.07.34.07v.21Z"/>
      <path class="cls-1" d="m69.21,59.33c.14-.34.2-.61.34-.96.07,0,.14.07.2.07-.14.34-.2.61-.34.96-.07,0-.14,0-.2-.07Z"/>
      <path class="cls-1" d="m58.28,73.13h.14c.07.14.2.2.27.34-.14,0-.34,0-.48.07.07-.2.07-.27.07-.41Z"/>
      <path class="cls-1" d="m68.67,61.38c-.07.14-.07.27-.14.34q-.07,0-.14-.07c.07-.14.07-.27.14-.34q.07,0,.14.07Z"/>
      <path class="cls-1" d="m68.26,62.41c-.07,0-.14-.07-.14-.07q0-.07.07-.14c.07.07.14.07.14.14l-.07.07Z"/>
      <path class="cls-1" d="m74.34,57.9v-.2h.89c0,.07-.07.14-.07.2h-.82Z"/>
      <path class="cls-1" d="m127.22,51.27q0-.07,0,0c.07-.07.14,0,.14,0,0,0,0,.07-.07.07,0,0,0-.07-.07-.07Z"/>
      <path class="cls-1" d="m116.22,47.51c-.14.07-.2.14-.34.2,0-.07-.07-.14-.07-.27.14.07.27.07.41.07h0Z"/>
      <path class="cls-1" d="m21.04,40.27c-.07.07-.14.14-.14.27.07-.14.07-.21.14-.27Z"/>
      <polygon class="cls-1" points="67.98 62.89 67.91 62.89 67.91 62.89 67.98 62.89"/>
      <path class="cls-1" d="m100.3,38.15q.07.07.14.14c0-.07-.07-.14-.14-.14Z"/>
      <path class="cls-1" d="m18.85,38.15c.07,0,.07-.07.14,0h-.14Z"/>
      <polygon class="cls-1" points="58.69 74.5 58.69 74.5 58.69 74.43 58.69 74.5"/>
      <path class="cls-1" d="m138.09,28.24h.2-.2Z"/>
      <path class="cls-1" d="m20.9,58.44c.07.07.14.14.14.2-.07-.07-.07-.14-.14-.2Z"/>
      <path class="cls-1" d="m21.11,70.4c-1.84.2-3.76.07-5.74.14"/>
      <path class="cls-1" d="m7.85,79.76c-.55,0-.96-.48-.96-1.02.07-.48.48-.89.96-.89.55,0,.96.48.96.96.07.55-.41,1.02-.96.96Z"/>
      <path class="cls-1" d="m30.13,79.97c-.48,0-.96-.34-1.02-.82-.07-.55.41-1.02.96-1.02s1.02.41,1.02.96c-.07.48-.48.89-.96.89Z"/>
      <path class="cls-1" d="m42.9,74.3c-.14-.07-.34-.14-.48-.27v-.14h.34c.14,0,.2.07.34.14-.07.14-.14.21-.2.27Z"/>
      <path class="cls-1" d="m43.66,74.57h-.14l-.07-.07s.07-.07.14-.07q.07.07.07.14Z"/>
      <polygon class="cls-1" points="52.88 72.79 52.88 72.72 52.95 72.72 52.88 72.79"/>
      <polygon class="cls-1" points="53.29 72.72 53.22 72.72 53.22 72.66 53.29 72.72"/>
      <path class="cls-1" d="m48.44,71.29c.14-.07.27-.27.34-.27.27.2,0,.34-.14.48-.07-.07-.14-.14-.2-.2Z"/>
      <path class="cls-1" d="m45.36,72.11q-.07-.07-.14-.07h.07c.07-.07.07,0,.07.07Z"/>
      <path class="cls-1" d="m142.26,60.02v-.2h.2c-.14.14-.14.2-.2.2Z"/>
      <path class="cls-1" d="m157.43,67.12c-.07,0-.07-.07-.14-.07l.07-.07q.07.07.07.14c.07,0,0,0,0,0Z"/>
      <path class="cls-1" d="m172.05,16.97c-.07-.14-.2-.27-.27-.41,0,0,.14-.07.2-.14.07.14.2.27.27.41-.07,0-.14.07-.2.14Z"/>
      <path class="cls-1" d="m128.11,41.29h-.07.07Z"/>
      <path class="cls-1" d="m54.25,17.58h-8.61c-.2-.68-.2-11.62-.07-12.5h8.61c.27.68.27,11.55.07,12.5Zm-1.98-10.39c-1.64,0-3.07-.07-4.58.07v1.91c1.09.2,4.03.14,4.58-.07v-1.91Zm0,6.35h-4.58c-.14.68-.2,1.3.07,1.98h4.58c-.07-.75-.07-1.3-.07-1.98Z"/>
      <path class="cls-1" d="m52.27,7.2v1.84c-.55.2-3.55.27-4.58.07v-1.91c1.43-.07,2.94,0,4.58,0Z"/>
      <path class="cls-1" d="m52.27,13.55v1.98h-4.58c-.2-.68-.2-1.3-.07-1.98h4.65Z"/>
      <path class="cls-1" d="m30.13,82.22q-.07,0,0,0c-1.3,0-2.25-.61-2.8-1.71-.2-.41-.48-.55-.96-.55h-14.69c-.55,0-.82.14-1.09.61-.61.89-1.57,1.43-2.6,1.43h0c-1.02,0-1.98-.55-2.6-1.43-.07-.14-.14-.27-.27-.41l-.14-.2H.61c-.2-.68-.07-1.23,0-1.71.68-3.21,2.66-5.47,5.94-6.83,1.02-.41,2.12-.68,3.21-.89h.14c.61-.14,1.23-.27,1.71-.82.14-.14.34-.27.48-.41.14-.14.34-.27.48-.41,1.57-1.84,3.76-2.6,5.47-3.01,3.96-.96,7.45-.75,10.73.61,1.78.75,3.42,1.91,5.19,3.69,1.5,1.5,3.01,3.21,3.89,5.33.07.2.2.34.34.34.14.07.27,0,.48-.14.14-.07.27-.2.34-.27.07-.07.14-.07.14-.14h.07c.2.07.34.14.48-.14l-.55-.41-.61-.68h0c.41-.75.96-1.02,1.78-.89l.14-.14h0s.07,0,.07-.07c.07-.07.2-.07.2-.07.34.27.68.2,1.16,0h0l-1.43-.89.75-1.23.07.07,1.43,1.5-.07.61h.2c.2,0,.34-.07.48.07.34.27.61.68.89,1.02.14.14.2.27.34.41v.07l-.07.07c-.14.07-.2.14-.34.2h0l-.41,1.57h-.07c-.61-.14-1.02-.48-1.37-.96h0l.41-.68c-.2,0-.34,0-.41.07-.14.07-.14.2-.14.41v.2h-.07c-.55-.07-1.16-.27-1.3-.96,0-.07-.07-.14-.14-.2-.07,0-.07-.07-.14-.07l-.14-.07.07.27.27,1.37c.2.07.55.27.89.41h0c0,.48,0,.68-.2.82-.14.14-.41.14-.82.14h0l-.2-.61v.89c0,.27,0,.55-.07.82v1.16h0c-.48.14-.96.14-1.43.14h-.55c-.41,0-.82,0-1.16.27-.2.14-.55.2-.82.2h-2.19c-.48,0-.89.14-1.16.68-.68.89-1.71,1.5-2.87,1.5Zm7.58-6.7c-.89-2.12-2.39-3.83-3.89-5.33-1.71-1.78-3.35-2.94-5.12-3.69-3.21-1.37-6.76-1.57-10.66-.61-1.71.41-3.83,1.09-5.4,2.94-.14.14-.34.27-.48.41-.14.14-.34.27-.48.41-.48.55-1.09.75-1.71.89h-.14c-1.09.2-2.19.48-3.21.89-3.21,1.3-5.19,3.62-5.88,6.76-.07.48-.2.96,0,1.64h4.24l.14.27c.07.14.2.27.27.41.61.89,1.57,1.43,2.53,1.43h0c1.02,0,1.91-.55,2.53-1.43.34-.48.61-.61,1.16-.61h14.76c.41,0,.75.07,1.02.55.55,1.09,1.5,1.64,2.73,1.64h0c1.23,0,2.12-.55,2.66-1.57.27-.61.68-.75,1.23-.75h2.19c.2,0,.55-.07.75-.2.41-.27.82-.27,1.23-.34h.55c.41,0,.89,0,1.37-.07v-1.09c0-.27,0-.55.07-.82v-.34l-.07-.82-.34-.2.48.14v.07l.34.75c.41,0,.61,0,.75-.07.14-.14.14-.34.14-.75-.34-.14-.68-.27-.89-.41h0l-.27-1.43-.07-.41.34.14.07.07c.07.07.14.14.2.2.14.68.68.82,1.23.89v-.14c0-.14.07-.34.2-.48.14-.07.27-.07.55-.07h.07l-.48.75c.34.48.75.75,1.3.89l.41-1.37-.14-.07.2-.07c.14-.07.2-.14.34-.2h0c-.07-.14-.2-.2-.27-.34-.27-.34-.61-.68-.89-.96-.07-.07-.2-.07-.41,0h-.34l.07-.68-1.37-1.43-.68,1.09,1.5.96-.2.07c-.48.14-.82.27-1.23-.07,0,0-.07.07-.14.07,0,0-.07,0-.07.07l-.14.2h0c-.75-.14-1.3.14-1.71.82l.55.61.61.41v.07c-.2.34-.41.27-.61.2h-.07q-.07.07-.14.14c-.14.14-.2.2-.34.27m-8.61,4.24c-.55,0-.96-.41-1.02-.89,0-.27.07-.55.27-.75.2-.2.41-.34.68-.34s.55.07.75.27c.2.2.34.48.34.68,0,.55-.41,1.02-1.02,1.02h0q.07,0,0,0Zm0-1.91h0c-.27,0-.48.14-.68.34s-.27.41-.27.68c.07.48.48.82.96.82h0c.48,0,.89-.41.89-.89,0-.27-.14-.48-.27-.68-.14-.14-.41-.27-.61-.27Zm-22.14,1.71q-.07,0,0,0h0c-.27,0-.55-.14-.75-.34-.2-.2-.27-.48-.27-.68.07-.48.48-.96,1.02-.96h0c.27,0,.55.14.75.34.2.2.27.41.27.68s-.14.48-.34.68c-.2.21-.48.27-.68.27Zm-.07-.07c.27,0,.48-.07.68-.27.2-.14.27-.41.27-.61s-.07-.48-.27-.61c-.2-.2-.41-.27-.68-.27h0c-.48,0-.89.41-.89.82,0,.2.07.48.2.61.2.21.48.34.68.34h0Zm9.5-1.98c-1.16,0-2.25,0-2.73-.14h-.07v-.07c-.14-1.3-.07-2.66-.07-4.03v-.27h6.7v4.3h0c-.34.14-2.19.21-3.83.21Zm-2.73-.2c1.3.2,5.74.14,6.49-.07v-4.17h-6.56v.2c0,1.43-.07,2.73.07,4.03Zm28.97-2.94q-.07,0,0,0c-.07,0-.14-.07-.14-.07v-.07l.07-.07.07-.07.14.2h-.14v.07Zm-.07-.07q.07,0,0,0h0q.07-.07,0,0h0Zm-.61-.21l-.55-.27.07-.2h.34c.07,0,.14.07.2.07,0,0,.07,0,.07.07h.07l-.2.34Zm-.41-.34l.41.2.14-.14h-.07c-.07,0-.14-.07-.2-.07h-.2q0-.07-.07,0h0Zm-18.38-3.62h1.64c.89,0,1.78.07,2.6-.07"/>
      <path class="cls-1" d="m52.33,77.85h0c-.14-.27-.27-.41-.34-.61-.27-.48-.55-.89-.48-1.5h0l.27-.27h-.55c-.14,0-.34-.07-.34-.14-.14-.41-.2-.82-.27-1.3,0-.14-.07-.27-.07-.41h0c.68-.34,1.16-.07,1.71.14.2.07.41.2.61.27,0-.82-.27-1.43-.55-1.98h0l.34-.27c.34-.27.68-.48,1.02-.75.14-.14.2-.14.27-.14.34.2.68.14,1.02.07.27-.07.55-.14.82-.07h0l.27,2.05-.82.07-.07-.2-.48-.82-.89.41v.14h.14c.14,0,.2.07.34.07.14.07.27.07.41.14l.27.07-.55.27.27.55h0l-1.23,1.64-.07.2h.27c.14,0,.2-.07.34-.14.2-.14.48-.27.89-.07h.07l-.07.07c-.14.07-.2.14-.27.2-.14.14-.27.2-.48.2-.55.14-.96.48-1.3,1.09-.14.2-.2.41-.41.61.07.14-.07.21-.14.41h0Zm-.82-2.05c-.07.55.2.96.48,1.43.07.14.2.27.27.48.07-.07.14-.2.2-.27.14-.2.27-.41.34-.61.34-.61.75-1.02,1.37-1.16.14,0,.27-.14.41-.2.07-.07.14-.07.2-.14-.34-.07-.55,0-.75.14-.14.07-.27.14-.41.14l-.41.07.14-.34,1.23-1.64-.34-.61.41-.2h-.07c-.14-.07-.27-.07-.41-.14-.14,0-.2-.07-.34-.07l-.2-.07-.07-.27.96-.41.55.89.07.14h.68l-.27-1.91c-.27-.07-.55,0-.75.07-.34.07-.75.14-1.09-.07,0,0-.07,0-.14.14-.34.27-.61.48-1.02.75l-.27.2c.34.55.61,1.16.55,2.05v.07h-.07c-.2-.07-.48-.14-.68-.27-.48-.27-.96-.48-1.57-.14,0,.14.07.27.07.34.07.41.2.82.27,1.23,0,0,.2.07.27.07h.75l-.34.34Zm1.37-2.94l-.07-.2h.2l-.14.2Zm.27-.07l.07-.2.2.14-.27.07Z"/>
      <path class="cls-1" d="m49.05,77.64h0c-.27-.55-.41-1.02-.48-1.5-.07-.27-.14-.48-.2-.75v-.07l.61-.27c-.2-.27-.34-.2-.55-.07l-.07.07-.34-.2v-.34h0c.07-.07.14-.2.14-.27.14-.2.2-.41.34-.61.27-.48.41-.89,0-1.3-.34-.34-.07-.68.14-.89l.07-.07c.07-.07.14-.14.14-.14q0-.07-.07-.14c-.07,0-.14.07-.14.14q-.07.07-.14.14h0q-.07,0-.14.07c-.07.07-.2.07-.27.07-.2,0-.41-.07-.48-.2s-.07-.34,0-.55.2-.34.27-.55c.14-.2.27-.41.41-.61.07-.07.14-.2.2-.27h0l1.64.82h0c0,.07.07.14.14.27.07.27.2.55.34.82.2.61.2.68-.41,1.02h-.07l-.68.61.89,1.23-.75.55c0,.14.07.2.14.27.07.07.2,0,.34-.07s.34-.14.41,0h0v.34c0,.2-.07.48-.07.68,0,.14-.07.34-.2.48-.2.27-.48.55-.68.89-.2.07-.34.2-.48.41h0Zm-.61-2.19c.07.2.14.48.14.68.07.41.2.89.41,1.37.07-.14.2-.2.27-.34.27-.34.48-.55.68-.89.07-.14.14-.27.2-.41.07-.2.07-.41.07-.68v-.27c-.07-.07-.14,0-.34,0-.14.07-.34.14-.48,0-.07-.07-.14-.2-.2-.34h0l.68-.55-.89-1.23.75-.68-.07-.2.14-.07.07.2q.55-.27.34-.89c-.07-.27-.2-.55-.34-.82-.07-.07-.07-.2-.07-.27l-1.57-.75c-.07.07-.14.2-.14.27-.14.2-.27.41-.41.61-.07.14-.2.34-.27.55s-.07.34,0,.41c.07.14.2.2.41.2.07,0,.14,0,.27-.07q.07,0,.14-.07s.07-.07.14-.14q.2-.2.27-.14c.07.07.14.14.14.2s-.07.14-.2.2l-.07.07c-.27.27-.34.48-.14.75.55.48.27.96.07,1.43-.14.2-.27.41-.34.61-.07.07-.07.14-.14.27v.27l.27.2h0c.2-.14.41-.27.68.14v.07l-.48.27Z"/>
      <path class="cls-1" d="m46.05,75.8l-.75-1.02.48-.82-.07-.07-1.02.48v-.07c.07-.68-.41-1.02-.75-1.37h0c0-.14.07-.27.14-.41.07-.14.14-.27.07-.48-.07.07-.2.2-.27.27-.14.14-.2.34-.41.34-.14,0-.27-.07-.41-.2h0v-1.98h.07c1.43-.14,2.05.14,3.14,1.16h0l-.34.55h0l.07.07c.34.41.75.55,1.37.48h.07l.48,1.57-.07.55h0c-.07,0-.14.07-.2.07-.14.07-.34.14-.48.2-.2.14-.34.2-.55.41-.27.14-.41.2-.55.27h0Zm-.61-1.02l.68.89c.07-.07.14-.14.2-.2.2-.14.34-.27.55-.41.14-.07.34-.14.48-.27.07,0,.14-.07.2-.07l.07-.48-.48-1.5c-.61.07-1.09-.14-1.43-.55l-.14-.14.14-.07.27-.41c-1.02-1.02-1.57-1.23-3.01-1.09v1.84c.14.14.27.2.34.2.14,0,.27-.14.34-.34.07-.14.2-.27.34-.34h0c.2.2.07.41,0,.61-.07.14-.14.2-.14.34.41.27.82.68.82,1.37l.96-.48.14.2-.34.89Zm0-2.6l-.27-.2.2-.07.07.27Z"/>
      <path class="cls-1" d="m142.6,64.12l-1.37-.75h0v-.2c.07-.82.07-1.71-.96-2.05h0v-1.5l.75-.2-.41-.61h0l.75-1.23h0c.75.2,1.3.68,1.78,1.16h0l-.82,1.16h-.14v.14h0l-.14,1.16c.14.14.34.2.55.34.41.2.89.41,1.16.96h0l-1.16,1.64Zm-1.23-.82l1.23.68,1.23-1.43c-.27-.48-.75-.68-1.16-.89-.2-.14-.41-.2-.61-.34h0l.14-1.23-.07-.2h.2l.82-1.09c-.55-.48-1.02-.89-1.71-1.16l-.68,1.16.41.68-.82.2v1.37c1.09.41,1.02,1.3.96,2.12.07,0,.07.07.07.14Z"/>
      <path class="cls-1" d="m119.84,46.69l-1.43-.75h0v-.41c0-.34.07-.68-.07-.96-.14-.27-.34-.48-.55-.75-.07-.07-.2-.2-.27-.27h0l.07-1.43.75-.14.07-.14-.68-.27.96-1.5,1.78,1.23-.68,1.09h-.82c.61.41.48.89.41,1.3,0,.07,0,.14-.07.14l1.98,1.23-1.43,1.64Zm-1.37-.75l1.3.68,1.37-1.5-1.91-1.23h0c0-.07,0-.14.07-.2.14-.41.2-.89-.48-1.3l-.14-.07h1.09l.61-1.02-1.64-1.16-.89,1.37.68.27-.14.27-.75.14-.07,1.3c.07.07.14.2.27.27.27.2.48.48.61.75s.07.68.07,1.02c-.07.14-.07.27-.07.41Z"/>
      <path class="cls-1" d="m169.52,16.42h0l-1.43-.75h0v-.41c0-.34.07-.68-.07-.96s-.34-.55-.61-.75l-.27-.27h0l.07-1.43.82-.14-.61-.55.89-1.43,1.71,1.23h0c-.07.14-.07.2-.14.34-.14.41-.27.75-.82.89h0l-.41-.07.2.27c.27.27.2.48.14.75-.07.14-.14.34-.07.48.14.14.34.2.55.27.48.2.89.48,1.16,1.02h0l-1.09,1.5Zm-1.3-.75l1.3.68,1.16-1.3c-.27-.55-.68-.75-1.16-.96-.2-.07-.41-.2-.55-.34h0c-.07-.2,0-.41.07-.55.07-.27.14-.48-.07-.68h0l-.34-.48.61.07c.48-.07.61-.41.75-.82.07-.07.07-.2.14-.27l-1.57-1.09-.82,1.3.68.61-.96.2-.07,1.3c.07.07.14.14.27.2.2.2.48.48.61.75.14.27.07.68.07.96-.14.14-.14.27-.14.41Z"/>
      <path class="cls-1" d="m156.54,69.45h0c-.55-.61-.89-1.23-1.02-1.84-.07-.27.07-.61.2-.89.07-.14.14-.27.14-.34h0c.2-.14.34,0,.48.07.2.07.34.2.55-.07l-.2-.55h0c.07-.2.27-.41.55-.55.55-.2,1.37-.14,2.05.34h.07l-.07.07c-.2.2-.34.41-.48.68-.27.41-.48.89-1.02,1.09-.07,0-.07.14-.14.2,0,.07-.07.07-.07.14-.27.41-.48.82-.75,1.23l-.27.41Zm-.55-3.01c-.07.14-.07.2-.14.34-.14.27-.27.61-.2.82.14.55.41,1.16.89,1.71l.27-.41c.27-.41.48-.82.75-1.23,0-.07.07-.07.07-.14.07-.07.07-.2.14-.2.55-.2.75-.61,1.02-1.02.14-.2.27-.48.41-.61-.61-.41-1.43-.48-1.91-.34-.2.07-.41.2-.48.48l.2.55h0c-.2.34-.48.27-.61.14-.14-.07-.27-.14-.41-.07Zm1.43.75l-.2-.14v-.07h0l.07-.07q.07,0,.07.07l.07.07v.14Z"/>
      <path class="cls-1" d="m183.46,21.89h0c-.48-.48-.68-.96-.89-1.37-.07-.2-.14-.34-.27-.55h0l.55-1.3.82.14v-.75h0c.96-.75,1.57-.75,2.46-.07h.07v.07c-.14.14-.2.34-.27.48-.27.48-.55,1.02-1.16,1.23h-.07l-.07-.07c-.07-.14-.14-.27-.41-.2l.34.34-1.09,2.05Zm-1.02-1.98c.07.14.14.34.27.55.2.41.41.89.75,1.3l1.02-1.84-.34-.41h.07c.41-.2.48,0,.61.2.55-.27.82-.75,1.09-1.23.07-.14.2-.34.27-.48-.89-.61-1.43-.61-2.32.14v.82l-.89-.14-.55,1.09Z"/>
      <path class="cls-1" d="m165.35,19.56h0c-.14-.14-.27-.2-.34-.27-.27-.2-.55-.41-.82-.61-.07-.07-.14-.27-.14-.41v-.2h0c.07-.07.14-.14.14-.2s-.07-.07-.14-.14h0v-.61l.82-.14c-.55-.68-.2-1.09.14-1.5.14-.14.27-.34.34-.55v-.07h.07c.55.27.96.68,1.37,1.09l.34.34h0l-.68,1.09-.82-.14v.14c.48.68.48.89-.27,2.19h0Zm-1.23-1.57v.2c0,.14,0,.27.07.34.27.2.55.41.82.61.07.07.2.14.27.2.68-1.16.68-1.37.14-2.05v-.14s0-.07.07-.07v-.07l.82.14.61-.96c-.07-.14-.2-.2-.27-.34-.41-.41-.75-.82-1.23-1.09-.07.2-.2.34-.34.55-.34.41-.68.82-.07,1.5l.07.07-.96.14v.48c.07.07.14.14.14.2,0,.14-.07.21-.14.27Z"/>
      <path class="cls-1" d="m138.5,67.26l-1.43-1.02h0c-.07-.2,0-.34.07-.48.07-.2.14-.34-.07-.55-.07-.07-.07-.14-.07-.27.07-.14.2-.27.41-.27h.48l-.41-.75,1.02-1.43,1.64,1.5-.75,1.09-.89-.07v.07l.61.55-.61,1.64Zm-1.37-1.09l1.3.96.61-1.57-.61-.55.07-.2.89.07.68-.96-1.5-1.37-.96,1.37.48.82h-.75c-.14,0-.27.14-.34.2v.14c.27.27.2.48.07.68.14.14.07.2.07.41Z"/>
      <path class="cls-1" d="m144.1,66.1l-.96-1.23h0c.07-.14.2-.27.34-.41.2-.2.41-.34.2-.68v-.07c.07-.07.2-.27.34-.27s.2,0,.34.07q.07,0,.14.07c.2-.82.82-.96,1.5-1.09.14,0,.27-.07.41-.14h.07l.48,2.05h-.07c-.14.07-.27.14-.41.2-.34.2-.61.41-1.09.07h0v-.07c-.07-.2-.14-.34-.41-.41l.14.41c.14.27.2.61-.2.89-.2.14-.34.27-.55.41,0,0-.14.07-.27.21h0Zm-.82-1.23l.89,1.16c.07-.07.14-.14.27-.2.2-.14.34-.27.55-.41.34-.2.27-.41.14-.75h0l-.2-.55h.07c.41,0,.48.27.55.48h0c.41.27.61.14.96-.07.14-.07.27-.14.41-.2l-.41-1.84c-.14,0-.27.07-.34.07-.68.14-1.23.27-1.43,1.09v.07h-.07c-.07,0-.14,0-.2-.07-.14-.07-.2-.07-.27-.07-.14,0-.27.14-.34.2.14.41-.07.61-.27.82-.14,0-.2.14-.27.27Z"/>
      <path class="cls-1" d="m171.02,18.47l-.96-1.3h0c.07-.14.2-.27.27-.41.2-.2.34-.41.27-.75,0-.07.07-.2.14-.2.07-.07.14-.07.14-.07.34.07.55-.14.68-.34.07-.07.14-.2.27-.27.27-.2.55-.27.89-.41.14-.07.34-.14.48-.2h.07l.48,2.19-1.5.48-1.23,1.3Zm-.82-1.3l.89,1.16,1.37-1.23,1.43-.48-.48-1.98c-.14.07-.34.14-.48.14-.34.14-.68.2-.89.41-.07.07-.2.14-.27.27-.2.2-.41.48-.82.34,0,0-.14.14-.14.2.07.34-.14.55-.34.82-.14.14-.2.27-.27.34Zm1.84-.14l-.07-.14c-.07-.07-.14-.2-.2-.34q0-.07.14-.14l.07-.07h.07l.34.48-.34.21Zm-.14-.48c.07.07.14.2.2.27h0l.14-.07-.2-.27h-.07l-.07.07Z"/>
      <path class="cls-1" d="m161.73,18.27c-.07,0-.2,0-.27-.07-.48-.27-1.09-.75-1.3-1.57,0-.14-.14-.2-.2-.34-.07-.07-.14-.2-.2-.34-.07-.2-.07-.48,0-.61.07-.14.14-.14.27-.2.14,0,.27,0,.41.14.61.48,1.3.55,1.84.55.27,0,.48,0,.75.07h.41v.07c.07.68,0,.96-.41,1.98h-.07c-.07,0-.14.07-.2.07-.14,0-.27.07-.41.07-.2.14-.41.2-.61.2Zm-1.57-3.01h0c-.14,0-.2.07-.2.14-.07.14-.07.41,0,.55.07.07.14.2.2.27.07.14.14.2.2.34.2.75.82,1.23,1.23,1.5.14.14.48,0,.75-.07.14-.07.27-.07.41-.07.07,0,.14-.07.2-.07h.07c.41-.96.48-1.23.41-1.84h-.27c-.2,0-.48-.07-.75-.07-.55,0-1.3-.07-1.91-.55-.14-.07-.21-.14-.34-.14Z"/>
      <path class="cls-1" d="m133.58,52.09l-.96-1.91h0c.07-.14.07-.2.14-.34.07-.2.14-.34.14-.55.07-.14.14-.34.27-.41s.2,0,.41.07l.07.07c.2-.07.34-.07.41-.14s0-.27-.07-.61h0c.75-.68,1.57-.75,2.46-.2h.07v.07c-.41.75-.75,1.37-1.43,1.78h-.07v-.07c-.07-.14-.14-.27-.27-.27-.07,0-.14,0-.27.07l.34.75-1.23,1.71Zm-.89-1.91l.89,1.71,1.09-1.5-.34-.75h0c.14-.07.27-.14.41-.07.14.07.2.14.27.27.61-.41.96-.96,1.37-1.64-.82-.48-1.64-.48-2.32.14.14.41.14.55.07.68-.07.07-.2.14-.48.14h0l-.14-.14c-.14-.07-.2-.14-.27-.07-.07,0-.14.14-.2.34s-.14.34-.2.55c-.07.14-.07.27-.14.34Z"/>
      <path class="cls-1" d="m134.81,65.96h0c-.14-.14-.27-.2-.41-.34-.48-.41-.96-.82-1.16-1.5,0-.07-.07-.14-.14-.2-.07-.07-.14-.14-.14-.2s-.14-.41-.07-.55c.07-.07.27-.2.41-.2h.14c.75.61,1.57.61,2.46.61h.41c.07,0,.14,0,.2.07.07,0,.07.07.14.07,0,0,.07.07.14.07h0l-.55,1.78-1.43.41Zm-1.43-3.01s-.07,0,0,0c-.14,0-.34.07-.41.2-.07.07,0,.27.07.48,0,.07.07.14.14.2.07.07.14.2.2.27.14.68.61,1.09,1.09,1.5.14.14.27.2.41.34l1.37-.41.48-1.71-.07-.07-.07-.07h-.55c-.96-.14-1.91-.14-2.66-.75h0Z"/>
      <path class="cls-1" d="m127.22,43.14l-.89-1.16h0l.75-1.5.61.07c.07-.75.61-.96,1.23-1.23.07-.07.2-.07.27-.14h.07l.89,1.98h0c-.07.07-.2.14-.27.2-.41.27-.75.48-1.3.34-.07.61-.48.89-.96,1.23-.21.07-.27.14-.41.21h0Zm-.75-1.16l.82,1.02c.07-.07.14-.07.2-.14.48-.34.89-.61.96-1.23v-.07h.07c.55.14.89-.07,1.3-.34.07-.07.14-.14.27-.14l-.82-1.84c-.07.07-.14.07-.27.14-.61.27-1.09.48-1.16,1.16v.07l-.68-.07-.68,1.43Zm1.64-.55l-.07-.2h.2l-.14.2Z"/>
      <path class="cls-1" d="m150.05,60.56l-1.02-1.3h0c.48-.48.61-.89.55-1.43h-.07l.14-.14v.07l.68.2c.07-.68.61-.89,1.16-1.09.14-.07.27-.14.41-.2h.07l.75,1.98h0c-.07.07-.14.07-.2.14-.34.27-.75.55-1.23.41h0v-.07c-.07-.2-.14-.48-.41-.48-.07.34.07.48.27.68h0c-.07.41-.34.61-.61.75-.07.14-.27.27-.48.48h0Zm-.89-1.3l.89,1.16c.14-.14.34-.27.48-.41.27-.2.55-.34.61-.68-.2-.14-.41-.41-.27-.82v-.07h.07c.34,0,.48.27.55.55.48.14.75-.14,1.16-.41q.07-.07.14-.14l-.75-1.78c-.14.07-.27.14-.41.14-.55.21-1.02.41-1.09,1.09v.07l-.75-.27c.07.61-.14,1.09-.61,1.57Z"/>
      <path class="cls-1" d="m176.97,12.87l-.89-1.23h0c.07-.2.2-.34.34-.48.2-.2.34-.41.2-.68h0c0-.07.27-.2.41-.2.07,0,.2,0,.27.07,0,0,.07,0,.07.07.07-.82.61-.96,1.23-1.16.14-.07.2-.07.34-.14h.07l.75,1.98h-.07l-1.16.61-.68-.75c-.14.2-.07.34,0,.55.07.14.2.34.07.61h0l-.96.75Zm-.82-1.23l.82,1.09.96-.75c.07-.2,0-.41-.07-.55-.07-.2-.2-.41.07-.68v-.07l.68.75,1.02-.55-.68-1.84c-.07.07-.2.07-.27.14-.61.2-1.09.41-1.16,1.16v.07h-.07c-.07,0-.14,0-.14-.07-.07-.07-.2-.07-.27-.07-.14,0-.27.14-.34.2.14.34-.07.55-.27.75-.14.14-.2.27-.27.41Z"/>
      <path class="cls-1" d="m181.75,18.95l-1.43-.48-.41-1.98h.07c1.23-.34,2.25,0,3.21.89h0c-.34.61-.89,1.02-1.37,1.43l-.07.14Zm-1.37-.55l1.37.48.07-.07c.48-.41.96-.82,1.3-1.37-.96-.89-1.91-1.16-3.07-.89l.34,1.84Z"/>
      <path class="cls-1" d="m154.76,66.64h0c-.07,0-.07-.07-.14-.07-.07-.07-.14-.14-.2-.14-1.16-.2-1.23-.96-1.3-1.71,0-.14,0-.34-.07-.48v-.07h.07c1.23-.41,2.39,0,3.21,1.02h0l-1.57,1.43Zm-1.57-2.39c0,.14.07.27.07.48.07.75.14,1.5,1.23,1.64.07,0,.2.07.27.14,0,0,.07,0,.07.07l1.43-1.3c-.82-1.02-1.91-1.37-3.07-1.02Z"/>
      <path class="cls-1" d="m132.14,49.22h0l-1.57-.55h0l-.34-1.98h.07c1.43-.27,2.39.27,3.21.96h.07l-1.43,1.57Zm-1.5-.61l1.5.48,1.3-1.43c-.82-.61-1.78-1.16-3.07-.89l.27,1.84Z"/>
      <path class="cls-1" d="m158.11,18.81l-.34-.27-1.23-.96h0c.34-.89,1.16-1.23,1.91-1.64.07-.07.2-.07.27-.14h.07l.89,1.84-1.57,1.16Zm-1.57-1.3l1.5,1.16,1.37-1.09-.82-1.71c-.07.07-.14.07-.2.14-.75.34-1.43.68-1.84,1.5Z"/>
      <path class="cls-1" d="m176.28,18.13l-1.09-1.3,1.09-1.84h.07c.89.48,1.37,1.16,1.84,2.12v.07l-1.91.96Zm-1.02-1.37l1.02,1.23,1.78-.89c-.48-.96-.96-1.57-1.78-1.98l-1.02,1.64Z"/>
      <path class="cls-1" d="m131.19,66.44h0l-1.64-1.23v-.07c.55-.89,1.23-1.37,2.25-1.71h.07l.89,1.84-1.57,1.16Zm-1.57-1.3l1.5,1.16,1.43-1.09-.82-1.71c-.89.34-1.5.82-2.12,1.64Z"/>
      <path class="cls-1" d="m149.36,65.62l-1.09-1.16h0l1.09-1.84h.07c.89.61,1.43,1.23,1.78,2.12h0l-.82.55-.34.14-.68.21Zm-1.02-1.16l1.02,1.09.61-.2.34-.14.75-.48c-.34-.82-.82-1.43-1.71-1.98l-1.02,1.71Z"/>
      <path class="cls-1" d="m148.41,58.44c-.14,0-.27-.14-.48-.34-.14-.2-.34-.34-.55-.55-.07-.07-.2-.2-.27-.34h0l1.02-1.71h.07c.68.27,1.16.75,1.71,1.37h0l-.14.89h0l-.14.14v-.14c-.27-.07-.41.07-.61.2-.07.07-.14.14-.2.14-.21.27-.27.34-.41.34Zm-1.23-1.3c.07.14.2.2.27.27.2.2.34.41.55.55q.34.41.82.07c.07-.07.14-.07.14-.14.14-.2.34-.34.68-.27l.14-.82c-.48-.61-1.02-1.02-1.64-1.3l-.96,1.64Z"/>
      <path class="cls-1" d="m182.98,10.82h-.2l-1.5-.2-.07-2.05h0c.82-.2,1.43-.07,2.05.14.2.07.34.14.41.27.07.14.07.27,0,.48l-.68,1.37Zm-1.57-.34l1.57.27.61-1.43c.07-.14.07-.27.07-.41-.07-.14-.14-.2-.34-.27-.55-.2-1.16-.34-1.91-.14v1.98Z"/>
      <path class="cls-1" d="m133.31,41.02l-1.71-.27v-.07l-.14-2.05h.07c.96-.2,1.71,0,2.53.55h0l-.75,1.84Zm-1.57-.27l1.57.2.75-1.71c-.82-.48-1.5-.68-2.39-.48l.07,1.98Z"/>
      <path class="cls-1" d="m116.56,43l-1.43-.27h0c-.27-.61-.2-1.23-.14-1.84v-.2h0c.82-.27,1.43,0,2.12.34.07.07.2.07.27.14h0v.07c-.14.68-.48,1.23-.82,1.78h0Zm-1.3-.41l1.3.27.07-.07c.34-.55.68-1.02.75-1.71-.07-.07-.2-.07-.27-.14-.61-.27-1.23-.55-1.98-.34v.14c-.07.68-.14,1.3.14,1.84Z"/>
      <path class="cls-1" d="m166.38,12.73l-1.57-.34-.07-2.05h0c.75-.27,1.37-.07,1.91.2.14.07.27.14.48.14h0c0,.55-.2.96-.48,1.43-.07.2-.2.41-.27.61h0Zm-1.5-.41l1.43.34c.07-.2.2-.34.27-.55.27-.41.48-.82.48-1.3-.14-.07-.27-.14-.41-.14-.61-.2-1.16-.41-1.84-.2l.07,1.84Z"/>
      <path class="cls-1" d="m161.94,61.38l-1.02-1.78h0c.82-.61,1.5-.82,2.39-.82h.07l.27,2.12-.48.2-1.23.27Zm-.96-1.78l.96,1.64,1.5-.55-.2-1.91c-.75.07-1.43.27-2.25.82Z"/>
      <path class="cls-1" d="m135.56,61.93h0l-1.91-1.09.48-.61.96-1.37h.07c.55.27.89.68,1.23,1.16.14.14.2.27.34.41h0l-1.16,1.5Zm-1.78-1.09l1.78.96,1.02-1.3c-.14-.14-.2-.27-.34-.41-.34-.41-.61-.82-1.16-1.09l-1.3,1.84Z"/>
      <path class="cls-1" d="m155.65,58.31c-.27,0-.61-.07-1.16-.2h0l-.2-1.91h.07c.96-.27,1.71-.14,2.6.41h0v.07c0,.07-.07.14-.07.2-.07.14-.07.2-.14.34-.41.82-.61,1.09-1.09,1.09Zm-1.09-.27q1.5.34,2.05-.96c.07-.07.07-.2.14-.34,0-.07.07-.07.07-.14-.82-.48-1.5-.61-2.46-.34l.2,1.78Z"/>
      <path class="cls-1" d="m188.79,13.82l-.96-1.84h0c.68-.55,1.37-.75,2.39-.89h.07l.07,2.12-1.57.61Zm-.89-1.78l.89,1.71,1.5-.55-.07-1.98c-.96.07-1.64.27-2.32.82Z"/>
      <path class="cls-1" d="m158.04,61.04l-.89-1.71,1.71-1.23h0c.55.61.89,1.23,1.16,2.05h0l-.75.48-.55.2-.68.2Zm-.82-1.64l.82,1.57.68-.14.48-.2.68-.41c-.27-.75-.55-1.37-1.09-1.98l-1.57,1.16Z"/>
      <path class="cls-1" d="m112.81,44.57l-1.78-.96v-.07c.27-.75.68-1.37,1.5-2.05h0l1.37,1.64-1.09,1.43Zm-1.71-1.02l1.64.89,1.02-1.3-1.3-1.5c-.68.68-1.09,1.23-1.37,1.91Z"/>
      <path class="cls-1" d="m166.04,62.2l-1.23-1.16h0l1.09-1.71h.07c.89.34,1.37.96,1.91,1.71v.07l-1.09.75-.75.34Zm-1.09-1.16l1.16,1.09.68-.34.27-.2.75-.48c-.55-.75-1.02-1.3-1.78-1.64l-1.09,1.57Z"/>
      <path class="cls-1" d="m175.33,10.89h0l-1.37-1.3,1.09-1.78h.07c.75.34,1.23.89,1.84,1.5h0l-1.64,1.57Zm-1.23-1.3l1.3,1.23,1.43-1.37c-.55-.68-1.02-1.16-1.71-1.43l-1.02,1.57Z"/>
      <path class="cls-1" d="m125.72,41.09l-1.37-1.23.41-.68.61-1.09h.07c.82.27,1.3.82,1.84,1.37h0c-.14.48-.48.75-.82.96-.34.27-.55.48-.75.68h0Zm-1.3-1.16l1.3,1.09c.2-.2.41-.34.61-.55.34-.27.68-.48.82-.89-.48-.48-.96-1.02-1.71-1.3l-1.02,1.64Z"/>
      <path class="cls-1" d="m193.03,14.64l-1.16-1.3,1.02-1.64h.07c.82.41,1.3.89,1.84,1.71v.07l-1.78,1.16Zm-1.09-1.37l1.09,1.23,1.57-1.09c-.48-.75-.96-1.23-1.71-1.64l-.96,1.5Z"/>
      <path class="cls-1" d="m121.55,40.06l-1.23-1.71h0c.75-.68,1.57-.96,2.53-.96h.07v2.12l-1.37.55Zm-1.09-1.71l1.16,1.57,1.23-.48v-1.98c-.96,0-1.71.27-2.39.89Z"/>
      <path class="cls-1" d="m147.72,45.32c-.07,0-.14,0-.27-.07-.27-.07-.48-.27-.55-.55-.14-.34-.2-.75-.27-1.16-.07-.2-.07-.41-.14-.61v-.07h.07c1.09-.2,1.98.14,2.8,1.09h0c-.27.48-.68.75-1.09,1.02-.07.07-.2.14-.27.2-.07.14-.14.14-.27.14Zm-1.09-2.32c.07.2.07.41.14.55.07.41.2.82.27,1.16.07.2.27.41.48.48s.34.07.48,0c.07-.07.2-.14.27-.2.34-.27.75-.55,1.02-.96-.82-.89-1.57-1.16-2.66-1.02Z"/>
      <path class="cls-1" d="m143.28,44.98h0l-1.09-1.3.27-.48.68-1.37h.07c.82.34,1.37.89,1.84,1.71h0l-1.78,1.43Zm-1.02-1.37l1.02,1.16,1.57-1.23c-.48-.82-.96-1.3-1.71-1.64l-.89,1.71Z"/>
      <path class="cls-1" d="m184.96,13.41l-.89-1.71,1.71-1.16h0c.61.55.96,1.23,1.09,2.05v.07h-.07l-1.84.75Zm-.82-1.71l.82,1.57,1.78-.68c-.14-.82-.48-1.43-1.02-1.98l-1.57,1.09Z"/>
      <path class="cls-1" d="m139.25,44.03h0c-.41-.34-.61-.75-.89-1.23-.07-.14-.2-.34-.27-.48h0c.55-.48,1.23-.68,1.91-.82.07,0,.2-.07.27-.07h0c.34.61.27,1.16.27,1.71v.34h0l-1.3.55Zm-1.02-1.78c.07.14.2.34.27.48.2.41.41.82.82,1.16l1.3-.55v-.27c0-.55,0-1.09-.27-1.64-.07,0-.2.07-.27.07-.68.14-1.3.27-1.84.75Z"/>
      <path class="cls-1" d="m139.46,60.43l-1.5-.41v-2.05h.07c.82-.14,1.5.14,2.39.55h.07l-1.02,1.91Zm-1.43-.48l1.37.34.89-1.71c-.89-.41-1.5-.61-2.25-.55v1.91Z"/>
      <path class="cls-1" d="m197.47,15.05c-.07,0-.2,0-.27-.07-.27-.07-.48-.27-.55-.48-.14-.41-.2-.82-.34-1.16-.07-.14-.07-.34-.14-.48v-.07h.07c1.09-.34,2.05,0,2.8,1.09h0c-.14.07-.27.2-.34.34-.27.27-.61.48-.89.75-.07.07-.21.07-.34.07Zm-1.09-2.19c.07.14.07.34.14.48.07.41.2.82.34,1.16.07.2.27.34.48.41.2.07.41.07.48,0,.34-.2.61-.48.89-.75.14-.07.2-.2.34-.27-.82-.96-1.71-1.3-2.66-1.02Z"/>
      <path class="cls-1" d="m170.61,62.75h0c-.89-.27-.96-.89-1.09-1.5-.07-.27-.07-.55-.2-.82v-.07h.07c1.3-.27,2.19.07,2.8,1.09h0l-.07.07c-.07.07-.14.14-.2.2-.27.2-.61.48-.89.68l-.41.34Zm-1.16-2.25c.07.27.14.48.2.75.14.61.2,1.16.96,1.43l.27-.2c.27-.2.61-.48.89-.68.07-.07.14-.14.2-.2l.07-.07c-.61-.96-1.37-1.3-2.6-1.02Z"/>
      <path class="cls-1" d="m171.43,9.59c-.34,0-.55-.27-.96-.89-.07-.14-.2-.27-.27-.41-.07-.07-.07-.14-.14-.2h0c.68-.82,1.37-1.09,2.39-.96h.07v1.91h0v-.07.07c-.55.41-.82.55-1.09.55Zm-1.23-1.43c0,.07.07.07.07.14.07.14.14.27.27.34q.75,1.02,1.91.41v-1.78c-.96-.07-1.64.2-2.25.89Z"/>
      <path class="cls-1" d="m177.1,21.48l-.14-.68c-.14-.55-.27-1.09-.41-1.57,0-.07-.07-.2,0-.27.14-.2.34-.48.48-.68.07-.07.14-.14.2-.27h0c.14.07.2.14.34.2.2.14.41.27.68.14.14-.07.27,0,.34.14s.07.27,0,.34c-.14.2-.07.34,0,.48.07.07.07.2.07.27h0l-1.57,1.91Zm.21-3.42c-.07.07-.14.14-.14.2-.14.2-.34.48-.48.68v.2c.14.48.27,1.02.41,1.57l.14.48,1.5-1.78c0-.07-.07-.14-.07-.2-.07-.14-.2-.34,0-.55.07-.07.07-.2,0-.27,0,0-.14-.14-.27-.07-.34.14-.55,0-.75-.14-.21,0-.27-.07-.34-.14Z"/>
      <path class="cls-1" d="m159,64.32h0c-.41-.75-.55-1.5-.61-2.12,0-.2.07-.48.2-.68.07-.07.07-.2.14-.27h0c.14-.07.34-.14.48-.2h.07v.07c.2.41.55.41.96.34h.14v.07c.41,1.16-.27,1.84-.96,2.53-.14,0-.27.14-.41.27h0Zm-.2-3.07c-.07.07-.07.2-.14.27-.14.2-.2.48-.2.61.07.61.14,1.3.55,1.98.14-.14.2-.2.34-.34.68-.68,1.3-1.3.96-2.46h-.07c-.34.07-.75.07-1.02-.34-.14.2-.27.2-.41.27Z"/>
      <path class="cls-1" d="m135.22,43.62h0l-.75-1.57,1.57-1.3h0c.55.55.89,1.16,1.09,1.98h0l-.82.48-.34.14-.75.27Zm-.68-1.57l.75,1.43.75-.14.34-.14.75-.41c-.2-.75-.55-1.37-1.09-1.91l-1.5,1.16Z"/>
      <path class="cls-1" d="m144.37,57.35l-1.3-1.57h.07c.89-.68,1.57-.96,2.46-.89h.07l.14,1.91-1.43.55Zm-1.16-1.57l1.16,1.5,1.3-.55-.14-1.78c-.82-.07-1.5.14-2.32.82Z"/>
      <path class="cls-1" d="m136.11,47.1v-.07c-.07-.2-.14-.48-.14-.68-.14-.48-.2-.82-.34-1.23-.14-.48.07-.82.34-1.16.07-.14.2-.27.27-.41h.14c.27.27.48.48.89.48.14,0,.27.14.34.2q.07.07.14.14h.07l-.2.2c.14.41.07.75-.27,1.09-.27.27-.48.55-.75.89-.14.14-.27.34-.48.55h0Zm.14-3.48c-.07.14-.14.27-.27.41-.2.34-.48.61-.34,1.09.14.41.2.75.34,1.23.07.2.07.34.14.55.14-.14.27-.27.34-.41.27-.34.48-.61.75-.89.34-.34.41-.61.2-1.02h0l.14-.14c-.07,0-.07-.07-.14-.14-.14-.07-.2-.2-.27-.2-.34.07-.61-.2-.89-.48.07,0,.07.07,0,0Z"/>
      <path class="cls-1" d="m185.85,16.9l-.61-2.46.68-.96,1.37.34h0c.27.75.07,1.37-.48,1.91-.2.14-.34.41-.55.61-.14.21-.27.34-.41.55h0Zm-.55-2.46l.55,2.25c.14-.14.2-.27.27-.34.2-.27.34-.48.61-.68.55-.48.68-1.02.48-1.78l-1.3-.34-.61.89Z"/>
      <path class="cls-1" d="m162.48,14.3h0l-1.84-1.02v-.07c.41-.75.82-1.37,1.57-1.91h0l1.3,1.57-1.02,1.43Zm-1.71-1.09l1.71.96.96-1.3-1.23-1.43c-.68.48-1.09,1.09-1.43,1.78Z"/>
      <path class="cls-1" d="m167.68,65h0c-.48-.41-.61-.89-.82-1.3-.07-.14-.14-.34-.2-.48h0l.34-1.23h0q.07-.07.14-.14h0l1.37.34h0c.55,1.02-.07,1.78-.75,2.6l-.07.21Zm-.96-1.78c.07.14.14.27.2.48.14.41.34.82.75,1.16l.07-.14c.61-.82,1.23-1.57.75-2.53l-1.3-.27q-.07.07-.14.14l-.34,1.16Z"/>
      <path class="cls-1" d="m150.11,68.97h0c-.07-.27-.14-.48-.2-.68-.14-.48-.27-.96-.27-1.43,0-.27.14-.48.34-.75.07-.07.14-.2.2-.27h0l1.43.34h0c.34,1.02-.14,1.78-1.5,2.8h0Zm.14-3.14c-.07.07-.14.2-.2.27-.14.2-.34.48-.34.68,0,.48.14.96.27,1.43.07.2.07.34.14.55,1.23-.89,1.64-1.64,1.37-2.66l-1.23-.27Z"/>
      <path class="cls-1" d="m144.85,47.72h0c-.48-.55-.82-1.09-.96-1.78-.07-.27.07-.61.2-.96.07-.07.07-.2.14-.27.07-.14.34-.14.41-.14s.14.07.2.07.14.07.2.07c.14,0,.2,0,.34-.07.07,0,.14,0,.2-.07h0c.61,1.23,0,2.05-.68,2.94l-.07.21Zm-.27-3.01c-.14,0-.27,0-.27.07s-.07.2-.14.27c-.14.34-.27.61-.2.89.14.61.48,1.16.89,1.64h0c.68-.82,1.3-1.64.68-2.8q-.07,0-.14.07c-.14.07-.2.07-.34.07-.07,0-.2-.07-.27-.07,0-.14-.07-.14-.21-.14h0Z"/>
      <path class="cls-1" d="m194.6,17.51h0c-.48-.61-.82-1.16-.96-1.84-.07-.27.07-.61.2-.89.07-.07.07-.2.14-.27.07-.14.27-.14.41-.14.27,0,.48.07.75.07.14,0,.2,0,.34.07h0c.07.14,0,.27,0,.41,0,.27,0,.48.2.68.07.07-.07.34-.07.34-.2.34-.41.68-.68,1.09l-.34.48Zm-.34-3.07c-.14,0-.27.07-.27.07,0,.07-.07.2-.14.27-.14.27-.27.61-.2.89.14.61.48,1.16.89,1.71l.2-.34c.2-.34.48-.75.68-1.09.07-.14.14-.2.14-.27-.2-.2-.2-.48-.2-.75v-.34c-.14,0-.2,0-.34-.07-.2,0-.48-.07-.75-.07q.07,0,0,0Z"/>
      <path class="cls-1" d="m123.06,47.37c-.14,0-.2,0-.34-.07h0c0-.07-.07-.14-.07-.2-.07-.27-.14-.48-.55-.41h0l-.48-.41h.07l.07-.07c.07,0,.07-.07.07-.07.2-.89.96-1.02,1.71-1.16l.2-.07v.07l.41,1.98h0c-.07.07-.14.07-.2.14-.34.14-.61.27-.89.27Zm-.27-.14c.41.14.75-.07,1.09-.27.07-.07.14-.07.2-.14l-.41-1.84h-.07c-.75.14-1.43.27-1.64,1.09,0,.07-.07.07-.14.14h0l.34.34c.41-.07.48.2.61.41-.07.14-.07.2,0,.27Z"/>
      <path class="cls-1" d="m159.61,21.34h0c-.07-.14-.14-.27-.27-.41-.2-.34-.41-.61-.61-.96-.07-.14,0-.41.14-.55.07-.14.34-.14.48-.07.34.14.68.34,1.02.55.14.07.27.14.41.2h0c-.07,1.09-.14,1.16-1.16,1.23h0Zm-.34-1.98c-.14,0-.27.07-.27.07-.07.14-.2.34-.14.48.2.34.41.68.61.96.07.14.14.2.2.34q.96-.14,1.09-1.09c-.14-.07-.27-.14-.34-.2-.34-.2-.68-.41-1.02-.55-.07.07-.14,0-.14,0Z"/>
      <path class="cls-1" d="m132.69,69.04h0c-.07-.14-.2-.27-.27-.41-.2-.27-.41-.61-.61-.96-.07-.14,0-.48.14-.55.14-.14.41-.2.55-.14.34.14.61.34.96.55.14.07.27.14.41.2h0c-.07,1.09-.07,1.16-1.16,1.3h0Zm-.34-1.98c-.14,0-.27.07-.34.14-.07.07-.14.34-.07.48.2.34.41.61.61.96.07.14.14.2.2.34q.96-.14,1.09-1.09c-.14-.07-.27-.14-.41-.2-.34-.2-.61-.34-.96-.55q-.07-.07-.14-.07Z"/>
      <path class="cls-1" d="m56.91,73.41h0l-.75-.34,1.16-1.98,1.02.82h0c-.07.2-.2.41-.34.55-.14.2-.34.34-.2.61v.07l-.89.27Zm-.61-.34l.61.27.82-.2c-.07-.27.07-.48.27-.68.14-.14.27-.27.27-.48l-.89-.75-1.09,1.84Z"/>
      <path class="cls-1" d="m46.66,71.29l-1.37-1.84h0c.48-.48.96-.75,1.64-.55h.07v.68c.07.48.07,1.02-.34,1.71h0Zm-1.23-1.84l1.23,1.64c.34-.55.34-1.09.27-1.57v-.55c-.61-.14-1.02.07-1.5.48Z"/>
      <path class="cls-1" d="m51.72,71.7h-.07c-.14-.07-.27-.2-.34-.34-.07-.41-.07-.75-.07-1.16v-.68l1.43.14v.07c.07.82-.34,1.37-.61,1.91-.14,0-.2.07-.34.07Zm-.41-2.12v.55c0,.41,0,.82.07,1.16,0,.14.14.27.27.27s.2,0,.27-.14c.34-.48.68-1.02.61-1.78l-1.23-.07Z"/>
      <path class="cls-1" d="m44.54,74.5h0c-.14-.14-.27-.27-.34-.41-.27-.34-.61-.68-.89-.96-.07-.07-.2-.07-.41,0h-.34l.14-.68.41-.07h0c.14.14.27.2.34.2.14,0,.27-.14.34-.34.07-.14.2-.27.34-.34h0c.2.2.07.41,0,.61-.07.14-.14.2-.14.34.41.34.89.68.82,1.43h0l-.27.2Zm-1.43-1.5c.07,0,.2,0,.2.07.34.34.61.68.89,1.02.07.14.2.2.27.34l.27-.14c.07-.68-.41-1.02-.75-1.37h0c0-.14.07-.27.14-.41.07-.14.14-.27.07-.48-.07.07-.2.2-.27.27-.14.14-.2.34-.41.34-.14,0-.27-.07-.41-.2h-.27l-.07.55h.2c-.07,0,.07,0,.14,0Z"/>
      <path class="cls-1" d="m136.04,50.65c-.07,0-.14,0-.2-.07,0,0-.07,0-.07-.07h0l-.07-.27h0l1.71-.96h0c.27.14.34.34.34.48,0,.07-.07.2-.2.27-.41.2-.82.34-1.23.48-.07.07-.14.07-.27.14h0Zm-.2-.2h.07c.07,0,.14.07.14.07.07-.07.2-.07.27-.14.41-.14.82-.27,1.23-.48.07-.07.14-.14.14-.2s-.07-.2-.27-.34l-1.64.89.07.21Z"/>
      <path class="cls-1" d="m148.54,46.49c-.07,0-.14-.07-.27-.14-.07-.07-.14-.14-.27-.14l-.07-.07.07-.07c.2-.07.34-.2.48-.27.41-.2.82-.41,1.23-.55.07-.07.2,0,.34.07.07,0,.07.07.14.07h.07v.07c0,.07-.07.07-.07.14-.07.14-.07.2-.14.27-.55.21-1.02.41-1.5.61,0-.07,0,0,0,0Zm-.41-.34c.07.07.14.07.2.14s.2.14.2.14c.48-.14.96-.34,1.37-.61.07,0,.07-.14.14-.2,0,0,0-.07.07-.07,0,0-.07,0-.07-.07-.07-.07-.2-.07-.27-.07-.41.14-.75.34-1.23.55-.14.07-.27.14-.41.2Z"/>
      <path class="cls-1" d="m185.85,20.32c-.14,0-.27,0-.41-.07h-.07l.07-.07c.41-.48.89-.68,1.43-.89.07,0,.14-.07.2-.07s.2.07.34.2c.07.07.14.07.14.14l.07.07-.07.07c-.68.34-1.23.61-1.71.61Zm-.34-.14c.55.14,1.16-.07,1.91-.68-.07,0-.07-.07-.14-.07-.07-.07-.2-.14-.2-.14h0c-.07,0-.14.07-.2.07-.48.14-1.02.34-1.37.82Z"/>
      <path class="cls-1" d="m171.09,63.98v-.07c.07-.68.2-.82,1.64-1.37h0c.14.14.27.27.2.41,0,.14-.14.27-.34.34-.14.07-.2.14-.41.2-.27.07-.48.2-.75.34l-.34.14Zm1.64-1.37c-1.37.55-1.5.68-1.57,1.23l.34-.14c.27-.14.55-.2.75-.34.14-.07.27-.14.41-.2s.27-.2.27-.27-.07-.14-.21-.27Z"/>
      <path class="cls-1" d="m198.29,16.22c-.07,0-.14-.07-.27-.07-.07,0-.07-.07-.14-.07h0v-.27h0c.14-.07.27-.14.41-.2.34-.2.75-.34,1.09-.55.07-.07.2,0,.34.07.07,0,.14.07.14.07h.07v.07c0,.07-.07.07-.07.14-.07.14-.07.2-.2.27-.41.14-.89.34-1.37.55h0Zm-.34-.2q.07,0,.14.07c.07.07.2.07.2.07.48-.14.89-.34,1.3-.55.07,0,.14-.14.14-.2,0,0,0-.07.07-.07q-.07,0-.14-.07c-.14-.07-.2-.14-.27-.07-.34.14-.75.34-1.09.55-.14.07-.27.14-.34.2v.07Z"/>
      <path class="cls-1" d="m158.66,67.94h-.07.07c.27-.68.75-.89,1.3-1.09.07,0,.14-.07.2-.07h.14c.07,0,.14.07.14.14,0,.14,0,.34-.07.41-.48.34-1.02.61-1.71.61Zm1.5-1.09h0c-.07,0-.14.07-.2.07-.48.2-1.02.41-1.3.89.61,0,1.16-.27,1.64-.55.07,0,.07-.2.07-.34,0,.07-.14-.07-.2-.07Z"/>
      <path class="cls-1" d="m55.07,72.86h-.2l-.2-.07c-.14-.07-.27-.07-.41-.14-.14,0-.2-.07-.34-.07l-.2-.07-.07-.27.96-.41.61.96h-.07c0,.07-.07.07-.07.07Zm-.2-.14h.27l-.48-.82-.89.41v.14h.14c.14,0,.2.07.34.07.14.07.27.07.41.14l.2.07Z"/>
      <path class="cls-1" d="m122.71,48.06h-.14c-.14,0-.2,0-.2-.07-.07-.34-.2-.68-.27-1.02,0-.07-.07-.2-.07-.27v-.07h.07c.41-.07.55.2.61.41,0,.07.07.14.07.2h0l-.07.82Zm-.27-.14h.2v-.68c0-.07-.07-.14-.07-.2-.07-.2-.14-.41-.48-.41,0,.07.07.14.07.2.07.41.14.75.27,1.09Z"/>
      <path class="cls-1" d="m42.36,75.39l-.34-.14v-.2c0-.14.07-.34.2-.48.14-.07.27-.07.55-.07h.07l-.48.89Zm-.2-.2l.2.07.41-.61c-.2,0-.34,0-.41.07-.14.07-.14.2-.14.41-.07,0-.07.07-.07.07Z"/>
      <path class="cls-1" d="m134.67,50.52l-.41-.82h0c.14-.07.27-.14.41-.07.14.07.27.2.34.34h0l-.34.55Zm-.27-.82l.27.61.27-.41c-.07-.14-.14-.27-.27-.27-.07,0-.14,0-.27.07Z"/>
      <path class="cls-1" d="m57.05,73.68l-.2-.34.89-.2h0l.07.07h-.07l-.07.07h0l-.61.41Zm-.07-.34l.07.2.61-.34h0l-.68.14Z"/>
      <path class="cls-1" d="m151.21,59.33h0c-.2-.2-.48-.41-.34-.82v-.07h.07c.34,0,.48.27.55.55v.07l-.27.27Zm-.27-.75c-.07.27.07.48.27.61l.14-.2c-.07-.14-.14-.34-.41-.41Z"/>
      <path class="cls-1" d="m39.49,75.46c-.07,0-.2-.07-.27-.07h-.07v-.68l.68.48v.07c-.14.14-.27.2-.34.2Zm-.27-.14h0c.2.07.34.14.48-.07l-.48-.34v.41Z"/>
      <path class="cls-1" d="m48.37,75.46v-.48l.07-.07c.2-.14.41-.27.68.14v.07l-.75.34Zm.07-.41v.27l.55-.2c-.2-.27-.34-.2-.55-.07h0Z"/>
      <path class="cls-1" d="m127.43,48.95h-.2l-.07-.55h.07c.07,0,.2,0,.27-.07h.07l-.14.61Zm-.14-.07h.07l.07-.41h-.2l.07.41Z"/>
      <path class="cls-1" d="m184.48,19.91l-.41-.48h.07c.41-.2.48,0,.61.2v.07h0c-.07.07-.14.14-.27.21h0Zm-.27-.41l.27.27.14-.14h0c-.07-.14-.14-.27-.41-.14Z"/>
      <path class="cls-1" d="m158.72,61.31v-.48l.61-.2v.48h0c-.27.07-.41.07-.61.2h0Zm.07-.48v.27c.14-.07.27-.07.41-.14v-.34l-.41.2Z"/>
      <path class="cls-1" d="m40.17,76.96l-.07-.89v-.07l.07-.14v.14l.34.89-.34.07Zm.07-.61v.48h.2l-.2-.48Z"/>
      <path class="cls-1" d="m145.06,64.66l-.2-.61h.07c.41,0,.48.27.55.48v.07l-.41.07Zm-.07-.48l.14.41h.27c-.07-.27-.14-.41-.41-.41Z"/>
      <path class="cls-1" d="m168.97,12.53l-.41-.48.68.07-.27.41Zm-.2-.41l.2.27.14-.2-.34-.07Z"/>
      <path class="cls-1" d="m51.45,75.87l-.07-.48h.61l-.55.48Zm.07-.34v.2l.2-.2h-.2Z"/>
      <path class="cls-1" d="m58.35,73.54l-.68-.27h0c0-.07,0-.14.07-.2h0l.48-.07h0l.07.07h0l.07.48Zm-.61-.34l.48.2v-.27h0l-.48.07c.07,0,0,0,0,0Z"/>
      <path class="cls-1" d="m72.15,78.87v-.07c-.07-.34.14-.41.34-.48l.14-.07-.48.61Zm.2-.48c-.07.07-.14.14-.14.2l.14-.2Z"/>
      <polygon class="cls-1" points="120.25 80.31 120.19 80.31 120.46 79.76 120.53 79.83 120.25 80.31"/>
      <path class="cls-1" d="m166.99,62.13l-.27-.27.34-.27.14.34h0c-.07.07-.14.14-.21.21h0Zm-.14-.34l.14.14.07-.07-.07-.2-.14.14Z"/>
      <path class="cls-1" d="m128.86,49.97l.07-.89.07.2c0,.07.07.07.07.14.07.14.14.2.07.34,0,.07-.07.14-.2.2h-.07Zm.14-.55v.34c.07,0,.07-.07.07-.14,0,0,0-.07-.07-.2Z"/>
      <path class="cls-1" d="m48.1,74.84h-.55v-.07l.07-.55.41.2.07.41Zm-.41-.07h.34v-.27l-.27-.14-.07.41Z"/>
      <path class="cls-1" d="m104.4,33.57l-.48-.48h.07c.14,0,.2,0,.27.07.07.07.07.14.07.27l.07.14Zm-.2-.34l.2.2q0-.07-.07-.14t-.14-.07Z"/>
      <polygon class="cls-1" points="120.73 76.48 120.53 76.21 120.6 76.14 120.8 76.48 120.73 76.48"/>
      <path class="cls-1" d="m136.31,43.68h-.07l-.27-.27.48-.2-.14.48h0Zm-.07-.14s.07,0,0,0l.07-.27-.2.07.14.2Z"/>
      <path class="cls-1" d="m150.18,65.55c-.07,0-.14-.07-.2-.14l-.07-.07.48-.2v.07c0,.2-.07.34-.2.34q.07,0,0,0Zm-.07-.14c.07.07.14.07.14.07.07,0,.07-.07.07-.14l-.2.07Z"/>
      <path class="cls-1" d="m110.82,47.99v-.48l.41.48h-.41Zm.14-.27v.2h.14l-.14-.2Z"/>
      <path class="cls-1" d="m58.76,74.91h-.41l.27-.34v-.07h.14v.41Zm-.2-.14h.14v-.14l-.14.14Z"/>
      <path class="cls-1" d="m53.29,75.66l.14-.41.34.34-.48.07Zm.2-.27l-.07.14h.2l-.14-.14Z"/>
      <path class="cls-1" d="m40.31,74.3l-.07-.55.41.2-.34.34Zm0-.34v.14l.07-.14h-.07Z"/>
      <path class="cls-1" d="m114.04,48.06l.27-.27.27.2-.55.07Z"/>
      <polygon class="cls-1" points="119.23 74.16 119.23 74.09 119.23 73.82 119.3 73.82 119.37 74.09 119.23 74.16"/>
      <rect class="cls-3" x="106.56" y="47.87" width=".2" height=".07" transform="translate(-5.33 81.52) rotate(-40.89)"/>
      <path class="cls-1" d="m28.83,33.16l.2-.41.2.27-.41.14Zm.2-.2l-.07.07.07-.07h0Z"/>
      <polygon class="cls-1" points="125.99 48.06 125.93 47.99 126.13 47.78 126.13 47.85 125.99 48.06"/>
      <polygon class="cls-1" points="50.01 72.18 49.94 71.9 50.08 71.84 50.15 72.18 50.01 72.18"/>
      <path class="cls-1" d="m138.36,32.34h-.41l.2-.34.2.34Zm-.27-.07h.07-.07Z"/>
      <polygon class="cls-1" points="127.63 69.58 127.63 69.58 127.36 69.38 127.43 69.31 127.63 69.51 127.63 69.58"/>
      <path class="cls-1" d="m164.05,18.13v-.61l.07.07c.14.07.14.14.2.2,0,.14-.07.2-.14.27l-.14.07Zm.07-.48v.2q.07-.07.07-.14t-.07-.07Z"/>
      <path class="cls-1" d="m120.46,48.06v-.55l.07.07c.07.07.14.14.14.27,0,.07-.07.14-.2.2h0Zm.07-.27v.2c.07,0,.07-.07.07-.07,0-.07-.07-.14-.07-.14Z"/>
      <polygon class="cls-1" points="128.04 50.93 127.98 50.86 127.98 50.86 128.11 50.72 128.18 50.79 128.04 50.93"/>
      <rect class="cls-5" x="34.86" y="65.02" width=".2" height=".07" transform="translate(-31.89 33.68) rotate(-36.6)"/>
      <polygon class="cls-1" points="35.25 64.94 35.18 64.87 35.39 64.73 35.46 64.8 35.46 64.8 35.25 64.94"/>
      <polygon class="cls-1" points="45.84 72.38 45.71 72.11 45.84 72.04 45.84 72.38"/>
      <polygon class="cls-1" points="31.9 14.23 31.84 14.17 31.84 14.17 31.97 14.03 31.97 14.1 31.9 14.23"/>
      <polygon class="cls-1" points="37.51 62.41 37.44 62.34 37.57 62.2 37.64 62.2 37.51 62.41"/>
      <path class="cls-1" d="m55.34,73.13l-.41-.34h.27l.14.34Z"/>
      <path class="cls-1" d="m58.28,73.2l-.14-.14h.07c.07-.07.14-.07.2-.14l.07-.07v.27h-.07s-.07.07-.14.07h0Zm0-.14h.14v-.07q-.07.07-.14.07Z"/>
      <polygon class="cls-1" points="40.38 73.34 40.31 73.27 40.44 73.13 40.51 73.13 40.38 73.34"/>
      <polygon class="cls-1" points="137.61 44.64 137.54 44.57 137.68 44.37 137.75 44.44 137.61 44.64"/>
      <polygon class="cls-1" points="37.71 61.86 37.64 61.79 37.78 61.66 37.85 61.72 37.71 61.86"/>
      <path class="cls-1" d="m112.26,74.09v-.55l.07.2v.14s0,.07-.07.07h0v.14Z"/>
      <polygon class="cls-1" points="12.5 60.84 12.29 60.7 12.36 60.63 12.5 60.77 12.5 60.84"/>
      <rect class="cls-8" x="154.12" y="30.42" width=".2" height=".07" transform="translate(21.27 114.33) rotate(-43.42)"/>
      <path class="cls-1" d="m44.13,74.91l-.2-.07.27-.14v.07s0,.07-.07.14h0Z"/>
      <polygon class="cls-1" points="154.35 26.33 154.28 26.26 154.28 26.26 154.42 26.12 154.49 26.19 154.35 26.33"/>
      <rect class="cls-9" x="111.2" y="75.16" width=".2" height=".07" transform="translate(-17.37 113.73) rotate(-50.71)"/>
      <polygon class="cls-1" points="104.74 48.06 104.54 47.85 104.61 47.78 104.81 47.99 104.74 48.06"/>
      <polygon class="cls-1" points="110.14 47.92 109.87 47.92 109.87 47.78 110.14 47.85 110.14 47.92"/>
      <rect class="cls-7" x="113.56" y="47.81" width=".07" height=".2" transform="translate(-5.5 16.03) rotate(-7.88)"/>
      <rect class="cls-2" x="120.38" y="75.65" width=".07" height=".2" transform="translate(-19.42 101.92) rotate(-42.78)"/>
      <rect class="cls-4" x="62.12" y="78.25" width=".07" height=".2" transform="translate(-36.84 64.12) rotate(-43.39)"/>
      <path class="cls-1" d="m133.58,49.15l-.14-.07.07-.07c.07,0,.14.07.07.14h0Z"/>
      <polygon class="cls-1" points="93.26 79.28 93.2 79.22 93.26 79.08 93.33 79.15 93.26 79.28"/>
      <rect class="cls-6" x="120.45" y="79.32" width=".2" height=".07" transform="translate(-16.72 123.92) rotate(-51.34)"/>
      <polygon class="cls-1" points="93.06 79.83 92.99 79.76 93.13 79.63 93.2 79.69 93.06 79.83"/>
      <polygon class="cls-1" points="91.28 82.02 91.21 81.95 91.21 81.95 91.42 81.81 91.42 81.88 91.28 82.02"/>
      <path class="cls-1" d="m150.52,28.52h-2.12c-.41,0-.61-.2-.75-.48-.34-.61-.68-1.09-1.09-1.5-1.02-1.09-2.87-1.64-4.51-1.3-1.71.34-3.01,1.43-3.62,3.07h0l-.2.07h0c-.75-1.78-2.12-2.8-3.89-3.14-2.19-.34-4.3.68-5.26,2.53-.34.61-.68.82-1.37.82h-42.84c-.55,0-.96-.14-1.3-.75-.96-1.78-2.46-2.66-4.44-2.66h0c-1.98,0-3.42.89-4.51,2.66-.07.07-.07.14-.14.27l-.14.27-.07-.07c-.07-.07-.07-.14-.14-.2-.07-.14-.2-.27-.27-.34-1.02-1.71-2.53-2.6-4.44-2.6h-.14c-1.98,0-3.42.96-4.37,2.66-.27.55-.55.68-1.09.68h-4.24c-.07,0-.2,0-.27-.07h-.27v-.55c0-.34,0-.68-.07-.96v-6.49c0-3.69-.07-7.31-.07-11,0-1.78,0-3.55-.07-5.33v-1.37l.07-.07.07-.07h0l.07-.07h.07c.07,0,.2-.07.27-.07h92.66c.2.61.34,24.67.14,25.76h0c-.61.27-1.16.27-1.64.27Zm-1.43-.07h.68c.75,0,1.43.07,2.19-.14.2-1.37.07-24.6-.14-25.62H59.17c-.07,0-.14,0-.27.07h-.07l-.07.07-.07.07v1.37c0,1.78,0,3.55.07,5.33,0,3.69.07,7.31.07,11v6.49c0,.34,0,.61.07.96v.41h.14c.14,0,.2,0,.27.07h1.37c.96,0,1.91-.07,2.8,0h.07c.48,0,.75-.14,1.02-.68.96-1.78,2.46-2.66,4.44-2.73h.14c1.98,0,3.48.82,4.51,2.6.07.14.14.2.27.34l.14.14.07-.14c.07-.07.14-.2.14-.27,1.02-1.84,2.53-2.73,4.58-2.73h0c2.05,0,3.55.89,4.51,2.66.34.55.68.68,1.23.68h42.84c.68,0,.96-.2,1.3-.75,1.02-1.91,3.14-2.94,5.4-2.6,1.84.34,3.21,1.37,3.96,3.14h.14c.61-1.64,1.98-2.73,3.69-3.07s3.55.2,4.65,1.3c.41.41.75.89,1.09,1.5.2.27.34.48.68.48h.61c0,.07.07.07.14.07Z"/>
      <path class="cls-1" d="m125.31,71.56h-43.94v-.07l-.14-21.11h0c0-.07.07-.07.07-.07,0-.07.07-.07.07-.07l.07-.07h.14c.14,0,.27-.07.41-.07h42.71c.07,0,.14,0,.2.07q.07,0,.14.07h0v.27c0,.2,0,.41.07.61v4.92c0,3.14.07,6.35.07,9.5l.07,4.92v.68l.07.41Zm-43.87-.07h43.73v-1.02l-.07-4.92c0-3.14-.07-6.35-.07-9.5v-4.92c0-.2,0-.41-.07-.61v-.2q-.07,0-.14-.07c-.07,0-.14-.07-.14-.07h-42.71c-.14,0-.27,0-.41.07h-.2l-.07.07s0,.07-.07.07l.21,21.11Z"/>
      <path class="cls-1" d="m38.6,58.79c-.82,0-1.16-.27-1.5-.96-.48-1.02-1.3-1.78-2.46-2.12-1.16-.34-2.19-.55-3.21-.14-.55.2-1.16.48-1.64.75-.2.07-.34.2-.55.41-.07.07-.2.21-.34.27l-.07.07v-.07c-.2-1.71-.14-3.42-.14-5.06v-2.6h50.43v.07c.07,1.5.07,2.94.07,4.51v1.5h-.07l-11.34,1.02-.55,2.39h-6.76c-7.11-.07-14.55-.07-21.87-.07h0Zm-5.94-3.48c.61,0,1.3.14,1.98.34,1.23.34,2.05,1.09,2.53,2.19.27.68.68.89,1.43.89h28.63l.55-2.39h0l11.34-1.02v-1.37c0-1.5,0-2.94-.07-4.44H28.83v2.46c0,1.57,0,3.28.14,4.92.14-.07.2-.14.27-.2.2-.14.34-.27.55-.41.48-.27,1.02-.55,1.64-.75.41-.14.82-.2,1.23-.2Z"/>
      <path class="cls-1" d="m27.8,28.58c-.2,0-.48-.07-.89-.14h0v-.2c0-.14-.07-.27-.07-.48v-3.21c0-.48.14-.82.48-1.16.68-.75,1.43-1.5,2.12-2.25.61-.68,1.23-1.37,1.91-2.05,1.02-1.09,1.71-2.39,2.25-3.42v-.07h.07c.27.2.2.41.14.61v.07c-.14.34-.27.68-.41,1.09-.14.41-.34.89-.48,1.37-.07.2-.14.34-.14.55,0,.07-.07.14-.07.2.96.2,7.72.2,8.54,0,.2-1.16.14-8.34-.07-9.16h-4.17c-.61,0-.96.14-1.23.55l-.07.14v-.2c.07-.89.55-1.43,1.09-1.98,1.57-1.71,3.69-3.01,6.35-4.03,2.6-.96,5.33-1.64,8.13-1.91,1.09-.14,2.25-.2,3.28-.27.34,0,.75-.07,1.09-.07h1.02v.41c0,.2.07.41.07.55.07,7.65.14,15.58.14,24.12v.68h0c-.61.2-16.88.27-18.31.07h0c0-.07-.07-.14-.07-.2-.07-.14-.14-.34-.2-.55-.96-1.98-2.53-2.94-4.65-2.94h0c-2.12,0-3.69,1.02-4.65,3.01-.75.61-.89.89-1.23.89Zm-.89-.27c1.16.27,1.16.2,1.57-.68.96-1.98,2.53-3.01,4.71-3.01h0c2.12,0,3.69,1.02,4.71,3.01.07.2.14.34.2.55,0,.07.07.14.07.2,1.57.2,17.29.07,18.24-.07v-.61c-.07-8.61-.14-16.47-.14-24.12,0-.2,0-.34-.07-.55v-.27h-.89c-.34,0-.75.07-1.09.07-1.09.07-2.19.14-3.28.27-2.8.27-5.53.96-8.13,1.91-2.66,1.02-4.78,2.32-6.35,4.03-.48.48-.96,1.02-1.02,1.78.27-.34.68-.48,1.23-.48h4.24c.2.68.27,8.2.07,9.22h0c-.68.2-7.79.2-8.61,0h-.07v-.07c0-.07.07-.14.07-.27.07-.2.07-.34.14-.55.14-.48.34-.89.48-1.37.14-.34.27-.68.41-1.09v-.07c.07-.2.14-.34-.07-.48-.48,1.02-1.16,2.25-2.19,3.35-.61.68-1.3,1.37-1.91,2.05-.68.75-1.43,1.5-2.12,2.25-.34.34-.41.68-.41,1.09v3.21c0,.14,0,.27.07.41q.14.21.14.27Zm27.4-10.73h-8.75c-.2-.68-.2-11.62-.07-12.5v-.07h8.68c.27.75.34,11.62.14,12.57h0Zm-8.68-.07h8.54c.2-1.16.14-11.48,0-12.44h-8.54c-.2,1.16-.14,11.55,0,12.44Z"/>
      <path class="cls-1" d="m78.37,76.07h-6.01c-1.37-2.66-3.01-3.83-5.26-3.69-2.25.14-3.89,1.37-4.71,3.69h-1.43v-.07c-.07-.96-.07-1.71,0-2.46,0-.07,0-.14.07-.2,0-.07.07-.14,0-.2-.48-1.23.2-2.12.96-2.87.14-.14.27-.27.41-.41.07-.07.2-.2.27-.27.41-.41.75-.75,1.02-1.09.14-.14.2-.27.34-.41.2-.27.41-.48.61-.68.82-.61,1.3-1.43,1.84-2.25h0c.34-.55.75-1.16,1.3-1.71l.14-.14-1.43,3.96c.68.14,1.37.07,1.98.07h6.63c0-.07,0-.14.07-.2,0-.14.07-.27.07-.41v-8.13c0-.14,0-.27-.07-.41v-.2h0l.07-.2h0l3.14-.2v.07c.2.75.2,17.49,0,18.45h0Zm-5.94-.14h5.88c.2-1.16.14-17.29,0-18.38l-3.01.2-.07.14v.2c0,.14.07.27.07.41v8.13c0,.14,0,.27-.07.41,0,.07,0,.14-.07.27v.07h-6.7c-.68,0-1.37,0-2.05-.07h-.07l1.37-3.69c-.48.55-.89,1.09-1.16,1.57h0c-.48.82-1.02,1.64-1.84,2.25-.2.2-.41.41-.61.68-.14.14-.2.27-.34.41-.34.34-.68.68-1.02,1.09-.07.07-.2.2-.27.27-.14.14-.27.27-.41.41-.75.82-1.43,1.64-.96,2.8v.27c0,.07-.07.14-.07.14-.07.75-.07,1.5,0,2.39h1.3c.89-2.32,2.46-3.62,4.78-3.69,2.25-.14,3.96,1.03,5.33,3.69Z"/>
      <path class="cls-1" d="m26.51,58.72h-5.47l-.2-.2h0v-17.9h0l.2-.27h0c1.43-.07,2.87-.07,4.37-.07h1.23v18.45h0l-.07.07c0-.07-.07-.07-.07-.07Zm-5.4-.14h5.4l.07-.07v-18.31h-1.16c-1.5,0-2.94,0-4.37.07l-.14.2v17.9l.2.2Z"/>
      <path class="cls-1" d="m48.71,33.23c-5.74,0-10.93-.07-11.41-.14h-.07l1.09-2.39h0c.55-.14,24.67-.2,25.56,0h0c.27.75.55,1.5.82,2.32v.07h-.07c-.27.07-8.54.14-15.92.14Zm-11.27-.2c1.64.14,25.97.14,27.26-.07-.27-.75-.55-1.5-.75-2.25-1.23-.14-24.53-.14-25.49,0l-1.02,2.32Z"/>
      <path class="cls-1" d="m36.82,19.7c-1.98,0-3.96-.07-4.37-.14h-.07v-.07c0-.07.07-.14.07-.27.07-.2.07-.34.14-.55.14-.48.34-.89.48-1.37.14-.34.27-.68.41-1.09v-.07c.07-.2.14-.34-.07-.48h0v-.07c.14-.34.27-.61.41-.96.34-.75.61-1.5.96-2.25.14-.34.27-.75.41-1.16.07-.2.14-.34.2-.55h0c.27-.48.68-.61,1.37-.61h4.24c.2.68.27,8.2.07,9.22h0c-.34.34-2.25.41-4.24.41Zm-4.3-.27c.96.2,7.72.2,8.54,0,.2-1.16.14-8.34-.07-9.16h-4.17c-.61,0-.96.14-1.23.55-.07.2-.14.34-.2.55-.14.41-.27.75-.41,1.16-.34.75-.61,1.5-.96,2.25-.14.27-.27.61-.41.89.2.14.14.41.07.55v.07c-.14.34-.27.68-.41,1.09-.14.41-.34.89-.48,1.37-.07.2-.14.34-.14.55-.07,0-.14.07-.14.14Zm4.78-1.91h-1.84v-.07c.07-.14.07-.27.07-.34.07-.2.14-.41.14-.55.41-1.09.82-2.25,1.23-3.28.34-.96.41-.96,1.37-.96.14,0,.2,0,.34.07h.27v5.06h-.07c-.41.07-.96.07-1.5.07Zm-1.71-.14c1.02,0,2.19.07,3.35,0v-4.92h-.2c-.14,0-.27,0-.34-.07q-.96,0-1.3.89c-.41,1.02-.82,2.12-1.23,3.28-.07.14-.14.34-.14.55-.07.07-.14.21-.14.27Z"/>
      <path class="cls-1" d="m46.18,47.24c-2.05,0-3.96-.07-4.44-.14h-.07v-3.83h10.18v3.76h0c-.34.14-3.07.21-5.67.21Zm-4.3-.2c1.09.2,9.16.14,9.98-.07v-3.62h-9.98v3.69Z"/>
      <path class="cls-1" d="m75.36,47.17h-9.36v-3.89h9.36v3.89Zm-9.29-.14h9.16v-3.69h-9.16v3.69Z"/>
      <path class="cls-1" d="m98.32,47.17h-9.29v-3.76h0c.68-.2,7.79-.27,9.22-.07h.07v3.83Zm-9.22-.14h9.16v-3.69c-1.5-.14-8.34-.07-9.16.07v3.62Z"/>
      <path class="cls-1" d="m39.62,47.17h-9.02v-3.89h9.02v3.89Zm-8.95-.14h8.88v-3.69h-8.88v3.69Z"/>
      <path class="cls-1" d="m32.79,63.43c-.82,0-1.64-.27-2.19-.82-.61-.55-.89-1.37-.89-2.25-.07-.61.2-1.3.68-1.91.61-.68,1.5-1.09,2.25-1.09h0c1.71,0,3.07,1.3,3.07,3.01s-1.23,3.07-2.94,3.14q.07-.07,0-.07Zm-.07-6.01c-.75,0-1.64.41-2.19,1.09-.48.55-.75,1.23-.68,1.84h0c0,.89.34,1.64.89,2.19s1.37.82,2.19.82c1.64-.07,2.87-1.37,2.87-3.01-.07-1.64-1.37-2.87-3.07-2.94h0Z"/>
      <path class="cls-1" d="m115.81,80.86h-.2c-.68,0-1.43-.27-1.98-.89-.61-.61-.89-1.43-.82-2.19.14-1.71,1.43-3.01,3.07-3.01h0c.82,0,1.64.34,2.19.96s.82,1.3.82,2.05c-.07,1.16-.61,1.91-1.09,2.32-.61.48-1.3.75-1.98.75Zm-.27-.14h0c.75.07,1.5-.2,2.12-.68.41-.41.96-1.09,1.02-2.25.07-.75-.27-1.43-.75-1.98-.55-.61-1.37-.96-2.12-.96h0c-1.64,0-2.87,1.23-3.01,2.87-.07.75.27,1.57.82,2.12.55.61,1.23.96,1.91.89h0Z"/>
      <path class="cls-1" d="m133.31,27.15s.07,0,0,0c.82,0,1.64.34,2.19.96s.89,1.37.82,2.12c-.07,1.64-1.43,3.01-3.07,3.01h-.07c-.82,0-1.57-.34-2.19-.96-.55-.61-.89-1.37-.89-2.12m.21,0c0,.75.27,1.43.82,2.05s1.37.96,2.12.96h.07c1.57,0,2.94-1.3,3.01-2.87,0-.75-.27-1.5-.82-2.05s-1.3-.89-2.05-.96h-.07"/>
      <path class="cls-1" d="m78.85,33.16s-.07,0,0,0c-1.71,0-3.01-1.37-3.01-3.07s1.37-3.01,3.01-3.01h0c.82,0,1.57.34,2.19.96.55.61.89,1.37.89,2.19-.07,1.64-1.43,2.94-3.07,2.94Zm0-5.94c-1.64,0-2.94,1.3-2.94,2.87h0c0,1.64,1.23,2.94,2.87,3.01h.07c1.57,0,2.94-1.3,3.01-2.87,0-.82-.27-1.57-.82-2.12-.61-.55-1.37-.89-2.19-.89h0Z"/>
      <path class="cls-1" d="m69.14,33.16c-1.64,0-3.01-1.37-3.07-3.01,0-.82.27-1.57.89-2.19.55-.55,1.37-.89,2.19-.89h0c1.71,0,3.01,1.37,3.01,3.01h0c0,1.71-1.3,3.07-3.01,3.07h0Zm0-5.94c-.82,0-1.57.27-2.12.89-.55.55-.89,1.3-.82,2.12,0,1.57,1.37,2.94,2.94,2.94h0c1.64,0,2.94-1.3,2.94-2.94,0-1.71-1.3-3.01-2.94-3.01h0Z"/>
      <path class="cls-1" d="m55.75,41.16c-.34,0-.68,0-1.09-.07-.2,0-.41,0-.61-.07h-.07v-.89h8.88c.14,0,.34,0,.48.07s.34.2.41.41c0,.14,0,.2-.07.34-.07.07-.2.14-.34.2h-7.58c.07,0,0,0,0,0Z"/>
      <path class="cls-1" d="m46.39,41.09h-4.03c-.27,0-.41,0-.48-.14s-.07-.34,0-.75h9.22c.14,0,.27,0,.41.07s.34.27.41.41c0,.14,0,.2-.07.34-.07.07-.2.14-.34.2h-2.32c-.96-.14-1.84-.14-2.8-.14Z"/>
      <path class="cls-1" d="m70.78,41.09h-4.24c-.27,0-.41,0-.48-.14s-.07-.34,0-.75v-.07h9.22v.07c.07.41.07.61,0,.75-.07.07-.27.14-.55.14h-3.96Z"/>
      <path class="cls-1" d="m78.71,41.09h-.68c-.2,0-.34,0-.41-.14s-.07-.34,0-.75h8.54c.14,0,.34,0,.48.07s.34.27.27.41c0,.14-.14.41-.34.48-.14.07-.34.07-.55.07h-6.7c-.21-.14-.41-.14-.61-.14Z"/>
      <path class="cls-1" d="m93.61,41.09h-3.89c-.27,0-.41,0-.55-.14-.07-.14-.07-.27-.07-.75v-.07h9.16v.07c.07.41.07.61-.07.75-.07.07-.27.14-.55.14h-4.03Z"/>
      <path class="cls-1" d="m35.59,41.09h-4.99v-.89h8.95v.07c.07.41.14.61,0,.75-.07.14-.34.14-.68.14-1.09-.07-2.19-.07-3.28-.07Z"/>
      <path class="cls-1" d="m74.68,33.16h-1.3l.61-1.37.68,1.37Zm-1.16-.14h1.02l-.55-1.02-.48,1.02Z"/>
      <path class="cls-1" d="m73.99,58.24c-.14,0-.2,0-.34-.07-.07,0-.14-.27-.14-.27v-.14c.14-.07.27-.14.41-.14.07,0,.14,0,.27.07h.14v.2h0l-.07.07c-.07.07-.14.14-.2.14q0,.14-.07.14Zm-.34-.34c0,.07,0,.2.07.2.14.07.27.07.41.07.07,0,.07-.07.14-.14l.07-.07v-.14h-.07c-.07,0-.14-.07-.2-.07-.14,0-.27.07-.41.14Z"/>
      <path class="cls-1" d="m69.42,59.54l-.27-.2.34-1.02.34.14-.41,1.09Zm-.14-.21l.14.07.34-.89-.14-.07-.34.89Z"/>
      <path class="cls-1" d="m58.21,73.54v-.41h.2l.34.41h-.55Zm.14-.34v.27h.34l-.2-.2c-.07-.14-.14-.14-.14-.07Z"/>
      <path class="cls-1" d="m68.6,61.79l-.2-.07.14-.48.2.07-.14.48Zm-.14-.14h0l.14-.27h-.07l-.07.27Z"/>
      <path class="cls-1" d="m68.26,62.48h0c-.07,0-.07-.07-.07-.07-.07,0-.07-.07-.07-.07q0-.07.07-.14v-.14l.27.14-.2.27Zm-.07-.2h0v.07h.07l.07-.07h-.14Z"/>
      <path class="cls-1" d="m75.16,57.97h-.89v-.27h.96l-.07.27Zm-.75-.07h.68l.07-.07h-.75v.07Z"/>
      <path class="cls-1" d="m127.36,51.41h0c-.07-.07-.14-.07-.14-.14h0l.07-.14.07.07.07.07s0,.07-.07.14q0-.07,0,0h0Z"/>
      <path class="cls-1" d="m115.88,47.78l-.14-.34.48.07.07.07-.07.07-.34.14Zm0-.27l.07.14.2-.14h-.27Z"/>
      <polygon class="cls-1" points="20.9 40.54 20.83 40.47 21.04 40.2 21.11 40.27 20.9 40.54"/>
      <polygon class="cls-1" points="67.91 63.02 67.85 62.82 68.05 62.82 67.91 63.02"/>
      <polygon class="cls-1" points="100.44 38.29 100.44 38.29 100.3 38.15 100.37 38.08 100.51 38.22 100.44 38.29"/>
      <path class="cls-1" d="m18.65,38.22l.2-.14c.07-.07.14-.07.2,0l.2.07-.61.07Z"/>
      <path class="cls-1" d="m116.15,47.72v-.2h0l.07-.07.34-.2-.27.27h0l-.14.2Z"/>
      <polygon class="cls-1" points="58.69 74.57 58.69 74.5 58.69 74.16 58.76 74.5 58.69 74.5 58.69 74.57"/>
      <polygon class="cls-1" points="138.09 28.31 138.09 28.17 138.09 28.17 138.23 28.17 138.23 28.24 138.09 28.31"/>
      <polygon class="cls-1" points="21.04 58.65 20.83 58.44 20.9 58.38 21.11 58.58 21.04 58.65"/>
      <path class="cls-1" d="m17.35,77.78c-1.16,0-2.25,0-2.73-.14h-.07v-.07c-.14-1.3-.07-2.66-.07-4.03v-.27h6.7v4.3h0c-.34.14-2.19.21-3.83.21Zm-2.73-.2c1.3.2,5.74.14,6.49-.07v-4.17h-6.56v.2c0,1.43-.07,2.73.07,4.03Z"/>
      <path class="cls-1" d="m28.49,70.33h0v.07c-.55.07-1.09.14-1.64.14"/>
      <path class="cls-1" d="m7.92,79.83q-.07,0,0,0h0c-.27,0-.55-.14-.75-.34-.2-.2-.27-.48-.27-.68.07-.48.48-.96,1.02-.96h0c.27,0,.55.14.75.34.2.2.27.41.27.68s-.14.48-.34.68c-.2.21-.48.27-.68.27Z"/>
      <path class="cls-1" d="m30.06,80.04c-.55,0-.96-.41-1.02-.89,0-.27.07-.55.27-.75.2-.2.41-.34.68-.34s.55.07.75.27c.2.2.34.48.34.68,0,.55-.41,1.02-1.02,1.02h0q.07,0,0,0Z"/>
      <path class="cls-1" d="m42.9,74.36l-.55-.27.07-.2h.34c.07,0,.14.07.2.07,0,0,.07,0,.07.07h.07l-.2.34Zm-.41-.34l.41.2.14-.14h-.07c-.07,0-.14-.07-.2-.07h-.2q0-.07-.07,0h0Z"/>
      <path class="cls-1" d="m43.59,74.64q-.07,0,0,0c-.07,0-.14-.07-.14-.07v-.07l.07-.07.07-.07v.07c0,.07.07.07.07.14l.07.07h-.14Zm-.07-.07q.07,0,0,0t0,0,0,0h0Z"/>
      <polygon class="cls-1" points="40.17 76.07 39.83 75.87 40.24 76 40.17 76.07"/>
      <polygon class="cls-1" points="52.88 72.86 52.81 72.66 53.02 72.66 52.88 72.86"/>
      <polygon class="cls-1" points="53.15 72.79 53.22 72.59 53.36 72.72 53.15 72.79"/>
      <path class="cls-1" d="m48.64,71.56l-.27-.2h.07c.07,0,.07-.07.14-.14q.2-.2.27-.14c.07.07.14.14.14.2s-.07.14-.2.2q-.07,0-.14.07h0Zm-.14-.27l.14.14s.07,0,.07-.07c.07-.07.14-.14.14-.14q0-.07-.07-.14c-.07,0-.14.07-.14.14-.07.07-.14.07-.14.07Z"/>
      <polygon class="cls-1" points="45.43 72.18 45.16 71.97 45.36 71.9 45.43 72.18"/>
      <path class="cls-1" d="m142.19,60.15l-.07-.34.34.07-.07.07s-.07.07-.2.21h0Zm.07-.2h0s.07,0,0,0h0Z"/>
      <path class="cls-1" d="m157.43,67.19l-.2-.14v-.07h0l.07-.07q.07,0,.07.07l.07.07v.14Z"/>
      <path class="cls-1" d="m172.05,17.04l-.07-.14c-.07-.07-.14-.2-.2-.34q0-.07.14-.14l.07-.07h.07l.34.48-.34.21Zm-.14-.48c.07.07.14.2.2.27h0l.14-.07-.2-.27h-.07l-.07.07Z"/>
      <polygon class="cls-1" points="128.11 41.43 127.98 41.22 128.18 41.22 128.11 41.43"/>
      <path class="cls-1" d="m54.32,17.58h-8.75c-.2-.68-.2-11.62-.07-12.5v-.07h8.68c.27.75.34,11.62.14,12.57h0Zm-8.68-.07h8.54c.2-1.16.14-11.48,0-12.44h-8.54c-.2,1.16-.14,11.55,0,12.44Zm4.51-1.91h-2.39c-.2-.75-.14-1.37-.07-1.98v-.07h4.65v2.05h-.07c-.75-.07-1.43,0-2.12,0Zm-2.39-.14h4.44v-1.91h-4.51c-.14.61-.2,1.23.07,1.91Zm1.98-6.15c-.82,0-1.64-.07-2.12-.14h-.07v-1.98h.07c1.16-.07,2.25-.07,3.48-.07h1.23v1.91h0c-.41.21-1.5.27-2.6.27Zm-2.05-.2c1.09.2,3.89.14,4.51-.07v-1.78h-1.09c-1.16,0-2.25,0-3.42.07v1.78Z"/>
      <path class="cls-1" d="m37.3,17.51h-1.84v-.07c.07-.14.07-.27.07-.34.07-.2.14-.41.14-.55.41-1.09.82-2.25,1.23-3.28.34-.96.41-.96,1.37-.96.14,0,.2,0,.34.07h.27v5.06h-.07c-.41.07-.96.07-1.5.07Zm-1.71-.14c1.02,0,2.19.07,3.35,0v-4.92h-.2c-.14,0-.27,0-.34-.07q-.96,0-1.3.89c-.41,1.02-.82,2.12-1.23,3.28-.07.14-.14.34-.14.55-.07.07-.14.21-.14.27Z"/>
      <path class="cls-1" d="m49.74,9.31c-.82,0-1.64-.07-2.12-.14h-.07v-1.98h.07c1.16-.07,2.25-.07,3.48-.07h1.23v1.91h0c-.41.21-1.5.27-2.6.27Z"/>
      <path class="cls-1" d="m50.15,15.6h-2.39c-.2-.75-.14-1.37-.07-1.98v-.07h4.65v2.05h-.07c-.75-.07-1.43,0-2.12,0Z"/>
    </g>
  </g>
</svg>