<?xml version="1.0" encoding="UTF-8"?>
<svg width="400px" height="300px" viewBox="0 0 400 300" version="1.1" xmlns="http://www.w3.org/2000/svg" xmlns:xlink="http://www.w3.org/1999/xlink">
    <title>tab overlay_data explorer</title>
    <g id="Images-" stroke="none" stroke-width="1" fill="none" fill-rule="evenodd">
        <g id="Image_data-explorer" transform="translate(0, -87)">
            <g id="tab-overlay_data-explorer" transform="translate(0, 87)">
                <path d="M0,0 L370,0 C386.568542,-3.04359188e-15 400,13.4314575 400,30 L400,270 C400,286.568542 386.568542,300 370,300 L0,300 L0,300 L0,0 Z" id="Rectangle" fill="#00923E" opacity="0.895507812"></path>
                <path d="M309.71875,208.166667 L113.125,208.166667 L113.125,71.2083333 C113.125,67.2257292 109.866641,64 105.84375,64 L91.28125,64 C87.2583594,64 84,67.2257292 84,71.2083333 L84,222.583333 C84,230.544036 90.5212695,237 98.5625,237 L309.71875,237 C313.741641,237 317,233.774271 317,229.791667 L317,215.375 C317,211.392396 313.741641,208.166667 309.71875,208.166667 Z M291.795933,76 L238.605713,76 C228.973265,76 224.148029,87.6558405 230.960126,94.4734927 L245.557476,109.082747 L212.501687,142.170004 L179.445898,109.087256 C173.814205,103.45097 164.686356,103.45097 159.059168,109.087256 L128.111885,140.059778 C125.296038,142.877921 125.296038,147.445568 128.111885,150.263711 L138.302998,160.463135 C141.118845,163.281279 145.682769,163.281279 148.498616,160.463135 L169.25028,139.690038 L202.306069,172.772785 C207.937763,178.409072 217.065612,178.409072 222.6928,172.772785 L265.944207,129.486105 L280.541556,144.095359 C287.353653,150.913011 299,146.083841 299,136.443537 L299,83.2144468 C299.004501,79.2284649 295.778667,76 291.795933,76 Z" id="Shape" fill="#FFFFFF" fill-rule="nonzero"></path>
            </g>
        </g>
    </g>
</svg>