<?xml version="1.0" encoding="UTF-8"?>
<svg width="400px" height="305px" viewBox="0 0 400 305" version="1.1" xmlns="http://www.w3.org/2000/svg" xmlns:xlink="http://www.w3.org/1999/xlink">
    <title>tab_key_topics</title>
    <g id="Approved-Image-Overlays" stroke="none" stroke-width="1" fill="none" fill-rule="evenodd">
        <g id="Image-Tab_key-topics" transform="translate(0, -87)">
            <g id="tab_key_topics" transform="translate(0, 87)">
                <path d="M0,0 L370,0 C386.568542,-3.04359188e-15 400,13.4314575 400,30 L400,275 C400,291.568542 386.568542,305 370,305 L0,305 L0,305 L0,0 Z" id="Rectangle" fill="#9E1377" opacity="0.898507254"></path>
                <path d="M187.987973,59.9224307 L161.740058,111.376224 L103.013864,119.653911 C92.4825415,121.130682 88.2619732,133.683231 95.8991921,140.872771 L138.386247,180.901024 L128.337274,237.445789 C126.528459,247.666596 137.662721,255.322485 146.988167,250.542412 L199.524194,223.843956 L252.06022,250.542412 C261.385666,255.283622 272.519928,247.666596 270.711113,237.445789 L260.66214,180.901024 L303.149195,140.872771 C310.786414,133.683231 306.565846,121.130682 296.034523,119.653911 L237.308329,111.376224 L211.060414,59.9224307 C206.357495,50.7509087 192.731088,50.6343216 187.987973,59.9224307 Z" id="Fill-1-9E1377" fill="#FFFFFF"></path>
            </g>
        </g>
    </g>
</svg>