<?xml version="1.0" encoding="UTF-8"?>
<svg width="400px" height="305px" viewBox="0 0 400 305" version="1.1" xmlns="http://www.w3.org/2000/svg" xmlns:xlink="http://www.w3.org/1999/xlink">
    <title>tab_neighborhood_reports</title>
    <g id="Approved-Image-Overlays" stroke="none" stroke-width="1" fill="none" fill-rule="evenodd">
        <g id="Image-Tab_neighborhood-report" transform="translate(0, -87)">
            <g id="tab_neighborhood_reports" transform="translate(0, 87)">
                <path d="M0,0 L370,0 C386.568542,-3.04359188e-15 400,13.4314575 400,30 L400,275 C400,291.568542 386.568542,305 370,305 L0,305 L0,305 L0,0 Z" id="Rectangle" fill="#197BBD" opacity="0.895507812"></path>
                <path d="M200,59 C175.69873,59 156,79.3139696 156,104.374228 C156,124.63418 184.757143,161.560159 195.774603,174.963561 C198.006032,177.678813 201.99746,177.678813 204.225397,174.963561 C215.242857,161.560159 244,124.63418 244,104.374228 C244,79.3139696 224.30127,59 200,59 Z M198,119 C189.714286,119 183,112.285714 183,104 C183,95.7142857 189.714286,89 198,89 C206.285714,89 213,95.7142857 213,104 C213,112.285714 206.285714,119 198,119 Z M103.545,136.6816 C98.9890042,138.492383 96.0010912,142.876647 96,147.752629 L96,241.030986 C96,245.249231 100.28625,248.133437 104.2275,246.568364 L156,223.151889 L156,136.297784 C152.685,130.343054 149.97375,124.54483 148.03125,119 L103.545,136.6816 Z M200,192.511545 C194.870313,192.511545 190.017708,190.300813 186.689063,186.444553 C179.521354,178.145366 171.897917,168.694309 165,159 L165,224.105691 L235,247 L235,159.003577 C228.102083,168.694309 220.482292,178.148943 213.310937,186.44813 C209.982292,190.300813 205.129687,192.511545 200,192.511545 Z M295.7725,119.421213 L244,142.27223 L244,247 L296.455,226.654449 C301.011677,224.888213 304,220.609308 304,215.850761 L304,124.824875 C304,120.708492 299.71375,117.893933 295.7725,119.421213 L295.7725,119.421213 Z" id="Shape" fill="#FFFFFF" fill-rule="nonzero"></path>
            </g>
        </g>
    </g>
</svg>