<svg class="marks" preserveAspectRatio="none" width="310" height="110"  version="1.1" xmlns="http://www.w3.org/2000/svg" xmlns:xlink="http://www.w3.org/1999/xlink"><g transform="translate(5,5)"><g class="mark-group role-frame root"><g transform="translate(0,0)"><path class="background" d="M0,0h300v100h-300Z" style="fill: none; stroke: #ddd; stroke-width: 0;"></path><g><g class="mark-rect role-mark marks"><path d="M80.85365853658537,88.33333333333333h6.585365853658537v11.666666666666671h-6.585365853658537Z" style="fill: #D2D4CE;"></path><path d="M88.17073170731709,87.5h6.585365853658537v12.5h-6.585365853658537Z" style="fill: #D2D4CE;"></path><path d="M95.48780487804879,85.83333333333334h6.585365853658537v14.166666666666657h-6.585365853658537Z" style="fill: #D2D4CE;"></path><path d="M102.8048780487805,81.66666666666667h6.585365853658537v18.33333333333333h-6.585365853658537Z" style="fill: #D2D4CE;"></path><path d="M110.12195121951221,78.33333333333333h6.585365853658537v21.66666666666667h-6.585365853658537Z" style="fill: #D2D4CE;"></path><path d="M117.43902439024392,77.5h6.585365853658537v22.5h-6.585365853658537Z" style="fill: #D2D4CE;"></path><path d="M124.75609756097562,77.5h6.585365853658537v22.5h-6.585365853658537Z" style="fill: #D2D4CE;"></path><path d="M132.07317073170734,73.33333333333334h6.585365853658537v26.666666666666657h-6.585365853658537Z" style="fill: #D2D4CE;"></path><path d="M139.39024390243904,70h6.585365853658537v30h-6.585365853658537Z" style="fill: #D2D4CE;"></path><path d="M146.70731707317074,62.5h6.585365853658537v37.5h-6.585365853658537Z" style="fill: #D2D4CE;"></path><path d="M154.02439024390245,62.5h6.585365853658537v37.5h-6.585365853658537Z" style="fill: #D2D4CE;"></path><path d="M161.34146341463415,60.83333333333334h6.585365853658537v39.16666666666666h-6.585365853658537Z" style="fill: #D2D4CE;"></path><path d="M168.65853658536588,60.83333333333334h6.585365853658537v39.16666666666666h-6.585365853658537Z" style="fill: #D2D4CE;"></path><path d="M175.97560975609758,59.16666666666666h6.585365853658537v40.83333333333334h-6.585365853658537Z" style="fill: #D2D4CE;"></path><path d="M183.2926829268293,52.49999999999999h6.585365853658537v47.50000000000001h-6.585365853658537Z" style="fill: #D2D4CE;"></path><path d="M190.609756097561,50h6.585365853658537v50h-6.585365853658537Z" style="fill: #D2D4CE;"></path><path d="M197.9268292682927,50h6.585365853658537v50h-6.585365853658537Z" style="fill: #D2D4CE;"></path><path d="M205.2439024390244,45.00000000000001h6.585365853658537v54.99999999999999h-6.585365853658537Z" style="fill: #D2D4CE;"></path><path d="M212.56097560975613,41.666666666666664h6.585365853658537v58.333333333333336h-6.585365853658537Z" style="fill: #D2D4CE;"></path><path d="M219.87804878048783,41.666666666666664h6.585365853658537v58.333333333333336h-6.585365853658537Z" style="fill: #D2D4CE;"></path><path d="M227.19512195121953,40.833333333333336h6.585365853658537v59.166666666666664h-6.585365853658537Z" style="fill: #D2D4CE;"></path><path d="M234.51219512195124,39.16666666666667h6.585365853658537v60.83333333333333h-6.585365853658537Z" style="fill: #D2D4CE;"></path><path d="M241.82926829268294,31.666666666666675h6.585365853658537v68.33333333333333h-6.585365853658537Z" style="fill: #D2D4CE;"></path><path d="M249.14634146341464,27.500000000000004h6.585365853658537v72.5h-6.585365853658537Z" style="fill: #D2D4CE;"></path><path d="M256.4634146341464,21.666666666666668h6.585365853658537v78.33333333333333h-6.585365853658537Z" style="fill: #D2D4CE;"></path><path d="M263.7804878048781,21.666666666666668h6.585365853658537v78.33333333333333h-6.585365853658537Z" style="fill: #D2D4CE;"></path><path d="M271.0975609756098,21.666666666666668h6.585365853658537v78.33333333333333h-6.585365853658537Z" style="fill: #D2D4CE;"></path><path d="M278.4146341463415,21.666666666666668h6.585365853658537v78.33333333333333h-6.585365853658537Z" style="fill: #D2D4CE;"></path><path d="M285.7317073170732,11.66666666666667h6.585365853658537v88.33333333333333h-6.585365853658537Z" style="fill: #00923E;"></path><path d="M293.0487804878049,5.833333333333323h6.585365853658537v94.16666666666667h-6.585365853658537Z" style="fill: #D2D4CE;"></path></g></g><path class="foreground" d="" style="display: none; fill: none;"></path></g></g></g></svg>