<svg class="marks" preserveAspectRatio="none" width="310" height="110"  version="1.1" xmlns="http://www.w3.org/2000/svg" xmlns:xlink="http://www.w3.org/1999/xlink"><g transform="translate(5,5)"><g class="mark-group role-frame root"><g transform="translate(0,0)"><path class="background" d="M0,0h300v100h-300Z" style="fill: none; stroke: #ddd; stroke-width: 0;"></path><g><g class="mark-rect role-mark marks"><path d="M146.70731707317074,41.6h6.585365853658537v58.4h-6.585365853658537Z" style="fill: #D2D4CE;"></path><path d="M154.02439024390245,31.000000000000007h6.585365853658537v69h-6.585365853658537Z" style="fill: #D2D4CE;"></path><path d="M161.34146341463415,28.400000000000002h6.585365853658537v71.6h-6.585365853658537Z" style="fill: #D2D4CE;"></path><path d="M168.65853658536588,26.5h6.585365853658537v73.5h-6.585365853658537Z" style="fill: #D2D4CE;"></path><path d="M175.97560975609758,26.3h6.585365853658537v73.7h-6.585365853658537Z" style="fill: #D2D4CE;"></path><path d="M183.2926829268293,24.3h6.585365853658537v75.7h-6.585365853658537Z" style="fill: #D2D4CE;"></path><path d="M190.609756097561,24.2h6.585365853658537v75.8h-6.585365853658537Z" style="fill: #D2D4CE;"></path><path d="M197.9268292682927,23.2h6.585365853658537v76.8h-6.585365853658537Z" style="fill: #D2D4CE;"></path><path d="M205.2439024390244,21.200000000000006h6.585365853658537v78.8h-6.585365853658537Z" style="fill: #D2D4CE;"></path><path d="M212.56097560975613,20.799999999999997h6.585365853658537v79.2h-6.585365853658537Z" style="fill: #D2D4CE;"></path><path d="M219.87804878048783,17.200000000000003h6.585365853658537v82.8h-6.585365853658537Z" style="fill: #D2D4CE;"></path><path d="M227.19512195121953,16.400000000000002h6.585365853658537v83.6h-6.585365853658537Z" style="fill: #D2D4CE;"></path><path d="M234.51219512195124,15.200000000000003h6.585365853658537v84.8h-6.585365853658537Z" style="fill: #D2D4CE;"></path><path d="M241.82926829268294,13.3h6.585365853658537v86.7h-6.585365853658537Z" style="fill: #D2D4CE;"></path><path d="M249.14634146341464,11.799999999999999h6.585365853658537v88.2h-6.585365853658537Z" style="fill: #D2D4CE;"></path><path d="M256.4634146341464,9.40000000000001h6.585365853658537v90.6h-6.585365853658537Z" style="fill: #D2D4CE;"></path><path d="M263.7804878048781,9.299999999999997h6.585365853658537v90.7h-6.585365853658537Z" style="fill: #00923E;"></path><path d="M271.0975609756098,8.499999999999996h6.585365853658537v91.5h-6.585365853658537Z" style="fill: #D2D4CE;"></path><path d="M278.4146341463415,7.9000000000000075h6.585365853658537v92.1h-6.585365853658537Z" style="fill: #D2D4CE;"></path><path d="M285.7317073170732,7.400000000000007h6.585365853658537v92.6h-6.585365853658537Z" style="fill: #D2D4CE;"></path><path d="M293.0487804878049,4.200000000000004h6.585365853658537v95.8h-6.585365853658537Z" style="fill: #D2D4CE;"></path></g></g><path class="foreground" d="" style="display: none; fill: none;"></path></g></g></g></svg>