<svg class="marks" preserveAspectRatio="none" width="310" height="110"  version="1.1" xmlns="http://www.w3.org/2000/svg" xmlns:xlink="http://www.w3.org/1999/xlink"><g transform="translate(5,5)"><g class="mark-group role-frame root"><g transform="translate(0,0)"><path class="background" d="M0,0h300v100h-300Z" style="fill: none; stroke: #ddd; stroke-width: 0;"></path><g><g class="mark-rect role-mark marks"><path d="M102.8048780487805,91.53846153846153h6.585365853658537v8.461538461538467h-6.585365853658537Z" style="fill: #D2D4CE;"></path><path d="M110.12195121951221,89.23076923076924h6.585365853658537v10.76923076923076h-6.585365853658537Z" style="fill: #D2D4CE;"></path><path d="M117.43902439024392,87.6923076923077h6.585365853658537v12.307692307692307h-6.585365853658537Z" style="fill: #D2D4CE;"></path><path d="M124.75609756097562,87.6923076923077h6.585365853658537v12.307692307692307h-6.585365853658537Z" style="fill: #D2D4CE;"></path><path d="M132.07317073170734,81.53846153846153h6.585365853658537v18.461538461538467h-6.585365853658537Z" style="fill: #D2D4CE;"></path><path d="M139.39024390243904,80.76923076923077h6.585365853658537v19.230769230769226h-6.585365853658537Z" style="fill: #D2D4CE;"></path><path d="M146.70731707317074,78.46153846153847h6.585365853658537v21.538461538461533h-6.585365853658537Z" style="fill: #00923E;"></path><path d="M154.02439024390245,76.92307692307692h6.585365853658537v23.07692307692308h-6.585365853658537Z" style="fill: #D2D4CE;"></path><path d="M161.34146341463415,66.15384615384615h6.585365853658537v33.846153846153854h-6.585365853658537Z" style="fill: #D2D4CE;"></path><path d="M168.65853658536588,65.38461538461539h6.585365853658537v34.61538461538461h-6.585365853658537Z" style="fill: #D2D4CE;"></path><path d="M175.97560975609758,64.61538461538461h6.585365853658537v35.38461538461539h-6.585365853658537Z" style="fill: #D2D4CE;"></path><path d="M183.2926829268293,63.84615384615384h6.585365853658537v36.15384615384616h-6.585365853658537Z" style="fill: #D2D4CE;"></path><path d="M190.609756097561,62.30769230769231h6.585365853658537v37.69230769230769h-6.585365853658537Z" style="fill: #D2D4CE;"></path><path d="M197.9268292682927,61.53846153846154h6.585365853658537v38.46153846153846h-6.585365853658537Z" style="fill: #D2D4CE;"></path><path d="M205.2439024390244,60.769230769230774h6.585365853658537v39.230769230769226h-6.585365853658537Z" style="fill: #D2D4CE;"></path><path d="M212.56097560975613,60h6.585365853658537v40h-6.585365853658537Z" style="fill: #D2D4CE;"></path><path d="M219.87804878048783,59.23076923076923h6.585365853658537v40.76923076923077h-6.585365853658537Z" style="fill: #D2D4CE;"></path><path d="M227.19512195121953,56.15384615384615h6.585365853658537v43.84615384615385h-6.585365853658537Z" style="fill: #D2D4CE;"></path><path d="M234.51219512195124,51.53846153846153h6.585365853658537v48.46153846153847h-6.585365853658537Z" style="fill: #D2D4CE;"></path><path d="M241.82926829268294,50.76923076923077h6.585365853658537v49.23076923076923h-6.585365853658537Z" style="fill: #D2D4CE;"></path><path d="M249.14634146341464,48.46153846153845h6.585365853658537v51.53846153846155h-6.585365853658537Z" style="fill: #D2D4CE;"></path><path d="M256.4634146341464,45.38461538461539h6.585365853658537v54.61538461538461h-6.585365853658537Z" style="fill: #D2D4CE;"></path><path d="M263.7804878048781,43.07692307692308h6.585365853658537v56.92307692307692h-6.585365853658537Z" style="fill: #D2D4CE;"></path><path d="M271.0975609756098,39.230769230769226h6.585365853658537v60.769230769230774h-6.585365853658537Z" style="fill: #D2D4CE;"></path><path d="M278.4146341463415,26.15384615384616h6.585365853658537v73.84615384615384h-6.585365853658537Z" style="fill: #D2D4CE;"></path><path d="M285.7317073170732,23.84615384615384h6.585365853658537v76.15384615384616h-6.585365853658537Z" style="fill: #D2D4CE;"></path><path d="M293.0487804878049,1.538461538461533h6.585365853658537v98.46153846153847h-6.585365853658537Z" style="fill: #D2D4CE;"></path></g></g><path class="foreground" d="" style="display: none; fill: none;"></path></g></g></g></svg>