<svg class="marks" preserveAspectRatio="none" width="310" height="110"  version="1.1" xmlns="http://www.w3.org/2000/svg" xmlns:xlink="http://www.w3.org/1999/xlink"><g transform="translate(5,5)"><g class="mark-group role-frame root"><g transform="translate(0,0)"><path class="background" d="M0,0h300v100h-300Z" style="fill: none; stroke: #ddd; stroke-width: 0;"></path><g><g class="mark-rect role-mark marks"><path d="M0.3658536585365937,76.25h6.585365853658537v23.75h-6.585365853658537Z" style="fill: #D2D4CE;"></path><path d="M7.682926829268301,67.75h6.585365853658537v32.25h-6.585365853658537Z" style="fill: #D2D4CE;"></path><path d="M15.000000000000009,66.75h6.585365853658537v33.25h-6.585365853658537Z" style="fill: #D2D4CE;"></path><path d="M22.317073170731717,61.25000000000001h6.585365853658537v38.74999999999999h-6.585365853658537Z" style="fill: #D2D4CE;"></path><path d="M29.634146341463424,56.50000000000001h6.585365853658537v43.49999999999999h-6.585365853658537Z" style="fill: #D2D4CE;"></path><path d="M36.95121951219513,56.50000000000001h6.585365853658537v43.49999999999999h-6.585365853658537Z" style="fill: #D2D4CE;"></path><path d="M44.26829268292684,54.50000000000001h6.585365853658537v45.49999999999999h-6.585365853658537Z" style="fill: #D2D4CE;"></path><path d="M51.585365853658544,53.49999999999999h6.585365853658537v46.50000000000001h-6.585365853658537Z" style="fill: #D2D4CE;"></path><path d="M58.902439024390254,53.25h6.585365853658537v46.75h-6.585365853658537Z" style="fill: #D2D4CE;"></path><path d="M66.21951219512196,53h6.585365853658537v47h-6.585365853658537Z" style="fill: #D2D4CE;"></path><path d="M73.53658536585367,52.75000000000001h6.585365853658537v47.24999999999999h-6.585365853658537Z" style="fill: #D2D4CE;"></path><path d="M80.85365853658537,52.5h6.585365853658537v47.5h-6.585365853658537Z" style="fill: #D2D4CE;"></path><path d="M88.17073170731709,50.75000000000001h6.585365853658537v49.24999999999999h-6.585365853658537Z" style="fill: #D2D4CE;"></path><path d="M95.48780487804879,50h6.585365853658537v50h-6.585365853658537Z" style="fill: #D2D4CE;"></path><path d="M102.8048780487805,49.24999999999999h6.585365853658537v50.75000000000001h-6.585365853658537Z" style="fill: #D2D4CE;"></path><path d="M110.12195121951221,48.75000000000001h6.585365853658537v51.24999999999999h-6.585365853658537Z" style="fill: #D2D4CE;"></path><path d="M117.43902439024392,48.5h6.585365853658537v51.5h-6.585365853658537Z" style="fill: #00923E;"></path><path d="M124.75609756097562,48h6.585365853658537v52h-6.585365853658537Z" style="fill: #D2D4CE;"></path><path d="M132.07317073170734,46.50000000000001h6.585365853658537v53.49999999999999h-6.585365853658537Z" style="fill: #D2D4CE;"></path><path d="M139.39024390243904,43.25h6.585365853658537v56.75h-6.585365853658537Z" style="fill: #D2D4CE;"></path><path d="M146.70731707317074,43.25h6.585365853658537v56.75h-6.585365853658537Z" style="fill: #D2D4CE;"></path><path d="M154.02439024390245,42.75h6.585365853658537v57.25h-6.585365853658537Z" style="fill: #D2D4CE;"></path><path d="M161.34146341463415,40.25000000000001h6.585365853658537v59.74999999999999h-6.585365853658537Z" style="fill: #D2D4CE;"></path><path d="M168.65853658536588,39h6.585365853658537v61h-6.585365853658537Z" style="fill: #D2D4CE;"></path><path d="M175.97560975609758,38.74999999999999h6.585365853658537v61.25000000000001h-6.585365853658537Z" style="fill: #D2D4CE;"></path><path d="M183.2926829268293,38.74999999999999h6.585365853658537v61.25000000000001h-6.585365853658537Z" style="fill: #D2D4CE;"></path><path d="M190.609756097561,38.5h6.585365853658537v61.5h-6.585365853658537Z" style="fill: #D2D4CE;"></path><path d="M197.9268292682927,38.25000000000001h6.585365853658537v61.74999999999999h-6.585365853658537Z" style="fill: #D2D4CE;"></path><path d="M205.2439024390244,38h6.585365853658537v62h-6.585365853658537Z" style="fill: #D2D4CE;"></path><path d="M212.56097560975613,36.25000000000001h6.585365853658537v63.74999999999999h-6.585365853658537Z" style="fill: #D2D4CE;"></path><path d="M219.87804878048783,33.25h6.585365853658537v66.75h-6.585365853658537Z" style="fill: #D2D4CE;"></path><path d="M227.19512195121953,33.25h6.585365853658537v66.75h-6.585365853658537Z" style="fill: #D2D4CE;"></path><path d="M234.51219512195124,32.49999999999999h6.585365853658537v67.5h-6.585365853658537Z" style="fill: #D2D4CE;"></path><path d="M241.82926829268294,32.00000000000001h6.585365853658537v68h-6.585365853658537Z" style="fill: #D2D4CE;"></path><path d="M249.14634146341464,25h6.585365853658537v75h-6.585365853658537Z" style="fill: #D2D4CE;"></path><path d="M256.4634146341464,24.5h6.585365853658537v75.5h-6.585365853658537Z" style="fill: #D2D4CE;"></path><path d="M263.7804878048781,22.249999999999993h6.585365853658537v77.75h-6.585365853658537Z" style="fill: #D2D4CE;"></path><path d="M271.0975609756098,12.750000000000005h6.585365853658537v87.25h-6.585365853658537Z" style="fill: #D2D4CE;"></path><path d="M278.4146341463415,11.99999999999999h6.585365853658537v88.00000000000001h-6.585365853658537Z" style="fill: #D2D4CE;"></path><path d="M285.7317073170732,9.999999999999998h6.585365853658537v90h-6.585365853658537Z" style="fill: #D2D4CE;"></path><path d="M293.0487804878049,9.999999999999998h6.585365853658537v90h-6.585365853658537Z" style="fill: #D2D4CE;"></path></g></g><path class="foreground" d="" style="display: none; fill: none;"></path></g></g></g></svg>