<svg class="marks" preserveAspectRatio="none" width="310" height="110"  version="1.1" xmlns="http://www.w3.org/2000/svg" xmlns:xlink="http://www.w3.org/1999/xlink"><g transform="translate(5,5)"><g class="mark-group role-frame root"><g transform="translate(0,0)"><path class="background" d="M0,0h300v100h-300Z" style="fill: none; stroke: #ddd; stroke-width: 0;"></path><g><g class="mark-rect role-mark marks"><path d="M0.3658536585365937,71.5h6.585365853658537v28.5h-6.585365853658537Z" style="fill: #D2D4CE;"></path><path d="M7.682926829268301,70.6h6.585365853658537v29.400000000000006h-6.585365853658537Z" style="fill: #D2D4CE;"></path><path d="M15.000000000000009,69.9h6.585365853658537v30.099999999999994h-6.585365853658537Z" style="fill: #D2D4CE;"></path><path d="M22.317073170731717,68.39999999999999h6.585365853658537v31.60000000000001h-6.585365853658537Z" style="fill: #D2D4CE;"></path><path d="M29.634146341463424,67.9h6.585365853658537v32.099999999999994h-6.585365853658537Z" style="fill: #D2D4CE;"></path><path d="M36.95121951219513,63.3h6.585365853658537v36.7h-6.585365853658537Z" style="fill: #D2D4CE;"></path><path d="M44.26829268292684,60.5h6.585365853658537v39.5h-6.585365853658537Z" style="fill: #D2D4CE;"></path><path d="M51.585365853658544,59.5h6.585365853658537v40.5h-6.585365853658537Z" style="fill: #D2D4CE;"></path><path d="M58.902439024390254,57.599999999999994h6.585365853658537v42.400000000000006h-6.585365853658537Z" style="fill: #D2D4CE;"></path><path d="M66.21951219512196,57.400000000000006h6.585365853658537v42.599999999999994h-6.585365853658537Z" style="fill: #D2D4CE;"></path><path d="M73.53658536585367,54.699999999999996h6.585365853658537v45.300000000000004h-6.585365853658537Z" style="fill: #D2D4CE;"></path><path d="M80.85365853658537,53.49999999999999h6.585365853658537v46.50000000000001h-6.585365853658537Z" style="fill: #D2D4CE;"></path><path d="M88.17073170731709,52.5h6.585365853658537v47.5h-6.585365853658537Z" style="fill: #D2D4CE;"></path><path d="M95.48780487804879,52.300000000000004h6.585365853658537v47.699999999999996h-6.585365853658537Z" style="fill: #00923E;"></path><path d="M102.8048780487805,51.800000000000004h6.585365853658537v48.199999999999996h-6.585365853658537Z" style="fill: #D2D4CE;"></path><path d="M110.12195121951221,51.4h6.585365853658537v48.6h-6.585365853658537Z" style="fill: #D2D4CE;"></path><path d="M117.43902439024392,51.300000000000004h6.585365853658537v48.699999999999996h-6.585365853658537Z" style="fill: #D2D4CE;"></path><path d="M124.75609756097562,51h6.585365853658537v49h-6.585365853658537Z" style="fill: #D2D4CE;"></path><path d="M132.07317073170734,50.9h6.585365853658537v49.1h-6.585365853658537Z" style="fill: #D2D4CE;"></path><path d="M139.39024390243904,50.8h6.585365853658537v49.2h-6.585365853658537Z" style="fill: #D2D4CE;"></path><path d="M146.70731707317074,47.5h6.585365853658537v52.5h-6.585365853658537Z" style="fill: #D2D4CE;"></path><path d="M154.02439024390245,44.50000000000001h6.585365853658537v55.49999999999999h-6.585365853658537Z" style="fill: #D2D4CE;"></path><path d="M161.34146341463415,44.50000000000001h6.585365853658537v55.49999999999999h-6.585365853658537Z" style="fill: #D2D4CE;"></path><path d="M168.65853658536588,42.199999999999996h6.585365853658537v57.800000000000004h-6.585365853658537Z" style="fill: #D2D4CE;"></path><path d="M175.97560975609758,41.7h6.585365853658537v58.3h-6.585365853658537Z" style="fill: #D2D4CE;"></path><path d="M183.2926829268293,40.99999999999999h6.585365853658537v59.00000000000001h-6.585365853658537Z" style="fill: #D2D4CE;"></path><path d="M190.609756097561,40.19999999999999h6.585365853658537v59.80000000000001h-6.585365853658537Z" style="fill: #D2D4CE;"></path><path d="M197.9268292682927,40h6.585365853658537v60h-6.585365853658537Z" style="fill: #D2D4CE;"></path><path d="M205.2439024390244,39.7h6.585365853658537v60.3h-6.585365853658537Z" style="fill: #D2D4CE;"></path><path d="M212.56097560975613,39.6h6.585365853658537v60.4h-6.585365853658537Z" style="fill: #D2D4CE;"></path><path d="M219.87804878048783,38.5h6.585365853658537v61.5h-6.585365853658537Z" style="fill: #D2D4CE;"></path><path d="M227.19512195121953,37.1h6.585365853658537v62.9h-6.585365853658537Z" style="fill: #D2D4CE;"></path><path d="M234.51219512195124,30.000000000000004h6.585365853658537v70h-6.585365853658537Z" style="fill: #D2D4CE;"></path><path d="M241.82926829268294,29.600000000000005h6.585365853658537v70.39999999999999h-6.585365853658537Z" style="fill: #D2D4CE;"></path><path d="M249.14634146341464,26.700000000000003h6.585365853658537v73.3h-6.585365853658537Z" style="fill: #D2D4CE;"></path><path d="M256.4634146341464,25.7h6.585365853658537v74.3h-6.585365853658537Z" style="fill: #D2D4CE;"></path><path d="M263.7804878048781,25.4h6.585365853658537v74.6h-6.585365853658537Z" style="fill: #D2D4CE;"></path><path d="M271.0975609756098,25h6.585365853658537v75h-6.585365853658537Z" style="fill: #D2D4CE;"></path><path d="M278.4146341463415,21.999999999999996h6.585365853658537v78h-6.585365853658537Z" style="fill: #D2D4CE;"></path><path d="M285.7317073170732,15.500000000000004h6.585365853658537v84.5h-6.585365853658537Z" style="fill: #D2D4CE;"></path><path d="M293.0487804878049,3.599999999999992h6.585365853658537v96.4h-6.585365853658537Z" style="fill: #D2D4CE;"></path></g></g><path class="foreground" d="" style="display: none; fill: none;"></path></g></g></g></svg>