<svg class="marks" preserveAspectRatio="none" width="310" height="110"  version="1.1" xmlns="http://www.w3.org/2000/svg" xmlns:xlink="http://www.w3.org/1999/xlink"><g transform="translate(5,5)"><g class="mark-group role-frame root"><g transform="translate(0,0)"><path class="background" d="M0,0h300v100h-300Z" style="fill: none; stroke: #ddd; stroke-width: 0;"></path><g><g class="mark-rect role-mark marks"><path d="M0.3658536585365937,53.33333333333334h6.585365853658537v46.66666666666666h-6.585365853658537Z" style="fill: #D2D4CE;"></path><path d="M7.682926829268301,43.333333333333336h6.585365853658537v56.666666666666664h-6.585365853658537Z" style="fill: #D2D4CE;"></path><path d="M15.000000000000009,43.333333333333336h6.585365853658537v56.666666666666664h-6.585365853658537Z" style="fill: #D2D4CE;"></path><path d="M22.317073170731717,40h6.585365853658537v60h-6.585365853658537Z" style="fill: #D2D4CE;"></path><path d="M29.634146341463424,40h6.585365853658537v60h-6.585365853658537Z" style="fill: #D2D4CE;"></path><path d="M36.95121951219513,40h6.585365853658537v60h-6.585365853658537Z" style="fill: #D2D4CE;"></path><path d="M44.26829268292684,40h6.585365853658537v60h-6.585365853658537Z" style="fill: #00923E;"></path><path d="M51.585365853658544,40h6.585365853658537v60h-6.585365853658537Z" style="fill: #D2D4CE;"></path><path d="M58.902439024390254,36.66666666666667h6.585365853658537v63.33333333333333h-6.585365853658537Z" style="fill: #D2D4CE;"></path><path d="M66.21951219512196,36.66666666666667h6.585365853658537v63.33333333333333h-6.585365853658537Z" style="fill: #D2D4CE;"></path><path d="M73.53658536585367,36.66666666666667h6.585365853658537v63.33333333333333h-6.585365853658537Z" style="fill: #D2D4CE;"></path><path d="M80.85365853658537,36.66666666666667h6.585365853658537v63.33333333333333h-6.585365853658537Z" style="fill: #D2D4CE;"></path><path d="M88.17073170731709,33.333333333333336h6.585365853658537v66.66666666666666h-6.585365853658537Z" style="fill: #D2D4CE;"></path><path d="M95.48780487804879,33.333333333333336h6.585365853658537v66.66666666666666h-6.585365853658537Z" style="fill: #D2D4CE;"></path><path d="M102.8048780487805,33.333333333333336h6.585365853658537v66.66666666666666h-6.585365853658537Z" style="fill: #D2D4CE;"></path><path d="M110.12195121951221,33.333333333333336h6.585365853658537v66.66666666666666h-6.585365853658537Z" style="fill: #D2D4CE;"></path><path d="M117.43902439024392,33.333333333333336h6.585365853658537v66.66666666666666h-6.585365853658537Z" style="fill: #D2D4CE;"></path><path d="M124.75609756097562,29.999999999999993h6.585365853658537v70h-6.585365853658537Z" style="fill: #D2D4CE;"></path><path d="M132.07317073170734,29.999999999999993h6.585365853658537v70h-6.585365853658537Z" style="fill: #D2D4CE;"></path><path d="M139.39024390243904,29.999999999999993h6.585365853658537v70h-6.585365853658537Z" style="fill: #D2D4CE;"></path><path d="M146.70731707317074,29.999999999999993h6.585365853658537v70h-6.585365853658537Z" style="fill: #D2D4CE;"></path><path d="M154.02439024390245,29.999999999999993h6.585365853658537v70h-6.585365853658537Z" style="fill: #D2D4CE;"></path><path d="M161.34146341463415,29.999999999999993h6.585365853658537v70h-6.585365853658537Z" style="fill: #D2D4CE;"></path><path d="M168.65853658536588,29.999999999999993h6.585365853658537v70h-6.585365853658537Z" style="fill: #D2D4CE;"></path><path d="M175.97560975609758,26.66666666666666h6.585365853658537v73.33333333333334h-6.585365853658537Z" style="fill: #D2D4CE;"></path><path d="M183.2926829268293,26.66666666666666h6.585365853658537v73.33333333333334h-6.585365853658537Z" style="fill: #D2D4CE;"></path><path d="M190.609756097561,26.66666666666666h6.585365853658537v73.33333333333334h-6.585365853658537Z" style="fill: #D2D4CE;"></path><path d="M197.9268292682927,26.66666666666666h6.585365853658537v73.33333333333334h-6.585365853658537Z" style="fill: #D2D4CE;"></path><path d="M205.2439024390244,26.66666666666666h6.585365853658537v73.33333333333334h-6.585365853658537Z" style="fill: #D2D4CE;"></path><path d="M212.56097560975613,23.33333333333334h6.585365853658537v76.66666666666666h-6.585365853658537Z" style="fill: #D2D4CE;"></path><path d="M219.87804878048783,23.33333333333334h6.585365853658537v76.66666666666666h-6.585365853658537Z" style="fill: #D2D4CE;"></path><path d="M227.19512195121953,23.33333333333334h6.585365853658537v76.66666666666666h-6.585365853658537Z" style="fill: #D2D4CE;"></path><path d="M234.51219512195124,16.666666666666664h6.585365853658537v83.33333333333334h-6.585365853658537Z" style="fill: #D2D4CE;"></path><path d="M241.82926829268294,13.33333333333333h6.585365853658537v86.66666666666667h-6.585365853658537Z" style="fill: #D2D4CE;"></path><path d="M249.14634146341464,13.33333333333333h6.585365853658537v86.66666666666667h-6.585365853658537Z" style="fill: #D2D4CE;"></path><path d="M256.4634146341464,13.33333333333333h6.585365853658537v86.66666666666667h-6.585365853658537Z" style="fill: #D2D4CE;"></path><path d="M263.7804878048781,9.999999999999998h6.585365853658537v90h-6.585365853658537Z" style="fill: #D2D4CE;"></path><path d="M271.0975609756098,6.666666666666677h6.585365853658537v93.33333333333333h-6.585365853658537Z" style="fill: #D2D4CE;"></path><path d="M278.4146341463415,6.666666666666677h6.585365853658537v93.33333333333333h-6.585365853658537Z" style="fill: #D2D4CE;"></path><path d="M285.7317073170732,6.666666666666677h6.585365853658537v93.33333333333333h-6.585365853658537Z" style="fill: #D2D4CE;"></path><path d="M293.0487804878049,3.3333333333333326h6.585365853658537v96.66666666666667h-6.585365853658537Z" style="fill: #D2D4CE;"></path></g></g><path class="foreground" d="" style="display: none; fill: none;"></path></g></g></g></svg>