<svg class="marks" preserveAspectRatio="none" width="310" height="110"  version="1.1" xmlns="http://www.w3.org/2000/svg" xmlns:xlink="http://www.w3.org/1999/xlink"><g transform="translate(5,5)"><g class="mark-group role-frame root"><g transform="translate(0,0)"><path class="background" d="M0,0h300v100h-300Z" style="fill: none; stroke: #ddd; stroke-width: 0;"></path><g><g class="mark-rect role-mark marks"><path d="M0.3658536585365937,77.14285714285714h6.585365853658537v22.85714285714286h-6.585365853658537Z" style="fill: #D2D4CE;"></path><path d="M7.682926829268301,71.42857142857143h6.585365853658537v28.57142857142857h-6.585365853658537Z" style="fill: #D2D4CE;"></path><path d="M15.000000000000009,68.57142857142857h6.585365853658537v31.42857142857143h-6.585365853658537Z" style="fill: #D2D4CE;"></path><path d="M22.317073170731717,68.57142857142857h6.585365853658537v31.42857142857143h-6.585365853658537Z" style="fill: #D2D4CE;"></path><path d="M29.634146341463424,68.57142857142857h6.585365853658537v31.42857142857143h-6.585365853658537Z" style="fill: #D2D4CE;"></path><path d="M36.95121951219513,65.71428571428571h6.585365853658537v34.28571428571429h-6.585365853658537Z" style="fill: #D2D4CE;"></path><path d="M44.26829268292684,65.71428571428571h6.585365853658537v34.28571428571429h-6.585365853658537Z" style="fill: #D2D4CE;"></path><path d="M51.585365853658544,62.857142857142854h6.585365853658537v37.142857142857146h-6.585365853658537Z" style="fill: #D2D4CE;"></path><path d="M58.902439024390254,62.857142857142854h6.585365853658537v37.142857142857146h-6.585365853658537Z" style="fill: #D2D4CE;"></path><path d="M66.21951219512196,62.857142857142854h6.585365853658537v37.142857142857146h-6.585365853658537Z" style="fill: #D2D4CE;"></path><path d="M73.53658536585367,62.857142857142854h6.585365853658537v37.142857142857146h-6.585365853658537Z" style="fill: #D2D4CE;"></path><path d="M80.85365853658537,62.857142857142854h6.585365853658537v37.142857142857146h-6.585365853658537Z" style="fill: #D2D4CE;"></path><path d="M88.17073170731709,60.00000000000001h6.585365853658537v39.99999999999999h-6.585365853658537Z" style="fill: #D2D4CE;"></path><path d="M95.48780487804879,60.00000000000001h6.585365853658537v39.99999999999999h-6.585365853658537Z" style="fill: #D2D4CE;"></path><path d="M102.8048780487805,60.00000000000001h6.585365853658537v39.99999999999999h-6.585365853658537Z" style="fill: #D2D4CE;"></path><path d="M110.12195121951221,60.00000000000001h6.585365853658537v39.99999999999999h-6.585365853658537Z" style="fill: #D2D4CE;"></path><path d="M117.43902439024392,60.00000000000001h6.585365853658537v39.99999999999999h-6.585365853658537Z" style="fill: #D2D4CE;"></path><path d="M124.75609756097562,60.00000000000001h6.585365853658537v39.99999999999999h-6.585365853658537Z" style="fill: #D2D4CE;"></path><path d="M132.07317073170734,60.00000000000001h6.585365853658537v39.99999999999999h-6.585365853658537Z" style="fill: #D2D4CE;"></path><path d="M139.39024390243904,57.14285714285714h6.585365853658537v42.85714285714286h-6.585365853658537Z" style="fill: #D2D4CE;"></path><path d="M146.70731707317074,57.14285714285714h6.585365853658537v42.85714285714286h-6.585365853658537Z" style="fill: #D2D4CE;"></path><path d="M154.02439024390245,54.285714285714285h6.585365853658537v45.714285714285715h-6.585365853658537Z" style="fill: #D2D4CE;"></path><path d="M161.34146341463415,54.285714285714285h6.585365853658537v45.714285714285715h-6.585365853658537Z" style="fill: #D2D4CE;"></path><path d="M168.65853658536588,54.285714285714285h6.585365853658537v45.714285714285715h-6.585365853658537Z" style="fill: #00923E;"></path><path d="M175.97560975609758,54.285714285714285h6.585365853658537v45.714285714285715h-6.585365853658537Z" style="fill: #D2D4CE;"></path><path d="M183.2926829268293,54.285714285714285h6.585365853658537v45.714285714285715h-6.585365853658537Z" style="fill: #D2D4CE;"></path><path d="M190.609756097561,54.285714285714285h6.585365853658537v45.714285714285715h-6.585365853658537Z" style="fill: #D2D4CE;"></path><path d="M197.9268292682927,54.285714285714285h6.585365853658537v45.714285714285715h-6.585365853658537Z" style="fill: #D2D4CE;"></path><path d="M205.2439024390244,51.42857142857142h6.585365853658537v48.57142857142858h-6.585365853658537Z" style="fill: #D2D4CE;"></path><path d="M212.56097560975613,51.42857142857142h6.585365853658537v48.57142857142858h-6.585365853658537Z" style="fill: #D2D4CE;"></path><path d="M219.87804878048783,48.57142857142856h6.585365853658537v51.42857142857144h-6.585365853658537Z" style="fill: #D2D4CE;"></path><path d="M227.19512195121953,40h6.585365853658537v60h-6.585365853658537Z" style="fill: #D2D4CE;"></path><path d="M234.51219512195124,40h6.585365853658537v60h-6.585365853658537Z" style="fill: #D2D4CE;"></path><path d="M241.82926829268294,40h6.585365853658537v60h-6.585365853658537Z" style="fill: #D2D4CE;"></path><path d="M249.14634146341464,34.285714285714285h6.585365853658537v65.71428571428572h-6.585365853658537Z" style="fill: #D2D4CE;"></path><path d="M256.4634146341464,31.428571428571427h6.585365853658537v68.57142857142857h-6.585365853658537Z" style="fill: #D2D4CE;"></path><path d="M263.7804878048781,31.428571428571427h6.585365853658537v68.57142857142857h-6.585365853658537Z" style="fill: #D2D4CE;"></path><path d="M271.0975609756098,28.57142857142857h6.585365853658537v71.42857142857143h-6.585365853658537Z" style="fill: #D2D4CE;"></path><path d="M278.4146341463415,25.71428571428571h6.585365853658537v74.28571428571429h-6.585365853658537Z" style="fill: #D2D4CE;"></path><path d="M285.7317073170732,20.000000000000007h6.585365853658537v80h-6.585365853658537Z" style="fill: #D2D4CE;"></path><path d="M293.0487804878049,11.428571428571422h6.585365853658537v88.57142857142858h-6.585365853658537Z" style="fill: #D2D4CE;"></path></g></g><path class="foreground" d="" style="display: none; fill: none;"></path></g></g></g></svg>