<svg class="marks" preserveAspectRatio="none" width="310" height="110"  version="1.1" xmlns="http://www.w3.org/2000/svg" xmlns:xlink="http://www.w3.org/1999/xlink"><g transform="translate(5,5)"><g class="mark-group role-frame root"><g transform="translate(0,0)"><path class="background" d="M0,0h300v100h-300Z" style="fill: none; stroke: #ddd; stroke-width: 0;"></path><g><g class="mark-rect role-mark marks"><path d="M0.3658536585365937,97.23076923076923h6.585365853658537v2.7692307692307736h-6.585365853658537Z" style="fill: #D2D4CE;"></path><path d="M7.682926829268301,95.23076923076923h6.585365853658537v4.769230769230774h-6.585365853658537Z" style="fill: #D2D4CE;"></path><path d="M15.000000000000009,94.15384615384616h6.585365853658537v5.84615384615384h-6.585365853658537Z" style="fill: #D2D4CE;"></path><path d="M22.317073170731717,94h6.585365853658537v6h-6.585365853658537Z" style="fill: #D2D4CE;"></path><path d="M29.634146341463424,93.07692307692308h6.585365853658537v6.92307692307692h-6.585365853658537Z" style="fill: #D2D4CE;"></path><path d="M36.95121951219513,91.53846153846153h6.585365853658537v8.461538461538467h-6.585365853658537Z" style="fill: #D2D4CE;"></path><path d="M44.26829268292684,88.92307692307693h6.585365853658537v11.076923076923066h-6.585365853658537Z" style="fill: #D2D4CE;"></path><path d="M51.585365853658544,88.92307692307693h6.585365853658537v11.076923076923066h-6.585365853658537Z" style="fill: #D2D4CE;"></path><path d="M58.902439024390254,88.61538461538461h6.585365853658537v11.384615384615387h-6.585365853658537Z" style="fill: #D2D4CE;"></path><path d="M66.21951219512196,85.23076923076923h6.585365853658537v14.769230769230774h-6.585365853658537Z" style="fill: #D2D4CE;"></path><path d="M73.53658536585367,84.15384615384616h6.585365853658537v15.84615384615384h-6.585365853658537Z" style="fill: #D2D4CE;"></path><path d="M80.85365853658537,83.84615384615385h6.585365853658537v16.153846153846146h-6.585365853658537Z" style="fill: #D2D4CE;"></path><path d="M88.17073170731709,80.76923076923077h6.585365853658537v19.230769230769226h-6.585365853658537Z" style="fill: #D2D4CE;"></path><path d="M95.48780487804879,80.3076923076923h6.585365853658537v19.692307692307693h-6.585365853658537Z" style="fill: #D2D4CE;"></path><path d="M102.8048780487805,78.92307692307692h6.585365853658537v21.07692307692308h-6.585365853658537Z" style="fill: #D2D4CE;"></path><path d="M110.12195121951221,78.46153846153847h6.585365853658537v21.538461538461533h-6.585365853658537Z" style="fill: #D2D4CE;"></path><path d="M117.43902439024392,77.07692307692308h6.585365853658537v22.92307692307692h-6.585365853658537Z" style="fill: #D2D4CE;"></path><path d="M124.75609756097562,76.15384615384615h6.585365853658537v23.846153846153854h-6.585365853658537Z" style="fill: #D2D4CE;"></path><path d="M132.07317073170734,75.84615384615385h6.585365853658537v24.153846153846146h-6.585365853658537Z" style="fill: #D2D4CE;"></path><path d="M139.39024390243904,73.6923076923077h6.585365853658537v26.307692307692307h-6.585365853658537Z" style="fill: #D2D4CE;"></path><path d="M146.70731707317074,73.53846153846155h6.585365853658537v26.461538461538453h-6.585365853658537Z" style="fill: #D2D4CE;"></path><path d="M154.02439024390245,70h6.585365853658537v30h-6.585365853658537Z" style="fill: #D2D4CE;"></path><path d="M161.34146341463415,68.61538461538461h6.585365853658537v31.384615384615387h-6.585365853658537Z" style="fill: #D2D4CE;"></path><path d="M168.65853658536588,64.3076923076923h6.585365853658537v35.69230769230769h-6.585365853658537Z" style="fill: #D2D4CE;"></path><path d="M175.97560975609758,62.615384615384606h6.585365853658537v37.384615384615394h-6.585365853658537Z" style="fill: #00923E;"></path><path d="M183.2926829268293,61.84615384615384h6.585365853658537v38.15384615384616h-6.585365853658537Z" style="fill: #D2D4CE;"></path><path d="M190.609756097561,61.53846153846154h6.585365853658537v38.46153846153846h-6.585365853658537Z" style="fill: #D2D4CE;"></path><path d="M197.9268292682927,50.153846153846146h6.585365853658537v49.846153846153854h-6.585365853658537Z" style="fill: #D2D4CE;"></path><path d="M205.2439024390244,49.23076923076923h6.585365853658537v50.76923076923077h-6.585365853658537Z" style="fill: #D2D4CE;"></path><path d="M212.56097560975613,43.692307692307686h6.585365853658537v56.307692307692314h-6.585365853658537Z" style="fill: #D2D4CE;"></path><path d="M219.87804878048783,36.30769230769231h6.585365853658537v63.69230769230769h-6.585365853658537Z" style="fill: #D2D4CE;"></path><path d="M227.19512195121953,34.769230769230774h6.585365853658537v65.23076923076923h-6.585365853658537Z" style="fill: #D2D4CE;"></path><path d="M234.51219512195124,34.30769230769231h6.585365853658537v65.6923076923077h-6.585365853658537Z" style="fill: #D2D4CE;"></path><path d="M241.82926829268294,26.46153846153847h6.585365853658537v73.53846153846153h-6.585365853658537Z" style="fill: #D2D4CE;"></path><path d="M249.14634146341464,25.538461538461544h6.585365853658537v74.46153846153845h-6.585365853658537Z" style="fill: #D2D4CE;"></path><path d="M256.4634146341464,19.999999999999996h6.585365853658537v80h-6.585365853658537Z" style="fill: #D2D4CE;"></path><path d="M263.7804878048781,19.07692307692308h6.585365853658537v80.92307692307692h-6.585365853658537Z" style="fill: #D2D4CE;"></path><path d="M271.0975609756098,13.076923076923075h6.585365853658537v86.92307692307692h-6.585365853658537Z" style="fill: #D2D4CE;"></path><path d="M278.4146341463415,4.61538461538461h6.585365853658537v95.38461538461539h-6.585365853658537Z" style="fill: #D2D4CE;"></path><path d="M285.7317073170732,2.1538461538461506h6.585365853658537v97.84615384615385h-6.585365853658537Z" style="fill: #D2D4CE;"></path><path d="M293.0487804878049,1.9999999999999907h6.585365853658537v98.00000000000001h-6.585365853658537Z" style="fill: #D2D4CE;"></path></g></g><path class="foreground" d="" style="display: none; fill: none;"></path></g></g></g></svg>