<svg class="marks" preserveAspectRatio="none" width="310" height="110"  version="1.1" xmlns="http://www.w3.org/2000/svg" xmlns:xlink="http://www.w3.org/1999/xlink"><g transform="translate(5,5)"><g class="mark-group role-frame root"><g transform="translate(0,0)"><path class="background" d="M0,0h300v100h-300Z" style="fill: none; stroke: #ddd; stroke-width: 0;"></path><g><g class="mark-rect role-mark marks"><path d="M0.3658536585365937,100h6.585365853658537v0h-6.585365853658537Z" style="fill: #D2D4CE;"></path><path d="M7.682926829268301,100h6.585365853658537v0h-6.585365853658537Z" style="fill: #D2D4CE;"></path><path d="M15.000000000000009,100h6.585365853658537v0h-6.585365853658537Z" style="fill: #D2D4CE;"></path><path d="M22.317073170731717,100h6.585365853658537v0h-6.585365853658537Z" style="fill: #D2D4CE;"></path><path d="M29.634146341463424,100h6.585365853658537v0h-6.585365853658537Z" style="fill: #D2D4CE;"></path><path d="M36.95121951219513,100h6.585365853658537v0h-6.585365853658537Z" style="fill: #D2D4CE;"></path><path d="M44.26829268292684,100h6.585365853658537v0h-6.585365853658537Z" style="fill: #D2D4CE;"></path><path d="M51.585365853658544,100h6.585365853658537v0h-6.585365853658537Z" style="fill: #D2D4CE;"></path><path d="M58.902439024390254,98.57142857142858h6.585365853658537v1.4285714285714164h-6.585365853658537Z" style="fill: #D2D4CE;"></path><path d="M66.21951219512196,98.57142857142858h6.585365853658537v1.4285714285714164h-6.585365853658537Z" style="fill: #D2D4CE;"></path><path d="M73.53658536585367,98.57142857142858h6.585365853658537v1.4285714285714164h-6.585365853658537Z" style="fill: #D2D4CE;"></path><path d="M80.85365853658537,98.57142857142858h6.585365853658537v1.4285714285714164h-6.585365853658537Z" style="fill: #D2D4CE;"></path><path d="M88.17073170731709,98.57142857142858h6.585365853658537v1.4285714285714164h-6.585365853658537Z" style="fill: #D2D4CE;"></path><path d="M95.48780487804879,97.14285714285714h6.585365853658537v2.857142857142861h-6.585365853658537Z" style="fill: #D2D4CE;"></path><path d="M102.8048780487805,97.14285714285714h6.585365853658537v2.857142857142861h-6.585365853658537Z" style="fill: #D2D4CE;"></path><path d="M110.12195121951221,97.14285714285714h6.585365853658537v2.857142857142861h-6.585365853658537Z" style="fill: #D2D4CE;"></path><path d="M117.43902439024392,97.14285714285714h6.585365853658537v2.857142857142861h-6.585365853658537Z" style="fill: #D2D4CE;"></path><path d="M124.75609756097562,97.14285714285714h6.585365853658537v2.857142857142861h-6.585365853658537Z" style="fill: #D2D4CE;"></path><path d="M132.07317073170734,97.14285714285714h6.585365853658537v2.857142857142861h-6.585365853658537Z" style="fill: #D2D4CE;"></path><path d="M139.39024390243904,97.14285714285714h6.585365853658537v2.857142857142861h-6.585365853658537Z" style="fill: #D2D4CE;"></path><path d="M146.70731707317074,97.14285714285714h6.585365853658537v2.857142857142861h-6.585365853658537Z" style="fill: #D2D4CE;"></path><path d="M154.02439024390245,95.71428571428572h6.585365853658537v4.285714285714278h-6.585365853658537Z" style="fill: #D2D4CE;"></path><path d="M161.34146341463415,95.71428571428572h6.585365853658537v4.285714285714278h-6.585365853658537Z" style="fill: #D2D4CE;"></path><path d="M168.65853658536588,94.28571428571428h6.585365853658537v5.714285714285722h-6.585365853658537Z" style="fill: #D2D4CE;"></path><path d="M175.97560975609758,94.28571428571428h6.585365853658537v5.714285714285722h-6.585365853658537Z" style="fill: #D2D4CE;"></path><path d="M183.2926829268293,94.28571428571428h6.585365853658537v5.714285714285722h-6.585365853658537Z" style="fill: #D2D4CE;"></path><path d="M190.609756097561,90h6.585365853658537v10h-6.585365853658537Z" style="fill: #D2D4CE;"></path><path d="M197.9268292682927,90h6.585365853658537v10h-6.585365853658537Z" style="fill: #D2D4CE;"></path><path d="M205.2439024390244,82.85714285714285h6.585365853658537v17.142857142857153h-6.585365853658537Z" style="fill: #D2D4CE;"></path><path d="M212.56097560975613,81.42857142857143h6.585365853658537v18.57142857142857h-6.585365853658537Z" style="fill: #D2D4CE;"></path><path d="M219.87804878048783,81.42857142857143h6.585365853658537v18.57142857142857h-6.585365853658537Z" style="fill: #D2D4CE;"></path><path d="M227.19512195121953,77.14285714285714h6.585365853658537v22.85714285714286h-6.585365853658537Z" style="fill: #D2D4CE;"></path><path d="M234.51219512195124,72.85714285714286h6.585365853658537v27.14285714285714h-6.585365853658537Z" style="fill: #D2D4CE;"></path><path d="M241.82926829268294,71.42857142857143h6.585365853658537v28.57142857142857h-6.585365853658537Z" style="fill: #D2D4CE;"></path><path d="M249.14634146341464,67.14285714285715h6.585365853658537v32.85714285714285h-6.585365853658537Z" style="fill: #D2D4CE;"></path><path d="M256.4634146341464,62.857142857142854h6.585365853658537v37.142857142857146h-6.585365853658537Z" style="fill: #D2D4CE;"></path><path d="M263.7804878048781,40h6.585365853658537v60h-6.585365853658537Z" style="fill: #D2D4CE;"></path><path d="M271.0975609756098,29.999999999999993h6.585365853658537v70h-6.585365853658537Z" style="fill: #00923E;"></path><path d="M278.4146341463415,21.42857142857143h6.585365853658537v78.57142857142857h-6.585365853658537Z" style="fill: #D2D4CE;"></path><path d="M285.7317073170732,18.571428571428573h6.585365853658537v81.42857142857143h-6.585365853658537Z" style="fill: #D2D4CE;"></path><path d="M293.0487804878049,0h6.585365853658537v100h-6.585365853658537Z" style="fill: #D2D4CE;"></path></g></g><path class="foreground" d="" style="display: none; fill: none;"></path></g></g></g></svg>