<svg class="marks" preserveAspectRatio="none" width="310" height="110"  version="1.1" xmlns="http://www.w3.org/2000/svg" xmlns:xlink="http://www.w3.org/1999/xlink"><g transform="translate(5,5)"><g class="mark-group role-frame root"><g transform="translate(0,0)"><path class="background" d="M0,0h300v100h-300Z" style="fill: none; stroke: #ddd; stroke-width: 0;"></path><g><g class="mark-rect role-mark marks"><path d="M0.3658536585365937,91.41666666666667h6.585365853658537v8.583333333333329h-6.585365853658537Z" style="fill: #00923E;"></path><path d="M7.682926829268301,88h6.585365853658537v12h-6.585365853658537Z" style="fill: #D2D4CE;"></path><path d="M15.000000000000009,84.75h6.585365853658537v15.25h-6.585365853658537Z" style="fill: #D2D4CE;"></path><path d="M22.317073170731717,83.66666666666667h6.585365853658537v16.33333333333333h-6.585365853658537Z" style="fill: #D2D4CE;"></path><path d="M29.634146341463424,83.5h6.585365853658537v16.5h-6.585365853658537Z" style="fill: #D2D4CE;"></path><path d="M36.95121951219513,83.45833333333333h6.585365853658537v16.54166666666667h-6.585365853658537Z" style="fill: #D2D4CE;"></path><path d="M44.26829268292684,82.75h6.585365853658537v17.25h-6.585365853658537Z" style="fill: #D2D4CE;"></path><path d="M51.585365853658544,80.75h6.585365853658537v19.25h-6.585365853658537Z" style="fill: #D2D4CE;"></path><path d="M58.902439024390254,76.375h6.585365853658537v23.625h-6.585365853658537Z" style="fill: #D2D4CE;"></path><path d="M66.21951219512196,75.58333333333334h6.585365853658537v24.416666666666657h-6.585365853658537Z" style="fill: #D2D4CE;"></path><path d="M73.53658536585367,75.45833333333334h6.585365853658537v24.541666666666657h-6.585365853658537Z" style="fill: #D2D4CE;"></path><path d="M80.85365853658537,75.33333333333333h6.585365853658537v24.66666666666667h-6.585365853658537Z" style="fill: #D2D4CE;"></path><path d="M88.17073170731709,74.66666666666666h6.585365853658537v25.333333333333343h-6.585365853658537Z" style="fill: #D2D4CE;"></path><path d="M95.48780487804879,74.04166666666667h6.585365853658537v25.95833333333333h-6.585365853658537Z" style="fill: #D2D4CE;"></path><path d="M102.8048780487805,73.58333333333333h6.585365853658537v26.41666666666667h-6.585365853658537Z" style="fill: #D2D4CE;"></path><path d="M110.12195121951221,72.54166666666666h6.585365853658537v27.458333333333343h-6.585365853658537Z" style="fill: #D2D4CE;"></path><path d="M117.43902439024392,71.75h6.585365853658537v28.25h-6.585365853658537Z" style="fill: #D2D4CE;"></path><path d="M124.75609756097562,70.41666666666666h6.585365853658537v29.583333333333343h-6.585365853658537Z" style="fill: #D2D4CE;"></path><path d="M132.07317073170734,69.25h6.585365853658537v30.75h-6.585365853658537Z" style="fill: #D2D4CE;"></path><path d="M139.39024390243904,68.25h6.585365853658537v31.75h-6.585365853658537Z" style="fill: #D2D4CE;"></path><path d="M146.70731707317074,67.45833333333333h6.585365853658537v32.54166666666667h-6.585365853658537Z" style="fill: #D2D4CE;"></path><path d="M154.02439024390245,66.95833333333334h6.585365853658537v33.04166666666666h-6.585365853658537Z" style="fill: #D2D4CE;"></path><path d="M161.34146341463415,65.70833333333333h6.585365853658537v34.29166666666667h-6.585365853658537Z" style="fill: #D2D4CE;"></path><path d="M168.65853658536588,65.54166666666667h6.585365853658537v34.45833333333333h-6.585365853658537Z" style="fill: #D2D4CE;"></path><path d="M175.97560975609758,63.74999999999999h6.585365853658537v36.25000000000001h-6.585365853658537Z" style="fill: #D2D4CE;"></path><path d="M183.2926829268293,63.375h6.585365853658537v36.625h-6.585365853658537Z" style="fill: #D2D4CE;"></path><path d="M190.609756097561,61.00000000000001h6.585365853658537v38.99999999999999h-6.585365853658537Z" style="fill: #D2D4CE;"></path><path d="M197.9268292682927,58.875000000000014h6.585365853658537v41.124999999999986h-6.585365853658537Z" style="fill: #D2D4CE;"></path><path d="M205.2439024390244,57.791666666666664h6.585365853658537v42.208333333333336h-6.585365853658537Z" style="fill: #D2D4CE;"></path><path d="M212.56097560975613,56.25h6.585365853658537v43.75h-6.585365853658537Z" style="fill: #D2D4CE;"></path><path d="M219.87804878048783,55.375h6.585365853658537v44.625h-6.585365853658537Z" style="fill: #D2D4CE;"></path><path d="M227.19512195121953,54.49999999999999h6.585365853658537v45.50000000000001h-6.585365853658537Z" style="fill: #D2D4CE;"></path><path d="M234.51219512195124,50.499999999999986h6.585365853658537v49.500000000000014h-6.585365853658537Z" style="fill: #D2D4CE;"></path><path d="M241.82926829268294,48h6.585365853658537v52h-6.585365853658537Z" style="fill: #D2D4CE;"></path><path d="M249.14634146341464,42.29166666666667h6.585365853658537v57.70833333333333h-6.585365853658537Z" style="fill: #D2D4CE;"></path><path d="M256.4634146341464,36.20833333333333h6.585365853658537v63.79166666666667h-6.585365853658537Z" style="fill: #D2D4CE;"></path><path d="M263.7804878048781,35.916666666666664h6.585365853658537v64.08333333333334h-6.585365853658537Z" style="fill: #D2D4CE;"></path><path d="M271.0975609756098,29.833333333333336h6.585365853658537v70.16666666666666h-6.585365853658537Z" style="fill: #D2D4CE;"></path><path d="M278.4146341463415,28.500000000000004h6.585365853658537v71.5h-6.585365853658537Z" style="fill: #D2D4CE;"></path><path d="M285.7317073170732,28.250000000000007h6.585365853658537v71.75h-6.585365853658537Z" style="fill: #D2D4CE;"></path><path d="M293.0487804878049,5.666666666666664h6.585365853658537v94.33333333333334h-6.585365853658537Z" style="fill: #D2D4CE;"></path></g></g><path class="foreground" d="" style="display: none; fill: none;"></path></g></g></g></svg>