<svg class="marks" preserveAspectRatio="none" width="310" height="110"  version="1.1" xmlns="http://www.w3.org/2000/svg" xmlns:xlink="http://www.w3.org/1999/xlink"><g transform="translate(5,5)"><g class="mark-group role-frame root"><g transform="translate(0,0)"><path class="background" d="M0,0h300v100h-300Z" style="fill: none; stroke: #ddd; stroke-width: 0;"></path><g><g class="mark-rect role-mark marks"><path d="M0.3658536585365937,95.83333333333334h6.585365853658537v4.166666666666657h-6.585365853658537Z" style="fill: #D2D4CE;"></path><path d="M7.682926829268301,92.5h6.585365853658537v7.5h-6.585365853658537Z" style="fill: #D2D4CE;"></path><path d="M15.000000000000009,91.66666666666666h6.585365853658537v8.333333333333343h-6.585365853658537Z" style="fill: #D2D4CE;"></path><path d="M22.317073170731717,89.16666666666666h6.585365853658537v10.833333333333343h-6.585365853658537Z" style="fill: #D2D4CE;"></path><path d="M29.634146341463424,87.5h6.585365853658537v12.5h-6.585365853658537Z" style="fill: #D2D4CE;"></path><path d="M36.95121951219513,85.83333333333334h6.585365853658537v14.166666666666657h-6.585365853658537Z" style="fill: #D2D4CE;"></path><path d="M44.26829268292684,84.16666666666667h6.585365853658537v15.833333333333329h-6.585365853658537Z" style="fill: #D2D4CE;"></path><path d="M51.585365853658544,81.66666666666667h6.585365853658537v18.33333333333333h-6.585365853658537Z" style="fill: #D2D4CE;"></path><path d="M58.902439024390254,80.83333333333333h6.585365853658537v19.16666666666667h-6.585365853658537Z" style="fill: #D2D4CE;"></path><path d="M66.21951219512196,80h6.585365853658537v20h-6.585365853658537Z" style="fill: #D2D4CE;"></path><path d="M73.53658536585367,77.5h6.585365853658537v22.5h-6.585365853658537Z" style="fill: #D2D4CE;"></path><path d="M80.85365853658537,77.5h6.585365853658537v22.5h-6.585365853658537Z" style="fill: #D2D4CE;"></path><path d="M88.17073170731709,75.83333333333333h6.585365853658537v24.16666666666667h-6.585365853658537Z" style="fill: #D2D4CE;"></path><path d="M95.48780487804879,75h6.585365853658537v25h-6.585365853658537Z" style="fill: #D2D4CE;"></path><path d="M102.8048780487805,74.16666666666667h6.585365853658537v25.83333333333333h-6.585365853658537Z" style="fill: #D2D4CE;"></path><path d="M110.12195121951221,74.16666666666667h6.585365853658537v25.83333333333333h-6.585365853658537Z" style="fill: #00923E;"></path><path d="M117.43902439024392,73.33333333333334h6.585365853658537v26.666666666666657h-6.585365853658537Z" style="fill: #D2D4CE;"></path><path d="M124.75609756097562,73.33333333333334h6.585365853658537v26.666666666666657h-6.585365853658537Z" style="fill: #D2D4CE;"></path><path d="M132.07317073170734,73.33333333333334h6.585365853658537v26.666666666666657h-6.585365853658537Z" style="fill: #D2D4CE;"></path><path d="M139.39024390243904,72.50000000000001h6.585365853658537v27.499999999999986h-6.585365853658537Z" style="fill: #D2D4CE;"></path><path d="M146.70731707317074,71.66666666666667h6.585365853658537v28.33333333333333h-6.585365853658537Z" style="fill: #D2D4CE;"></path><path d="M154.02439024390245,71.66666666666667h6.585365853658537v28.33333333333333h-6.585365853658537Z" style="fill: #D2D4CE;"></path><path d="M161.34146341463415,71.66666666666667h6.585365853658537v28.33333333333333h-6.585365853658537Z" style="fill: #D2D4CE;"></path><path d="M168.65853658536588,70.83333333333333h6.585365853658537v29.16666666666667h-6.585365853658537Z" style="fill: #D2D4CE;"></path><path d="M175.97560975609758,68.33333333333333h6.585365853658537v31.66666666666667h-6.585365853658537Z" style="fill: #D2D4CE;"></path><path d="M183.2926829268293,67.5h6.585365853658537v32.5h-6.585365853658537Z" style="fill: #D2D4CE;"></path><path d="M190.609756097561,64.99999999999999h6.585365853658537v35.000000000000014h-6.585365853658537Z" style="fill: #D2D4CE;"></path><path d="M197.9268292682927,64.16666666666666h6.585365853658537v35.83333333333334h-6.585365853658537Z" style="fill: #D2D4CE;"></path><path d="M205.2439024390244,63.33333333333333h6.585365853658537v36.66666666666667h-6.585365853658537Z" style="fill: #D2D4CE;"></path><path d="M212.56097560975613,63.33333333333333h6.585365853658537v36.66666666666667h-6.585365853658537Z" style="fill: #D2D4CE;"></path><path d="M219.87804878048783,60.00000000000001h6.585365853658537v39.99999999999999h-6.585365853658537Z" style="fill: #D2D4CE;"></path><path d="M227.19512195121953,59.16666666666666h6.585365853658537v40.83333333333334h-6.585365853658537Z" style="fill: #D2D4CE;"></path><path d="M234.51219512195124,57.49999999999999h6.585365853658537v42.50000000000001h-6.585365853658537Z" style="fill: #D2D4CE;"></path><path d="M241.82926829268294,54.16666666666667h6.585365853658537v45.83333333333333h-6.585365853658537Z" style="fill: #D2D4CE;"></path><path d="M249.14634146341464,53.33333333333334h6.585365853658537v46.66666666666666h-6.585365853658537Z" style="fill: #D2D4CE;"></path><path d="M256.4634146341464,48.33333333333333h6.585365853658537v51.66666666666667h-6.585365853658537Z" style="fill: #D2D4CE;"></path><path d="M263.7804878048781,45.00000000000001h6.585365853658537v54.99999999999999h-6.585365853658537Z" style="fill: #D2D4CE;"></path><path d="M271.0975609756098,43.333333333333336h6.585365853658537v56.666666666666664h-6.585365853658537Z" style="fill: #D2D4CE;"></path><path d="M278.4146341463415,40.833333333333336h6.585365853658537v59.166666666666664h-6.585365853658537Z" style="fill: #D2D4CE;"></path><path d="M285.7317073170732,32.50000000000001h6.585365853658537v67.5h-6.585365853658537Z" style="fill: #D2D4CE;"></path><path d="M293.0487804878049,0.8333333333333304h6.585365853658537v99.16666666666667h-6.585365853658537Z" style="fill: #D2D4CE;"></path></g></g><path class="foreground" d="" style="display: none; fill: none;"></path></g></g></g></svg>