<svg class="marks" preserveAspectRatio="none" width="310" height="110"  version="1.1" xmlns="http://www.w3.org/2000/svg" xmlns:xlink="http://www.w3.org/1999/xlink"><g transform="translate(5,5)"><g class="mark-group role-frame root"><g transform="translate(0,0)"><path class="background" d="M0,0h300v100h-300Z" style="fill: none; stroke: #ddd; stroke-width: 0;"></path><g><g class="mark-rect role-mark marks"><path d="M0.3658536585365937,88.33333333333333h6.585365853658537v11.666666666666671h-6.585365853658537Z" style="fill: #D2D4CE;"></path><path d="M7.682926829268301,85.66666666666667h6.585365853658537v14.333333333333329h-6.585365853658537Z" style="fill: #D2D4CE;"></path><path d="M15.000000000000009,84h6.585365853658537v16h-6.585365853658537Z" style="fill: #D2D4CE;"></path><path d="M22.317073170731717,81.66666666666667h6.585365853658537v18.33333333333333h-6.585365853658537Z" style="fill: #D2D4CE;"></path><path d="M29.634146341463424,77.66666666666666h6.585365853658537v22.333333333333343h-6.585365853658537Z" style="fill: #D2D4CE;"></path><path d="M36.95121951219513,77.33333333333333h6.585365853658537v22.66666666666667h-6.585365853658537Z" style="fill: #D2D4CE;"></path><path d="M44.26829268292684,77h6.585365853658537v23h-6.585365853658537Z" style="fill: #D2D4CE;"></path><path d="M51.585365853658544,76h6.585365853658537v24h-6.585365853658537Z" style="fill: #D2D4CE;"></path><path d="M58.902439024390254,74h6.585365853658537v26h-6.585365853658537Z" style="fill: #D2D4CE;"></path><path d="M66.21951219512196,73.66666666666666h6.585365853658537v26.333333333333343h-6.585365853658537Z" style="fill: #D2D4CE;"></path><path d="M73.53658536585367,73.33333333333334h6.585365853658537v26.666666666666657h-6.585365853658537Z" style="fill: #D2D4CE;"></path><path d="M80.85365853658537,72.33333333333334h6.585365853658537v27.666666666666657h-6.585365853658537Z" style="fill: #D2D4CE;"></path><path d="M88.17073170731709,72h6.585365853658537v28h-6.585365853658537Z" style="fill: #D2D4CE;"></path><path d="M95.48780487804879,71h6.585365853658537v29h-6.585365853658537Z" style="fill: #D2D4CE;"></path><path d="M102.8048780487805,67.66666666666667h6.585365853658537v32.33333333333333h-6.585365853658537Z" style="fill: #D2D4CE;"></path><path d="M110.12195121951221,67.66666666666667h6.585365853658537v32.33333333333333h-6.585365853658537Z" style="fill: #D2D4CE;"></path><path d="M117.43902439024392,67.33333333333333h6.585365853658537v32.66666666666667h-6.585365853658537Z" style="fill: #D2D4CE;"></path><path d="M124.75609756097562,66.66666666666667h6.585365853658537v33.33333333333333h-6.585365853658537Z" style="fill: #D2D4CE;"></path><path d="M132.07317073170734,66h6.585365853658537v34h-6.585365853658537Z" style="fill: #D2D4CE;"></path><path d="M139.39024390243904,59.66666666666667h6.585365853658537v40.33333333333333h-6.585365853658537Z" style="fill: #D2D4CE;"></path><path d="M146.70731707317074,58.00000000000001h6.585365853658537v41.99999999999999h-6.585365853658537Z" style="fill: #D2D4CE;"></path><path d="M154.02439024390245,57.00000000000001h6.585365853658537v42.99999999999999h-6.585365853658537Z" style="fill: #D2D4CE;"></path><path d="M161.34146341463415,54.666666666666664h6.585365853658537v45.333333333333336h-6.585365853658537Z" style="fill: #D2D4CE;"></path><path d="M168.65853658536588,52h6.585365853658537v48h-6.585365853658537Z" style="fill: #D2D4CE;"></path><path d="M175.97560975609758,50.33333333333333h6.585365853658537v49.66666666666667h-6.585365853658537Z" style="fill: #D2D4CE;"></path><path d="M183.2926829268293,48.66666666666667h6.585365853658537v51.33333333333333h-6.585365853658537Z" style="fill: #D2D4CE;"></path><path d="M190.609756097561,47h6.585365853658537v53h-6.585365853658537Z" style="fill: #D2D4CE;"></path><path d="M197.9268292682927,45.333333333333336h6.585365853658537v54.666666666666664h-6.585365853658537Z" style="fill: #D2D4CE;"></path><path d="M205.2439024390244,44.99999999999999h6.585365853658537v55.00000000000001h-6.585365853658537Z" style="fill: #D2D4CE;"></path><path d="M212.56097560975613,43.66666666666668h6.585365853658537v56.33333333333332h-6.585365853658537Z" style="fill: #00923E;"></path><path d="M219.87804878048783,41.666666666666664h6.585365853658537v58.333333333333336h-6.585365853658537Z" style="fill: #D2D4CE;"></path><path d="M227.19512195121953,41.333333333333336h6.585365853658537v58.666666666666664h-6.585365853658537Z" style="fill: #D2D4CE;"></path><path d="M234.51219512195124,39h6.585365853658537v61h-6.585365853658537Z" style="fill: #D2D4CE;"></path><path d="M241.82926829268294,38h6.585365853658537v62h-6.585365853658537Z" style="fill: #D2D4CE;"></path><path d="M249.14634146341464,30.666666666666664h6.585365853658537v69.33333333333334h-6.585365853658537Z" style="fill: #D2D4CE;"></path><path d="M256.4634146341464,25h6.585365853658537v75h-6.585365853658537Z" style="fill: #D2D4CE;"></path><path d="M263.7804878048781,23.33333333333333h6.585365853658537v76.66666666666667h-6.585365853658537Z" style="fill: #D2D4CE;"></path><path d="M271.0975609756098,21.333333333333325h6.585365853658537v78.66666666666667h-6.585365853658537Z" style="fill: #D2D4CE;"></path><path d="M278.4146341463415,21.000000000000007h6.585365853658537v79h-6.585365853658537Z" style="fill: #D2D4CE;"></path><path d="M285.7317073170732,17.999999999999993h6.585365853658537v82h-6.585365853658537Z" style="fill: #D2D4CE;"></path><path d="M293.0487804878049,5.000000000000004h6.585365853658537v95h-6.585365853658537Z" style="fill: #D2D4CE;"></path></g></g><path class="foreground" d="" style="display: none; fill: none;"></path></g></g></g></svg>