<svg class="marks" preserveAspectRatio="none" width="310" height="110"  version="1.1" xmlns="http://www.w3.org/2000/svg" xmlns:xlink="http://www.w3.org/1999/xlink"><g transform="translate(5,5)"><g class="mark-group role-frame root"><g transform="translate(0,0)"><path class="background" d="M0,0h300v100h-300Z" style="fill: none; stroke: #ddd; stroke-width: 0;"></path><g><g class="mark-rect role-mark marks"><path d="M0.3658536585365937,93.66666666666667h6.585365853658537v6.333333333333329h-6.585365853658537Z" style="fill: #D2D4CE;"></path><path d="M7.682926829268301,89.66666666666667h6.585365853658537v10.333333333333329h-6.585365853658537Z" style="fill: #D2D4CE;"></path><path d="M15.000000000000009,89h6.585365853658537v11h-6.585365853658537Z" style="fill: #D2D4CE;"></path><path d="M22.317073170731717,87.33333333333333h6.585365853658537v12.666666666666671h-6.585365853658537Z" style="fill: #D2D4CE;"></path><path d="M29.634146341463424,86h6.585365853658537v14h-6.585365853658537Z" style="fill: #D2D4CE;"></path><path d="M36.95121951219513,85.33333333333333h6.585365853658537v14.666666666666671h-6.585365853658537Z" style="fill: #D2D4CE;"></path><path d="M44.26829268292684,84h6.585365853658537v16h-6.585365853658537Z" style="fill: #D2D4CE;"></path><path d="M51.585365853658544,82h6.585365853658537v18h-6.585365853658537Z" style="fill: #D2D4CE;"></path><path d="M58.902439024390254,81.66666666666667h6.585365853658537v18.33333333333333h-6.585365853658537Z" style="fill: #D2D4CE;"></path><path d="M66.21951219512196,80.66666666666666h6.585365853658537v19.333333333333343h-6.585365853658537Z" style="fill: #D2D4CE;"></path><path d="M73.53658536585367,80.33333333333333h6.585365853658537v19.66666666666667h-6.585365853658537Z" style="fill: #D2D4CE;"></path><path d="M80.85365853658537,79.66666666666666h6.585365853658537v20.333333333333343h-6.585365853658537Z" style="fill: #D2D4CE;"></path><path d="M88.17073170731709,78.66666666666666h6.585365853658537v21.333333333333343h-6.585365853658537Z" style="fill: #D2D4CE;"></path><path d="M95.48780487804879,71.33333333333334h6.585365853658537v28.666666666666657h-6.585365853658537Z" style="fill: #D2D4CE;"></path><path d="M102.8048780487805,68.66666666666667h6.585365853658537v31.33333333333333h-6.585365853658537Z" style="fill: #D2D4CE;"></path><path d="M110.12195121951221,67h6.585365853658537v33h-6.585365853658537Z" style="fill: #D2D4CE;"></path><path d="M117.43902439024392,66.66666666666667h6.585365853658537v33.33333333333333h-6.585365853658537Z" style="fill: #D2D4CE;"></path><path d="M124.75609756097562,66.33333333333333h6.585365853658537v33.66666666666667h-6.585365853658537Z" style="fill: #D2D4CE;"></path><path d="M132.07317073170734,65.66666666666666h6.585365853658537v34.33333333333334h-6.585365853658537Z" style="fill: #D2D4CE;"></path><path d="M139.39024390243904,65.66666666666666h6.585365853658537v34.33333333333334h-6.585365853658537Z" style="fill: #D2D4CE;"></path><path d="M146.70731707317074,64.33333333333333h6.585365853658537v35.66666666666667h-6.585365853658537Z" style="fill: #00923E;"></path><path d="M154.02439024390245,61.00000000000001h6.585365853658537v38.99999999999999h-6.585365853658537Z" style="fill: #D2D4CE;"></path><path d="M161.34146341463415,61.00000000000001h6.585365853658537v38.99999999999999h-6.585365853658537Z" style="fill: #D2D4CE;"></path><path d="M168.65853658536588,60h6.585365853658537v40h-6.585365853658537Z" style="fill: #D2D4CE;"></path><path d="M175.97560975609758,57.666666666666664h6.585365853658537v42.333333333333336h-6.585365853658537Z" style="fill: #D2D4CE;"></path><path d="M183.2926829268293,53.333333333333336h6.585365853658537v46.666666666666664h-6.585365853658537Z" style="fill: #D2D4CE;"></path><path d="M190.609756097561,53h6.585365853658537v47h-6.585365853658537Z" style="fill: #D2D4CE;"></path><path d="M197.9268292682927,49.33333333333334h6.585365853658537v50.66666666666666h-6.585365853658537Z" style="fill: #D2D4CE;"></path><path d="M205.2439024390244,45.333333333333336h6.585365853658537v54.666666666666664h-6.585365853658537Z" style="fill: #D2D4CE;"></path><path d="M212.56097560975613,43.66666666666668h6.585365853658537v56.33333333333332h-6.585365853658537Z" style="fill: #D2D4CE;"></path><path d="M219.87804878048783,43.66666666666668h6.585365853658537v56.33333333333332h-6.585365853658537Z" style="fill: #D2D4CE;"></path><path d="M227.19512195121953,43.333333333333336h6.585365853658537v56.666666666666664h-6.585365853658537Z" style="fill: #D2D4CE;"></path><path d="M234.51219512195124,39h6.585365853658537v61h-6.585365853658537Z" style="fill: #D2D4CE;"></path><path d="M241.82926829268294,37h6.585365853658537v63h-6.585365853658537Z" style="fill: #D2D4CE;"></path><path d="M249.14634146341464,32.666666666666664h6.585365853658537v67.33333333333334h-6.585365853658537Z" style="fill: #D2D4CE;"></path><path d="M256.4634146341464,31.666666666666664h6.585365853658537v68.33333333333334h-6.585365853658537Z" style="fill: #D2D4CE;"></path><path d="M263.7804878048781,27.333333333333332h6.585365853658537v72.66666666666667h-6.585365853658537Z" style="fill: #D2D4CE;"></path><path d="M271.0975609756098,24.33333333333334h6.585365853658537v75.66666666666666h-6.585365853658537Z" style="fill: #D2D4CE;"></path><path d="M278.4146341463415,21.333333333333325h6.585365853658537v78.66666666666667h-6.585365853658537Z" style="fill: #D2D4CE;"></path><path d="M285.7317073170732,14.333333333333332h6.585365853658537v85.66666666666667h-6.585365853658537Z" style="fill: #D2D4CE;"></path><path d="M293.0487804878049,1.6666666666666718h6.585365853658537v98.33333333333333h-6.585365853658537Z" style="fill: #D2D4CE;"></path></g></g><path class="foreground" d="" style="display: none; fill: none;"></path></g></g></g></svg>