<svg class="marks" preserveAspectRatio="none" width="310" height="110"  version="1.1" xmlns="http://www.w3.org/2000/svg" xmlns:xlink="http://www.w3.org/1999/xlink"><g transform="translate(5,5)"><g class="mark-group role-frame root"><g transform="translate(0,0)"><path class="background" d="M0,0h300v100h-300Z" style="fill: none; stroke: #ddd; stroke-width: 0;"></path><g><g class="mark-rect role-mark marks"><path d="M0.3658536585365937,96.66666666666667h6.585365853658537v3.3333333333333286h-6.585365853658537Z" style="fill: #D2D4CE;"></path><path d="M7.682926829268301,93.33333333333333h6.585365853658537v6.666666666666671h-6.585365853658537Z" style="fill: #00923E;"></path><path d="M15.000000000000009,90.22222222222223h6.585365853658537v9.777777777777771h-6.585365853658537Z" style="fill: #D2D4CE;"></path><path d="M22.317073170731717,89.55555555555556h6.585365853658537v10.444444444444443h-6.585365853658537Z" style="fill: #D2D4CE;"></path><path d="M29.634146341463424,89.33333333333333h6.585365853658537v10.666666666666671h-6.585365853658537Z" style="fill: #D2D4CE;"></path><path d="M36.95121951219513,88.66666666666667h6.585365853658537v11.333333333333329h-6.585365853658537Z" style="fill: #D2D4CE;"></path><path d="M44.26829268292684,87.55555555555556h6.585365853658537v12.444444444444443h-6.585365853658537Z" style="fill: #D2D4CE;"></path><path d="M51.585365853658544,87.55555555555556h6.585365853658537v12.444444444444443h-6.585365853658537Z" style="fill: #D2D4CE;"></path><path d="M58.902439024390254,87.11111111111111h6.585365853658537v12.888888888888886h-6.585365853658537Z" style="fill: #D2D4CE;"></path><path d="M66.21951219512196,86h6.585365853658537v14h-6.585365853658537Z" style="fill: #D2D4CE;"></path><path d="M73.53658536585367,85.77777777777777h6.585365853658537v14.222222222222229h-6.585365853658537Z" style="fill: #D2D4CE;"></path><path d="M80.85365853658537,85.33333333333333h6.585365853658537v14.666666666666671h-6.585365853658537Z" style="fill: #D2D4CE;"></path><path d="M88.17073170731709,85.11111111111111h6.585365853658537v14.888888888888886h-6.585365853658537Z" style="fill: #D2D4CE;"></path><path d="M95.48780487804879,81.11111111111111h6.585365853658537v18.888888888888886h-6.585365853658537Z" style="fill: #D2D4CE;"></path><path d="M102.8048780487805,80h6.585365853658537v20h-6.585365853658537Z" style="fill: #D2D4CE;"></path><path d="M110.12195121951221,80h6.585365853658537v20h-6.585365853658537Z" style="fill: #D2D4CE;"></path><path d="M117.43902439024392,79.11111111111111h6.585365853658537v20.888888888888886h-6.585365853658537Z" style="fill: #D2D4CE;"></path><path d="M124.75609756097562,77.77777777777779h6.585365853658537v22.222222222222214h-6.585365853658537Z" style="fill: #D2D4CE;"></path><path d="M132.07317073170734,75.55555555555556h6.585365853658537v24.444444444444443h-6.585365853658537Z" style="fill: #D2D4CE;"></path><path d="M139.39024390243904,74.8888888888889h6.585365853658537v25.1111111111111h-6.585365853658537Z" style="fill: #D2D4CE;"></path><path d="M146.70731707317074,72.22222222222221h6.585365853658537v27.777777777777786h-6.585365853658537Z" style="fill: #D2D4CE;"></path><path d="M154.02439024390245,69.33333333333334h6.585365853658537v30.666666666666657h-6.585365853658537Z" style="fill: #D2D4CE;"></path><path d="M161.34146341463415,66.66666666666667h6.585365853658537v33.33333333333333h-6.585365853658537Z" style="fill: #D2D4CE;"></path><path d="M168.65853658536588,66.44444444444444h6.585365853658537v33.55555555555556h-6.585365853658537Z" style="fill: #D2D4CE;"></path><path d="M175.97560975609758,65.55555555555556h6.585365853658537v34.44444444444444h-6.585365853658537Z" style="fill: #D2D4CE;"></path><path d="M183.2926829268293,64.22222222222223h6.585365853658537v35.77777777777777h-6.585365853658537Z" style="fill: #D2D4CE;"></path><path d="M190.609756097561,60h6.585365853658537v40h-6.585365853658537Z" style="fill: #D2D4CE;"></path><path d="M197.9268292682927,56.222222222222214h6.585365853658537v43.777777777777786h-6.585365853658537Z" style="fill: #D2D4CE;"></path><path d="M205.2439024390244,54.44444444444445h6.585365853658537v45.55555555555555h-6.585365853658537Z" style="fill: #D2D4CE;"></path><path d="M212.56097560975613,45.111111111111114h6.585365853658537v54.888888888888886h-6.585365853658537Z" style="fill: #D2D4CE;"></path><path d="M219.87804878048783,38.66666666666666h6.585365853658537v61.33333333333334h-6.585365853658537Z" style="fill: #D2D4CE;"></path><path d="M227.19512195121953,36.22222222222222h6.585365853658537v63.77777777777778h-6.585365853658537Z" style="fill: #D2D4CE;"></path><path d="M234.51219512195124,27.77777777777778h6.585365853658537v72.22222222222223h-6.585365853658537Z" style="fill: #D2D4CE;"></path><path d="M241.82926829268294,26h6.585365853658537v74h-6.585365853658537Z" style="fill: #D2D4CE;"></path><path d="M249.14634146341464,24.66666666666667h6.585365853658537v75.33333333333333h-6.585365853658537Z" style="fill: #D2D4CE;"></path><path d="M256.4634146341464,23.555555555555564h6.585365853658537v76.44444444444443h-6.585365853658537Z" style="fill: #D2D4CE;"></path><path d="M263.7804878048781,18.000000000000004h6.585365853658537v82h-6.585365853658537Z" style="fill: #D2D4CE;"></path><path d="M271.0975609756098,13.111111111111107h6.585365853658537v86.88888888888889h-6.585365853658537Z" style="fill: #D2D4CE;"></path><path d="M278.4146341463415,12.888888888888882h6.585365853658537v87.11111111111111h-6.585365853658537Z" style="fill: #D2D4CE;"></path><path d="M285.7317073170732,12.444444444444446h6.585365853658537v87.55555555555556h-6.585365853658537Z" style="fill: #D2D4CE;"></path><path d="M293.0487804878049,9.55555555555555h6.585365853658537v90.44444444444446h-6.585365853658537Z" style="fill: #D2D4CE;"></path></g></g><path class="foreground" d="" style="display: none; fill: none;"></path></g></g></g></svg>