<svg class="marks" preserveAspectRatio="none" width="310" height="110"  version="1.1" xmlns="http://www.w3.org/2000/svg" xmlns:xlink="http://www.w3.org/1999/xlink"><g transform="translate(5,5)"><g class="mark-group role-frame root"><g transform="translate(0,0)"><path class="background" d="M0,0h300v100h-300Z" style="fill: none; stroke: #ddd; stroke-width: 0;"></path><g><g class="mark-rect role-mark marks"><path d="M0.3658536585365937,69.6h6.585365853658537v30.400000000000006h-6.585365853658537Z" style="fill: #D2D4CE;"></path><path d="M7.682926829268301,68.21818181818182h6.585365853658537v31.78181818181818h-6.585365853658537Z" style="fill: #D2D4CE;"></path><path d="M15.000000000000009,63.70909090909092h6.585365853658537v36.29090909090908h-6.585365853658537Z" style="fill: #D2D4CE;"></path><path d="M22.317073170731717,61.490909090909085h6.585365853658537v38.509090909090915h-6.585365853658537Z" style="fill: #D2D4CE;"></path><path d="M29.634146341463424,60.236363636363635h6.585365853658537v39.763636363636365h-6.585365853658537Z" style="fill: #D2D4CE;"></path><path d="M36.95121951219513,59.92727272727273h6.585365853658537v40.07272727272727h-6.585365853658537Z" style="fill: #D2D4CE;"></path><path d="M44.26829268292684,57.854545454545445h6.585365853658537v42.145454545454555h-6.585365853658537Z" style="fill: #D2D4CE;"></path><path d="M51.585365853658544,56.83636363636364h6.585365853658537v43.16363636363636h-6.585365853658537Z" style="fill: #D2D4CE;"></path><path d="M58.902439024390254,56.2h6.585365853658537v43.8h-6.585365853658537Z" style="fill: #D2D4CE;"></path><path d="M66.21951219512196,54.07272727272727h6.585365853658537v45.92727272727273h-6.585365853658537Z" style="fill: #D2D4CE;"></path><path d="M73.53658536585367,52.381818181818176h6.585365853658537v47.618181818181824h-6.585365853658537Z" style="fill: #D2D4CE;"></path><path d="M80.85365853658537,50.5090909090909h6.585365853658537v49.4909090909091h-6.585365853658537Z" style="fill: #D2D4CE;"></path><path d="M88.17073170731709,49.763636363636365h6.585365853658537v50.236363636363635h-6.585365853658537Z" style="fill: #D2D4CE;"></path><path d="M95.48780487804879,49.509090909090915h6.585365853658537v50.490909090909085h-6.585365853658537Z" style="fill: #D2D4CE;"></path><path d="M102.8048780487805,47.8h6.585365853658537v52.2h-6.585365853658537Z" style="fill: #D2D4CE;"></path><path d="M110.12195121951221,46.38181818181818h6.585365853658537v53.61818181818182h-6.585365853658537Z" style="fill: #D2D4CE;"></path><path d="M117.43902439024392,46.199999999999996h6.585365853658537v53.800000000000004h-6.585365853658537Z" style="fill: #D2D4CE;"></path><path d="M124.75609756097562,43.63636363636364h6.585365853658537v56.36363636363636h-6.585365853658537Z" style="fill: #00923E;"></path><path d="M132.07317073170734,42.01818181818182h6.585365853658537v57.98181818181818h-6.585365853658537Z" style="fill: #D2D4CE;"></path><path d="M139.39024390243904,41.92727272727272h6.585365853658537v58.07272727272728h-6.585365853658537Z" style="fill: #D2D4CE;"></path><path d="M146.70731707317074,41.90909090909091h6.585365853658537v58.09090909090909h-6.585365853658537Z" style="fill: #D2D4CE;"></path><path d="M154.02439024390245,41.03636363636364h6.585365853658537v58.96363636363636h-6.585365853658537Z" style="fill: #D2D4CE;"></path><path d="M161.34146341463415,39.89090909090909h6.585365853658537v60.10909090909091h-6.585365853658537Z" style="fill: #D2D4CE;"></path><path d="M168.65853658536588,39.67272727272727h6.585365853658537v60.32727272727273h-6.585365853658537Z" style="fill: #D2D4CE;"></path><path d="M175.97560975609758,38.0909090909091h6.585365853658537v61.9090909090909h-6.585365853658537Z" style="fill: #D2D4CE;"></path><path d="M183.2926829268293,37.63636363636365h6.585365853658537v62.36363636363635h-6.585365853658537Z" style="fill: #D2D4CE;"></path><path d="M190.609756097561,36.945454545454545h6.585365853658537v63.054545454545455h-6.585365853658537Z" style="fill: #D2D4CE;"></path><path d="M197.9268292682927,36.03636363636363h6.585365853658537v63.96363636363637h-6.585365853658537Z" style="fill: #D2D4CE;"></path><path d="M205.2439024390244,34.01818181818182h6.585365853658537v65.98181818181817h-6.585365853658537Z" style="fill: #D2D4CE;"></path><path d="M212.56097560975613,33.63636363636363h6.585365853658537v66.36363636363637h-6.585365853658537Z" style="fill: #D2D4CE;"></path><path d="M219.87804878048783,28.59999999999999h6.585365853658537v71.4h-6.585365853658537Z" style="fill: #D2D4CE;"></path><path d="M227.19512195121953,27.96363636363637h6.585365853658537v72.03636363636363h-6.585365853658537Z" style="fill: #D2D4CE;"></path><path d="M234.51219512195124,27.509090909090915h6.585365853658537v72.49090909090908h-6.585365853658537Z" style="fill: #D2D4CE;"></path><path d="M241.82926829268294,25.27272727272727h6.585365853658537v74.72727272727273h-6.585365853658537Z" style="fill: #D2D4CE;"></path><path d="M249.14634146341464,24.6h6.585365853658537v75.4h-6.585365853658537Z" style="fill: #D2D4CE;"></path><path d="M256.4634146341464,23.690909090909095h6.585365853658537v76.30909090909091h-6.585365853658537Z" style="fill: #D2D4CE;"></path><path d="M263.7804878048781,21.145454545454545h6.585365853658537v78.85454545454546h-6.585365853658537Z" style="fill: #D2D4CE;"></path><path d="M271.0975609756098,16.254545454545454h6.585365853658537v83.74545454545455h-6.585365853658537Z" style="fill: #D2D4CE;"></path><path d="M278.4146341463415,12.018181818181816h6.585365853658537v87.98181818181818h-6.585365853658537Z" style="fill: #D2D4CE;"></path><path d="M285.7317073170732,9.3090909090909h6.585365853658537v90.6909090909091h-6.585365853658537Z" style="fill: #D2D4CE;"></path><path d="M293.0487804878049,4.963636363636359h6.585365853658537v95.03636363636365h-6.585365853658537Z" style="fill: #D2D4CE;"></path></g></g><path class="foreground" d="" style="display: none; fill: none;"></path></g></g></g></svg>