<svg class="marks" preserveAspectRatio="none" width="310" height="110"  version="1.1" xmlns="http://www.w3.org/2000/svg" xmlns:xlink="http://www.w3.org/1999/xlink"><g transform="translate(5,5)"><g class="mark-group role-frame root"><g transform="translate(0,0)"><path class="background" d="M0,0h300v100h-300Z" style="fill: none; stroke: #ddd; stroke-width: 0;"></path><g><g class="mark-rect role-mark marks"><path d="M0.3658536585365937,68.07692307692308h6.585365853658537v31.92307692307692h-6.585365853658537Z" style="fill: #D2D4CE;"></path><path d="M7.682926829268301,58.07692307692307h6.585365853658537v41.92307692307693h-6.585365853658537Z" style="fill: #D2D4CE;"></path><path d="M15.000000000000009,57.692307692307686h6.585365853658537v42.307692307692314h-6.585365853658537Z" style="fill: #D2D4CE;"></path><path d="M22.317073170731717,55.00000000000001h6.585365853658537v44.99999999999999h-6.585365853658537Z" style="fill: #D2D4CE;"></path><path d="M29.634146341463424,55.00000000000001h6.585365853658537v44.99999999999999h-6.585365853658537Z" style="fill: #D2D4CE;"></path><path d="M36.95121951219513,55.00000000000001h6.585365853658537v44.99999999999999h-6.585365853658537Z" style="fill: #D2D4CE;"></path><path d="M44.26829268292684,53.84615384615385h6.585365853658537v46.15384615384615h-6.585365853658537Z" style="fill: #D2D4CE;"></path><path d="M51.585365853658544,52.69230769230768h6.585365853658537v47.30769230769232h-6.585365853658537Z" style="fill: #D2D4CE;"></path><path d="M58.902439024390254,52.3076923076923h6.585365853658537v47.6923076923077h-6.585365853658537Z" style="fill: #D2D4CE;"></path><path d="M66.21951219512196,51.153846153846146h6.585365853658537v48.846153846153854h-6.585365853658537Z" style="fill: #00923E;"></path><path d="M73.53658536585367,50.76923076923077h6.585365853658537v49.23076923076923h-6.585365853658537Z" style="fill: #D2D4CE;"></path><path d="M80.85365853658537,44.61538461538461h6.585365853658537v55.38461538461539h-6.585365853658537Z" style="fill: #D2D4CE;"></path><path d="M88.17073170731709,44.230769230769226h6.585365853658537v55.769230769230774h-6.585365853658537Z" style="fill: #D2D4CE;"></path><path d="M95.48780487804879,43.46153846153846h6.585365853658537v56.53846153846154h-6.585365853658537Z" style="fill: #D2D4CE;"></path><path d="M102.8048780487805,40h6.585365853658537v60h-6.585365853658537Z" style="fill: #D2D4CE;"></path><path d="M110.12195121951221,40h6.585365853658537v60h-6.585365853658537Z" style="fill: #D2D4CE;"></path><path d="M117.43902439024392,38.84615384615384h6.585365853658537v61.15384615384616h-6.585365853658537Z" style="fill: #D2D4CE;"></path><path d="M124.75609756097562,38.07692307692307h6.585365853658537v61.92307692307693h-6.585365853658537Z" style="fill: #D2D4CE;"></path><path d="M132.07317073170734,35.38461538461538h6.585365853658537v64.61538461538461h-6.585365853658537Z" style="fill: #D2D4CE;"></path><path d="M139.39024390243904,34.23076923076922h6.585365853658537v65.76923076923077h-6.585365853658537Z" style="fill: #D2D4CE;"></path><path d="M146.70731707317074,33.46153846153845h6.585365853658537v66.53846153846155h-6.585365853658537Z" style="fill: #D2D4CE;"></path><path d="M154.02439024390245,31.153846153846153h6.585365853658537v68.84615384615384h-6.585365853658537Z" style="fill: #D2D4CE;"></path><path d="M161.34146341463415,30.000000000000004h6.585365853658537v70h-6.585365853658537Z" style="fill: #D2D4CE;"></path><path d="M168.65853658536588,29.61538461538461h6.585365853658537v70.38461538461539h-6.585365853658537Z" style="fill: #D2D4CE;"></path><path d="M175.97560975609758,29.61538461538461h6.585365853658537v70.38461538461539h-6.585365853658537Z" style="fill: #D2D4CE;"></path><path d="M183.2926829268293,28.846153846153843h6.585365853658537v71.15384615384616h-6.585365853658537Z" style="fill: #D2D4CE;"></path><path d="M190.609756097561,28.846153846153843h6.585365853658537v71.15384615384616h-6.585365853658537Z" style="fill: #D2D4CE;"></path><path d="M197.9268292682927,26.538461538461533h6.585365853658537v73.46153846153847h-6.585365853658537Z" style="fill: #D2D4CE;"></path><path d="M205.2439024390244,26.15384615384616h6.585365853658537v73.84615384615384h-6.585365853658537Z" style="fill: #D2D4CE;"></path><path d="M212.56097560975613,25.384615384615394h6.585365853658537v74.61538461538461h-6.585365853658537Z" style="fill: #D2D4CE;"></path><path d="M219.87804878048783,23.076923076923073h6.585365853658537v76.92307692307693h-6.585365853658537Z" style="fill: #D2D4CE;"></path><path d="M227.19512195121953,22.307692307692307h6.585365853658537v77.6923076923077h-6.585365853658537Z" style="fill: #D2D4CE;"></path><path d="M234.51219512195124,19.23076923076923h6.585365853658537v80.76923076923077h-6.585365853658537Z" style="fill: #D2D4CE;"></path><path d="M241.82926829268294,19.23076923076923h6.585365853658537v80.76923076923077h-6.585365853658537Z" style="fill: #D2D4CE;"></path><path d="M249.14634146341464,18.461538461538463h6.585365853658537v81.53846153846153h-6.585365853658537Z" style="fill: #D2D4CE;"></path><path d="M256.4634146341464,14.230769230769225h6.585365853658537v85.76923076923077h-6.585365853658537Z" style="fill: #D2D4CE;"></path><path d="M263.7804878048781,12.307692307692308h6.585365853658537v87.6923076923077h-6.585365853658537Z" style="fill: #D2D4CE;"></path><path d="M271.0975609756098,10.384615384615381h6.585365853658537v89.61538461538461h-6.585365853658537Z" style="fill: #D2D4CE;"></path><path d="M278.4146341463415,9.615384615384615h6.585365853658537v90.38461538461539h-6.585365853658537Z" style="fill: #D2D4CE;"></path><path d="M285.7317073170732,6.538461538461537h6.585365853658537v93.46153846153847h-6.585365853658537Z" style="fill: #D2D4CE;"></path><path d="M293.0487804878049,1.9230769230769273h6.585365853658537v98.07692307692307h-6.585365853658537Z" style="fill: #D2D4CE;"></path></g></g><path class="foreground" d="" style="display: none; fill: none;"></path></g></g></g></svg>