<svg class="marks" preserveAspectRatio="none" width="310" height="110"  version="1.1" xmlns="http://www.w3.org/2000/svg" xmlns:xlink="http://www.w3.org/1999/xlink"><g transform="translate(5,5)"><g class="mark-group role-frame root"><g transform="translate(0,0)"><path class="background" d="M0,0h300v100h-300Z" style="fill: none; stroke: #ddd; stroke-width: 0;"></path><g><g class="mark-rect role-mark marks"><path d="M0.3658536585365937,95.91666666666666h6.585365853658537v4.083333333333343h-6.585365853658537Z" style="fill: #D2D4CE;"></path><path d="M7.682926829268301,94.58333333333333h6.585365853658537v5.416666666666671h-6.585365853658537Z" style="fill: #D2D4CE;"></path><path d="M15.000000000000009,94.5h6.585365853658537v5.5h-6.585365853658537Z" style="fill: #D2D4CE;"></path><path d="M22.317073170731717,93.41666666666667h6.585365853658537v6.583333333333329h-6.585365853658537Z" style="fill: #D2D4CE;"></path><path d="M29.634146341463424,92.91666666666667h6.585365853658537v7.083333333333329h-6.585365853658537Z" style="fill: #D2D4CE;"></path><path d="M36.95121951219513,92.33333333333333h6.585365853658537v7.666666666666671h-6.585365853658537Z" style="fill: #D2D4CE;"></path><path d="M44.26829268292684,92.25h6.585365853658537v7.75h-6.585365853658537Z" style="fill: #D2D4CE;"></path><path d="M51.585365853658544,89.41666666666667h6.585365853658537v10.583333333333329h-6.585365853658537Z" style="fill: #D2D4CE;"></path><path d="M58.902439024390254,89.33333333333333h6.585365853658537v10.666666666666671h-6.585365853658537Z" style="fill: #D2D4CE;"></path><path d="M66.21951219512196,89.25h6.585365853658537v10.75h-6.585365853658537Z" style="fill: #D2D4CE;"></path><path d="M73.53658536585367,87.75h6.585365853658537v12.25h-6.585365853658537Z" style="fill: #D2D4CE;"></path><path d="M80.85365853658537,86.25h6.585365853658537v13.75h-6.585365853658537Z" style="fill: #D2D4CE;"></path><path d="M88.17073170731709,85.08333333333333h6.585365853658537v14.916666666666671h-6.585365853658537Z" style="fill: #D2D4CE;"></path><path d="M95.48780487804879,84.83333333333334h6.585365853658537v15.166666666666657h-6.585365853658537Z" style="fill: #D2D4CE;"></path><path d="M102.8048780487805,84.5h6.585365853658537v15.5h-6.585365853658537Z" style="fill: #D2D4CE;"></path><path d="M110.12195121951221,84.5h6.585365853658537v15.5h-6.585365853658537Z" style="fill: #D2D4CE;"></path><path d="M117.43902439024392,84h6.585365853658537v16h-6.585365853658537Z" style="fill: #D2D4CE;"></path><path d="M124.75609756097562,83.41666666666667h6.585365853658537v16.58333333333333h-6.585365853658537Z" style="fill: #D2D4CE;"></path><path d="M132.07317073170734,83h6.585365853658537v17h-6.585365853658537Z" style="fill: #D2D4CE;"></path><path d="M139.39024390243904,81.83333333333334h6.585365853658537v18.166666666666657h-6.585365853658537Z" style="fill: #D2D4CE;"></path><path d="M146.70731707317074,80.66666666666666h6.585365853658537v19.333333333333343h-6.585365853658537Z" style="fill: #D2D4CE;"></path><path d="M154.02439024390245,79.91666666666667h6.585365853658537v20.08333333333333h-6.585365853658537Z" style="fill: #D2D4CE;"></path><path d="M161.34146341463415,78.5h6.585365853658537v21.5h-6.585365853658537Z" style="fill: #D2D4CE;"></path><path d="M168.65853658536588,75.25h6.585365853658537v24.75h-6.585365853658537Z" style="fill: #D2D4CE;"></path><path d="M175.97560975609758,73.66666666666666h6.585365853658537v26.333333333333343h-6.585365853658537Z" style="fill: #00923E;"></path><path d="M183.2926829268293,73.33333333333334h6.585365853658537v26.666666666666657h-6.585365853658537Z" style="fill: #D2D4CE;"></path><path d="M190.609756097561,72.58333333333333h6.585365853658537v27.41666666666667h-6.585365853658537Z" style="fill: #D2D4CE;"></path><path d="M197.9268292682927,67.5h6.585365853658537v32.5h-6.585365853658537Z" style="fill: #D2D4CE;"></path><path d="M205.2439024390244,65.08333333333334h6.585365853658537v34.91666666666666h-6.585365853658537Z" style="fill: #D2D4CE;"></path><path d="M212.56097560975613,62.83333333333333h6.585365853658537v37.16666666666667h-6.585365853658537Z" style="fill: #D2D4CE;"></path><path d="M219.87804878048783,62h6.585365853658537v38h-6.585365853658537Z" style="fill: #D2D4CE;"></path><path d="M227.19512195121953,59.66666666666667h6.585365853658537v40.33333333333333h-6.585365853658537Z" style="fill: #D2D4CE;"></path><path d="M234.51219512195124,46.58333333333334h6.585365853658537v53.41666666666666h-6.585365853658537Z" style="fill: #D2D4CE;"></path><path d="M241.82926829268294,43.91666666666667h6.585365853658537v56.08333333333333h-6.585365853658537Z" style="fill: #D2D4CE;"></path><path d="M249.14634146341464,43.25h6.585365853658537v56.75h-6.585365853658537Z" style="fill: #D2D4CE;"></path><path d="M256.4634146341464,40.49999999999999h6.585365853658537v59.50000000000001h-6.585365853658537Z" style="fill: #D2D4CE;"></path><path d="M263.7804878048781,27.416666666666668h6.585365853658537v72.58333333333333h-6.585365853658537Z" style="fill: #D2D4CE;"></path><path d="M271.0975609756098,20.75h6.585365853658537v79.25h-6.585365853658537Z" style="fill: #D2D4CE;"></path><path d="M278.4146341463415,18.25h6.585365853658537v81.75h-6.585365853658537Z" style="fill: #D2D4CE;"></path><path d="M285.7317073170732,12.833333333333341h6.585365853658537v87.16666666666666h-6.585365853658537Z" style="fill: #D2D4CE;"></path><path d="M293.0487804878049,7.000000000000006h6.585365853658537v93h-6.585365853658537Z" style="fill: #D2D4CE;"></path></g></g><path class="foreground" d="" style="display: none; fill: none;"></path></g></g></g></svg>