<svg class="marks" preserveAspectRatio="none" width="310" height="110"  version="1.1" xmlns="http://www.w3.org/2000/svg" xmlns:xlink="http://www.w3.org/1999/xlink"><g transform="translate(5,5)"><g class="mark-group role-frame root"><g transform="translate(0,0)"><path class="background" d="M0,0h300v100h-300Z" style="fill: none; stroke: #ddd; stroke-width: 0;"></path><g><g class="mark-rect role-mark marks"><path d="M0.3658536585365937,77.5h6.585365853658537v22.5h-6.585365853658537Z" style="fill: #D2D4CE;"></path><path d="M7.682926829268301,70.83333333333333h6.585365853658537v29.16666666666667h-6.585365853658537Z" style="fill: #D2D4CE;"></path><path d="M15.000000000000009,70.83333333333333h6.585365853658537v29.16666666666667h-6.585365853658537Z" style="fill: #D2D4CE;"></path><path d="M22.317073170731717,69.16666666666667h6.585365853658537v30.83333333333333h-6.585365853658537Z" style="fill: #D2D4CE;"></path><path d="M29.634146341463424,65.83333333333334h6.585365853658537v34.16666666666666h-6.585365853658537Z" style="fill: #D2D4CE;"></path><path d="M36.95121951219513,62.5h6.585365853658537v37.5h-6.585365853658537Z" style="fill: #D2D4CE;"></path><path d="M44.26829268292684,61.66666666666667h6.585365853658537v38.33333333333333h-6.585365853658537Z" style="fill: #D2D4CE;"></path><path d="M51.585365853658544,59.16666666666666h6.585365853658537v40.83333333333334h-6.585365853658537Z" style="fill: #D2D4CE;"></path><path d="M58.902439024390254,50h6.585365853658537v50h-6.585365853658537Z" style="fill: #D2D4CE;"></path><path d="M66.21951219512196,49.16666666666667h6.585365853658537v50.83333333333333h-6.585365853658537Z" style="fill: #D2D4CE;"></path><path d="M73.53658536585367,48.33333333333333h6.585365853658537v51.66666666666667h-6.585365853658537Z" style="fill: #D2D4CE;"></path><path d="M80.85365853658537,45.00000000000001h6.585365853658537v54.99999999999999h-6.585365853658537Z" style="fill: #D2D4CE;"></path><path d="M88.17073170731709,43.333333333333336h6.585365853658537v56.666666666666664h-6.585365853658537Z" style="fill: #00923E;"></path><path d="M95.48780487804879,43.333333333333336h6.585365853658537v56.666666666666664h-6.585365853658537Z" style="fill: #D2D4CE;"></path><path d="M102.8048780487805,42.49999999999999h6.585365853658537v57.50000000000001h-6.585365853658537Z" style="fill: #D2D4CE;"></path><path d="M110.12195121951221,41.666666666666664h6.585365853658537v58.333333333333336h-6.585365853658537Z" style="fill: #D2D4CE;"></path><path d="M117.43902439024392,40.833333333333336h6.585365853658537v59.166666666666664h-6.585365853658537Z" style="fill: #D2D4CE;"></path><path d="M124.75609756097562,38.33333333333333h6.585365853658537v61.66666666666667h-6.585365853658537Z" style="fill: #D2D4CE;"></path><path d="M132.07317073170734,36.66666666666667h6.585365853658537v63.33333333333333h-6.585365853658537Z" style="fill: #D2D4CE;"></path><path d="M139.39024390243904,35.83333333333333h6.585365853658537v64.16666666666667h-6.585365853658537Z" style="fill: #D2D4CE;"></path><path d="M146.70731707317074,35h6.585365853658537v65h-6.585365853658537Z" style="fill: #D2D4CE;"></path><path d="M154.02439024390245,33.333333333333336h6.585365853658537v66.66666666666666h-6.585365853658537Z" style="fill: #D2D4CE;"></path><path d="M161.34146341463415,32.50000000000001h6.585365853658537v67.5h-6.585365853658537Z" style="fill: #D2D4CE;"></path><path d="M168.65853658536588,31.666666666666675h6.585365853658537v68.33333333333333h-6.585365853658537Z" style="fill: #D2D4CE;"></path><path d="M175.97560975609758,28.333333333333332h6.585365853658537v71.66666666666667h-6.585365853658537Z" style="fill: #D2D4CE;"></path><path d="M183.2926829268293,26.66666666666666h6.585365853658537v73.33333333333334h-6.585365853658537Z" style="fill: #D2D4CE;"></path><path d="M190.609756097561,25.83333333333333h6.585365853658537v74.16666666666667h-6.585365853658537Z" style="fill: #D2D4CE;"></path><path d="M197.9268292682927,24.16666666666667h6.585365853658537v75.83333333333333h-6.585365853658537Z" style="fill: #D2D4CE;"></path><path d="M205.2439024390244,22.499999999999996h6.585365853658537v77.5h-6.585365853658537Z" style="fill: #D2D4CE;"></path><path d="M212.56097560975613,20.833333333333336h6.585365853658537v79.16666666666666h-6.585365853658537Z" style="fill: #D2D4CE;"></path><path d="M219.87804878048783,20.000000000000007h6.585365853658537v80h-6.585365853658537Z" style="fill: #D2D4CE;"></path><path d="M227.19512195121953,19.166666666666675h6.585365853658537v80.83333333333333h-6.585365853658537Z" style="fill: #D2D4CE;"></path><path d="M234.51219512195124,16.666666666666664h6.585365853658537v83.33333333333334h-6.585365853658537Z" style="fill: #D2D4CE;"></path><path d="M241.82926829268294,15.833333333333332h6.585365853658537v84.16666666666667h-6.585365853658537Z" style="fill: #D2D4CE;"></path><path d="M249.14634146341464,12.5h6.585365853658537v87.5h-6.585365853658537Z" style="fill: #D2D4CE;"></path><path d="M256.4634146341464,10.83333333333334h6.585365853658537v89.16666666666666h-6.585365853658537Z" style="fill: #D2D4CE;"></path><path d="M263.7804878048781,9.999999999999998h6.585365853658537v90h-6.585365853658537Z" style="fill: #D2D4CE;"></path><path d="M271.0975609756098,8.333333333333337h6.585365853658537v91.66666666666666h-6.585365853658537Z" style="fill: #D2D4CE;"></path><path d="M278.4146341463415,8.333333333333337h6.585365853658537v91.66666666666666h-6.585365853658537Z" style="fill: #D2D4CE;"></path><path d="M285.7317073170732,7.500000000000007h6.585365853658537v92.5h-6.585365853658537Z" style="fill: #D2D4CE;"></path><path d="M293.0487804878049,5.833333333333323h6.585365853658537v94.16666666666667h-6.585365853658537Z" style="fill: #D2D4CE;"></path></g></g><path class="foreground" d="" style="display: none; fill: none;"></path></g></g></g></svg>