<svg class="marks" preserveAspectRatio="none" width="310" height="110"  version="1.1" xmlns="http://www.w3.org/2000/svg" xmlns:xlink="http://www.w3.org/1999/xlink"><g transform="translate(5,5)"><g class="mark-group role-frame root"><g transform="translate(0,0)"><path class="background" d="M0,0h300v100h-300Z" style="fill: none; stroke: #ddd; stroke-width: 0;"></path><g><g class="mark-rect role-mark marks"><path d="M0.3658536585365937,96h6.585365853658537v4h-6.585365853658537Z" style="fill: #D2D4CE;"></path><path d="M7.682926829268301,96h6.585365853658537v4h-6.585365853658537Z" style="fill: #D2D4CE;"></path><path d="M15.000000000000009,94h6.585365853658537v6h-6.585365853658537Z" style="fill: #00923E;"></path><path d="M22.317073170731717,94h6.585365853658537v6h-6.585365853658537Z" style="fill: #D2D4CE;"></path><path d="M29.634146341463424,90h6.585365853658537v10h-6.585365853658537Z" style="fill: #D2D4CE;"></path><path d="M36.95121951219513,90h6.585365853658537v10h-6.585365853658537Z" style="fill: #D2D4CE;"></path><path d="M44.26829268292684,90h6.585365853658537v10h-6.585365853658537Z" style="fill: #D2D4CE;"></path><path d="M51.585365853658544,90h6.585365853658537v10h-6.585365853658537Z" style="fill: #D2D4CE;"></path><path d="M58.902439024390254,88h6.585365853658537v12h-6.585365853658537Z" style="fill: #D2D4CE;"></path><path d="M66.21951219512196,86h6.585365853658537v14h-6.585365853658537Z" style="fill: #D2D4CE;"></path><path d="M73.53658536585367,86h6.585365853658537v14h-6.585365853658537Z" style="fill: #D2D4CE;"></path><path d="M80.85365853658537,86h6.585365853658537v14h-6.585365853658537Z" style="fill: #D2D4CE;"></path><path d="M88.17073170731709,84h6.585365853658537v16h-6.585365853658537Z" style="fill: #D2D4CE;"></path><path d="M95.48780487804879,84h6.585365853658537v16h-6.585365853658537Z" style="fill: #D2D4CE;"></path><path d="M102.8048780487805,84h6.585365853658537v16h-6.585365853658537Z" style="fill: #D2D4CE;"></path><path d="M110.12195121951221,80h6.585365853658537v20h-6.585365853658537Z" style="fill: #D2D4CE;"></path><path d="M117.43902439024392,80h6.585365853658537v20h-6.585365853658537Z" style="fill: #D2D4CE;"></path><path d="M124.75609756097562,78h6.585365853658537v22h-6.585365853658537Z" style="fill: #D2D4CE;"></path><path d="M132.07317073170734,76h6.585365853658537v24h-6.585365853658537Z" style="fill: #D2D4CE;"></path><path d="M139.39024390243904,76h6.585365853658537v24h-6.585365853658537Z" style="fill: #D2D4CE;"></path><path d="M146.70731707317074,74h6.585365853658537v26h-6.585365853658537Z" style="fill: #D2D4CE;"></path><path d="M154.02439024390245,70h6.585365853658537v30h-6.585365853658537Z" style="fill: #D2D4CE;"></path><path d="M161.34146341463415,68h6.585365853658537v32h-6.585365853658537Z" style="fill: #D2D4CE;"></path><path d="M168.65853658536588,66h6.585365853658537v34h-6.585365853658537Z" style="fill: #D2D4CE;"></path><path d="M175.97560975609758,62h6.585365853658537v38h-6.585365853658537Z" style="fill: #D2D4CE;"></path><path d="M183.2926829268293,62h6.585365853658537v38h-6.585365853658537Z" style="fill: #D2D4CE;"></path><path d="M190.609756097561,62h6.585365853658537v38h-6.585365853658537Z" style="fill: #D2D4CE;"></path><path d="M197.9268292682927,60h6.585365853658537v40h-6.585365853658537Z" style="fill: #D2D4CE;"></path><path d="M205.2439024390244,54h6.585365853658537v46h-6.585365853658537Z" style="fill: #D2D4CE;"></path><path d="M212.56097560975613,54h6.585365853658537v46h-6.585365853658537Z" style="fill: #D2D4CE;"></path><path d="M219.87804878048783,54h6.585365853658537v46h-6.585365853658537Z" style="fill: #D2D4CE;"></path><path d="M227.19512195121953,50h6.585365853658537v50h-6.585365853658537Z" style="fill: #D2D4CE;"></path><path d="M234.51219512195124,48h6.585365853658537v52h-6.585365853658537Z" style="fill: #D2D4CE;"></path><path d="M241.82926829268294,48h6.585365853658537v52h-6.585365853658537Z" style="fill: #D2D4CE;"></path><path d="M249.14634146341464,34.00000000000001h6.585365853658537v66h-6.585365853658537Z" style="fill: #D2D4CE;"></path><path d="M256.4634146341464,34.00000000000001h6.585365853658537v66h-6.585365853658537Z" style="fill: #D2D4CE;"></path><path d="M263.7804878048781,24h6.585365853658537v76h-6.585365853658537Z" style="fill: #D2D4CE;"></path><path d="M271.0975609756098,24h6.585365853658537v76h-6.585365853658537Z" style="fill: #D2D4CE;"></path><path d="M278.4146341463415,24h6.585365853658537v76h-6.585365853658537Z" style="fill: #D2D4CE;"></path><path d="M285.7317073170732,19.999999999999996h6.585365853658537v80h-6.585365853658537Z" style="fill: #D2D4CE;"></path><path d="M293.0487804878049,0h6.585365853658537v100h-6.585365853658537Z" style="fill: #D2D4CE;"></path></g></g><path class="foreground" d="" style="display: none; fill: none;"></path></g></g></g></svg>