<?xml version="1.0" encoding="UTF-8"?>
<svg id="Layer_2" data-name="Layer 2" xmlns="http://www.w3.org/2000/svg" viewBox="0 0 293.64 133.4">
  <defs>
    <style>
      .cls-1 {
        fill: #d3d3d3;
      }
    </style>
  </defs>
  <g id="Layer_1-2" data-name="Layer 1">
    <path d="m9.96,3.91c0-2.16,1.81-3.91,4.03-3.91s4.03,1.75,4.03,3.91-1.81,3.91-4.03,3.91-4.03-1.75-4.03-3.91Zm3.36,24.79v10.44c0,1.44-1.2,2.61-2.69,2.61s-2.69-1.17-2.69-2.61v-18.19l-2.4,3.88c-.76,1.23-2.42,1.63-3.69.89s-1.68-2.35-.92-3.58l4.9-7.91c1.46-2.36,4.08-3.8,6.91-3.8h2.5c2.83,0,5.45,1.44,6.91,3.8l4.9,7.91c.76,1.23.35,2.84-.92,3.58s-2.92.34-3.69-.89l-2.41-3.88v18.19c0,1.44-1.2,2.61-2.69,2.61s-2.69-1.17-2.69-2.61v-10.44h-1.34Z"/>
    <path class="cls-1" d="m157.54,3.91c0-2.16,1.81-3.91,4.03-3.91s4.03,1.75,4.03,3.91-1.81,3.91-4.03,3.91-4.03-1.75-4.03-3.91Zm3.36,24.79v10.44c0,1.44-1.2,2.61-2.69,2.61s-2.69-1.17-2.69-2.61v-18.19l-2.4,3.88c-.76,1.23-2.42,1.63-3.69.89s-1.68-2.35-.92-3.58l4.9-7.91c1.46-2.36,4.08-3.8,6.91-3.8h2.5c2.83,0,5.45,1.44,6.91,3.8l4.9,7.91c.76,1.23.35,2.84-.92,3.58s-2.92.34-3.69-.89l-2.41-3.88v18.19c0,1.44-1.2,2.61-2.69,2.61s-2.69-1.17-2.69-2.61v-10.44h-1.34Z"/>
    <path class="cls-1" d="m128.03,3.91c0-2.16,1.81-3.91,4.03-3.91s4.03,1.75,4.03,3.91-1.81,3.91-4.03,3.91-4.03-1.75-4.03-3.91Zm3.36,24.79v10.44c0,1.44-1.2,2.61-2.69,2.61s-2.69-1.17-2.69-2.61v-18.19l-2.4,3.88c-.76,1.23-2.42,1.63-3.69.89s-1.68-2.35-.92-3.58l4.9-7.91c1.46-2.36,4.08-3.8,6.91-3.8h2.5c2.83,0,5.45,1.44,6.91,3.8l4.9,7.91c.76,1.23.35,2.84-.92,3.58s-2.92.34-3.69-.89l-2.41-3.88v18.19c0,1.44-1.2,2.61-2.69,2.61s-2.69-1.17-2.69-2.61v-10.44h-1.34Z"/>
    <path class="cls-1" d="m98.51,3.91c0-2.16,1.81-3.91,4.03-3.91s4.03,1.75,4.03,3.91-1.81,3.91-4.03,3.91-4.03-1.75-4.03-3.91Zm3.36,24.79v10.44c0,1.44-1.2,2.61-2.69,2.61s-2.69-1.17-2.69-2.61v-18.19l-2.4,3.88c-.76,1.23-2.42,1.63-3.69.89s-1.68-2.35-.92-3.58l4.9-7.91c1.46-2.36,4.08-3.8,6.91-3.8h2.5c2.83,0,5.45,1.44,6.91,3.8l4.9,7.91c.76,1.23.35,2.84-.92,3.58s-2.92.34-3.69-.89l-2.41-3.88v18.19c0,1.44-1.2,2.61-2.69,2.61s-2.69-1.17-2.69-2.61v-10.44h-1.34Z"/>
    <path class="cls-1" d="m68.99,3.91c0-2.16,1.81-3.91,4.03-3.91s4.03,1.75,4.03,3.91-1.81,3.91-4.03,3.91-4.03-1.75-4.03-3.91Zm3.36,24.79v10.44c0,1.44-1.2,2.61-2.69,2.61s-2.69-1.17-2.69-2.61v-18.19l-2.4,3.88c-.76,1.23-2.42,1.63-3.69.89s-1.68-2.35-.92-3.58l4.9-7.91c1.46-2.36,4.08-3.8,6.91-3.8h2.5c2.83,0,5.45,1.44,6.91,3.8l4.9,7.91c.76,1.23.35,2.84-.92,3.58s-2.92.34-3.69-.89l-2.41-3.88v18.19c0,1.44-1.2,2.61-2.69,2.61s-2.69-1.17-2.69-2.61v-10.44h-1.34Z"/>
    <path class="cls-1" d="m39.47,3.91c0-2.16,1.81-3.91,4.03-3.91s4.03,1.75,4.03,3.91-1.81,3.91-4.03,3.91-4.03-1.75-4.03-3.91Zm3.36,24.79v10.44c0,1.44-1.2,2.61-2.69,2.61s-2.69-1.17-2.69-2.61v-18.19l-2.4,3.88c-.76,1.23-2.42,1.63-3.69.89s-1.68-2.35-.92-3.58l4.9-7.91c1.46-2.36,4.08-3.8,6.91-3.8h2.5c2.83,0,5.45,1.44,6.91,3.8l4.9,7.91c.76,1.23.35,2.84-.92,3.58s-2.92.34-3.69-.89l-2.41-3.88v18.19c0,1.44-1.2,2.61-2.69,2.61s-2.69-1.17-2.69-2.61v-10.44h-1.34Z"/>
    <path class="cls-1" d="m187.06,3.91c0-2.16,1.81-3.91,4.03-3.91s4.03,1.75,4.03,3.91-1.81,3.91-4.03,3.91-4.03-1.75-4.03-3.91Zm3.36,24.79v10.44c0,1.44-1.2,2.61-2.69,2.61s-2.69-1.17-2.69-2.61v-18.19l-2.4,3.88c-.76,1.23-2.42,1.63-3.69.89s-1.68-2.35-.92-3.58l4.9-7.91c1.46-2.36,4.08-3.8,6.91-3.8h2.5c2.83,0,5.45,1.44,6.91,3.8l4.9,7.91c.76,1.23.35,2.84-.92,3.58s-2.92.34-3.69-.89l-2.41-3.88v18.19c0,1.44-1.2,2.61-2.69,2.61s-2.69-1.17-2.69-2.61v-10.44h-1.34Z"/>
    <path class="cls-1" d="m275.61,3.91c0-2.16,1.81-3.91,4.03-3.91s4.03,1.75,4.03,3.91-1.81,3.91-4.03,3.91-4.03-1.75-4.03-3.91Zm3.36,24.79v10.44c0,1.44-1.2,2.61-2.69,2.61s-2.69-1.17-2.69-2.61v-18.19l-2.4,3.88c-.76,1.23-2.42,1.63-3.69.89s-1.68-2.35-.92-3.58l4.9-7.91c1.46-2.36,4.08-3.8,6.91-3.8h2.5c2.83,0,5.45,1.44,6.91,3.8l4.9,7.91c.76,1.23.35,2.84-.92,3.58s-2.92.34-3.69-.89l-2.41-3.88v18.19c0,1.44-1.2,2.61-2.69,2.61s-2.69-1.17-2.69-2.61v-10.44h-1.34Z"/>
    <path class="cls-1" d="m246.1,3.91c0-2.16,1.81-3.91,4.03-3.91s4.03,1.75,4.03,3.91-1.81,3.91-4.03,3.91-4.03-1.75-4.03-3.91Zm3.36,24.79v10.44c0,1.44-1.2,2.61-2.69,2.61s-2.69-1.17-2.69-2.61v-18.19l-2.4,3.88c-.76,1.23-2.42,1.63-3.69.89s-1.68-2.35-.92-3.58l4.9-7.91c1.46-2.36,4.08-3.8,6.91-3.8h2.5c2.83,0,5.45,1.44,6.91,3.8l4.9,7.91c.76,1.23.35,2.84-.92,3.58s-2.92.34-3.69-.89l-2.41-3.88v18.19c0,1.44-1.2,2.61-2.69,2.61s-2.69-1.17-2.69-2.61v-10.44h-1.34Z"/>
    <path class="cls-1" d="m216.58,3.91c0-2.16,1.81-3.91,4.03-3.91s4.03,1.75,4.03,3.91-1.81,3.91-4.03,3.91-4.03-1.75-4.03-3.91Zm3.36,24.79v10.44c0,1.44-1.2,2.61-2.69,2.61s-2.69-1.17-2.69-2.61v-18.19l-2.4,3.88c-.76,1.23-2.42,1.63-3.69.89s-1.68-2.35-.92-3.58l4.9-7.91c1.46-2.36,4.08-3.8,6.91-3.8h2.5c2.83,0,5.45,1.44,6.91,3.8l4.9,7.91c.76,1.23.35,2.84-.92,3.58s-2.92.34-3.69-.89l-2.41-3.88v18.19c0,1.44-1.2,2.61-2.69,2.61s-2.69-1.17-2.69-2.61v-10.44h-1.34Z"/>
    <path class="cls-1" d="m10.03,95.57c0-2.16,1.81-3.91,4.03-3.91s4.03,1.75,4.03,3.91-1.81,3.91-4.03,3.91-4.03-1.75-4.03-3.91Zm3.36,24.79v10.44c0,1.44-1.2,2.61-2.69,2.61s-2.69-1.17-2.69-2.61v-18.19l-2.4,3.88c-.76,1.23-2.42,1.63-3.69.89s-1.68-2.35-.92-3.58l4.9-7.91c1.46-2.36,4.08-3.8,6.91-3.8h2.5c2.83,0,5.45,1.44,6.91,3.8l4.9,7.91c.76,1.23.35,2.84-.92,3.58s-2.92.34-3.69-.89l-2.41-3.88v18.19c0,1.44-1.2,2.61-2.69,2.61s-2.69-1.17-2.69-2.61v-10.44h-1.34Z"/>
    <path class="cls-1" d="m69.31,95.57c0-2.16,1.81-3.91,4.03-3.91s4.03,1.75,4.03,3.91-1.81,3.91-4.03,3.91-4.03-1.75-4.03-3.91Zm3.36,24.79v10.44c0,1.44-1.2,2.61-2.69,2.61s-2.69-1.17-2.69-2.61v-18.19l-2.4,3.88c-.76,1.23-2.42,1.63-3.69.89s-1.68-2.35-.92-3.58l4.9-7.91c1.46-2.36,4.08-3.8,6.91-3.8h2.5c2.83,0,5.45,1.44,6.91,3.8l4.9,7.91c.76,1.23.35,2.84-.92,3.58s-2.92.34-3.69-.89l-2.41-3.88v18.19c0,1.44-1.2,2.61-2.69,2.61s-2.69-1.17-2.69-2.61v-10.44h-1.34Z"/>
    <path class="cls-1" d="m39.67,95.57c0-2.16,1.81-3.91,4.03-3.91s4.03,1.75,4.03,3.91-1.81,3.91-4.03,3.91-4.03-1.75-4.03-3.91Zm3.36,24.79v10.44c0,1.44-1.2,2.61-2.69,2.61s-2.69-1.17-2.69-2.61v-18.19l-2.4,3.88c-.76,1.23-2.42,1.63-3.69.89s-1.68-2.35-.92-3.58l4.9-7.91c1.46-2.36,4.08-3.8,6.91-3.8h2.5c2.83,0,5.45,1.44,6.91,3.8l4.9,7.91c.76,1.23.35,2.84-.92,3.58s-2.92.34-3.69-.89l-2.41-3.88v18.19c0,1.44-1.2,2.61-2.69,2.61s-2.69-1.17-2.69-2.61v-10.44h-1.34Z"/>
    <path class="cls-1" d="m187.87,95.57c0-2.16,1.81-3.91,4.03-3.91s4.03,1.75,4.03,3.91-1.81,3.91-4.03,3.91-4.03-1.75-4.03-3.91Zm3.36,24.79v10.44c0,1.44-1.2,2.61-2.69,2.61s-2.69-1.17-2.69-2.61v-18.19l-2.4,3.88c-.76,1.23-2.42,1.63-3.69.89s-1.68-2.35-.92-3.58l4.9-7.91c1.46-2.36,4.08-3.8,6.91-3.8h2.5c2.83,0,5.45,1.44,6.91,3.8l4.9,7.91c.76,1.23.35,2.84-.92,3.58s-2.92.34-3.69-.89l-2.41-3.88v18.19c0,1.44-1.2,2.61-2.69,2.61s-2.69-1.17-2.69-2.61v-10.44h-1.34Z"/>
    <path class="cls-1" d="m158.23,95.57c0-2.16,1.81-3.91,4.03-3.91s4.03,1.75,4.03,3.91-1.81,3.91-4.03,3.91-4.03-1.75-4.03-3.91Zm3.36,24.79v10.44c0,1.44-1.2,2.61-2.69,2.61s-2.69-1.17-2.69-2.61v-18.19l-2.4,3.88c-.76,1.23-2.42,1.63-3.69.89s-1.68-2.35-.92-3.58l4.9-7.91c1.46-2.36,4.08-3.8,6.91-3.8h2.5c2.83,0,5.45,1.44,6.91,3.8l4.9,7.91c.76,1.23.35,2.84-.92,3.58s-2.92.34-3.69-.89l-2.41-3.88v18.19c0,1.44-1.2,2.61-2.69,2.61s-2.69-1.17-2.69-2.61v-10.44h-1.34Z"/>
    <path class="cls-1" d="m128.59,95.57c0-2.16,1.81-3.91,4.03-3.91s4.03,1.75,4.03,3.91-1.81,3.91-4.03,3.91-4.03-1.75-4.03-3.91Zm3.36,24.79v10.44c0,1.44-1.2,2.61-2.69,2.61s-2.69-1.17-2.69-2.61v-18.19l-2.4,3.88c-.76,1.23-2.42,1.63-3.69.89s-1.68-2.35-.92-3.58l4.9-7.91c1.46-2.36,4.08-3.8,6.91-3.8h2.5c2.83,0,5.45,1.44,6.91,3.8l4.9,7.91c.76,1.23.35,2.84-.92,3.58s-2.92.34-3.69-.89l-2.41-3.88v18.19c0,1.44-1.2,2.61-2.69,2.61s-2.69-1.17-2.69-2.61v-10.44h-1.34Z"/>
    <path class="cls-1" d="m98.95,95.57c0-2.16,1.81-3.91,4.03-3.91s4.03,1.75,4.03,3.91-1.81,3.91-4.03,3.91-4.03-1.75-4.03-3.91Zm3.36,24.79v10.44c0,1.44-1.2,2.61-2.69,2.61s-2.69-1.17-2.69-2.61v-18.19l-2.4,3.88c-.76,1.23-2.42,1.63-3.69.89s-1.68-2.35-.92-3.58l4.9-7.91c1.46-2.36,4.08-3.8,6.91-3.8h2.5c2.83,0,5.45,1.44,6.91,3.8l4.9,7.91c.76,1.23.35,2.84-.92,3.58s-2.92.34-3.69-.89l-2.41-3.88v18.19c0,1.44-1.2,2.61-2.69,2.61s-2.69-1.17-2.69-2.61v-10.44h-1.34Z"/>
    <path class="cls-1" d="m9.41,49.88c0-2.16,1.81-3.91,4.03-3.91s4.03,1.75,4.03,3.91-1.81,3.91-4.03,3.91-4.03-1.75-4.03-3.91Zm3.36,24.79v10.44c0,1.44-1.2,2.61-2.69,2.61s-2.69-1.17-2.69-2.61v-18.19l-2.4,3.88c-.76,1.23-2.42,1.63-3.69.89s-1.68-2.35-.92-3.58l4.9-7.91c1.46-2.36,4.08-3.8,6.91-3.8h2.5c2.83,0,5.45,1.44,6.91,3.8l4.9,7.91c.76,1.23.35,2.84-.92,3.58s-2.92.34-3.69-.89l-2.41-3.88v18.19c0,1.44-1.2,2.61-2.69,2.61s-2.69-1.17-2.69-2.61v-10.44h-1.34Z"/>
    <path class="cls-1" d="m68.69,49.88c0-2.16,1.81-3.91,4.03-3.91s4.03,1.75,4.03,3.91-1.81,3.91-4.03,3.91-4.03-1.75-4.03-3.91Zm3.36,24.79v10.44c0,1.44-1.2,2.61-2.69,2.61s-2.69-1.17-2.69-2.61v-18.19l-2.4,3.88c-.76,1.23-2.42,1.63-3.69.89s-1.68-2.35-.92-3.58l4.9-7.91c1.46-2.36,4.08-3.8,6.91-3.8h2.5c2.83,0,5.45,1.44,6.91,3.8l4.9,7.91c.76,1.23.35,2.84-.92,3.58s-2.92.34-3.69-.89l-2.41-3.88v18.19c0,1.44-1.2,2.61-2.69,2.61s-2.69-1.17-2.69-2.61v-10.44h-1.34Z"/>
    <path class="cls-1" d="m39.05,49.88c0-2.16,1.81-3.91,4.03-3.91s4.03,1.75,4.03,3.91-1.81,3.91-4.03,3.91-4.03-1.75-4.03-3.91Zm3.36,24.79v10.44c0,1.44-1.2,2.61-2.69,2.61s-2.69-1.17-2.69-2.61v-18.19l-2.4,3.88c-.76,1.23-2.42,1.63-3.69.89s-1.68-2.35-.92-3.58l4.9-7.91c1.46-2.36,4.08-3.8,6.91-3.8h2.5c2.83,0,5.45,1.44,6.91,3.8l4.9,7.91c.76,1.23.35,2.84-.92,3.58s-2.92.34-3.69-.89l-2.41-3.88v18.19c0,1.44-1.2,2.61-2.69,2.61s-2.69-1.17-2.69-2.61v-10.44h-1.34Z"/>
    <path class="cls-1" d="m187.24,49.88c0-2.16,1.81-3.91,4.03-3.91s4.03,1.75,4.03,3.91-1.81,3.91-4.03,3.91-4.03-1.75-4.03-3.91Zm3.36,24.79v10.44c0,1.44-1.2,2.61-2.69,2.61s-2.69-1.17-2.69-2.61v-18.19l-2.4,3.88c-.76,1.23-2.42,1.63-3.69.89s-1.68-2.35-.92-3.58l4.9-7.91c1.46-2.36,4.08-3.8,6.91-3.8h2.5c2.83,0,5.45,1.44,6.91,3.8l4.9,7.91c.76,1.23.35,2.84-.92,3.58s-2.92.34-3.69-.89l-2.41-3.88v18.19c0,1.44-1.2,2.61-2.69,2.61s-2.69-1.17-2.69-2.61v-10.44h-1.34Z"/>
    <path class="cls-1" d="m157.61,49.88c0-2.16,1.81-3.91,4.03-3.91s4.03,1.75,4.03,3.91-1.81,3.91-4.03,3.91-4.03-1.75-4.03-3.91Zm3.36,24.79v10.44c0,1.44-1.2,2.61-2.69,2.61s-2.69-1.17-2.69-2.61v-18.19l-2.4,3.88c-.76,1.23-2.42,1.63-3.69.89s-1.68-2.35-.92-3.58l4.9-7.91c1.46-2.36,4.08-3.8,6.91-3.8h2.5c2.83,0,5.45,1.44,6.91,3.8l4.9,7.91c.76,1.23.35,2.84-.92,3.58s-2.92.34-3.69-.89l-2.41-3.88v18.19c0,1.44-1.2,2.61-2.69,2.61s-2.69-1.17-2.69-2.61v-10.44h-1.34Z"/>
    <path class="cls-1" d="m127.97,49.88c0-2.16,1.81-3.91,4.03-3.91s4.03,1.75,4.03,3.91-1.81,3.91-4.03,3.91-4.03-1.75-4.03-3.91Zm3.36,24.79v10.44c0,1.44-1.2,2.61-2.69,2.61s-2.69-1.17-2.69-2.61v-18.19l-2.4,3.88c-.76,1.23-2.42,1.63-3.69.89s-1.68-2.35-.92-3.58l4.9-7.91c1.46-2.36,4.08-3.8,6.91-3.8h2.5c2.83,0,5.45,1.44,6.91,3.8l4.9,7.91c.76,1.23.35,2.84-.92,3.58s-2.92.34-3.69-.89l-2.41-3.88v18.19c0,1.44-1.2,2.61-2.69,2.61s-2.69-1.17-2.69-2.61v-10.44h-1.34Z"/>
    <path class="cls-1" d="m216.88,49.88c0-2.16,1.81-3.91,4.03-3.91s4.03,1.75,4.03,3.91-1.81,3.91-4.03,3.91-4.03-1.75-4.03-3.91Zm3.36,24.79v10.44c0,1.44-1.2,2.61-2.69,2.61s-2.69-1.17-2.69-2.61v-18.19l-2.4,3.88c-.76,1.23-2.42,1.63-3.69.89s-1.68-2.35-.92-3.58l4.9-7.91c1.46-2.36,4.08-3.8,6.91-3.8h2.5c2.83,0,5.45,1.44,6.91,3.8l4.9,7.91c.76,1.23.35,2.84-.92,3.58s-2.92.34-3.69-.89l-2.41-3.88v18.19c0,1.44-1.2,2.61-2.69,2.61s-2.69-1.17-2.69-2.61v-10.44h-1.34Z"/>
    <path class="cls-1" d="m98.33,49.88c0-2.16,1.81-3.91,4.03-3.91s4.03,1.75,4.03,3.91-1.81,3.91-4.03,3.91-4.03-1.75-4.03-3.91Zm3.36,24.79v10.44c0,1.44-1.2,2.61-2.69,2.61s-2.69-1.17-2.69-2.61v-18.19l-2.4,3.88c-.76,1.23-2.42,1.63-3.69.89s-1.68-2.35-.92-3.58l4.9-7.91c1.46-2.36,4.08-3.8,6.91-3.8h2.5c2.83,0,5.45,1.44,6.91,3.8l4.9,7.91c.76,1.23.35,2.84-.92,3.58s-2.92.34-3.69-.89l-2.41-3.88v18.19c0,1.44-1.2,2.61-2.69,2.61s-2.69-1.17-2.69-2.61v-10.44h-1.34Z"/>
    <path class="cls-1" d="m276.16,49.88c0-2.16,1.81-3.91,4.03-3.91s4.03,1.75,4.03,3.91-1.81,3.91-4.03,3.91-4.03-1.75-4.03-3.91Zm3.36,24.79v10.44c0,1.44-1.2,2.61-2.69,2.61s-2.69-1.17-2.69-2.61v-18.19l-2.4,3.88c-.76,1.23-2.42,1.63-3.69.89s-1.68-2.35-.92-3.58l4.9-7.91c1.46-2.36,4.08-3.8,6.91-3.8h2.5c2.83,0,5.45,1.44,6.91,3.8l4.9,7.91c.76,1.23.35,2.84-.92,3.58s-2.92.34-3.69-.89l-2.41-3.88v18.19c0,1.44-1.2,2.61-2.69,2.61s-2.69-1.17-2.69-2.61v-10.44h-1.34Z"/>
    <path class="cls-1" d="m246.52,49.88c0-2.16,1.81-3.91,4.03-3.91s4.03,1.75,4.03,3.91-1.81,3.91-4.03,3.91-4.03-1.75-4.03-3.91Zm3.36,24.79v10.44c0,1.44-1.2,2.61-2.69,2.61s-2.69-1.17-2.69-2.61v-18.19l-2.4,3.88c-.76,1.23-2.42,1.63-3.69.89s-1.68-2.35-.92-3.58l4.9-7.91c1.46-2.36,4.08-3.8,6.91-3.8h2.5c2.83,0,5.45,1.44,6.91,3.8l4.9,7.91c.76,1.23.35,2.84-.92,3.58s-2.92.34-3.69-.89l-2.41-3.88v18.19c0,1.44-1.2,2.61-2.69,2.61s-2.69-1.17-2.69-2.61v-10.44h-1.34Z"/>
    <path class="cls-1" d="m217.69,95.54c0-2.16,1.81-3.91,4.03-3.91s4.03,1.75,4.03,3.91-1.81,3.91-4.03,3.91-4.03-1.75-4.03-3.91Zm3.36,24.79v10.44c0,1.44-1.2,2.61-2.69,2.61s-2.69-1.17-2.69-2.61v-18.19l-2.4,3.88c-.76,1.23-2.42,1.63-3.69.89s-1.68-2.35-.92-3.58l4.9-7.91c1.46-2.36,4.08-3.8,6.91-3.8h2.5c2.83,0,5.45,1.44,6.91,3.8l4.9,7.91c.76,1.23.35,2.84-.92,3.58s-2.92.34-3.69-.89l-2.41-3.88v18.19c0,1.44-1.2,2.61-2.69,2.61s-2.69-1.17-2.69-2.61v-10.44h-1.34Z"/>
  </g>
</svg>