<?xml version="1.0" encoding="UTF-8"?>
<svg id="Layer_2" data-name="Layer 2" xmlns="http://www.w3.org/2000/svg" viewBox="0 0 294.11 187.09">
  <defs>
    <style>
      .cls-1 {
        fill: #d3d3d3;
      }
    </style>
  </defs>
  <g id="Layer_1-2" data-name="Layer 1">
    <path d="m10.79,3.91c0-2.16,1.81-3.91,4.03-3.91s4.03,1.75,4.03,3.91-1.81,3.91-4.03,3.91-4.03-1.75-4.03-3.91Zm3.36,24.79v10.44c0,1.44-1.2,2.61-2.69,2.61s-2.69-1.17-2.69-2.61v-18.19l-2.4,3.88c-.76,1.23-2.42,1.63-3.69.89s-1.68-2.35-.92-3.58l4.9-7.91c1.46-2.36,4.08-3.8,6.91-3.8h2.5c2.83,0,5.45,1.44,6.91,3.8l4.9,7.91c.76,1.23.35,2.84-.92,3.58s-2.92.34-3.69-.89l-2.41-3.88v18.19c0,1.44-1.2,2.61-2.69,2.61s-2.69-1.17-2.69-2.61v-10.44h-1.34Z"/>
    <path class="cls-1" d="m158.38,3.91c0-2.16,1.81-3.91,4.03-3.91s4.03,1.75,4.03,3.91-1.81,3.91-4.03,3.91-4.03-1.75-4.03-3.91Zm3.36,24.79v10.44c0,1.44-1.2,2.61-2.69,2.61s-2.69-1.17-2.69-2.61v-18.19l-2.4,3.88c-.76,1.23-2.42,1.63-3.69.89s-1.68-2.35-.92-3.58l4.9-7.91c1.46-2.36,4.08-3.8,6.91-3.8h2.5c2.83,0,5.45,1.44,6.91,3.8l4.9,7.91c.76,1.23.35,2.84-.92,3.58s-2.92.34-3.69-.89l-2.41-3.88v18.19c0,1.44-1.2,2.61-2.69,2.61s-2.69-1.17-2.69-2.61v-10.44h-1.34Z"/>
    <path class="cls-1" d="m128.86,3.91c0-2.16,1.81-3.91,4.03-3.91s4.03,1.75,4.03,3.91-1.81,3.91-4.03,3.91-4.03-1.75-4.03-3.91Zm3.36,24.79v10.44c0,1.44-1.2,2.61-2.69,2.61s-2.69-1.17-2.69-2.61v-18.19l-2.4,3.88c-.76,1.23-2.42,1.63-3.69.89s-1.68-2.35-.92-3.58l4.9-7.91c1.46-2.36,4.08-3.8,6.91-3.8h2.5c2.83,0,5.45,1.44,6.91,3.8l4.9,7.91c.76,1.23.35,2.84-.92,3.58s-2.92.34-3.69-.89l-2.41-3.88v18.19c0,1.44-1.2,2.61-2.69,2.61s-2.69-1.17-2.69-2.61v-10.44h-1.34Z"/>
    <path class="cls-1" d="m99.35,3.91c0-2.16,1.81-3.91,4.03-3.91s4.03,1.75,4.03,3.91-1.81,3.91-4.03,3.91-4.03-1.75-4.03-3.91Zm3.36,24.79v10.44c0,1.44-1.2,2.61-2.69,2.61s-2.69-1.17-2.69-2.61v-18.19l-2.4,3.88c-.76,1.23-2.42,1.63-3.69.89s-1.68-2.35-.92-3.58l4.9-7.91c1.46-2.36,4.08-3.8,6.91-3.8h2.5c2.83,0,5.45,1.44,6.91,3.8l4.9,7.91c.76,1.23.35,2.84-.92,3.58s-2.92.34-3.69-.89l-2.41-3.88v18.19c0,1.44-1.2,2.61-2.69,2.61s-2.69-1.17-2.69-2.61v-10.44h-1.34Z"/>
    <path class="cls-1" d="m69.83,3.91c0-2.16,1.81-3.91,4.03-3.91s4.03,1.75,4.03,3.91-1.81,3.91-4.03,3.91-4.03-1.75-4.03-3.91Zm3.36,24.79v10.44c0,1.44-1.2,2.61-2.69,2.61s-2.69-1.17-2.69-2.61v-18.19l-2.4,3.88c-.76,1.23-2.42,1.63-3.69.89s-1.68-2.35-.92-3.58l4.9-7.91c1.46-2.36,4.08-3.8,6.91-3.8h2.5c2.83,0,5.45,1.44,6.91,3.8l4.9,7.91c.76,1.23.35,2.84-.92,3.58s-2.92.34-3.69-.89l-2.41-3.88v18.19c0,1.44-1.2,2.61-2.69,2.61s-2.69-1.17-2.69-2.61v-10.44h-1.34Z"/>
    <path class="cls-1" d="m40.31,3.91c0-2.16,1.81-3.91,4.03-3.91s4.03,1.75,4.03,3.91-1.81,3.91-4.03,3.91-4.03-1.75-4.03-3.91Zm3.36,24.79v10.44c0,1.44-1.2,2.61-2.69,2.61s-2.69-1.17-2.69-2.61v-18.19l-2.4,3.88c-.76,1.23-2.42,1.63-3.69.89s-1.68-2.35-.92-3.58l4.9-7.91c1.46-2.36,4.08-3.8,6.91-3.8h2.5c2.83,0,5.45,1.44,6.91,3.8l4.9,7.91c.76,1.23.35,2.84-.92,3.58s-2.92.34-3.69-.89l-2.41-3.88v18.19c0,1.44-1.2,2.61-2.69,2.61s-2.69-1.17-2.69-2.61v-10.44h-1.34Z"/>
    <path class="cls-1" d="m187.9,3.91c0-2.16,1.81-3.91,4.03-3.91s4.03,1.75,4.03,3.91-1.81,3.91-4.03,3.91-4.03-1.75-4.03-3.91Zm3.36,24.79v10.44c0,1.44-1.2,2.61-2.69,2.61s-2.69-1.17-2.69-2.61v-18.19l-2.4,3.88c-.76,1.23-2.42,1.63-3.69.89s-1.68-2.35-.92-3.58l4.9-7.91c1.46-2.36,4.08-3.8,6.91-3.8h2.5c2.83,0,5.45,1.44,6.91,3.8l4.9,7.91c.76,1.23.35,2.84-.92,3.58s-2.92.34-3.69-.89l-2.41-3.88v18.19c0,1.44-1.2,2.61-2.69,2.61s-2.69-1.17-2.69-2.61v-10.44h-1.34Z"/>
    <path class="cls-1" d="m10.33,100.64c0-2.16,1.81-3.91,4.03-3.91s4.03,1.75,4.03,3.91-1.81,3.91-4.03,3.91-4.03-1.75-4.03-3.91Zm3.36,24.79v10.44c0,1.44-1.2,2.61-2.69,2.61s-2.69-1.17-2.69-2.61v-18.19l-2.4,3.88c-.76,1.23-2.42,1.63-3.69.89s-1.68-2.35-.92-3.58l4.9-7.91c1.46-2.36,4.08-3.8,6.91-3.8h2.5c2.83,0,5.45,1.44,6.91,3.8l4.9,7.91c.76,1.23.35,2.84-.92,3.58s-2.92.34-3.69-.89l-2.41-3.88v18.19c0,1.44-1.2,2.61-2.69,2.61s-2.69-1.17-2.69-2.61v-10.44h-1.34Z"/>
    <path class="cls-1" d="m39.85,100.64c0-2.16,1.81-3.91,4.03-3.91s4.03,1.75,4.03,3.91-1.81,3.91-4.03,3.91-4.03-1.75-4.03-3.91Zm3.36,24.79v10.44c0,1.44-1.2,2.61-2.69,2.61s-2.69-1.17-2.69-2.61v-18.19l-2.4,3.88c-.76,1.23-2.42,1.63-3.69.89s-1.68-2.35-.92-3.58l4.9-7.91c1.46-2.36,4.08-3.8,6.91-3.8h2.5c2.83,0,5.45,1.44,6.91,3.8l4.9,7.91c.76,1.23.35,2.84-.92,3.58s-2.92.34-3.69-.89l-2.41-3.88v18.19c0,1.44-1.2,2.61-2.69,2.61s-2.69-1.17-2.69-2.61v-10.44h-1.34Z"/>
    <path class="cls-1" d="m276.45,3.91c0-2.16,1.81-3.91,4.03-3.91s4.03,1.75,4.03,3.91-1.81,3.91-4.03,3.91-4.03-1.75-4.03-3.91Zm3.36,24.79v10.44c0,1.44-1.2,2.61-2.69,2.61s-2.69-1.17-2.69-2.61v-18.19l-2.4,3.88c-.76,1.23-2.42,1.63-3.69.89s-1.68-2.35-.92-3.58l4.9-7.91c1.46-2.36,4.08-3.8,6.91-3.8h2.5c2.83,0,5.45,1.44,6.91,3.8l4.9,7.91c.76,1.23.35,2.84-.92,3.58s-2.92.34-3.69-.89l-2.41-3.88v18.19c0,1.44-1.2,2.61-2.69,2.61s-2.69-1.17-2.69-2.61v-10.44h-1.34Z"/>
    <path class="cls-1" d="m246.93,3.91c0-2.16,1.81-3.91,4.03-3.91s4.03,1.75,4.03,3.91-1.81,3.91-4.03,3.91-4.03-1.75-4.03-3.91Zm3.36,24.79v10.44c0,1.44-1.2,2.61-2.69,2.61s-2.69-1.17-2.69-2.61v-18.19l-2.4,3.88c-.76,1.23-2.42,1.63-3.69.89s-1.68-2.35-.92-3.58l4.9-7.91c1.46-2.36,4.08-3.8,6.91-3.8h2.5c2.83,0,5.45,1.44,6.91,3.8l4.9,7.91c.76,1.23.35,2.84-.92,3.58s-2.92.34-3.69-.89l-2.41-3.88v18.19c0,1.44-1.2,2.61-2.69,2.61s-2.69-1.17-2.69-2.61v-10.44h-1.34Z"/>
    <path class="cls-1" d="m217.42,3.91c0-2.16,1.81-3.91,4.03-3.91s4.03,1.75,4.03,3.91-1.81,3.91-4.03,3.91-4.03-1.75-4.03-3.91Zm3.36,24.79v10.44c0,1.44-1.2,2.61-2.69,2.61s-2.69-1.17-2.69-2.61v-18.19l-2.4,3.88c-.76,1.23-2.42,1.63-3.69.89s-1.68-2.35-.92-3.58l4.9-7.91c1.46-2.36,4.08-3.8,6.91-3.8h2.5c2.83,0,5.45,1.44,6.91,3.8l4.9,7.91c.76,1.23.35,2.84-.92,3.58s-2.92.34-3.69-.89l-2.41-3.88v18.19c0,1.44-1.2,2.61-2.69,2.61s-2.69-1.17-2.69-2.61v-10.44h-1.34Z"/>
    <path class="cls-1" d="m9.87,52.57c0-2.16,1.81-3.91,4.03-3.91s4.03,1.75,4.03,3.91-1.81,3.91-4.03,3.91-4.03-1.75-4.03-3.91Zm3.36,24.79v10.44c0,1.44-1.2,2.61-2.69,2.61s-2.69-1.17-2.69-2.61v-18.19l-2.4,3.88c-.76,1.23-2.42,1.63-3.69.89s-1.68-2.35-.92-3.58l4.9-7.91c1.46-2.36,4.08-3.8,6.91-3.8h2.5c2.83,0,5.45,1.44,6.91,3.8l4.9,7.91c.76,1.23.35,2.84-.92,3.58s-2.92.34-3.69-.89l-2.41-3.88v18.19c0,1.44-1.2,2.61-2.69,2.61s-2.69-1.17-2.69-2.61v-10.44h-1.34Z"/>
    <path class="cls-1" d="m157.9,100.64c0-2.16,1.81-3.91,4.03-3.91s4.03,1.75,4.03,3.91-1.81,3.91-4.03,3.91-4.03-1.75-4.03-3.91Zm3.36,24.79v10.44c0,1.44-1.2,2.61-2.69,2.61s-2.69-1.17-2.69-2.61v-18.19l-2.4,3.88c-.76,1.23-2.42,1.63-3.69.89s-1.68-2.35-.92-3.58l4.9-7.91c1.46-2.36,4.08-3.8,6.91-3.8h2.5c2.83,0,5.45,1.44,6.91,3.8l4.9,7.91c.76,1.23.35,2.84-.92,3.58s-2.92.34-3.69-.89l-2.41-3.88v18.19c0,1.44-1.2,2.61-2.69,2.61s-2.69-1.17-2.69-2.61v-10.44h-1.34Z"/>
    <path class="cls-1" d="m128.39,100.64c0-2.16,1.81-3.91,4.03-3.91s4.03,1.75,4.03,3.91-1.81,3.91-4.03,3.91-4.03-1.75-4.03-3.91Zm3.36,24.79v10.44c0,1.44-1.2,2.61-2.69,2.61s-2.69-1.17-2.69-2.61v-18.19l-2.4,3.88c-.76,1.23-2.42,1.63-3.69.89s-1.68-2.35-.92-3.58l4.9-7.91c1.46-2.36,4.08-3.8,6.91-3.8h2.5c2.83,0,5.45,1.44,6.91,3.8l4.9,7.91c.76,1.23.35,2.84-.92,3.58s-2.92.34-3.69-.89l-2.41-3.88v18.19c0,1.44-1.2,2.61-2.69,2.61s-2.69-1.17-2.69-2.61v-10.44h-1.34Z"/>
    <path class="cls-1" d="m98.87,100.64c0-2.16,1.81-3.91,4.03-3.91s4.03,1.75,4.03,3.91-1.81,3.91-4.03,3.91-4.03-1.75-4.03-3.91Zm3.36,24.79v10.44c0,1.44-1.2,2.61-2.69,2.61s-2.69-1.17-2.69-2.61v-18.19l-2.4,3.88c-.76,1.23-2.42,1.63-3.69.89s-1.68-2.35-.92-3.58l4.9-7.91c1.46-2.36,4.08-3.8,6.91-3.8h2.5c2.83,0,5.45,1.44,6.91,3.8l4.9,7.91c.76,1.23.35,2.84-.92,3.58s-2.92.34-3.69-.89l-2.41-3.88v18.19c0,1.44-1.2,2.61-2.69,2.61s-2.69-1.17-2.69-2.61v-10.44h-1.34Z"/>
    <path class="cls-1" d="m69.15,52.57c0-2.16,1.81-3.91,4.03-3.91s4.03,1.75,4.03,3.91-1.81,3.91-4.03,3.91-4.03-1.75-4.03-3.91Zm3.36,24.79v10.44c0,1.44-1.2,2.61-2.69,2.61s-2.69-1.17-2.69-2.61v-18.19l-2.4,3.88c-.76,1.23-2.42,1.63-3.69.89s-1.68-2.35-.92-3.58l4.9-7.91c1.46-2.36,4.08-3.8,6.91-3.8h2.5c2.83,0,5.45,1.44,6.91,3.8l4.9,7.91c.76,1.23.35,2.84-.92,3.58s-2.92.34-3.69-.89l-2.41-3.88v18.19c0,1.44-1.2,2.61-2.69,2.61s-2.69-1.17-2.69-2.61v-10.44h-1.34Z"/>
    <path class="cls-1" d="m39.51,52.57c0-2.16,1.81-3.91,4.03-3.91s4.03,1.75,4.03,3.91-1.81,3.91-4.03,3.91-4.03-1.75-4.03-3.91Zm3.36,24.79v10.44c0,1.44-1.2,2.61-2.69,2.61s-2.69-1.17-2.69-2.61v-18.19l-2.4,3.88c-.76,1.23-2.42,1.63-3.69.89s-1.68-2.35-.92-3.58l4.9-7.91c1.46-2.36,4.08-3.8,6.91-3.8h2.5c2.83,0,5.45,1.44,6.91,3.8l4.9,7.91c.76,1.23.35,2.84-.92,3.58s-2.92.34-3.69-.89l-2.41-3.88v18.19c0,1.44-1.2,2.61-2.69,2.61s-2.69-1.17-2.69-2.61v-10.44h-1.34Z"/>
    <path class="cls-1" d="m187.41,100.64c0-2.16,1.81-3.91,4.03-3.91s4.03,1.75,4.03,3.91-1.81,3.91-4.03,3.91-4.03-1.75-4.03-3.91Zm3.36,24.79v10.44c0,1.44-1.2,2.61-2.69,2.61s-2.69-1.17-2.69-2.61v-18.19l-2.4,3.88c-.76,1.23-2.42,1.63-3.69.89s-1.68-2.35-.92-3.58l4.9-7.91c1.46-2.36,4.08-3.8,6.91-3.8h2.5c2.83,0,5.45,1.44,6.91,3.8l4.9,7.91c.76,1.23.35,2.84-.92,3.58s-2.92.34-3.69-.89l-2.41-3.88v18.19c0,1.44-1.2,2.61-2.69,2.61s-2.69-1.17-2.69-2.61v-10.44h-1.34Z"/>
    <path class="cls-1" d="m9.41,149.25c0-2.16,1.81-3.91,4.03-3.91s4.03,1.75,4.03,3.91-1.81,3.91-4.03,3.91-4.03-1.75-4.03-3.91Zm3.36,24.79v10.44c0,1.44-1.2,2.61-2.69,2.61s-2.69-1.17-2.69-2.61v-18.19l-2.4,3.88c-.76,1.23-2.42,1.63-3.69.89s-1.68-2.35-.92-3.58l4.9-7.91c1.46-2.36,4.08-3.8,6.91-3.8h2.5c2.83,0,5.45,1.44,6.91,3.8l4.9,7.91c.76,1.23.35,2.84-.92,3.58s-2.92.34-3.69-.89l-2.41-3.88v18.19c0,1.44-1.2,2.61-2.69,2.61s-2.69-1.17-2.69-2.61v-10.44h-1.34Z"/>
    <path class="cls-1" d="m69.36,100.64c0-2.16,1.81-3.91,4.03-3.91s4.03,1.75,4.03,3.91-1.81,3.91-4.03,3.91-4.03-1.75-4.03-3.91Zm3.36,24.79v10.44c0,1.44-1.2,2.61-2.69,2.61s-2.69-1.17-2.69-2.61v-18.19l-2.4,3.88c-.76,1.23-2.42,1.63-3.69.89s-1.68-2.35-.92-3.58l4.9-7.91c1.46-2.36,4.08-3.8,6.91-3.8h2.5c2.83,0,5.45,1.44,6.91,3.8l4.9,7.91c.76,1.23.35,2.84-.92,3.58s-2.92.34-3.69-.89l-2.41-3.88v18.19c0,1.44-1.2,2.61-2.69,2.61s-2.69-1.17-2.69-2.61v-10.44h-1.34Z"/>
    <path class="cls-1" d="m275.96,100.64c0-2.16,1.81-3.91,4.03-3.91s4.03,1.75,4.03,3.91-1.81,3.91-4.03,3.91-4.03-1.75-4.03-3.91Zm3.36,24.79v10.44c0,1.44-1.2,2.61-2.69,2.61s-2.69-1.17-2.69-2.61v-18.19l-2.4,3.88c-.76,1.23-2.42,1.63-3.69.89s-1.68-2.35-.92-3.58l4.9-7.91c1.46-2.36,4.08-3.8,6.91-3.8h2.5c2.83,0,5.45,1.44,6.91,3.8l4.9,7.91c.76,1.23.35,2.84-.92,3.58s-2.92.34-3.69-.89l-2.41-3.88v18.19c0,1.44-1.2,2.61-2.69,2.61s-2.69-1.17-2.69-2.61v-10.44h-1.34Z"/>
    <path class="cls-1" d="m246.44,100.64c0-2.16,1.81-3.91,4.03-3.91s4.03,1.75,4.03,3.91-1.81,3.91-4.03,3.91-4.03-1.75-4.03-3.91Zm3.36,24.79v10.44c0,1.44-1.2,2.61-2.69,2.61s-2.69-1.17-2.69-2.61v-18.19l-2.4,3.88c-.76,1.23-2.42,1.63-3.69.89s-1.68-2.35-.92-3.58l4.9-7.91c1.46-2.36,4.08-3.8,6.91-3.8h2.5c2.83,0,5.45,1.44,6.91,3.8l4.9,7.91c.76,1.23.35,2.84-.92,3.58s-2.92.34-3.69-.89l-2.41-3.88v18.19c0,1.44-1.2,2.61-2.69,2.61s-2.69-1.17-2.69-2.61v-10.44h-1.34Z"/>
    <path class="cls-1" d="m216.93,100.64c0-2.16,1.81-3.91,4.03-3.91s4.03,1.75,4.03,3.91-1.81,3.91-4.03,3.91-4.03-1.75-4.03-3.91Zm3.36,24.79v10.44c0,1.44-1.2,2.61-2.69,2.61s-2.69-1.17-2.69-2.61v-18.19l-2.4,3.88c-.76,1.23-2.42,1.63-3.69.89s-1.68-2.35-.92-3.58l4.9-7.91c1.46-2.36,4.08-3.8,6.91-3.8h2.5c2.83,0,5.45,1.44,6.91,3.8l4.9,7.91c.76,1.23.35,2.84-.92,3.58s-2.92.34-3.69-.89l-2.41-3.88v18.19c0,1.44-1.2,2.61-2.69,2.61s-2.69-1.17-2.69-2.61v-10.44h-1.34Z"/>
    <path class="cls-1" d="m187.71,52.57c0-2.16,1.81-3.91,4.03-3.91s4.03,1.75,4.03,3.91-1.81,3.91-4.03,3.91-4.03-1.75-4.03-3.91Zm3.36,24.79v10.44c0,1.44-1.2,2.61-2.69,2.61s-2.69-1.17-2.69-2.61v-18.19l-2.4,3.88c-.76,1.23-2.42,1.63-3.69.89s-1.68-2.35-.92-3.58l4.9-7.91c1.46-2.36,4.08-3.8,6.91-3.8h2.5c2.83,0,5.45,1.44,6.91,3.8l4.9,7.91c.76,1.23.35,2.84-.92,3.58s-2.92.34-3.69-.89l-2.41-3.88v18.19c0,1.44-1.2,2.61-2.69,2.61s-2.69-1.17-2.69-2.61v-10.44h-1.34Z"/>
    <path class="cls-1" d="m158.07,52.57c0-2.16,1.81-3.91,4.03-3.91s4.03,1.75,4.03,3.91-1.81,3.91-4.03,3.91-4.03-1.75-4.03-3.91Zm3.36,24.79v10.44c0,1.44-1.2,2.61-2.69,2.61s-2.69-1.17-2.69-2.61v-18.19l-2.4,3.88c-.76,1.23-2.42,1.63-3.69.89s-1.68-2.35-.92-3.58l4.9-7.91c1.46-2.36,4.08-3.8,6.91-3.8h2.5c2.83,0,5.45,1.44,6.91,3.8l4.9,7.91c.76,1.23.35,2.84-.92,3.58s-2.92.34-3.69-.89l-2.41-3.88v18.19c0,1.44-1.2,2.61-2.69,2.61s-2.69-1.17-2.69-2.61v-10.44h-1.34Z"/>
    <path class="cls-1" d="m128.43,52.57c0-2.16,1.81-3.91,4.03-3.91s4.03,1.75,4.03,3.91-1.81,3.91-4.03,3.91-4.03-1.75-4.03-3.91Zm3.36,24.79v10.44c0,1.44-1.2,2.61-2.69,2.61s-2.69-1.17-2.69-2.61v-18.19l-2.4,3.88c-.76,1.23-2.42,1.63-3.69.89s-1.68-2.35-.92-3.58l4.9-7.91c1.46-2.36,4.08-3.8,6.91-3.8h2.5c2.83,0,5.45,1.44,6.91,3.8l4.9,7.91c.76,1.23.35,2.84-.92,3.58s-2.92.34-3.69-.89l-2.41-3.88v18.19c0,1.44-1.2,2.61-2.69,2.61s-2.69-1.17-2.69-2.61v-10.44h-1.34Z"/>
    <path class="cls-1" d="m217.35,52.57c0-2.16,1.81-3.91,4.03-3.91s4.03,1.75,4.03,3.91-1.81,3.91-4.03,3.91-4.03-1.75-4.03-3.91Zm3.36,24.79v10.44c0,1.44-1.2,2.61-2.69,2.61s-2.69-1.17-2.69-2.61v-18.19l-2.4,3.88c-.76,1.23-2.42,1.63-3.69.89s-1.68-2.35-.92-3.58l4.9-7.91c1.46-2.36,4.08-3.8,6.91-3.8h2.5c2.83,0,5.45,1.44,6.91,3.8l4.9,7.91c.76,1.23.35,2.84-.92,3.58s-2.92.34-3.69-.89l-2.41-3.88v18.19c0,1.44-1.2,2.61-2.69,2.61s-2.69-1.17-2.69-2.61v-10.44h-1.34Z"/>
    <path class="cls-1" d="m98.79,52.57c0-2.16,1.81-3.91,4.03-3.91s4.03,1.75,4.03,3.91-1.81,3.91-4.03,3.91-4.03-1.75-4.03-3.91Zm3.36,24.79v10.44c0,1.44-1.2,2.61-2.69,2.61s-2.69-1.17-2.69-2.61v-18.19l-2.4,3.88c-.76,1.23-2.42,1.63-3.69.89s-1.68-2.35-.92-3.58l4.9-7.91c1.46-2.36,4.08-3.8,6.91-3.8h2.5c2.83,0,5.45,1.44,6.91,3.8l4.9,7.91c.76,1.23.35,2.84-.92,3.58s-2.92.34-3.69-.89l-2.41-3.88v18.19c0,1.44-1.2,2.61-2.69,2.61s-2.69-1.17-2.69-2.61v-10.44h-1.34Z"/>
    <path class="cls-1" d="m276.63,52.57c0-2.16,1.81-3.91,4.03-3.91s4.03,1.75,4.03,3.91-1.81,3.91-4.03,3.91-4.03-1.75-4.03-3.91Zm3.36,24.79v10.44c0,1.44-1.2,2.61-2.69,2.61s-2.69-1.17-2.69-2.61v-18.19l-2.4,3.88c-.76,1.23-2.42,1.63-3.69.89s-1.68-2.35-.92-3.58l4.9-7.91c1.46-2.36,4.08-3.8,6.91-3.8h2.5c2.83,0,5.45,1.44,6.91,3.8l4.9,7.91c.76,1.23.35,2.84-.92,3.58s-2.92.34-3.69-.89l-2.41-3.88v18.19c0,1.44-1.2,2.61-2.69,2.61s-2.69-1.17-2.69-2.61v-10.44h-1.34Z"/>
    <path class="cls-1" d="m246.99,52.57c0-2.16,1.81-3.91,4.03-3.91s4.03,1.75,4.03,3.91-1.81,3.91-4.03,3.91-4.03-1.75-4.03-3.91Zm3.36,24.79v10.44c0,1.44-1.2,2.61-2.69,2.61s-2.69-1.17-2.69-2.61v-18.19l-2.4,3.88c-.76,1.23-2.42,1.63-3.69.89s-1.68-2.35-.92-3.58l4.9-7.91c1.46-2.36,4.08-3.8,6.91-3.8h2.5c2.83,0,5.45,1.44,6.91,3.8l4.9,7.91c.76,1.23.35,2.84-.92,3.58s-2.92.34-3.69-.89l-2.41-3.88v18.19c0,1.44-1.2,2.61-2.69,2.61s-2.69-1.17-2.69-2.61v-10.44h-1.34Z"/>
  </g>
</svg>