<?xml version="1.0" encoding="utf-8"?>
<!-- Generator: Adobe Illustrator 27.4.0, SVG Export Plug-In . SVG Version: 6.00 Build 0)  -->
<svg version="1.1" id="Layer_1" xmlns="http://www.w3.org/2000/svg" xmlns:xlink="http://www.w3.org/1999/xlink" x="0px" y="0px"
	 viewBox="0 0 446 612" style="enable-background:new 0 0 446 612;" xml:space="preserve">
<style type="text/css">
	.st0{fill:none;stroke:#000000;stroke-width:10;stroke-miterlimit:10;}
	.st1{fill:#E8E8E8;stroke:#000000;stroke-miterlimit:10;}
	.st2{fill:none;stroke:#000000;stroke-miterlimit:10;}
	.st3{fill:none;stroke:#000000;stroke-width:2;stroke-miterlimit:10;}
	.st4{fill:#FF160C;stroke:#000000;stroke-miterlimit:10;}
	.st5{fill:none;}
	.st6{fill:#FF160C;}
	.st7{font-family:'ArialMT';}
	.st8{font-size:12px;}
	.st9{fill:none;stroke:#FF160C;stroke-miterlimit:10;}
</style>
<g id="Layer_1_00000016057879846642632240000016547400392070336687_">
	<g id="blood_r">
		<path class="st0" d="M265.4,417.4c0,0,9.1,3.5,15.1,14.9s5,35.1,5,35.1"/>
		<path class="st1" d="M259.4,414.9c0,0,1,0.1,2.7,0c0.9,0,1.9-0.2,3.1-0.4c1.2-0.2,2.5-0.6,4-1.1c1.4-0.5,3-1.3,4.5-2.4
			s3-2.5,4-4.5c1-1.9,1.5-4.3,1.3-6.6l-0.1-0.8V399l0,0v-0.1v-0.2l-0.1-0.4c-0.1-0.4-0.2-1-0.3-1.5c-0.2-1-0.5-2-0.8-2.9
			c-1.3-3.8-3-7.3-4.8-10.4s-3.6-5.9-5.3-8.3c-3.3-4.7-5.7-7.6-5.7-7.6l-0.4,0.3c0,0,2,3.2,4.7,8.2c1.3,2.5,2.8,5.5,4.2,8.7
			c1.4,3.2,2.8,6.7,3.6,10.2c0.2,0.9,0.4,1.8,0.5,2.6c0,0.4,0.1,0.8,0.1,1.3v0.4v0.2v0.1l0,0l0,0c0,0,0-0.1,0,0v0.6
			c-0.1,1.5-0.6,2.8-1.3,3.9c-0.7,1.1-1.6,2.2-2.7,3.2c-1,1-2.1,1.8-3.2,2.6s-2.2,1.4-3.1,2c-1,0.6-1.9,1-2.6,1.5
			c-1.5,0.8-2.3,1.3-2.3,1.3L259.4,414.9L259.4,414.9z"/>
		<path class="st1" d="M276.1,394.4c0,0,0.5-0.3,1.2-0.8c0.8-0.5,1.8-1.2,3-1.9c0.6-0.3,1.2-0.6,1.7-0.8c0.2-0.1,0.5-0.1,0.6-0.1
			c0.2,0,0.2,0,0.3,0c0.1,0,0.2,0,0.4,0.1c0.1,0,0.2,0.1,0.3,0.2l0,0l0,0c0,0,0.1,0.2,0.1,0.1l0,0l0,0l0.1,0.1l0.3,0.2
			c0.1,0.1,0.2,0.1,0.3,0.2c0.8,0.5,1.6,0.7,2.4,0.7s1.5-0.1,2.2-0.2c1.3-0.3,2.3-0.9,3.3-1.5s1.8-1.2,2.5-1.9
			c1.5-1.3,2.8-2.6,3.8-3.8c1-1.2,1.8-2.2,2.4-2.9c0.5-0.7,0.8-1.1,0.8-1.1l-0.4-0.3c0,0-1.6,1.3-4,3c-1.2,0.9-2.7,1.8-4.3,2.7
			c-0.8,0.4-1.6,0.8-2.5,1.2c-0.8,0.3-1.7,0.6-2.4,0.6c-0.7,0-1.1-0.2-1.2-0.4l0,0l0,0l-0.1-0.1l0,0l0,0c-0.1-0.1,0.1,0.1,0.1,0.1
			l0,0l-0.1-0.1c-0.2-0.3-0.5-0.5-0.8-0.8c-0.6-0.5-1.4-0.9-2.2-1c-0.8-0.2-1.7-0.1-2.5,0.1s-1.3,0.5-1.9,0.9
			c-1,0.7-1.7,1.5-2.2,2.2s-0.9,1.4-1.1,2.1c-0.3,0.6-0.4,1.2-0.5,1.7c-0.2,1-0.2,1.5-0.2,1.5L276.1,394.4L276.1,394.4z"/>
		<path class="st1" d="M271.2,409c0.4-0.9,0.7-1.8,0.8-2.8c0.1-0.5,0.1-1,0.1-1.5c0-0.2,0-0.5,0-0.7s0-0.5-0.1-0.7
			c0-0.2-0.1-0.5-0.2-0.7s-0.2-0.5-0.3-0.7c-0.1-0.2-0.3-0.4-0.4-0.6c-0.2-0.2-0.3-0.4-0.5-0.5l-1.1-0.9c-0.3-0.3-0.6-0.6-0.9-1
			c-0.6-0.7-1.2-1.4-1.7-2.2c-0.5-0.8-1-1.5-1.5-2.4c-1-1.6-1.9-3.3-2.7-4.9l-0.2-0.5l-0.6,0.1c-0.5,0.1-1.1,0.1-1.6,0.1
			s-1.1,0-1.6-0.1s-1-0.2-1.5-0.4c-0.5-0.2-0.9-0.4-1.3-0.7c-0.2-0.2-0.4-0.3-0.5-0.5s-0.3-0.4-0.4-0.6c-0.3-0.5-0.7-1-1.1-1.5
			c-0.7-1-1.5-1.9-2.4-2.7l-0.7-0.6l-0.3-0.3l-0.3-0.2c-0.3-0.3-0.7-0.8-1-1.2c-0.6-0.9-1.2-1.9-1.7-2.9c-0.3-0.5-0.5-1-0.8-1.5
			c-0.2-0.5-0.5-1-0.7-1.6c-0.5-1.1-0.8-2.2-1.2-3.3h-0.2c0.1,0.6,0.1,1.2,0.2,1.8c0.1,0.6,0.2,1.2,0.3,1.8c0.2,1.2,0.6,2.3,1,3.4
			c0.2,0.6,0.4,1.1,0.7,1.7c0.2,0.5,0.6,1.1,0.9,1.6c0.3,0.5,0.7,1,1.1,1.6l0.6,0.6l0.6,0.6c0.8,0.8,1.5,1.7,2.3,2.5
			c0.4,0.5,0.7,0.9,1,1.3c0.1,0.2,0.4,0.5,0.6,0.8c0.2,0.3,0.5,0.5,0.8,0.7c0.6,0.4,1.2,0.7,1.8,0.9c0.6,0.2,1.3,0.3,1.9,0.4
			s1.2,0.1,1.9,0c0.6,0,1.2-0.1,1.9-0.2l-0.8-0.4c0.9,1.7,1.9,3.3,3,4.9s2.2,3.1,3.6,4.5c0.3,0.4,0.7,0.7,1.1,1l1.1,0.8
			c0.2,0.1,0.3,0.3,0.5,0.4s0.3,0.3,0.4,0.5s0.2,0.4,0.3,0.6c0.1,0.2,0.2,0.4,0.2,0.6c0.1,0.2,0.1,0.4,0.1,0.7
			c0,0.2,0.1,0.5,0.1,0.7c0,0.5,0,0.9,0,1.4c-0.1,0.9-0.3,1.9-0.6,2.7L271.2,409L271.2,409z"/>
		<path class="st1" d="M308.1,388.7c-0.1-0.3-0.3-0.5-0.5-0.8c-0.2-0.2-0.4-0.5-0.6-0.7c-0.5-0.5-1-0.8-1.5-1.1
			c-0.3-0.1-0.6-0.3-0.9-0.4s-0.6-0.2-0.9-0.3c-0.6-0.1-1.3-0.2-1.9-0.2c-1.2,0-2.4,0.3-3.6,0.5c-1.1,0.2-2.3,0.5-3.4,0.6l0.7,0.7
			c0.2-2.7,0.4-5.4,0.5-8.1h-0.2c-0.5,2.7-1.1,5.3-1.5,8l-0.1,0.8h0.8c1.2-0.1,2.4-0.2,3.5-0.3c1.1-0.1,2.3-0.1,3.4-0.1
			c0.5,0,1,0,1.6,0c0.5,0,1,0.1,1.5,0.2c0.2,0.1,0.5,0.1,0.8,0.2c0.2,0.1,0.5,0.2,0.8,0.3c0.2,0.1,0.5,0.2,0.8,0.4s0.5,0.3,0.8,0.4
			L308.1,388.7L308.1,388.7z"/>
		<path class="st2" d="M266,396.5c-1.1-9.3-1.3-10.8-2.8-15.5"/>
		<path class="st2" d="M268.8,399.8c0,0-0.1,2-4.2-0.4c-4-2.4-8.2-3.8-8.2-3.8"/>
		<line class="st2" x1="262.6" y1="389.7" x2="262.6" y2="385.5"/>
		<line class="st2" x1="262.6" y1="387.6" x2="257.2" y2="384.1"/>
		<path class="st1" d="M274.3,379.5c-0.1,0.5-0.2,1.1-0.4,1.6c-0.2,0.5-0.4,1-0.6,1.5s-0.5,0.9-0.8,1.3c-0.1,0.2-0.3,0.4-0.5,0.6
			c-0.1,0.1-0.2,0.2-0.3,0.2c-0.1,0.1-0.2,0.2-0.2,0.2l0.8-0.1c-0.6-0.2-1.3-0.6-1.9-0.9s-1.2-0.6-1.9-1c-1.2-0.7-2.4-1.4-3.5-2.2
			c-0.6-0.4-1.1-0.8-1.6-1.3c-0.5-0.4-1-0.9-1.5-1.4s-0.9-1-1.3-1.6l-1.3-1.8c-0.5-0.6-1-1.2-1.5-1.7s-1-1-1.6-1.5
			c-0.5-0.5-1.1-0.9-1.7-1.4c-0.6-0.4-1.2-0.9-1.8-1.3c-2.4-1.6-5-3-7.7-4.1l-0.1,0.2c2.6,1.3,5,2.9,7.3,4.6
			c0.6,0.4,1.1,0.9,1.7,1.4c0.5,0.5,1.1,0.9,1.6,1.4c0.5,0.5,1,1,1.5,1.5s0.9,1.1,1.3,1.6l1.2,1.8c0.4,0.6,0.9,1.2,1.3,1.8
			c0.5,0.6,1,1.1,1.5,1.6s1.1,1,1.7,1.5s1.2,0.9,1.8,1.3c0.6,0.4,1.3,0.8,2,1.1c0.7,0.3,1.4,0.6,2,0.9c0.7,0.3,1.4,0.5,2.2,0.7
			l0.5,0.1l0.3-0.3c0.2-0.1,0.2-0.2,0.4-0.4c0.1-0.1,0.2-0.2,0.3-0.4c0.2-0.3,0.3-0.5,0.5-0.8c0.3-0.5,0.5-1.1,0.7-1.7
			c0.1-0.6,0.3-1.1,0.3-1.7c0-0.3,0-0.6,0-0.9s0-0.6-0.1-0.8L274.3,379.5L274.3,379.5z"/>
		<path class="st2" d="M292.6,390.6c-1.4,8.1,0,15.8,0,15.8"/>
		<path class="st2" d="M282.3,388.7c0,0,1.6,0.5,1.6,6.8"/>
		<path class="st1" d="M280,387.6c0,0,0.3-0.3,0.7-0.9c0.4-0.6,0.9-1.4,1.5-2.3c0.6-1,1.2-2,1.8-3.1c0.3-0.6,0.6-1.1,1-1.6
			c0.2-0.2,0.4-0.5,0.7-0.6c0.1-0.1,0.2-0.2,0.4-0.3l0.5-0.3c1-0.7,1.4-1.8,1.5-2.7s-0.1-1.7-0.3-2.5c-0.4-1.5-1-2.7-1.6-3.8
			c-0.5-1-1.1-1.9-1.5-2.4c-0.4-0.6-0.6-0.9-0.6-0.9l-0.3,0.2c0,0,0.7,1.4,1.5,3.5c0.4,1.1,0.8,2.3,0.9,3.7c0.1,0.7,0.1,1.3,0,1.9
			c-0.1,0.3-0.2,0.5-0.3,0.7s-0.3,0.3-0.4,0.4l-0.3,0.1h-0.1l0,0l0,0c0.1-0.1,0,0,0.1,0l0,0l-0.2,0.1c-0.2,0.1-0.4,0.2-0.6,0.3
			c-0.4,0.2-0.8,0.5-1.1,0.8c-0.7,0.5-1.3,1.2-1.8,1.8c-1,1.3-1.5,2.7-1.7,3.9c-0.2,1.2-0.2,2.2-0.2,3c0.1,0.7,0.2,1.1,0.2,1.1
			L280,387.6L280,387.6z"/>
		<path class="st1" d="M283.7,392.1c0,0-0.5,0.2-1.1,0.7c-0.3,0.3-0.5,0.6-0.8,1.1c-0.1,0.2-0.2,0.5-0.3,0.7
			c-0.1,0.2-0.1,0.5-0.2,0.8c-0.1,0.5-0.2,1-0.2,1.5c0,0.2,0,0.5,0,0.7s0,0.4,0.1,0.6c0.1,0.4,0.2,0.7,0.2,0.9s0.1,0.3,0.1,0.3h0.1
			c0,0,0-0.1,0-0.3s-0.1-0.5,0-0.9c0-0.2,0-0.4,0-0.6s0-0.4,0.1-0.6c0.1-0.4,0.2-0.9,0.4-1.3c0.1-0.4,0.4-0.8,0.6-1.2
			c0.2-0.4,0.4-0.8,0.5-1.1C283.5,392.7,283.7,392.2,283.7,392.1L283.7,392.1L283.7,392.1z"/>
		<path class="st1" d="M292,401.1c0,0,0.2,0.5,0.6,1.2c0.2,0.3,0.4,0.7,0.7,1.1c0.3,0.4,0.6,0.7,0.9,1.2c0.6,0.8,1.1,1.7,1.5,2.4
			c0.2,0.3,0.3,0.6,0.4,0.9s0.1,0.3,0.1,0.3h0.1c0,0,0-0.1-0.1-0.4c0-0.2-0.1-0.5-0.2-0.9c-0.2-0.8-0.6-1.8-1.1-2.7
			c-0.2-0.5-0.5-1-0.8-1.4s-0.6-0.7-1-1C292.7,401.2,292.1,401.1,292,401.1L292,401.1L292,401.1z"/>
		<path class="st1" d="M274,427.4c0,0,1.2-0.1,3.2-0.2c1-0.1,2.2-0.1,3.5-0.1c0.6,0,1.3,0,2,0.1s1.4,0.2,2.1,0.3
			c0.7,0.1,1.4,0.4,2,0.6c0.3,0.1,0.8,0.4,1.2,0.5c0.5,0.2,0.9,0.4,1.3,0.5c0.8,0.3,1.5,0.7,2.2,1.1c0.4,0.2,0.7,0.5,1.1,0.7
			c0.4,0.3,0.7,0.6,1.1,0.9c1.4,1.3,2.7,2.9,3.9,4.7c1.2,1.8,2.3,3.7,3.3,5.7l0.4,0.8c0.1,0.2,0.3,0.5,0.4,0.8
			c0.3,0.6,0.7,1.1,1.1,1.6c0.8,1,1.7,1.9,2.7,2.6c2,1.5,4.2,2.4,6.4,3c2.2,0.6,4.3,0.8,6.3,0.9s3.9,0,5.6-0.2
			c3.5-0.3,6.3-0.9,8.2-1.4c2-0.5,3.1-0.8,3.1-0.8L335,449c0,0-1.1,0.2-3.1,0.5s-4.8,0.6-8.2,0.7c-1.7,0-3.5,0-5.4-0.3
			c-1.9-0.2-3.9-0.6-5.8-1.3c-1.9-0.7-3.8-1.6-5.3-2.9c-0.8-0.7-1.4-1.4-2-2.2c-0.3-0.4-0.5-0.9-0.8-1.3c-0.1-0.2-0.2-0.5-0.3-0.7
			l-0.3-0.8c-0.9-2.1-1.9-4.3-3-6.3s-2.4-4-3.9-5.9c-1.5-1.8-3.5-3.5-5.6-4.3c-1.1-0.5-1.7-0.7-2.9-1.1c-1.1-0.4-2.2-0.5-3.2-0.5
			s-1.9,0.1-2.8,0.2s-1.6,0.3-2.4,0.6c-1.4,0.5-2.6,1-3.5,1.5c-1.9,1-2.7,1.9-2.7,1.9L274,427.4L274,427.4z"/>
		<path class="st1" d="M267.9,421.6c0,0-0.3,0.3-0.7,0.8c-0.4,0.5-1,1.3-1.5,2.2c-0.5,1-1,2.2-1.3,3.5s-0.3,2.8-0.4,4.3
			c0,0.7,0,1.5,0,2.2s0,1.4,0.2,2.1c0.1,0.7,0.1,1.3,0.3,2c0.2,0.6,0.3,1.2,0.4,1.7c0.2,0.5,0.3,1,0.5,1.4c0.1,0.4,0.3,0.8,0.5,1
			c0.3,0.6,0.4,0.9,0.4,0.9l0.3-0.1c0,0-0.1-0.3-0.2-0.9c0-0.3-0.2-0.6-0.2-1.1c0-0.4-0.1-0.9-0.2-1.4s0-1.1-0.1-1.7
			c0-0.6,0-1.2,0-1.9c0-0.6,0.1-1.3,0.2-2s0.2-1.3,0.3-2c0.1-0.7,0.3-1.3,0.5-2c0.2-0.6,0.4-1.3,0.5-1.9s0.2-1.2,0.3-1.8
			s0.2-1.1,0.2-1.7c0.1-1,0.2-1.9,0.2-2.6c0-0.6,0-1,0-1H267.9L267.9,421.6z"/>
		<path class="st2" d="M272.9,405.4c0,0,3,3.5,7.1,2.6s6.7-2.6,6.7-2.6"/>
		<line class="st2" x1="252.6" y1="385.5" x2="252.6" y2="376.8"/>
		<line class="st2" x1="256.4" y1="389.7" x2="249.4" y2="391"/>
		<path class="st1" d="M286.4,449.4c0,0,0,0.2-0.1,0.6s-0.1,1,0,1.7c0,0.8,0.1,1.7,0.3,2.7c0.1,0.5,0.2,1.1,0.4,1.6
			c0.2,0.6,0.3,1.2,0.6,1.8c0.5,1.2,1.1,2.5,1.9,3.8s1.8,2.5,3,3.7c0.6,0.5,1.3,1.1,2,1.6s1.5,0.9,2.2,1.4c0.8,0.4,1.6,0.7,2.4,1.1
			c0.8,0.3,1.6,0.6,2.5,0.9c0.4,0.2,0.8,0.3,1.2,0.4l1.3,0.3l1.3,0.3l1.2,0.1c1.5,0.2,3.2,0.3,4.8,0.3c0.8,0,1.6-0.1,2.3-0.1
			c0.8-0.1,1.5-0.2,2.2-0.3c0.7-0.2,1.4-0.3,2.1-0.5s1.3-0.4,1.9-0.6c1.2-0.5,2.2-1,3-1.7c0.9-0.6,1.5-1.2,2-1.8
			c0.5-0.6,0.8-1,1-1.4c0.2-0.3,0.3-0.6,0.3-0.6l-0.5-0.2c0,0-0.1,0.1-0.3,0.4c-0.2,0.3-0.6,0.7-1.1,1.1s-1.2,0.9-2,1.3
			c-0.8,0.5-1.8,0.8-2.9,1.1c-0.5,0.1-1.1,0.2-1.8,0.3c-0.6,0.1-1.3,0.1-1.9,0.1c-0.7,0-1.3,0-2,0c-0.7-0.1-1.4-0.1-2.1-0.2
			c-1.4-0.2-2.8-0.5-4.4-0.9l-1.2-0.3c0,0-0.1,0,0,0l0,0l0,0h-0.1h-0.1l-0.3-0.1l-0.5-0.2l-1.1-0.4c-0.4-0.1-0.7-0.2-1-0.4
			c-0.7-0.3-1.3-0.6-2-1c-0.6-0.4-1.2-0.8-1.8-1.2c-0.6-0.4-1.1-0.9-1.6-1.4s-1-1-1.5-1.4c-1-0.9-1.9-1.9-2.7-2.8
			c-0.8-0.9-1.6-1.9-2.2-2.8c-0.7-0.9-1.3-1.8-1.8-2.6c-0.3-0.4-0.5-0.8-0.7-1.1c-0.2-0.4-0.4-0.7-0.6-1c-0.7-1.2-1.1-1.9-1.1-1.9
			L286.4,449.4L286.4,449.4z"/>
		<path class="st1" d="M280.6,465.5c0,0,0,0.1,0,0.2c0,0.2-0.1,0.6-0.1,0.9c0,0.7,0,1.6,0,2.7c0.1,1.1,0.3,2.5,0.6,4
			c0.4,1.5,0.8,3.2,1.6,4.9c0.7,1.8,1.8,3.5,3.1,5.3c1.4,1.7,2.9,3.3,4.7,4.7c0.5,0.3,0.9,0.7,1.4,1s1,0.6,1.5,0.9l0.7,0.5l0.5,0.3
			l0.4,0.2c0.5,0.2,0.9,0.5,1.5,0.7l0.9,0.4l0.9,0.3c0.6,0.2,1.2,0.3,1.8,0.5c1.2,0.3,2.4,0.4,3.5,0.5c2.3,0.2,4.5,0.1,6.6,0
			s4-0.1,5.7,0.2c1.7,0.3,3.2,1.1,4.3,2.3c1.1,1.2,2,2.6,2.7,4c1.3,2.8,2,5.4,2.4,7.2c0.2,0.9,0.4,1.6,0.5,2.1s0.2,0.8,0.2,0.8
			s0-0.3,0-0.8s-0.1-1.2-0.1-2.2c-0.2-1.9-0.4-4.5-1.4-7.7c-0.5-1.6-1.2-3.3-2.4-4.9c-1.2-1.6-3.1-3.1-5.2-3.8
			c-2.1-0.8-4.4-1-6.5-1.3c-2.1-0.2-4.1-0.4-6-0.9c-0.9-0.2-1.8-0.5-2.7-0.8c-0.4-0.2-0.9-0.3-1.2-0.5l-0.6-0.3l-0.5-0.3
			c-0.3-0.2-0.8-0.5-1.2-0.8l-0.3-0.2c0,0,0.2,0.1,0.1,0l0,0l0,0l-0.1-0.1l-0.1-0.1l-0.5-0.4c-0.4-0.3-0.7-0.6-1-0.9
			s-0.6-0.6-0.9-0.9c-1.2-1.2-2.1-2.6-2.9-3.9c-0.7-1.3-1.2-2.6-1.6-3.9c-0.4-1.2-0.5-2.4-0.6-3.5c0-1,0-2,0-2.7s0.1-1.3,0.2-1.6
			c0.1-0.3,0.1-0.4,0.1-0.4L280.6,465.5L280.6,465.5z"/>
		<path class="st2" d="M288.2,475.4c0,0,1.2-4.2,6.3-4c5.2,0.2,11.1,2.8,11.1,2.8"/>
		<path class="st1" d="M284.1,475.4c0,0-0.3,0.7-0.7,1.9c-0.2,0.6-0.4,1.4-0.6,2.2c-0.2,0.9-0.4,1.8-0.5,2.9s-0.3,2.2-0.4,3.5
			c-0.1,1.2,0,2.5,0,3.9c0,0.7,0.1,1.4,0.1,2c0,0.7,0.1,1.4,0.1,2.1c0.1,0.7,0.2,1.5,0.2,2.2c0.1,0.7,0.2,1.4,0.3,2.1
			c0.5,2.9,1.1,5.6,1.7,8.3c0.6,2.6,1.3,5,1.9,7.1c1.2,4.1,2.1,6.8,2.1,6.8l0.3-0.1c0,0-0.6-2.8-1.5-7c-0.4-2.1-0.9-4.5-1.3-7.2
			c-0.5-2.6-0.9-5.4-1.2-8.2c-0.1-0.7-0.1-1.4-0.2-2.1c0-0.7-0.1-1.4-0.1-2c0-0.7,0-1.4,0-2c0-0.7,0.1-1.4,0.1-2
			c0.1-1.3,0.2-2.6,0.2-3.8c0-1.2,0-2.4,0-3.4c0-1.1-0.1-2-0.2-2.9s-0.1-1.6-0.2-2.3c-0.1-1.3-0.3-2-0.3-2H284.1L284.1,475.4z"/>
		<path class="st1" d="M281.1,455.1c0,0-0.3,0.1-0.9,0.5c-0.5,0.3-1.2,0.8-2,1.5c-0.7,0.7-1.5,1.5-2.2,2.6c-0.7,1-1.2,2.3-1.7,3.5
			c-0.3,0.6-0.5,1.2-0.8,1.8c-0.3,0.6-0.5,1.2-0.7,1.8c-0.2,0.6-0.4,1.2-0.6,1.7c-0.1,0.6-0.3,1.1-0.4,1.6s-0.2,1-0.2,1.3
			c-0.1,0.4-0.1,0.8-0.1,1c0,0.6-0.1,0.9-0.1,0.9h0.3c0,0,0.1-0.3,0.3-0.8c0.1-0.3,0.2-0.6,0.4-1c0.2-0.4,0.3-0.8,0.5-1.2
			c0.2-0.4,0.5-0.9,0.7-1.4c0.3-0.5,0.5-1,0.9-1.5c0.6-1,1.3-2.1,2-3.1c0.7-1.1,1.6-2,2.3-3c0.6-1,1.2-2,1.6-2.9s0.7-1.7,0.9-2.3
			c0.2-0.6,0.2-0.9,0.2-0.9L281.1,455.1L281.1,455.1z"/>
		<path class="st1" d="M293.9,485.7c0,0-0.1,2.3,0.7,5.6c0.2,0.8,0.5,1.7,0.8,2.6c0.4,0.9,0.8,1.9,1.3,2.9c0.6,1,1.3,1.9,2.3,2.8
			c0.5,0.4,1.1,0.8,1.7,1.1c0.1,0,0.1,0,0.3,0.1l0.2,0.1l0.4,0.1c0.2,0.1,0.6,0.1,0.9,0.2c0.7,0.1,1.3,0.2,2,0.1s1.3-0.2,1.9-0.4
			c1.1-0.3,1.9-0.6,2.8-0.6s1.7,0.3,2.5,0.6c0.8,0.4,1.7,0.7,2.4,1.1c1.5,0.7,2.6,1.4,3.4,2c0.4,0.3,0.7,0.5,0.9,0.7
			c0.2,0.2,0.3,0.3,0.3,0.3l0.2-0.2c0,0-0.1-0.1-0.2-0.3c-0.2-0.2-0.4-0.5-0.8-0.8c-0.7-0.7-1.8-1.6-3.1-2.5c-0.7-0.5-1.4-1-2.3-1.5
			s-1.9-1-3.1-1.2s-2.5,0.1-3.5,0.3c-1,0.2-1.8,0.1-2.6-0.2c-0.2-0.1-0.4-0.1-0.6-0.3l-0.4-0.2l-0.2-0.1c0.1,0,0,0-0.1,0
			c-0.3-0.2-0.6-0.4-1-0.7c-0.6-0.6-1.2-1.3-1.8-2.1c-1.1-1.5-2-3.2-2.7-4.6c-1.5-2.9-2.4-4.9-2.4-4.9H293.9L293.9,485.7z"/>
		<path class="st2" d="M297,486.4c0,0-0.9-2.2,2.9-4s9.5-1,9.5-1"/>
		<line class="st2" x1="301.8" y1="481.7" x2="305.7" y2="477"/>
		<line class="st2" x1="295.9" y1="471.4" x2="298.6" y2="475.4"/>
		<path class="st2" d="M304.9,491.1c0,0,2.9-5.6,7.7-7.3"/>
		<line class="st2" x1="308.5" y1="486.4" x2="315.7" y2="485.7"/>
		<path class="st1" d="M296.9,464.3c0,0,1.4,0.4,3.5,0.3c0.5,0,1.1-0.1,1.7-0.1c0.6-0.1,1.2-0.2,1.8-0.4s1.3-0.5,1.9-0.8
			s1.2-0.7,1.8-1.1l0.8-0.6c0.3-0.1,0.5-0.3,0.8-0.4c0.6-0.3,1.1-0.5,1.7-0.6c1.2-0.3,2.3-0.5,3.3-0.6c2-0.2,3.3-0.1,3.3-0.1v-0.2
			c0,0-1.3-0.3-3.4-0.4c-1,0-2.2,0-3.5,0.2c-0.6,0.1-1.3,0.3-2,0.5c-0.3,0.1-0.7,0.3-1,0.4l-0.9,0.5c-0.5,0.3-1.1,0.6-1.7,0.8
			c-0.6,0.2-1.2,0.4-1.7,0.5c-1.1,0.4-2.2,0.7-3.2,1c-1.9,0.6-3.2,1-3.2,1L296.9,464.3L296.9,464.3z"/>
		<path class="st1" d="M288.2,426c0,0,2-0.4,4.7-1.7c0.7-0.3,1.4-0.7,2.1-1.2s1.5-1,2.2-1.6s1.4-1.3,2.1-2.1
			c0.3-0.4,0.6-0.8,0.9-1.2c0.3-0.4,0.6-0.9,0.9-1.3c0.5-0.9,1-1.9,1.3-2.8s0.6-1.9,0.8-2.8c0.2-0.9,0.4-1.8,0.5-2.7
			c0.1-0.9,0.2-1.7,0.2-2.4c0.2-3-0.1-5-0.1-5h-0.2c0,0,0,2-0.4,4.9c-0.1,0.7-0.3,1.5-0.5,2.3s-0.4,1.7-0.7,2.5
			c-0.3,0.9-0.6,1.7-1,2.6c-0.2,0.5-0.4,0.9-0.6,1.3s-0.4,0.8-0.7,1.2c-0.3,0.4-0.5,0.8-0.9,1.1c-0.3,0.4-0.6,0.7-1,1
			c-0.7,0.6-1.4,1.2-2,1.8c-1.4,1.1-2.7,2.2-3.8,3.1c-2.4,1.8-4,2.9-4,2.9L288.2,426L288.2,426z"/>
		<g>
			<line class="st2" x1="295.9" y1="421.1" x2="294.9" y2="412.7"/>
			<path class="st1" d="M296,421.1c0,0,0.2-0.5,0.2-1.4c0-0.4,0-0.9,0-1.4c-0.1-0.5-0.2-1-0.3-1.5c-0.4-2.1-0.9-4.2-0.9-4.2h-0.1
				c0,0,0,2.1,0.1,4.3c0,0.5,0,1.1,0.1,1.6s0.2,1,0.3,1.3C295.6,420.6,295.9,421.1,296,421.1L296,421.1L296,421.1z"/>
		</g>
		<path class="st1" d="M303.1,409c0,0,0.1-0.1,0.3-0.5c0.2-0.3,0.3-0.8,0.4-1.4s-0.1-1.3-0.5-2c-0.2-0.3-0.5-0.6-0.7-0.9
			c-0.3-0.3-0.6-0.5-0.9-0.7c-1.2-0.8-2.5-1.5-3.5-1.9s-1.7-0.6-1.7-0.6v0.1c0,0,0.7,0.3,1.6,0.9s2.1,1.4,3.2,2.2
			c0.3,0.2,0.5,0.5,0.7,0.7s0.4,0.5,0.5,0.8c0.3,0.5,0.5,1,0.6,1.5c0,0.2,0.1,0.5,0.1,0.7s0,0.4,0,0.5
			C303.1,408.8,303,408.9,303.1,409L303.1,409L303.1,409z"/>
		<path class="st1" d="M270.7,382.5c0,0,0.9-1,1.6-2.9c0.4-0.9,0.7-2,0.9-3.2c0.2-1.2,0.2-2.5,0.2-3.8c0-0.6,0-1.3-0.1-1.9
			s-0.1-1.3-0.2-1.9s-0.2-1.2-0.4-1.7c-0.2-0.5-0.3-1-0.5-1.5c-0.2-0.4-0.4-0.9-0.5-1.2c-0.1-0.4-0.4-0.6-0.5-0.9
			c-0.3-0.5-0.5-0.7-0.5-0.7l-0.2,0.1c0,0,0.1,0.3,0.3,0.8c0.1,0.3,0.2,0.5,0.3,0.9c0.1,0.4,0.2,0.8,0.3,1.2c0.1,0.5,0.2,1,0.2,1.5
			c0.1,0.5,0.1,1.1,0.1,1.6c0,0.6,0,1.2,0,1.8c0,0.6-0.1,1.2-0.1,1.8c-0.1,0.6-0.1,1.2-0.3,1.8c-0.1,0.6-0.2,1.2-0.4,1.7
			c-0.1,0.6-0.2,1.1-0.2,1.6c-0.1,0.5-0.1,1-0.2,1.5c-0.2,1.9-0.2,3.2-0.2,3.2L270.7,382.5L270.7,382.5z"/>
		<path class="st2" d="M247,378.6c0,0,5.3-9.2,2.4-13.2s-0.8-10.8-0.8-10.8"/>
		<path class="st2" d="M248,361.3c0,0-5.8-2.3-6.4-4"/>
		<line class="st2" x1="249.4" y1="365.4" x2="251.1" y2="360.4"/>
		<line class="st2" x1="272" y1="373.5" x2="268.1" y2="369.2"/>
		<line class="st2" x1="272.9" y1="369.9" x2="275.9" y2="365.4"/>
		<line class="st2" x1="259.3" y1="376" x2="259.6" y2="368.4"/>
		<line class="st2" x1="254.9" y1="371" x2="254.9" y2="365.4"/>
		<line class="st2" x1="256.4" y1="372.7" x2="251.1" y2="373.5"/>
		<path class="st1" d="M275.5,393.1c0,0-1.1-1-3.2-1.9c-0.5-0.2-1.1-0.4-1.7-0.6s-1.3-0.3-2-0.4s-1.5,0-2.2,0
			c-0.8,0.1-1.5,0.2-2.2,0.4c-0.4,0.1-0.7,0.2-1.1,0.4c-0.4,0.1-0.7,0.3-1,0.5s-0.7,0.3-1,0.6c-0.3,0.2-0.6,0.5-0.9,0.7
			c-1,0.9-1.9,1.8-2.6,2.6s-1.4,1.4-1.8,2c-0.2,0.3-0.3,0.5-0.4,0.6c0,0.1,0,0.1,0,0.2c0.1,0.1,0.1,0,0.2,0c0.1,0,0.1,0,0.1,0
			l-0.1-0.2l0,0l0,0l0,0c0.1-0.1,0.2-0.3,0.5-0.5c0.5-0.4,1.1-1,2-1.6c0.4-0.3,0.9-0.7,1.4-1c0.5-0.4,1-0.8,1.5-1.2
			c0.3-0.2,0.5-0.3,0.8-0.5s0.6-0.3,0.9-0.4s0.6-0.2,0.9-0.3c0.3-0.1,0.6-0.2,1-0.2c0.6-0.1,1.3-0.1,2-0.1c0.7,0.1,1.3,0.1,1.9,0.2
			c1.2,0.1,2.4,0.3,3.5,0.5c2,0.3,3.5,0.6,3.5,0.6L275.5,393.1L275.5,393.1z"/>
		<line class="st2" x1="281.5" y1="381" x2="278.9" y2="375.1"/>
		<line class="st2" x1="287.1" y1="372.2" x2="291.4" y2="362.9"/>
		<path class="st2" d="M289.2,366.2c0,0-0.8-4.7-4.3-6.9"/>
		<path class="st2" d="M285.6,377.6c0,0-2-3.2-5.8-7.8"/>
		<path class="st2" d="M283.5,381c0,0,3.3-4.4,8-4.1"/>
		<line class="st2" x1="288.1" y1="369.9" x2="295.9" y2="368.4"/>
		<line class="st2" x1="294.2" y1="388.8" x2="299.9" y2="392.9"/>
		<line class="st2" x1="286.6" y1="388.7" x2="291.4" y2="382.5"/>
		<line class="st2" x1="265.5" y1="430.7" x2="271.6" y2="437.7"/>
		<line class="st2" x1="266.5" y1="426.2" x2="258.3" y2="430.7"/>
		<path class="st1" d="M317.5,492.6c0,0,0.6-0.1,1.7-0.1c0.5,0,1.2,0.1,1.9,0.2c0.4,0.1,0.7,0.2,1.1,0.3c0.4,0.1,0.8,0.2,1.2,0.4
			c0.8,0.3,1.7,0.7,2.6,1.2c0.4,0.3,0.9,0.5,1.4,0.8s0.9,0.6,1.4,0.9c0.9,0.6,1.9,1.3,2.9,2.1c1,0.7,1.9,1.6,2.8,2.4
			c1,0.9,1.8,1.7,2.8,2.5c0.9,0.8,1.9,1.6,2.8,2.3c1,0.7,1.9,1.4,2.8,2c0.5,0.3,0.9,0.6,1.3,0.9s0.9,0.5,1.3,0.8
			c0.8,0.5,1.6,0.9,2.3,1.1c0.7,0.3,1.4,0.5,1.9,0.7c1.1,0.3,1.7,0.3,1.7,0.3v-0.2c0,0-0.1,0-0.4-0.1s-0.7-0.2-1.2-0.4
			c-0.5-0.2-1.1-0.5-1.8-0.8c-0.7-0.4-1.4-0.8-2.2-1.3c-0.4-0.2-0.8-0.5-1.2-0.8c-0.4-0.3-0.8-0.6-1.2-0.9c-0.9-0.6-1.7-1.4-2.6-2.1
			c-0.9-0.8-1.8-1.6-2.6-2.5c-0.9-0.8-1.8-1.8-2.6-2.6c-0.9-0.9-1.8-1.8-2.7-2.7c-0.9-0.9-1.9-1.6-2.9-2.4c-0.5-0.3-1-0.6-1.5-0.9
			s-1-0.5-1.5-0.8c-1-0.5-2-0.8-3-1s-1.9-0.3-2.7-0.4c-0.4,0-0.8,0-1.1,0c-0.4,0.1-0.7,0.1-0.9,0.2c-0.6,0.1-1,0.3-1.3,0.4
			s-0.4,0.2-0.4,0.2L317.5,492.6L317.5,492.6z"/>
		<path class="st1" d="M298.2,434.3c0,0,0.4,0.4,1.1,0.9s1.8,1.1,3.2,1.6c0.4,0.1,0.7,0.2,1.1,0.4c0.4,0.1,0.8,0.2,1.2,0.3
			c0.4,0.1,0.9,0.1,1.3,0.2c0.5,0,0.9,0,1.4,0s1-0.1,1.5-0.1c0.5-0.1,1-0.2,1.5-0.3c0.5-0.1,1-0.3,1.5-0.5s0.9-0.4,1.4-0.6
			c0.9-0.5,1.8-1.1,2.5-1.6s1.5-1.2,2.1-1.8c0.7-0.6,1.3-1.2,1.9-1.8c0.6-0.6,1.1-1.2,1.5-1.8c0.9-1.1,1.5-2.1,2-2.9
			c0.4-0.7,0.6-1.2,0.6-1.2l-0.3-0.1c0,0-0.2,0.4-0.8,1c-0.5,0.6-1.3,1.5-2.3,2.4c-0.5,0.5-1.1,1-1.7,1.5s-1.3,1-2,1.5
			s-1.4,0.9-2.2,1.4c-0.8,0.5-1.5,0.9-2.3,1.2c-0.4,0.1-0.8,0.3-1.2,0.4c-0.4,0.1-0.8,0.2-1.2,0.2c-0.4,0-0.8,0.1-1.2,0.1
			c-0.4,0-0.8,0-1.2,0c-0.4,0-0.8,0-1.2,0c-0.4,0-0.8,0-1.1,0c-0.8,0-1.5-0.1-2.1-0.1c-0.7-0.1-1.3-0.1-1.9-0.2s-1.1-0.1-1.5-0.1
			c-0.8-0.1-1.3-0.1-1.3-0.1L298.2,434.3L298.2,434.3z"/>
		<path class="st2" d="M294.2,429.3c0,0,3.6,3.8,1.7,13.1s5.8,15,5.8,15"/>
		<path class="st2" d="M304.5,436c0,0,4.2,0,6.6-9.8s10-13.5,10-13.5"/>
		<path class="st2" d="M298.6,418.7c0,0,7.7-6,12.5-6"/>
		<line class="st2" x1="294.1" y1="422.5" x2="301.5" y2="422.5"/>
		<path class="st1" d="M305.7,500.1c0,0,0.2,0,0.6,0s1,0.1,1.6,0.4c0.3,0.1,0.6,0.3,0.9,0.5c0.1,0.1,0.3,0.2,0.5,0.3
			c0.1,0.1,0.3,0.3,0.4,0.4s0.3,0.3,0.4,0.5s0.2,0.4,0.4,0.5c0.2,0.4,0.4,0.8,0.5,1.2c0.1,0.4,0.3,0.9,0.4,1.4s0.2,0.9,0.3,1.3
			c0.2,0.9,0.3,1.7,0.4,2.4c0.1,0.7,0.1,1.3,0.1,1.7s-0.1,0.6-0.1,0.6h0.1c0,0,0.1-0.2,0.2-0.7c0.1-0.4,0.1-1,0.1-1.8
			c0-0.7-0.1-1.6-0.2-2.5c0-0.5-0.1-0.9-0.2-1.4s-0.1-0.9-0.3-1.4c-0.1-0.5-0.3-1-0.5-1.4c-0.1-0.2-0.2-0.5-0.4-0.7
			c-0.1-0.2-0.3-0.4-0.5-0.6c-0.4-0.4-0.7-0.7-1.1-0.9c-0.4-0.2-0.8-0.3-1.2-0.4c-0.4-0.1-0.7-0.1-1,0c-0.3,0-0.6,0.1-0.8,0.1
			C305.9,499.9,305.7,500,305.7,500.1L305.7,500.1L305.7,500.1z"/>
		<line class="st2" x1="306.3" y1="499" x2="311.8" y2="496.5"/>
		<line class="st2" x1="311.6" y1="499.7" x2="317.4" y2="500"/>
		<path class="st1" d="M283.1,425.2c0,0,0.1,0,0.4,0c0.2,0,0.6,0,1-0.1c0.2,0,0.4-0.1,0.7-0.2c0.2-0.1,0.5-0.2,0.8-0.3
			c0.5-0.2,1.2-0.6,1.8-1.1c0.6-0.5,1.2-1.2,1.6-2c0.2-0.4,0.5-0.8,0.6-1.3s0.3-0.9,0.3-1.4c0.1-1,0.1-1.9-0.1-2.9
			c-0.1-0.5-0.2-0.9-0.3-1.4c-0.1-0.5-0.3-0.9-0.4-1.4c-0.2-0.9-0.6-1.7-0.9-2.6c-0.3-0.8-0.6-1.6-0.9-2.4c-0.6-1.6-1.3-3-1.9-4.2
			s-1.2-2.2-1.7-2.8c-0.5-0.6-0.8-0.9-0.9-1l-0.2,0.2c0,0,0.3,0.3,0.6,1c0.3,0.7,0.8,1.7,1.2,2.9c0.2,0.6,0.4,1.3,0.6,2
			s0.4,1.5,0.6,2.3s0.4,1.6,0.6,2.5s0.4,1.7,0.5,2.5c0.2,0.8,0.2,1.6,0.2,2.4s-0.1,1.5-0.2,2.2s-0.2,1.3-0.4,1.9
			c-0.2,0.6-0.5,1.1-0.7,1.6c-0.1,0.2-0.3,0.5-0.5,0.7s-0.3,0.4-0.5,0.6c-0.3,0.4-0.7,0.7-1,0.9c-0.6,0.5-1,0.8-1,0.8L283.1,425.2
			L283.1,425.2z"/>
		<line class="st2" x1="288.1" y1="412.7" x2="291.4" y2="409"/>
		<line class="st2" x1="288.7" y1="418.7" x2="279.7" y2="413.5"/>
		<line class="st2" x1="275.9" y1="461.9" x2="268.6" y2="461.9"/>
		<line class="st2" x1="273.9" y1="466.6" x2="276.4" y2="477"/>
		<line class="st2" x1="262.4" y1="428.5" x2="259.3" y2="436"/>
		<line class="st2" x1="275.1" y1="471.8" x2="272.2" y2="479.4"/>
		<path class="st1" d="M285.4,477c0,0-0.8,3.2-0.9,8c0,0.6,0,1.2,0,1.9c0,0.7,0.1,1.3,0.1,2c0.1,1.4,0.2,2.9,0.5,4.4
			s0.7,3.1,1.4,4.6l0.5,1.2c0.2,0.4,0.4,0.8,0.6,1.1c0.2,0.4,0.4,0.8,0.7,1.1c0.3,0.4,0.5,0.7,0.8,1.1c1,1.2,2.4,2.4,3.6,3.4
			c1.3,1,2.6,1.9,3.9,2.7c1.3,0.8,2.5,1.5,3.8,2.2s2.4,1.2,3.5,1.8c4.3,2.1,7.3,3.2,7.3,3.2l0.1-0.3c0,0-2.8-1.5-6.9-3.9
			c-1-0.6-2.1-1.3-3.2-2c-1.1-0.8-2.3-1.5-3.5-2.4s-2.4-1.8-3.5-2.8c-0.6-0.5-1.1-1-1.6-1.6c-0.5-0.5-1-1.1-1.5-1.8
			c-0.1-0.2-0.3-0.6-0.5-0.9s-0.3-0.6-0.5-1c-0.1-0.3-0.3-0.7-0.4-1l-0.3-1.1c-0.4-1.4-0.7-2.9-0.9-4.3c-0.1-0.7-0.2-1.4-0.4-2.1
			c-0.1-0.7-0.2-1.4-0.3-2c-0.2-1.3-0.4-2.6-0.6-3.8c-0.3-2.4-0.6-4.3-0.8-5.7c-0.2-1.4-0.4-2.2-0.4-2.2L285.4,477L285.4,477z"/>
		<line class="st2" x1="285.6" y1="504.9" x2="291.4" y2="512.3"/>
		<line class="st2" x1="288.1" y1="497.9" x2="295.4" y2="500"/>
		<path class="st2" d="M291.4,503.6c0,0,4.4,4.8,3.5,12.1c-0.9,7.3-2.3,11-2.3,11"/>
		<line class="st2" x1="295" y1="512.3" x2="301.5" y2="525"/>
		<line class="st2" x1="298.3" y1="508.8" x2="301.8" y2="515.7"/>
		<line class="st2" x1="295" y1="506.5" x2="305.7" y2="506.5"/>
		<line class="st2" x1="332.4" y1="497.9" x2="342.1" y2="497.9"/>
		<path class="st2" d="M305.7,446.4c0,0,5.4,0.2,10.1-3.1c4.7-3.3,5.3-3.6,5.3-3.6"/>
		<line class="st2" x1="311.6" y1="424.4" x2="321.1" y2="418.7"/>
		<line class="st2" x1="313.4" y1="444.7" x2="323.7" y2="444.7"/>
		<path class="st2" d="M317.4,451.1c0,0,10.3-2.8,12.3-6.4s5.3-12.1,5.3-12.1"/>
		<line class="st2" x1="329.7" y1="444.7" x2="340.1" y2="444.7"/>
		<line class="st2" x1="295.9" y1="448.1" x2="301.5" y2="451.1"/>
		<line class="st2" x1="297.4" y1="452" x2="295.4" y2="457.4"/>
		<path class="st2" d="M311.6,449.7c0,0,12,4,14.4,7.6c2.4,3.7,6.4,10,6.4,10"/>
		<line class="st2" x1="326" y1="457.4" x2="337.2" y2="459.8"/>
		<line class="st2" x1="303.7" y1="463" x2="307.1" y2="454.7"/>
		<line class="st2" x1="305.7" y1="458.3" x2="312.1" y2="455.2"/>
		<path class="st1" d="M305.8,461.9c0,0,0.2,0,0.5,0c0.3,0.1,0.7,0.2,1.1,0.4c0.2,0.1,0.4,0.2,0.7,0.4c0.2,0.1,0.5,0.3,0.8,0.5
			c0.3,0.1,0.6,0.3,0.9,0.5s0.6,0.3,0.9,0.6c0.3,0.2,0.6,0.4,1,0.6s0.7,0.4,1.1,0.5c0.7,0.3,1.4,0.5,2.1,0.5s1.1-0.1,1.5-0.4
			c0.3-0.2,0.4-0.4,0.4-0.4l-0.1-0.1c0,0-0.1,0.1-0.4,0.2s-0.7,0.1-1.2,0s-1-0.4-1.6-0.8c-0.3-0.2-0.5-0.4-0.8-0.6
			c-0.2-0.2-0.5-0.5-0.8-0.8c-0.2-0.2-0.5-0.6-0.8-0.8c-0.3-0.3-0.6-0.5-0.9-0.8c-0.3-0.2-0.7-0.4-1.1-0.5s-0.7-0.2-1.1-0.2
			s-0.7,0-1,0.1s-0.5,0.2-0.7,0.3c-0.2,0.1-0.3,0.3-0.3,0.4c-0.1,0.1-0.1,0.1-0.1,0.1L305.8,461.9L305.8,461.9z"/>
		<line class="st2" x1="312.1" y1="464.2" x2="315.7" y2="462.5"/>
		<path class="st1" d="M303.6,468.8c0,0-0.1,0.2,0,0.4c0.2,0.2,0.5,0.3,0.8,0.4c0.6,0.2,1.5,0.2,2.5,0c1-0.1,2-0.4,3.1-0.9l0.2-0.1
			h0.1l0.2-0.1c0.1-0.1,0.2-0.1,0.4-0.2l0.4-0.2l0.4-0.4c0.3-0.2,0.6-0.5,0.8-0.7l0.7-0.8c0.4-0.5,0.8-1.1,1.1-1.6
			c0.4-0.5,0.6-1.1,0.8-1.7c0.5-1.1,0.7-2.2,0.8-3.1c0.3-1.9,0.1-3.1,0.1-3.1h-0.3c0,0,0,0.3-0.2,0.8s-0.3,1.2-0.7,2
			c-0.1,0.4-0.4,0.8-0.6,1.3c-0.2,0.4-0.5,0.9-0.8,1.3c-0.1,0.2-0.3,0.4-0.5,0.6c-0.1,0.2-0.3,0.4-0.5,0.6c-0.3,0.4-0.7,0.8-1.1,1.1
			l-0.6,0.5c-0.2,0.1-0.4,0.2-0.6,0.3c-0.3,0.2-1.1,0.5-1.4,0.6c-1,0.5-1.9,1-2.6,1.5c-0.4,0.2-0.7,0.5-1,0.7s-0.5,0.4-0.7,0.5
			s-0.4,0.2-0.4,0.2c0,0.1-0.1,0.1-0.1,0L303.6,468.8L303.6,468.8z"/>
		<path class="st1" d="M311.1,467.4c0,0,1-0.4,2.3-1.1c0.6-0.3,1.4-0.8,2.1-1.2c0.4-0.2,0.7-0.5,1.1-0.8s0.8-0.5,1.2-0.8
			c0.8-0.5,1.7-1,2.5-1.4s1.6-0.9,2.2-1.2c1.3-0.7,2.2-1.2,2.2-1.2l-0.1-0.2c0,0-1,0.3-2.4,0.8c-0.7,0.2-1.5,0.5-2.4,0.8
			s-1.8,0.6-2.8,1.1c-0.9,0.4-1.9,0.8-2.7,1.3c-0.8,0.5-1.5,1.1-2,1.7s-0.9,1.1-1.1,1.5s-0.3,0.7-0.3,0.7L311.1,467.4L311.1,467.4z"
			/>
		<line class="st2" x1="318.6" y1="461.5" x2="320" y2="455.8"/>
		<line class="st2" x1="311" y1="466.6" x2="318.6" y2="466.4"/>
		<path class="st1" d="M295.8,464.9c0,0,0.4,1,1.1,2.4c0.4,0.7,0.7,1.4,1.2,2.2c0.2,0.4,0.5,0.8,0.7,1.2s0.5,0.8,0.7,1.3
			c0.2,0.4,0.4,0.9,0.5,1.4s0.2,0.9,0.3,1.4c0.1,1,0.2,1.9,0.3,2.6c0.2,1.5,0.3,2.6,0.3,2.6h0.2c0,0,0.1-1,0.2-2.6
			c0-0.8,0.1-1.7,0.2-2.6c0-0.5,0-1-0.1-1.6c0-0.5-0.2-1.1-0.3-1.6s-0.3-1-0.5-1.6c-0.2-0.5-0.4-1-0.6-1.4s-0.5-0.8-0.8-1.2
			c-0.3-0.4-0.6-0.7-0.9-1c-1.2-1.1-2.2-1.5-2.2-1.5L295.8,464.9L295.8,464.9z"/>
		<path class="st1" d="M306.4,469.3c0,0,0.3,0.2,0.9,0.5c0.5,0.3,1.3,0.8,2.2,1.3c0.9,0.5,1.9,1.1,3,1.8c0.5,0.3,1.1,0.6,1.6,1
			c0.3,0.2,0.5,0.4,0.8,0.6c0.2,0.2,0.5,0.4,0.7,0.6c0.5,0.5,0.9,1,1.3,1.5c0.4,0.6,0.8,1.1,1.2,1.6c0.8,1.1,1.5,2.1,2,3.1
			c0.5,0.9,0.9,1.8,1.2,2.3c0.3,0.6,0.4,0.9,0.4,0.9l0.3-0.1c0,0-0.2-1.5-0.9-3.6c-0.4-1.1-0.8-2.3-1.5-3.5c-0.3-0.6-0.6-1.3-1-1.9
			c-0.3-0.6-0.8-1.3-1.2-2l-0.8-0.9c-0.3-0.3-0.5-0.6-0.8-0.9c-0.6-0.6-1.2-1.1-1.8-1.5c-1.3-0.8-2.6-1.2-3.8-1.4
			c-0.6-0.1-1.1-0.1-1.6-0.1s-0.9,0-1.2,0c-0.7,0.1-1.1,0.2-1.1,0.2L306.4,469.3L306.4,469.3z"/>
		<path class="st1" d="M313.9,471.5c0,0,1.2,1.4,3.4,2.9c1.1,0.8,2.4,1.6,3.9,2.4c1.5,0.7,3.2,1.3,5.1,1.7c0.9,0.2,1.8,0.3,2.8,0.2
			c1-0.1,1.8-0.3,2.6-0.5c1.6-0.4,3.1-0.8,4.4-1.2c2.5-0.8,4.1-1.5,4.1-1.5l-0.1-0.2c0,0-1.7,0.5-4.2,1c-1.3,0.2-2.8,0.5-4.4,0.7
			c-0.8,0.1-1.7,0.2-2.4,0.2c-0.8,0-1.6-0.2-2.4-0.4c-1.6-0.5-3.1-1.2-4.6-1.9c-1.5-0.7-2.8-1.3-4-1.8s-2.2-1-2.9-1.3
			c-0.7-0.3-1.1-0.5-1.1-0.5L313.9,471.5L313.9,471.5z"/>
		<path class="st2" d="M312.6,471.8c0,0,0.1,3.8-1.5,6.7"/>
		<line class="st2" x1="316.5" y1="474.2" x2="315.7" y2="481.2"/>
		<path class="st2" d="M322,475.2c0,0,4.8,2.5,8.9-1.8"/>
		<path class="st2" d="M326,477.5c0,0,5.2,1.3,8.9,5.4c3.7,4.1,6.1,9.2,6.1,9.2"/>
		<path class="st2" d="M334.4,482.4c0,0,5.6,1.7,9.7,1.4s5.8-1.4,5.8-1.4"/>
		<line class="st2" x1="341" y1="483.8" x2="345.6" y2="479.9"/>
		<line class="st2" x1="332.4" y1="458.5" x2="341" y2="455.2"/>
		<line class="st2" x1="329.3" y1="462.5" x2="338" y2="466.5"/>
		<line class="st2" x1="329.3" y1="457.4" x2="332.9" y2="454.7"/>
		<line class="st2" x1="324.6" y1="493" x2="330.9" y2="491.6"/>
		<path class="st1" d="M312.6,490.6c0,0,0.3,0.2,0.9,0.4c0.6,0.2,1.4,0.4,2.4,0.5s2.1,0.2,3.4-0.1c1.2-0.2,2.5-0.5,3.8-1
			c0.6-0.3,1.3-0.6,1.8-1.1s0.9-1,1.2-1.5c0.8-1,1.4-1.9,2-2.7c1.1-1.6,1.8-2.7,1.8-2.7l-0.2-0.1c0,0-0.8,1-2.1,2.5
			c-0.6,0.7-1.4,1.6-2.2,2.4c-0.4,0.4-0.9,0.9-1.3,1.3c-0.4,0.3-1,0.5-1.5,0.6c-1.2,0.3-2.4,0.4-3.6,0.4c-0.6,0-1.2,0-1.7,0
			s-1,0.1-1.5,0.2c-1,0.1-1.8,0.3-2.3,0.5c-0.6,0.1-0.9,0.3-0.9,0.3L312.6,490.6L312.6,490.6z"/>
		<line class="st2" x1="327" y1="499" x2="321.7" y2="495.8"/>
		<path class="st1" d="M334.4,499.8c0,0,0.1,0.2,0.4,0.7c0.1,0.2,0.2,0.5,0.3,0.8s0.2,0.7,0.2,1.1c0.1,0.4,0.1,0.8,0.1,1.3
			s0,0.9,0,1.4s-0.1,1-0.1,1.5c-0.1,0.5-0.1,1.1-0.2,1.6c-0.8,4.3-2.2,8.6-2.2,8.6h0.1c0,0,1.8-4.1,2.9-8.5c0.1-0.5,0.3-1.1,0.4-1.6
			c0.1-0.6,0.2-1.1,0.2-1.6s0-1.1-0.1-1.6s-0.2-1-0.3-1.4c-0.3-0.8-0.7-1.5-1-1.9C334.7,499.8,334.5,499.7,334.4,499.8L334.4,499.8
			L334.4,499.8z"/>
		<line class="st2" x1="339.4" y1="504.4" x2="345.6" y2="505.8"/>
		<line class="st2" x1="335.7" y1="506.5" x2="338" y2="511.9"/>
		<line class="st2" x1="333.5" y1="499" x2="332.4" y2="502.5"/>
		<path class="st2" d="M324.6,488.8c0,0,5.6-2.1,8.9-0.5"/>
		<path class="st1" d="M298.4,496.6c0,0,0,0.2,0,0.7c0,0.2,0,0.5,0.1,0.8c0,0.3,0,0.6,0.1,1c0,0.7,0.1,1.6,0.1,2.5
			c0,0.5,0,0.9,0,1.4s-0.1,1-0.1,1.5c-0.2,2-0.6,3.9-0.8,5.4c-0.3,1.5-0.4,2.5-0.4,2.5h0.1c0,0,0.3-1,0.7-2.4
			c0.4-1.5,0.9-3.4,1.3-5.4c0.1-0.5,0.2-1,0.3-1.5c0.1-0.5,0.1-1,0.1-1.5c0-1-0.1-1.9-0.3-2.6c-0.2-0.7-0.4-1.4-0.6-1.8
			s-0.3-0.6-0.3-0.6L298.4,496.6L298.4,496.6z"/>
		<line class="st2" x1="298.6" y1="495.8" x2="303.7" y2="495.8"/>
		<path class="st1" d="M268.1,508.5c1.3,0.2,2.5,0.1,3.8-0.1c1.2-0.3,2.4-0.7,3.6-1.1c0.6-0.3,1.1-0.5,1.7-0.8l0.4-0.2h0.1l0.2-0.1
			l0.2-0.1c0.2-0.2,0.5-0.3,0.7-0.5c0.5-0.5,1.2-1.1,1.5-1.7c0.4-0.6,0.7-1.1,1-1.8c0.3-0.6,0.5-1.2,0.7-1.8
			c0.2-0.6,0.4-1.2,0.5-1.8c0.3-1.2,0.6-2.4,0.8-3.6s0.3-2.4,0.4-3.6s0.2-2.4,0.1-3.6v-1.4l-1,0.8c-2.1,1.7-4.3,3.4-6.4,5.1l0.2,0.2
			c2.4-1.4,4.7-2.8,7-4.2l-1.1-0.6c-0.3,2.3-0.7,4.6-1.2,6.9c-0.3,1.1-0.6,2.2-1,3.3c-0.2,0.5-0.4,1.1-0.7,1.5
			c-0.2,0.5-0.5,1-0.8,1.4c-0.1,0.2-0.3,0.5-0.4,0.7c-0.2,0.2-0.3,0.4-0.5,0.6c-0.1,0.2-0.3,0.4-0.5,0.5c-0.1,0.2-0.2,0.3-0.4,0.5
			c-0.2,0.2-0.5,0.4-0.7,0.6l-0.2,0.1l0,0l0,0l0,0c0.2-0.2,0.1,0,0.1-0.1l0,0l-0.1,0.1l-0.4,0.2c-0.5,0.3-1,0.6-1.4,1
			c-1,0.6-1.9,1.2-2.9,1.8c-1,0.6-2,1.1-3.1,1.6L268.1,508.5L268.1,508.5z"/>
		<line class="st2" x1="281.5" y1="497.9" x2="273.9" y2="500"/>
		<line class="st2" x1="285.4" y1="506.5" x2="282.3" y2="518"/>
	</g>
	<g id="blood_l">
		<path class="st0" d="M169.4,422c0,0-9.1,3.5-15.1,14.9c-6,11.3-5,35.1-5,35.1"/>
		<path class="st1" d="M175.5,419c0,0-0.9-0.5-2.3-1.3c-0.7-0.4-1.6-0.9-2.6-1.5c-1-0.5-2-1.2-3.1-2s-2.2-1.6-3.2-2.6
			c-1.1-1-1.9-2-2.7-3.2c-0.7-1.2-1.3-2.4-1.3-3.9v-0.6c0-0.1,0,0.1,0,0l0,0l0,0v0.1v-0.2v-0.4c0-0.5,0.1-0.9,0.1-1.3
			c0.1-0.8,0.3-1.7,0.5-2.6c0.9-3.5,2.2-7,3.6-10.2c1.4-3.2,2.9-6.2,4.2-8.7c2.7-5,4.7-8.2,4.7-8.2l-0.4-0.3c0,0-2.5,2.9-5.7,7.6
			c-1.6,2.4-3.5,5.1-5.3,8.3c-1.8,3.1-3.5,6.6-4.8,10.4c-0.3,1-0.6,1.9-0.8,2.9c-0.1,0.5-0.2,1.1-0.3,1.5l-0.1,0.4v0.2v0.1l0,0v0.1
			l-0.1,0.8c-0.2,2.2,0.3,4.6,1.3,6.6c1.1,1.9,2.6,3.4,4.1,4.5s3.1,1.8,4.5,2.4c1.4,0.5,2.8,0.9,4,1.1s2.2,0.4,3.1,0.4
			c1.7,0.1,2.7,0,2.7,0L175.5,419L175.5,419z"/>
		<path class="st1" d="M159.1,398.8c0,0,0-0.6-0.2-1.5c-0.1-0.5-0.3-1-0.5-1.7c-0.2-0.6-0.6-1.4-1.1-2.1s-1.2-1.5-2.2-2.2
			c-0.5-0.3-1.1-0.6-1.9-0.9c-0.7-0.2-1.6-0.2-2.4-0.1c-0.9,0.2-1.6,0.6-2.2,1c-0.3,0.2-0.6,0.5-0.8,0.8l-0.1,0.1h-0.1l0.1-0.1l0,0
			l0,0l-0.1,0.1c-0.1,0.1,0,0,0,0l0,0c-0.1,0.2-0.5,0.5-1.2,0.4c-0.7,0-1.6-0.3-2.4-0.6c-0.8-0.3-1.6-0.7-2.4-1.2
			c-1.6-0.9-3.1-1.8-4.3-2.7c-2.5-1.7-4-3-4-3l-0.4,0.3c0,0,0.3,0.4,0.8,1.1s1.3,1.7,2.4,2.9c1,1.2,2.3,2.5,3.8,3.8
			c0.8,0.6,1.6,1.3,2.5,1.9s2,1.1,3.3,1.5c0.6,0.2,1.4,0.3,2.2,0.2c0.8,0,1.7-0.3,2.4-0.7c0.1-0.1,0.2-0.1,0.3-0.2l0.3-0.2l0.1-0.1
			l0,0l0,0c-0.1,0.1,0.1-0.1,0.1-0.1l0,0h0.1c0.1-0.1,0.2-0.1,0.3-0.2c0.2-0.1,0.3-0.1,0.4-0.1c0.1,0,0.2,0,0.3,0s0.4,0,0.6,0.1
			c0.5,0.1,1.1,0.5,1.7,0.8c1.1,0.7,2.2,1.4,2.9,1.9c0.8,0.5,1.2,0.8,1.2,0.8L159.1,398.8L159.1,398.8z"/>
		<path class="st1" d="M163.8,413.5c-0.3-0.9-0.6-1.8-0.6-2.7c-0.1-0.5-0.1-0.9,0-1.4c0-0.2,0-0.5,0.1-0.7c0-0.2,0.1-0.5,0.1-0.7
			c0.1-0.2,0.1-0.4,0.2-0.6c0.1-0.2,0.2-0.4,0.3-0.6s0.2-0.4,0.4-0.5c0.1-0.2,0.3-0.3,0.5-0.4l1.1-0.8c0.4-0.3,0.8-0.6,1.1-1
			c1.4-1.4,2.5-2.9,3.6-4.5s2.1-3.2,3-4.9l-0.8,0.4c0.6,0.1,1.2,0.2,1.9,0.2c0.6,0,1.2,0,1.9,0c0.6-0.1,1.3-0.2,1.9-0.4
			c0.6-0.2,1.2-0.5,1.8-0.9c0.3-0.2,0.6-0.4,0.8-0.7c0.2-0.3,0.5-0.5,0.6-0.8c0.4-0.5,0.7-0.9,1-1.3c0.7-0.9,1.5-1.7,2.3-2.5
			l0.6-0.6l0.6-0.6c0.5-0.5,0.8-1,1.1-1.6c0.3-0.5,0.6-1.1,0.9-1.6c0.3-0.5,0.5-1.1,0.7-1.7c0.4-1.1,0.8-2.3,1-3.4
			c0.1-0.6,0.2-1.2,0.3-1.8s0.1-1.2,0.2-1.8h-0.2c-0.4,1.1-0.8,2.2-1.2,3.3c-0.2,0.5-0.4,1.1-0.7,1.6c-0.2,0.5-0.5,1-0.8,1.5
			c-0.5,1-1.1,2-1.7,2.9c-0.3,0.4-0.7,0.9-1,1.2l-0.3,0.2l-0.3,0.3l-0.7,0.6c-0.9,0.8-1.7,1.7-2.4,2.7c-0.4,0.5-0.8,1-1.1,1.5
			c-0.2,0.3-0.3,0.4-0.4,0.6c-0.1,0.2-0.3,0.3-0.5,0.5c-0.4,0.3-0.8,0.5-1.3,0.7s-1,0.3-1.5,0.4s-1.1,0.1-1.6,0.1s-1.1,0-1.6-0.1
			l-0.6-0.1l-0.2,0.5c-0.8,1.7-1.7,3.3-2.7,4.9c-0.5,0.8-1,1.6-1.5,2.4c-0.6,0.8-1.1,1.5-1.7,2.2c-0.3,0.4-0.6,0.6-0.9,1l-1.1,0.9
			c-0.2,0.1-0.4,0.4-0.5,0.5c-0.2,0.2-0.3,0.4-0.4,0.6c-0.1,0.2-0.2,0.5-0.3,0.7s-0.2,0.5-0.2,0.7c-0.1,0.2-0.1,0.5-0.1,0.7
			s0,0.5,0,0.7c0,0.5,0.1,1,0.1,1.5c0.2,1,0.4,1.9,0.8,2.8L163.8,413.5L163.8,413.5z"/>
		<path class="st1" d="M126.8,393.5c0.3-0.1,0.5-0.3,0.8-0.4s0.5-0.2,0.8-0.4c0.2-0.1,0.5-0.2,0.8-0.3c0.2-0.1,0.5-0.1,0.8-0.2
			c0.5-0.1,1-0.2,1.5-0.2s1,0,1.6,0c1.1,0,2.2,0,3.4,0.1c1.1,0.1,2.3,0.2,3.5,0.3h0.8l-0.1-0.8c-0.5-2.7-1-5.4-1.5-8H139
			c0.1,2.7,0.3,5.4,0.5,8.1l0.7-0.7c-1.1-0.2-2.2-0.4-3.4-0.6c-1.1-0.2-2.3-0.5-3.6-0.5c-0.6,0-1.3,0.1-1.9,0.2
			c-0.3,0.1-0.6,0.2-0.9,0.3c-0.3,0.1-0.6,0.3-0.9,0.4c-0.6,0.3-1.1,0.7-1.5,1.1c-0.2,0.2-0.4,0.5-0.6,0.7s-0.3,0.5-0.5,0.8
			L126.8,393.5L126.8,393.5z"/>
		<path class="st2" d="M168.8,401.1c1.1-9.3,1.3-10.8,2.8-15.5"/>
		<path class="st2" d="M166,404.4c0,0,0.1,2,4.2-0.4s8.2-3.8,8.2-3.8"/>
		<line class="st2" x1="172.2" y1="394.3" x2="172.2" y2="390.1"/>
		<line class="st2" x1="172.2" y1="392.2" x2="177.6" y2="388.7"/>
		<path class="st1" d="M160.3,384.1c0,0.3-0.1,0.6-0.1,0.8c0,0.3,0,0.6,0,0.9c0,0.6,0.1,1.2,0.3,1.7c0.2,0.6,0.4,1.1,0.7,1.7
			c0.1,0.3,0.3,0.5,0.5,0.8c0.1,0.1,0.2,0.2,0.3,0.4c0.1,0.1,0.2,0.2,0.4,0.4l0.3,0.3l0.5-0.1c0.8-0.2,1.5-0.4,2.2-0.7
			c0.7-0.3,1.4-0.6,2.1-0.9c0.7-0.3,1.3-0.7,2-1.1c0.6-0.4,1.2-0.9,1.8-1.3c0.6-0.5,1.2-1,1.7-1.5c0.6-0.5,1.1-1.1,1.5-1.6
			c0.5-0.6,0.9-1.2,1.3-1.8l1.2-1.8c0.4-0.6,0.8-1.1,1.3-1.6s0.9-1,1.4-1.5s1.1-1,1.6-1.4c0.6-0.5,1.1-0.9,1.7-1.4
			c2.3-1.8,4.7-3.3,7.3-4.6l-0.1-0.2c-2.7,1.1-5.3,2.5-7.7,4.1c-0.6,0.4-1.2,0.8-1.8,1.3s-1.2,0.9-1.7,1.4c-0.6,0.5-1.1,1-1.6,1.5
			s-1,1.1-1.5,1.7l-1.3,1.8c-0.4,0.6-0.9,1.1-1.3,1.6c-0.5,0.5-1,1-1.5,1.4c-0.5,0.5-1.1,0.9-1.6,1.3c-1.1,0.8-2.3,1.5-3.5,2.2
			c-0.6,0.3-1.2,0.7-1.9,1c-0.6,0.3-1.3,0.6-1.9,0.9l0.8,0.1c0,0-0.2-0.1-0.2-0.2c-0.1-0.1-0.2-0.2-0.3-0.2
			c-0.2-0.2-0.3-0.4-0.5-0.6c-0.3-0.4-0.6-0.8-0.8-1.3s-0.5-1-0.6-1.5c-0.2-0.5-0.3-1-0.4-1.6L160.3,384.1L160.3,384.1z"/>
		<path class="st2" d="M142.2,395.2c1.4,8.1,0,15.8,0,15.8"/>
		<path class="st2" d="M152.5,393.4c0,0-1.6,0.5-1.6,6.8"/>
		<path class="st1" d="M155.1,392.2c0,0,0.1-0.4,0.2-1.1s0.1-1.8-0.2-3c-0.2-1.2-0.7-2.6-1.7-3.9c-0.5-0.6-1.1-1.2-1.8-1.8
			c-0.3-0.3-0.7-0.5-1.1-0.8c-0.2-0.1-0.4-0.2-0.6-0.3l-0.2-0.1l0,0c0,0-0.1,0,0.1,0l0,0l0,0h-0.1l-0.3-0.1
			c-0.1-0.1-0.3-0.2-0.4-0.4c-0.1-0.2-0.2-0.4-0.3-0.7c-0.1-0.6-0.1-1.3-0.1-1.9c0.2-1.3,0.5-2.6,0.9-3.7c0.8-2.1,1.5-3.5,1.5-3.5
			l-0.3-0.2c0,0-0.2,0.3-0.6,0.9c-0.4,0.6-0.9,1.4-1.5,2.4s-1.2,2.3-1.6,3.8c-0.2,0.8-0.3,1.6-0.3,2.5s0.5,2,1.5,2.7l0.5,0.3
			c0.1,0.1,0.2,0.2,0.4,0.3c0.2,0.2,0.5,0.4,0.7,0.6c0.4,0.5,0.7,1,1,1.6c0.6,1.1,1.2,2.2,1.8,3.1c0.6,1,1.1,1.8,1.5,2.3
			c0.4,0.6,0.7,0.9,0.7,0.9L155.1,392.2L155.1,392.2z"/>
		<path class="st1" d="M151.1,396.8c0,0,0.2,0.5,0.5,1.1c0.1,0.3,0.3,0.7,0.5,1.1s0.4,0.8,0.6,1.2c0.2,0.4,0.3,0.9,0.4,1.3
			c0.1,0.2,0.1,0.4,0.1,0.6s0,0.4,0,0.6c0,0.4,0,0.7,0,0.9c0,0.2,0,0.3,0,0.3h0.1c0,0,0-0.1,0.1-0.3c0.1-0.2,0.2-0.5,0.2-0.9
			c0-0.2,0.1-0.4,0.1-0.6s0.1-0.5,0-0.7c0-0.5-0.1-1-0.2-1.5c0-0.3-0.1-0.5-0.2-0.8c-0.1-0.2-0.2-0.5-0.3-0.7
			c-0.2-0.4-0.5-0.8-0.8-1.1C151.7,396.9,151.2,396.7,151.1,396.8L151.1,396.8L151.1,396.8z"/>
		<path class="st1" d="M142.7,405.7c0,0-0.5,0.2-1.2,0.7c-0.3,0.3-0.6,0.6-0.9,1c-0.3,0.4-0.5,0.9-0.8,1.4c-0.5,0.9-0.9,1.9-1.1,2.7
			c-0.1,0.4-0.2,0.7-0.2,0.9c-0.1,0.2-0.1,0.4-0.1,0.4h0.1c0,0,0.1-0.1,0.1-0.3s0.2-0.5,0.4-0.9c0.4-0.7,0.9-1.6,1.5-2.4
			c0.3-0.4,0.6-0.8,0.9-1.2c0.3-0.4,0.5-0.8,0.7-1.1C142.5,406.2,142.7,405.7,142.7,405.7L142.7,405.7L142.7,405.7z"/>
		<path class="st1" d="M161,431.6c0,0-0.9-0.9-2.7-1.9c-0.9-0.5-2.1-1.1-3.5-1.5c-0.7-0.2-1.5-0.4-2.4-0.6s-1.8-0.2-2.8-0.2
			s-2.1,0.1-3.2,0.5c-1.1,0.4-1.8,0.6-2.9,1.1c-2.1,0.9-4.1,2.5-5.6,4.3s-2.8,3.8-3.9,5.9c-1.1,2.1-2.1,4.2-3,6.3l-0.3,0.8
			c-0.1,0.3-0.2,0.5-0.3,0.7c-0.2,0.4-0.5,0.9-0.8,1.3c-0.6,0.8-1.2,1.6-2,2.2c-1.5,1.3-3.4,2.3-5.3,2.9c-1.9,0.7-3.9,1-5.8,1.3
			s-3.7,0.3-5.4,0.3c-3.4,0-6.2-0.4-8.2-0.7c-2-0.3-3.1-0.5-3.1-0.5l-0.1,0.5c0,0,1.1,0.4,3.1,0.8c2,0.5,4.8,1,8.2,1.4
			c1.7,0.1,3.6,0.2,5.6,0.2c2-0.1,4.2-0.3,6.3-0.9c2.2-0.6,4.4-1.5,6.4-3c1-0.8,1.9-1.6,2.7-2.6c0.4-0.5,0.8-1,1.1-1.6
			c0.2-0.3,0.3-0.5,0.4-0.8l0.4-0.8c1-2,2.1-3.9,3.3-5.7c1.2-1.8,2.5-3.4,3.9-4.7c0.4-0.3,0.7-0.6,1.1-0.9c0.4-0.2,0.7-0.5,1.1-0.7
			c0.7-0.5,1.4-0.8,2.2-1.1c0.4-0.2,0.8-0.3,1.3-0.5c0.4-0.2,0.9-0.4,1.2-0.5c0.6-0.3,1.3-0.5,2-0.6s1.4-0.2,2.1-0.3
			c0.7-0.1,1.4-0.1,2-0.1c1.3,0,2.5,0,3.5,0.1c2,0.1,3.2,0.2,3.2,0.2L161,431.6L161,431.6z"/>
		<path class="st1" d="M166.6,426.3c0,0,0,0.4,0,1s0.1,1.5,0.2,2.6c0,0.5,0.1,1.1,0.2,1.7c0.1,0.6,0.2,1.2,0.3,1.8
			c0.2,0.6,0.3,1.2,0.5,1.9s0.3,1.3,0.5,2c0.1,0.7,0.2,1.3,0.3,2c0,0.7,0.2,1.3,0.2,2c0,0.6,0.1,1.3,0,1.9c0,0.6,0,1.1-0.1,1.7
			c-0.1,0.5-0.1,1-0.2,1.4c-0.1,0.4-0.2,0.8-0.2,1.1c-0.1,0.6-0.2,0.9-0.2,0.9l0.3,0.1c0,0,0.2-0.3,0.4-0.9c0.1-0.3,0.3-0.6,0.5-1
			c0.1-0.4,0.3-0.9,0.5-1.4s0.3-1.1,0.4-1.7c0.2-0.6,0.2-1.3,0.3-2s0.1-1.4,0.2-2.1c0-0.7,0-1.5,0-2.2c-0.1-1.5-0.1-2.9-0.4-4.3
			c-0.3-1.3-0.8-2.5-1.3-3.5s-1-1.7-1.5-2.2c-0.4-0.5-0.7-0.8-0.7-0.8H166.6L166.6,426.3z"/>
		<path class="st2" d="M161.9,410c0,0-3,3.5-7.1,2.6s-6.7-2.6-6.7-2.6"/>
		<line class="st2" x1="182.2" y1="390.1" x2="182.2" y2="381.5"/>
		<line class="st2" x1="178.4" y1="394.3" x2="185.4" y2="395.6"/>
		<path class="st1" d="M147.9,454c0,0-0.4,0.7-1.1,1.9c-0.2,0.3-0.4,0.6-0.6,1c-0.2,0.4-0.4,0.7-0.7,1.1c-0.5,0.8-1.1,1.7-1.8,2.6
			s-1.4,1.9-2.2,2.8s-1.7,1.9-2.7,2.8c-0.5,0.5-1,0.9-1.5,1.4c-0.6,0.4-1.1,0.9-1.6,1.4c-0.6,0.4-1.2,0.8-1.8,1.2
			c-0.6,0.4-1.3,0.6-2,1c-0.3,0.2-0.7,0.3-1,0.4l-1.1,0.4l-0.5,0.2l-0.3,0.1h-0.1h-0.1l0,0l0,0c0.1,0,0,0,0,0l-1.2,0.3
			c-1.6,0.4-3,0.6-4.4,0.9c-0.7,0.1-1.4,0.1-2.1,0.2c-0.7,0-1.4,0-2,0c-0.7,0-1.3-0.1-1.9-0.1c-0.6-0.1-1.2-0.2-1.8-0.3
			c-1.1-0.3-2.1-0.6-2.9-1.1c-0.8-0.4-1.5-0.9-2-1.3s-0.9-0.8-1.1-1.1c-0.2-0.3-0.3-0.4-0.3-0.4l-0.4,0.2c0,0,0.1,0.2,0.3,0.6
			c0.2,0.4,0.5,0.8,1,1.4c0.5,0.5,1.1,1.2,2,1.8c0.8,0.6,1.9,1.2,3.1,1.7c0.6,0.3,1.2,0.4,1.9,0.6c0.7,0.2,1.4,0.3,2.1,0.5
			c0.7,0.1,1.5,0.2,2.2,0.3c0.8,0,1.5,0.1,2.3,0.1c1.6,0,3.3-0.1,4.8-0.3l1.2-0.1l1.3-0.3l1.3-0.3c0.4-0.1,0.9-0.2,1.2-0.4
			c0.8-0.3,1.6-0.6,2.5-0.9c0.8-0.4,1.6-0.7,2.4-1.1c0.8-0.4,1.5-0.9,2.2-1.4s1.3-1.1,2-1.6c1.2-1.2,2.2-2.4,3-3.7
			c0.8-1.3,1.4-2.6,1.9-3.8c0.3-0.6,0.4-1.2,0.6-1.8s0.3-1.1,0.4-1.6c0.2-1,0.3-1.9,0.3-2.7c0-0.8,0-1.3,0-1.7
			c0-0.4-0.1-0.6-0.1-0.6L147.9,454L147.9,454z"/>
		<path class="st1" d="M144.3,471.8c0,0,0,0.1,0.1,0.4s0.2,0.9,0.2,1.6c0.1,0.7,0.1,1.6,0,2.7c-0.1,1-0.2,2.2-0.6,3.5
			c-0.3,1.3-0.9,2.5-1.6,3.9c-0.8,1.3-1.7,2.7-2.9,3.9c-0.3,0.3-0.6,0.6-0.9,0.9c-0.3,0.3-0.7,0.6-1,0.9l-0.5,0.4l-0.1,0.1l-0.1,0.1
			l0,0l0,0c-0.1,0.1,0.1,0,0.1,0l-0.3,0.2c-0.4,0.3-0.9,0.6-1.2,0.8l-0.5,0.3l-0.6,0.3c-0.4,0.2-0.8,0.4-1.2,0.5
			c-0.9,0.3-1.8,0.6-2.7,0.8c-1.9,0.4-3.9,0.7-6,0.9c-2.1,0.2-4.3,0.5-6.4,1.3c-2.1,0.7-4,2.2-5.2,3.8c-1.2,1.6-1.9,3.4-2.4,4.9
			c-0.9,3.2-1.2,5.9-1.4,7.7c-0.1,0.9-0.1,1.7-0.2,2.2c0,0.5-0.1,0.8-0.1,0.8s0.1-0.3,0.2-0.8s0.2-1.2,0.5-2.1
			c0.4-1.8,1.1-4.4,2.4-7.2c0.7-1.4,1.5-2.8,2.7-4s2.6-2,4.3-2.3c1.7-0.4,3.6-0.3,5.7-0.2c2.1,0.1,4.3,0.2,6.6,0
			c1.2-0.1,2.3-0.3,3.5-0.5c0.6-0.1,1.2-0.3,1.8-0.5l0.9-0.3l0.9-0.4c0.7-0.3,1.1-0.5,1.5-0.7l0.4-0.2l0.5-0.3l0.7-0.5
			c0.5-0.3,1-0.6,1.5-0.9s0.9-0.7,1.4-1c1.8-1.4,3.4-3,4.7-4.7s2.4-3.5,3.1-5.3c0.8-1.7,1.3-3.4,1.6-4.9s0.5-2.9,0.6-4
			s0.1-2,0.1-2.7c0-0.3-0.1-0.7-0.1-0.9c0-0.1,0-0.2,0-0.2L144.3,471.8L144.3,471.8z"/>
		<path class="st2" d="M146.6,480c0,0-1.2-4.2-6.3-4c-5.2,0.2-11.1,2.8-11.1,2.8"/>
		<path class="st1" d="M150.4,480c0,0-0.1,0.7-0.3,2c-0.1,0.6-0.2,1.4-0.2,2.3c-0.1,0.9-0.1,1.9-0.2,2.9c0,1.1-0.1,2.2,0,3.4
			c0,1.2,0.1,2.5,0.2,3.8c0.1,0.7,0.1,1.3,0.1,2c0.1,0.6,0,1.4,0,2c0,0.7-0.1,1.4-0.1,2c-0.1,0.7-0.1,1.4-0.2,2.1
			c-0.3,2.8-0.7,5.6-1.2,8.2c-0.4,2.6-0.9,5.1-1.3,7.2c-0.9,4.2-1.5,7-1.5,7l0.3,0.1c0,0,0.9-2.7,2.1-6.8c0.6-2.1,1.3-4.5,1.9-7.1
			c0.6-2.6,1.3-5.4,1.7-8.3c0.1-0.7,0.2-1.4,0.3-2.1s0.2-1.5,0.2-2.2c0.1-0.7,0.1-1.4,0.1-2.1s0.1-1.4,0.1-2
			c0.1-1.4,0.1-2.6,0.1-3.9c-0.1-1.2-0.2-2.4-0.4-3.5s-0.3-2-0.5-2.9s-0.4-1.6-0.6-2.2C150.6,480.7,150.3,480,150.4,480L150.4,480
			L150.4,480z"/>
		<path class="st1" d="M153.4,459.9c0,0,0.1,0.4,0.2,0.9c0.2,0.6,0.5,1.4,0.9,2.3s0.9,1.9,1.6,2.9c0.7,1,1.6,1.9,2.3,3
			c0.7,1,1.4,2.1,2,3.1c0.3,0.5,0.6,1,0.9,1.5c0.2,0.5,0.5,1,0.7,1.4s0.4,0.8,0.5,1.2c0.2,0.4,0.2,0.7,0.4,1
			c0.2,0.5,0.3,0.8,0.3,0.8h0.3c0,0,0-0.3-0.1-0.9c0-0.3,0-0.6-0.1-1s-0.1-0.9-0.2-1.3c-0.1-0.5-0.3-1-0.4-1.6
			c-0.2-0.5-0.4-1.1-0.6-1.7c-0.2-0.6-0.4-1.2-0.7-1.8s-0.5-1.2-0.8-1.8c-0.6-1.2-1.1-2.5-1.7-3.5c-0.7-1-1.5-1.9-2.2-2.6
			c-0.8-0.7-1.4-1.2-2-1.5c-0.5-0.3-0.9-0.5-0.9-0.5L153.4,459.9L153.4,459.9z"/>
		<path class="st1" d="M140.6,490.3c0,0-1,2-2.4,4.9c-0.7,1.4-1.6,3.1-2.7,4.6c-0.5,0.8-1.1,1.5-1.8,2.1c-0.3,0.3-0.6,0.5-1,0.7
			c0,0-0.1,0.1-0.1,0l-0.2,0.1l-0.4,0.2c-0.3,0.1-0.4,0.2-0.6,0.3c-0.8,0.3-1.6,0.4-2.6,0.2c-1-0.2-2.3-0.5-3.5-0.3
			s-2.2,0.7-3.1,1.2c-0.8,0.5-1.6,1-2.3,1.5c-1.4,1-2.4,1.9-3.1,2.5c-0.3,0.4-0.6,0.6-0.8,0.8c-0.2,0.2-0.2,0.3-0.2,0.3l0.2,0.2
			c0,0,0.1-0.1,0.3-0.3s0.5-0.4,0.9-0.7c0.8-0.5,1.9-1.2,3.4-2c0.7-0.4,1.5-0.7,2.4-1.1c0.8-0.3,1.7-0.6,2.5-0.6s1.6,0.2,2.8,0.6
			c0.6,0.2,1.2,0.3,1.9,0.4c0.7,0,1.3,0,2-0.1c0.3-0.1,0.7-0.1,0.9-0.2l0.4-0.1l0.2-0.1c0.2-0.1,0.2-0.1,0.3-0.1
			c0.7-0.3,1.2-0.7,1.7-1.1c1-0.8,1.7-1.8,2.3-2.8s1-1.9,1.3-2.9c0.3-0.9,0.6-1.8,0.8-2.6c0.8-3.3,0.7-5.6,0.7-5.6H140.6
			L140.6,490.3z"/>
		<path class="st2" d="M137.8,491c0,0,0.9-2.2-2.9-4c-3.9-1.8-9.5-1-9.5-1"/>
		<line class="st2" x1="133" y1="486.3" x2="129.1" y2="481.7"/>
		<line class="st2" x1="138.9" y1="476" x2="136.2" y2="480"/>
		<path class="st2" d="M129.9,495.7c0,0-2.9-5.6-7.7-7.3"/>
		<line class="st2" x1="126.3" y1="491" x2="119.1" y2="490.3"/>
		<path class="st1" d="M137.9,468.7c0,0-1.3-0.5-3.2-1c-0.9-0.3-2-0.6-3.2-1c-0.6-0.2-1.2-0.3-1.7-0.5c-0.6-0.2-1.1-0.5-1.7-0.8
			l-0.9-0.5c-0.3-0.1-0.7-0.3-1-0.4c-0.7-0.2-1.3-0.4-2-0.5c-1.3-0.2-2.5-0.2-3.5-0.2c-2.1,0.1-3.4,0.4-3.4,0.4v0.2
			c0,0,1.3-0.1,3.3,0.1c1,0.1,2.1,0.3,3.3,0.6c0.6,0.2,1.2,0.4,1.7,0.6c0.3,0.1,0.5,0.3,0.8,0.4l0.8,0.6c0.6,0.4,1.2,0.8,1.8,1.1
			c0.6,0.3,1.2,0.6,1.9,0.8s1.2,0.3,1.8,0.4s1.1,0.1,1.7,0.1c2.1,0.1,3.4-0.3,3.4-0.3L137.9,468.7L137.9,468.7z"/>
		<path class="st1" d="M146.7,430.4c0,0-1.6-1.2-4-2.9c-1.2-0.9-2.5-1.9-3.8-3.1c-0.7-0.6-1.4-1.2-2.1-1.8c-0.4-0.3-0.6-0.7-1-1
			c-0.3-0.3-0.6-0.7-0.9-1.1c-0.3-0.4-0.5-0.8-0.7-1.2c-0.2-0.4-0.4-0.8-0.6-1.3c-0.4-0.9-0.7-1.7-1-2.6s-0.5-1.7-0.7-2.5
			s-0.4-1.6-0.5-2.3c-0.5-2.9-0.4-4.9-0.4-4.9h-0.2c0,0-0.3,2-0.1,5c0.1,0.8,0.1,1.5,0.2,2.4c0.1,0.9,0.3,1.8,0.5,2.7
			c0.2,0.9,0.5,1.9,0.8,2.8s0.7,1.9,1.3,2.8c0.3,0.5,0.5,0.9,0.9,1.3c0.3,0.4,0.6,0.8,0.9,1.2c0.6,0.8,1.4,1.5,2.1,2.1
			s1.5,1.2,2.2,1.6c0.7,0.5,1.4,0.9,2.1,1.2c2.7,1.4,4.7,1.7,4.7,1.7L146.7,430.4L146.7,430.4z"/>
		<g>
			<line class="st2" x1="138.9" y1="425.7" x2="139.9" y2="417.3"/>
			<path class="st1" d="M138.9,425.8c0,0,0.3-0.5,0.5-1.3c0.1-0.4,0.2-0.8,0.3-1.3s0-1,0.1-1.6c0.1-2.1,0.1-4.2,0.1-4.2h-0.1
				c0,0-0.5,2.1-0.9,4.1c-0.1,0.5-0.2,1-0.3,1.5s-0.1,1,0,1.4C138.6,425.2,138.8,425.8,138.9,425.8L138.9,425.8L138.9,425.8z"/>
		</g>
		<path class="st1" d="M131.8,413.6c0,0,0-0.2,0-0.5c0-0.1,0-0.3,0-0.5s0.1-0.4,0.1-0.7c0.1-0.5,0.3-1,0.6-1.5
			c0.1-0.3,0.3-0.5,0.5-0.8s0.4-0.5,0.7-0.7c1.1-0.9,2.3-1.7,3.2-2.2c0.9-0.6,1.6-0.9,1.6-0.9v-0.1c0,0-0.7,0.2-1.7,0.6
			s-2.3,1.1-3.5,1.9c-0.3,0.2-0.6,0.4-0.9,0.7s-0.5,0.6-0.7,0.9c-0.4,0.7-0.5,1.4-0.5,2s0.2,1.1,0.4,1.4
			C131.5,413.5,131.7,413.6,131.8,413.6L131.8,413.6L131.8,413.6z"/>
		<path class="st1" d="M164.3,387c0,0,0-1.3-0.2-3.2c0-0.5-0.1-1-0.2-1.5c-0.1-0.5-0.1-1.1-0.2-1.6c-0.1-0.6-0.2-1.1-0.4-1.7
			c-0.1-0.6-0.2-1.2-0.3-1.8c-0.1-0.6-0.1-1.2-0.1-1.8c0-0.6,0-1.2,0-1.8c0.1-0.6,0.1-1.1,0.1-1.6c0.1-0.5,0.1-1,0.2-1.5
			c0.1-0.5,0.2-0.9,0.3-1.2c0.1-0.4,0.3-0.7,0.3-0.9c0.2-0.5,0.3-0.8,0.3-0.8l-0.2-0.1c0,0-0.2,0.3-0.5,0.7
			c-0.1,0.2-0.4,0.5-0.5,0.9c-0.2,0.4-0.3,0.8-0.5,1.2c-0.2,0.5-0.3,1-0.5,1.5s-0.2,1.1-0.4,1.7c-0.1,0.6-0.1,1.2-0.2,1.9
			c0,0.6-0.1,1.3-0.1,1.9c0,1.3,0,2.6,0.2,3.8c0.2,1.2,0.6,2.3,0.9,3.2c0.7,1.8,1.6,2.9,1.6,2.9L164.3,387L164.3,387z"/>
		<path class="st2" d="M187.8,383.2c0,0-5.3-9.2-2.4-13.2s0.8-10.8,0.8-10.8"/>
		<path class="st2" d="M186.8,366c0,0,5.8-2.3,6.4-4"/>
		<line class="st2" x1="185.4" y1="370" x2="183.7" y2="365"/>
		<line class="st2" x1="162.8" y1="378.2" x2="166.7" y2="373.8"/>
		<line class="st2" x1="161.9" y1="374.5" x2="158.9" y2="370"/>
		<line class="st2" x1="175.5" y1="380.7" x2="175.2" y2="373"/>
		<line class="st2" x1="179.9" y1="375.7" x2="179.9" y2="370"/>
		<line class="st2" x1="178.4" y1="377.3" x2="183.7" y2="378.2"/>
		<path class="st1" d="M159.4,397.9c0,0,1.5-0.2,3.5-0.6c1-0.2,2.2-0.3,3.5-0.5c0.6-0.1,1.3-0.1,1.9-0.2c0.6,0,1.3,0,2,0.1
			c0.3,0,0.6,0.1,1,0.2c0.3,0.1,0.6,0.2,0.9,0.3c0.3,0.1,0.6,0.2,0.9,0.4c0.3,0.2,0.5,0.3,0.8,0.5c0.5,0.4,1,0.8,1.5,1.2
			c0.5,0.4,0.9,0.7,1.4,1c0.8,0.7,1.5,1.2,2,1.6c0.2,0.2,0.4,0.4,0.4,0.5l0,0l0,0l0,0l-0.1,0.2c0,0,0,0,0.1,0c0,0,0.1,0,0.2,0
			c0.1-0.1,0-0.1,0-0.2c-0.1-0.2-0.2-0.4-0.4-0.6c-0.4-0.5-1-1.2-1.8-2s-1.6-1.7-2.6-2.6c-0.3-0.2-0.6-0.5-0.9-0.7
			c-0.3-0.2-0.6-0.4-1-0.6c-0.3-0.2-0.7-0.3-1-0.5c-0.4-0.1-0.7-0.3-1.1-0.4c-0.7-0.2-1.5-0.3-2.2-0.4c-0.8-0.1-1.5-0.1-2.2,0
			s-1.4,0.2-2,0.4c-0.6,0.2-1.2,0.4-1.7,0.6c-2.1,0.9-3.2,1.9-3.2,1.9L159.4,397.9L159.4,397.9z"/>
		<line class="st2" x1="153.4" y1="385.6" x2="155.9" y2="379.7"/>
		<line class="st2" x1="147.7" y1="376.8" x2="143.4" y2="367.5"/>
		<path class="st2" d="M145.6,370.8c0,0,0.8-4.7,4.3-6.9"/>
		<path class="st2" d="M149.2,382.2c0,0,2-3.2,5.8-7.8"/>
		<path class="st2" d="M151.4,385.6c0,0-3.3-4.4-8-4.1"/>
		<line class="st2" x1="146.7" y1="374.5" x2="138.9" y2="373"/>
		<line class="st2" x1="140.6" y1="393.4" x2="134.9" y2="397.5"/>
		<line class="st2" x1="148.2" y1="393.4" x2="143.4" y2="387.1"/>
		<line class="st2" x1="169.3" y1="435.3" x2="163.2" y2="442.3"/>
		<line class="st2" x1="168.3" y1="430.8" x2="176.5" y2="435.3"/>
		<path class="st1" d="M117.4,497c0,0-0.1-0.1-0.4-0.2s-0.7-0.3-1.3-0.4c-0.3-0.1-0.6-0.1-0.9-0.2c-0.3,0-0.7,0-1.1,0
			c-0.8,0-1.7,0.1-2.7,0.4c-1,0.2-2,0.6-3,1c-0.5,0.2-1,0.5-1.6,0.8c-0.5,0.3-1,0.6-1.5,0.9c-1,0.7-2,1.5-2.9,2.4
			c-1,0.8-1.8,1.8-2.7,2.7c-0.9,0.9-1.7,1.8-2.6,2.6c-0.9,0.9-1.8,1.7-2.6,2.5c-0.9,0.8-1.8,1.5-2.6,2.1c-0.4,0.3-0.8,0.7-1.2,0.9
			c-0.4,0.3-0.8,0.6-1.2,0.8c-0.8,0.5-1.5,1-2.2,1.3c-0.7,0.4-1.3,0.6-1.8,0.8s-0.9,0.3-1.2,0.4c-0.3,0.1-0.4,0.1-0.4,0.1v0.2
			c0,0,0.7,0,1.7-0.3c0.5-0.2,1.2-0.4,1.9-0.7c0.7-0.3,1.5-0.7,2.3-1.2c0.4-0.2,0.8-0.5,1.3-0.8c0.4-0.3,0.9-0.5,1.3-0.8
			c0.9-0.6,1.8-1.3,2.8-2c0.9-0.7,1.9-1.5,2.8-2.3c1-0.8,1.8-1.7,2.8-2.5c0.9-0.8,1.8-1.7,2.8-2.4c0.9-0.8,1.9-1.4,2.9-2.1
			c0.5-0.3,0.9-0.6,1.4-0.9s0.9-0.5,1.4-0.8c0.9-0.5,1.8-0.9,2.6-1.2c0.4-0.2,0.8-0.3,1.2-0.4c0.4-0.1,0.8-0.2,1.1-0.3
			c0.7-0.1,1.3-0.2,1.9-0.2c1.1,0,1.7,0.1,1.7,0.1L117.4,497L117.4,497z"/>
		<path class="st1" d="M136.4,438.7c0,0-0.5,0-1.3,0.1c-0.4,0-0.9,0.1-1.5,0.1s-1.2,0.1-1.9,0.2c-0.7,0-1.4,0.1-2.1,0.1
			c-0.4,0-0.8,0-1.1,0c-0.4,0-0.8,0-1.2,0s-0.8,0-1.2,0c-0.4,0-0.8-0.1-1.2-0.1c-0.4,0-0.8-0.1-1.2-0.2c-0.4-0.1-0.8-0.2-1.2-0.4
			c-0.8-0.3-1.5-0.7-2.3-1.2s-1.5-0.9-2.2-1.4s-1.4-1-2-1.5s-1.2-1-1.7-1.5c-1-0.9-1.8-1.8-2.3-2.4s-0.8-1-0.8-1l-0.3,0.1
			c0,0,0.2,0.5,0.6,1.2s1.1,1.7,1.9,2.9c0.4,0.6,0.9,1.2,1.5,1.8c0.6,0.6,1.2,1.2,1.8,1.8c0.7,0.6,1.4,1.2,2.1,1.8
			c0.7,0.5,1.6,1.1,2.5,1.6c0.5,0.2,0.9,0.5,1.4,0.6c0.5,0.2,1,0.4,1.5,0.5s1,0.3,1.5,0.3c0.5,0.1,1,0.1,1.5,0.1s0.9,0,1.4,0
			c0.4-0.1,0.9-0.1,1.3-0.2c0.4-0.1,0.8-0.2,1.2-0.3c0.4-0.1,0.8-0.2,1.1-0.4c1.4-0.5,2.5-1.1,3.2-1.6s1.1-0.9,1.1-0.9L136.4,438.7
			L136.4,438.7z"/>
		<path class="st2" d="M140.6,433.9c0,0-3.6,3.8-1.7,13.1s-5.8,15-5.8,15"/>
		<path class="st2" d="M130.3,440.6c0,0-4.2,0-6.6-9.8s-10.1-13.5-10.1-13.5"/>
		<path class="st2" d="M136.2,423.3c0,0-7.7-6-12.4-6"/>
		<line class="st2" x1="140.7" y1="427.1" x2="133.3" y2="427.1"/>
		<path class="st1" d="M129.1,504.6c0,0-0.2-0.1-0.6-0.2c-0.2-0.1-0.5-0.1-0.8-0.1s-0.7,0-1.1,0c-0.4,0.1-0.8,0.2-1.2,0.4
			c-0.4,0.2-0.8,0.5-1.2,0.9c-0.2,0.2-0.3,0.4-0.4,0.6s-0.2,0.5-0.4,0.7c-0.2,0.5-0.4,1-0.5,1.4c-0.1,0.5-0.2,1-0.3,1.4
			c-0.1,0.5-0.1,0.9-0.2,1.4c-0.1,0.9-0.2,1.7-0.2,2.5s0,1.3,0.1,1.8c0.1,0.4,0.2,0.7,0.2,0.7h0.1c0,0-0.1-0.2-0.1-0.6
			c0-0.4,0-1,0.1-1.7s0.2-1.5,0.4-2.4c0.1-0.4,0.2-0.9,0.3-1.3c0.1-0.5,0.2-0.9,0.4-1.4c0.1-0.4,0.3-0.8,0.5-1.2
			c0.1-0.2,0.2-0.4,0.3-0.5c0.1-0.2,0.3-0.3,0.4-0.5c0.1-0.1,0.3-0.3,0.4-0.4c0.2-0.1,0.3-0.2,0.4-0.3c0.3-0.2,0.6-0.4,0.9-0.5
			c0.6-0.2,1.2-0.3,1.6-0.4C128.9,504.7,129.1,504.7,129.1,504.6L129.1,504.6L129.1,504.6z"/>
		<line class="st2" x1="128.5" y1="503.6" x2="123" y2="501.2"/>
		<line class="st2" x1="123.2" y1="504.4" x2="117.4" y2="504.7"/>
		<path class="st1" d="M151.7,429.5c0,0-0.4-0.3-1-0.8c-0.3-0.2-0.6-0.5-0.9-0.9c-0.1-0.2-0.3-0.4-0.5-0.6c-0.1-0.2-0.3-0.4-0.5-0.7
			c-0.3-0.5-0.6-1-0.7-1.6s-0.4-1.2-0.4-1.9c-0.1-0.7-0.2-1.4-0.2-2.2c0-0.8,0.1-1.6,0.2-2.4c0.1-0.8,0.3-1.7,0.5-2.5
			s0.4-1.7,0.6-2.5c0.2-0.8,0.4-1.6,0.6-2.3c0.2-0.7,0.4-1.4,0.6-2c0.4-1.2,0.8-2.3,1.2-2.9c0.3-0.7,0.6-1,0.6-1l-0.2-0.2
			c0,0-0.4,0.3-0.9,1c-0.5,0.6-1.1,1.6-1.7,2.8c-0.6,1.2-1.3,2.6-1.9,4.2c-0.3,0.8-0.6,1.6-0.9,2.4c-0.3,0.8-0.6,1.6-0.9,2.6
			c-0.1,0.5-0.3,0.9-0.4,1.4c-0.1,0.5-0.2,0.9-0.3,1.4c-0.1,1-0.2,1.9-0.1,2.9c0,0.5,0.2,1,0.3,1.4c0.1,0.5,0.4,0.9,0.6,1.3
			c0.4,0.8,1,1.5,1.6,2s1.2,0.9,1.8,1.1c0.3,0.1,0.6,0.2,0.8,0.3c0.3,0.1,0.5,0.1,0.7,0.2c0.4,0.1,0.8,0.1,1,0.1s0.4,0,0.4,0
			L151.7,429.5L151.7,429.5z"/>
		<line class="st2" x1="146.7" y1="417.3" x2="143.4" y2="413.6"/>
		<line class="st2" x1="146.1" y1="423.3" x2="155.1" y2="418.1"/>
		<line class="st2" x1="158.9" y1="466.5" x2="166.2" y2="466.5"/>
		<line class="st2" x1="160.9" y1="471.2" x2="158.4" y2="481.7"/>
		<line class="st2" x1="172.4" y1="433.1" x2="175.5" y2="440.6"/>
		<line class="st2" x1="159.7" y1="476.5" x2="162.6" y2="484"/>
		<path class="st1" d="M149.1,481.7c0,0-0.1,0.8-0.4,2.2c-0.2,1.4-0.5,3.4-0.8,5.7c-0.2,1.2-0.4,2.4-0.6,3.8c-0.1,0.7-0.2,1.3-0.3,2
			s-0.2,1.4-0.4,2.1c-0.3,1.4-0.5,2.9-0.9,4.3l-0.3,1.1c-0.1,0.3-0.3,0.7-0.4,1c-0.1,0.4-0.3,0.7-0.5,1s-0.4,0.7-0.5,0.9
			c-0.5,0.6-1,1.3-1.5,1.8s-1.1,1-1.6,1.6c-1.1,1-2.3,1.9-3.5,2.8c-1.2,0.9-2.4,1.6-3.5,2.4c-1.1,0.7-2.2,1.4-3.2,2
			c-4.1,2.5-6.9,3.9-6.9,3.9l0.1,0.3c0,0,3-1.1,7.3-3.2c1.1-0.5,2.2-1.1,3.5-1.8s2.5-1.4,3.8-2.2s2.6-1.7,3.9-2.7
			c1.2-0.9,2.6-2.2,3.6-3.4c0.4-0.4,0.5-0.7,0.8-1.1s0.5-0.7,0.7-1.1s0.4-0.8,0.6-1.1l0.5-1.2c0.6-1.5,1-3.1,1.4-4.6
			c0.3-1.5,0.4-3,0.5-4.4c0-0.7,0.1-1.4,0.1-2c0-0.7,0-1.3,0-1.9c-0.1-4.9-0.9-8-0.9-8L149.1,481.7L149.1,481.7z"/>
		<line class="st2" x1="149.2" y1="509.5" x2="143.4" y2="516.9"/>
		<line class="st2" x1="146.7" y1="502.5" x2="139.4" y2="504.7"/>
		<path class="st2" d="M143.4,508.2c0,0-4.4,4.8-3.5,12.1s2.3,11,2.3,11"/>
		<line class="st2" x1="139.8" y1="516.9" x2="133.3" y2="529.7"/>
		<line class="st2" x1="136.5" y1="513.4" x2="133" y2="520.3"/>
		<line class="st2" x1="139.8" y1="511.1" x2="129.1" y2="511.1"/>
		<line class="st2" x1="102.4" y1="502.5" x2="92.7" y2="502.5"/>
		<path class="st2" d="M129.1,451c0,0-5.4,0.2-10.1-3.1c-4.7-3.3-5.3-3.6-5.3-3.6"/>
		<line class="st2" x1="123.2" y1="429" x2="113.7" y2="423.3"/>
		<line class="st2" x1="121.4" y1="449.3" x2="111.1" y2="449.3"/>
		<path class="st2" d="M117.4,455.8c0,0-10.3-2.8-12.3-6.4s-5.3-12.1-5.3-12.1"/>
		<line class="st2" x1="105.1" y1="449.3" x2="94.7" y2="449.3"/>
		<line class="st2" x1="138.9" y1="452.8" x2="133.3" y2="455.8"/>
		<line class="st2" x1="137.4" y1="456.6" x2="139.4" y2="462"/>
		<path class="st2" d="M123.2,454.4c0,0-12,4-14.4,7.6s-6.4,10-6.4,10"/>
		<line class="st2" x1="108.8" y1="462" x2="97.6" y2="464.4"/>
		<line class="st2" x1="131.1" y1="467.6" x2="127.7" y2="459.3"/>
		<line class="st2" x1="129.1" y1="462.9" x2="122.7" y2="459.8"/>
		<path class="st1" d="M129.2,466.4c0,0,0-0.1-0.1-0.1c-0.1-0.1-0.2-0.2-0.3-0.4c-0.2-0.1-0.4-0.3-0.7-0.3s-0.6-0.1-1-0.1
			c-0.3,0-0.7,0.1-1.1,0.2s-0.7,0.3-1.1,0.5c-0.3,0.2-0.6,0.5-0.9,0.8s-0.6,0.6-0.8,0.8c-0.3,0.2-0.6,0.5-0.8,0.8
			c-0.2,0.2-0.5,0.4-0.8,0.6c-0.5,0.4-1.1,0.7-1.6,0.8c-0.5,0.1-0.9,0.1-1.2,0c-0.3-0.1-0.4-0.2-0.4-0.2l-0.2,0.1
			c0,0,0.1,0.2,0.4,0.4c0.3,0.2,0.8,0.4,1.5,0.4c0.6,0,1.3-0.2,2.1-0.5c0.3-0.1,0.7-0.3,1.1-0.5s0.7-0.4,1-0.6s0.6-0.4,0.9-0.6
			s0.6-0.3,0.9-0.5s0.5-0.3,0.8-0.5c0.2-0.1,0.4-0.3,0.7-0.4c0.4-0.2,0.8-0.4,1.1-0.4s0.5,0,0.5,0V466.4L129.2,466.4z"/>
		<line class="st2" x1="122.7" y1="468.8" x2="119.1" y2="467.1"/>
		<path class="st1" d="M130.9,473.5L130.9,473.5c-0.1-0.1-0.3-0.2-0.5-0.3c-0.2-0.1-0.4-0.3-0.7-0.5s-0.6-0.4-1-0.7
			c-0.7-0.5-1.6-1-2.6-1.5c-0.3-0.1-1.1-0.5-1.4-0.6c-0.2-0.1-0.4-0.2-0.6-0.3l-0.6-0.5c-0.4-0.4-0.8-0.7-1.1-1.1
			c-0.2-0.2-0.3-0.4-0.5-0.6s-0.3-0.4-0.4-0.6c-0.3-0.4-0.5-0.9-0.8-1.3c-0.2-0.4-0.4-0.9-0.6-1.3c-0.3-0.8-0.5-1.5-0.7-2
			c-0.1-0.5-0.2-0.8-0.2-0.8h-0.3c0,0-0.2,1.2,0.1,3.1c0.1,0.9,0.3,2,0.8,3.1c0.2,0.6,0.5,1.1,0.8,1.7s0.7,1.1,1.1,1.6l0.7,0.8
			c0.2,0.2,0.5,0.5,0.8,0.7l0.4,0.4l0.4,0.2c0.1,0.1,0.2,0.2,0.4,0.2l0.2,0.1h0.1l0.2,0.1c1.1,0.5,2.1,0.7,3.1,0.9
			c1,0.1,1.8,0.1,2.4,0c0.3-0.1,0.6-0.2,0.8-0.4c0.2-0.3,0-0.5,0.1-0.4L130.9,473.5L130.9,473.5z"/>
		<path class="st1" d="M123.8,471.9c0,0-0.1-0.3-0.3-0.7c-0.2-0.4-0.6-1-1.1-1.5c-0.5-0.6-1.2-1.2-2-1.7s-1.8-0.9-2.7-1.3
			c-0.9-0.4-1.9-0.8-2.8-1.1c-0.9-0.3-1.7-0.6-2.4-0.8c-1.4-0.5-2.4-0.8-2.4-0.8l-0.1,0.2c0,0,0.9,0.5,2.2,1.2
			c0.7,0.4,1.4,0.8,2.2,1.2c0.8,0.4,1.7,0.9,2.5,1.4c0.4,0.3,0.8,0.5,1.2,0.8c0.4,0.3,0.7,0.6,1.1,0.8c0.8,0.5,1.5,0.9,2.1,1.2
			c1.3,0.7,2.3,1.1,2.3,1.1L123.8,471.9L123.8,471.9z"/>
		<line class="st2" x1="116.2" y1="466.1" x2="114.8" y2="460.4"/>
		<line class="st2" x1="123.8" y1="471.2" x2="116.2" y2="471"/>
		<path class="st1" d="M138.8,469.4c0,0-1.1,0.4-2.2,1.5c-0.3,0.3-0.6,0.6-0.9,1c-0.3,0.4-0.6,0.8-0.8,1.2c-0.2,0.4-0.4,0.9-0.6,1.4
			c-0.2,0.5-0.4,1-0.5,1.6c-0.1,0.5-0.3,1.1-0.3,1.6c-0.1,0.5-0.1,1.1-0.1,1.6c0,1,0.1,1.9,0.2,2.6c0.1,1.5,0.2,2.6,0.2,2.6h0.2
			c0,0,0.1-1,0.3-2.5c0.1-0.8,0.2-1.7,0.3-2.6c0.1-0.5,0.1-0.9,0.3-1.4c0.1-0.5,0.3-0.9,0.5-1.4c0.2-0.4,0.4-0.9,0.7-1.3
			c0.2-0.4,0.5-0.8,0.7-1.2c0.4-0.8,0.9-1.5,1.2-2.2c0.7-1.3,1.1-2.4,1.1-2.4L138.8,469.4L138.8,469.4z"/>
		<path class="st1" d="M128.4,473.6c0,0-0.4-0.1-1.1-0.2c-0.3,0-0.8-0.1-1.2,0c-0.5,0-1,0-1.6,0.1c-1.2,0.2-2.5,0.6-3.8,1.4
			c-0.6,0.4-1.2,0.9-1.8,1.5c-0.3,0.3-0.5,0.6-0.8,0.9l-0.8,0.9c-0.5,0.6-0.9,1.4-1.2,2c-0.4,0.6-0.7,1.3-1,1.9
			c-0.6,1.3-1.1,2.5-1.4,3.5c-0.7,2.1-0.9,3.6-0.9,3.6l0.3,0.1c0,0,0.1-0.3,0.4-0.9s0.7-1.4,1.2-2.3s1.2-2,2-3.1
			c0.4-0.6,0.8-1.1,1.2-1.6c0.4-0.6,0.9-1.1,1.3-1.5c0.2-0.2,0.5-0.5,0.7-0.6c0.3-0.2,0.5-0.4,0.8-0.6c0.6-0.3,1.1-0.6,1.6-1
			c1.1-0.6,2.1-1.3,3-1.8s1.7-1,2.2-1.3c0.6-0.3,0.9-0.5,0.9-0.5L128.4,473.6L128.4,473.6z"/>
		<path class="st1" d="M120.8,475.9c0,0-0.4,0.2-1.1,0.5s-1.7,0.8-2.9,1.3c-1.2,0.5-2.6,1.2-4,1.8c-1.5,0.6-3,1.4-4.6,1.9
			c-0.8,0.2-1.6,0.4-2.4,0.4c-0.7,0-1.6-0.1-2.4-0.2c-1.6-0.2-3.1-0.5-4.4-0.7c-2.6-0.5-4.2-1-4.2-1l-0.1,0.2c0,0,1.6,0.7,4.1,1.5
			c1.3,0.4,2.7,0.9,4.4,1.2c0.8,0.2,1.6,0.4,2.6,0.5c0.9,0,1.9-0.1,2.8-0.2c1.8-0.4,3.6-0.9,5.1-1.7c1.5-0.7,2.8-1.6,3.9-2.4
			c2.2-1.6,3.4-2.9,3.4-2.9L120.8,475.9L120.8,475.9z"/>
		<path class="st2" d="M122.2,476.5c0,0-0.1,3.8,1.6,6.7"/>
		<line class="st2" x1="118.3" y1="478.8" x2="119.1" y2="485.8"/>
		<path class="st2" d="M112.8,479.8c0,0-4.8,2.5-8.9-1.8"/>
		<path class="st2" d="M108.8,482.1c0,0-5.2,1.3-8.9,5.4c-3.7,4.1-6.1,9.2-6.1,9.2"/>
		<path class="st2" d="M100.4,487c0,0-5.6,1.7-9.7,1.4s-5.8-1.4-5.8-1.4"/>
		<line class="st2" x1="93.8" y1="488.4" x2="89.2" y2="484.5"/>
		<line class="st2" x1="102.4" y1="463.2" x2="93.8" y2="459.8"/>
		<line class="st2" x1="105.5" y1="467.1" x2="96.8" y2="471.1"/>
		<line class="st2" x1="105.5" y1="462" x2="101.9" y2="459.3"/>
		<line class="st2" x1="110.2" y1="497.7" x2="103.9" y2="496.2"/>
		<path class="st1" d="M122.2,495c0,0-0.3-0.1-0.9-0.3c-0.6-0.1-1.4-0.3-2.3-0.5c-0.5-0.1-1-0.1-1.5-0.2c-0.5,0-1.1,0-1.7,0
			c-1.2,0-2.4-0.1-3.6-0.4c-0.6-0.1-1.1-0.3-1.6-0.6c-0.4-0.4-0.9-0.8-1.3-1.3c-0.8-0.9-1.6-1.7-2.2-2.4c-1.3-1.5-2.1-2.5-2.1-2.5
			l-0.2,0.1c0,0,0.7,1.1,1.8,2.7c0.6,0.8,1.2,1.7,2,2.7c0.4,0.5,0.8,1,1.3,1.5s1.2,0.9,1.8,1.1c1.3,0.5,2.6,0.8,3.8,1
			c1.2,0.3,2.4,0.2,3.4,0.1s1.8-0.3,2.4-0.5s0.9-0.4,0.9-0.4L122.2,495L122.2,495z"/>
		<line class="st2" x1="107.8" y1="503.6" x2="113.1" y2="500.5"/>
		<path class="st1" d="M100.3,504.3c0,0-0.2,0.2-0.6,0.5c-0.3,0.4-0.7,1-1,1.9c-0.1,0.4-0.2,0.9-0.3,1.4s-0.1,1-0.1,1.6
			c0,0.5,0.1,1.1,0.2,1.6s0.2,1.1,0.4,1.6c1.1,4.4,2.9,8.5,2.9,8.5h0.1c0,0-1.4-4.2-2.2-8.6c-0.1-0.5-0.2-1.1-0.2-1.6
			c-0.1-0.5-0.1-1-0.1-1.5s0-1,0-1.4c0-0.5,0.1-0.9,0.1-1.3c0.1-0.4,0.1-0.8,0.2-1.1c0.1-0.3,0.2-0.6,0.3-0.8
			C100.3,504.6,100.4,504.4,100.3,504.3L100.3,504.3L100.3,504.3z"/>
		<line class="st2" x1="95.4" y1="509.1" x2="89.2" y2="510.4"/>
		<line class="st2" x1="99.1" y1="511.1" x2="96.8" y2="516.5"/>
		<line class="st2" x1="101.3" y1="503.6" x2="102.4" y2="507.1"/>
		<path class="st2" d="M110.2,493.4c0,0-5.6-2.1-8.9-0.5"/>
		<path class="st1" d="M136.3,501.2c0,0-0.1,0.2-0.3,0.6s-0.4,1-0.6,1.8c-0.2,0.7-0.3,1.6-0.3,2.6c0,0.5,0.1,1,0.1,1.5
			c0.1,0.5,0.2,1,0.3,1.5c0.4,2,0.9,3.9,1.3,5.3s0.7,2.4,0.7,2.4h0.1c0,0-0.2-1-0.4-2.5s-0.6-3.4-0.8-5.4c-0.1-0.5-0.1-1-0.1-1.5
			s-0.1-0.9,0-1.4c0-0.9,0-1.8,0.1-2.5c0-0.4,0-0.7,0.1-1c0-0.3,0.1-0.6,0.1-0.8C136.4,501.4,136.4,501.2,136.3,501.2L136.3,501.2
			L136.3,501.2z"/>
		<line class="st2" x1="136.2" y1="500.5" x2="131.1" y2="500.5"/>
		<path class="st1" d="M166.7,512.8c-1.1-0.4-2.1-1-3.1-1.6s-2-1.2-2.9-1.8c-0.5-0.3-1-0.6-1.4-1l-0.4-0.2l-0.1-0.1l0,0
			c0.1,0-0.1-0.1,0.1,0.1l0,0l0,0l0,0l-0.2-0.1c-0.2-0.2-0.5-0.4-0.7-0.6s-0.3-0.3-0.4-0.5c-0.1-0.1-0.3-0.3-0.4-0.5
			c-0.1-0.2-0.3-0.4-0.5-0.6c-0.1-0.2-0.3-0.5-0.4-0.7c-0.3-0.4-0.6-0.9-0.8-1.4c-0.3-0.5-0.4-1-0.7-1.5c-0.4-1.1-0.8-2.2-1-3.3
			c-0.6-2.2-1-4.6-1.2-6.9l-1.1,0.6c2.3,1.4,4.6,2.8,7,4.2l0.2-0.2c-2.1-1.7-4.3-3.4-6.4-5.1l-1.1-0.8v1.4c0,1.2,0.1,2.4,0.1,3.6
			c0.1,1.2,0.2,2.4,0.4,3.6s0.4,2.4,0.8,3.6c0.2,0.6,0.3,1.2,0.6,1.8c0.2,0.6,0.4,1.2,0.7,1.8c0.2,0.6,0.6,1.2,1,1.8
			c0.3,0.5,1,1.2,1.5,1.7c0.2,0.2,0.5,0.3,0.7,0.5l0.2,0.1l0.2,0.1h0.1l0.4,0.2c0.6,0.3,1.1,0.5,1.7,0.8c1.1,0.5,2.3,0.9,3.6,1.1
			c1.2,0.2,2.5,0.4,3.8,0.2L166.7,512.8L166.7,512.8z"/>
		<line class="st2" x1="153.4" y1="502.5" x2="160.9" y2="504.7"/>
		<line class="st2" x1="149.4" y1="511.1" x2="152.5" y2="522.7"/>
	</g>
	<g id="body_outline">
		<path id="body_outline-2" class="st3" d="M27,568.2c0,0-4.7-103.8-3.3-117.8c1.3-14-8-90.5,51.3-111.3s92-29.4,99.3-59.4
			s-18-50.7-18-50.7S109,203,109,151s5.4-78.3,48-103.3c49.5-29.1,80.1-8,110.7,3.3c33,12.3,41.3,59,41.3,59s7,17,3.5,29.5
			s1,24,4.5,27s16,16.5,6,20.5s-14.5,9-11.5,15s4,6.5,0.5,7s-7,1.2-7,1.2s-5,3.3-0.5,5.3s4.9,0.9,6.7,1.8c1,0.5,2.6,3.1,1.5,4.1
			c-4,3.2-4.2,6.2-3.7,11.7s2,18.5-6.5,20.5s-37,0-37,0s-4.8,0-5,5.5s1.5,23,6.5,28.5s15.3,24.8,49.3,33.5s94.7,13.3,103.3,86.7
			c0,0,4,110.3-5.3,160.5"/>
		<path id="sinus" class="st1" d="M322.4,178l-22.7-23.3c0,0-4-4.7-7.3-4.7s-40.7,4.3-40.7,4.3s-2,3.3,1.7,9.7
			c3.7,6.3-2.2,12-2.2,12l-29.1,8c0,0-9.3,2-7,15.3s4.3,33.7,5,44s1.3,36.7-3.3,52.3c-4.7,15.7-9.3,32,1,66.3l6,13.7
			c0,0,6.5,10.1-1.7,14.4c-12.6,6.7-36.7,19.4-36.7,19.4s-9.4,5.5-17.1,7.5l2,9.3c0,0,17.7-2.3,25.3-6s36.2-20.1,36.2-20.1
			s8.2-5.8,12.2,0.6c3.1,5,10.7,13.7,10.7,13.7l10.9,7.8l1.5-10.9c0,0-16.7-15.7-24.3-32c-7.7-16.3-24.3-49-17.3-71
			s20.7-41.7,20.7-41.7s4.7-9-4-17.7s11.5-37.3,11.5-37.3s5.5-7.7,19.8-6.7s20.3,2.3,20.3,2.3l6-3c0,0-8.7-7-20-6s-23,0.7-28.7,6.7
			s-13,22-13,22s-1.7,4.3-3-0.3c-1.3-4.7,1-19.7,1-19.7s2-14.3,14.7-14.7c12.7-0.3,43,5,46.7,3.3s7-5.7,9.7-7.3s11.7-3.7,11.7-3.7
			S323.7,185.2,322.4,178L322.4,178z"/>
		<path id="lung_l" class="st3" d="M196.2,418.3c0,0,13.3-56.9,10.5-68.9c-2.9-12-21.6-14.9-21.6-14.9s-24.5-1-60,36.5
			s-50.4,99.4-55.7,137.8s7.5,34.9,7.5,34.9s60.1-14.1,93.7-17.5c11.9-1.2,8.2-15.5,8.2-15.5s1.7-17.7,4.3-30.7
			C187.7,457.3,196.2,418.3,196.2,418.3L196.2,418.3z"/>
		<path id="lung_r" class="st3" d="M244.9,411.1c0,0-12.4-34.6-12.4-39.8s-4.3-45.6,22.6-33.1s74.4,44.2,85.4,83.5
			s19.7,52.3,19.7,83.5s-0.1,33.3-8.3,52c0,0-53-25.8-80.9-23.9c-27.8,1.9-23.1-13.4-23.1-13.4s5.8-23.4,3.4-38.2
			C248.9,466.8,244.9,411.1,244.9,411.1L244.9,411.1z"/>
	</g>
</g>
<g id="Layer_2_00000115491173455815701710000001962821282325108153_">
	<g>
		<circle class="st4" cx="335.1" cy="202.6" r="2.7"/>
		<circle class="st4" cx="343.1" cy="205.3" r="2.7"/>
		<circle class="st4" cx="330.3" cy="222.4" r="2.7"/>
		<circle class="st4" cx="345.9" cy="222.4" r="2.7"/>
		<circle class="st4" cx="351.3" cy="213.5" r="2.7"/>
		<circle class="st4" cx="327.6" cy="213.5" r="2.7"/>
		<circle class="st4" cx="335.1" cy="210.8" r="2.7"/>
		<circle class="st4" cx="337.9" cy="219.6" r="2.7"/>
		<circle class="st4" cx="343.1" cy="213.8" r="2.7"/>
		<circle class="st4" cx="351.3" cy="205.3" r="2.7"/>
	</g>
	<g>
		<circle class="st4" cx="228" cy="252.1" r="2.7"/>
		<circle class="st4" cx="236" cy="254.8" r="2.7"/>
		<circle class="st4" cx="223.2" cy="271.9" r="2.7"/>
		<circle class="st4" cx="238.7" cy="271.9" r="2.7"/>
		<circle class="st4" cx="244.1" cy="263" r="2.7"/>
		<circle class="st4" cx="220.4" cy="263" r="2.7"/>
		<circle class="st4" cx="228" cy="260.3" r="2.7"/>
		<circle class="st4" cx="230.7" cy="269.2" r="2.7"/>
		<circle class="st4" cx="236" cy="263.4" r="2.7"/>
		<circle class="st4" cx="244.1" cy="254.8" r="2.7"/>
	</g>
	<g>
		<circle class="st4" cx="327.6" cy="513.6" r="2.7"/>
		<circle class="st4" cx="335.6" cy="516.4" r="2.7"/>
		<circle class="st4" cx="322.7" cy="533.4" r="2.7"/>
		<circle class="st4" cx="338.3" cy="533.4" r="2.7"/>
		<circle class="st4" cx="343.7" cy="524.5" r="2.7"/>
		<circle class="st4" cx="320" cy="524.5" r="2.7"/>
		<circle class="st4" cx="327.6" cy="521.8" r="2.7"/>
		<circle class="st4" cx="330.3" cy="530.7" r="2.7"/>
		<circle class="st4" cx="335.6" cy="524.9" r="2.7"/>
		<circle class="st4" cx="343.7" cy="516.4" r="2.7"/>
	</g>
	<g>
		<circle class="st4" cx="221" cy="344.7" r="2.7"/>
		<circle class="st4" cx="229" cy="347.4" r="2.7"/>
		<circle class="st4" cx="216.1" cy="364.4" r="2.7"/>
		<circle class="st4" cx="231.7" cy="364.4" r="2.7"/>
		<circle class="st4" cx="237.1" cy="355.5" r="2.7"/>
		<circle class="st4" cx="213.4" cy="355.5" r="2.7"/>
		<circle class="st4" cx="221" cy="352.8" r="2.7"/>
		<circle class="st4" cx="223.7" cy="361.7" r="2.7"/>
		<circle class="st4" cx="229" cy="355.9" r="2.7"/>
		<circle class="st4" cx="237.1" cy="347.4" r="2.7"/>
	</g>
</g>
<g id="Layer_3">
	<rect x="50.2" y="71.1" class="st5" width="89" height="17"/>
	<text transform="matrix(1 0 0 1 55.658 84)" class="st6 st7 st8">Stroke</text>
	<rect x="18.1" y="251.6" class="st5" width="142.2" height="35.1"/>
	<text transform="matrix(1 0 0 1 18.075 260.1547)" class="st6 st7 st8">Lung disease + reduced </text>
	<text transform="matrix(1 0 0 1 18.075 274.5547)" class="st6 st7 st8">lung function</text>
	<rect x="376.1" y="54.1" class="st5" width="89" height="17"/>
	<text transform="matrix(1 0 0 1 56.2095 368.4004)" class="st6 st7 st8">Cancer</text>
	<rect x="363.9" y="258.6" class="st5" width="93" height="66"/>
	<text transform="matrix(1 0 0 1 285.228 578.8887)" class="st6 st7 st8">Cardiovascular </text>
	<text transform="matrix(1 0 0 1 321.3502 591.4474)" class="st6 st7 st8">disease</text>
	<rect x="327.6" y="128.2" class="st5" width="117.1" height="43.7"/>
	<text transform="matrix(1 0 0 1 309.1002 277.0742)" class="st6 st7 st8">Asthma exacerbation</text>
	<line class="st5" x1="76" y1="104" x2="152.1" y2="150"/>
</g>
<line class="st9" x1="93.6" y1="84.1" x2="157.1" y2="122.6"/>
<line class="st9" x1="93.8" y1="370.7" x2="114.1" y2="406.7"/>
<line class="st9" x1="203" y1="447" x2="324.7" y2="566"/>
<polygon class="st5" points="345.4,585 369,585 369,585 "/>
<line class="st9" x1="345.9" y1="282" x2="260.8" y2="354.6"/>
<line class="st9" x1="89.2" y1="279" x2="152.1" y2="334.5"/>
</svg>
