<?xml version="1.0" encoding="UTF-8"?>
<svg id="Layer_2" data-name="Layer 2" xmlns="http://www.w3.org/2000/svg" xmlns:xlink="http://www.w3.org/1999/xlink" viewBox="0 0 335.56 230">
  <defs>
    <style>
      .cls-1, .cls-2, .cls-3 {
        fill: none;
      }

      .cls-4 {
        fill: #0fb1b5;
      }

      .cls-5 {
        font-size: 12.8px;
      }

      .cls-5, .cls-6 {
        font-family: Arial-BoldMT, Arial;
        font-weight: 700;
        isolation: isolate;
      }

      .cls-6 {
        font-size: 12px;
      }

      .cls-2 {
        stroke: #000;
        stroke-width: .75px;
      }

      .cls-2, .cls-3 {
        stroke-miterlimit: 10;
      }

      .cls-3 {
        stroke: #0fb1b5;
      }

      .cls-7 {
        fill: url(#radial-gradient);
      }
    </style>
    <radialGradient id="radial-gradient" cx="116.2" cy="235" fx="130.25" fy="223.86" r="41.5" gradientTransform="translate(0 350) scale(1 -1)" gradientUnits="userSpaceOnUse">
      <stop offset=".1" stop-color="#fff"/>
      <stop offset=".19" stop-color="#efefef"/>
      <stop offset=".35" stop-color="#c6c6c6"/>
      <stop offset=".58" stop-color="#848484"/>
      <stop offset=".87" stop-color="#2a2a2a"/>
      <stop offset=".99" stop-color="#000"/>
    </radialGradient>
  </defs>
  <g id="Layer_1-2" data-name="Layer 1">
    <g>
      <circle class="cls-7" cx="116.2" cy="115" r="41.5"/>
      <path d="m116.2,74c22.6,0,41,18.4,41,41s-18.4,41-41,41-41-18.4-41-41,18.4-41,41-41m0-1c-23.2,0-42,18.8-42,42s18.8,42,42,42,42-18.8,42-42-18.8-42-42-42h0Z"/>
    </g>
    <path d="m116.2,0h0s-.1,0,0,0q-.1,0,0,0-.1,0,0,0h-.7c-2.4,0-4.8.1-7.1.3l.1,1c2.9-.2,5.9-.3,8.9-.3V0h-1.2Zm-17.9,1.4c-.6.1-1.1.2-1.7.3h-1.5c-1.5.3-2.9.6-4.3.9l.2,1c2.9-.7,5.8-1.3,8.8-1.7l-1.5-.5h0Zm-17.5,4.2c-.5.2-1.1.4-1.6.5h-.8q-.1,0-.2.1h0c-1.5.5-2.9,1.1-4.4,1.7l.4.9c2.7-1.1,5.6-2.2,8.4-3.1l-1.8-.1h0Zm-16.6,6.8c-1.2.6-2.4,1.3-3.6,1.9h-.2s-.1,0-.1.1h0c-1.2.7-2.4,1.4-3.6,2.1l.5.9c2.5-1.5,5.1-3,7.8-4.4l-.8-.6h0Zm-15.4,9.4c-.3.2-.6.4-.8.6h0s-.1,0-.1.1h-.1l-.1.1h0l-.1.1h0l-.1.1h0c-1.8,1.3-3.5,2.7-5.2,4.1l.6.8c2.3-1.9,4.6-3.8,7-5.5l-1.1-.4h0Zm-13.7,11.6c-2.1,2.1-4.2,4.3-6.1,6.6l.8.7c1.9-2.2,4-4.4,6.1-6.5l-.8-.8h0Zm-11.7,13.7c-.1.1-.1.2-.2.3h0s0,.1-.1.1h0l-.1.1h0v.1h0v.1h0v.1h0v.1h0s0,.1-.1.1h0s0,.1-.1.1h0v.1h0s0,.1-.1.1h0s0,.1-.1.1h0l-.1.1h0s0,.1-.1.1h0c-.1.1-.1.2-.2.3h0c-.9,1.3-1.8,2.7-2.7,4.1l.9.5c1.6-2.5,3.2-5,5-7.4l-2,.9h0Zm-9.5,15.3c-.6,1.3-1.3,2.5-1.9,3.8h0s0,.1-.1.1h0v.1h0v.1h0c-.5,1.2-1.1,2.4-1.6,3.5l.9.4c1.1-2.7,2.4-5.4,3.8-8.1l-1.1.1h0Zm-6.9,16.5c-.9,2.8-1.8,5.7-2.5,8.6l1,.2c.7-2.9,1.5-5.8,2.5-8.6l-1-.2h0Zm-4.3,17.5c-.1.6-.2,1.2-.3,1.7h0v.1h0v.1h0c-.3,2.2-.5,4.3-.7,6.5l1,.1c.2-3,.6-5.9,1.1-8.9l-1.1.4h0Zm-1.5,17.9v.3h0v.1h0v.1h0v.1h0v.1h0c0,1.9.1,3.8.3,5.6l1-.1c-.2-2.7-.3-5.5-.3-8.3v-.7l-1,2.8h0Zm2.3,17.8l-1,.1c.4,3,1,5.9,1.7,8.8l1-.2c-.7-2.8-1.3-5.7-1.7-8.7h0Zm4,17.4l-1,.3v.1h0v.1h0c.7,2,1.4,4,2.1,5.9h0v.1h0v.1h0v.1h0c.1.3.2.5.3.8l.9-.4c-.4-1.5-1.4-4.3-2.3-7.1h0Zm6.7,16.5l-.9.4c.1.2.2.3.3.5h0v.1h0c1,2,2.1,3.9,3.2,5.8h0v.1h0v.1h0c.2.3.4.6.5.9l.9-.5c-1.2-2.1-2.7-4.8-4-7.4h0Zm9.2,15.3l-.8.6c1.7,2.4,3.6,4.8,5.5,7.1l.8-.6c-1.9-2.4-3.8-4.7-5.5-7.1h0Zm11.5,13.6l-.7.7c.7.7,1.4,1.4,2.1,2.1h0l.1.1h0l.1.1h0l.1.1h0l.1.1h0l.1.1h0c.5.5,1.1,1,1.6,1.5h0l.1.1h0l.1.1h0l.1.1h0l.1.1h0l.1.1h0c.3.2.6.5.8.7l.7-.8c-1.2-1-3.4-3.1-5.5-5.2h0Zm13.4,11.7l-.6.8c1.6,1.2,3.3,2.4,5,3.5h0s.1,0,.1.1h.2c.5.3,1.1.7,1.6,1l.5-.8c-1.9-1.1-4.4-2.8-6.8-4.6h0Zm15.1,9.5l-.5.9h0s.1,0,.1.1h0s.1,0,.1.1h0s.1,0,.1.1h0s.1,0,.1.1h0s.1,0,.1.1h0c2.4,1.2,4.8,2.4,7.3,3.4l.4-.9c-2.3-1.3-5-2.5-7.7-3.9h0Zm16.4,7l-.3.9c2.8,1,5.7,1.8,8.6,2.5l.2-1c-2.8-.6-5.7-1.5-8.5-2.4h0Zm17.3,4.3l-.2,1c1.8.3,3.7.6,5.5.8h.2c1,.1,2.1.2,3.1.3l.1-1c-2.8-.2-5.8-.6-8.7-1.1h0Zm26.7,1.4c-2.5.2-5.1.2-7.6.2h-1.3v1h7.7l1.2-1.2h0Zm17.6-2.6c-2.9.7-5.8,1.2-8.8,1.6l.1,1h1.4c1.8-.3,3.6-.7,5.4-1.1l1.9-1.5h0Zm17.1-5.3c-2.8,1.1-5.6,2.1-8.4,3l.3,1c.9-.3,1.8-.6,2.7-.9h.3c1.6-.6,3.3-1.2,4.9-1.8l.2-1.3h0Zm15.9-7.9c-2.5,1.5-5.2,2.9-7.8,4.3l.4.9c.4-.2.8-.4,1.1-.6h0s.1,0,.1-.1h0s.1,0,.1-.1h0c2.1-1.1,4.1-2.2,6.1-3.4v-1h0Zm14.6-10.3c-2.3,1.9-4.7,3.7-7.1,5.4l.6.8c.3-.2.7-.5,1-.7h0l.1-.1h0l.1-.1h0c1.9-1.4,3.8-2.9,5.6-4.4l-.3-.9h0Zm12.8-12.4c-2,2.2-4,4.4-6.2,6.5l.7.7c2.2-2.1,4.2-4.3,6.2-6.5l-.7-.7h0Zm10.7-14.3c-1.6,2.5-3.3,5-5.1,7.3l.8.6c.5-.7,1.1-1.4,1.6-2.2h0s0-.1.1-.1h0v-.1h0v-.1h0v-.1h0v-.1h0s0-.1.1-.1h0s0-.1.1-.1h0l.1-.1h0c.2-.2.3-.5.5-.7l1.8-4.2h0Zm8.3-15.7c-1.2,2.7-2.5,5.4-3.9,8l.9.5c.9-1.7,1.8-3.5,2.6-5.3h0v-.1h0v-.1h0q0-.1.1-.2h0c.3-.6.6-1.3.9-1.9l-.6-.9h0Zm5.8-16.9c-.7,2.9-1.6,5.7-2.6,8.5l.9.3c.2-.4.3-.9.5-1.3h0v-.1h0v-.1h0v-.1h0v-.1h0v-.1h0v-.1h0v-.1h0v-.1h0v-.1h0v-.1h0v-.1h0v-.1h0v-.1h0v-.1h0v-.1h0v-.1h0v-.2h0c.3-1.1.6-2.2.9-3.4l.3-2.3h0Zm3.1-17.5c-.3,3-.7,5.9-1.2,8.8l1,.2c.3-2,.6-4,.9-6h0v-.1h0v-.1h0v-.1h0c.1-.7.1-1.4.2-2l-.9-.7h0Zm1.3-17.9l-1,.1c.1,2.3.2,4.6.2,6.9v2h1v-.3h0v-1.2h0v-.1h0v-.1h0v-.1h0v-.1h0v-.1h0v-.1h0v-.1h0v-.1h0v-.1h0v-.1h0v-.1h0v-.1h0v-.1h0v-.1h0v-.1h0v-.1h0v-.2h0v-.2h0c-.1-4.3-.2-4.9-.2-5.5h0Zm-2.5-17.8l-1,.2c.6,2.9,1.2,5.8,1.6,8.8l1-.1c-.3-2.3-.7-4.7-1.2-7h0v-.1h0v-.1h0v-.1h0c-.2-.9-.3-1.2-.4-1.6h0Zm-5.2-17.2l-.9.4c1.1,2.8,2.1,5.6,2.9,8.4l1-.3c-.6-1.8-1.1-3.6-1.8-5.4h0q0-.1-.1-.2h0v-.1h0v-.1h0v-.1h0v-.1h0v-.1h0v-.1h0v-.1h0v-.1h0v-.1h0q0-.1-.1-.2h0c-.9-1.5-1-1.7-1-1.8h0Zm-7.9-16.2l-.9.5c1.5,2.6,2.9,5.2,4.2,7.9l.9-.4c-1-2-2-4-3.1-6h0v-.1h0v-.1h0c-.7-1.1-.9-1.4-1.1-1.8h0Zm-10.3-14.7l-.8.6c1.9,2.3,3.7,4.7,5.4,7.1l.8-.6c-.6-.9-1.2-1.7-1.8-2.5h0l-.1-.1h0l-.1-.1h0c-1.3-1.9-2.3-3.2-3.4-4.4h0Zm-12.4-13l-.7.7c2.2,2,4.4,4.1,6.4,6.2l.7-.7c-2-2.1-4.2-4.2-6.4-6.2h0Zm-14.4-10.9l-.5.8c2.5,1.6,4.9,3.3,7.3,5.1l.6-.8h0l-.1-.1h0c-2.1-1.6-4.2-3.1-6.4-4.5h-.2q-.6-.4-.7-.5.1.1,0,0c.1.1.1,0,0,0h0q.1,0,0,0h0Zm-15.8-8.5l-.4.9c2.7,1.2,5.4,2.5,8,3.9l.5-.9c-.4-.2-.8-.4-1.2-.7h0s-.1,0-.1-.1h0s-.1,0-.1-.1h-.7s-.1,0-.1-.1h0q-.1,0-.2-.1h0c-4.8-2.4-5.2-2.6-5.7-2.8h0Zm-17-5.9l-.3,1c2.9.8,5.7,1.6,8.5,2.6l.3-.9h-.2c-2.9-1.2-5.6-2-8.3-2.7h0Zm-17.7-3.2l-.1,1c3,.3,5.9.7,8.8,1.2l.2-1c-.7-.1-1.5-.3-2.2-.4h-.5c-2.4-.4-4.3-.6-6.2-.8h0Zm-11.6-.6v1h2.6V0h-2.6q.1,0,0,0c.1,0,0,0,0,0h0Z"/>
    <text class="cls-6" transform="translate(75.41 56.48)"><tspan x="0" y="0">Size of PM2.5</tspan></text>
    <text class="cls-5" transform="translate(215.54 201.01) scale(.94 1)"><tspan x="0" y="0">Size of red blood cell</tspan></text>
    <g>
      <line class="cls-1" x1="232.2" y1="121.5" y2="122"/>
      <g>
        <line class="cls-3" x1="226.8" y1="121.5" x2="5.4" y2="122"/>
        <polygon class="cls-4" points="225.7 117.8 232.2 121.5 225.7 125.3 225.7 117.8"/>
        <polygon class="cls-4" points="6.5 118.3 0 122 6.5 125.7 6.5 118.3"/>
      </g>
    </g>
    <line class="cls-2" x1="237.2" y1="184.9" x2="197.2" y2="166"/>
    <g>
      <line class="cls-1" x1="159.2" y1="114.5" x2="72.7" y2="115"/>
      <g>
        <line class="cls-3" x1="153.8" y1="114.5" x2="78.1" y2="115"/>
        <polygon class="cls-4" points="152.7 110.8 159.2 114.5 152.7 118.3 152.7 110.8"/>
        <polygon class="cls-4" points="79.1 111.2 72.7 115 79.2 118.7 79.1 111.2"/>
      </g>
    </g>
  </g>
</svg>