<?xml version="1.0" encoding="UTF-8"?>
<svg id="Layer_2" data-name="Layer 2" xmlns="http://www.w3.org/2000/svg" viewBox="0 0 255.42 412.65">
  <defs>
    <style>
      .cls-1 {
        stroke-dasharray: 0 0 2.34 2.34;
      }

      .cls-1, .cls-2, .cls-3, .cls-4, .cls-5, .cls-6, .cls-7, .cls-8, .cls-9, .cls-10, .cls-11, .cls-12, .cls-13, .cls-14, .cls-15, .cls-16, .cls-17, .cls-18, .cls-19, .cls-20 {
        stroke: #000;
        stroke-miterlimit: 10;
        stroke-width: 1.6px;
      }

      .cls-1, .cls-2, .cls-3, .cls-5, .cls-6, .cls-7, .cls-8, .cls-9, .cls-10, .cls-11, .cls-12, .cls-13, .cls-14, .cls-15, .cls-16, .cls-17, .cls-18, .cls-19, .cls-20 {
        fill: none;
      }

      .cls-2 {
        stroke-dasharray: 0 0 2.38 2.38;
      }

      .cls-3 {
        stroke-dasharray: 0 0 2.47 2.47;
      }

      .cls-4 {
        fill: #fff;
      }

      .cls-5 {
        stroke-dasharray: 0 0 1.97 1.97;
      }

      .cls-6 {
        stroke-dasharray: 0 0 2.25 2.25;
      }

      .cls-7 {
        stroke-dasharray: 0 0 1.94 1.94;
      }

      .cls-8 {
        stroke-dasharray: 0 0 1.9 1.9;
      }

      .cls-9 {
        stroke-dasharray: 0 0 2.81 2.81;
      }

      .cls-11 {
        stroke-dasharray: 0 0 2.81 2.81;
      }

      .cls-12 {
        stroke-dasharray: 0 0 1.97 1.97;
      }

      .cls-13 {
        stroke-dasharray: 0 0 2.33 2.33;
      }

      .cls-14 {
        stroke-dasharray: 0 0 2.25 2.25;
      }

      .cls-15 {
        stroke-dasharray: 0 0 2.34 2.34;
      }

      .cls-16 {
        stroke-dasharray: 0 0 2.62 2.62;
      }

      .cls-17 {
        stroke-dasharray: 0 0 2.34 2.34;
      }

      .cls-18 {
        stroke-dasharray: 0 0 2.46 2.46;
      }

      .cls-19 {
        stroke-dasharray: 0 0 2.24 2.24;
      }

      .cls-20 {
        stroke-dasharray: 0 0 2.43 2.43;
      }
    </style>
  </defs>
  <g id="Layer_1-2" data-name="Layer 1">
    <g id="building">
      <rect class="cls-4" x="113.1" y="68.25" width="69.3" height="92.8"/>
      <rect class="cls-4" x="140.7" y="75.45" width="14.5" height="18.9"/>
      <rect class="cls-4" x="161.4" y="75.45" width="14.5" height="18.9"/>
      <rect class="cls-4" x="119.7" y="75.45" width="14.5" height="18.9"/>
      <rect class="cls-4" x="140.7" y="100.75" width="14.5" height="18.9"/>
      <rect class="cls-4" x="161.4" y="100.75" width="14.5" height="18.9"/>
      <rect class="cls-4" x="119.7" y="100.75" width="14.5" height="18.9"/>
      <rect class="cls-4" x="161.4" y="125.65" width="14.5" height="18.9"/>
      <rect class="cls-4" x="119.7" y="125.65" width="14.5" height="18.9"/>
      <rect class="cls-4" x="140.7" y="125.65" width="14.5" height="18.9"/>
      <polygon class="cls-4" points="155.6 144.45 140.3 144.45 135.2 161.05 160.7 161.05 155.6 144.45"/>
      <line class="cls-10" x1="137.7" y1="152.75" x2="158.2" y2="152.75"/>
      <line class="cls-10" x1="139.1" y1="148.45" x2="156.8" y2="148.45"/>
      <line class="cls-10" x1="136.5" y1="156.75" x2="159.4" y2="156.75"/>
      <rect class="cls-4" x="160.7" y="59.15" width="13.6" height="9.2"/>
      <g>
        <path class="cls-4" d="m239.5,3.25c-.3-.3-.6-.5-.9-.8"/>
        <path class="cls-4" d="m236.7,1.35c-3.6-1.7-5.3.9-6,3"/>
        <path class="cls-4" d="m230.3,5.45c-.2.7-.2,1.2-.2,1.2-.3-.3-.7-.5-1-.7"/>
        <path class="cls-4" d="m227.1,4.65c-8.2-4.3-12.3,2.4-13.8,6.2"/>
        <path class="cls-4" d="m212.9,11.95c-.2.7-.4,1.1-.4,1.1-.3-.3-.5-.6-.8-.9"/>
        <path class="cls-4" d="m210.1,10.55c-9.2-8.6-15.8-.8-18.4,3.2"/>
        <path class="cls-4" d="m191.1,14.75c-.4.6-.6,1.1-.6,1.1-.4-.2-.7-.4-1.1-.5"/>
        <path class="cls-4" d="m187.4,14.25c-12.3-4.8-13.8,5.9-13.9,10.9"/>
        <path class="cls-4" d="m173.5,26.35c0,.7.1,1.2.1,1.2-.4-.1-.8-.1-1.2-.2"/>
        <path class="cls-4" d="m170.1,27.15c-8.8,0-9,8.3-8.5,12.5"/>
        <path class="cls-4" d="m161.8,40.75c.1.7.2,1.2.2,1.2-.3.3-.6.5-.9.8"/>
        <path class="cls-4" d="m159.3,44.65c-4.8,6-1.7,10.6.7,12.9"/>
        <path class="cls-4" d="m161,58.45c.6.5,1,.7,1,.7"/>
      </g>
      <g>
        <path class="cls-4" d="m228.1,20.05c-.3-.3-.6-.5-.9-.7"/>
        <path class="cls-4" d="m225,18.35c-1.4-.2-2.3.7-2.8,1.8"/>
        <path class="cls-4" d="m221.8,21.15c-.2.7-.3,1.2-.3,1.2-.3-.3-.7-.5-1-.7"/>
        <path class="cls-4" d="m218.1,20.45c-4.3-1.4-6.7,1.7-7.9,4.1"/>
        <path class="cls-4" d="m209.6,25.75c-.3.7-.4,1.1-.4,1.1-.3-.3-.5-.6-.8-.9"/>
        <path class="cls-4" d="m206.6,24.35c-5.5-4.4-9.6-.4-11.5,2.4"/>
        <path class="cls-4" d="m194.4,27.75c-.4.6-.6,1.1-.6,1.1-.4-.2-.7-.4-1.1-.5"/>
        <path class="cls-4" d="m190.5,27.35c-7-2.1-8.4,3.7-8.6,7.2"/>
        <path class="cls-4" d="m181.9,35.75c0,.7.1,1.2.1,1.2-.4-.1-.8-.1-1.2-.2"/>
        <path class="cls-4" d="m178,36.85c-4.2.8-4.7,4.9-4.5,7.7"/>
        <path class="cls-4" d="m173.6,45.85c.1.7.2,1.2.2,1.2-.3.3-.6.6-.9.8"/>
        <path class="cls-4" d="m171.4,49.75c-2.3,3.4-.8,6.2.6,7.8"/>
        <path class="cls-4" d="m172.9,58.35c.5.5,1,.7,1,.7"/>
      </g>
    </g>
    <g id="grill">
      <g>
        <path class="cls-10" d="m142.4,179.95c-.3-.3-.6-.5-.9-.8"/>
        <path class="cls-6" d="m139.5,178.05c-3.6-1.7-5.3.9-6,3"/>
        <path class="cls-10" d="m133.2,182.15c-.2.7-.2,1.2-.2,1.2-.3-.3-.7-.5-1-.7"/>
        <path class="cls-17" d="m130,181.35c-8.2-4.3-12.3,2.4-13.8,6.2"/>
        <path class="cls-10" d="m115.7,188.65c-.2.7-.4,1.1-.4,1.1-.3-.3-.5-.6-.8-.9"/>
        <path class="cls-1" d="m112.9,187.15c-9.2-8.6-15.8-.8-18.4,3.2"/>
        <path class="cls-10" d="m94,191.45c-.4.6-.6,1.1-.6,1.1-.4-.2-.7-.4-1.1-.5"/>
        <path class="cls-13" d="m90.2,190.95c-12.3-4.8-13.8,5.9-13.9,10.9"/>
        <path class="cls-10" d="m76.4,203.05c0,.7.1,1.2.1,1.2-.4-.1-.8-.1-1.2-.2"/>
        <path class="cls-15" d="m72.9,203.85c-8.8,0-9,8.3-8.5,12.5"/>
        <path class="cls-10" d="m64.6,217.45c.1.7.2,1.2.2,1.2-.3.3-.6.5-.9.8"/>
        <path class="cls-16" d="m62.2,221.35c-4.8,6-1.7,10.6.7,12.9"/>
        <path class="cls-10" d="m63.9,235.05c.6.5,1,.7,1,.7"/>
      </g>
      <g>
        <path class="cls-10" d="m130,194.55c-.3-.3-.6-.5-.9-.7"/>
        <path class="cls-2" d="m126.9,192.85c-1.4-.2-2.3.7-2.8,1.8"/>
        <path class="cls-10" d="m123.6,195.65c-.2.7-.3,1.2-.3,1.2-.3-.3-.7-.5-1-.7"/>
        <path class="cls-9" d="m119.9,194.85c-4.3-1.4-6.7,1.7-7.9,4.1"/>
        <path class="cls-10" d="m111.4,200.25c-.3.7-.4,1.1-.4,1.1-.3-.3-.5-.6-.8-.9"/>
        <path class="cls-3" d="m108.5,198.75c-5.5-4.4-9.6-.4-11.5,2.4"/>
        <path class="cls-10" d="m96.3,202.25c-.4.6-.6,1.1-.6,1.1-.4-.2-.7-.4-1.1-.5"/>
        <path class="cls-18" d="m92.3,201.85c-7-2.1-8.4,3.7-8.6,7.2"/>
        <path class="cls-10" d="m83.7,210.25c0,.7.1,1.2.1,1.2-.4-.1-.8-.1-1.2-.2"/>
        <path class="cls-11" d="m79.8,211.35c-4.2.8-4.7,4.9-4.5,7.7"/>
        <path class="cls-10" d="m75.5,220.35c.1.7.2,1.2.2,1.2-.3.3-.6.6-.9.8"/>
        <path class="cls-20" d="m73.3,224.25c-2.3,3.5-.8,6.2.6,7.8"/>
        <path class="cls-10" d="m74.7,232.85c.5.5,1,.7,1,.7"/>
      </g>
      <g>
        <path class="cls-10" d="m136.9,203.45c-.3-.2-.5-.4-.8-.6"/>
        <path class="cls-8" d="m134.4,202.05c-1.2-.2-1.8.6-2.2,1.4"/>
        <path class="cls-10" d="m131.8,204.35c-.2.5-.2.9-.2.9-.3-.2-.5-.4-.8-.6"/>
        <path class="cls-14" d="m128.8,203.75c-3.4-1.1-5.4,1.4-6.3,3.3"/>
        <path class="cls-10" d="m122,208.05c-.2.5-.3.9-.3.9-.2-.3-.4-.5-.6-.7"/>
        <path class="cls-5" d="m119.7,206.85c-4.4-3.5-7.7-.3-9.2,1.9"/>
        <path class="cls-10" d="m109.9,209.55c-.3.5-.5.8-.5.8-.3-.2-.6-.3-.9-.4"/>
        <path class="cls-12" d="m106.7,209.35c-5.6-1.7-6.7,3-6.8,5.8"/>
        <path class="cls-10" d="m99.9,216.05v1c-.3-.1-.6-.1-1-.2"/>
        <path class="cls-19" d="m96.7,216.85c-3.3.6-3.7,3.9-3.6,6.1"/>
        <path class="cls-10" d="m93.3,224.15c.1.6.2.9.2.9-.3.2-.5.4-.7.7"/>
        <path class="cls-7" d="m91.5,227.25c-1.8,2.8-.7,5,.5,6.2"/>
        <path class="cls-10" d="m92.7,234.15c.4.4.8.6.8.6"/>
      </g>
      <path class="cls-10" d="m42.7,237.45s30.1-23.3,71,0"/>
      <path class="cls-10" d="m42.7,237.45s-1.8,32.6,35.8,32.6,35.2-32.6,35.2-32.6c-40.9,23.3-71,0-71,0"/>
      <line class="cls-10" x1="67.8" y1="269.05" x2="59.1" y2="285.95"/>
      <line class="cls-10" x1="88.8" y1="269.05" x2="97.5" y2="285.95"/>
      <line class="cls-10" x1="78.2" y1="227.15" x2="70" y2="247.45"/>
      <line class="cls-10" x1="86.1" y1="227.75" x2="78.2" y2="247.85"/>
      <line class="cls-10" x1="93.7" y1="229.25" x2="86.4" y2="247.45"/>
      <line class="cls-10" x1="101" y1="231.55" x2="95.5" y2="245.25"/>
      <line class="cls-10" x1="51.6" y1="232.55" x2="48.2" y2="240.85"/>
      <line class="cls-10" x1="61.1" y1="229.15" x2="55.1" y2="243.95"/>
      <line class="cls-10" x1="70" y1="227.55" x2="62.5" y2="246.15"/>
      <line class="cls-10" x1="108.1" y1="234.55" x2="105.3" y2="241.75"/>
    </g>
    <g id="vehicle">
      <g>
        <path class="cls-10" d="m254.7,370.35c-.2-.4-.3-.8-.5-1.1"/>
        <path class="cls-6" d="m253,367.35c-2.5-3.1-5.1-1.5-6.7.1"/>
        <path class="cls-10" d="m245.5,368.25c-.5.5-.7,1-.7,1-.2-.4-.4-.7-.6-1.1"/>
        <path class="cls-17" d="m242.9,366.15c-5.5-7.4-12.1-3.2-15.2-.5"/>
        <path class="cls-10" d="m226.9,366.45c-.5.5-.8.9-.8.9-.1-.4-.2-.8-.3-1.2"/>
        <path class="cls-1" d="m225.1,363.95c-4.5-11.8-13.9-7.7-17.9-5.2"/>
        <path class="cls-10" d="m206.2,359.35c-.6.4-1,.7-1,.7-.2-.3-.5-.7-.7-1"/>
        <path class="cls-13" d="m203,357.35c-9-9.7-15-.8-17.2,3.7"/>
        <path class="cls-10" d="m185.2,362.05c-.3.7-.5,1.1-.5,1.1-.3-.3-.7-.5-1-.7"/>
        <path class="cls-15" d="m181.8,361.25c-7.9-3.9-11.7,3.5-13.1,7.5"/>
        <path class="cls-10" d="m168.4,369.85c-.2.7-.3,1.2-.3,1.2-.4.1-.8.2-1.2.3"/>
        <path class="cls-16" d="m164.5,372.35c-6.9,3.3-6.1,8.8-5,11.9"/>
        <path class="cls-10" d="m159.9,385.45c.3.7.6,1.1.6,1.1"/>
      </g>
      <g>
        <path class="cls-10" d="m226.4,379.85c-.2-.4-.3-.8-.5-1.1"/>
        <path class="cls-2" d="m224.4,376.95c-1.2-.8-2.4-.4-3.3.4"/>
        <path class="cls-10" d="m220.2,378.15c-.5.5-.7.9-.7.9-.2-.4-.4-.7-.6-1.1"/>
        <path class="cls-9" d="m217.2,375.75c-3.2-3.2-6.8-1.4-8.9.2"/>
        <path class="cls-10" d="m207.3,376.85c-.5.5-.8.9-.8.9-.1-.4-.2-.8-.3-1.2"/>
        <path class="cls-3" d="m205.2,374.25c-3-6.4-8.5-4.5-11.4-2.9"/>
        <path class="cls-10" d="m192.8,371.95c-.6.4-1,.7-1,.7-.2-.3-.5-.7-.7-1"/>
        <path class="cls-18" d="m189.4,369.95c-5.4-5-9.1-.3-10.9,2.7"/>
        <path class="cls-10" d="m178,373.75c-.3.7-.5,1.1-.5,1.1-.3-.3-.7-.5-1-.7"/>
        <path class="cls-11" d="m174,372.95c-4.1-1.1-6.3,2.4-7.4,4.9"/>
        <path class="cls-10" d="m166.1,379.25c-.2.7-.3,1.2-.3,1.2-.4.1-.8.2-1.1.4"/>
        <path class="cls-20" d="m162.4,381.75c-3.5,2.1-3.5,5.2-2.9,7.3"/>
        <path class="cls-10" d="m160,390.15c.3.7.5,1.1.5,1.1"/>
      </g>
      <path class="cls-10" d="m26.9,401.25h18.5v-47.1l-24.6,2.2s-.6,7.4-8.1,18.5l-11.9,12.8v13.6h7.8"/>
      <polygon class="cls-10" points="151.2 391.15 47.2 391.15 46.8 337.85 150.8 337.85 151.2 391.15"/>
      <circle class="cls-10" cx="17.7" cy="401.75" r="9.2" transform="translate(-39.5 3.7) rotate(-5.65)"/>
      <circle class="cls-10" cx="65.3" cy="402.65" r="9.2"/>
      <circle class="cls-10" cx="127.2" cy="402.65" r="9.2"/>
      <polygon class="cls-10" points="19.1 376.55 25.3 360.15 33.1 360.15 33.1 376.55 19.1 376.55"/>
      <rect class="cls-10" x="151.2" y="386.45" width="9.3" height="4.7"/>
    </g>
  </g>
</svg>