<?xml version="1.0" encoding="utf-8"?>
<!-- Generator: Adobe Illustrator 26.0.3, SVG Export Plug-In . SVG Version: 6.00 Build 0)  -->
<svg version="1.1" id="Layer_1" xmlns="http://www.w3.org/2000/svg" xmlns:xlink="http://www.w3.org/1999/xlink" x="0px" y="0px"
	 viewBox="0 0 446 612" style="enable-background:new 0 0 446 612;" xml:space="preserve">
<style type="text/css">
	.st0{fill:none;stroke:#000000;stroke-width:1.6;stroke-miterlimit:10;}
	.st1{fill:none;stroke:#000000;stroke-width:1.6;stroke-miterlimit:10;stroke-dasharray:2.2461,2.2461;}
	.st2{fill:none;stroke:#000000;stroke-width:1.6;stroke-miterlimit:10;stroke-dasharray:2.3446,2.3446;}
	.st3{fill:none;stroke:#000000;stroke-width:1.6;stroke-miterlimit:10;stroke-dasharray:2.3389,2.3389;}
	.st4{fill:none;stroke:#000000;stroke-width:1.6;stroke-miterlimit:10;stroke-dasharray:2.3327,2.3327;}
	.st5{fill:none;stroke:#000000;stroke-width:1.6;stroke-miterlimit:10;stroke-dasharray:2.3418,2.3418;}
	.st6{fill:none;stroke:#000000;stroke-width:1.6;stroke-miterlimit:10;stroke-dasharray:2.6215,2.6215;}
	.st7{fill:none;stroke:#000000;stroke-width:1.6;stroke-miterlimit:10;stroke-dasharray:2.3799,2.3799;}
	.st8{fill:none;stroke:#000000;stroke-width:1.6;stroke-miterlimit:10;stroke-dasharray:2.8089,2.8089;}
	.st9{fill:none;stroke:#000000;stroke-width:1.6;stroke-miterlimit:10;stroke-dasharray:2.4694,2.4694;}
	.st10{fill:none;stroke:#000000;stroke-width:1.6;stroke-miterlimit:10;stroke-dasharray:2.4625,2.4625;}
	.st11{fill:none;stroke:#000000;stroke-width:1.6;stroke-miterlimit:10;stroke-dasharray:2.8059,2.8059;}
	.st12{fill:none;stroke:#000000;stroke-width:1.6;stroke-miterlimit:10;stroke-dasharray:2.4251,2.4251;}
	.st13{fill:#FFFFFF;stroke:#000000;stroke-width:1.6;stroke-miterlimit:10;}
	.st14{fill:none;stroke:#000000;stroke-width:1.6;stroke-miterlimit:10;stroke-dasharray:1.9034,1.9034;}
	.st15{fill:none;stroke:#000000;stroke-width:1.6;stroke-miterlimit:10;stroke-dasharray:2.2467,2.2467;}
	.st16{fill:none;stroke:#000000;stroke-width:1.6;stroke-miterlimit:10;stroke-dasharray:1.9745,1.9745;}
	.st17{fill:none;stroke:#000000;stroke-width:1.6;stroke-miterlimit:10;stroke-dasharray:1.9697,1.9697;}
	.st18{fill:none;stroke:#000000;stroke-width:1.6;stroke-miterlimit:10;stroke-dasharray:2.2437,2.2437;}
	.st19{fill:none;stroke:#000000;stroke-width:1.6;stroke-miterlimit:10;stroke-dasharray:1.9399,1.9399;}
</style>
<g id="powerplant">
	<polygon class="st0" points="152.4,195.2 239.1,195.2 239.1,156.1 211.3,171.7 211.3,158.6 180.8,174.6 180.8,160.5 152.4,175.6 	
		"/>
	<polyline class="st0" points="183.4,173.2 180.4,93.1 177.6,93.1 174.8,93.1 172.1,165.1 	"/>
	<polyline class="st0" points="215.1,169.6 212.2,93.1 209.4,93.1 206.6,93.1 204,162.4 	"/>
	<g>
		<g>
			<path class="st0" d="M252.4,37.3c-0.3-0.3-0.6-0.5-0.9-0.8"/>
			<path class="st1" d="M249.5,35.4c-3.6-1.7-5.3,0.9-6,3"/>
			<path class="st0" d="M243.2,39.5c-0.2,0.7-0.2,1.2-0.2,1.2c-0.3-0.3-0.7-0.5-1-0.7"/>
			<path class="st2" d="M240,38.7c-8.2-4.3-12.3,2.4-13.8,6.2"/>
			<path class="st0" d="M225.7,46c-0.2,0.7-0.4,1.1-0.4,1.1c-0.3-0.3-0.5-0.6-0.8-0.9"/>
			<path class="st3" d="M222.9,44.5c-9.2-8.6-15.8-0.8-18.4,3.2"/>
			<path class="st0" d="M204,48.7c-0.4,0.6-0.6,1.1-0.6,1.1c-0.4-0.2-0.7-0.4-1.1-0.5"/>
			<path class="st4" d="M200.2,48.3c-12.3-4.8-13.8,5.9-13.9,10.9"/>
			<path class="st0" d="M186.4,60.3c0,0.7,0.1,1.2,0.1,1.2c-0.4-0.1-0.8-0.2-1.2-0.2"/>
			<path class="st5" d="M182.9,61.2c-8.8,0-9,8.3-8.5,12.5"/>
			<path class="st0" d="M174.6,74.8c0.1,0.7,0.2,1.2,0.2,1.2c-0.3,0.3-0.6,0.5-0.9,0.8"/>
			<path class="st6" d="M172.2,78.7c-4.8,6-1.7,10.6,0.7,12.9"/>
			<path class="st0" d="M173.9,92.4c0.6,0.5,1,0.7,1,0.7"/>
		</g>
	</g>
	<g>
		<g>
			<path class="st0" d="M234.8,54.1c-0.3-0.3-0.6-0.5-0.9-0.7"/>
			<path class="st7" d="M231.7,52.4c-1.4-0.2-2.3,0.7-2.8,1.8"/>
			<path class="st0" d="M228.5,55.2c-0.2,0.7-0.3,1.2-0.3,1.2c-0.3-0.3-0.7-0.5-1-0.7"/>
			<path class="st8" d="M224.8,54.4c-4.3-1.4-6.7,1.7-7.9,4.1"/>
			<path class="st0" d="M216.3,59.8c-0.3,0.7-0.4,1.1-0.4,1.1c-0.3-0.3-0.5-0.6-0.8-0.9"/>
			<path class="st9" d="M213.3,58.3c-5.5-4.4-9.6-0.4-11.5,2.4"/>
			<path class="st0" d="M201.1,61.8c-0.4,0.6-0.6,1.1-0.6,1.1c-0.4-0.2-0.7-0.4-1.1-0.5"/>
			<path class="st10" d="M197.2,61.4c-7-2.1-8.4,3.7-8.6,7.2"/>
			<path class="st0" d="M188.6,69.8c0,0.7,0.1,1.2,0.1,1.2c-0.4-0.1-0.8-0.1-1.2-0.2"/>
			<path class="st11" d="M184.7,70.9c-4.2,0.8-4.7,4.9-4.5,7.7"/>
			<path class="st0" d="M180.3,79.9c0.1,0.7,0.2,1.2,0.2,1.2c-0.3,0.3-0.6,0.6-0.9,0.8"/>
			<path class="st12" d="M178.1,83.8c-2.3,3.4-0.8,6.2,0.6,7.8"/>
			<path class="st0" d="M179.6,92.4c0.5,0.5,1,0.7,1,0.7"/>
		</g>
	</g>
	<g>
		<g>
			<path class="st0" d="M206.6,93.1c0,0-0.1-0.4-0.2-1.2"/>
			<path class="st5" d="M206.1,89.6c-0.3-4.6,0.6-12,9.7-11.2"/>
			<path class="st0" d="M217,78.5c0.4,0.1,0.8,0.1,1.2,0.2c0,0,0-0.5-0.1-1.2"/>
			<path class="st4" d="M218.2,75.2c0.3-5.4,2.6-14.7,14.9-9.2"/>
			<path class="st0" d="M234.1,66.5c0.4,0.2,0.7,0.3,1.1,0.5c0,0,0.2-0.4,0.6-1.1"/>
			<path class="st3" d="M237,64c3-4.3,9.6-10.6,18.6-1.4"/>
			<path class="st0" d="M256.4,63.4c0.3,0.3,0.5,0.6,0.8,0.9c0,0,0.1-0.4,0.4-1.1"/>
			<path class="st2" d="M258.4,61c1.9-4,6.3-9.5,14.4-4.5"/>
			<path class="st0" d="M273.8,57.1c0.3,0.2,0.6,0.5,1,0.7c0,0,0.1-0.5,0.2-1.2"/>
			<path class="st1" d="M275.7,54.6c1-2,2.9-3.7,6.6-1.4"/>
			<path class="st0" d="M283.2,53.8c0.3,0.2,0.6,0.5,0.9,0.8"/>
		</g>
	</g>
	<g>
		<g>
			<path class="st0" d="M212.2,93.1c0,0-0.1-0.5-0.2-1.2"/>
			<path class="st11" d="M211.8,89.2c0.1-2.9,1.2-6.3,5.9-6.4"/>
			<path class="st0" d="M219.1,82.9c0.4,0,0.8,0.1,1.2,0.2c0,0,0-0.5-0.1-1.2"/>
			<path class="st10" d="M220.4,79.4c0.5-3.7,2.4-8.4,9.6-5.6"/>
			<path class="st0" d="M231.2,74.3c0.3,0.2,0.7,0.3,1.1,0.5c0,0,0.2-0.4,0.6-1.1"/>
			<path class="st9" d="M234.2,71.8c2.3-2.7,6.4-5.6,11.7-0.6"/>
			<path class="st0" d="M246.8,72.1c0.3,0.3,0.5,0.6,0.8,0.9c0,0,0.1-0.5,0.4-1.1"/>
			<path class="st8" d="M249.2,69.3c1.5-2.3,4.2-4.5,8.5-2.3"/>
			<path class="st0" d="M258.9,67.7c0.3,0.2,0.6,0.4,1,0.7c0,0,0.1-0.5,0.3-1.2"/>
			<path class="st7" d="M261.2,65.2c0.7-0.8,1.7-1.1,3.3-0.4"/>
			<path class="st0" d="M265.6,65.4c0.3,0.2,0.6,0.5,0.9,0.7"/>
		</g>
	</g>
	<polygon class="st0" points="174.8,93.1 180.6,93.1 180.9,101.5 174.4,101.5 	"/>
	<polygon class="st0" points="174.2,109.3 181,109.3 181.4,117.7 173.9,117.7 	"/>
	<polygon class="st0" points="206.6,93.1 212.3,93.1 212.7,101.5 206.2,101.5 	"/>
	<polygon class="st0" points="206,109.3 212.8,109.3 213.1,117.7 205.7,117.7 	"/>
</g>
<g id="building">
	<rect x="223.3" y="243.2" class="st13" width="69.3" height="92.8"/>
	<rect x="250.9" y="250.4" class="st13" width="14.5" height="18.9"/>
	<rect x="271.6" y="250.4" class="st13" width="14.5" height="18.9"/>
	<rect x="229.9" y="250.4" class="st13" width="14.5" height="18.9"/>
	<rect x="250.9" y="275.7" class="st13" width="14.5" height="18.9"/>
	<rect x="271.6" y="275.7" class="st13" width="14.5" height="18.9"/>
	<rect x="229.9" y="275.7" class="st13" width="14.5" height="18.9"/>
	<rect x="271.6" y="300.6" class="st13" width="14.5" height="18.9"/>
	<rect x="229.9" y="300.6" class="st13" width="14.5" height="18.9"/>
	<rect x="250.9" y="300.6" class="st13" width="14.5" height="18.9"/>
	<polygon class="st13" points="265.8,319.4 250.5,319.4 245.4,336 270.9,336 	"/>
	<line class="st13" x1="247.9" y1="327.7" x2="268.4" y2="327.7"/>
	<line class="st13" x1="249.3" y1="323.4" x2="267" y2="323.4"/>
	<line class="st13" x1="246.7" y1="331.7" x2="269.6" y2="331.7"/>
	<rect x="270.9" y="234.1" class="st13" width="13.6" height="9.2"/>
	<g>
		<g>
			<path class="st13" d="M349.7,178.2c-0.3-0.3-0.6-0.5-0.9-0.8"/>
			<path class="st13" d="M346.9,176.3c-3.6-1.7-5.3,0.9-6,3"/>
			<path class="st13" d="M340.5,180.4c-0.2,0.7-0.2,1.2-0.2,1.2c-0.3-0.3-0.7-0.5-1-0.7"/>
			<path class="st13" d="M337.3,179.6c-8.2-4.3-12.3,2.4-13.8,6.2"/>
			<path class="st13" d="M323.1,186.9c-0.2,0.7-0.4,1.1-0.4,1.1c-0.3-0.3-0.5-0.6-0.8-0.9"/>
			<path class="st13" d="M320.3,185.5c-9.2-8.6-15.8-0.8-18.4,3.2"/>
			<path class="st13" d="M301.3,189.7c-0.4,0.6-0.6,1.1-0.6,1.1c-0.4-0.2-0.7-0.4-1.1-0.5"/>
			<path class="st13" d="M297.6,189.2c-12.3-4.8-13.8,5.9-13.9,10.9"/>
			<path class="st13" d="M283.7,201.3c0,0.7,0.1,1.2,0.1,1.2c-0.4-0.1-0.8-0.1-1.2-0.2"/>
			<path class="st13" d="M280.3,202.1c-8.8,0-9,8.3-8.5,12.5"/>
			<path class="st13" d="M272,215.7c0.1,0.7,0.2,1.2,0.2,1.2c-0.3,0.3-0.6,0.5-0.9,0.8"/>
			<path class="st13" d="M269.5,219.6c-4.8,6-1.7,10.6,0.7,12.9"/>
			<path class="st13" d="M271.2,233.4c0.6,0.5,1,0.7,1,0.7"/>
		</g>
	</g>
	<g>
		<g>
			<path class="st13" d="M338.3,195c-0.3-0.3-0.6-0.5-0.9-0.7"/>
			<path class="st13" d="M335.2,193.3c-1.4-0.2-2.3,0.7-2.8,1.8"/>
			<path class="st13" d="M332,196.1c-0.2,0.7-0.3,1.2-0.3,1.2c-0.3-0.3-0.7-0.5-1-0.7"/>
			<path class="st13" d="M328.3,195.4c-4.3-1.4-6.7,1.7-7.9,4.1"/>
			<path class="st13" d="M319.8,200.7c-0.3,0.7-0.4,1.1-0.4,1.1c-0.3-0.3-0.5-0.6-0.8-0.9"/>
			<path class="st13" d="M316.8,199.3c-5.5-4.4-9.6-0.4-11.5,2.4"/>
			<path class="st13" d="M304.6,202.7c-0.4,0.6-0.6,1.1-0.6,1.1c-0.4-0.2-0.7-0.4-1.1-0.5"/>
			<path class="st13" d="M300.7,202.3c-7-2.1-8.4,3.7-8.6,7.2"/>
			<path class="st13" d="M292.1,210.7c0,0.7,0.1,1.2,0.1,1.2c-0.4-0.1-0.8-0.1-1.2-0.2"/>
			<path class="st13" d="M288.2,211.8c-4.2,0.8-4.7,4.9-4.5,7.7"/>
			<path class="st13" d="M283.8,220.8c0.1,0.7,0.2,1.2,0.2,1.2c-0.3,0.3-0.6,0.6-0.9,0.8"/>
			<path class="st13" d="M281.6,224.7c-2.3,3.4-0.8,6.2,0.6,7.8"/>
			<path class="st13" d="M283.1,233.3c0.5,0.5,1,0.7,1,0.7"/>
		</g>
	</g>
</g>
<g id="grill">
	<g>
		<g>
			<path class="st0" d="M252.6,354.9c-0.3-0.3-0.6-0.5-0.9-0.8"/>
			<path class="st1" d="M249.7,353c-3.6-1.7-5.3,0.9-6,3"/>
			<path class="st0" d="M243.4,357.1c-0.2,0.7-0.2,1.2-0.2,1.2c-0.3-0.3-0.7-0.5-1-0.7"/>
			<path class="st2" d="M240.2,356.3c-8.2-4.3-12.3,2.4-13.8,6.2"/>
			<path class="st0" d="M225.9,363.6c-0.2,0.7-0.4,1.1-0.4,1.1c-0.3-0.3-0.5-0.6-0.8-0.9"/>
			<path class="st3" d="M223.1,362.1c-9.2-8.6-15.8-0.8-18.4,3.2"/>
			<path class="st0" d="M204.2,366.4c-0.4,0.6-0.6,1.1-0.6,1.1c-0.4-0.2-0.7-0.4-1.1-0.5"/>
			<path class="st4" d="M200.4,365.9c-12.3-4.8-13.8,5.9-13.9,10.9"/>
			<path class="st0" d="M186.6,378c0,0.7,0.1,1.2,0.1,1.2c-0.4-0.1-0.8-0.1-1.2-0.2"/>
			<path class="st5" d="M183.1,378.8c-8.8,0-9,8.3-8.5,12.5"/>
			<path class="st0" d="M174.8,392.4c0.1,0.7,0.2,1.2,0.2,1.2c-0.3,0.3-0.6,0.5-0.9,0.8"/>
			<path class="st6" d="M172.4,396.3c-4.8,6-1.7,10.6,0.7,12.9"/>
			<path class="st0" d="M174.1,410c0.6,0.5,1,0.7,1,0.7"/>
		</g>
	</g>
	<g>
		<g>
			<path class="st0" d="M240.2,369.5c-0.3-0.3-0.6-0.5-0.9-0.7"/>
			<path class="st7" d="M237.1,367.8c-1.4-0.2-2.3,0.7-2.8,1.8"/>
			<path class="st0" d="M233.8,370.6c-0.2,0.7-0.3,1.2-0.3,1.2c-0.3-0.3-0.7-0.5-1-0.7"/>
			<path class="st8" d="M230.1,369.8c-4.3-1.4-6.7,1.7-7.9,4.1"/>
			<path class="st0" d="M221.6,375.2c-0.3,0.7-0.4,1.1-0.4,1.1c-0.3-0.3-0.5-0.6-0.8-0.9"/>
			<path class="st9" d="M218.7,373.7c-5.5-4.4-9.6-0.4-11.5,2.4"/>
			<path class="st0" d="M206.5,377.2c-0.4,0.6-0.6,1.1-0.6,1.1c-0.4-0.2-0.7-0.4-1.1-0.5"/>
			<path class="st10" d="M202.5,376.8c-7-2.1-8.4,3.7-8.6,7.2"/>
			<path class="st0" d="M193.9,385.2c0,0.7,0.1,1.2,0.1,1.2c-0.4-0.1-0.8-0.1-1.2-0.2"/>
			<path class="st11" d="M190,386.3c-4.2,0.8-4.7,4.9-4.5,7.7"/>
			<path class="st0" d="M185.7,395.3c0.1,0.7,0.2,1.2,0.2,1.2c-0.3,0.3-0.6,0.6-0.9,0.8"/>
			<path class="st12" d="M183.5,399.2c-2.3,3.5-0.8,6.2,0.6,7.8"/>
			<path class="st0" d="M184.9,407.8c0.5,0.5,1,0.7,1,0.7"/>
		</g>
	</g>
	<g>
		<g>
			<path class="st0" d="M247.1,378.4c-0.3-0.2-0.5-0.4-0.8-0.6"/>
			<path class="st14" d="M244.6,377c-1.2-0.2-1.8,0.6-2.2,1.4"/>
			<path class="st0" d="M242,379.3c-0.2,0.5-0.2,0.9-0.2,0.9c-0.3-0.2-0.5-0.4-0.8-0.6"/>
			<path class="st15" d="M239,378.7c-3.4-1.1-5.4,1.4-6.3,3.3"/>
			<path class="st0" d="M232.2,383c-0.2,0.5-0.3,0.9-0.3,0.9c-0.2-0.3-0.4-0.5-0.6-0.7"/>
			<path class="st16" d="M229.9,381.8c-4.4-3.5-7.7-0.3-9.2,1.9"/>
			<path class="st0" d="M220.1,384.5c-0.3,0.5-0.5,0.8-0.5,0.8c-0.3-0.2-0.6-0.3-0.9-0.4"/>
			<path class="st17" d="M216.9,384.3c-5.6-1.7-6.7,3-6.8,5.8"/>
			<path class="st0" d="M210.1,391c0,0.6,0,1,0,1c-0.3-0.1-0.6-0.1-1-0.2"/>
			<path class="st18" d="M206.9,391.8c-3.3,0.6-3.7,3.9-3.6,6.1"/>
			<path class="st0" d="M203.5,399.1c0.1,0.6,0.2,0.9,0.2,0.9c-0.3,0.2-0.5,0.4-0.7,0.7"/>
			<path class="st19" d="M201.7,402.2c-1.8,2.8-0.7,5,0.5,6.2"/>
			<path class="st0" d="M202.9,409.1c0.4,0.4,0.8,0.6,0.8,0.6"/>
		</g>
	</g>
	<path class="st0" d="M152.9,412.4c0,0,30.1-23.3,71,0"/>
	<path class="st0" d="M152.9,412.4c0,0-1.8,32.6,35.8,32.6s35.2-32.6,35.2-32.6C183,435.7,152.9,412.4,152.9,412.4"/>
	<line class="st0" x1="178" y1="444" x2="169.3" y2="460.9"/>
	<line class="st0" x1="199" y1="444" x2="207.7" y2="460.9"/>
	<line class="st0" x1="188.4" y1="402.1" x2="180.2" y2="422.4"/>
	<line class="st0" x1="196.3" y1="402.7" x2="188.4" y2="422.8"/>
	<line class="st0" x1="203.9" y1="404.2" x2="196.6" y2="422.4"/>
	<line class="st0" x1="211.2" y1="406.5" x2="205.7" y2="420.2"/>
	<line class="st0" x1="161.8" y1="407.5" x2="158.4" y2="415.8"/>
	<line class="st0" x1="171.3" y1="404.1" x2="165.3" y2="418.9"/>
	<line class="st0" x1="180.2" y1="402.5" x2="172.7" y2="421.1"/>
	<line class="st0" x1="218.3" y1="409.5" x2="215.5" y2="416.7"/>
</g>
<g id="vehicle">
	<g>
		<g>
			<path class="st0" d="M364.9,545.3c-0.2-0.4-0.3-0.8-0.5-1.1"/>
			<path class="st1" d="M363.2,542.3c-2.5-3.1-5.1-1.5-6.7,0.1"/>
			<path class="st0" d="M355.7,543.2c-0.5,0.5-0.7,1-0.7,1c-0.2-0.4-0.4-0.7-0.6-1.1"/>
			<path class="st2" d="M353.1,541.1c-5.5-7.4-12.1-3.2-15.2-0.5"/>
			<path class="st0" d="M337.1,541.4c-0.5,0.5-0.8,0.9-0.8,0.9c-0.1-0.4-0.2-0.8-0.3-1.2"/>
			<path class="st3" d="M335.3,538.9c-4.5-11.8-13.9-7.7-17.9-5.2"/>
			<path class="st0" d="M316.4,534.3c-0.6,0.4-1,0.7-1,0.7c-0.2-0.3-0.5-0.7-0.7-1"/>
			<path class="st4" d="M313.2,532.3c-9-9.7-15-0.8-17.2,3.7"/>
			<path class="st0" d="M295.4,537c-0.3,0.7-0.5,1.1-0.5,1.1c-0.3-0.3-0.7-0.5-1-0.7"/>
			<path class="st5" d="M292,536.2c-7.9-3.9-11.7,3.5-13.1,7.5"/>
			<path class="st0" d="M278.6,544.8c-0.2,0.7-0.3,1.2-0.3,1.2c-0.4,0.1-0.8,0.2-1.2,0.3"/>
			<path class="st6" d="M274.7,547.3c-6.9,3.3-6.1,8.8-5,11.9"/>
			<path class="st0" d="M270.1,560.4c0.3,0.7,0.6,1.1,0.6,1.1"/>
		</g>
	</g>
	<g>
		<g>
			<path class="st0" d="M336.6,554.8c-0.2-0.4-0.3-0.8-0.5-1.1"/>
			<path class="st7" d="M334.6,551.9c-1.2-0.8-2.4-0.4-3.3,0.4"/>
			<path class="st0" d="M330.4,553.1c-0.5,0.5-0.7,0.9-0.7,0.9c-0.2-0.4-0.4-0.7-0.6-1.1"/>
			<path class="st8" d="M327.4,550.7c-3.2-3.2-6.8-1.4-8.9,0.2"/>
			<path class="st0" d="M317.5,551.8c-0.5,0.5-0.8,0.9-0.8,0.9c-0.1-0.4-0.2-0.8-0.3-1.2"/>
			<path class="st9" d="M315.4,549.2c-3-6.4-8.5-4.5-11.4-2.9"/>
			<path class="st0" d="M303,546.9c-0.6,0.4-1,0.7-1,0.7c-0.2-0.3-0.5-0.7-0.7-1"/>
			<path class="st10" d="M299.6,544.9c-5.4-5-9.1-0.3-10.9,2.7"/>
			<path class="st0" d="M288.2,548.7c-0.3,0.7-0.5,1.1-0.5,1.1c-0.3-0.3-0.7-0.5-1-0.7"/>
			<path class="st11" d="M284.2,547.9c-4.1-1.1-6.3,2.4-7.4,4.9"/>
			<path class="st0" d="M276.3,554.2c-0.2,0.7-0.3,1.2-0.3,1.2c-0.4,0.1-0.8,0.2-1.1,0.4"/>
			<path class="st12" d="M272.6,556.7c-3.5,2.1-3.5,5.2-2.9,7.3"/>
			<path class="st0" d="M270.2,565.1c0.3,0.7,0.5,1.1,0.5,1.1"/>
		</g>
	</g>
	<path class="st0" d="M137.1,576.2h18.5v-47.1l-24.6,2.2c0,0-0.6,7.4-8.1,18.5l-11.9,12.8v13.6h7.8"/>
	<polygon class="st0" points="261.4,566.1 157.4,566.1 157,512.8 261,512.8 	"/>
	<circle class="st0" cx="127.9" cy="576.7" r="9.2"/>
	<circle class="st0" cx="175.5" cy="577.6" r="9.2"/>
	<circle class="st0" cx="237.4" cy="577.6" r="9.2"/>
	<polygon class="st0" points="129.3,551.5 135.5,535.1 143.3,535.1 143.3,551.5 	"/>
	<rect x="261.4" y="561.4" class="st0" width="9.3" height="4.7"/>
</g>
</svg>
