<?xml version="1.0" encoding="UTF-8"?>
<svg id="Layer_2" data-name="Layer 2" xmlns="http://www.w3.org/2000/svg" xmlns:xlink="http://www.w3.org/1999/xlink" viewBox="0 0 320 290.95">
  <defs>
    <style>
      .cls-1 {
        clip-path: url(#clippath);
      }

      .cls-2 {
        fill: none;
      }

      .cls-2, .cls-3, .cls-4, .cls-5, .cls-6, .cls-7, .cls-8, .cls-9 {
        stroke-width: 0px;
      }

      .cls-3 {
        fill: #f5e58d;
      }

      .cls-4 {
        fill: #ac691e;
      }

      .cls-4, .cls-5, .cls-6, .cls-7, .cls-8, .cls-9 {
        fill-rule: evenodd;
      }

      .cls-10 {
        clip-path: url(#clippath-1);
      }

      .cls-5 {
        fill: #8b491b;
      }

      .cls-6 {
        fill: #7a3b19;
      }

      .cls-7 {
        fill: #5da4a1;
      }

      .cls-8 {
        fill: #f0e8da;
      }

      .cls-9 {
        fill: #9e561d;
      }
    </style>
    <clipPath id="clippath">
      <rect class="cls-2" y="279.2" width="320" height="11.76"/>
    </clipPath>
    <clipPath id="clippath-1">
      <rect class="cls-2" x="21.96" width="276" height="58.96"/>
    </clipPath>
  </defs>
  <g id="Layer_1-2" data-name="Layer 1">
    <path class="cls-5" d="M30.1,98.27h259.93v-40.12H30.1v40.12"/>
    <path class="cls-9" d="M8.06,98.27h304.01v181.01H8.06V98.27"/>
    <path class="cls-4" d="M74.72,80.83h170.69v198.45H74.72V80.83"/>
    <g class="cls-1">
      <path class="cls-8" d="M2.15,290.95h315.7c1.21,0,2.15-.94,2.15-2.15v-7.38c0-1.21-.94-2.15-2.15-2.15H2.15C1.07,279.28,0,280.22,0,281.43v7.38c0,1.21,1.07,2.15,2.15,2.15"/>
    </g>
    <path class="cls-5" d="M22.04,114.1h38.7v130.29H22.04V114.1"/>
    <path class="cls-7" d="M28.22,120.01h26.21v118.35h-26.21v-118.35"/>
    <path class="cls-6" d="M38.97,120.01h4.84v19.32h10.62v4.96h-10.62v19.99h10.62v4.97h-10.62v19.99h10.62v4.83h-10.62v19.99h10.62v4.97h-10.62v19.32h-4.84v-19.32h-10.75v-4.97h10.75v-19.99h-10.75v-4.83h10.75v-19.99h-10.75v-4.97h10.75v-19.99h-10.75v-4.96h10.75v-19.32"/>
    <path class="cls-5" d="M259.79,114.1h38.71v130.29h-38.71V114.1"/>
    <path class="cls-7" d="M266.11,120.01h26.21v118.35h-26.21v-118.35"/>
    <path class="cls-6" d="M276.72,120.01h4.97v19.32h10.62v4.96h-10.62v19.99h10.62v4.97h-10.62v19.99h10.62v4.83h-10.62v19.99h10.62v4.97h-10.62v19.32h-4.97v-19.32h-10.61v-4.97h10.61v-19.99h-10.61v-4.83h10.61v-19.99h-10.61v-4.97h10.61v-19.99h-10.61v-4.96h10.61v-19.32"/>
    <path class="cls-5" d="M8.06,265.86h304.01v13.42H8.06v-13.42"/>
    <path class="cls-9" d="M74.72,265.86h170.69v13.42H74.72v-13.42"/>
    <path class="cls-9" d="M111.68,166.17h96.77v113.11h-96.77v-113.11"/>
    <path class="cls-5" d="M156.3,166.17h7.53v113.11h-7.53v-113.11"/>
    <path class="cls-5" d="M111.68,166.17h96.77v9.8h-96.77v-9.8"/>
    <g class="cls-10">
      <path class="cls-4" d="M160.07,58.15H22.18v-23.48L160.07.05l137.9,34.61v23.48h-137.9"/>
    </g>
    <path class="cls-9" d="M160.07,58.15H22.18v-12.48L160.07,11.05l137.9,34.62v12.48h-137.9"/>
    <path class="cls-6" d="M30.1,69.02h259.93v-10.87H30.1v10.87"/>
    <path class="cls-3" d="M109.8,140.54h6.18v-38.78h-6.18v38.78"/>
    <path class="cls-3" d="M170.95,128.19l2.96-19.59,2.96,19.59h-5.92ZM169.74,101.76l-6.18,38.78h5.65l1.07-6.97h7.39l1.08,6.97h6.18l-6.18-38.78h-9.01"/>
    <path class="cls-3" d="M97.17,101.76h-6.05v38.78h16.13v-5.5h-10.08v-33.28"/>
    <path class="cls-3" d="M155.09,115.18c0,3.09-1.48,4.03-3.76,4.03h-2.29v-11.94h2.96c2.15,0,3.09,1.34,3.09,4.03v3.89ZM161.15,129.8c0-4.03-.94-6.97-4.04-8.18,2.82-1.34,4.04-3.89,4.04-7.92v-2.95c0-6.04-2.69-8.99-9.01-8.99h-9.28v38.78h6.18v-15.83h2.02c2.82,0,4.03,1.34,4.03,4.97v6.17c0,3.08.27,3.76.54,4.69h6.19c-.54-1.47-.67-2.82-.67-4.69v-6.04"/>
    <path class="cls-3" d="M199.85,115.18c0,3.09-1.34,4.03-3.63,4.03h-2.42v-11.94h2.96c2.15,0,3.09,1.34,3.09,4.03v3.89ZM206.03,129.8c0-4.02-.94-6.97-4.03-8.18,2.69-1.34,4.03-3.89,4.03-7.92v-2.95c0-6.04-2.82-8.99-9.14-8.99h-9.14v38.78h6.05v-15.83h2.15c2.82,0,4.03,1.34,4.03,4.97v6.17c0,3.08.14,3.76.54,4.69h6.18c-.54-1.47-.67-2.82-.67-4.69v-6.04"/>
    <path class="cls-3" d="M133.19,131.15c0,2.95-1.21,3.89-3.22,3.89h-3.49v-11.94h2.69c2.82,0,4.03,1.07,4.03,4.7v3.35ZM126.47,107.26h2.96c2.15,0,3.09,1.34,3.09,4.03v2.15c0,3.09-1.34,4.16-3.63,4.16h-2.42v-10.33ZM134.67,119.88c2.69-1.21,4.03-3.76,4.03-7.79v-1.34c0-6.04-2.82-8.99-9.14-8.99h-9.14v38.78h9.54c6.18,0,9.27-3.22,9.27-9.26v-3.09c0-4.16-1.21-6.97-4.57-8.32"/>
    <path class="cls-3" d="M223.23,101.76l-4.7,17.71-4.7-17.71h-6.32l7.66,25.9v12.88h6.18v-12.88l7.66-25.9h-5.78"/>
  </g>
</svg>