<?xml version="1.0" encoding="UTF-8"?>
<svg id="Layer_2" data-name="Layer 2" xmlns="http://www.w3.org/2000/svg" xmlns:xlink="http://www.w3.org/1999/xlink" viewBox="0 0 319.68 308">
  <defs>
    <style>
      .cls-1 {
        clip-path: url(#clippath);
      }

      .cls-2 {
        fill: none;
      }

      .cls-2, .cls-3, .cls-4, .cls-5 {
        stroke-width: 0px;
      }

      .cls-6 {
        clip-path: url(#clippath-1);
      }

      .cls-7 {
        clip-path: url(#clippath-3);
      }

      .cls-8 {
        clip-path: url(#clippath-2);
      }

      .cls-3, .cls-9 {
        fill: #000;
      }

      .cls-4 {
        fill: #fdd935;
      }

      .cls-9 {
        stroke: #000;
        stroke-miterlimit: 3.26;
        stroke-width: .47px;
      }

      .cls-5 {
        fill: #fff;
      }
    </style>
    <clipPath id="clippath">
      <rect class="cls-2" x="209.09" y="116.47" width="50.67" height="191.53"/>
    </clipPath>
    <clipPath id="clippath-1">
      <rect class="cls-2" x="118.42" width="80" height="151.14"/>
    </clipPath>
    <clipPath id="clippath-2">
      <rect class="cls-2" x="197.09" y="301.8" width="41.33" height="6.2"/>
    </clipPath>
    <clipPath id="clippath-3">
      <rect class="cls-2" x="195.76" y="300.47" width="44" height="7.53"/>
    </clipPath>
  </defs>
  <g id="Layer_1-2" data-name="Layer 1">
    <path class="cls-5" d="M138.57,144.68c-5.2-.48-9.71,3.63-12.6,7.99-3.56,5.36-5.87,11.95-4.54,18.25s7.16,11.85,13.57,11.28c1.67-.15,3.71-1.39,3.2-2.98-.32-.99-1.46-1.43-2.48-1.63-4.94-.92-9.98.99-14.3,3.57-6.27,3.76-11.85,9.39-13.54,16.51s1.62,15.67,8.48,18.18c1.7.63,3.7.83,5.26-.09,1.56-.93,2.29-3.3,1.06-4.64-.71-.77-1.82-1.01-2.86-1.13-8.52-.95-16.93,3.53-22.73,9.84-2.31,2.51-4.37,5.52-4.56,8.93-.11,2.07.48,4.14,1.4,6.01,3.02,6.2,9.73,10.42,16.63,10.44,2.29,0,5.16-1.03,5.21-3.32.06-2.32-2.8-3.46-5.11-3.69-11.91-1.15-44.3,14.43-28.74,29.27.99.94,2.22,1.76,3.59,1.79,1.37.04,2.83-.94,2.91-2.31.07-1.26-.97-2.31-2.08-2.9-3.61-1.92-8.28-.57-11.32,2.17s-4.8,6.6-6.39,10.38c-2.42,5.78-4.65,11.93-3.97,18.15"/>
    <path class="cls-3" d="M138.57,143.97c-6.42-.52-11.36,5.04-14.3,10.1-3.23,5.55-5.24,12.61-2.99,18.9,1.88,5.22,6.7,9.78,12.45,9.97,1.36.04,2.75-.16,3.89-.96,1.02-.72,1.68-1.9,1.19-3.14-.51-1.28-1.92-1.78-3.16-1.98-1.65-.27-3.29-.28-4.93-.03-3.44.49-6.69,1.95-9.66,3.72-2.67,1.58-5.1,3.47-7.3,5.66-4.07,4.12-7.13,9.62-7.03,15.55.09,5.18,2.41,10.55,6.82,13.47,2.3,1.52,5.59,2.63,8.21,1.26,2.22-1.17,3.18-4.63.94-6.28-1.18-.86-2.79-.96-4.2-1.03-1.57-.07-3.13.03-4.68.29-3.11.54-6.05,1.58-8.79,3.15-2.82,1.58-5.36,3.53-7.63,5.84-2.22,2.26-4.33,4.88-5.21,7.98-1.74,6.16,2.53,12.52,7.39,15.93,2.45,1.72,5.16,2.83,8.11,3.31,2.52.4,5.57.49,7.6-1.33.45-.4.78-.88.97-1.45.19-.57.23-1.15.12-1.74-.24-1.19-1.17-2.09-2.2-2.66-1.76-.95-3.81-1.15-5.77-1.05-3.77.18-7.51,1.23-11.02,2.55-4.09,1.49-7.91,3.49-11.47,5.99-3.06,2.2-6.07,4.92-7.72,8.38-1.53,3.21-1.53,6.74.21,9.86,1.09,1.95,2.79,4.02,4.77,5.08,1.26.68,2.74.91,4.06.26,1.21-.6,2.05-1.86,1.8-3.24-.52-2.95-4.43-4.01-6.97-3.88-2.98.16-5.81,1.55-7.95,3.6-2.32,2.23-3.9,5.12-5.21,8.04-1.51,3.24-2.78,6.58-3.81,10.01-1,3.45-1.55,7.06-1.18,10.65.09.9,1.51.91,1.41,0-.68-6.6,1.8-12.98,4.36-18.93,2.16-5.01,5.16-10.48,10.93-11.76,1.29-.3,2.58-.29,3.86.03,1.15.3,2.67.96,3.1,2.19.48,1.36-1.01,2.34-2.22,2.26-1.4-.1-2.54-1.12-3.47-2.08-2.19-2.24-3.79-5.17-3.37-8.39.39-2.99,2.27-5.59,4.34-7.68,2.6-2.6,5.72-4.66,8.96-6.37,3.29-1.74,6.72-3.09,10.3-4.07,2.77-.74,5.81-1.4,8.69-1.03,1.67.21,5.24,1.41,4.01,3.77-1.06,2.02-4.3,1.91-6.18,1.69-2.61-.33-5.05-1.18-7.3-2.55-2.26-1.37-4.13-3.15-5.61-5.32-1.66-2.46-2.9-5.52-2.44-8.54.44-2.88,2.21-5.37,4.11-7.47,3.73-4.12,8.52-7.46,13.89-9.02,2.7-.81,5.46-1.08,8.27-.81,1.18.12,2.79.42,2.99,1.83.05.57-.06,1.11-.33,1.61-.28.51-.67.89-1.18,1.15-2.32,1.19-5.35-.19-7.26-1.59-1.83-1.41-3.21-3.16-4.15-5.27-2.06-4.46-1.91-9.61.1-14.05,2.25-4.97,6.32-8.92,10.84-11.85,2.53-1.64,5.26-3.04,8.18-3.83,1.5-.42,3.04-.63,4.59-.61,1.16.02,2.9.03,3.81.87,1.12,1.02-.48,2.08-1.39,2.38-1.11.35-2.41.27-3.54.05-2.5-.54-4.63-1.74-6.38-3.61-3.99-4.11-4.84-9.95-3.53-15.38.74-2.94,1.92-5.69,3.53-8.26,1.46-2.4,3.24-4.67,5.5-6.37,2.09-1.58,4.53-2.57,7.18-2.35.91.07.9-1.35,0-1.42Z"/>
    <path class="cls-5" d="M208.53,86.38s-41.73-25.59-41.77-25.61c-1.97-1.19-3.57-3.57-5.13-5.23-1.02-1.09-2.04-2.18-3.16-3.17-3-2.63-6.44-4.39-10.31-5.3-3.42-.81-9.45-.17-12.91.36-.94.15-.86,1.03-.43,1.7.44.69,1.14.83,1.9.99,1.27.28,5.27-.05,6.57-.02,0,0-8.96,1.27-8.57,3.03.23,1.06,9.22.72,9.22.72,0,0-8.96,1.26-9.06,3.32-.1,2.06,10.33-.09,10.33-.09,0,0-8.1,1.81-8.19,3.87,0,0,1.55,2.8,9.9-.36.78,1.4,1.84,2.55,3.17,3.45,1.33.9,2.79,1.45,4.38,1.65,5.4.71,13,8.27,13,8.27"/>
    <path class="cls-3" d="M208.88,85.77l-2.3-1.42-5.95-3.65-8.11-4.97-8.88-5.44-8.16-5.01c-1.99-1.22-3.98-2.44-5.98-3.67-.8-.48-1.59-.97-2.39-1.46-1.06-.71-1.99-1.57-2.8-2.58-.95-1.1-1.88-2.21-2.88-3.28-2.15-2.27-4.47-4.28-7.26-5.73-2.42-1.27-5.1-2.23-7.84-2.49-2.61-.25-5.28-.05-7.89.23-.6.06-1.21.14-1.81.21-.57.05-1.14.14-1.69.25-1.45.36-1.32,2.02-.56,2.97.72.9,2.01,1.12,3.09,1.18,1.05.06,2.1.01,3.15-.03.89-.03,1.78-.09,2.66-.08l-.19-1.39c-1.06.15-2.11.34-3.16.56-1.6.34-3.36.69-4.8,1.52-.54.31-1.12.79-1.14,1.47-.02.69.53,1.04,1.12,1.21.72.18,1.45.29,2.19.32.9.06,1.81.09,2.71.1,1.3.02,2.61,0,3.91-.05l-.19-1.4c-1.22.17-2.43.41-3.63.68-.97.21-1.93.48-2.88.8-.85.26-1.64.66-2.35,1.2-.55.45-.94,1.21-.59,1.91.29.57.96.8,1.55.9,1.82.3,3.74.02,5.55-.22,1.33-.18,2.67-.4,3.99-.67l-.38-1.36c-1.04.23-2.07.52-3.08.84-1.61.51-3.37,1.07-4.71,2.15-.49.4-1.21,1.24-.82,1.92.08.15.19.27.31.39.72.7,1.75.96,2.72,1.07,2.58.28,5.29-.59,7.67-1.49l-.8-.32c.46.88,1.05,1.66,1.77,2.34,1.59,1.59,3.48,2.59,5.7,3.01.99.15,1.95.39,2.89.74.96.41,1.88.89,2.77,1.44,1.76,1.09,3.42,2.31,4.98,3.67.88.74,1.73,1.5,2.55,2.3.65.65,1.65-.36,1-1-2.1-2.08-4.39-3.94-6.85-5.58-1.74-1.16-3.66-2.26-5.71-2.73-1.11-.26-2.22-.36-3.28-.8-.91-.38-1.73-.89-2.47-1.53-.34-.3-.67-.61-.97-.96-.14-.15-.26-.3-.39-.46-.02-.02-.08-.11,0,0-.03-.04-.06-.08-.08-.11-.05-.07-.1-.13-.15-.2-.2-.27-.37-.55-.53-.85-.18-.32-.45-.42-.8-.33-2.13.8-4.43,1.55-6.73,1.47-.17,0-.33-.02-.5-.03-.04,0-.23-.03-.15-.02.07.01-.14-.03-.19-.03-.25-.05-.49-.11-.73-.2-.05-.02-.09-.04-.14-.05-.09-.04.14.07-.01,0-.08-.05-.17-.08-.24-.13-.06-.04-.13-.08-.19-.12-.18-.11.1.11-.04-.03-.05-.05-.16-.19-.22-.22.06.02.11.18.04.05l.1.36c.01-.13,0,.17,0,.01,0-.09.06-.13,0-.01.03-.05.05-.09.08-.14.02-.03.04-.05.05-.08.06-.08-.08.1-.02.03.08-.09.17-.18.27-.27.03-.03.17-.14.06-.05.07-.05.14-.1.2-.15.59-.38,1.22-.7,1.88-.96,1.38-.54,2.78-.98,4.21-1.34.31-.08.63-.16.95-.23.89-.2.51-1.55-.38-1.36-.98.2-1.98.37-2.97.52-1.68.3-3.38.44-5.08.43-.18,0-.35-.02-.53-.03-.07-.01-.15-.02-.23-.03.19.03-.07-.02-.13-.03-.12-.03-.24-.06-.36-.09-.13-.04-.11-.05-.04-.01-.05-.03-.1-.06-.15-.08-.06-.03.11.13,0,0-.09-.11.09.15.02.03-.07-.13.05.17.02.04-.04-.14.03.21.01.01,0,0-.03.17.01,0,.02-.08-.1.16-.02.05.02-.02.02-.05.04-.07.04-.05.15-.17.01-.03.05-.06.11-.11.16-.17.03-.03.19-.16.05-.05.06-.04.12-.08.18-.13.15-.1.31-.19.47-.27.33-.18.68-.32,1.03-.44.88-.31,1.77-.56,2.67-.77,1.3-.31,2.61-.56,3.94-.75.79-.11.6-1.42-.19-1.4-.97.04-1.95.05-2.92.06-.85,0-1.69-.01-2.54-.04-.42-.02-.83-.04-1.24-.07-.18-.01-.36-.03-.54-.05-.09-.01-.18-.02-.27-.03-.05,0-.1-.01-.16-.02-.27-.04-.54-.09-.8-.16-.05-.02-.1-.04-.16-.05-.15-.05.1.06.02,0-.02-.01-.1-.04-.11-.06.03.03.06.05.09.08.04.06.11.36.1.18.01.18,0,.13.01.04-.02.17-.07.07.02,0,.01,0-.11.1,0,.01.04-.03.08-.07.12-.11.08-.07-.12.07.05-.03.06-.04.11-.08.17-.11.58-.33,1.2-.58,1.85-.75.79-.24,1.6-.44,2.41-.61,1.14-.25,2.28-.46,3.43-.63.81-.11.58-1.38-.19-1.39-1.92-.04-3.84.21-5.77.1-.1,0-.2-.01-.3-.02-.05,0-.29-.04-.14-.01-.26-.04-.51-.1-.75-.17-.54-.08-.9-.39-1.07-.89-.03-.07-.04-.14-.04-.21,0-.04.03-.07.02-.06-.07.05.08-.01.09-.01.15-.01.3-.04.44-.07.51-.08,1.02-.15,1.53-.21,2.55-.35,5.1-.49,7.68-.44,2.6.12,5.08.74,7.44,1.87,2.71,1.27,5.1,2.98,7.17,5.14,1.03,1.05,2.02,2.13,2.96,3.26.85,1.09,1.81,2.09,2.85,2.99.93.69,1.91,1.32,2.92,1.89l5.51,3.38,7.79,4.78,8.66,5.31,8.19,5.03,6.37,3.91,3.2,1.96.14.09c.78.47,1.49-.75.71-1.22Z"/>
    <path class="cls-5" d="M224.07,117.58c-19.23-3.37-36.15-8.02-50.25-22.3-3.88-3.92-7.92-8.16-9.36-13.58-.4-1.56-.53-3.15-.38-4.75.07-.84.86-2.7.16-3.4l-1.14-1.14c-.13-.11-.23-.24-.29-.41-.04-.15-.03-.3.01-.45.73-3.58,3.98-7.34,7.06-9.17.57-.33,1.23-.64,1.86-.44.53.21.88.59,1.03,1.14.14.52.19,1.04.16,1.58,1.39.79,2.82,1.52,4.18,2.33l11.46,6.91c5.17,3.11,14.78,9.35,19.95,12.46.29-.02,1.17-1.52,1.33-1.73,1.1-1.43,2.2-2.86,3.31-4.29,2.8-3.64,5.6-7.29,8.41-10.93,1.08-1.4,2.17-3.08,3.71-4.03,1.84-1.14,4.76-.81,6.09-2.64.65-.9.96-1.99,1.51-2.95,1.56-2.73,5.45-2.53,8.11-2.05"/>
    <path class="cls-3" d="M224.26,116.9c-6.32-1.11-12.61-2.38-18.77-4.2-5.93-1.69-11.59-4.04-16.98-7.03-2.72-1.54-5.32-3.27-7.79-5.18-2.61-2.06-5.07-4.3-7.38-6.7-2.32-2.38-4.6-4.85-6.28-7.74-.84-1.42-1.48-2.93-1.92-4.53-.24-.91-.37-1.83-.4-2.78-.01-.45,0-.9.02-1.34,0-.29.05-.57.11-.85.18-.64.3-1.29.36-1.95.02-.31-.02-.6-.1-.9-.16-.39-.41-.72-.73-.98l-.51-.52c-.1-.1-.39-.28-.42-.43.01.05.08-.27.09-.31.05-.22.11-.43.18-.65.24-.73.56-1.43.94-2.09.84-1.45,1.88-2.73,3.1-3.86.57-.54,1.19-1.03,1.84-1.47.48-.33,1.39-1.06,2.01-.7.64.37.58,1.36.58,1.99,0,.27.11.47.35.61,1.53.86,3.09,1.67,4.6,2.58l4.7,2.83c2.7,1.63,5.41,3.23,8.09,4.89,4.54,2.8,9.02,5.68,13.54,8.52,1.03.65,2.06,1.29,3.09,1.93.45.28.9.55,1.35.82.3.25.63.29.98.12.17-.1.32-.23.44-.39.32-.4.61-.81.88-1.24.33-.52.73-.99,1.1-1.48,1.1-1.44,2.21-2.88,3.32-4.31,2.24-2.92,4.48-5.83,6.73-8.74.94-1.23,1.82-2.55,2.89-3.67.46-.52,1.01-.95,1.61-1.29.52-.25,1.07-.43,1.64-.55,1.17-.29,2.45-.51,3.46-1.22,1.27-.9,1.67-2.36,2.36-3.68,1.14-2.16,3.69-2.36,5.88-2.17.53.04,1.05.12,1.57.21.19.04.36.02.53-.08.17-.09.28-.23.34-.42.05-.19.03-.36-.07-.54-.1-.17-.24-.28-.43-.33-2.4-.43-5.33-.68-7.44.79-.55.38-1,.84-1.36,1.4-.4.71-.75,1.44-1.06,2.18-.26.63-.66,1.13-1.2,1.52-.53.31-1.09.53-1.68.66-1.3.34-2.66.55-3.78,1.33-1.35.94-2.32,2.29-3.3,3.6-2.3,3.07-4.67,6.09-7.02,9.13l-4.02,5.22c-.45.59-.93,1.17-1.34,1.8-.16.24-.31.48-.48.71-.09.12-.1.14-.2.26-.14.17-.09.05.04.03l.54.07c-4.09-2.47-8.11-5.06-12.16-7.61-4.52-2.85-9.08-5.63-13.66-8.39l-4.9-2.95c-1.6-.97-3.25-1.83-4.88-2.75l.35.61c0-.95-.06-1.92-.68-2.69-.29-.36-.66-.6-1.1-.72-.44-.12-.89-.1-1.32.05-.81.31-1.55.73-2.21,1.28-.71.53-1.38,1.1-2.01,1.73-1.26,1.24-2.3,2.64-3.13,4.2-.38.72-.68,1.48-.91,2.27-.16.42-.22.85-.17,1.3.1.5.49.83.83,1.17.31.25.58.53.83.84.02.07.04.14.05.21.01.17.01.33-.02.49-.07.62-.29,1.21-.39,1.83-.26,1.92-.1,3.8.46,5.66,1,3.42,3.02,6.42,5.31,9.1,2.28,2.65,4.71,5.13,7.33,7.44,2.51,2.23,5.17,4.25,7.98,6.07,5.49,3.48,11.34,6.22,17.54,8.21,6.32,2.08,12.84,3.52,19.38,4.71.82.15,1.65.3,2.47.44.19.05.37.03.54-.07.17-.09.28-.23.34-.42.05-.19.03-.36-.07-.54-.09-.17-.23-.28-.42-.33Z"/>
    <path class="cls-3" d="M168.74,69.72c.28-.38.57-.74.9-1.08.34-.37.7-.71,1.08-1.05.34-.3.7-.57,1.08-.83.43-.29.87-.55,1.33-.79.17-.1.28-.24.33-.43.05-.19.02-.37-.08-.54-.09-.17-.24-.28-.43-.33-.19-.05-.37-.02-.54.08-1.96,1.04-3.59,2.46-4.89,4.26-.1.17-.12.35-.07.54.05.19.16.33.33.43s.35.12.54.07c.19-.05.33-.16.43-.32Z"/>
    <path class="cls-5" d="M223.34,117.26l-9.14,64.03c-1.65,11.46-1.82,22.95-.53,34.45l7.21,64.14c.1.97.15,1.93.11,2.91-.04.97-.14,1.93-.32,2.89-.18.95-.42,1.89-.73,2.81-.31.92-.69,1.81-1.14,2.67-.45.86-.95,1.69-1.52,2.47s-1.19,1.53-1.86,2.22c-.68.7-1.4,1.34-2.18,1.93-.77.59-1.58,1.12-2.43,1.59l16.79-3.1,10.55,10.32,1.48-107.96s18.88-75.69,19.06-74.42"/>
    <g class="cls-1">
      <path class="cls-3" d="M222.66,117.07l-1.21,8.47-2.77,19.34-3.01,21.09-1.96,13.73c-1.38,9.24-1.85,18.54-1.42,27.88.24,4.67.8,9.31,1.32,13.95l2.05,18.17,2.42,21.53,1.77,15.76c.11.95.22,1.9.32,2.84.11.94.15,1.88.13,2.82-.03.94-.13,1.88-.29,2.81s-.4,1.83-.71,2.73c-.3.89-.67,1.76-1.1,2.59-.43.84-.92,1.64-1.47,2.41-.55.77-1.15,1.48-1.81,2.16-.66.67-1.36,1.3-2.11,1.87-.75.57-1.54,1.08-2.36,1.54-.74.41-.21,1.43.54,1.29l14.7-2.71,2.09-.39-.69-.18,10.55,10.31c.22.21.48.26.77.14s.43-.33.44-.64l.11-8.04.28-20.15.35-26.08.36-26.02.28-19.96.08-5.73.02-1.52c0-.14.06-.71-.02-.29.19-1.03.51-2.04.76-3.05.65-2.57,1.29-5.14,1.93-7.7,1.95-7.8,3.91-15.59,5.88-23.38,2.08-8.24,4.18-16.48,6.29-24.72,1.27-4.93,2.45-9.89,3.91-14.76.06-.19.12-.38.18-.56.03-.06.05-.11.06-.17-.02.32-1.15.81-1.31-.07.16.9,1.53.52,1.36-.38-.12-.67-.99-.65-1.31-.18-.08.14-.14.28-.18.43-.18.52-.32,1.06-.47,1.59-.63,2.23-1.21,4.48-1.8,6.72-1.98,7.6-3.92,15.21-5.84,22.82-2.16,8.49-4.3,17-6.43,25.5-1.36,5.4-2.71,10.81-4.06,16.21-.44,1.76-.38,3.42-.41,5.24l-.23,17.05-.35,25.19-.37,27.04-.31,22.65-.16,11.79v.53s1.2-.51,1.2-.51l-9.95-9.72c-.41-.4-.7-.83-1.33-.76-.66.07-1.33.24-1.98.36l-8.48,1.57-6.29,1.16.55,1.3c2.35-1.32,4.38-3.03,6.06-5.14s2.91-4.46,3.68-7.05c.78-2.81.98-5.66.61-8.55l-1.38-12.27-2.34-20.86-2.27-20.14c-.38-3.38-.76-6.76-1.14-10.13-1.29-11.53-1.13-23.03.51-34.51.49-3.44.98-6.88,1.47-10.32l2.88-20.15,2.96-20.73,1.73-12.09.08-.59c.13-.89-1.23-1.28-1.36-.38Z"/>
    </g>
    <path class="cls-4" d="M219.38,122.22c-4.1,16.99-5.95,34.1-8.34,51.36-.02.21-.07.41-.15.6-.17.29-.38.55-.64.77-.4.41-.71.88-.95,1.39-.24.52-.4,1.06-.46,1.63s-.04,1.13.08,1.69c.12.56.32,1.08.61,1.58,1.19,1.91,3.5,1.58,5.45,1.72,3.01.22,6,.49,9.02.63,6.14.28,12.28.27,18.43-.06,3.75-12.58,7.3-25.12,10.54-37.79,1.35-5.27,2.69-10.55,4.09-15.81.36-1.38,1.84-4.39,1.65-5.74"/>
    <path class="cls-3" d="M218.69,122.04c-1.54,6.38-2.78,12.83-3.83,19.3-1.06,6.46-1.95,12.95-2.82,19.45-.43,3.23-.85,6.46-1.29,9.68-.11.82-.22,1.64-.34,2.45-.01.33-.07.65-.16.96-.16.25-.35.46-.58.65-.89.96-1.4,2.09-1.54,3.39-.16,1.28.09,2.47.72,3.58.65,1.07,1.59,1.71,2.82,1.93,1.11.22,2.26.17,3.38.25,1.66.12,3.33.26,4.99.39,6.65.47,13.3.57,19.95.29.81-.03,1.61-.07,2.42-.11.35-.01.58-.18.68-.52,2.43-8.17,4.78-16.36,7.05-24.59,2.26-8.27,4.33-16.58,6.49-24.86.49-1.9.92-3.83,1.62-5.67.29-.76.58-1.52.82-2.29.25-.68.36-1.39.33-2.11,0-.19-.08-.36-.21-.49s-.3-.21-.49-.21c-.2,0-.36.07-.5.21-.14.14-.21.31-.21.5.03.56-.05,1.1-.25,1.63-.21.71-.47,1.4-.73,2.09-.55,1.55-1.02,3.13-1.41,4.72-1.08,4.12-2.13,8.24-3.18,12.37-2.1,8.22-4.32,16.42-6.66,24.58-1.31,4.59-2.65,9.18-4.02,13.76l.68-.52c-6.49.35-12.98.35-19.48,0-3.05-.17-6.09-.54-9.15-.63-.98-.03-2.06-.04-2.92-.57-.88-.55-1.29-1.69-1.36-2.68-.09-1.16.21-2.21.91-3.14.4-.51.94-.86,1.17-1.49.24-.68.25-1.49.35-2.2.44-3.2.86-6.4,1.28-9.59.84-6.32,1.69-12.63,2.69-18.92,1.01-6.32,2.16-12.61,3.59-18.85.18-.78.36-1.56.55-2.34.21-.89-1.15-1.27-1.36-.38Z"/>
    <path class="cls-5" d="M232.06,144.9c-.03,10.11-.35,4.92.13,15.02.51,10.77-.03,21.66,2.13,32.28,2.1,10.35,9.23,19.55,15.77,27.69l40.38,50.31c.61.76,1.16,1.55,1.65,2.39.49.84.91,1.71,1.28,2.61.36.9.66,1.83.88,2.77.23.94.38,1.9.47,2.87.08.97.09,1.94.04,2.91s-.19,1.93-.39,2.88c-.2.95-.47,1.88-.81,2.79-.33.91-.74,1.79-1.2,2.65l10.5-13.06,11.77-3.05-51.79-84.45c.73-19.31.91-38.81,2.86-58.01.51-5.04.67-10.27-1.08-15.03"/>
    <path class="cls-3" d="M231.36,144.9c0,2.56-.09,5.12-.13,7.68-.04,2.89.2,5.79.31,8.68.4,10.16.04,20.42,1.97,30.45,2.31,11.97,10.4,21.59,17.82,30.84l15.52,19.34,18.09,22.54,4.64,5.78c3.58,4.46,5.28,10.14,4.2,15.83-.38,1.99-1.05,3.88-2.02,5.65-.36.68.59,1.52,1.11.86l7.91-9.83,1.89-2.34c.18-.22.38-.44.54-.67.32-.46,0,.13-.13-.04.08.1,1.74-.45,1.89-.49l3.65-.95,6.22-1.61c.1-.03.2-.08.28-.16.08-.07.14-.16.18-.26.04-.1.06-.21.05-.32s-.04-.21-.09-.31l-2.14-3.49-5.66-9.23-8.04-13.11-9.28-15.13-9.32-15.21-8.33-13.58c-2.05-3.33-4.09-6.67-6.14-10.01l-1.89-3.08c-.27-.44-.77-.99-.92-1.49-.01-.03-.05-.06-.06-.1t0,0c.11.54.19-.73.11-.15.02-.17.01-.34.02-.51l.08-2.22c.1-3.02.2-6.03.29-9.05.18-5.98.36-11.97.6-17.95.24-5.98.55-11.95.98-17.92.22-2.95.47-5.89.76-8.83.28-2.82.54-5.64.42-8.48-.08-2.66-.55-5.24-1.42-7.75-.31-.85-1.68-.48-1.36.38,1.94,5.41,1.41,11.1.87,16.7-.57,5.94-.98,11.91-1.29,17.87-.63,11.95-.87,23.92-1.3,35.89-.03.86-.33,2.05.07,2.85.09.18.22.35.32.53l1.42,2.31,5.41,8.82,7.89,12.85c3.07,5.01,6.15,10.02,9.21,15.03l9.41,15.34,8.45,13.79,6.38,10.41,2.03,3.31c.35.57.67,1.22,1.07,1.76.05.07.09.15.14.22l.42-1.04-5.39,1.4c-2.06.53-4.22.93-6.24,1.61-.34.13-.62.34-.81.66l-1.6,1.99-5.06,6.29-3.49,4.34,1.11.86c.48-.89.89-1.81,1.23-2.76s.62-1.92.82-2.91c.2-.98.33-1.98.39-2.99s.04-2.02-.05-3.02c-.09-1.01-.25-2-.48-2.98-.23-.98-.54-1.94-.91-2.88-.38-.94-.82-1.84-1.32-2.71-.51-.88-1.07-1.7-1.7-2.49-.97-1.22-1.95-2.43-2.93-3.65l-16.83-20.96-17.27-21.51c-6.32-7.88-13.18-15.7-16.99-25.17-1.83-4.54-2.63-9.37-3.1-14.22-.5-5.15-.6-10.33-.7-15.51-.13-6.17-.59-12.34-.44-18.52.04-1.76.05-3.51.06-5.27,0-.92-1.41-.92-1.42,0Z"/>
    <path class="cls-4" d="M228.82,141.64c-.34,13.08-.64,25.92.1,38.95-1.25.66-1.6,2.42-1.05,3.72s1.8,2.19,3.09,2.77c2.54,1.14,5.4,1.31,8.19,1.33,7.02.05,13.96-.69,20.81-2.22,2.71-.6,17.26-2.93,12.59-8.08-.53-.58-1.14-1.1-1.49-1.8-.29-.65-.45-1.33-.49-2.04-.7-6.74.08-13.52-.11-20.28-.09-3.16-.15-6.91-1.36-9.89-1.13-2.77-1.81-5.44-1.82-8.51-.02-5.59-.07-11.27-1.88-16.62"/>
    <path class="cls-3" d="M228.11,141.64c-.27,10.14-.51,20.28-.24,30.41.07,2.85.19,5.69.35,8.54l.35-.61c-1.71.97-2.03,3.26-1.19,4.92.96,1.89,3.11,2.91,5.05,3.47,2.23.64,4.58.74,6.89.76,2.5.02,4.99-.07,7.48-.26,4.59-.39,9.14-1.06,13.65-2.05,1.97-.41,3.95-.8,5.9-1.34,2.21-.61,4.6-1.35,6.42-2.83.78-.57,1.25-1.34,1.41-2.3.12-1.05-.43-1.98-1.1-2.73-.68-.76-1.4-1.38-1.63-2.41-.22-1.21-.33-2.43-.35-3.66-.13-2.52-.09-5.05-.03-7.57.12-4.83.34-9.69-.09-14.51-.09-1.08-.24-2.16-.46-3.23-.27-1.07-.6-2.11-1.02-3.14-.81-2.08-1.3-4.23-1.45-6.46-.13-2.43-.03-4.87-.16-7.31-.1-2.4-.39-4.79-.86-7.15-.24-1.15-.54-2.28-.92-3.4-.29-.86-1.66-.49-1.36.38,1.49,4.46,1.78,9.17,1.83,13.84.03,2.24,0,4.46.44,6.67.21,1.07.5,2.11.86,3.14.35,1.01.79,1.98,1.07,3.02.55,2.03.69,4.14.77,6.23.09,2.31.11,4.62.07,6.93-.1,4.88-.39,9.78.05,14.65.1,1.11.18,2.29.78,3.26.27.42.58.8.93,1.15.16.18.33.34.49.52l.14.16s.18.23.1.13c.13.18.25.37.35.57.1.18,0-.06.06.13.04.11.06.22.09.34.03.12,0-.03,0-.05,0,.05.01.09.01.14,0,.09,0,.19,0,.28,0,.13,0-.04,0-.05,0,.05-.02.09-.03.14-.02.05-.1.31-.06.22.04-.09-.07.13-.09.17-.05.08-.09.15-.15.22-.11.18.04-.02-.09.12-.07.08-.14.16-.22.23s-.16.15-.24.22c-.03.03-.26.21-.13.11-.2.15-.4.29-.61.42-.92.56-1.9,1.01-2.92,1.34-2.14.72-4.31,1.29-6.52,1.71-3.11.64-6.22,1.3-9.38,1.74-4.71.66-9.44.94-14.2.83-2.22-.05-4.49-.26-6.57-1.11-1.53-.63-3.33-1.84-3.22-3.72.02-.72.33-1.27.94-1.64.24-.14.35-.34.35-.61-.57-10.12-.53-20.26-.31-30.39.06-2.85.13-5.71.21-8.56.02-.91-1.39-.91-1.42,0Z"/>
    <path class="cls-5" d="M229.63,68.49c-.31,1.15.35,2.97-.8,3.73-.73.48-1.68.55-2.55.74-2.7.61-4.91,2.67-5.94,5.11-1.04,2.44-1.01,5.23-.29,7.79.73,2.57,2.23,5.06,4.61,6.48.45.27-.45,5.8-.53,6.38-.34,2.53-.7,5.06-1.14,7.58-.91,5.15-2.15,10.26-4.11,15.13-2.55,6.34,6.73,9.08,11.78,9.91,3.12.51,6.29.58,9.45.66,5.29.13,10.59.26,15.86-.13,5.39-.39,12.76-2.75,12.82-9.31.03-2.56-.88-5.04-1.28-7.57-.48-3.06-.24-6.17-.17-9.26.2-7.54-.19-15.16-1.72-22.56-.74-3.85-1.93-7.55-3.56-11.12-.76-1.65-1.66-3.21-2.7-4.69-1.13-1.58-2.76-2.84-3.58-4.64-.63-1.38-.71-3.06-1.73-4.17-1.28-1.39-3.45-1.33-5.33-1.17"/>
    <path class="cls-3" d="M228.95,68.31c-.11.68-.15,1.36-.11,2.04,0,.54-.03,1.08-.54,1.37-.73.41-1.65.42-2.45.63-.77.2-1.48.5-2.17.9-2.93,1.7-4.61,4.85-4.83,8.19-.11,1.76.1,3.47.66,5.14.56,1.67,1.4,3.18,2.54,4.52.54.61,1.16,1.15,1.83,1.61.07.05.14.09.21.14.07.04.36.29.11.03-.03-.03-.18-.29-.14-.17.07.17.01-.03.01.03,0,.08.01.16.01.24-.01.97-.09,1.93-.24,2.89-.81,6.35-1.76,12.95-3.53,19.19-.54,1.9-1.16,3.79-1.88,5.63-.47,1.19-.81,2.33-.63,3.63.32,2.18,2.07,3.78,3.88,4.84,2.04,1.2,4.35,1.94,6.65,2.46,3.27.75,6.62.96,9.96,1.06,4.08.12,8.16.22,12.23.16,3.17-.05,6.4-.11,9.49-.85,2.42-.59,4.85-1.58,6.72-3.28.99-.9,1.72-1.98,2.2-3.23s.65-2.54.53-3.88c-.15-1.95-.69-3.84-1.08-5.75-.36-1.94-.52-3.89-.46-5.86.03-2.02.14-4.04.16-6.06s.01-4.04-.07-6.06c-.13-4.01-.52-7.98-1.17-11.94-.6-3.9-1.59-7.7-2.97-11.41-.69-1.8-1.51-3.55-2.45-5.23-.9-1.56-1.95-3-3.16-4.32-.56-.59-1.06-1.22-1.5-1.91-.39-.71-.68-1.45-.87-2.23-.46-1.57-1.12-3.03-2.7-3.72-1.4-.61-2.98-.56-4.47-.43-.91.08-.91,1.49,0,1.42,1.36-.11,2.97-.26,4.21.47,1.32.78,1.47,2.46,1.94,3.78.55,1.58,1.64,2.8,2.73,4.02,1.18,1.34,2.17,2.8,2.99,4.38,1.74,3.35,3.03,6.87,3.87,10.56.9,3.8,1.51,7.65,1.82,11.54.32,3.9.44,7.81.36,11.72-.07,3.9-.43,7.81.35,11.67.6,2.95,1.84,6.31.43,9.22-.99,2.05-2.95,3.4-5,4.26-2.29.9-4.66,1.4-7.12,1.51-4,.26-8.01.23-12.02.15-6.17-.13-12.53-.04-18.39-2.26-1.88-.71-3.98-1.77-5.07-3.41-.53-.73-.76-1.56-.69-2.46.04-.53.17-1.04.36-1.53.34-.9.69-1.79,1.01-2.69,1.22-3.6,2.17-7.28,2.86-11.02.61-3.22,1.03-6.52,1.51-9.72.15-.98.29-1.96.4-2.94.15-.88.2-1.77.17-2.66,0-.44-.19-.78-.57-1.01-.66-.43-1.25-.93-1.78-1.5-1.01-1.15-1.74-2.45-2.21-3.9-1.06-3.19-.99-6.91,1.09-9.68.86-1.17,1.97-2.03,3.31-2.59,1.43-.58,3.51-.38,4.48-1.76.76-1.08.23-2.4.52-3.57.21-.89-1.15-1.26-1.36-.38Z"/>
    <path class="cls-5" d="M249.95,56.12c.14-2.27.14-4.55.56-6.08.18-.65.12-1.23.51-1.83.43-.58.92-1.11,1.46-1.59,2.62-2.59,3.07-7.09,1.02-10.16-.42-.63-.94-1.2-1.3-1.86-.46-.82-.55-1.68-.27-2.57-4.85-.29-9.69-.74-14.53-1.16-.88-.08-1.95-.46-2.6.2-.78.86-1.4,1.83-1.84,2.91-.41.93-.4,1.94-.77,2.89-1.06,2.64-1.94,5.33-2.63,8.1-.42,1.84-.62,3.7-.62,5.59-.03.68.03,1.35.17,2.02.19.75.48,1.45.89,2.11.55.98,1.24,1.83,2.09,2.57,1.34,1.11,2.88,1.69,4.61,1.73.05,0-.34,3.41-.36,3.6-.03.2-.03.41.03.6.14.43.62.65,1.06.78,2.36.71,4.91.47,7.35.15,1.05-.14,2.15-.31,2.97-.99,1.67-1.38,2.04-4.19,2.21-7.01Z"/>
    <path class="cls-3" d="M250.66,56.12c.11-1.88.03-3.84.48-5.67.1-.41.17-.81.24-1.22.1-.45.31-.83.64-1.16.58-.63,1.23-1.17,1.75-1.86.45-.62.82-1.29,1.1-2.01.28-.72.47-1.46.56-2.22s.09-1.53-.02-2.29c-.1-.77-.3-1.5-.59-2.21-.39-.86-.89-1.66-1.47-2.4-.66-.9-1.03-1.74-.74-2.85.03-.11.03-.21.01-.32-.03-.11-.07-.2-.14-.29s-.15-.16-.24-.21c-.1-.05-.2-.07-.31-.08-3.72-.22-7.43-.53-11.14-.86-.94-.08-1.89-.17-2.82-.25-.72-.12-1.45-.19-2.18-.22-.78.03-1.4.36-1.85.99-.52.63-.95,1.3-1.3,2.03-.38.75-.64,1.54-.79,2.36-.19.85-.45,1.67-.79,2.47-.62,1.64-1.19,3.3-1.68,4.98-.51,1.73-.85,3.5-1.03,5.3-.16,1.68-.32,3.57.23,5.2.61,1.8,1.65,3.31,3.11,4.53,1.46,1.19,3.13,1.8,5.01,1.85l-.61-.35c-.21-.3-.07-.45-.1-.21-.01.07-.01.15-.02.22-.02.24-.05.48-.07.72-.06.58-.13,1.16-.19,1.73-.07.42-.1.84-.08,1.27.11,1.13,1.23,1.51,2.19,1.73,2.19.52,4.45.34,6.66.06,1.02-.13,2.04-.25,2.97-.7.79-.41,1.4-1.01,1.84-1.79,1.09-1.85,1.26-4.16,1.39-6.26.06-.91-1.36-.91-1.42,0-.05,1.17-.19,2.34-.43,3.49-.21.92-.52,1.9-1.16,2.61-.74.84-1.82,1.04-2.89,1.19-1.3.19-2.61.3-3.94.31-.66,0-1.33-.05-1.98-.15-.53-.09-1.2-.16-1.67-.46-.23-.15-.16-.4-.13-.65.03-.24.05-.48.08-.73.08-.67.15-1.34.22-2.02.07-.73.14-1.4-.86-1.44-2.43-.11-4.41-1.57-5.67-3.58-.72-1.06-1.11-2.23-1.18-3.51-.03-1.34.04-2.68.22-4.02.36-2.67,1.21-5.27,2.13-7.79.45-1.26.98-2.46,1.24-3.78.24-1.19.72-2.29,1.43-3.28.24-.34.55-.86,1.01-.92.51-.01,1.01.04,1.5.15,1.39.17,2.79.25,4.18.38,2.82.24,5.65.48,8.47.68.7.05,1.4.09,2.1.14l-.68-.9c-.28.98-.21,1.93.21,2.86.4.85,1.07,1.53,1.56,2.32.8,1.3,1.15,2.72,1.06,4.25-.07,1.51-.55,2.87-1.43,4.09-.47.66-1.13,1.16-1.67,1.77-.32.34-.58.72-.78,1.15-.15.47-.26.95-.33,1.44-.49,2.11-.5,4.26-.63,6.41-.05.91,1.36.91,1.42,0Z"/>
    <path class="cls-3" d="M248.82,19.63c4.39,1.83,7.73,6.26,7.67,11.02,1.57-.27,3.11.89,3.79,2.33,1.73,3.67.04,8.95-1.9,12.18-1.79,2.98-4.26,5.48-6.71,7.95l-1.26,1.27c-.2.25-.45.42-.76.5-.54.08-.98-.42-1.19-.92-.39-.91-.38-1.93-.31-2.92.1-1.46.31-2.92.62-4.35,1.7-.45,3.82-1.61,4-3.55.05-.47,0-.93-.14-1.38-.14-.45-.35-.85-.66-1.22-.3-.36-.65-.65-1.07-.88-.41-.22-.85-.35-1.32-.4-.46-.05-.92,0-1.37.14-.45.14-.85.35-1.22.65-.36.3-.65.66-.87,1.07-.22.41-.35.85-.4,1.32l-.34,3.53c.03-.34-.94-1.69-1.11-2.11-.29-.72-.59-1.41-.94-2.1-.71-1.4-.52-2.4-.17-3.92-.14.61-4.54-1.29-4.93-1.54-2.36-1.53-2.14-1.8-4.98-.29-.84.44-1.73.74-2.67.93s-1.88.24-2.82.17c-.95-.07-1.87-.28-2.76-.61-.89-.33-1.72-.78-2.49-1.34,2.72-1.4,4.98-3.34,6.76-5.84,1.04-1.45,1.86-3.05,2.93-4.49,3.29-4.41,9.1-6.98,14.49-5.86.72.15,1.43.37,2.11.66Z"/>
    <path class="cls-3" d="M248.64,20.31c4.07,1.71,7.18,5.84,7.15,10.34,0,.11.03.21.08.31.05.1.12.18.21.25.08.07.18.11.29.13.1.03.21.02.32,0,.98-.14,1.94.49,2.52,1.23.6.84.94,1.78,1.03,2.8.27,2.27-.29,4.58-1.1,6.68-1.85,4.73-5.69,8.33-9.22,11.83-.1.1-.26.32-.42.29-.19-.04-.33-.38-.4-.53-.23-.66-.32-1.33-.26-2.03.07-1.6.28-3.17.63-4.73l-.49.5c1.63-.44,3.42-1.36,4.18-2.96.18-.41.29-.84.33-1.29.04-.45.01-.89-.09-1.33-.1-.44-.27-.85-.51-1.23-.24-.38-.53-.71-.88-1.01s-.73-.52-1.16-.69c-.42-.17-.86-.27-1.31-.3-.45-.03-.9.01-1.34.13-.44.11-.85.29-1.23.54-.79.52-1.35,1.23-1.68,2.11-.16.49-.26,1-.28,1.52l-.3,3.12h1.41c0-.54-.38-1.07-.65-1.51-.32-.54-.61-1.09-.85-1.67-.34-.79-.85-1.57-.99-2.43-.14-.78.08-1.58.25-2.34.04-.19.02-.36-.08-.53-.1-.17-.24-.27-.42-.32s-.36-.03-.53.06c-.17.09-.28.22-.34.41.06-.2.19-.33.39-.4-.1.04.2,0,.07,0-.07,0-.14,0-.21-.01.21.02-.13-.03-.19-.04-.13-.03-.26-.07-.39-.1-.59-.17-1.18-.39-1.75-.61-.51-.2-.84-.34-1.35-.57-.47-.24-.93-.52-1.36-.82-.52-.41-1.11-.67-1.76-.78-.66,0-1.27.16-1.83.48-.88.41-1.7.92-2.63,1.21-.9.28-1.82.43-2.76.43-2.16.03-4.1-.6-5.83-1.89v1.22c1.98-1.02,3.74-2.34,5.28-3.97,1.64-1.73,2.75-3.79,4.06-5.76,1.11-1.67,2.49-3.07,4.16-4.18,1.67-1.11,3.48-1.86,5.45-2.24,2.33-.44,4.6-.21,6.8.68.19.05.36.03.54-.07.17-.1.28-.24.33-.43.05-.19.02-.36-.07-.54-.09-.17-.23-.28-.42-.33-3.99-1.64-8.57-1.02-12.29,1.05-1.83,1.01-3.4,2.33-4.71,3.96-1.5,1.88-2.52,4.09-4.05,5.94-1.61,1.95-3.55,3.5-5.8,4.66-.52.27-.39.93,0,1.22,1.71,1.25,3.62,1.94,5.73,2.06,2.13.13,4.13-.33,6-1.35.36-.19.73-.4,1.11-.56.26-.12.52-.19.8-.2.19,0-.09-.03.02,0,.05.01.1.02.15.04.1.02.18.05.26.1.35.2.68.42,1.01.64.97.61,2.01,1.1,3.09,1.48.81.31,3.08,1.4,3.52.06l-1.36-.38c-.24.83-.35,1.68-.33,2.55.08.96.51,1.75.9,2.61.27.67.57,1.32.92,1.96.16.27.33.54.49.82.06.11.13.22.18.34.02.04.08.15.03.05.04.07.01.21.01,0,.01.93,1.33.89,1.42,0l.22-2.32c.08-.87.09-1.74.61-2.49.19-.27.42-.49.68-.68s.56-.32.87-.42c.31-.09.63-.12.96-.1.32.02.64.09.93.22.3.13.57.31.81.53.23.22.43.48.58.77.15.29.24.59.29.92.04.32.03.65-.04.96-.38,1.48-2.09,2.27-3.43,2.63-.26.07-.43.23-.49.49-.35,1.59-.57,3.2-.66,4.82-.07,1.34,0,3.16,1.23,3.99.3.2.64.28,1,.26.36-.03.68-.17.94-.42.58-.52,1.14-1.07,1.67-1.65,1.06-1.06,2.11-2.13,3.12-3.24,1.88-2.08,3.59-4.34,4.72-6.92,1.05-2.4,1.79-5.09,1.56-7.73-.13-1.45-.53-2.91-1.46-4.05-.46-.59-1.05-1.03-1.74-1.32-.7-.28-1.42-.38-2.16-.28l.9.69c.04-5.18-3.54-9.74-8.19-11.7-.19-.05-.37-.03-.54.07-.17.09-.28.24-.33.43-.05.19-.03.36.07.53.09.17.23.28.42.34Z"/>
    <path class="cls-3" d="M248.05,43.35s0-.06,0-.07c0-.03,0-.05,0-.07.02-.08.04-.17.07-.25.06-.13.13-.24.21-.36.07-.11.15-.2.24-.29.04-.04.08-.07.13-.1.06-.04.13-.08.19-.11-.05.02.04-.02.05-.02.04-.01.07-.02.11-.03.06-.02,0,0,.03,0,.04,0,.07,0,.1,0h.05s-.04,0-.01,0,.05.01.08.02c.03,0,.06.02.09.03-.06-.03.03.01.04.02.03.02.06.03.09.05,0,0,.08.07.04.03.05.04.1.09.15.15-.04-.05.02.03.02.04.02.03.04.06.05.09-.02-.05,0,0,.01.03.01.04.02.07.03.11.03.09.08.17.17.21.08.05.18.06.27.04s.17-.08.21-.17c.05-.09.06-.18.03-.27-.05-.2-.13-.38-.26-.53-.12-.16-.27-.29-.45-.39-.18-.09-.36-.15-.56-.16-.2-.02-.4.02-.58.08-.39.17-.7.43-.93.79-.3.39-.42.83-.36,1.32.03.09.08.16.17.21.08.05.17.06.27.04.22-.07.3-.21.25-.44Z"/>
    <path class="cls-4" d="M196.74,13.74c-1.26-9.84-6.37-11.71-12.81-12.31-8.34-.78-18.55-1.26-22.27.56-.32.16-.6.35-.87.58-.81.42-1.54.94-2.19,1.56-14.7,14.02-25.41,29.66-31.84,46.47-2.58,6.76-4.48,13.7-5.69,20.84s-1.71,14.32-1.49,21.55c.67,25.02,9.39,42.57,9.76,43.31.1.2.21.39.32.58.52,1.05,1.23,1.94,2.14,2.68,4.92,4.02,12.65,7.26,19.1,9.48,6.02,2.07,12.37-.55,13.5-5.54l6.96-30.85c1.36-6.04-5.54-11.8-12.94-10.79l-5.76.78c-4.92.67-9.75-2.67-9.92-6.83-.03-.73-.05-1.47-.07-2.22-.26-12.51,1.87-24.59,6.4-36.24,1.56-4,3.37-7.88,5.44-11.64,1.98-3.62,7.73-4.49,11.84-1.8l4.49,2.94c6.24,4.09,17.7,6.74,23.21-7.78l2.69-25.33Z"/>
    <g class="cls-6">
      <path class="cls-3" d="M197.45,13.74c-.47-3.54-1.48-7.29-4.23-9.76-2.22-1.99-5.13-2.76-8.02-3.13-4.54-.56-9.1-.84-13.68-.83-2.09-.03-4.18.07-6.26.32-1.47.19-3.14.44-4.41,1.29-1.05.64-2.04,1.37-2.96,2.18-.96.92-1.91,1.85-2.84,2.79-1.81,1.82-3.57,3.69-5.29,5.61-3.31,3.7-6.42,7.57-9.31,11.61-5.58,7.76-10.16,16.07-13.74,24.93-3.97,9.93-6.45,20.22-7.43,30.88-.93,10.4-.47,20.72,1.4,30.99,1.24,7.06,3.14,13.94,5.7,20.63.63,1.61,1.29,3.21,2.02,4.77.23.49.48.96.74,1.43,1.16,2.06,3.05,3.42,4.99,4.68,4.03,2.63,8.5,4.58,12.99,6.29,2.1.81,4.23,1.68,6.49,1.95,2.05.26,4.03.01,5.96-.73,2.71-1.08,4.86-3.2,5.53-6.1.29-1.27.57-2.53.85-3.79l3.53-15.61c.84-3.71,1.69-7.42,2.52-11.13,1.67-7.53-6.73-12.66-13.35-11.89-2.05.24-4.08.59-6.13.83-3.67.43-8.43-1.61-9.03-5.68-.13-1.26-.17-2.53-.13-3.8-.01-1.38.01-2.75.06-4.12.09-2.68.3-5.36.61-8.03.64-5.34,1.73-10.58,3.29-15.73,1.57-5.23,3.58-10.3,6.03-15.18.96-1.91,1.79-4.19,3.7-5.34,1.69-.96,3.49-1.28,5.41-.93,2.73.45,4.99,2.32,7.24,3.8,1.85,1.27,3.83,2.26,5.95,2.98,2.64.9,5.33,1.08,8.08.53,3.07-.67,5.7-2.54,7.61-4.99,1.25-1.64,2.26-3.41,3.02-5.31.24-.55.4-1.13.45-1.72l.59-5.63,1.69-15.92.33-3.14c.09-.91-1.32-.9-1.42,0l-1.14,10.69-1.47,13.84c-.03.41-.12.8-.28,1.18-.74,1.92-1.75,3.69-3.02,5.31-1.9,2.34-4.45,4-7.45,4.47-2.56.4-5.19-.09-7.59-1-2.02-.77-3.79-1.94-5.58-3.11-.92-.6-1.83-1.21-2.75-1.8-1.52-.98-3.18-1.54-4.98-1.67-1.87-.16-3.63.21-5.27,1.11-1.84,1.05-2.71,2.75-3.66,4.57-4.91,9.41-8.18,19.36-9.79,29.85-.79,5.21-1.16,10.44-1.09,15.71.03,2.15-.07,4.3,1.11,6.19,1.06,1.64,2.49,2.81,4.3,3.54,1.78.73,3.63.97,5.53.7l3.13-.42c.95-.13,1.9-.29,2.85-.38,2.16-.22,4.22.11,6.2.99,3.26,1.47,6.3,4.74,5.68,8.58-.16.95-.42,1.9-.63,2.84l-3.27,14.45-2.91,12.91c-.39,1.73-.95,3.27-2.34,4.51-1.48,1.25-3.19,1.97-5.13,2.17-2.18.26-4.22-.19-6.27-.92-4.51-1.59-8.97-3.42-13.13-5.79-1.91-1.09-3.99-2.28-5.52-3.88-.74-.83-1.34-1.76-1.79-2.78-1.79-3.82-3.27-7.75-4.45-11.79-2.53-8.29-4.13-16.75-4.77-25.39-.41-5.14-.45-10.27-.13-15.41s1.01-10.23,2.05-15.28c1.04-5.04,2.43-9.99,4.17-14.83,1.74-4.85,3.81-9.55,6.22-14.1,4.5-8.49,9.9-16.38,16.2-23.64,1.64-1.9,3.32-3.76,5.06-5.57,1.74-1.81,3.48-3.76,5.42-5.36,1.37-1.17,2.94-1.94,4.71-2.29,1.88-.32,3.77-.48,5.67-.48,4.68-.04,9.35.19,14,.68,2.77.27,5.73.78,7.96,2.57,2.7,2.18,3.71,5.73,4.15,9.03.11.89,1.53.91,1.42,0Z"/>
    </g>
    <path class="cls-5" d="M190,3.85c.69.1,1.36.35,1.99.74s1.23.92,1.79,1.58c.56.66,1.06,1.45,1.52,2.36.45.91.85,1.92,1.18,3.04s.6,2.32.8,3.61c.2,1.29.33,2.64.39,4.04.06,1.41.05,2.85-.03,4.32-.08,1.47-.23,2.95-.45,4.43s-.51,2.94-.86,4.37c-.35,1.43-.76,2.81-1.23,4.14s-.99,2.58-1.56,3.75-1.17,2.25-1.82,3.22-1.32,1.83-2.02,2.56c-.7.74-1.41,1.34-2.13,1.81-.72.47-1.45.8-2.17.99s-1.43.23-2.12.13-1.36-.35-1.99-.74c-.64-.39-1.23-.91-1.79-1.58-.56-.66-1.06-1.45-1.52-2.35s-.85-1.92-1.18-3.04-.6-2.33-.8-3.61c-.2-1.29-.33-2.64-.39-4.04-.06-1.41-.05-2.85.03-4.32.08-1.47.23-2.95.45-4.43.22-1.48.51-2.94.86-4.37.35-1.43.76-2.81,1.23-4.14s.99-2.58,1.56-3.75c.57-1.18,1.17-2.25,1.82-3.22s1.32-1.83,2.02-2.56c.7-.74,1.41-1.34,2.13-1.81.72-.47,1.45-.8,2.17-.99s1.43-.23,2.12-.13Z"/>
    <path class="cls-3" d="M196.51,27.79c-.65,4.29-1.8,8.56-3.74,12.45-1.36,2.71-3.2,5.59-5.82,7.17-.49.31-1.03.55-1.59.7-.24.07-.49.13-.75.16.15-.02-.07,0-.09,0l-.2.02c-.16.01-.32.01-.48,0-1.06-.08-2.01-.46-2.82-1.15-2.26-1.89-3.33-4.99-3.96-7.82-.92-4.11-.95-8.43-.49-12.6.45-4.46,1.57-8.74,3.35-12.85,1.3-2.91,3.08-6.01,5.64-7.93.5-.38,1.04-.7,1.61-.97.23-.1.47-.19.72-.26.14-.04.27-.07.41-.1.07-.02.14-.03.21-.04.03,0,.3-.04.15-.03,1.06-.15,2.05.07,2.96.64,1.04.68,1.88,1.55,2.49,2.63.81,1.37,1.42,2.83,1.83,4.37,1.09,3.94,1.27,8.12.97,12.18-.08,1.15-.21,2.29-.38,3.43-.05.19-.02.36.07.53.09.17.23.28.42.34.19.05.36.03.54-.07.17-.1.28-.24.33-.43.67-4.57.8-9.25-.02-13.81-.58-3.24-1.66-6.77-4.02-9.18-.92-.98-2.04-1.64-3.34-1.95-1.3-.27-2.56-.13-3.78.4-2.96,1.24-5.08,4.05-6.64,6.76-2.2,3.83-3.57,8.14-4.38,12.46-.92,4.66-1.09,9.34-.52,14.05.46,3.49,1.39,7.17,3.59,9.98,1.66,2.11,4.19,3.34,6.87,2.62,2.98-.8,5.22-3.41,6.83-5.9,2.32-3.58,3.79-7.73,4.73-11.89.27-1.17.48-2.35.66-3.54.05-.19.02-.36-.07-.53-.1-.17-.24-.28-.42-.34-.19-.05-.37-.03-.54.07-.17.09-.28.24-.33.43Z"/>
    <path class="cls-5" d="M166.3,104.49c.69.1,1.35.35,1.99.74.64.39,1.23.92,1.79,1.58.55.66,1.06,1.45,1.51,2.35.45.91.85,1.92,1.18,3.05.33,1.12.6,2.32.8,3.61.2,1.29.33,2.64.4,4.05.06,1.41.05,2.84-.03,4.32s-.23,2.95-.45,4.43c-.22,1.48-.51,2.94-.86,4.37-.35,1.43-.76,2.81-1.23,4.14s-.98,2.58-1.56,3.76c-.57,1.17-1.17,2.24-1.82,3.22s-1.32,1.83-2.02,2.57c-.7.73-1.41,1.34-2.14,1.81-.72.47-1.45.8-2.17.99-.72.19-1.43.23-2.12.13s-1.36-.35-1.99-.74-1.23-.92-1.79-1.58c-.56-.66-1.06-1.45-1.52-2.35-.45-.91-.84-1.93-1.18-3.05-.34-1.12-.6-2.32-.81-3.61-.2-1.29-.33-2.64-.39-4.05-.06-1.41-.05-2.84.03-4.32.08-1.47.23-2.95.45-4.43.22-1.48.51-2.93.86-4.36.35-1.43.76-2.81,1.23-4.14s.99-2.58,1.56-3.76,1.18-2.24,1.82-3.22,1.32-1.83,2.02-2.57c.7-.73,1.41-1.34,2.13-1.81.73-.47,1.45-.8,2.17-.98s1.43-.23,2.13-.13Z"/>
    <path class="cls-3" d="M172.81,128.43c-.65,4.29-1.8,8.56-3.74,12.45-1.36,2.71-3.19,5.59-5.82,7.17-.5.31-1.03.55-1.6.71-.24.07-.49.13-.75.16.15-.02-.07.01-.08.01-.07,0-.14.01-.21.01-.16.01-.32.01-.47,0-1.07-.08-2.01-.46-2.83-1.15-2.26-1.89-3.33-4.99-3.96-7.82-.92-4.11-.95-8.42-.49-12.6.45-4.46,1.57-8.74,3.35-12.85,1.3-2.91,3.07-6.01,5.63-7.93.5-.38,1.04-.7,1.61-.97.23-.1.47-.19.72-.26.14-.04.27-.08.41-.1.07-.02.14-.03.2-.04.03,0,.3-.04.16-.03,1.06-.15,2.05.06,2.96.63,1.04.68,1.87,1.56,2.49,2.63.82,1.38,1.42,2.83,1.83,4.38,1.09,3.94,1.27,8.11.97,12.18-.08,1.15-.21,2.29-.38,3.43-.05.19-.02.36.07.54.1.17.24.28.42.34.19.05.36.03.54-.07.17-.09.28-.23.33-.42.68-4.57.8-9.26-.02-13.81-.58-3.24-1.66-6.77-4.02-9.18-.92-.98-2.04-1.64-3.34-1.95-1.3-.27-2.56-.13-3.77.4-2.96,1.24-5.09,4.05-6.64,6.76-2.19,3.83-3.57,8.14-4.38,12.46-.92,4.65-1.09,9.33-.52,14.05.46,3.48,1.39,7.17,3.6,9.98,1.66,2.11,4.19,3.34,6.87,2.62,2.97-.8,5.21-3.41,6.82-5.9,2.32-3.59,3.79-7.74,4.73-11.89.27-1.17.48-2.35.66-3.54.05-.19.02-.37-.07-.54s-.23-.28-.42-.34c-.19-.05-.36-.03-.54.07-.17.1-.28.24-.33.43Z"/>
    <path class="cls-3" d="M158.93,123.88c-1.68.96-.66,4.05,1.29,2.68,1.45-1.02.51-3.7-1.29-2.68Z"/>
    <path class="cls-3" d="M158.57,123.27c-.39.23-.69.54-.91.94-.21.4-.31.82-.29,1.28,0,.44.13.85.36,1.22.24.37.57.64.98.81.93.35,2.01-.26,2.53-1.02.24-.39.38-.81.4-1.26.02-.46-.08-.89-.3-1.29-.24-.47-.62-.78-1.13-.94-.58-.15-1.13-.06-1.64.26-.17.09-.28.24-.32.43-.05.19-.03.36.07.54.1.17.24.28.43.33.19.05.36.03.54-.07.04-.03.09-.05.13-.07.13-.07-.18.07-.01,0,.08-.03.16-.05.24-.07.15-.03-.16.01-.06,0,.03,0,.07,0,.1,0,.04,0,.07,0,.11,0,.08,0-.21-.04-.1-.01.02,0,.04,0,.06.01.03,0,.07.02.1.03.08.03.11.08-.06-.03.06.04.11.07.17.1.08.04-.09-.08-.09-.07.02.02.03.03.05.04l.06.06s.05.05.07.08c.1.1-.1-.16-.03-.04.04.05.07.11.1.16.02.03.07.17.02.03-.06-.15,0,0,.01.04.02.07.04.14.05.2.01.03.02.07.02.1.02.09-.03-.13-.02-.11,0,.03,0,.05,0,.07,0,.07.01.15,0,.21,0,.04,0,.08-.01.11,0,.06-.03.11.02-.11-.01.03-.01.05-.02.07-.01.07-.03.14-.05.2-.02.04-.03.07-.04.11-.03.07.08-.17.04-.1-.01.02-.02.04-.03.06-.04.07-.08.14-.12.2-.09.13.08-.1.03-.03-.03.03-.06.07-.09.1-.03.03-.05.05-.08.08-.01.02-.03.03-.04.04-.09.08.14-.09.06-.05-.08.06-.16.11-.24.16-.04.03-.08.05-.12.07-.15.07.13-.05.04-.02-.08.03-.15.05-.23.07-.02,0-.04,0-.06.01-.08.02.19-.02.11-.02-.04,0-.07,0-.1,0-.03,0-.06,0-.09,0-.15,0,.2.04.06,0-.03,0-.06-.01-.08-.02-.04-.01-.16-.06-.02,0,.14.06.03.02,0,0-.03-.02-.06-.04-.09-.06-.07-.04-.11-.11.05.05-.02-.02-.04-.04-.06-.06l-.06-.06s-.02-.03-.03-.04c-.07-.08.06.07.06.08,0-.03-.09-.14-.11-.17-.02-.03-.03-.05-.04-.08,0-.01-.01-.03-.02-.04-.05-.09.07.19.04.09-.04-.13-.08-.26-.1-.39-.02-.08.03.19.02.11,0-.02,0-.05,0-.07,0-.04,0-.07,0-.11,0-.08,0-.16.01-.24.01-.16-.04.19,0,.04,0-.04.02-.08.03-.12.02-.08.05-.16.07-.23-.07.23-.05.1-.01.04l.06-.11s.05-.07.07-.1c.03-.05.09-.08-.07.08.02-.02.04-.04.05-.06.05-.06.11-.12.18-.17.1-.09-.17.11-.02.01.04-.03.08-.06.13-.08.17-.1.28-.24.33-.43.05-.19.03-.37-.07-.54-.1-.17-.24-.28-.43-.33-.19-.05-.37-.03-.54.07h0Z"/>
    <path class="cls-3" d="M165.07,113.23c-1.68.96-.66,4.05,1.29,2.68,1.45-1.02.51-3.7-1.29-2.68Z"/>
    <path class="cls-3" d="M164.72,112.63c-.39.23-.69.55-.91.94-.21.4-.31.83-.29,1.28,0,.44.12.85.36,1.22.24.37.57.64.97.81.93.35,2.01-.26,2.53-1.02.24-.39.38-.8.39-1.26.02-.45-.08-.89-.3-1.29-.25-.46-.63-.78-1.13-.94-.58-.15-1.13-.07-1.64.25-.17.1-.28.24-.33.43-.05.19-.03.37.07.54.1.17.24.28.43.33.19.05.36.03.54-.07.04-.03.09-.05.13-.07.13-.07-.18.06-.01,0,.08-.03.16-.05.24-.07.15-.03-.16.01-.06.01.04,0,.07,0,.1,0,.04,0,.07,0,.11,0,.08,0-.21-.04-.1-.02.02,0,.04,0,.06.01.04.01.07.02.1.03.08.03.11.08-.06-.03.06.03.12.07.18.1.07.04-.09-.07-.09-.07.02.02.03.03.05.04l.06.06s.05.05.07.08c.09.11-.11-.16-.03-.03.04.05.07.1.1.16.02.03.07.16.02.02-.06-.14,0,0,.01.04.02.06.04.13.06.2,0,.04.01.07.02.1.02.09-.02-.12-.02-.11,0,.03.01.05.01.08,0,.07,0,.14,0,.21,0,.04,0,.07,0,.11,0,.06-.04.11.02-.11l-.02.08c-.01.07-.03.14-.05.2-.02.04-.03.07-.04.11-.03.08.08-.17.04-.09-.01.02-.02.04-.03.06-.04.07-.08.14-.12.21-.09.13.08-.1.03-.04-.03.03-.06.07-.09.1-.03.03-.05.05-.08.07-.02.02-.03.03-.05.04-.08.07.14-.1.07-.05-.08.06-.16.11-.25.16-.04.02-.08.04-.12.06-.15.07.13-.05.04-.02-.08.03-.15.05-.23.07-.02,0-.04,0-.06.01-.08.02.2-.02.11-.02-.03,0-.07,0-.1,0-.03,0-.06,0-.09,0-.15,0,.2.04.06.01-.03-.01-.06-.02-.08-.02-.04-.01-.16-.06-.02,0,.14.06.03.01,0,0s-.06-.04-.09-.05c-.07-.05-.11-.11.05.04-.02-.02-.04-.04-.06-.06-.02-.02-.04-.04-.06-.06-.02-.02-.03-.03-.04-.04-.07-.07.06.08.06.08,0-.03-.09-.13-.11-.16-.01-.03-.03-.05-.04-.08,0-.01-.01-.03-.02-.04-.05-.09.07.18.04.08-.05-.13-.08-.26-.11-.39-.01-.08.03.2.02.12,0-.03,0-.05-.01-.07,0-.04,0-.07,0-.11,0-.08,0-.16.01-.24.01-.15-.04.19,0,.04.01-.04.02-.08.03-.11.02-.08.05-.16.07-.23-.07.23-.04.1-.01.03l.06-.11s.05-.07.07-.1c.03-.04.09-.08-.06.08.02-.02.03-.04.05-.06.06-.06.11-.12.18-.18.1-.09-.16.11-.02.02.04-.03.08-.06.13-.08.17-.1.28-.24.33-.43.05-.19.03-.37-.07-.54-.1-.17-.24-.28-.43-.33-.19-.05-.37-.03-.54.07Z"/>
    <path class="cls-3" d="M162.69,136.65c-1.69.96-.67,4.05,1.29,2.68,1.45-1.02.5-3.7-1.29-2.68Z"/>
    <path class="cls-3" d="M162.33,136.04c-.39.23-.69.54-.91.94-.22.4-.31.82-.29,1.28,0,.44.12.85.36,1.22s.57.64.97.81c.93.35,2.01-.26,2.53-1.02.24-.39.38-.81.39-1.26.02-.46-.08-.89-.3-1.29-.25-.47-.63-.78-1.13-.94-.58-.15-1.13-.06-1.64.26-.17.1-.28.24-.33.43-.05.19-.03.36.07.54.1.17.24.28.43.33.19.05.37.03.54-.07.05-.03.09-.05.14-.07.13-.07-.18.07-.02,0,.08-.03.16-.05.25-.07.15-.03-.16.01-.06,0,.04,0,.07,0,.1,0s.07,0,.11,0c.08,0-.21-.04-.11-.01.02,0,.04,0,.06.01.04,0,.07.02.1.03.08.03.11.08-.07-.03.06.04.12.07.18.1.07.04-.09-.08-.09-.07.01.02.03.03.04.04.02.02.05.04.07.06.02.03.05.05.07.08.1.1-.11-.16-.03-.04.04.05.07.11.09.16.02.03.08.17.02.03-.06-.15,0,0,.01.04.03.07.04.14.06.2,0,.03.01.07.02.1.02.09-.02-.13-.01-.11,0,.03,0,.05,0,.07,0,.07,0,.15,0,.21,0,.04,0,.08-.01.11,0,.06-.04.11.02-.11,0,.03,0,.05-.01.07-.02.07-.03.14-.05.2-.01.04-.03.07-.04.11-.03.07.07-.17.04-.1l-.03.06c-.04.07-.07.14-.12.2-.08.13.09-.1.03-.04-.03.04-.06.07-.09.1l-.08.08s-.03.03-.04.04c-.09.08.13-.09.06-.05-.08.06-.16.11-.24.16-.04.03-.08.05-.13.07-.14.07.14-.05.04-.02-.07.03-.15.05-.23.07-.02,0-.04,0-.06.01-.08.02.2-.02.12-.02-.04,0-.07,0-.11,0-.03,0-.06,0-.09,0-.15,0,.2.04.06,0-.03,0-.06-.01-.08-.02-.04-.01-.16-.06-.02,0,.14.06.03.02,0,0-.03-.02-.06-.04-.09-.06-.07-.04-.11-.11.05.05-.02-.02-.05-.04-.07-.06-.02-.02-.04-.04-.06-.06-.01-.01-.02-.03-.04-.04-.07-.08.06.07.06.08,0-.03-.09-.14-.1-.17-.02-.03-.03-.05-.04-.08-.01-.02-.02-.03-.02-.04-.05-.09.07.19.04.09-.05-.13-.08-.26-.1-.4-.02-.08.02.2.02.12,0-.02,0-.05-.01-.07,0-.04,0-.07,0-.11,0-.08,0-.16.01-.24.02-.16-.04.19,0,.04.01-.04.02-.08.03-.12.02-.08.05-.16.08-.23-.07.23-.05.1-.01.04.02-.04.04-.07.06-.11s.05-.07.07-.1c.03-.05.09-.08-.06.08l.05-.06c.06-.06.11-.12.18-.17.1-.09-.16.11-.02.01.04-.03.09-.06.13-.08.17-.1.28-.24.33-.43.05-.19.03-.37-.07-.54-.1-.17-.24-.28-.43-.33-.19-.05-.37-.03-.54.07h0Z"/>
    <path class="cls-3" d="M168.54,125.58c-1.69.96-.67,4.05,1.29,2.68,1.45-1.02.5-3.7-1.29-2.68Z"/>
    <path class="cls-3" d="M168.18,124.97c-.39.23-.69.54-.91.94-.22.4-.31.82-.29,1.28,0,.44.12.85.36,1.22s.57.64.97.81c.93.35,2.01-.26,2.53-1.02.24-.39.38-.81.39-1.26.02-.46-.08-.89-.3-1.29-.25-.47-.63-.78-1.13-.94-.58-.15-1.13-.06-1.64.26-.17.1-.28.24-.33.43-.05.19-.02.36.07.54.1.17.24.28.43.33.19.05.37.03.54-.07.05-.03.09-.05.14-.07.13-.07-.18.07-.02,0,.08-.03.16-.05.25-.07.15-.03-.16.01-.06,0h.1s.07,0,.11,0c.08,0-.21-.04-.11-.02.02,0,.04,0,.06.01.04,0,.07.02.1.03.08.03.11.08-.07-.03.06.03.12.06.18.1.07.04-.09-.07-.09-.07.01.02.03.03.04.04.02.02.05.04.07.06.02.03.05.05.07.08.1.1-.11-.16-.03-.04.03.05.07.11.09.16.02.03.08.17.02.03-.06-.14,0,0,.01.04.03.06.04.13.06.2,0,.03.01.07.02.1.02.09-.02-.12-.01-.11,0,.03,0,.05,0,.07,0,.07,0,.15,0,.22,0,.04,0,.07-.01.11,0,.05-.04.11.02-.11,0,.03,0,.05-.01.08-.02.07-.03.13-.05.2-.01.04-.03.07-.04.11-.03.08.07-.17.04-.09-.01.02-.02.04-.03.06-.04.07-.07.14-.12.21-.08.12.09-.1.03-.04-.03.03-.06.07-.09.1-.03.03-.05.05-.08.08-.02.02-.03.03-.04.04-.09.08.13-.09.06-.05-.08.06-.16.11-.24.16l-.13.06c-.14.07.14-.05.04-.02-.07.03-.15.05-.23.07-.02,0-.04,0-.06.01-.08.02.2-.02.12-.02-.04,0-.07,0-.11,0-.03,0-.06,0-.09,0-.15,0,.2.04.06,0-.03,0-.06-.01-.08-.02-.04-.01-.16-.06-.02,0,.14.06.03.01,0,0s-.06-.04-.09-.05c-.07-.05-.11-.12.05.04-.02-.02-.05-.04-.07-.06-.02-.02-.04-.04-.06-.06-.01-.02-.02-.03-.04-.04-.07-.07.06.08.06.08,0-.03-.09-.13-.1-.17-.02-.03-.03-.05-.04-.08-.01-.01-.02-.03-.02-.04-.05-.09.07.19.04.09-.05-.13-.08-.26-.1-.39-.02-.08.02.2.02.11,0-.02,0-.05-.01-.07,0-.04,0-.07,0-.11,0-.08,0-.16.01-.24.02-.16-.04.19,0,.04.01-.04.02-.08.03-.12.02-.08.05-.15.08-.23-.07.23-.05.1-.01.03.02-.04.04-.07.06-.11s.05-.07.07-.1c.03-.04.09-.08-.06.08.02-.02.03-.04.05-.06.06-.06.11-.12.18-.18.1-.09-.16.11-.02.01.04-.03.09-.05.13-.08.17-.1.28-.24.33-.43.05-.19.03-.37-.07-.54-.1-.17-.24-.28-.43-.33-.19-.05-.37-.02-.54.08Z"/>
    <path class="cls-3" d="M181.86,24.07c-1.69.96-.67,4.05,1.29,2.68,1.45-1.02.5-3.7-1.29-2.68Z"/>
    <path class="cls-3" d="M181.5,23.46c-.39.23-.69.55-.91.95-.22.4-.31.82-.29,1.28,0,.44.12.85.36,1.22s.57.64.97.81c.93.35,2.01-.26,2.53-1.02.24-.39.38-.81.39-1.26.02-.46-.08-.89-.3-1.29-.25-.47-.63-.78-1.13-.94-.58-.15-1.13-.06-1.64.25-.17.1-.28.24-.33.43-.05.19-.03.37.07.54.1.17.24.28.43.33.19.05.37.03.54-.07.05-.03.09-.05.14-.07.13-.07-.18.07-.02,0,.08-.03.16-.05.25-.07.15-.03-.16.01-.06,0,.04,0,.07,0,.1,0s.07,0,.11,0c.08,0-.21-.04-.11-.02.02,0,.04.01.06.02.04,0,.07.02.1.03.08.03.11.08-.07-.03.06.04.12.07.18.1.07.04-.09-.08-.09-.07.01.02.03.03.04.04.02.02.05.04.07.06.02.03.05.05.07.07.1.11-.11-.15-.03-.03.04.05.07.1.09.16.02.03.08.17.02.03-.06-.15,0,0,.01.04.03.07.04.14.06.2,0,.03.01.06.02.1.02.09-.02-.13-.01-.11,0,.02,0,.05,0,.07,0,.07,0,.15,0,.21,0,.04,0,.08-.01.11,0,.06-.04.11.02-.11,0,.03,0,.05-.01.07-.02.07-.03.14-.05.2-.01.04-.03.07-.04.11-.03.07.07-.17.04-.1l-.03.06c-.03.07-.07.14-.12.2-.08.13.09-.1.03-.04-.03.04-.06.07-.09.1l-.08.08s-.03.03-.04.04c-.09.08.13-.09.06-.05-.08.05-.16.11-.24.16-.04.03-.08.05-.13.06-.14.07.14-.05.04-.01-.07.03-.15.05-.23.06l-.06.02c-.08.02.2-.02.12-.02-.04,0-.07,0-.11.01-.03,0-.06,0-.09,0-.15,0,.2.04.06,0-.03,0-.06-.01-.08-.02-.04-.01-.16-.06-.02,0,.14.06.03.01,0,0s-.06-.03-.09-.05c-.07-.04-.11-.11.05.05-.02-.02-.05-.04-.07-.06-.02-.02-.04-.04-.06-.06-.01-.01-.02-.03-.04-.04-.07-.08.06.07.06.08,0-.03-.09-.14-.1-.17-.02-.03-.03-.05-.04-.08-.01-.02-.02-.03-.02-.04-.05-.09.07.19.04.09-.05-.13-.08-.26-.1-.4-.02-.08.02.2.02.12,0-.02,0-.05,0-.07,0-.03,0-.07-.01-.1,0-.08,0-.16.01-.24.02-.16-.04.19,0,.04.01-.04.02-.08.03-.12.02-.08.05-.16.08-.23-.07.23-.05.1-.01.04.02-.04.04-.07.06-.11s.05-.07.07-.1c.03-.05.08-.08-.07.08l.05-.06c.06-.06.11-.12.18-.17.1-.09-.16.11-.02.01.04-.03.09-.06.13-.08.17-.1.28-.24.33-.43.05-.19.03-.36-.07-.54-.1-.17-.24-.28-.43-.33-.19-.05-.37-.03-.54.07Z"/>
    <path class="cls-3" d="M188.01,13.43c-1.69.96-.66,4.05,1.29,2.68,1.45-1.02.5-3.7-1.29-2.68Z"/>
    <path class="cls-3" d="M187.65,12.82c-.39.23-.69.55-.91.94-.21.4-.31.82-.29,1.28,0,.44.12.85.36,1.22s.57.64.98.81c.93.35,2.01-.26,2.53-1.02.24-.39.38-.8.4-1.26.02-.46-.08-.89-.3-1.29-.25-.47-.63-.78-1.13-.94-.58-.15-1.13-.07-1.64.25-.17.1-.28.24-.33.43-.05.19-.02.37.07.54.1.17.24.28.43.33.19.05.37.03.54-.07.05-.03.09-.05.14-.07.13-.07-.18.06-.01,0,.08-.03.16-.05.24-.07.15-.03-.16.01-.06.01.03,0,.07,0,.1,0,.04,0,.07,0,.11,0,.08,0-.21-.04-.1-.02.02,0,.04,0,.06.01.03,0,.06.02.1.03.08.03.11.08-.06-.03.05.03.11.07.17.1.07.04-.09-.07-.09-.07.02.02.03.03.04.04.03.02.05.04.07.06.03.03.05.05.07.08.1.1-.1-.16-.03-.04.04.05.07.11.1.16.01.03.07.17.01.03-.06-.14,0,0,.02.04.02.06.04.13.05.2.01.03.01.07.02.1.02.09-.03-.12-.02-.11,0,.03,0,.05,0,.07,0,.07,0,.15,0,.22,0,.04,0,.07-.01.11,0,.05-.03.11.02-.11,0,.03,0,.05-.01.08-.02.07-.03.14-.05.2-.01.04-.03.07-.04.11-.03.08.07-.17.04-.09-.01.02-.02.04-.03.06-.03.07-.07.14-.12.21-.08.13.09-.1.03-.04-.03.03-.06.07-.09.1-.03.03-.06.06-.08.08-.02.02-.03.03-.04.04-.09.08.14-.09.06-.05-.08.06-.16.11-.24.16l-.13.06c-.14.07.14-.05.04-.02-.07.03-.15.05-.23.07-.02,0-.04,0-.06.01-.08.02.19-.02.11-.02-.04,0-.07,0-.1,0s-.06,0-.09,0c-.15,0,.2.04.06.01-.03-.01-.05-.02-.08-.02-.04-.01-.16-.06-.02,0,.15.06.03.01,0,0s-.06-.04-.09-.05c-.07-.05-.11-.12.05.04-.02-.02-.04-.04-.06-.06s-.04-.04-.06-.06c-.01-.02-.02-.03-.04-.04-.07-.07.07.08.07.08,0-.03-.09-.13-.11-.17-.02-.02-.03-.05-.04-.08,0-.01-.01-.03-.02-.04-.05-.09.07.18.04.08-.04-.13-.08-.26-.1-.39-.02-.08.02.2.02.11,0-.02,0-.05,0-.07,0-.04,0-.07,0-.11,0-.08,0-.16,0-.24.02-.15-.04.19,0,.04.01-.04.02-.08.03-.12.02-.08.05-.15.08-.23-.07.23-.05.1-.01.03.02-.04.04-.07.06-.11.03-.04.05-.07.07-.1.03-.04.08-.08-.07.08.02-.02.03-.04.05-.06.05-.06.11-.12.17-.18.1-.09-.16.11-.01.01l.13-.08c.17-.1.28-.24.33-.43.05-.19.03-.37-.07-.54-.1-.17-.24-.28-.43-.33-.19-.05-.36-.03-.54.07Z"/>
    <path class="cls-3" d="M185.62,36.84c-1.68.96-.66,4.05,1.29,2.68,1.45-1.02.51-3.7-1.29-2.68Z"/>
    <path class="cls-3" d="M185.26,36.22c-.39.23-.69.55-.91.95-.21.4-.31.82-.29,1.28,0,.44.13.85.36,1.22.24.37.57.64.98.81.93.35,2.01-.26,2.53-1.02.25-.39.38-.81.4-1.26.02-.46-.08-.89-.3-1.29-.24-.47-.62-.78-1.13-.94-.58-.15-1.13-.06-1.64.25-.17.1-.28.24-.33.43-.05.19-.03.37.07.54.1.17.24.28.43.33.19.05.36.02.54-.07.04-.03.09-.05.13-.07.13-.07-.18.07-.01,0,.08-.03.16-.05.24-.07.15-.03-.16.01-.06,0,.03,0,.07,0,.1,0,.04,0,.07,0,.11,0,.08,0-.21-.04-.1-.02.02,0,.04.01.06.02.03,0,.07.02.1.03.08.03.11.08-.06-.03.06.04.11.07.17.1.08.04-.09-.08-.09-.07.02.02.03.03.05.04l.06.06s.05.05.07.07c.09.11-.11-.15-.03-.03.04.05.07.1.1.16.02.03.07.17.02.03-.06-.15,0,0,.01.04.02.07.04.14.06.2,0,.03.01.06.02.1.02.09-.03-.13-.02-.11,0,.02.01.05,0,.07,0,.07.01.15,0,.21,0,.04,0,.08,0,.11,0,.06-.04.11.02-.11,0,.03-.01.05-.02.07-.01.07-.03.14-.05.2-.02.04-.03.07-.04.11-.03.07.08-.17.04-.1-.01.02-.02.04-.03.06-.04.07-.08.14-.12.2-.09.13.08-.1.03-.04-.03.04-.06.07-.09.1-.03.03-.05.05-.08.08-.01.01-.03.03-.04.04-.08.08.14-.09.06-.05-.08.05-.16.11-.24.16-.04.03-.08.05-.12.06-.15.07.13-.05.04-.01-.08.03-.15.05-.23.06l-.06.02c-.08.02.19-.02.11-.02-.04,0-.07,0-.1.01-.03,0-.06,0-.09,0-.15,0,.2.04.06,0-.03,0-.06-.01-.08-.02-.04-.01-.16-.06-.02,0,.14.06.03.01,0,0-.03-.02-.06-.03-.09-.05-.07-.04-.11-.11.05.05-.02-.02-.04-.04-.06-.06s-.04-.04-.06-.06c-.02-.01-.03-.03-.04-.04-.07-.08.06.07.06.08,0-.03-.09-.14-.11-.17-.02-.03-.03-.05-.04-.08,0-.02-.01-.03-.02-.04-.05-.09.07.19.03.09-.04-.13-.08-.26-.1-.4-.01-.08.03.2.02.12,0-.02,0-.05,0-.07,0-.03,0-.07,0-.1,0-.08,0-.16.01-.24.01-.16-.04.19,0,.04,0-.04.02-.08.03-.12.02-.08.05-.16.07-.23-.07.23-.05.1-.01.04l.06-.11s.05-.07.07-.1c.03-.05.09-.08-.06.08l.05-.06c.06-.06.11-.12.18-.17.1-.09-.17.11-.02.01.04-.03.08-.06.13-.08.17-.1.28-.24.33-.43.05-.19.02-.36-.07-.54-.1-.17-.24-.28-.43-.33-.19-.05-.37-.03-.54.07Z"/>
    <path class="cls-3" d="M191.46,25.78c-1.68.96-.66,4.05,1.29,2.68,1.45-1.02.51-3.7-1.29-2.68Z"/>
    <path class="cls-3" d="M191.11,25.17c-.39.23-.69.54-.91.94-.21.4-.31.82-.29,1.28,0,.44.13.85.36,1.22.24.37.57.64.98.81.93.35,2.01-.26,2.53-1.02.24-.39.38-.81.4-1.26.02-.46-.08-.89-.3-1.29-.24-.47-.62-.78-1.13-.94-.58-.15-1.13-.06-1.64.26-.17.1-.28.24-.33.43-.05.19-.03.37.07.54.1.17.24.28.44.33.19.05.36.03.54-.07.04-.03.09-.05.13-.07.13-.07-.18.07-.01,0,.08-.03.16-.05.24-.07.15-.03-.16.01-.06,0,.03,0,.07,0,.1,0,.04,0,.07,0,.11,0,.08,0-.21-.04-.1-.01.02,0,.04,0,.06.01.03,0,.07.02.1.03.08.03.11.08-.06-.03.06.04.11.07.17.1.08.04-.09-.08-.09-.07.02.02.03.03.05.04l.06.06s.05.05.07.08c.09.1-.11-.16-.03-.04.04.05.07.11.1.16.02.03.07.17.02.03-.06-.14,0,0,.01.04.02.07.04.14.06.2,0,.03.01.07.02.1.02.09-.03-.12-.02-.11,0,.03,0,.05,0,.07,0,.07.01.15,0,.22,0,.04,0,.07,0,.11,0,.05-.04.11.02-.11l-.02.08c-.01.07-.03.13-.05.2-.02.04-.03.07-.04.11-.03.08.08-.17.04-.1-.01.02-.02.04-.03.06-.04.07-.08.14-.12.2-.09.13.08-.1.03-.03-.03.03-.06.07-.09.1-.03.03-.05.05-.08.08-.01.02-.03.03-.04.04-.09.08.14-.09.06-.05-.08.06-.16.11-.24.16-.04.03-.08.05-.12.07-.15.07.13-.05.04-.02-.08.03-.15.05-.23.07-.02,0-.04,0-.06.01-.08.02.19-.02.11-.02-.04,0-.07,0-.1,0-.03,0-.06,0-.09,0-.15,0,.2.04.06,0-.03,0-.06-.01-.08-.02-.04-.01-.16-.06-.02,0,.14.06.03.02,0,0-.03-.02-.06-.04-.09-.06-.07-.04-.11-.11.05.05-.02-.02-.04-.04-.06-.06s-.04-.04-.06-.06c-.02-.01-.03-.03-.04-.04-.07-.08.06.08.06.08,0-.03-.09-.14-.11-.17-.02-.03-.03-.05-.04-.08,0-.01-.01-.03-.02-.04-.05-.09.07.19.03.09-.04-.13-.08-.26-.1-.39-.01-.08.03.2.02.11,0-.02,0-.05,0-.07,0-.04,0-.07,0-.11,0-.08,0-.16.01-.24.01-.16-.04.19,0,.04,0-.04.02-.08.03-.12.02-.08.05-.15.07-.23-.07.23-.05.1-.01.04l.06-.11s.05-.07.07-.1c.03-.05.09-.08-.06.08l.05-.06c.05-.06.11-.12.18-.17.1-.09-.17.11-.02.01.04-.03.08-.05.13-.08.17-.1.28-.24.33-.43.05-.19.02-.37-.07-.54-.1-.17-.24-.28-.43-.33-.19-.05-.37-.02-.54.08Z"/>
    <path class="cls-3" d="M232.57,38.69c.57.02,1.14.11,1.69.27.48.15,1.16.27,1.4.77.49,1.02-.38,2.17-1.02,2.89-.44.49-.91.96-1.39,1.42-.45.47-.94.91-1.47,1.3-.6.42-1.58,1.69-.64,2.27.38.18.78.26,1.2.25.75.05,1.49.17,2.24.26.45.05.45-.66,0-.71-.69-.08-1.39-.18-2.08-.24-.22-.02-.86.04-1.01-.17-.1-.16.14-.55.23-.67.21-.23.46-.43.73-.59.48-.39.93-.8,1.35-1.24.89-.85,1.9-1.79,2.41-2.94.34-.79.43-1.84-.19-2.53-.38-.42-1.01-.56-1.53-.72-.63-.19-1.28-.3-1.93-.32-.45-.02-.45.69,0,.71Z"/>
    <path class="cls-3" d="M238.35,40.27c.28-.17.59-.29.91-.36.33-.07.66-.08.98-.04.33.04.65.14.95.28.3.15.56.34.8.58.17.15.33.15.49-.01.16-.16.17-.32.01-.49-.29-.29-.62-.53-.99-.71-.36-.18-.76-.3-1.16-.34-.41-.05-.81-.04-1.22.05-.4.09-.78.23-1.13.45-.19.12-.23.28-.11.47.11.2.27.24.47.14Z"/>
    <path class="cls-9" d="M239.81,41.85c.17.02.31.15.41.4.1.26.14.55.11.9-.03.34-.11.64-.25.87-.15.23-.3.34-.47.33s-.31-.15-.41-.4c-.1-.26-.14-.55-.11-.9.03-.34.11-.64.26-.87s.3-.34.47-.33Z"/>
    <path class="cls-9" d="M232.78,40.86c.17.02.31.15.41.4.1.26.14.55.11.9-.03.34-.11.64-.25.87-.15.23-.3.34-.47.33-.17-.02-.31-.15-.41-.4-.1-.26-.14-.55-.11-.9.03-.34.11-.64.26-.87.14-.23.3-.34.47-.33Z"/>
    <path class="cls-3" d="M235.71,50.56c.3.71.83,1.12,1.59,1.23.36.04.7-.02,1.02-.19.32-.17.56-.41.73-.73.15-.33.18-.67.08-1.02-.09-.35-.29-.63-.58-.84-.96.6-1.92,1.21-2.88,1.82"/>
    <path class="cls-3" d="M235.41,50.74c.21.47.53.84.98,1.09.45.26.93.35,1.44.29.24-.03.47-.1.69-.22.21-.11.4-.27.56-.46.16-.19.28-.4.35-.64s.11-.47.09-.72c-.04-.59-.31-1.06-.8-1.39-.12-.07-.24-.07-.36,0-.96.6-1.92,1.21-2.88,1.83-.38.24-.03.85.36.61.96-.61,1.92-1.22,2.88-1.83h-.36c.35.26.5.6.45,1.03s-.27.75-.66.94c-.84.45-1.78-.09-2.15-.9-.05-.08-.12-.14-.21-.16-.09-.03-.18-.02-.27.04-.19.12-.23.28-.13.48Z"/>
    <path class="cls-5" d="M220.51,110.83l-43.52,1.93c-2.3.1-4.94-.99-7.16-1.52-1.45-.34-2.91-.68-4.39-.89-3.95-.53-7.79-.09-11.52,1.3-3.3,1.21-7.97,5.09-10.55,7.45-.7.64-.15,1.33.58,1.66.75.32,1.41.06,2.14-.23,1.21-.48,4.36-2.96,5.46-3.65,0,0-6.77,6.02-5.47,7.27.78.75,8.07-4.51,8.07-4.51,0,0-6.77,6.02-5.71,7.79,1.06,1.77,8.56-5.8,8.56-5.8,0,0-5.75,5.99-4.69,7.76,0,0,2.84,1.47,8.05-5.79,1.43.73,2.94,1.1,4.54,1.11,1.6.02,3.12-.33,4.56-1.04,4.89-2.4,15.4-.31,15.4-.31"/>
    <path class="cls-3" d="M220.51,110.12l-2.49.11-6.41.29-8.72.39-9.42.42-8.52.38-6.01.27c-1.34.06-2.65.17-3.97-.09-1.35-.26-2.65-.69-3.97-1.06-1.44-.41-2.92-.74-4.4-.99-2.96-.53-5.92-.51-8.87.05-2.51.44-4.84,1.32-7.02,2.64-2.06,1.31-4.02,2.77-5.86,4.36-.41.35-.82.7-1.22,1.06-.39.34-.88.69-1.11,1.16-.69,1.4,1.03,2.58,2.27,2.52.98-.05,1.94-.54,2.76-1.06.84-.53,1.66-1.12,2.46-1.7.64-.46,1.26-.94,1.92-1.36l-.85-1.11c-.8.71-1.57,1.45-2.32,2.21-1.15,1.17-2.45,2.45-3.18,3.94-.28.56-.51,1.26-.18,1.85.34.6,1.01.61,1.6.43,1.53-.48,2.94-1.47,4.28-2.34,1.1-.71,2.19-1.46,3.26-2.22l-.86-1.11c-.93.83-1.83,1.71-2.69,2.63-.71.74-1.38,1.53-2,2.34-.54.66-.95,1.39-1.23,2.19-.2.68-.13,1.53.54,1.93.62.36,1.36.1,1.95-.17,1.6-.73,3.02-2.01,4.33-3.16,1.02-.89,2.01-1.81,2.95-2.77l-1-1c-.74.78-1.45,1.59-2.13,2.43-1.06,1.31-2.24,2.77-2.75,4.41-.18.59-.31,1.65.33,2.04.15.08.31.14.48.16,1,.19,2.03-.15,2.91-.61,2.34-1.24,4.11-3.48,5.63-5.59l-.97.26c1.16.62,2.38.99,3.69,1.13,1.22.15,2.44.09,3.65-.18,1.19-.26,2.23-.86,3.33-1.22,1.79-.59,3.71-.71,5.59-.71,1.87,0,3.74.14,5.59.38.6.07,1.3.18,1.99.29.27.05.55.09.82.15.89.18,1.27-1.19.38-1.36-2.55-.5-5.11-.78-7.7-.85-2-.09-3.98.05-5.95.45-.94.24-1.84.57-2.72.99-1.2.51-2.45.76-3.75.75-1.06-.01-2.1-.19-3.1-.54-.17-.06-.34-.13-.51-.19-.01,0-.1-.04-.02-.01.09.04-.05-.02-.07-.03-.06-.03-.11-.05-.17-.08-.11-.06-.23-.11-.34-.17-.17-.09-.34-.11-.53-.07s-.33.16-.44.32c-1.3,1.8-2.81,3.68-4.71,4.84-.15.09-.29.17-.44.25-.06.03-.13.06-.19.09-.04.02-.24.11-.18.08.09-.04-.09.04-.11.05-.06.02-.13.05-.19.07-.11.04-.23.07-.35.1-.09.03-.2.04-.29.06-.03,0,.17-.01.03,0-.05,0-.1.01-.15.02-.14,0-.29-.03-.43-.01.18-.02.13.03,0-.01-.04-.01-.08-.02-.12-.03-.18-.04.08.04.06.03l.26.26c-.07-.13,0,.02,0,0-.01-.05-.03-.09-.04-.14.04.13,0,.08,0-.02,0-.06,0-.13.01-.19,0-.1-.03.14,0,.04l.02-.08c.02-.06.03-.13.05-.19.04-.15.09-.29.15-.43.01-.02.06-.12,0-.01.02-.03.03-.06.04-.09.04-.07.07-.15.11-.22.08-.16.17-.33.26-.48.19-.34.4-.66.62-.98.82-1.18,1.72-2.31,2.7-3.37.22-.24.44-.48.67-.72.63-.66-.35-1.65-1-1-.7.7-1.43,1.39-2.16,2.06-1.23,1.19-2.57,2.25-4,3.19-.29.18-.58.34-.89.47.17-.07-.02.01-.06.03-.06.02-.11.04-.17.06-.06.02-.13.03-.18.04-.11.04.12.03-.02,0-.03-.01-.22-.02-.07,0,.15.03-.01-.01-.04-.02-.08-.02.16.08.09.04-.03-.02-.09-.05.01.02.07.05-.05-.1.06.06-.09-.14,0,.01,0,0-.04-.07-.01-.23-.02-.02v-.17s.02-.15-.02.06c.01-.04.02-.08.02-.11.04-.15.08-.28.14-.42-.06.15.02-.05.04-.09.05-.09.09-.19.15-.28.19-.35.41-.69.65-1.01.54-.72,1.12-1.41,1.74-2.07.92-.98,1.88-1.93,2.89-2.83.59-.53-.2-1.59-.86-1.11-.79.57-1.59,1.11-2.4,1.66-1.33.93-2.72,1.77-4.18,2.51-.07.04-.15.07-.22.1-.03.02-.07.03-.1.05,0,0,.11-.05.04-.02-.13.05-.26.1-.39.14-.06.02-.33.07-.21.06.14-.02,0,0-.03,0-.16-.01.17.04.05,0,.07.03.14.07.2.11-.02-.01.1.15.03.03-.05-.08.07.18.02.03-.03-.1.02.19.01.02,0-.18-.04.11,0,0,.02-.06.03-.11.04-.17.01-.05.03-.1.05-.15.05-.14-.05.08.04-.09.69-1.34,1.71-2.4,2.8-3.51.81-.83,1.64-1.64,2.51-2.41.6-.53-.18-1.54-.86-1.11-1.48.94-2.83,2.07-4.31,3.02-.31.2-.64.39-.97.56-.03.02-.05.03-.08.04.18-.08-.04.02-.07.03-.16.06-.31.12-.47.17-.28.11-.57.15-.88.1-.23-.07-.44-.19-.61-.36-.03-.03-.05-.06-.06-.1.01.03-.06.11.02-.01.05-.06.1-.11.17-.16.36-.34.74-.67,1.11-.99,1.73-1.53,3.56-2.95,5.48-4.25.91-.62,1.85-1.17,2.83-1.64,1.15-.51,2.33-.9,3.55-1.16,2.81-.68,5.64-.83,8.5-.43,1.49.21,2.96.55,4.42.92,1.29.32,2.56.76,3.85,1.07,1.16.31,2.33.44,3.53.41l1.31-.06,5.51-.24,8.1-.36,9.15-.41,8.78-.39,6.86-.3c1.15-.05,2.29-.09,3.44-.16.05,0,.1,0,.15,0,.91-.04.92-1.46,0-1.42h0Z"/>
    <path class="cls-5" d="M260.95,100.13c-1.04,4.42-2.58,8.66-4.63,12.71-2.05,4.06-4.54,7.81-7.48,11.27-2.77,3.25-5.94,6.22-9.72,8.2-4.55,2.39-9.74,3.22-14.84,3.83-9.32,1.1-18.84,1.57-28.02-.39-3.41-.73-6.96-1.91-9.61-4.26-1.2-1.08-2.18-2.33-2.94-3.75-.4-.74-.78-2.73-1.74-2.92l-1.58-.32c-.17-.02-.33-.08-.47-.18-.11-.1-.19-.23-.24-.38-1.37-3.39-.73-8.33.82-11.55.29-.59.68-1.22,1.31-1.4.56-.13,1.06,0,1.48.38.4.35.74.77,1.01,1.23,1.59-.11,3.19-.31,4.78-.38l13.36-.59,18.07-.8c-.14-1.12,2.03-4.02,2.52-4.99,1.93-3.85,3.86-7.7,5.78-11.56,3.13-6.26,5.95-13.85,11.04-18.99"/>
    <path class="cls-3" d="M260.27,99.94c-1.81,7.66-5.06,14.64-9.76,20.95-2.31,3.1-4.94,6.06-8.02,8.42-3.2,2.46-6.86,3.99-10.78,4.9-4.07.95-8.28,1.38-12.43,1.74-4.38.42-8.75.53-13.14.34-4.18-.21-8.42-.72-12.44-1.92-1.82-.51-3.52-1.27-5.11-2.28-1.63-1.07-2.94-2.44-3.94-4.11-.33-.57-.59-1.16-.81-1.78-.26-.66-.55-1.38-1.15-1.81-.32-.19-.66-.31-1.03-.35l-.79-.16c-.15-.03-.3-.07-.44-.09-.13-.05-.16-.05-.09-.02.06.04.05.01-.02-.09-.07-.34-.25-.69-.34-1.04-.11-.41-.19-.82-.25-1.24-.22-1.78-.14-3.53.26-5.28.18-.85.42-1.68.72-2.49.23-.6.52-1.56,1.13-1.9.78-.43,1.49.69,1.83,1.22.14.23.34.35.61.35,2.35-.17,4.68-.37,7.03-.47l7.08-.32,14.11-.63,7.98-.35c.2,0,.36-.07.5-.21s.21-.31.21-.5c0-.07,0-.15,0-.22-.01.14.02-.05.03-.1.05-.17.1-.34.17-.5.2-.44.42-.88.68-1.29.46-.79.99-1.54,1.44-2.33.73-1.3,1.35-2.69,2.02-4.02.73-1.47,1.47-2.94,2.21-4.41,1.28-2.56,2.54-5.11,3.76-7.7,1.14-2.44,2.29-4.88,3.6-7.23,1.42-2.65,3.16-5.06,5.22-7.23.64-.65-.36-1.65-1-1-3.85,3.92-6.32,8.94-8.64,13.86-2.64,5.61-5.44,11.15-8.22,16.69-.45.9-1.05,1.71-1.56,2.58-.48.82-1.21,1.91-1.11,2.91l.7-.71c-9.43.42-18.86.83-28.29,1.26-1.31.06-2.63.1-3.93.18-1.33.09-2.66.23-3.98.33l.61.35c-.56-.85-1.21-1.72-2.27-1.95-1.08-.23-1.96.38-2.51,1.27-.93,1.53-1.42,3.44-1.69,5.2-.32,1.9-.31,3.79.05,5.68.08.39.18.77.3,1.15.16.48.32,1.05.77,1.35.41.28.95.31,1.42.41.29.04.58.09.86.18-.03-.02-.1-.06.03.02.06.03.11.08.15.14.34.53.59,1.1.77,1.7.33.81.75,1.57,1.28,2.27,1.21,1.69,2.71,3.06,4.51,4.1,3.61,2.1,7.9,2.91,11.99,3.46,4.56.57,9.13.74,13.71.5,4.55-.21,9.08-.65,13.58-1.33,4.23-.64,8.47-1.66,12.23-3.78,3.58-2.01,6.61-4.87,9.26-7.97,5.35-6.3,9.19-13.42,11.52-21.35.29-.97.54-1.96.78-2.94.21-.89-1.16-1.27-1.36-.38Z"/>
    <path class="cls-3" d="M183.58,119.17c.09-1.97.61-3.82,1.56-5.55.44-.8-.79-1.52-1.22-.71-1.06,1.95-1.65,4.04-1.75,6.27,0,.19.07.36.21.5.14.14.31.21.5.21s.36-.07.5-.21.21-.31.21-.5Z"/>
    <path class="cls-3" d="M239.89,57.88c-.27.08-.54.16-.81.21-.15.03-.3.05-.44.07.16-.02-.06,0-.07.01-.07.01-.15.02-.22.02-.57.06-1.15.07-1.72.09-.19,0-.36.07-.5.2s-.21.31-.21.51.07.36.21.51.31.2.5.2c1.24.03,2.46-.13,3.66-.45.19-.05.33-.16.43-.33.09-.17.12-.35.07-.54-.05-.19-.17-.33-.33-.43-.17-.09-.35-.11-.54-.06Z"/>
    <path class="cls-5" d="M153.06,51.69c-.88-.56-2.04-.2-2.95.3-.57.31-1.18.83-1.04,1.46.11.45.59.72,1.04.84.88.2,1.78.25,2.68.15-.52.83-.64,1.71-.35,2.64.28.89.73,1.68,1.35,2.37"/>
    <path class="cls-3" d="M153.42,51.08c-.92-.48-1.85-.52-2.8-.1-.84.32-1.8.81-2.15,1.7-.4.99.3,1.85,1.2,2.2.98.38,2.09.32,3.13.27l-.61-1.07c-1.3,1.97-.21,4.26,1.12,5.86.14.14.3.21.5.21s.36-.07.5-.21c.14-.14.2-.31.2-.5s-.07-.36-.2-.5c-.93-1.13-1.81-2.76-.9-4.15.06-.11.09-.23.09-.35s-.03-.24-.09-.35-.15-.2-.26-.26c-.11-.06-.23-.09-.35-.1-.34.02-3.22.18-3-.56.13-.42.91-.71,1.27-.84.54-.2,1.13-.33,1.65-.02.79.46,1.51-.77.72-1.22h0Z"/>
    <path class="cls-3" d="M225.69,138.3l-.46,8.89c-.14,2.54-.26,5.1.22,7.61.25,1.4.73,2.7,1.44,3.93.46.79,1.69.07,1.22-.71-1.23-2.08-1.56-4.48-1.59-6.86-.04-2.64.19-5.29.32-7.93l.26-4.93c.05-.91-1.37-.91-1.42,0Z"/>
    <path class="cls-3" d="M198.18,301.13c.99-2.28,3.26-3.74,5.58-4.63s4.8-1.32,7.08-2.28c2.45-.99,4.48-2.53,6.09-4.64,2.78-3.73,3.34-8.59,3.28-13.11-.04-3.05-.44-6.06-.6-9.09-.04-.74-1.36-8.3-1.06-8.39,1.63-.46,3.27-.53,4.93-.18.65.11,1.24.35,1.78.73.87.67,1.23,1.79,1.71,2.77.06.17.17.3.31.4.13.05.26.07.39.07,1.39.02,2.78.06,4.16.03.94-.02,1.9.07,2.84.1l4.07.15-.54,38.85h-40.32c.08-.27.17-.52.28-.78Z"/>
    <path class="cls-3" d="M198.79,301.48c1.04-2.32,3.34-3.67,5.65-4.48,2.78-.98,5.7-1.49,8.31-2.92,2.41-1.3,4.3-3.12,5.68-5.48,1.35-2.36,2.02-5.03,2.31-7.71.32-2.91.19-5.83-.05-8.74-.17-2.06-.25-4.14-.56-6.19-.24-1.59-.49-3.18-.71-4.77-.06-.44-.16-1.16-.19-1.73,0-.08,0-.17-.01-.25,0-.04,0-.07,0-.1-.03-.09-.04.2-.01.1-.03.1-.33.36-.32.42,0,0,.32-.08.29-.07.17-.04.34-.08.52-.11.36-.06.72-.11,1.09-.13.77-.05,1.53,0,2.29.13.68.08,1.29.31,1.83.71.44.43.78.94,1,1.52.25.54.45,1.29.98,1.61.35.17.72.23,1.11.2.43,0,.85.01,1.28.02.8.01,1.6.02,2.4,0,1.57-.03,3.16.11,4.73.17l2.35.09-.71-.71-.05,3.87-.13,9.28-.15,11.22-.14,9.7-.04,3.2c-.01.49-.06,1.02-.02,1.51v.06l.7-.71h-38.68c-.52,0-1.06-.05-1.57,0-.02,0-.05,0-.07,0l.68.9c.08-.27.17-.53.28-.78.05-.19.03-.37-.07-.54-.1-.17-.24-.28-.43-.33-.19-.05-.37-.03-.54.07-.17.09-.28.23-.34.42-.1.26-.2.51-.28.78-.03.11-.03.21-.01.32s.07.2.13.29c.07.09.15.16.25.21.1.05.2.07.31.07h35.38c1.62,0,3.26.06,4.88,0h.07c.2,0,.36-.07.5-.21s.21-.3.21-.5l.06-3.86.13-9.28.16-11.22.13-9.7c.03-1.57.11-3.15.07-4.71v-.07c0-.19-.07-.36-.21-.49s-.31-.21-.5-.21c-1.62-.06-3.24-.1-4.86-.19-1.59-.09-3.18-.05-4.77-.07-.4,0-.8-.02-1.2-.02-.16,0-.37-.07-.23.07-.1-.15-.18-.3-.23-.47-.24-.61-.55-1.19-.9-1.76-.89-1.27-2.24-1.72-3.72-1.92-.78-.1-1.56-.13-2.35-.06-.36.04-.73.08-1.09.15-.41.04-.81.14-1.2.31-.47.28-.41.89-.37,1.35.14,1.59.41,3.17.65,4.74.11.72.22,1.45.33,2.18.02.13.04.26.06.38,0,.03.03.21.01.08-.02-.13,0,.03,0,.07.05.44.06.88.09,1.32.22,3.14.59,6.27.53,9.42-.05,2.7-.38,5.41-1.34,7.95-.94,2.54-2.53,4.59-4.74,6.15-1.12.77-2.32,1.39-3.6,1.85-1.42.52-2.9.89-4.34,1.32-2.55.77-5.2,1.85-6.91,3.98-.4.49-.73,1.03-1,1.61-.09.17-.11.35-.06.54.05.19.15.33.32.43s.35.13.54.07c.19-.05.33-.16.43-.32Z"/>
    <g class="cls-8">
      <path class="cls-5" d="M197.9,301.9h40.32l-.06,5.2c-3.04,0-6.09,0-9.13.01,0-.34-.07-.66-.2-.97-.13-.31-.32-.58-.56-.82-.24-.23-.51-.42-.82-.55-.31-.13-.64-.19-.97-.19s-.66.07-.97.2c-.31.13-.58.31-.82.55s-.42.52-.55.83c-.13.31-.19.64-.19.97h0c-6.81.08-26.42.31-26.43-.35-.02-1.64-.03-3.32.38-4.88Z"/>
    </g>
    <g class="cls-7">
      <path class="cls-3" d="M197.9,302.61h38.68c.52,0,1.06.05,1.57,0h.07l-.71-.71-.06,5.2.71-.71-9.13.02.71.71c-.01-.43-.1-.85-.27-1.24s-.41-.74-.72-1.05c-.31-.3-.66-.53-1.06-.69-.4-.16-.81-.24-1.24-.24-1.67.04-3.28,1.5-3.19,3.25l.71-.71c-4.29.05-8.57.09-12.86.1-4.03,0-8.09.08-12.1-.2-.28-.02-.55-.05-.82-.08-.07,0,.19.04.01,0-.05,0-.09-.02-.14-.02-.07-.02-.13-.04-.2-.05-.13-.01.15.07.09.04.08.06.16.13.21.21.04.09.06.57.09.19.01-.15,0-.31,0-.46,0-.26,0-.52,0-.78-.02-1.11.1-2.21.36-3.3.22-.89-1.14-1.27-1.36-.38-.24,1.01-.38,2.03-.4,3.06-.01.46-.02.93-.01,1.39-.05.34-.01.67.11.99.26.43.83.46,1.28.52,1.46.18,2.96.18,4.44.21,4.85.1,9.71.06,14.57.03,2.25-.02,4.5-.04,6.75-.07.19,0,.36-.07.5-.21.14-.14.2-.31.21-.5,0-.24.04-.47.14-.7s.22-.42.39-.59c.17-.17.37-.31.59-.4.22-.09.45-.14.69-.15.24,0,.47.05.7.14.22.09.42.22.6.39.17.17.3.36.4.59.09.22.14.45.15.7,0,.19.07.36.21.49.14.14.3.21.5.21h9.13c.19-.02.36-.08.5-.22s.2-.3.21-.49l.06-5.2c0-.19-.07-.36-.21-.49-.14-.14-.3-.21-.5-.21h-35.38c-1.62,0-3.26-.06-4.88,0h-.07c-.91,0-.91,1.42,0,1.42Z"/>
    </g>
    <path class="cls-5" d="M212.29,294.39c.49.17.86.48,1.1.95.34.52.66,1.05.96,1.59.6,1.1,1.09,2.25,1.48,3.44.15.43.83.25.68-.19-.43-1.32-.98-2.59-1.66-3.81-.31-.57-.65-1.13-1.03-1.66-.32-.51-.77-.84-1.34-1.01-.44-.1-.63.58-.19.68Z"/>
    <path class="cls-5" d="M236.21,294.89c-1.09.4-2.04,1.01-2.85,1.83-.82.83-1.42,1.79-1.8,2.89-.15.43.53.61.68.19.34-.98.88-1.84,1.61-2.57.73-.74,1.58-1.29,2.55-1.65.43-.16.24-.84-.19-.68Z"/>
    <path class="cls-5" d="M226.39,265.15c.26,4.6.01,9.18-.73,13.73-.36,2.23-.85,4.44-1.47,6.62-.52,2.02-1.41,3.86-2.67,5.53-1.35,1.7-3.02,2.99-4.99,3.89-.41.19-.05.8.36.61,3.69-1.68,6.32-4.83,7.61-8.64.72-2.21,1.27-4.46,1.66-6.75.91-4.96,1.22-9.96.95-14.99-.03-.45-.73-.45-.71,0Z"/>
    <path class="cls-5" d="M222.85,265.38l-3.56-.34c-.1,0-.18.04-.25.1s-.1.15-.1.25c0,.23.12.35.35.35l3.56.34c.1,0,.18-.04.25-.1s.1-.15.1-.25c0-.23-.12-.35-.35-.35Z"/>
    <path class="cls-5" d="M223.52,269.19c-1.18-.18-2.36-.26-3.55-.25-.22.01-.34.13-.34.35s.11.34.34.35c1.13-.02,2.24.06,3.36.22.22.06.36-.03.43-.24.03-.09.02-.18-.03-.27-.05-.08-.12-.14-.21-.17Z"/>
    <path class="cls-5" d="M222.99,273.23c-.72.14-1.42.08-2.1-.16-.09-.03-.18-.02-.27.03-.08.05-.14.12-.17.21-.06.22.03.37.25.44.81.28,1.64.33,2.48.16.09-.03.17-.08.21-.17s.06-.18.03-.27c-.06-.22-.21-.3-.43-.24Z"/>
    <path class="cls-5" d="M222.62,276.66h-2.3c-.09,0-.18.04-.25.1-.07.07-.1.16-.1.25,0,.1.04.18.1.25.07.07.16.1.25.1h2.3c.1,0,.18-.03.25-.1.07-.07.1-.15.1-.25,0-.09-.04-.18-.1-.25s-.15-.1-.25-.1Z"/>
    <path class="cls-5" d="M222.13,281.08l-1.95-.47c-.09-.03-.19-.02-.27.03-.08.05-.14.12-.17.21s-.01.19.04.27.11.14.21.17l1.95.47c.1.03.19.02.27-.03.09-.05.14-.12.17-.21s.02-.19-.03-.27-.12-.14-.21-.17Z"/>
    <path class="cls-5" d="M221.58,285.07c-.31-.02-.61-.07-.92-.15-.32-.08-.64-.18-.94-.3-.09-.02-.18-.01-.27.04-.08.05-.14.12-.17.21-.05.22.03.37.25.44.66.26,1.34.42,2.05.47.1,0,.18-.04.25-.1.07-.07.1-.16.1-.25,0-.23-.12-.35-.35-.36Z"/>
    <path class="cls-5" d="M219.67,289.86l-1.59-1.06c-.09-.05-.18-.06-.27-.04-.09.02-.17.08-.21.16-.11.2-.07.36.13.48l1.59,1.07c.09.05.18.06.27.03.09-.02.17-.08.21-.16.11-.2.07-.36-.13-.48Z"/>
    <path class="cls-5" d="M217.27,292.03l-.92-.58c-.08-.05-.18-.06-.27-.04s-.17.08-.21.16c-.11.2-.07.36.13.49l.92.57c.08.05.17.06.27.04s.17-.08.22-.16c.11-.2.07-.36-.13-.48Z"/>
    <path class="cls-5" d="M237.8,266.21c-1.57.11-3.15.13-4.72.07-.46-.02-.45.69,0,.71,1.57.06,3.15.04,4.72-.07.45-.03.45-.74,0-.71Z"/>
    <path class="cls-3" d="M217.86,265.55c-.55-.74-1.28-1.1-2.2-1.09-.52,0-1.03.1-1.51.31-.39.12-.72.33-1,.63-.63.79.15,1.65.9,1.95.79.32,1.67.21,2.5.1l-.35-.59c-.53.46-.93,1.02-1.22,1.66-.23.54-.48,1.24-.26,1.82.09.27.27.44.54.51.36.04.66-.09.89-.39.54-.53.99-1.13,1.36-1.79.1-.2.06-.36-.14-.47-.19-.11-.35-.07-.47.11-.27.48-.58.92-.95,1.33-.09.1-.18.19-.28.29-.05.05-.17.21-.24.22-.08,0-.1-.2-.1-.3.04-.46.17-.9.41-1.3.24-.45.56-.85.95-1.19.3-.27-.03-.64-.34-.59-.58.11-1.17.11-1.76.01-.4-.09-1.35-.58-.78-1.05.55-.39,1.17-.58,1.85-.56.65-.02,1.18.23,1.59.74.27.36.88.01.61-.36Z"/>
    <path class="cls-3" d="M282.35,299.98c-.43-2.45.65-4.93,2.1-6.95,1.45-2.02,3.27-3.75,4.65-5.82,1.5-2.18,2.34-4.59,2.53-7.23.26-4.65-1.95-9.01-4.49-12.75-1.71-2.52-3.7-4.81-5.51-7.25-.45-.6-5.71-6.17-5.51-6.41,1.1-1.29,2.44-2.24,4.01-2.87.6-.27,1.22-.4,1.88-.38,1.09.08,2.02.8,2.96,1.36.14.1.3.16.48.16.14-.02.26-.07.36-.16,1.16-.75,2.34-1.48,3.48-2.27.78-.54,1.63-.99,2.43-1.48l3.48-2.13,20.96,32.7-33.63,22.28c-.08-.27-.15-.53-.19-.8Z"/>
    <path class="cls-3" d="M283.03,299.8c-.45-2.78,1.18-5.42,2.85-7.47,1.82-2.24,3.84-4.3,5.07-6.96,1.23-2.62,1.65-5.36,1.24-8.23-.39-2.78-1.52-5.42-2.92-7.83-1.46-2.53-3.27-4.83-5.07-7.11-1.07-1.35-2.08-2.73-3.24-4.01-1.07-1.18-2.16-2.36-3.21-3.57-.2-.24-.41-.48-.6-.72-.05-.05-.27-.34-.15-.18-.06-.08-.13-.16-.18-.25-.02-.02-.06-.14-.09-.15.13.05.04.4.02.48-.1.34-.03.15.08.04.07-.08.15-.16.23-.24.44-.46.93-.86,1.45-1.22.99-.67,2.44-1.54,3.68-1.29.63.17,1.2.44,1.72.82.61.38,1.26.9,2,.55.67-.36,1.31-.77,1.92-1.21.63-.4,1.24-.81,1.86-1.23,1.24-.84,2.57-1.56,3.84-2.34l2.01-1.22-.97-.26,2.09,3.26,5.01,7.81,6.06,9.45,5.24,8.17,1.72,2.69c.25.44.52.86.81,1.28.02.02.03.04.04.05l.26-.97-3.35,2.22-8.04,5.32-9.69,6.42-8.43,5.59-2.76,1.82c-.43.29-.91.55-1.31.87-.02.02-.04.03-.06.04l1.04.43c-.08-.27-.15-.53-.19-.8-.06-.19-.17-.33-.34-.43-.17-.1-.34-.12-.54-.07-.18.06-.32.17-.42.34-.09.17-.12.35-.07.54.05.27.12.54.2.8.03.1.08.2.16.28s.16.14.26.18c.1.04.21.06.32.05.11,0,.21-.04.31-.09l3.34-2.22,8.04-5.32,9.69-6.42,8.43-5.58c1.35-.9,2.73-1.77,4.07-2.7.02-.01.04-.02.06-.04.17-.1.28-.24.32-.43.05-.19.03-.37-.07-.54l-2.09-3.26-5.01-7.81-6.06-9.45-5.23-8.17c-.85-1.32-1.66-2.67-2.54-3.96-.02-.02-.03-.04-.04-.05-.1-.17-.24-.28-.43-.32-.19-.05-.36-.03-.54.07-1.33.81-2.65,1.64-3.99,2.43-1.33.79-2.6,1.66-3.91,2.49-.3.19-.61.39-.91.58-.15.1-.3.2-.45.29-.07.06-.16.11-.24.16.17-.03.03-.04-.07-.1-.55-.36-1.13-.7-1.71-1.01-.65-.32-1.33-.46-2.06-.42-.76.1-1.47.31-2.16.65-1.28.58-2.4,1.38-3.36,2.4-.31.33-.69.67-.54,1.17.07.19.17.36.3.52.88,1.19,1.91,2.27,2.9,3.36.53.58,1.06,1.17,1.58,1.75.19.21.38.42.56.63.07.07.13.15.2.22.03.03.18.21.07.08-.14-.17.06.09.09.13.05.06.09.12.14.18.12.16.24.32.36.48.23.31.47.61.71.92.48.62.97,1.23,1.46,1.85.93,1.19,1.85,2.38,2.7,3.63,1.57,2.3,2.98,4.77,3.77,7.45.87,2.76.85,5.52-.04,8.27-.94,2.79-2.8,4.96-4.68,7.16-1.86,2.19-3.65,4.61-3.99,7.57-.07.71-.05,1.42.07,2.13.06.19.17.33.34.43.17.09.35.12.54.07.18-.06.32-.17.42-.34.09-.17.12-.34.07-.53Z"/>
    <path class="cls-5" d="M282.54,300.79l33.63-22.28,2.81,4.37-7.61,5.06c-.19-.28-.42-.52-.7-.7-.28-.19-.58-.31-.92-.38-.33-.06-.66-.06-.99,0-.33.07-.64.19-.91.38-.28.19-.52.42-.7.7-.18.28-.31.58-.38.92-.07.33-.07.66,0,.99.06.33.19.64.38.92-5.64,3.82-21.87,14.85-22.24,14.3-.92-1.35-1.86-2.75-2.38-4.28Z"/>
    <path class="cls-3" d="M282.9,301.4l3.34-2.22,8.04-5.32,9.69-6.42,8.43-5.58,2.76-1.83c.43-.28.91-.54,1.31-.86.02-.02.04-.03.06-.04l-.97-.26,2.81,4.38.26-.97c-2.54,1.69-5.07,3.38-7.61,5.06l.97.26c-.24-.36-.55-.66-.91-.91-.36-.24-.76-.4-1.19-.48s-.85-.08-1.28,0-.82.26-1.18.5c-1.34.95-1.91,3.03-.88,4.43l.26-.97c-3.57,2.43-7.15,4.84-10.74,7.24-3.34,2.22-6.68,4.53-10.18,6.51-.24.14-.48.27-.73.39-.04.02-.09.04-.13.06-.17.09.13-.03.02-.01-.06.02-.12.03-.18.06-.07.06.21-.02.12-.02-.08,0,.22.04.16.02.03,0,.31.19.32.19-.06,0-.35-.52-.41-.6-.14-.2-.27-.4-.4-.61-.58-.87-1.06-1.8-1.42-2.78-.3-.86-1.66-.49-1.36.38.33.92.74,1.79,1.26,2.63.22.38.46.74.7,1.1.21.31.42.79.75.98.43.25.92,0,1.32-.2,1.3-.69,2.57-1.44,3.79-2.26,4.11-2.6,8.16-5.32,12.19-8.04,1.89-1.27,3.77-2.54,5.65-3.82.17-.1.28-.24.33-.43.05-.19.03-.36-.07-.54-.14-.2-.23-.42-.29-.65-.05-.24-.06-.47-.02-.71s.13-.46.26-.67c.13-.2.29-.38.49-.52.2-.14.42-.23.65-.29.24-.05.47-.06.71-.02s.46.13.67.26c.2.13.38.29.52.49.1.17.24.28.43.33.19.05.36.03.54-.07,2.54-1.68,5.07-3.37,7.61-5.06.17-.1.28-.24.32-.43s.03-.36-.07-.54l-2.81-4.37c-.1-.17-.24-.28-.43-.32-.19-.05-.37-.03-.54.07l-3.35,2.22-8.04,5.32-9.69,6.42-8.43,5.59c-1.35.9-2.73,1.77-4.06,2.69-.02.02-.04.03-.06.04-.76.5-.05,1.73.71,1.22Z"/>
    <path class="cls-5" d="M290.39,286.58c.58-.21,1.16.04,1.69.27.54.24,1.07.5,1.59.78,1.05.57,2.04,1.22,2.97,1.96.35.28.86-.22.5-.5-1.04-.83-2.15-1.56-3.32-2.18-.57-.3-1.15-.57-1.73-.82-.6-.25-1.26-.43-1.89-.2-.43.16-.24.84.19.69Z"/>
    <path class="cls-5" d="M310.59,273.82c-.67.93-1.12,1.95-1.34,3.08s-.19,2.24.09,3.35c.07.22.21.3.43.23.22-.06.3-.2.26-.42-.26-1.02-.28-2.05-.07-3.07.21-1.03.63-1.97,1.25-2.81.27-.37-.34-.72-.61-.36Z"/>
    <path class="cls-5" d="M286.04,254.38c2.58,3.47,4.78,7.17,6.6,11.09.92,1.97,1.73,3.99,2.44,6.05.72,2.1,1.29,4.26,1.2,6.49-.09,2.4-.78,4.61-2.05,6.64-.24.39.36.74.61.36,1.13-1.81,1.81-3.77,2.06-5.89.21-2.24-.04-4.42-.74-6.55-1.34-4.28-3.13-8.35-5.38-12.23-1.25-2.19-2.63-4.29-4.14-6.32-.27-.36-.88-.01-.61.36Z"/>
    <path class="cls-5" d="M283.24,256.53l-3.17,1.68c-.4.21-.04.83.36.61l3.16-1.68c.41-.21.05-.83-.35-.61Z"/>
    <path class="cls-5" d="M285.81,259.39c-1.05.49-2.05,1.06-3.01,1.7-.19.13-.23.29-.13.48.05.09.13.14.22.17.09.02.18.01.27-.04.96-.65,1.96-1.22,3.01-1.71.08-.05.14-.12.16-.21s.02-.19-.04-.27c-.12-.2-.28-.24-.48-.13Z"/>
    <path class="cls-5" d="M287.68,262.99c-.07.07-.14.14-.2.2-.04.03-.07.06-.1.08-.02.02-.04.04-.06.05.03-.02.01-.01-.01,0-.15.11-.31.22-.47.31l-.23.13s-.09.04-.14.06c0,0-.07.03-.04.02.03-.02-.03.01-.04.01-.18.07-.36.14-.55.18-.09.03-.16.08-.21.17s-.06.18-.03.27.08.16.16.21c.08.05.18.06.27.04.83-.21,1.55-.62,2.15-1.22.07-.07.1-.16.1-.26,0-.09-.03-.18-.1-.25-.07-.07-.16-.1-.26-.1s-.18.04-.25.1Z"/>
    <path class="cls-5" d="M289.26,266.07l-1.92,1.27c-.09.05-.14.12-.17.22-.03.09-.02.18.04.27.05.08.12.14.22.16.09.03.18.01.27-.04l1.92-1.27c.08-.05.14-.12.17-.22.03-.09.02-.19-.04-.27-.05-.09-.12-.14-.22-.17-.09-.02-.19-.01-.27.04Z"/>
    <path class="cls-5" d="M291.29,270.03l-1.89.69c-.09.03-.17.08-.21.17s-.06.17-.03.27.08.17.16.21c.09.05.18.06.27.04l1.89-.69c.09-.03.17-.08.21-.17s.06-.17.03-.27-.08-.17-.17-.21c-.08-.05-.17-.06-.27-.04Z"/>
    <path class="cls-5" d="M293.03,273.65c-.15.08-.3.16-.46.23-.03.02-.06.03-.09.04-.04.02-.04.02-.01,0-.02.01-.04.02-.06.03-.07.03-.15.06-.22.09-.31.11-.63.2-.95.27-.09.03-.16.08-.21.17-.05.08-.06.18-.03.27.07.22.21.3.43.24.69-.15,1.35-.39,1.97-.73.08-.05.14-.13.16-.22.02-.09.01-.18-.04-.27-.12-.2-.28-.24-.48-.13Z"/>
    <path class="cls-5" d="M294.08,278.71h-1.91c-.1-.01-.18.03-.25.09-.07.07-.1.16-.1.25,0,.1.03.18.1.26.07.07.15.1.25.1h1.91c.1,0,.18-.03.25-.1.07-.07.1-.15.1-.25s-.03-.18-.1-.25c-.07-.07-.15-.1-.25-.1Z"/>
    <path class="cls-5" d="M293.28,281.84l-1.08.03c-.1,0-.18.03-.25.1-.07.07-.1.15-.1.25s.03.18.1.25c.07.07.15.1.25.1l1.08-.03c.1,0,.18-.03.26-.1.07-.07.1-.16.1-.26s-.04-.18-.1-.25c-.07-.07-.16-.1-.26-.1Z"/>
    <path class="cls-5" d="M296.17,248.96c-1.25.96-2.55,1.85-3.9,2.67-.39.24-.03.85.36.61,1.34-.82,2.64-1.71,3.89-2.67.2-.12.24-.28.13-.48-.05-.08-.13-.14-.22-.16s-.18-.02-.27.04Z"/>
    <path class="cls-3" d="M279.1,259.42c-.43-.15-.87-.18-1.32-.1-.45.08-.85.26-1.21.54-.33.25-.63.55-.87.89-.29.34-.48.73-.56,1.18-.09.95.95,1.27,1.71,1.15.88-.14,1.59-.73,2.24-1.3l-.59-.34c-.19.68-.22,1.37-.11,2.07.09.59.29,1.34.82,1.7.24.18.49.2.77.07.28-.18.43-.43.46-.76.16-.74.21-1.5.16-2.26-.03-.45-.74-.46-.71,0,.04.54.03,1.09-.05,1.63-.01.24-.06.47-.14.69-.04.06-.03.05-.05.05-.06,0-.16-.14-.19-.18-.24-.41-.37-.85-.39-1.32-.05-.52,0-1.02.13-1.52.04-.17-.01-.3-.17-.4-.15-.09-.3-.07-.42.05-.46.46-1,.81-1.61,1.05-.42.12-1.34.14-1.08-.54.25-.58.64-1.05,1.16-1.41.57-.41,1.18-.5,1.84-.27.43.16.61-.53.19-.68Z"/>
    <path class="cls-3" d="M256.5,29.9c4.21-2.86,9.69-4.04,14.55-2.51,4.85,1.53,8.83,6,9.17,11.09.19,2.81-.67,5.58-.88,8.39-.27,3.49,1.82,6.64,5.13,8-3.98,1.35-8.49-.48-11.47-3.46-2.98-2.98-4.73-6.94-6.43-10.8-.58.41-1.21.72-1.89.95-.67.22-1.36.35-2.07.38-.71.03-1.41-.05-2.09-.22-.69-.17-1.34-.44-1.95-.8-.61-.36-1.16-.8-1.65-1.31s-.9-1.09-1.22-1.72c-.32-.63-.55-1.3-.69-1.99-.13-.7-.17-1.4-.1-2.11"/>
    <path class="cls-3" d="M256.86,30.51c5.29-3.56,12.66-4.43,17.94-.36,1.16.88,2.14,1.93,2.92,3.15.79,1.23,1.33,2.55,1.64,3.98.34,1.72.16,3.49-.11,5.21-.28,1.78-.73,3.63-.63,5.43.2,3.47,2.51,6.32,5.66,7.64v-1.37c-2.92.97-6.03.15-8.55-1.47-2.74-1.77-4.64-4.51-6.15-7.34-.89-1.67-1.65-3.4-2.41-5.13-.1-.17-.24-.28-.43-.32-.19-.05-.36-.03-.54.07-.85.58-1.78.95-2.8,1.11-1.02.17-2.02.11-3.01-.17-.96-.29-1.82-.77-2.57-1.44s-1.32-1.48-1.7-2.42c-.44-1.06-.61-2.15-.51-3.3.08-.91-1.34-.9-1.42,0-.09,1.2.08,2.35.48,3.48.41,1.13,1.03,2.11,1.87,2.97.85.86,1.84,1.49,2.98,1.91,1.14.41,2.31.56,3.51.44,1.41-.12,2.71-.57,3.89-1.36l-.97-.26c1.42,3.24,2.88,6.5,5.08,9.3,2.06,2.61,4.87,4.71,8.15,5.47,1.84.45,3.66.39,5.46-.18.71-.23.63-1.1,0-1.37-2.62-1.09-4.54-3.62-4.63-6.49-.05-1.84.43-3.69.69-5.51.25-1.8.36-3.6-.02-5.4-.34-1.49-.92-2.88-1.73-4.17s-1.82-2.41-3.02-3.36c-1.27-1.01-2.67-1.8-4.19-2.35-1.53-.56-3.1-.85-4.72-.89-1.94-.03-3.84.23-5.7.79-1.85.56-3.58,1.39-5.18,2.48-.76.51-.05,1.74.71,1.22Z"/>
    <path class="cls-3" d="M251.39,60.56c.14.13.28.26.4.41l.09.11s-.03-.04,0,0c.02.02.04.04.05.06.05.08.11.16.16.24.1.16.18.32.26.49.02.04-.02-.04,0,.02.01.02.02.04.03.06.02.05.03.09.05.14.03.1.06.2.09.29.02.1.08.17.17.22.08.05.17.06.27.04.1-.03.17-.08.22-.17.05-.08.06-.18.03-.27-.22-.85-.66-1.57-1.31-2.15-.07-.07-.15-.1-.25-.1s-.18.03-.25.1c-.07.07-.1.15-.1.25,0,.09.03.18.1.25Z"/>
    <path class="cls-3" d="M249.62,63.31l.46,1.53c.03.09.08.16.17.21.08.05.17.06.27.03s.17-.08.21-.17c.05-.08.06-.17.04-.27l-.46-1.53c-.03-.09-.08-.17-.17-.21s-.17-.06-.27-.03-.17.08-.21.16c-.05.09-.06.18-.04.27Z"/>
    <path class="cls-3" d="M245.18,65.3l.15.92c.03.09.08.16.17.21.08.05.17.06.27.04.09-.02.17-.08.22-.16.04-.09.06-.18.04-.28l-.16-.92c-.03-.09-.08-.16-.16-.21-.08-.05-.17-.06-.27-.04-.09.03-.17.08-.21.17s-.06.18-.04.27Z"/>
    <path class="cls-3" d="M240.68,66.98v-.88c0-.1-.03-.18-.1-.25-.07-.07-.15-.1-.25-.1s-.18.04-.25.1-.1.15-.1.25v.88c0,.1.04.18.1.25.07.07.15.1.25.1s.18-.03.25-.1c.07-.07.1-.15.1-.25Z"/>
    <path class="cls-3" d="M234.78,66.78l.15-.59c.03-.09.02-.18-.04-.27-.08-.14-.19-.19-.35-.17s-.26.1-.3.26l-.15.59c-.03.09-.01.19.04.27.08.14.2.2.35.18.16-.02.26-.11.3-.26Z"/>
    <path class="cls-3" d="M233.57,63.52c.23-.01.34-.13.34-.35s-.11-.34-.34-.35c-.22.01-.34.13-.34.35s.11.34.34.35Z"/>
    <path class="cls-3" d="M235.37,179.77c5.16.78,10.33.81,15.49.1,5.17-.71,10.14-2.14,14.9-4.28.41-.19.05-.8-.36-.61-7.35,3.29-15.05,4.84-23.1,4.68-2.26-.05-4.51-.23-6.74-.57-.44-.07-.64.61-.19.68Z"/>
    <path class="cls-3" d="M268.11,162.68c-1.44-1.45-3.82-.72-4.98.7-.67.89-1.16,1.86-1.47,2.93-.33.83-.46,1.69-.4,2.57.11.83.57,1.66,1.52,1.62.45-.02.46-.73,0-.71-.82.04-.87-1.08-.83-1.67.04-.42.13-.83.27-1.23.17-.57.38-1.12.61-1.67.44-.96,1.07-1.9,2.07-2.35.88-.4,1.99-.42,2.71.31.17.15.33.15.49-.01.16-.16.16-.33.01-.49Z"/>
    <path class="cls-3" d="M244.23,159.83c.98.98,1.49,2.18,1.53,3.57-.03,1.19-.43,2.24-1.19,3.15-1.56,1.91-4.31,2.94-6.72,2.31-4.15-1.08-4.9-6.79-1.96-9.52,2.35-2.19,6.19-1.76,8.35.49.31.33.81-.17.5-.51-2.16-2.24-5.92-2.91-8.56-1.12-.96.66-1.68,1.52-2.18,2.57-.49,1.06-.69,2.16-.6,3.32.17,2.24,1.45,4.34,3.58,5.21,2.53,1.03,5.64.16,7.56-1.69,1.12-1.04,1.76-2.32,1.92-3.84.14-1.68-.6-3.24-1.72-4.45-.31-.33-.81.17-.5.51Z"/>
    <path class="cls-3" d="M263.58,143.76c-1.53.61-2.3,2.47-1.82,4.03.51,1.65,2.32,2.33,3.9,1.84.94-.28,1.59-.86,1.98-1.77.03-.09.02-.18-.04-.27-.05-.09-.11-.15-.21-.17-.22-.05-.37.03-.44.25-.48,1.17-2.01,1.65-3.15,1.29-1.28-.4-1.71-1.81-1.34-3,.2-.71.64-1.22,1.3-1.52.22-.07.3-.21.25-.44-.03-.09-.08-.16-.17-.21-.09-.05-.18-.06-.27-.03Z"/>
    <path class="cls-3" d="M252.08,153.79c-.24.49-.3,1.01-.19,1.55s.39.98.8,1.33c.44.38.95.55,1.53.49.63-.08,1.14-.35,1.54-.84.48-.55.66-1.18.53-1.9-.03-.09-.08-.17-.17-.21-.08-.05-.17-.06-.27-.03-.22.06-.31.21-.25.43.16.83-.54,1.65-1.32,1.82-.78.17-1.45-.42-1.67-1.11-.15-.4-.12-.79.07-1.17.22-.4-.4-.76-.61-.36Z"/>
    <path class="cls-3" d="M238.7,138.34c-.14,2.28,1.86,4.17,4.03,4.39,2.52.26,4.81-1.4,6.1-3.44.76-1.28,1.3-2.64,1.62-4.08.11-.44-.57-.64-.68-.19-.67,2.72-2,5.66-4.82,6.7-.61.26-1.26.36-1.93.32-.67-.04-1.29-.23-1.87-.57-.56-.32-.99-.77-1.3-1.32-.31-.56-.46-1.16-.44-1.8.03-.46-.68-.45-.71,0h0Z"/>
    <path class="cls-3" d="M226.54,170.4c-1.83-.07-3.28,1.82-3.14,3.57.03.52.2.98.51,1.4.12.19.28.23.48.13.08-.05.14-.12.16-.21s.01-.19-.04-.27c-1.1-1.47.17-3.97,2.03-3.9.45.02.45-.69,0-.71Z"/>
    <path class="cls-3" d="M213.01,174.15l5.35,1.01c.45.08.64-.6.19-.68l-5.35-1.01c-.45-.08-.64.6-.19.68Z"/>
    <path class="cls-3" d="M214.01,157.09c.59,0,1.17.09,1.73.29.56.2,1.06.48,1.52.86.46.38.83.82,1.14,1.33.3.52.5,1.06.6,1.65s.1,1.17,0,1.76c-.1.58-.31,1.13-.6,1.65s-.67.96-1.13,1.34c-.45.38-.96.67-1.52.87-.42.16-.24.84.19.68.99-.38,1.82-.97,2.49-1.78.67-.82,1.09-1.75,1.27-2.79.16-1.05.03-2.07-.39-3.05-.42-.98-1.07-1.78-1.94-2.39-1-.73-2.12-1.11-3.36-1.11-.22.01-.34.13-.34.35s.11.34.34.35Z"/>
    <path class="cls-3" d="M219.67,144.55c-.27.44-.45.92-.54,1.43-.08.52-.06,1.03.06,1.53s.33.97.64,1.39c.31.42.68.77,1.13,1.04.2.1.35.06.47-.14.11-.2.08-.35-.11-.48-.36-.22-.67-.51-.92-.85-.24-.35-.42-.73-.52-1.15-.09-.41-.11-.83-.04-1.25.07-.42.22-.81.44-1.18.26-.38-.35-.73-.61-.35Z"/>
    <path class="cls-3" d="M257.54,134.86c.11.36.33.65.65.86s.67.3,1.05.27c.09,0,.18-.04.25-.1.07-.07.1-.15.1-.25s-.04-.18-.1-.25c-.07-.07-.15-.1-.25-.1-.07.01-.14.02-.21.01-.02,0-.04,0-.06,0-.06,0,.07.01.03,0-.04,0-.07-.01-.1-.02-.03,0-.06-.02-.09-.03-.02,0-.03-.01-.05-.02-.01,0-.07-.03-.01,0s0,0-.01,0c-.02-.01-.03-.02-.05-.03-.03-.02-.06-.03-.09-.05-.03-.02-.06-.04-.08-.06.02.02.06.05.02.02-.01-.01-.02-.02-.04-.03-.05-.05-.09-.1-.14-.15.02.02.05.07.02.02-.01-.02-.02-.03-.03-.04l-.06-.09s-.01-.03-.02-.04c-.02-.05,0,0,.01.02-.01-.04-.03-.07-.04-.1-.03-.1-.08-.17-.17-.22s-.18-.06-.27-.04-.17.08-.21.17c-.05.08-.06.18-.03.27Z"/>
    <path class="cls-3" d="M261.02,123.46c1.38.16,2.63-.16,3.76-.95.19-.12.23-.28.13-.48-.05-.08-.13-.14-.22-.16s-.18-.01-.27.04c-1.02.72-2.16,1.01-3.4.85-.09,0-.18.04-.25.1-.07.07-.1.16-.1.25,0,.23.13.35.35.35Z"/>
    <path class="cls-3" d="M245.51,85.34c.37-.09.75-.15,1.14-.15.39,0,.77.04,1.14.13.38.09.73.22,1.08.4s.66.39.95.65.55.54.77.85c.22.32.4.66.54,1.02s.23.73.28,1.11c.05.38.05.77.01,1.15s-.13.75-.26,1.1c-.06.23-.19.41-.4.53-.2.13-.42.16-.65.1-.89-.12-1.74-.33-2.58-.64-1.51-.47-3.28-1.04-4.35-2.26-.56-.59-.77-1.29-.65-2.09.04-.34.16-.65.39-.91.22-.27.49-.44.82-.54.44-.1.26-.79-.19-.68-1.57.38-2.11,2.33-1.54,3.69.74,1.78,2.78,2.59,4.46,3.19,1.08.4,2.18.7,3.31.91.41.09.82.07,1.21-.07.44-.22.72-.56.84-1.04.34-.95.41-1.92.2-2.92-.2-.99-.64-1.86-1.32-2.61-.68-.74-1.51-1.26-2.47-1.55-.97-.29-1.94-.31-2.92-.05-.44.1-.26.79.19.68Z"/>
    <path class="cls-3" d="M211.15,87.84l3.02,2.39c.17.16.33.16.5,0,.07-.07.1-.16.1-.25,0-.1-.04-.18-.1-.25l-3.02-2.39c-.17-.16-.33-.16-.5,0-.07.07-.1.15-.1.25s.04.18.1.25Z"/>
    <path class="cls-3" d="M221.85,114.36l2.7,3.13c.07.07.15.1.25.1s.18-.04.25-.1c.16-.17.16-.33,0-.5l-2.7-3.13c-.07-.07-.15-.1-.25-.1s-.18.03-.25.1c-.16.17-.16.33,0,.51Z"/>
    <path class="cls-3" d="M208.73,89.48l.45,4.04c.01.23.13.35.35.35.1,0,.18-.04.25-.1.07-.07.1-.16.1-.25l-.45-4.04c0-.23-.13-.35-.35-.35-.09,0-.18.04-.25.1-.07.07-.1.15-.1.25Z"/>
    <path class="cls-3" d="M205.08,14.69l6.96-2.78c.42-.17.23-.85-.19-.68l-6.97,2.78c-.42.17-.23.85.19.68h0Z"/>
    <path class="cls-3" d="M206.92,34.58l2.44,1.4c.08.05.17.06.27.03s.16-.08.21-.16c.05-.08.06-.17.04-.27-.03-.09-.08-.17-.16-.22l-2.44-1.39c-.08-.05-.17-.06-.27-.04-.09.02-.17.08-.21.16-.05.08-.06.18-.04.27.02.09.08.17.16.21Z"/>
    <path class="cls-3" d="M202.67,50.21l3.14,3.83c.07.07.15.1.25.1.09,0,.18-.04.25-.1.16-.17.16-.33,0-.5l-3.14-3.83c-.07-.07-.15-.1-.25-.1s-.18.03-.25.1c-.16.17-.16.33,0,.5Z"/>
    <path class="cls-3" d="M137.66,98.48l5.19,2.31c.41.18.77-.43.35-.61l-5.19-2.31c-.41-.18-.77.43-.35.61Z"/>
    <path class="cls-3" d="M148.32,42.48c1.66-.56,3.36-.74,5.1-.56.45.05.45-.66,0-.71-1.81-.19-3.57.01-5.29.59-.43.15-.24.83.19.68Z"/>
    <path class="cls-3" d="M166.23,301.68c-3.2-1.1-6.18-2.64-8.94-4.6-.68-.45-1.31-.95-1.91-1.49-.49-.47-.92-1.14-.64-1.84.47-1.18,2.15-1.52,3.25-1.65,2.09-.23,4.17-.15,6.23.25.37.07.66-.46.28-.65-3.87-1.92-6.28-6.22-6.13-10.51.08-2.3.94-4.55,2.7-6.08.84-.79,1.84-1.22,2.99-1.3,1.27-.03,2.33.64,3.2,1.51,1.02,1,1.84,2.13,2.48,3.4.6,1.23.9,2.67.07,3.86l.56-.07c-3.07-3.28-.99-8.45.94-11.76,1.07-1.82,2.61-3.95,4.74-4.57,2.4-.7,4.17,1.42,5,3.42.51,1.22.73,2.49.68,3.81-.05,1.32-.38,2.57-.97,3.74-.1.2-.06.36.14.47s.35.07.47-.11c2.01-2.76,6.14-3.42,9.1-1.95.86.43,1.59,1.02,2.19,1.77.25.31.64-.04.59-.34-.56-3.59,3.1-7.15,6.66-6.5.11.03.22,0,.31-.06.09-.07.14-.16.14-.28.19-2.18.39-4.63,1.77-6.43,1.11-1.45,3.22-2.48,4.98-1.6.41.2.77-.41.35-.61-1.97-.98-4.31-.07-5.68,1.52-1.67,1.95-1.92,4.68-2.14,7.13l.45-.34c-4.14-.75-8.18,3.22-7.54,7.37l.59-.34c-2.35-2.95-6.88-3.48-10.09-1.71-.92.51-1.69,1.19-2.31,2.04l.61.36c.58-1.14.93-2.35,1.04-3.63.1-1.28-.03-2.52-.41-3.74-.69-2.2-2.34-4.76-4.9-4.82-2.44-.06-4.41,2.09-5.68,3.93-1.42,2.02-2.42,4.23-3,6.63-.57,2.5-.38,5.18,1.45,7.13.08.08.18.11.29.1.11-.02.2-.07.26-.17,1.64-2.36-.26-5.3-1.79-7.16-.85-1.03-1.83-2.03-3.13-2.47-1.21-.38-2.38-.27-3.51.32-2.28,1.11-3.74,3.54-4.17,5.97-.41,2.42-.1,4.74.92,6.97.54,1.24,1.27,2.35,2.2,3.33.93.99,1.99,1.79,3.19,2.41l.27-.65c-2.02-.4-4.06-.5-6.11-.3-1.39.14-3.04.44-3.93,1.63-.43.56-.54,1.18-.32,1.86.25.77.89,1.32,1.51,1.81,1.48,1.17,3.04,2.21,4.69,3.13,1.85,1.03,3.79,1.89,5.8,2.58.43.15.61-.54.19-.68Z"/>
    <path class="cls-3" d="M186.55,298.56c-.33-.76-.43-1.55-.28-2.36s.52-1.52,1.1-2.11c.59-.59,1.29-.96,2.1-1.11.82-.16,1.6-.06,2.36.27.41.18.77-.43.35-.61-.69-.3-1.41-.44-2.16-.41-.76.03-1.46.22-2.13.58-.5.29-.93.66-1.3,1.1-.36.45-.64.94-.83,1.49-.19.55-.28,1.1-.26,1.68s.13,1.14.34,1.67c.07.22.21.3.44.25.09-.03.16-.08.21-.17.05-.09.06-.18.03-.27Z"/>
    <path class="cls-3" d="M3.03,258.77l-1.9-25.97c-.15-2.01-.4-4.03-.4-6.04-.04-.88.1-1.72.42-2.53.4-.82,1.01-1.42,1.82-1.82.86-.42,1.75-.76,2.66-1.04.96-.33,1.93-.64,2.9-.93,1.95-.58,3.92-1.09,5.9-1.52,4.56-.97,9.17-1.54,13.83-1.68.1,0,.18-.04.25-.1s.1-.15.1-.25l-.5-28.46-.25-14.28-.13-7.09-.06-3.54c-.02-.98-.14-2.17.68-2.88.65-.57,1.59-.7,2.41-.82,1.17-.18,2.33-.35,3.49-.52l6.98-1.03,14.07-2.08,6.98-1.03c2.13-.32,4.32-.81,6.47-.76,1.93.04,3.65.81,4.59,2.55.84,1.53,1.03,3.35,1.13,5.07.27,4.64.42,9.28.63,13.91l.64,14.15.16,3.54c0,.11.05.21.14.28.09.07.2.09.31.06,4.24-1.23,10.8-2.65,13.79,1.72.26.38.87.02.61-.36-3.21-4.68-9.98-3.38-14.59-2.04l.45.34-1.32-29.35c-.15-3.29-.04-7.76-3.24-9.72-1.67-1.03-3.75-.94-5.63-.7-2.31.3-4.6.67-6.9,1.01-9.68,1.43-19.37,2.82-29.04,4.29-.84.08-1.63.33-2.36.77-.73.54-1.12,1.26-1.16,2.17-.06,1.11-.05,2.21.02,3.32l.06,3.76.26,14.7.52,29.4.06,3.65.35-.35c-4.23.13-8.42.6-12.58,1.41-4.11.76-8.13,1.89-12.04,3.39-1.57.63-2.9,1.56-3.38,3.26-.51,1.76-.18,3.72-.05,5.51l.99,13.51,1.11,15.17c.04.45.74.45.71,0Z"/>
    <path class="cls-3" d="M141.99,203.7c4.7-1.29,9.48-2.14,14.34-2.54.1,0,.18-.04.25-.1.07-.07.1-.16.1-.25l-2.19-22.76c-.14-.86-.2-1.73-.21-2.6.05-.88.65-1.28,1.43-1.49,1.72-.43,3.46-.75,5.22-.98,3.67-.57,7.36-.94,11.07-1.1,3.69-.2,7.39-.16,11.08.13.4-.02.72.13.98.43.18.38.27.77.28,1.17.14.94.28,1.88.41,2.81.28,1.9.56,3.8.84,5.7,1.1,7.49,2.21,14.97,3.32,22.46.14.96.29,1.92.43,2.89.11.78.2,1.57.39,2.33.32,1.36,1.08,2.6,2.52,2.96,2.69.67,5.17-1.7,7.85-.93.57.15,1.01.48,1.29,1.01.22.4.83.04.61-.36-.59-1.09-1.78-1.49-2.96-1.49-1.42,0-2.68.54-4.02.9-1.4.38-3.15.56-4.05-.85-.37-.65-.6-1.34-.69-2.09-.16-.9-.28-1.81-.41-2.71-1.14-7.73-2.29-15.46-3.43-23.18-.28-1.93-.57-3.85-.85-5.78-.14-.96-.29-1.93-.43-2.89-.11-.76-.09-1.76-.56-2.4-.43-.6-1.19-.66-1.87-.71-.95-.06-1.9-.11-2.84-.14-1.92-.07-3.84-.08-5.77-.04-3.78.09-7.54.39-11.28.89-1.91.26-3.81.57-5.7.94-1.31.26-3.19.44-3.53,2.03-.18.84.02,1.77.1,2.61l.28,2.91.56,5.81,1.11,11.62.28,2.91.35-.35c-4.92.4-9.77,1.26-14.53,2.56-.22.07-.3.21-.23.43.06.22.2.31.42.26Z"/>
    <path class="cls-3" d="M58.46,208.28c-1.08-.89-2.3-1.49-3.67-1.8-.06-.02-.13-.01-.18,0-.06.02-.11.05-.16.09-.04.05-.07.1-.09.16s-.02.12,0,.18c.38,2.51.71,5.03,1.14,7.53.04.43.22.81.53,1.11.41.29.85.37,1.33.23,1.25-.21,2.49-.48,3.73-.71.09-.03.17-.08.21-.17.05-.09.06-.18.03-.27-.49-2.02-.63-4.07-.41-6.14.05-.45-.66-.45-.71,0-.22,2.14-.08,4.24.43,6.33l.25-.44-3.29.63c-.47.09-1.08.29-1.31-.28-.14-.45-.22-.92-.26-1.39l-1.01-6.63-.43.43c1.24.27,2.36.81,3.35,1.61.35.29.85-.21.5-.5Z"/>
    <path class="cls-3" d="M37.21,176.01c-.19.38-.27.78-.23,1.2.04.42.19.8.46,1.14.6.82,1.42,1.23,2.43,1.25.58.02,1.16-.04,1.72-.17.26-.05.51-.11.76-.18.14-.02.27-.06.38-.15.08-.1.13-.21.17-.34.14-.42.2-.85.19-1.3s-.11-.88-.28-1.29-.41-.78-.72-1.1c-.3-.32-.66-.58-1.06-.78-.2-.11-.36-.07-.48.13-.05.08-.06.17-.04.27s.08.17.16.22c1.37.6,2.13,2.37,1.51,3.77l.21-.16c-1.15.3-2.59.7-3.69.06-.71-.42-1.33-1.39-.88-2.2.11-.2.06-.36-.13-.47-.2-.11-.35-.08-.48.11Z"/>
    <path class="cls-3" d="M63.07,171.54l.09,4.58c0,.1.04.18.1.25.07.07.16.1.25.1,1.27-.14,2.44-.55,3.53-1.2.39-.24.03-.85-.36-.61-.97.6-2.03.97-3.17,1.11l.35.35-.09-4.58c-.01-.22-.13-.34-.35-.34s-.34.11-.35.34Z"/>
    <path class="cls-3" d="M30.9,254.82c.51-1.47.72-2.99.64-4.55l-.45.34c2.33.41,4.66.33,6.96-.22l-.45-.34.74,9.37.45-.34-5.22-1.34c-.22-.05-.36.03-.43.25-.06.22.02.36.23.43l5.23,1.34c.11.03.21.01.31-.06.09-.07.14-.16.14-.28l-.74-9.37c0-.11-.05-.21-.14-.28-.09-.07-.2-.09-.31-.06-2.18.54-4.38.61-6.59.23-.11-.03-.21-.01-.31.06-.09.07-.14.16-.14.28.08,1.49-.12,2.95-.61,4.36-.15.43.54.62.68.19Z"/>
    <path class="cls-3" d="M125.41,260.51l-.46-4.33-.18.3c.69-.39,1.43-.55,2.22-.47s1.49.36,2.1.88c.3.27.54.57.73.92.19.34.32.71.39,1.1s.07.78,0,1.17-.2.76-.39,1.1c-.41.84-1.05,1.42-1.92,1.76-.42.15-.24.84.19.68.44-.17.84-.41,1.21-.71.37-.3.68-.65.94-1.05.26-.4.45-.83.57-1.29.12-.46.17-.93.15-1.4-.04-.47-.15-.92-.34-1.34s-.44-.81-.75-1.16c-.32-.34-.68-.63-1.09-.85-.41-.22-.84-.38-1.31-.45-1.08-.23-2.1-.06-3.06.51-.11.07-.18.17-.17.31l.46,4.33c.05.45.76.45.71,0Z"/>
    <path class="cls-3" d="M155.23,228.61c-.8-.76-.69-2.04-.09-2.89.71-1,2.06-1.12,3.13-.67.62.28,1.13.7,1.51,1.27s.6,1.18.64,1.86c.07.75-.02,1.48-.25,2.2-.14.46-.45.73-.93.8-.85.16-2.02-.35-2.04-1.32-.01-.22-.13-.34-.35-.34s-.34.11-.35.34c.03,1.24,1.22,2.03,2.38,2.06.6.03,1.13-.17,1.56-.58.55-.56.66-1.54.71-2.28.11-1.71-.56-3.48-2.07-4.39-1.29-.77-3.1-.84-4.2.3-1.06,1.09-1.28,3.04-.13,4.15.33.32.83-.18.5-.5Z"/>
    <path class="cls-3" d="M178.98,191.15c-1.14-.9-2.72-.41-3.57.66-1.01,1.27-.62,2.97.45,4.07.67.67,1.46,1.1,2.39,1.3.44.1.64-.59.19-.68-1.22-.26-2.44-1.1-2.82-2.34-.08-.26-.1-.52-.08-.79.03-.27.09-.53.21-.77s.28-.46.48-.64c.2-.18.42-.32.68-.42.55-.27,1.07-.23,1.57.11.35.28.86-.22.5-.5Z"/>
    <path class="cls-3" d="M201.3,234.7c-2.16,0-4.05.72-5.67,2.16-.13.13-.15.27-.05.43l1.34,2.16c.21.34.41.68.63,1.02.16.27.36.49.61.66.46.27,1.05.14,1.17-.42.09-.43-.22-1.01-.73-.81-.42.17-.23.85.19.68.16-.06-.2-.08-.15-.09-.01,0,.04.07,0,.07.05,0-.06-.01-.08-.03-.35-.2-.55-.68-.74-1l-1.61-2.6-.05.43c1.48-1.3,3.2-1.95,5.17-1.95.22-.01.34-.13.34-.35s-.11-.34-.34-.35Z"/>
    <path class="cls-3" d="M280.32,201.25l5.03-.61c.23,0,.35-.13.35-.35l.83-10.49.41-5.17.2-2.58c.06-.76.03-1.6.24-2.34.22-.76.9-.99,1.6-1.14.81-.17,1.63-.31,2.44-.44,1.71-.28,3.43-.52,5.16-.69,3.39-.34,6.79-.49,10.19-.43,1.42.03,3.19-.12,4.32.9.92.82,1.21,2.13,1.33,3.3.17,1.56.16,3.15.21,4.71l.18,5.19c.24,7.01.49,14.01.73,21.01l.73,20.93.09,2.59c.02.46.72.46.71,0l-.76-21.74-.76-21.74-.19-5.43c-.06-1.69-.07-3.38-.2-5.06-.09-1.21-.29-2.51-.97-3.55-.79-1.2-2.07-1.65-3.45-1.76-1.68-.13-3.39-.1-5.07-.07-1.77.03-3.53.12-5.29.26-1.74.14-3.47.34-5.2.58-.89.13-1.77.27-2.66.42-.79.1-1.56.26-2.32.47-.64.17-1.11.56-1.4,1.16-.3.68-.28,1.47-.33,2.2l-1.28,16.22-.21,2.66.35-.35-5.04.61c-.45.05-.45.76,0,.71Z"/>
    <path class="cls-3" d="M303.1,193.22c-.29-.28-.63-.49-1.01-.64-.38-.14-.77-.21-1.18-.2-.4.01-.79.1-1.16.26-.37.17-.69.39-.97.69-.12.13-.14.27-.05.43.78,1.54,1.29,3.17,1.52,4.88,0,.11.05.21.14.28.09.07.19.09.31.06,1.66-.45,2.94-1.4,3.83-2.87.24-.39-.38-.74-.61-.35-.8,1.3-1.94,2.15-3.41,2.54l.45.34c-.24-1.83-.78-3.58-1.61-5.23l-.06.43c.21-.23.46-.41.74-.54.29-.13.58-.2.89-.21.31-.01.61.04.91.15s.55.27.78.48c.17.15.33.15.49-.01.16-.16.17-.32.01-.49Z"/>
    <path class="cls-3" d="M293.94,216.59c0-.06,0-.11.01-.17,0-.07-.02.08,0-.03,0-.03.01-.05.02-.07.01-.05.03-.09.04-.14.02-.04.03-.08.05-.12.09-.19.23-.35.4-.49.31-.27.67-.4,1.08-.4.19,0,.38.06.54.15.04.03.08.05.12.08.06.04.02.02.01.01.02.02.05.04.07.06.04.03.07.07.11.11.01.02.03.04.04.05-.04-.05.02.03.03.04.11.16.19.33.23.52.05.19.06.38.04.57,0,.03,0,.05,0,.07,0-.07-.01.04-.01.05-.01.06-.03.11-.04.17-.02.1-.06.19-.1.27-.09.19-.23.34-.41.46-.38.24-.03.86.35.61.96-.63,1.18-1.99.64-2.96-.3-.54-.74-.85-1.35-.94-.6-.08-1.15.06-1.64.42-.6.4-.91.96-.93,1.69.01.22.13.34.35.34s.34-.11.35-.34Z"/>
    <path class="cls-3" d="M252.49,261.55c-.4-1.02-.76-2.1-.72-3.2.04-.96.49-1.91,1.42-2.3.84-.32,1.67-.27,2.46.17.42.23.76.54,1.02.94.27.4.42.84.47,1.32.13,1.21-.21,2.28-1.01,3.2-.3.34.2.85.5.5,1.53-1.77,1.82-4.85-.25-6.34-.91-.64-1.91-.84-2.99-.59-.56.14-1.04.41-1.44.83-.41.42-.67.91-.79,1.47-.32,1.41.13,2.89.64,4.19.17.42.85.23.69-.19Z"/>
    <path class="cls-3" d="M96.25,161.71c0-6.48,0-12.97-.05-19.45-.05-6.46-.15-12.92-.33-19.37-.1-3.65-.24-7.29-.41-10.94l-.66.18c2.23,4.98,4.85,9.9,8.48,14.02,1.76,2.03,3.78,3.77,6.04,5.22,1.18.71,2.41,1.36,3.66,1.95,1.26.63,2.52,1.31,3.49,2.34,2.17,2.3,2.34,5.72,2.47,8.7.02.46.72.46.71,0-.11-2.66-.27-5.54-1.68-7.88-1.51-2.52-4.24-3.5-6.7-4.81-4.92-2.6-8.64-6.9-11.52-11.57-1.63-2.68-3.07-5.46-4.33-8.34-.14-.32-.67-.16-.66.18.31,6.48.49,12.96.61,19.44.11,6.46.16,12.92.18,19.38.01,3.65.01,7.3.01,10.94.01.23.13.34.35.34s.34-.11.35-.34Z"/>
    <path class="cls-3" d="M103.23,149.36h8.08c.22-.01.34-.13.34-.35s-.11-.35-.34-.35h-8.08c-.22,0-.33.13-.33.35s.11.34.33.35Z"/>
    <path class="cls-3" d="M104.37,158.11l5.19.59c.1,0,.18-.04.25-.1.07-.07.1-.15.1-.25,0-.23-.13-.35-.35-.35l-5.19-.59c-.09,0-.18.03-.25.1-.07.07-.1.15-.1.25,0,.23.13.35.35.35Z"/>
    <path class="cls-3" d="M103.8,173.05h4.04c.22-.01.34-.13.34-.35s-.11-.34-.34-.35h-4.04c-.22.01-.34.13-.34.35s.11.34.34.35Z"/>
    <path class="cls-3" d="M103.14,181.09l2.31.58c.09.03.18.01.27-.04.09-.05.14-.12.17-.21s.02-.18-.03-.27c-.05-.09-.12-.14-.21-.17l-2.31-.58c-.09-.03-.18-.02-.27.03-.08.05-.14.12-.17.21s-.02.19.03.27c.05.08.13.14.22.17Z"/>
    <path class="cls-3" d="M40.06,153.77c-.42-1.96-.9-4.56.46-6.28.78-.98,2.01-1.33,3.17-1.61,1.32-.32,2.65-.63,3.99-.86,2.63-.46,5.39-.63,7.95.23.97.34,1.84.84,2.63,1.51.78.67,1.41,1.45,1.89,2.36,1.01,1.88,1.21,4.17-.1,5.96-.27.36.34.72.61.35,2.66-3.62-.18-8.72-3.77-10.44-2.59-1.24-5.59-1.22-8.37-.82-1.48.21-2.94.54-4.4.88-1.28.3-2.63.6-3.65,1.49-2.08,1.82-1.59,5.04-1.08,7.43.09.45.78.26.68-.19Z"/>
    <path class="cls-3" d="M50.12,142.68c.29-9.97.16-19.94-.4-29.91-.16-2.8-.35-5.59-.58-8.39-.04-.45-.74-.46-.71,0,.8,9.94,1.18,19.9,1.13,29.89-.02,2.8-.06,5.6-.15,8.41.01.22.13.34.35.34s.34-.11.35-.34Z"/>
    <path class="cls-3" d="M46.63,96.51c-.4.34-.68.77-.83,1.28s-.16,1.01-.03,1.52c.11.51.36.94.74,1.31.09.09.2.18.32.25.17.07.33.06.48-.02.27-.1.49-.27.67-.51.19-.24.3-.52.32-.82.03-.31-.04-.59-.19-.86-.24-.39-.85-.03-.61.36.07.11.1.24.1.38,0,.13-.03.26-.08.38s-.14.22-.24.3c-.1.08-.22.13-.35.16l.27.04c-1.07-.72-1.04-2.47-.06-3.24.07-.07.1-.15.1-.25s-.04-.18-.1-.25c-.17-.16-.33-.16-.5,0Z"/>
  </g>
</svg>