<?xml version="1.0" encoding="UTF-8"?>
<svg id="Layer_2" data-name="Layer 2" xmlns="http://www.w3.org/2000/svg" xmlns:xlink="http://www.w3.org/1999/xlink" viewBox="0 0 318.31 279">
  <defs>
    <style>
      .cls-1 {
        clip-path: url(#clippath);
      }

      .cls-2 {
        fill: none;
      }

      .cls-2, .cls-3, .cls-4, .cls-5, .cls-6, .cls-7 {
        stroke-width: 0px;
      }

      .cls-3 {
        fill: #faa2ba;
      }

      .cls-8 {
        clip-path: url(#clippath-1);
      }

      .cls-4 {
        fill: #d74632;
      }

      .cls-5 {
        fill: #5c8654;
      }

      .cls-6 {
        fill: #2e3788;
      }

      .cls-7 {
        fill: #f9d990;
      }
    </style>
    <clipPath id="clippath">
      <rect class="cls-2" x="100.36" width="142.67" height="62.23"/>
    </clipPath>
    <clipPath id="clippath-1">
      <rect class="cls-2" x="117.69" y="258.23" width="40" height="20.77"/>
    </clipPath>
  </defs>
  <g id="Layer_1-2" data-name="Layer 1">
    <path class="cls-6" d="M113.04,161.3c-13.71,2.24-21.48,4.12-37.96,7.68-12.3,2.66-24.86,4.34-36.85,8.09-10.96,3.44-20.58,7.41-28.79,11.34-1.29.68-7.43,4.09-9.06,10.99-1.24,5.24.8,9.6,1.95,11.97,4.75,9.83,14.44,14.48,18.09,16.19,14.76,6.85,51.65,21.9,101.53,40.13,1.61-2.07,3.24-4.14,4.85-6.21-13.4-5.66-26.81-11.34-40.21-16.99-51.41-21.74-47.44-21.09-51.48-22.28-1.66-.49-6.41-1.83-11.84-5.22-5.36-3.34-8.96-7.19-11.1-9.73-.51-2.19-.83-5.27.48-8.24,2.17-4.83,7.48-6.54,17.71-9.6,12.64-3.81,18.95-5.68,23.77-6.95,5.72-1.48,14.05-3.7,24.21-6.65,16.95-2.88,33.9-5.73,50.88-8.61-.93-2.63-1.83-5.24-2.76-7.88-3.16.42-7.81,1.07-13.42,1.97Z"/>
    <path class="cls-6" d="M186.71,268.6c-13.22-2.95-27.01-6.41-41.32-10.48-8.92-2.54-27.72-7.93-51.51-16.72-9.59-3.54-21.38-8.15-34.75-13.97l-21.84-13.53c-.83-1.24-1.64-2.51-2.46-3.76-.66-1.12-1.63-3.12-1.88-5.75-.41-4.1,1.15-7.15,1.68-8.24,3.82-7.56,13.2-9.17,14.27-9.34,3.24-.83,6.48-1.66,9.72-2.49,5.67-1.32,11.37-2.66,17.05-3.97,7.23-1.39,14.46-2.78,21.72-4.17,8.67-1.46,17.31-2.9,25.98-4.36,3.72-.76,7.47-1.51,11.2-2.29,1.76,2.24,3.51,4.51,5.26,6.76-5.77.8-11.57,1.6-17.34,2.39-8.16,1.46-16.34,2.93-24.5,4.39-7.18,1.58-14.34,3.15-21.53,4.73-6.6,1.39-13.18,2.8-19.78,4.19-3.97,1.51-7.94,3.05-11.91,4.56-1,1.3-1.97,2.56-2.97,3.85.17,2.1.34,4.19.54,6.31,1.51,1.39,3.05,2.81,4.56,4.2,4.48,3.14,8.98,6.31,13.46,9.46,6.77,2.76,13.54,5.48,20.29,8.24,6.9,2.51,13.76,5.02,20.65,7.53,12.08,3.68,24.16,7.36,36.21,11.05,9.86,2.56,19.73,5.15,29.57,7.7,7.86,2.17,15.76,4.32,23.62,6.48-1.29,2.42-2.63,4.83-3.99,7.24Z"/>
    <path class="cls-6" d="M230.16,19.7c6.28-.85,12.57-1.73,18.88-2.58,2.75-.32,6.45-.37,10.64.66,1.41.34,2.7.78,3.85,1.24-1.44,1.09-2.88,2.22-4.31,3.31-3.99,2.44-7.96,4.88-11.96,7.32-4.74,2.92-9.52,5.88-14.27,8.8,1.49,3.21,3,6.41,4.48,9.63,5.09-3.22,10.18-6.42,15.27-9.63,5.92-4.05,11.84-8.1,17.76-12.12.71-.44,3.56-2.36,4.31-5.97.51-2.46-.2-4.51-.66-5.8-.44-1.22-.93-2.63-2.24-3.66-1.63-1.29-3.41-1.32-3.9-1.32-5.26-.39-10.52-.78-15.76-1.17-7.53.27-15.05.56-22.58.83.15,3.48.32,6.97.49,10.46Z"/>
    <path class="cls-6" d="M232.45,36.01c7.67-.36,15.32-.73,22.98-1.09,3.46.73,6.9,1.48,10.35,2.22-1.49,1.02-2.99,2.05-4.48,3.09-4.11,2.22-8.2,4.44-12.32,6.66-4.89,2.68-9.81,5.36-14.71,8.05,1.32,3.29,2.63,6.58,3.97,9.85,5.26-2.93,10.5-5.88,15.76-8.8,6.11-3.73,12.25-7.43,18.36-11.17,1.54-1.92,3.09-3.83,4.63-5.75-.13-1.95-.24-3.9-.37-5.85-1.95-1.78-3.92-3.54-5.86-5.29-5.24-.66-10.45-1.34-15.69-1.99-7.52-.13-15.05-.24-22.57-.37,0,3.46-.03,6.95-.05,10.46Z"/>
    <path class="cls-3" d="M232.45,53.32c-44.81,1.93-88.5,4.95-131.02,8.85-1.24,7.09-2.19,15.48-2.22,24.9-.02,14.33,2.05,26.57,4.43,35.96,1.1,6.19,3.29,14.68,7.94,23.94,4.21,8.41,9.1,14.78,13.07,19.21,8.96,9.33,24.94,23.04,48.39,30.2,20.48,6.27,37.6,4.76,50.12,3.66,20.39-1.78,36.65-7.05,47.49-11.44,5.6-3,11.96-6.92,18.58-12.04,5.72-4.42,10.5-8.85,14.44-12.92,2.97-3.66,6.77-9.19,9.62-16.65,2.27-5.9,3.27-11.24,3.73-15.34.99-4.39,1.99-11.51.58-20.06-1.07-6.51-3.19-11.66-4.99-15.19-1.99-4.12-4.45-8.63-7.5-13.31-4.16-6.42-8.45-11.73-12.42-16.02-3.38-2.56-7.55-5.34-12.52-7.9-6.86-3.56-13.25-5.7-18.43-7.04-9.72.39-19.48.76-29.3,1.19Z"/>
    <g class="cls-1">
      <path class="cls-5" d="M101.45,62.22c16.42-1.54,33.07-2.93,50-4.2,30.68-2.27,60.66-3.95,89.91-5.09.78-8.88.76-20.16-1.9-32.84-.97-4.64-2.17-8.9-3.48-12.75-5.92-2.29-11.84-4.61-17.76-6.93-18.66.13-37.31.27-55.94.39-4.97.44-11.23,1.44-18.19,3.68-6.58,2.12-11.98,4.76-16.15,7.14-2.15,1.85-4.36,3.88-6.6,6.12-4.39,4.39-8.09,8.73-11.16,12.8-2.6,5.48-4.8,11.41-6.38,17.8-.12.51-.24,1.05-.24,1.05-1.29,5.42-1.85,9.8-2.12,12.83Z"/>
    </g>
    <path class="cls-7" d="M168.5,23.53c-.1.48-.39,2.12-1.73,3.31-1.83,1.64-5.02,1.98-7.26.3-.13-.1-2.76-2.13-2.24-5.29.46-2.97,3.27-4.17,3.41-4.22,3.19-.83,6.21.12,7.35,2.12.9,1.54.54,3.42.46,3.78Z"/>
    <path class="cls-7" d="M170.4,36.84c-.1.48-.39,2.12-1.73,3.31-1.83,1.64-5.02,1.97-7.26.29-.12-.09-2.75-2.12-2.24-5.29.46-2.97,3.27-4.17,3.41-4.22,3.19-.83,6.21.12,7.35,2.12.88,1.51.54,3.39.46,3.78Z"/>
    <path class="cls-7" d="M239.14,18.8c-7.65-.03-15.41,0-23.3.12-12.57.2-24.82.58-36.78,1.15-.1-2.24-.22-4.48-.32-6.73,11.55-1.17,23.38-2.19,35.53-3.05,7.53-.51,14.93-.95,22.21-1.32.58,1.64,1.17,3.44,1.66,5.39.41,1.56.76,3.02.99,4.44Z"/>
    <path class="cls-7" d="M241.51,35.03c-8.33.71-16.9,1.29-25.65,1.76-12.66.68-24.94,1.05-36.77,1.15-.1-2.24-.22-4.48-.32-6.73,11.74-.93,23.57-1.95,35.51-3.05,8.79-.8,17.51-1.66,26.18-2.51.29,1.54.54,3.22.73,4.97.15,1.56.27,3.02.32,4.41Z"/>
    <path class="cls-7" d="M189.86,271.69l-36.63-10.66,2.8-9.6c12.3,3.49,24.57,6.97,36.87,10.48-1.02,3.24-2.02,6.51-3.04,9.78Z"/>
    <path class="cls-6" d="M164.38,253.8c-1.19,3.15-2.39,6.29-3.56,9.44-1.22-.34-2.41-.71-3.63-1.05,1.1-3.17,2.19-6.34,3.29-9.48,1.29.36,2.58.73,3.9,1.09Z"/>
    <g class="cls-8">
      <path class="cls-7" d="M154.35,278.52l-36.63-10.66,2.8-9.6c12.3,3.48,24.57,6.97,36.87,10.48-1,3.24-2.02,6.51-3.05,9.78Z"/>
    </g>
    <path class="cls-6" d="M128.87,260.63c-1.19,3.15-2.39,6.29-3.55,9.43-1.22-.34-2.41-.7-3.63-1.05,1.09-3.17,2.19-6.34,3.29-9.48,1.29.34,2.61.73,3.9,1.1Z"/>
    <path class="cls-4" d="M113.29,130.02c28.83-2.71,57.64-5.39,86.48-8.1,1.95-2.44,3.9-4.88,5.84-7.29,1.46,2.07,2.92,4.15,4.38,6.21,1.95-4.63,3.9-9.24,5.85-13.87,1.7,4.27,3.41,8.51,5.11,12.78,3.04-14.11,6.09-28.23,9.1-42.35,3.66,13.14,7.28,26.28,10.94,39.42,7.06-.36,14.1-.73,21.16-1.1,2.07-3.41,4.14-6.82,6.21-10.21,2.19,3.9,4.39,7.78,6.58,11.68,3.78-4.51,7.53-8.99,11.3-13.51,1.95,3.9,3.9,7.78,5.85,11.68,1.34-1.7,2.68-3.41,4.02-5.12.85,1.1,1.7,2.2,2.56,3.29h14.59c-4.6.81-9.21,1.58-13.81,2.39-.97-.71-1.95-1.42-2.92-2.15-1.49,2.1-3,4.19-4.48,6.29-2.24-3.12-4.48-6.22-6.74-9.34l-10.38,12.14c-2.21-3.02-4.41-6.02-6.63-9.05-1.29,2.22-2.58,4.44-3.87,6.66-8.47-.02-16.95-.02-25.43-.05-2.56-7.58-5.09-15.17-7.65-22.72-3.07,10.14-6.14,20.26-9.2,30.4-1.9-2.85-3.82-5.68-5.72-8.53-1.88,3.03-3.78,6.07-5.65,9.09-1.76-2.56-3.48-5.09-5.23-7.66-2.24,2.71-4.48,5.39-6.72,8.09-28.56.3-57.06.59-85.53.91Z"/>
  </g>
</svg>