<?xml version="1.0" encoding="UTF-8"?>
<svg id="Layer_2" data-name="Layer 2" xmlns="http://www.w3.org/2000/svg" viewBox="0 0 494.22 494.22">
  <defs>
    <style>
      .cls-1, .cls-2, .cls-3, .cls-4, .cls-5, .cls-6, .cls-7, .cls-8, .cls-9 {
        stroke-width: 0px;
      }

      .cls-1, .cls-6 {
        fill: #7a6c5e;
      }

      .cls-2 {
        fill: #fae3cb;
      }

      .cls-3 {
        fill: #948779;
      }

      .cls-4 {
        fill: #e0c8af;
      }

      .cls-4, .cls-6, .cls-8 {
        fill-rule: evenodd;
      }

      .cls-5 {
        fill: #5e5144;
      }

      .cls-7 {
        fill: #ffefde;
      }

      .cls-8, .cls-9 {
        fill: #fff;
      }
    </style>
  </defs>
  <g id="publicdomainvectors.org">
    <g>
      <rect class="cls-7" width="494.22" height="494.22"/>
      <path class="cls-4" d="M347.03,313.71v72.08c0,3.51,1.43,6.7,3.75,9.01,2.31,2.31,5.5,3.75,9.01,3.75h134.43v8.5h-134.43c-5.86,0-11.17-2.39-15.02-6.24-3.85-3.85-6.24-9.17-6.24-15.03v-72.08h8.5Z"/>
      <path class="cls-4" d="M265.12,219.51h94.5l55.04-33.86,34.65,39.23h0c3.06,3.16,4.95,7.46,4.95,12.19v92.69c0,9.66-7.9,17.55-17.55,17.55h-171.58c-4.19,0-8.04-1.49-11.07-3.96h0l-41.13-33.58,34.64-21.31v-51.39c0-9.66,7.9-17.55,17.56-17.55Z"/>
      <rect class="cls-9" x="209.76" y="183.21" width="206.69" height="127.8" rx="7.18" ry="7.18"/>
      <path class="cls-6" d="M272.45,298.26c28.17,0,51.15-22.98,51.15-51.15s-22.98-51.15-51.15-51.15-51.15,22.98-51.15,51.15,22.98,51.15,51.15,51.15Z"/>
      <rect class="cls-9" x="0" y="56.01" width="178.7" height="382.2"/>
      <rect class="cls-1" x="20.9" y="76.91" width="136.9" height="340.4"/>
      <rect class="cls-5" x="119.12" y="303.1" width="38.68" height="114.21"/>
      <rect class="cls-3" x="41.12" y="76.91" width="48.23" height="340.4"/>
      <rect class="cls-9" x="13.3" y="81.79" width="152.1" height="6"/>
      <g>
        <path class="cls-8" d="M13.3,94.41h152.1v6H13.3v-6Z"/>
        <path class="cls-8" d="M13.3,107.04h152.1v6H13.3v-6Z"/>
        <path class="cls-8" d="M13.3,119.67h152.1v6H13.3v-6Z"/>
        <path class="cls-8" d="M13.3,132.29h152.1v6H13.3v-6Z"/>
        <path class="cls-8" d="M13.3,144.92h152.1v6H13.3v-6Z"/>
        <path class="cls-8" d="M13.3,157.55h152.1v6H13.3v-6Z"/>
        <path class="cls-8" d="M13.3,170.18h152.1v6H13.3v-6Z"/>
        <path class="cls-8" d="M13.3,182.8h152.1v6H13.3v-6Z"/>
        <path class="cls-8" d="M13.3,195.43h152.1v6H13.3v-6Z"/>
        <path class="cls-8" d="M13.3,208.06h152.1v6H13.3v-6Z"/>
      </g>
      <rect class="cls-9" x="13.3" y="220.69" width="152.1" height="6"/>
      <rect class="cls-2" x="205.13" y="20.42" width="48.89" height="17.4"/>
      <rect class="cls-2" x="261.83" y="20.42" width="48.89" height="17.4"/>
      <rect class="cls-2" x="232.73" y="44.15" width="48.89" height="17.4"/>
      <path class="cls-4" d="M359.5,191.67h36.45c3.18,0,5.78,2.6,5.78,5.78h0c0,3.18-2.6,5.77-5.78,5.77h-36.45c-3.18,0-5.77-2.6-5.77-5.77h0c0-3.18,2.6-5.78,5.77-5.78Z"/>
      <path class="cls-4" d="M272.45,261.64c8,0,14.53-6.53,14.53-14.53s-6.53-14.53-14.53-14.53-14.53,6.53-14.53,14.53,6.53,14.53,14.53,14.53Z"/>
      <path class="cls-8" d="M272.45,222.65c6.75,0,12.87,2.74,17.3,7.16,4.43,4.43,7.16,10.54,7.16,17.3s-2.74,12.87-7.16,17.3c-4.43,4.43-10.54,7.17-17.3,7.17s-12.87-2.74-17.3-7.17c-4.43-4.43-7.16-10.54-7.16-17.3s2.74-12.87,7.16-17.3c4.43-4.43,10.54-7.16,17.3-7.16h0ZM288.74,230.81c-4.17-4.17-9.93-6.75-16.29-6.75s-12.12,2.58-16.29,6.75c-4.17,4.17-6.75,9.93-6.75,16.3s2.58,12.12,6.75,16.29c4.17,4.17,9.93,6.75,16.29,6.75s12.12-2.58,16.29-6.75c4.17-4.17,6.75-9.93,6.75-16.29s-2.58-12.12-6.75-16.3h0ZM272.45,218.14c-8,0-15.24,3.24-20.48,8.48-5.24,5.24-8.48,12.48-8.48,20.48s3.24,15.24,8.48,20.48c5.24,5.24,12.48,8.48,20.48,8.48s15.24-3.24,20.48-8.48c5.24-5.24,8.48-12.48,8.48-20.48s-3.24-15.24-8.48-20.48c-5.24-5.24-12.48-8.48-20.48-8.48h0ZM291.93,227.63c-4.98-4.98-11.87-8.07-19.48-8.07s-14.49,3.08-19.48,8.07c-4.98,4.98-8.07,11.87-8.07,19.48s3.08,14.49,8.07,19.48c4.98,4.98,11.87,8.07,19.48,8.07s14.49-3.08,19.48-8.07c4.98-4.98,8.07-11.87,8.07-19.48s-3.08-14.49-8.07-19.48h0ZM272.45,213.64c-9.24,0-17.61,3.75-23.66,9.8-6.06,6.06-9.8,14.42-9.8,23.66s3.75,17.61,9.8,23.66c6.06,6.05,14.42,9.8,23.66,9.8s17.61-3.75,23.66-9.8c6.06-6.06,9.8-14.42,9.8-23.66s-3.75-17.61-9.8-23.66c-6.06-6.06-14.42-9.8-23.66-9.8h0ZM295.11,224.45c-5.8-5.8-13.81-9.39-22.66-9.39s-16.86,3.59-22.66,9.39c-5.8,5.8-9.39,13.81-9.39,22.66s3.59,16.86,9.39,22.66c5.8,5.8,13.81,9.39,22.66,9.39s16.86-3.59,22.66-9.39c5.8-5.8,9.39-13.81,9.39-22.66s-3.59-16.86-9.39-22.66h0ZM272.45,209.14c-10.48,0-19.98,4.25-26.85,11.12-6.87,6.87-11.12,16.36-11.12,26.85s4.25,19.98,11.12,26.85c6.87,6.87,16.36,11.12,26.85,11.12s19.98-4.25,26.85-11.12c6.87-6.87,11.12-16.36,11.12-26.85s-4.25-19.98-11.12-26.85-16.36-11.12-26.85-11.12h0ZM298.29,221.26c-6.61-6.61-15.75-10.71-25.84-10.71s-19.23,4.09-25.85,10.71c-6.61,6.61-10.71,15.75-10.71,25.85s4.09,19.23,10.71,25.85c6.61,6.61,15.75,10.71,25.85,10.71s19.23-4.09,25.84-10.71c6.61-6.61,10.71-15.75,10.71-25.85s-4.09-19.23-10.71-25.85h0ZM272.45,204.64c-11.73,0-22.35,4.75-30.03,12.44-7.68,7.69-12.44,18.3-12.44,30.03s4.75,22.35,12.44,30.03c7.69,7.68,18.3,12.44,30.03,12.44s22.35-4.75,30.03-12.44c7.68-7.69,12.44-18.3,12.44-30.03s-4.75-22.35-12.44-30.03c-7.69-7.69-18.3-12.44-30.03-12.44h0ZM301.48,218.08c-7.43-7.43-17.69-12.02-29.03-12.02s-21.6,4.6-29.03,12.02c-7.43,7.43-12.02,17.69-12.02,29.03s4.6,21.6,12.02,29.03c7.43,7.43,17.69,12.02,29.03,12.02s21.6-4.6,29.03-12.02c7.43-7.43,12.02-17.69,12.02-29.03s-4.6-21.6-12.02-29.03h0ZM272.45,227.15c-5.51,0-10.5,2.23-14.11,5.85-3.61,3.61-5.85,8.6-5.85,14.11s2.23,10.5,5.85,14.11c3.61,3.61,8.6,5.85,14.11,5.85s10.5-2.23,14.11-5.85c3.61-3.61,5.85-8.6,5.85-14.11s-2.23-10.5-5.85-14.11c-3.61-3.61-8.6-5.85-14.11-5.85h0ZM285.56,234c-3.36-3.36-7.99-5.43-13.11-5.43s-9.76,2.08-13.11,5.43c-3.35,3.36-5.43,7.99-5.43,13.11s2.08,9.76,5.43,13.11c3.36,3.35,7.99,5.43,13.11,5.43s9.76-2.08,13.11-5.43c3.36-3.36,5.43-7.99,5.43-13.11s-2.08-9.76-5.43-13.11h0ZM272.45,200.14c-12.97,0-24.71,5.26-33.21,13.76s-13.76,20.24-13.76,33.21,5.26,24.71,13.76,33.21,20.24,13.76,33.21,13.76,24.71-5.26,33.21-13.76,13.76-20.24,13.76-33.21-5.26-24.71-13.76-33.21-20.24-13.76-33.21-13.76h0ZM304.66,214.9c-8.24-8.24-19.63-13.34-32.21-13.34s-23.97,5.1-32.21,13.34c-8.24,8.24-13.34,19.63-13.34,32.21s5.1,23.97,13.34,32.21c8.24,8.24,19.63,13.34,32.21,13.34s23.97-5.1,32.21-13.34c8.24-8.24,13.34-19.63,13.34-32.21s-5.1-23.97-13.34-32.21Z"/>
      <rect class="cls-9" x="271.56" y="191.12" width="1.78" height="111.98"/>
      <rect class="cls-9" x="216.46" y="246.22" width="111.97" height="1.78"/>
      <path class="cls-8" d="M347.03,311.01v72.08c0,3.51,1.43,6.7,3.75,9.01s5.5,3.75,9.01,3.75h134.43v8.5h-134.43c-5.86,0-11.17-2.39-15.02-6.24-3.85-3.85-6.24-9.17-6.24-15.03v-72.08h8.5Z"/>
      <rect class="cls-7" x="338.52" y="311.01" width="8.5" height="32.09"/>
      <rect class="cls-2" x="363.66" y="113.11" width="48.89" height="17.4"/>
      <rect class="cls-2" x="420.36" y="113.11" width="48.89" height="17.4"/>
      <rect class="cls-2" x="391.26" y="136.84" width="48.89" height="17.4"/>
      <rect class="cls-2" x="204.38" y="404.35" width="48.89" height="17.4"/>
      <rect class="cls-2" x="261.08" y="404.35" width="48.89" height="17.4"/>
      <rect class="cls-2" x="231.98" y="428.07" width="48.89" height="17.4"/>
      <rect class="cls-2" x="392.01" y="452.67" width="48.89" height="17.4"/>
      <rect class="cls-2" x="366.81" y="360.38" width="48.89" height="17.4"/>
      <rect class="cls-2" x="204.38" y="136.84" width="48.89" height="17.4"/>
      <rect class="cls-2" x="388.1" y="43.02" width="48.89" height="17.4"/>
      <rect class="cls-2" x="36.48" y="20.42" width="48.89" height="17.4"/>
    </g>
  </g>
</svg>