<?xml version="1.0" encoding="UTF-8"?>
<svg id="Layer_2" data-name="Layer 2" xmlns="http://www.w3.org/2000/svg" xmlns:xlink="http://www.w3.org/1999/xlink" viewBox="0 0 247.96 302.81">
  <defs>
    <style>
      .cls-1 {
        clip-path: url(#clippath);
      }

      .cls-2 {
        fill: none;
      }

      .cls-2, .cls-3, .cls-4, .cls-5, .cls-6, .cls-7 {
        stroke-width: 0px;
      }

      .cls-3 {
        fill: #33cbfe;
      }

      .cls-4 {
        fill: #fed839;
      }

      .cls-8 {
        clip-path: url(#clippath-1);
      }

      .cls-5 {
        fill: #01afe8;
      }

      .cls-6 {
        fill: #ffe990;
      }

      .cls-7 {
        fill: #fff;
      }
    </style>
    <clipPath id="clippath">
      <rect class="cls-2" x="46.49" y="270.27" width="155.84" height="32.54"/>
    </clipPath>
    <clipPath id="clippath-1">
      <rect class="cls-2" width="247.96" height="247.48"/>
    </clipPath>
  </defs>
  <g id="Layer_1-2" data-name="Layer 1">
    <g class="cls-1">
      <path class="cls-5" d="M201.24,270.52v14.32c0,9.94-34.58,17.97-77.27,17.97s-77.22-8.04-77.22-17.97v-14.32h154.49"/>
    </g>
    <path class="cls-3" d="M201.23,270.53c0,9.91-34.58,17.95-77.25,17.95s-77.26-8.04-77.26-17.95,34.59-17.96,77.26-17.96,77.25,8.04,77.25,17.96"/>
    <path class="cls-5" d="M149.66,268.68c-3.38,3.83-12.2,7.66-24.72,7.66s-22.45-3.7-22.45-8.79,10.89-12.73,28.81-12.27c12.51.33,24.57,6.39,18.36,13.39"/>
    <path class="cls-5" d="M171.7,275.02c0,2.03-4.16,3.39-8.07,3.39s-6.08-1.36-6.08-3.39,3.17-3.67,7.08-3.67,7.08,1.64,7.08,3.67"/>
    <path class="cls-4" d="M169.13,271.19v3.65c0,1.64-2.46,3.02-5.48,3.02-.56,0-1.13-.04-1.61-.15-.85-.14-1.58-.38-2.18-.7-1.06-.56-1.69-1.33-1.69-2.17v-3.65h.04c.04.67.67,1.3,1.66,1.72.63.23,1.37.45,2.22.56.49.07,1.02.1,1.58.1,2.95,0,5.34-1.02,5.45-2.39h.03"/>
    <path class="cls-6" d="M169.13,271.08v.11h-.03c-.11,1.37-2.5,2.39-5.45,2.39-.56,0-1.09-.04-1.58-.1-.85-.1-1.59-.32-2.22-.56-.99-.43-1.62-1.06-1.66-1.72h-.04v-.11c0-1.36,2.43-2.48,5.49-2.48s5.48,1.12,5.48,2.48"/>
    <path class="cls-6" d="M144.35,268.55c0,3.45-9.09,6.24-20.38,6.24s-20.38-2.79-20.38-6.24c0-.12,0-.29.08-.41l11.44-137.48h17.7l11.44,137.48c.08.13.08.29.08.41"/>
    <path class="cls-4" d="M144.35,268.55c0-.12,0-.29-.08-.41l-11.44-137.48h-5.23l6.45,143.29c6.14-1.08,10.31-3.07,10.31-5.4"/>
    <path class="cls-7" d="M112.26,270.37l-.58-.04c-1.17-.06-2.07-1.07-1.99-2.23l4.7-80.99c.07-1.16,1.08-2.05,2.24-1.99l.58.04c1.17.07,2.07,1.07,1.99,2.23l-4.71,80.99c-.06,1.16-1.08,2.06-2.24,1.99"/>
    <path class="cls-3" d="M130.3,120.04c2.94-2.91,4.8-6.62,5.92-10.59,4.27-15.05,19.36-27.38,31.1-36.14,4.8-3.58,9.79-7.01,13.73-11.49,3.96-4.49,6.82-10.28,6.41-16.25-.63-9.07-8.46-15.98-16.51-20.3-20.32-10.88-45.32-11.55-67.14-4.08-8.76,3-17.19,7.3-23.96,13.6-6.77,6.3-11.79,14.71-12.94,23.88-1.17,9.36,1.73,18.88,6.39,27.08,6.44,11.35,15.66,20.9,24.83,30.19,3.39,3.43,7.38,6.21,11.78,8.2,6.71,3.03,14.6,1.61,19.82-3.56l.55-.55"/>
    <path class="cls-5" d="M118.12,109.48c-8.17-8.27-16.38-16.77-22.11-26.88-4.15-7.31-6.73-15.78-5.69-24.12,1.02-8.16,5.49-15.65,11.52-21.26,6.03-5.6,13.53-9.44,21.33-12.11,9.1-3.11,18.81-4.56,28.42-4.32-15.07-3.49-31.29-2.46-46.01,2.58-8.28,2.83-16.26,6.91-22.66,12.86-6.4,5.95-11.15,13.92-12.24,22.58-1.1,8.85,1.64,17.84,6.05,25.6,6.09,10.74,14.81,19.76,23.48,28.55,3.2,3.25,6.97,5.88,11.14,7.76,6.34,2.86,13.8,1.53,18.74-3.37l.04-.04c-.51-.17-1.02-.33-1.53-.56-3.91-1.77-7.47-4.24-10.49-7.3"/>
    <path class="cls-3" d="M115.49,121.17c-3.99-1.08-8.15-.84-12.16.17-15.19,3.84-33.45-3.03-46.93-8.79-5.5-2.35-10.97-4.95-16.85-6.11-5.88-1.17-12.34-.74-17.31,2.59-7.57,5.07-9.66,15.3-9.39,24.4.71,22.99,12.64,44.92,30.04,60.03,6.98,6.07,14.94,11.19,23.79,13.89,8.85,2.7,18.67,2.82,27.2-.77,8.72-3.67,15.52-10.93,20.32-19.06,6.64-11.23,10.32-23.97,13.8-36.54,1.29-4.65,1.7-9.48,1.23-14.28-.72-7.3-5.9-13.41-13-15.33l-.74-.2"/>
    <path class="cls-5" d="M112.41,136.96c-3.1,11.19-6.38,22.53-12.28,32.53-4.28,7.24-10.34,13.7-18.1,16.97-7.59,3.2-16.34,3.09-24.22.69-7.88-2.41-14.97-6.97-21.19-12.38-7.24-6.3-13.36-13.95-17.95-22.38,4.49,14.77,13.51,28.26,25.24,38.44,6.6,5.73,14.13,10.58,22.5,13.13,8.37,2.55,17.66,2.68,25.73-.72,8.23-3.46,14.67-10.33,19.21-18.02,6.28-10.63,9.76-22.68,13.05-34.56,1.22-4.39,1.61-8.96,1.16-13.5-.68-6.91-5.57-12.68-12.29-14.49l-.05-.02c.11.53.23,1.05.28,1.6.42,4.27.05,8.57-1.09,12.7"/>
    <path class="cls-3" d="M123.88,133.4c1.06,3.98,3.35,7.45,6.23,10.41,10.94,11.2,14.1,30.4,15.84,44.92.71,5.93,1.19,11.95,3.11,17.62,1.93,5.65,5.53,11.03,10.91,13.66,8.2,4,18.12.69,25.88-4.1,19.61-12.11,32.69-33.37,37.11-55.95,1.78-9.06,2.26-18.5.17-27.49-2.08-8.99-6.88-17.54-14.26-23.11-7.55-5.69-17.26-7.94-26.71-8.02-13.08-.11-25.98,3.08-38.64,6.35-4.68,1.21-9.08,3.27-13.01,6.07-5.98,4.28-8.69,11.8-6.81,18.9l.19.76"/>
    <path class="cls-5" d="M139.14,128.16c11.27-2.92,22.75-5.76,34.4-5.66,8.42.08,17.06,2.07,23.79,7.15,6.57,4.96,10.84,12.57,12.7,20.58,1.85,8.01,1.43,16.41-.15,24.48-1.84,9.41-5.43,18.52-10.46,26.7,10.57-11.28,17.78-25.8,20.76-41.02,1.68-8.57,2.13-17.49.16-26.01-1.97-8.51-6.52-16.59-13.49-21.85-7.14-5.39-16.32-7.51-25.27-7.58-12.37-.11-24.57,2.91-36.53,6.01-4.42,1.14-8.59,3.08-12.3,5.74-5.67,4.04-8.22,11.15-6.45,17.87v.05c.41-.36.81-.72,1.26-1.04,3.5-2.5,7.42-4.33,11.59-5.41"/>
    <g class="cls-8">
      <path class="cls-4" d="M39.91,32.68c-50.29,46.23-53.48,124.64-7.13,174.79,46.35,50.16,124.98,53.34,175.27,7.11,50.3-46.22,53.49-124.64,7.14-174.79C168.83-10.36,90.2-13.55,39.91,32.68ZM43.54,36.61C91.66-7.63,166.89-4.57,211.24,43.41c44.35,47.99,41.3,123.02-6.82,167.25-48.12,44.23-123.35,41.18-167.71-6.81C-7.65,155.86-4.58,80.84,43.54,36.61"/>
    </g>
    <path class="cls-4" d="M36.59,206.21l-2.04-2.2L211.57,41.28l2.04,2.2L36.59,206.21"/>
    <path class="cls-4" d="M204.56,213.03L41.39,36.5l2.21-2.04,163.17,176.53-2.21,2.04"/>
    <path class="cls-4" d="M89.78,238.59l-2.87-.89L158.63,8.51l2.87.89-71.71,229.19"/>
    <path class="cls-4" d="M238.67,160.74L8.84,89.22l.89-2.86,229.83,71.53-.9,2.85"/>
    <path class="cls-4" d="M149.15,240.78L96.34,6.53l2.93-.66,52.81,234.24-2.94.66"/>
    <path class="cls-4" d="M7.1,151.11l-.66-2.92,234.89-52.66.66,2.93L7.1,151.11"/>
    <path class="cls-4" d="M142.58,106.42c9.44,10.2,8.78,26.1-1.45,35.5-10.22,9.41-26.16,8.76-35.6-1.44-9.42-10.2-8.78-26.1,1.45-35.5,10.23-9.41,26.17-8.76,35.59,1.44"/>
    <path class="cls-6" d="M103.88,121.85c.88-11.1,10.65-19.42,21.78-18.53,11.13.88,19.46,10.63,18.58,21.73-.43,5.36-2.93,10.26-7.05,13.76-.21.18-.43.35-.65.53-4.01,3.15-8.97,4.65-14.08,4.24-5.39-.43-10.28-2.92-13.8-7.03-3.51-4.1-5.21-9.33-4.78-14.69"/>
    <path class="cls-7" d="M126.37,106.78c-11.13-.89-20.91,7.43-21.79,18.53-.1,1.27-.9-.98-.7-3.45.88-11.1,10.65-19.42,21.78-18.53,5.48.43,6.31,2.19,5.77,3.08-.44.71-1.23.68-5.06.38"/>
    <path class="cls-7" d="M162.06,273.47v3.96c0,.11,0,.18-.04.28-.85-.14-1.58-.38-2.18-.7v-4.1c.63.23,1.37.45,2.22.56"/>
  </g>
</svg>