<?xml version="1.0" encoding="UTF-8"?>
<svg id="Layer_2" data-name="Layer 2" xmlns="http://www.w3.org/2000/svg" xmlns:xlink="http://www.w3.org/1999/xlink" viewBox="0 0 229.23 242.51">
  <defs>
    <style>
      .cls-1 {
        fill: #3a322b;
      }

      .cls-1, .cls-2, .cls-3, .cls-4, .cls-5, .cls-6 {
        stroke-width: 0px;
      }

      .cls-2 {
        fill: #543927;
      }

      .cls-7 {
        clip-path: url(#clippath);
      }

      .cls-3 {
        fill: none;
      }

      .cls-4 {
        fill: #f9b132;
      }

      .cls-5 {
        fill: #cd8098;
      }

      .cls-8 {
        clip-path: url(#clippath-1);
      }

      .cls-6 {
        fill: #f48ca7;
      }
    </style>
    <clipPath id="clippath">
      <rect class="cls-3" y="48.51" width="229.23" height="194"/>
    </clipPath>
    <clipPath id="clippath-1">
      <rect class="cls-3" x="106.04" width="54.67" height="54.66"/>
    </clipPath>
  </defs>
  <g id="Layer_1-2" data-name="Layer 1">
    <path class="cls-6" d="M222.21,141.9c-2.1-.42-4.03-1.35-5.66-2.64-1.64-1.27-3.01-2.92-3.98-4.82-5.22-10.08-11.96-18.59-20.86-24.89,6.84-10.08,7.99-21.4,5.57-33.5-11.94,3.02-20.82,9.7-27.08,19.47l-.03-.02c-15.83-15.36-32.38-25.12-50.6-25.12.21,1.27.33,2.57.33,3.9,0,3.75-.88,7.3-2.46,10.45h-41.88c-.27-.53-.52-1.09-.76-1.65-1.09-2.72-1.71-5.69-1.71-8.8,0-1.84.21-3.65.64-5.38,0,0-14.04,1.69-31.59,14.17-3.45,2.44-7.02,5.31-10.66,8.65C10.72,110.86-.76,142.32,2.46,172.24c2.49,23.18,16.97,37.98,23.32,43.45,2.04,1.75,3.51,4.07,4.26,6.65l3.85,13.39c.83,2.89,3.46,4.86,6.47,4.86h18.44c2.96,0,5.57-1.92,6.43-4.74l3.39-10.87c14.33,3.55,29.03,3.93,44.09.96,2.91-.55,5.82-1.25,8.74-2.08l3.51,12.07c.81,2.77,3.36,4.67,6.24,4.67h15.1c2.35,0,4.52-1.28,5.68-3.34l8.4-15.14c1.29-2.33,3.47-4.02,6.03-4.8,21.14-6.42,40.01-17.61,56.48-33.89,2.85-2.82,4.47-6.66,4.47-10.65v-24.55c0-3.05-2.16-5.7-5.16-6.32"/>
    <path class="cls-2" d="M194.51,140.65c4.3,0,7.78,3.48,7.78,7.77s-3.48,7.74-7.78,7.74-7.78-3.46-7.78-7.74,3.48-7.77,7.78-7.77"/>
    <path class="cls-4" d="M119.56,70.39c-1.85-10.99-11.38-19.36-22.9-19.44h-.18c-11.07,0-20.34,7.67-22.77,17.96-.42,1.73-.64,3.54-.64,5.38,0,3.75.88,7.3,2.46,10.45h41.88c1.58-3.15,2.46-6.7,2.46-10.45,0-1.32-.11-2.63-.33-3.9"/>
    <path class="cls-4" d="M133.51,2.41h-.1s-.1,0-.1,0c-10.53,0-19.51,6.57-23.16,15.83-1.14,2.86-1.78,5.97-1.78,9.23s.64,6.37,1.78,9.23c3.66,9.28,12.64,15.84,23.16,15.84h.1s.1,0,.1,0c13.88,0,25.14-11.21,25.14-25.07s-11.26-25.07-25.14-25.07"/>
    <path class="cls-5" d="M58.81,240.59h-18.44c-3.01,0-5.64-1.98-6.47-4.86l-3.85-13.39c-.75-2.57-2.22-4.9-4.26-6.65-6.35-5.47-20.83-20.27-23.32-43.45-.36-3.35-.54-6.71-.54-10.08,0-26.72,11.12-53.44,29.55-70.44,3.64-3.34,7.2-6.2,10.66-8.65-9.93,63.04,7.26,113.57,70.59,142.85-6.76,1.34-13.44,1.99-20.05,1.99-8.12,0-16.14-.99-24.04-2.95l-3.39,10.87c-.86,2.82-3.47,4.74-6.43,4.74"/>
    <g class="cls-7">
      <path class="cls-1" d="M225.44,172.77c0,3.46-1.41,6.85-3.88,9.29-15.99,15.8-34.73,27.04-55.7,33.42-3.09.94-5.63,2.96-7.15,5.69l-8.4,15.14c-.81,1.45-2.34,2.35-4.01,2.35h-15.09c-2.02,0-3.83-1.35-4.39-3.29l-3.51-12.05c-.29-1.02-1.36-1.6-2.36-1.32-17.55,4.9-35,5.27-51.87,1.09-.99-.24-2,.32-2.3,1.3l-3.38,10.88c-.62,2.03-2.47,3.39-4.59,3.39h-18.44c-2.14,0-4.04-1.43-4.63-3.47l-3.85-13.39c-.86-2.97-2.53-5.59-4.84-7.58-6.01-5.16-20.24-19.59-22.68-42.2-3.14-29.13,8.01-60.09,28.41-78.89,16.81-15.5,32.53-20.42,38.56-21.81-.11.97-.19,1.95-.19,2.96,0,2.95.49,5.81,1.48,8.52h-9.73c-1.06,0-1.93.86-1.93,1.92s.86,1.92,1.93,1.92h67.18c1.07,0,1.93-.86,1.93-1.92s-.86-1.92-1.93-1.92h-9.74c.99-2.71,1.48-5.57,1.48-8.52,0-.65-.05-1.28-.1-1.92,15.04.68,30.11,8.38,45.99,23.48-1.53,2.52-2.9,5.23-4.13,8.16-.41.97.05,2.1,1.04,2.52.98.41,2.11-.05,2.52-1.04,5.97-14.25,15.34-23.11,28.62-27.03,1.95,11.71.1,21.55-5.65,30.02-.58.86-.38,2.04.47,2.64,8.24,5.85,14.86,13.77,20.26,24.21,2.28,4.4,6.28,7.47,10.98,8.45,2.1.44,3.62,2.3,3.62,4.44v24.56ZM98.42,79.04c1.71.63,3.07,2.02,3.66,3.77h-3.66v-3.77ZM94.56,74.49c-2.33-.81-4.02-2.99-4.02-5.58s1.68-4.77,4.02-5.58v11.16ZM96.49,52.86c11.84,0,21.47,9.61,21.47,21.42,0,2.98-.63,5.83-1.81,8.52h-10.07c-.77-3.91-3.81-6.99-7.67-7.77v-11.71c2.32.81,4.01,2.99,4.01,5.58,0,1.06.86,1.92,1.93,1.92s1.93-.86,1.93-1.92c0-4.73-3.39-8.68-7.86-9.57v-3.3c0-1.06-.86-1.92-1.93-1.92s-1.93.86-1.93,1.92v3.3c-4.48.89-7.87,4.84-7.87,9.57s3.39,8.68,7.87,9.57v4.33h-17.75c-1.17-2.69-1.81-5.54-1.81-8.52,0-11.81,9.64-21.42,21.48-21.42ZM222.6,140.02c-3.56-.73-6.6-3.09-8.34-6.45-5.36-10.37-11.9-18.4-19.96-24.49,5.86-9.5,7.46-20.45,4.86-33.4-.1-.52-.41-.97-.86-1.26-.44-.28-.99-.36-1.5-.23-11.29,2.84-20.3,9.01-26.95,18.39-16.66-15.69-32.64-23.59-48.73-24.08-2.63-11.15-12.67-19.48-24.64-19.48s-21.23,7.69-24.31,18.19c-4.88.9-22.6,5.21-42.02,23.11C8.91,109.92-2.72,142.16.54,172.45c2.59,23.96,17.65,39.24,23.99,44.69,1.74,1.5,3.01,3.48,3.65,5.72l3.85,13.39c1.06,3.69,4.48,6.26,8.33,6.26h18.44c3.82,0,7.15-2.45,8.28-6.09l2.84-9.17c16.38,3.76,33.25,3.41,50.22-1.04l2.98,10.24c1.04,3.56,4.36,6.06,8.09,6.06h15.09c3.06,0,5.9-1.66,7.38-4.34l8.4-15.14c1.03-1.86,2.77-3.23,4.91-3.89,21.57-6.56,40.84-18.12,57.28-34.35,3.19-3.16,5.02-7.54,5.02-12.03v-24.56c0-3.95-2.81-7.4-6.69-8.2"/>
    </g>
    <path class="cls-1" d="M194.51,154.23c-3.22,0-5.84-2.61-5.84-5.83s2.62-5.84,5.84-5.84,5.85,2.62,5.85,5.84-2.63,5.83-5.85,5.83ZM194.51,138.73c-5.35,0-9.7,4.34-9.7,9.68s4.35,9.67,9.7,9.67,9.7-4.34,9.7-9.67-4.35-9.68-9.7-9.68"/>
    <path class="cls-1" d="M60.49,130.3c2.86,0,5.58,1.48,7.47,4.07.63.86,1.84,1.04,2.69.42.86-.63,1.05-1.82.42-2.68-2.63-3.59-6.48-5.66-10.59-5.66-7.6,0-13.78,7.05-13.78,15.73s6.18,15.72,13.78,15.72c3.78,0,7.3-1.7,9.92-4.8.69-.82.58-2.03-.23-2.71-.82-.69-2.03-.58-2.71.22-1.88,2.22-4.36,3.44-6.98,3.44-5.47,0-9.92-5.33-9.92-11.88s4.45-11.89,9.92-11.89"/>
    <path class="cls-1" d="M90.59,154.06c-5.47,0-9.92-5.33-9.92-11.88s4.45-11.89,9.92-11.89,9.92,5.33,9.92,11.89-4.44,11.88-9.92,11.88ZM90.59,126.46c-7.6,0-13.78,7.05-13.78,15.73s6.18,15.72,13.78,15.72,13.77-7.05,13.77-15.72-6.18-15.73-13.77-15.73"/>
    <path class="cls-1" d="M116.86,130.3c2.76,0,4.99,2.23,4.99,4.98,0,1.06.86,1.92,1.93,1.92s1.93-.86,1.93-1.92c0-4.86-3.97-8.82-8.85-8.82s-8.85,3.96-8.85,8.82,3.96,8.83,8.85,8.83c2.76,0,4.99,2.22,4.99,4.97s-2.24,4.98-4.99,4.98-4.99-2.23-4.99-4.98c0-1.06-.87-1.92-1.93-1.92s-1.93.86-1.93,1.92c0,4.87,3.96,8.82,8.85,8.82s8.85-3.95,8.85-8.82-3.97-8.82-8.85-8.82c-2.76,0-4.99-2.23-4.99-4.98s2.24-4.98,4.99-4.98"/>
    <path class="cls-1" d="M147.94,126.46h-16.89c-1.07,0-1.93.86-1.93,1.92s.85,1.92,1.93,1.92h6.52v25.68c0,1.07.86,1.92,1.93,1.92s1.92-.85,1.92-1.92v-25.68h6.52c1.07,0,1.92-.86,1.92-1.92s-.85-1.92-1.92-1.92"/>
    <g class="cls-8">
      <path class="cls-1" d="M133.49,4.33c12.8,0,23.21,10.39,23.21,23.15s-10.41,23.14-23.21,23.14-23.21-10.38-23.21-23.14,10.42-23.15,23.21-23.15ZM133.49,54.46c14.92,0,27.07-12.1,27.07-26.98S148.42.49,133.49.49s-27.07,12.11-27.07,26.98,12.15,26.98,27.07,26.98"/>
    </g>
    <path class="cls-1" d="M128.91,20.99c0-1.83,1.09-3.41,2.66-4.13v8.26c-1.56-.73-2.66-2.3-2.66-4.13ZM138.08,33.97c0,1.83-1.09,3.4-2.66,4.13v-8.26c1.56.72,2.66,2.3,2.66,4.13ZM128.91,33.97c0-1.06-.86-1.92-1.93-1.92s-1.92.86-1.92,1.92c0,3.97,2.78,7.3,6.51,8.17v2.74c0,1.06.86,1.92,1.93,1.92s1.93-.86,1.93-1.92v-2.74c3.72-.88,6.51-4.2,6.51-8.17s-2.79-7.29-6.51-8.17v-8.94c1.56.72,2.66,2.3,2.66,4.13,0,1.06.86,1.92,1.93,1.92s1.93-.86,1.93-1.92c0-3.97-2.79-7.3-6.51-8.17v-3.01c0-1.06-.86-1.92-1.93-1.92s-1.93.86-1.93,1.92v3.01c-3.72.88-6.51,4.2-6.51,8.17s2.78,7.29,6.51,8.17v8.94c-1.56-.73-2.66-2.3-2.66-4.13"/>
  </g>
</svg>