<svg class="marks" preserveAspectRatio="none" width="310" height="110"  version="1.1" xmlns="http://www.w3.org/2000/svg" xmlns:xlink="http://www.w3.org/1999/xlink"><g transform="translate(5,5)"><g class="mark-group role-frame root"><g transform="translate(0,0)"><path class="background" d="M0,0h300v100h-300Z" style="fill: none; stroke: #ddd; stroke-width: 0;"></path><g><g class="mark-rect role-mark marks"><path d="M0.3658536585365937,30.400000000000006h6.585365853658537v69.6h-6.585365853658537Z" style="fill: #D2D4CE;"></path><path d="M7.682926829268301,23.7h6.585365853658537v76.3h-6.585365853658537Z" style="fill: #D2D4CE;"></path><path d="M15.000000000000009,19.400000000000006h6.585365853658537v80.6h-6.585365853658537Z" style="fill: #D2D4CE;"></path><path d="M22.317073170731717,17.900000000000006h6.585365853658537v82.1h-6.585365853658537Z" style="fill: #D2D4CE;"></path><path d="M29.634146341463424,17.400000000000006h6.585365853658537v82.6h-6.585365853658537Z" style="fill: #D2D4CE;"></path><path d="M36.95121951219513,15.700000000000003h6.585365853658537v84.3h-6.585365853658537Z" style="fill: #D2D4CE;"></path><path d="M44.26829268292684,14.700000000000003h6.585365853658537v85.3h-6.585365853658537Z" style="fill: #D2D4CE;"></path><path d="M51.585365853658544,14.200000000000001h6.585365853658537v85.8h-6.585365853658537Z" style="fill: #D2D4CE;"></path><path d="M58.902439024390254,14.000000000000002h6.585365853658537v86h-6.585365853658537Z" style="fill: #00923E;"></path><path d="M66.21951219512196,14.000000000000002h6.585365853658537v86h-6.585365853658537Z" style="fill: #D2D4CE;"></path><path d="M73.53658536585367,13.700000000000001h6.585365853658537v86.3h-6.585365853658537Z" style="fill: #D2D4CE;"></path><path d="M80.85365853658537,13.59999999999999h6.585365853658537v86.4h-6.585365853658537Z" style="fill: #D2D4CE;"></path><path d="M88.17073170731709,13.3h6.585365853658537v86.7h-6.585365853658537Z" style="fill: #D2D4CE;"></path><path d="M95.48780487804879,13h6.585365853658537v87h-6.585365853658537Z" style="fill: #D2D4CE;"></path><path d="M102.8048780487805,12.599999999999989h6.585365853658537v87.4h-6.585365853658537Z" style="fill: #D2D4CE;"></path><path d="M110.12195121951221,12.599999999999989h6.585365853658537v87.4h-6.585365853658537Z" style="fill: #D2D4CE;"></path><path d="M117.43902439024392,12.5h6.585365853658537v87.5h-6.585365853658537Z" style="fill: #D2D4CE;"></path><path d="M124.75609756097562,12.2h6.585365853658537v87.8h-6.585365853658537Z" style="fill: #D2D4CE;"></path><path d="M132.07317073170734,11.799999999999999h6.585365853658537v88.2h-6.585365853658537Z" style="fill: #D2D4CE;"></path><path d="M139.39024390243904,11.2h6.585365853658537v88.8h-6.585365853658537Z" style="fill: #D2D4CE;"></path><path d="M146.70731707317074,11.2h6.585365853658537v88.8h-6.585365853658537Z" style="fill: #D2D4CE;"></path><path d="M154.02439024390245,10.999999999999998h6.585365853658537v89h-6.585365853658537Z" style="fill: #D2D4CE;"></path><path d="M161.34146341463415,10.599999999999998h6.585365853658537v89.4h-6.585365853658537Z" style="fill: #D2D4CE;"></path><path d="M168.65853658536588,9.499999999999996h6.585365853658537v90.5h-6.585365853658537Z" style="fill: #D2D4CE;"></path><path d="M175.97560975609758,8.599999999999996h6.585365853658537v91.4h-6.585365853658537Z" style="fill: #D2D4CE;"></path><path d="M183.2926829268293,8.200000000000006h6.585365853658537v91.8h-6.585365853658537Z" style="fill: #D2D4CE;"></path><path d="M190.609756097561,7.9999999999999964h6.585365853658537v92h-6.585365853658537Z" style="fill: #D2D4CE;"></path><path d="M197.9268292682927,7.9999999999999964h6.585365853658537v92h-6.585365853658537Z" style="fill: #D2D4CE;"></path><path d="M205.2439024390244,7.9999999999999964h6.585365853658537v92h-6.585365853658537Z" style="fill: #D2D4CE;"></path><path d="M212.56097560975613,7.599999999999996h6.585365853658537v92.4h-6.585365853658537Z" style="fill: #D2D4CE;"></path><path d="M219.87804878048783,7.400000000000007h6.585365853658537v92.6h-6.585365853658537Z" style="fill: #D2D4CE;"></path><path d="M227.19512195121953,7.200000000000006h6.585365853658537v92.8h-6.585365853658537Z" style="fill: #D2D4CE;"></path><path d="M234.51219512195124,7.099999999999995h6.585365853658537v92.9h-6.585365853658537Z" style="fill: #D2D4CE;"></path><path d="M241.82926829268294,6.999999999999995h6.585365853658537v93h-6.585365853658537Z" style="fill: #D2D4CE;"></path><path d="M249.14634146341464,6.700000000000006h6.585365853658537v93.3h-6.585365853658537Z" style="fill: #D2D4CE;"></path><path d="M256.4634146341464,5.900000000000006h6.585365853658537v94.1h-6.585365853658537Z" style="fill: #D2D4CE;"></path><path d="M263.7804878048781,5.000000000000004h6.585365853658537v95h-6.585365853658537Z" style="fill: #D2D4CE;"></path><path d="M271.0975609756098,4.799999999999994h6.585365853658537v95.2h-6.585365853658537Z" style="fill: #D2D4CE;"></path><path d="M278.4146341463415,4.200000000000004h6.585365853658537v95.8h-6.585365853658537Z" style="fill: #D2D4CE;"></path><path d="M285.7317073170732,3.7000000000000033h6.585365853658537v96.3h-6.585365853658537Z" style="fill: #D2D4CE;"></path><path d="M293.0487804878049,3.599999999999992h6.585365853658537v96.4h-6.585365853658537Z" style="fill: #D2D4CE;"></path></g></g><path class="foreground" d="" style="display: none; fill: none;"></path></g></g></g></svg>