<svg class="marks" preserveAspectRatio="none" width="310" height="110"  version="1.1" xmlns="http://www.w3.org/2000/svg" xmlns:xlink="http://www.w3.org/1999/xlink"><g transform="translate(5,5)"><g class="mark-group role-frame root"><g transform="translate(0,0)"><path class="background" d="M0,0h300v100h-300Z" style="fill: none; stroke: #ddd; stroke-width: 0;"></path><g><g class="mark-rect role-mark marks"><path d="M15.000000000000009,85h6.585365853658537v15h-6.585365853658537Z" style="fill: #D2D4CE;"></path><path d="M22.317073170731717,85h6.585365853658537v15h-6.585365853658537Z" style="fill: #D2D4CE;"></path><path d="M29.634146341463424,82.5h6.585365853658537v17.5h-6.585365853658537Z" style="fill: #D2D4CE;"></path><path d="M36.95121951219513,82.5h6.585365853658537v17.5h-6.585365853658537Z" style="fill: #D2D4CE;"></path><path d="M44.26829268292684,73h6.585365853658537v27h-6.585365853658537Z" style="fill: #D2D4CE;"></path><path d="M51.585365853658544,71h6.585365853658537v29h-6.585365853658537Z" style="fill: #D2D4CE;"></path><path d="M58.902439024390254,71h6.585365853658537v29h-6.585365853658537Z" style="fill: #D2D4CE;"></path><path d="M66.21951219512196,70h6.585365853658537v30h-6.585365853658537Z" style="fill: #D2D4CE;"></path><path d="M73.53658536585367,70h6.585365853658537v30h-6.585365853658537Z" style="fill: #00923E;"></path><path d="M80.85365853658537,65.5h6.585365853658537v34.5h-6.585365853658537Z" style="fill: #D2D4CE;"></path><path d="M88.17073170731709,65.5h6.585365853658537v34.5h-6.585365853658537Z" style="fill: #D2D4CE;"></path><path d="M95.48780487804879,65h6.585365853658537v35h-6.585365853658537Z" style="fill: #D2D4CE;"></path><path d="M102.8048780487805,64.5h6.585365853658537v35.5h-6.585365853658537Z" style="fill: #D2D4CE;"></path><path d="M110.12195121951221,62h6.585365853658537v38h-6.585365853658537Z" style="fill: #D2D4CE;"></path><path d="M117.43902439024392,62h6.585365853658537v38h-6.585365853658537Z" style="fill: #D2D4CE;"></path><path d="M124.75609756097562,57.99999999999999h6.585365853658537v42.00000000000001h-6.585365853658537Z" style="fill: #D2D4CE;"></path><path d="M132.07317073170734,57.00000000000001h6.585365853658537v42.99999999999999h-6.585365853658537Z" style="fill: #D2D4CE;"></path><path d="M139.39024390243904,55.49999999999999h6.585365853658537v44.50000000000001h-6.585365853658537Z" style="fill: #D2D4CE;"></path><path d="M146.70731707317074,55.49999999999999h6.585365853658537v44.50000000000001h-6.585365853658537Z" style="fill: #D2D4CE;"></path><path d="M154.02439024390245,54.50000000000001h6.585365853658537v45.49999999999999h-6.585365853658537Z" style="fill: #D2D4CE;"></path><path d="M161.34146341463415,53h6.585365853658537v47h-6.585365853658537Z" style="fill: #D2D4CE;"></path><path d="M168.65853658536588,52.5h6.585365853658537v47.5h-6.585365853658537Z" style="fill: #D2D4CE;"></path><path d="M175.97560975609758,52.5h6.585365853658537v47.5h-6.585365853658537Z" style="fill: #D2D4CE;"></path><path d="M183.2926829268293,50h6.585365853658537v50h-6.585365853658537Z" style="fill: #D2D4CE;"></path><path d="M190.609756097561,48h6.585365853658537v52h-6.585365853658537Z" style="fill: #D2D4CE;"></path><path d="M197.9268292682927,46h6.585365853658537v54h-6.585365853658537Z" style="fill: #D2D4CE;"></path><path d="M205.2439024390244,45.49999999999999h6.585365853658537v54.50000000000001h-6.585365853658537Z" style="fill: #D2D4CE;"></path><path d="M212.56097560975613,42.00000000000001h6.585365853658537v57.99999999999999h-6.585365853658537Z" style="fill: #D2D4CE;"></path><path d="M219.87804878048783,40.99999999999999h6.585365853658537v59.00000000000001h-6.585365853658537Z" style="fill: #D2D4CE;"></path><path d="M227.19512195121953,40.99999999999999h6.585365853658537v59.00000000000001h-6.585365853658537Z" style="fill: #D2D4CE;"></path><path d="M234.51219512195124,40.99999999999999h6.585365853658537v59.00000000000001h-6.585365853658537Z" style="fill: #D2D4CE;"></path><path d="M241.82926829268294,40.99999999999999h6.585365853658537v59.00000000000001h-6.585365853658537Z" style="fill: #D2D4CE;"></path><path d="M249.14634146341464,39h6.585365853658537v61h-6.585365853658537Z" style="fill: #D2D4CE;"></path><path d="M256.4634146341464,35h6.585365853658537v65h-6.585365853658537Z" style="fill: #D2D4CE;"></path><path d="M263.7804878048781,30.499999999999993h6.585365853658537v69.5h-6.585365853658537Z" style="fill: #D2D4CE;"></path><path d="M271.0975609756098,28.000000000000004h6.585365853658537v72h-6.585365853658537Z" style="fill: #D2D4CE;"></path><path d="M278.4146341463415,19.999999999999996h6.585365853658537v80h-6.585365853658537Z" style="fill: #D2D4CE;"></path><path d="M285.7317073170732,14.000000000000002h6.585365853658537v86h-6.585365853658537Z" style="fill: #D2D4CE;"></path><path d="M293.0487804878049,6.500000000000005h6.585365853658537v93.5h-6.585365853658537Z" style="fill: #D2D4CE;"></path></g></g><path class="foreground" d="" style="display: none; fill: none;"></path></g></g></g></svg>