<svg class="marks" preserveAspectRatio="none" width="310" height="110"  version="1.1" xmlns="http://www.w3.org/2000/svg" xmlns:xlink="http://www.w3.org/1999/xlink"><g transform="translate(5,5)"><g class="mark-group role-frame root"><g transform="translate(0,0)"><path class="background" d="M0,0h300v100h-300Z" style="fill: none; stroke: #ddd; stroke-width: 0;"></path><g><g class="mark-rect role-mark marks"><path d="M0.3658536585365937,100h6.585365853658537v0h-6.585365853658537Z" style="fill: #D2D4CE;"></path><path d="M7.682926829268301,94.5h6.585365853658537v5.5h-6.585365853658537Z" style="fill: #D2D4CE;"></path><path d="M15.000000000000009,89.60000000000001h6.585365853658537v10.399999999999991h-6.585365853658537Z" style="fill: #D2D4CE;"></path><path d="M22.317073170731717,89.5h6.585365853658537v10.5h-6.585365853658537Z" style="fill: #D2D4CE;"></path><path d="M29.634146341463424,87.3h6.585365853658537v12.700000000000003h-6.585365853658537Z" style="fill: #D2D4CE;"></path><path d="M36.95121951219513,86.8h6.585365853658537v13.200000000000003h-6.585365853658537Z" style="fill: #D2D4CE;"></path><path d="M44.26829268292684,85.5h6.585365853658537v14.5h-6.585365853658537Z" style="fill: #D2D4CE;"></path><path d="M51.585365853658544,83.39999999999999h6.585365853658537v16.60000000000001h-6.585365853658537Z" style="fill: #D2D4CE;"></path><path d="M58.902439024390254,81h6.585365853658537v19h-6.585365853658537Z" style="fill: #D2D4CE;"></path><path d="M66.21951219512196,75.5h6.585365853658537v24.5h-6.585365853658537Z" style="fill: #D2D4CE;"></path><path d="M73.53658536585367,74.1h6.585365853658537v25.900000000000006h-6.585365853658537Z" style="fill: #D2D4CE;"></path><path d="M80.85365853658537,72.89999999999999h6.585365853658537v27.10000000000001h-6.585365853658537Z" style="fill: #D2D4CE;"></path><path d="M88.17073170731709,70.39999999999999h6.585365853658537v29.60000000000001h-6.585365853658537Z" style="fill: #D2D4CE;"></path><path d="M95.48780487804879,67h6.585365853658537v33h-6.585365853658537Z" style="fill: #D2D4CE;"></path><path d="M102.8048780487805,66.5h6.585365853658537v33.5h-6.585365853658537Z" style="fill: #D2D4CE;"></path><path d="M110.12195121951221,65.99999999999999h6.585365853658537v34.000000000000014h-6.585365853658537Z" style="fill: #D2D4CE;"></path><path d="M117.43902439024392,65.8h6.585365853658537v34.2h-6.585365853658537Z" style="fill: #D2D4CE;"></path><path d="M124.75609756097562,64.5h6.585365853658537v35.5h-6.585365853658537Z" style="fill: #D2D4CE;"></path><path d="M132.07317073170734,61.5h6.585365853658537v38.5h-6.585365853658537Z" style="fill: #D2D4CE;"></path><path d="M139.39024390243904,61.3h6.585365853658537v38.7h-6.585365853658537Z" style="fill: #D2D4CE;"></path><path d="M146.70731707317074,55.099999999999994h6.585365853658537v44.900000000000006h-6.585365853658537Z" style="fill: #D2D4CE;"></path><path d="M154.02439024390245,53.2h6.585365853658537v46.8h-6.585365853658537Z" style="fill: #D2D4CE;"></path><path d="M161.34146341463415,52.29999999999999h6.585365853658537v47.70000000000001h-6.585365853658537Z" style="fill: #D2D4CE;"></path><path d="M168.65853658536588,51.1h6.585365853658537v48.9h-6.585365853658537Z" style="fill: #D2D4CE;"></path><path d="M175.97560975609758,50.6h6.585365853658537v49.4h-6.585365853658537Z" style="fill: #D2D4CE;"></path><path d="M183.2926829268293,47.8h6.585365853658537v52.2h-6.585365853658537Z" style="fill: #D2D4CE;"></path><path d="M190.609756097561,47.199999999999996h6.585365853658537v52.800000000000004h-6.585365853658537Z" style="fill: #D2D4CE;"></path><path d="M197.9268292682927,40.400000000000006h6.585365853658537v59.599999999999994h-6.585365853658537Z" style="fill: #D2D4CE;"></path><path d="M205.2439024390244,38.4h6.585365853658537v61.6h-6.585365853658537Z" style="fill: #D2D4CE;"></path><path d="M212.56097560975613,38h6.585365853658537v62h-6.585365853658537Z" style="fill: #D2D4CE;"></path><path d="M219.87804878048783,35.699999999999996h6.585365853658537v64.30000000000001h-6.585365853658537Z" style="fill: #D2D4CE;"></path><path d="M227.19512195121953,34.900000000000006h6.585365853658537v65.1h-6.585365853658537Z" style="fill: #00923E;"></path><path d="M234.51219512195124,29.500000000000004h6.585365853658537v70.5h-6.585365853658537Z" style="fill: #D2D4CE;"></path><path d="M241.82926829268294,23.2h6.585365853658537v76.8h-6.585365853658537Z" style="fill: #D2D4CE;"></path><path d="M249.14634146341464,19.499999999999996h6.585365853658537v80.5h-6.585365853658537Z" style="fill: #D2D4CE;"></path><path d="M256.4634146341464,17.799999999999994h6.585365853658537v82.2h-6.585365853658537Z" style="fill: #D2D4CE;"></path><path d="M263.7804878048781,9.200000000000008h6.585365853658537v90.8h-6.585365853658537Z" style="fill: #D2D4CE;"></path><path d="M271.0975609756098,5.500000000000005h6.585365853658537v94.5h-6.585365853658537Z" style="fill: #D2D4CE;"></path><path d="M278.4146341463415,5.000000000000004h6.585365853658537v95h-6.585365853658537Z" style="fill: #D2D4CE;"></path><path d="M285.7317073170732,4.900000000000004h6.585365853658537v95.1h-6.585365853658537Z" style="fill: #D2D4CE;"></path><path d="M293.0487804878049,1.9000000000000017h6.585365853658537v98.1h-6.585365853658537Z" style="fill: #D2D4CE;"></path></g></g><path class="foreground" d="" style="display: none; fill: none;"></path></g></g></g></svg>