<svg class="marks" preserveAspectRatio="none" width="310" height="110"  version="1.1" xmlns="http://www.w3.org/2000/svg" xmlns:xlink="http://www.w3.org/1999/xlink"><g transform="translate(5,5)"><g class="mark-group role-frame root"><g transform="translate(0,0)"><path class="background" d="M0,0h300v100h-300Z" style="fill: none; stroke: #ddd; stroke-width: 0;"></path><g><g class="mark-rect role-mark marks"><path d="M0.3658536585365937,95.22857142857143h6.585365853658537v4.771428571428572h-6.585365853658537Z" style="fill: #D2D4CE;"></path><path d="M7.682926829268301,94.88571428571429h6.585365853658537v5.114285714285714h-6.585365853658537Z" style="fill: #D2D4CE;"></path><path d="M15.000000000000009,94.19999999999999h6.585365853658537v5.800000000000011h-6.585365853658537Z" style="fill: #D2D4CE;"></path><path d="M22.317073170731717,93.22857142857143h6.585365853658537v6.771428571428572h-6.585365853658537Z" style="fill: #D2D4CE;"></path><path d="M29.634146341463424,92.97142857142858h6.585365853658537v7.028571428571425h-6.585365853658537Z" style="fill: #D2D4CE;"></path><path d="M36.95121951219513,92.14285714285715h6.585365853658537v7.857142857142847h-6.585365853658537Z" style="fill: #D2D4CE;"></path><path d="M44.26829268292684,91.71428571428571h6.585365853658537v8.285714285714292h-6.585365853658537Z" style="fill: #D2D4CE;"></path><path d="M51.585365853658544,90.82857142857142h6.585365853658537v9.171428571428578h-6.585365853658537Z" style="fill: #D2D4CE;"></path><path d="M58.902439024390254,88.42857142857143h6.585365853658537v11.57142857142857h-6.585365853658537Z" style="fill: #D2D4CE;"></path><path d="M66.21951219512196,88.4h6.585365853658537v11.599999999999994h-6.585365853658537Z" style="fill: #D2D4CE;"></path><path d="M73.53658536585367,88.22857142857143h6.585365853658537v11.771428571428572h-6.585365853658537Z" style="fill: #D2D4CE;"></path><path d="M80.85365853658537,87.71428571428571h6.585365853658537v12.285714285714292h-6.585365853658537Z" style="fill: #D2D4CE;"></path><path d="M88.17073170731709,85.77142857142857h6.585365853658537v14.228571428571428h-6.585365853658537Z" style="fill: #D2D4CE;"></path><path d="M95.48780487804879,85.6h6.585365853658537v14.400000000000006h-6.585365853658537Z" style="fill: #D2D4CE;"></path><path d="M102.8048780487805,85.42857142857143h6.585365853658537v14.57142857142857h-6.585365853658537Z" style="fill: #D2D4CE;"></path><path d="M110.12195121951221,83.74285714285715h6.585365853658537v16.257142857142853h-6.585365853658537Z" style="fill: #D2D4CE;"></path><path d="M117.43902439024392,83.51428571428572h6.585365853658537v16.48571428571428h-6.585365853658537Z" style="fill: #D2D4CE;"></path><path d="M124.75609756097562,82.68571428571428h6.585365853658537v17.314285714285717h-6.585365853658537Z" style="fill: #D2D4CE;"></path><path d="M132.07317073170734,81.65714285714284h6.585365853658537v18.342857142857156h-6.585365853658537Z" style="fill: #D2D4CE;"></path><path d="M139.39024390243904,81.2h6.585365853658537v18.799999999999997h-6.585365853658537Z" style="fill: #D2D4CE;"></path><path d="M146.70731707317074,80.31428571428572h6.585365853658537v19.685714285714283h-6.585365853658537Z" style="fill: #D2D4CE;"></path><path d="M154.02439024390245,77.94285714285714h6.585365853658537v22.057142857142864h-6.585365853658537Z" style="fill: #D2D4CE;"></path><path d="M161.34146341463415,77.62857142857142h6.585365853658537v22.37142857142858h-6.585365853658537Z" style="fill: #D2D4CE;"></path><path d="M168.65853658536588,76.82857142857142h6.585365853658537v23.171428571428578h-6.585365853658537Z" style="fill: #D2D4CE;"></path><path d="M175.97560975609758,74.85714285714286h6.585365853658537v25.14285714285714h-6.585365853658537Z" style="fill: #D2D4CE;"></path><path d="M183.2926829268293,74.17142857142858h6.585365853658537v25.828571428571422h-6.585365853658537Z" style="fill: #D2D4CE;"></path><path d="M190.609756097561,74.14285714285714h6.585365853658537v25.85714285714286h-6.585365853658537Z" style="fill: #D2D4CE;"></path><path d="M197.9268292682927,65.74285714285715h6.585365853658537v34.25714285714285h-6.585365853658537Z" style="fill: #D2D4CE;"></path><path d="M205.2439024390244,65.42857142857143h6.585365853658537v34.57142857142857h-6.585365853658537Z" style="fill: #D2D4CE;"></path><path d="M212.56097560975613,64.65714285714286h6.585365853658537v35.34285714285714h-6.585365853658537Z" style="fill: #D2D4CE;"></path><path d="M219.87804878048783,60.91428571428571h6.585365853658537v39.08571428571429h-6.585365853658537Z" style="fill: #D2D4CE;"></path><path d="M227.19512195121953,58.371428571428574h6.585365853658537v41.628571428571426h-6.585365853658537Z" style="fill: #D2D4CE;"></path><path d="M234.51219512195124,47.971428571428575h6.585365853658537v52.028571428571425h-6.585365853658537Z" style="fill: #D2D4CE;"></path><path d="M241.82926829268294,41.28571428571428h6.585365853658537v58.71428571428572h-6.585365853658537Z" style="fill: #D2D4CE;"></path><path d="M249.14634146341464,40.91428571428571h6.585365853658537v59.08571428571429h-6.585365853658537Z" style="fill: #D2D4CE;"></path><path d="M256.4634146341464,40.228571428571435h6.585365853658537v59.771428571428565h-6.585365853658537Z" style="fill: #00923E;"></path><path d="M263.7804878048781,30.25714285714286h6.585365853658537v69.74285714285713h-6.585365853658537Z" style="fill: #D2D4CE;"></path><path d="M271.0975609756098,23.028571428571432h6.585365853658537v76.97142857142856h-6.585365853658537Z" style="fill: #D2D4CE;"></path><path d="M278.4146341463415,21.34285714285714h6.585365853658537v78.65714285714286h-6.585365853658537Z" style="fill: #D2D4CE;"></path><path d="M285.7317073170732,11.685714285714276h6.585365853658537v88.31428571428572h-6.585365853658537Z" style="fill: #D2D4CE;"></path><path d="M293.0487804878049,9.31428571428572h6.585365853658537v90.68571428571428h-6.585365853658537Z" style="fill: #D2D4CE;"></path></g></g><path class="foreground" d="" style="display: none; fill: none;"></path></g></g></g></svg>