<svg class="marks" preserveAspectRatio="none" width="310" height="110"  version="1.1" xmlns="http://www.w3.org/2000/svg" xmlns:xlink="http://www.w3.org/1999/xlink"><g transform="translate(5,5)"><g class="mark-group role-frame root"><g transform="translate(0,0)"><path class="background" d="M0,0h300v100h-300Z" style="fill: none; stroke: #ddd; stroke-width: 0;"></path><g><g class="mark-rect role-mark marks"><path d="M0.3658536585365937,96.26666666666667h6.585365853658537v3.7333333333333343h-6.585365853658537Z" style="fill: #D2D4CE;"></path><path d="M7.682926829268301,94.23333333333333h6.585365853658537v5.766666666666666h-6.585365853658537Z" style="fill: #D2D4CE;"></path><path d="M15.000000000000009,93.73333333333333h6.585365853658537v6.266666666666666h-6.585365853658537Z" style="fill: #D2D4CE;"></path><path d="M22.317073170731717,93.51666666666667h6.585365853658537v6.483333333333334h-6.585365853658537Z" style="fill: #D2D4CE;"></path><path d="M29.634146341463424,92.58333333333333h6.585365853658537v7.416666666666671h-6.585365853658537Z" style="fill: #D2D4CE;"></path><path d="M36.95121951219513,92.56666666666666h6.585365853658537v7.433333333333337h-6.585365853658537Z" style="fill: #D2D4CE;"></path><path d="M44.26829268292684,91.18333333333332h6.585365853658537v8.816666666666677h-6.585365853658537Z" style="fill: #D2D4CE;"></path><path d="M51.585365853658544,87.91666666666667h6.585365853658537v12.083333333333329h-6.585365853658537Z" style="fill: #D2D4CE;"></path><path d="M58.902439024390254,86.94999999999999h6.585365853658537v13.050000000000011h-6.585365853658537Z" style="fill: #D2D4CE;"></path><path d="M66.21951219512196,86.15h6.585365853658537v13.849999999999994h-6.585365853658537Z" style="fill: #D2D4CE;"></path><path d="M73.53658536585367,85.25h6.585365853658537v14.75h-6.585365853658537Z" style="fill: #D2D4CE;"></path><path d="M80.85365853658537,83.91666666666666h6.585365853658537v16.083333333333343h-6.585365853658537Z" style="fill: #D2D4CE;"></path><path d="M88.17073170731709,83.13333333333334h6.585365853658537v16.86666666666666h-6.585365853658537Z" style="fill: #D2D4CE;"></path><path d="M95.48780487804879,82.91666666666666h6.585365853658537v17.083333333333343h-6.585365853658537Z" style="fill: #D2D4CE;"></path><path d="M102.8048780487805,79.96666666666667h6.585365853658537v20.03333333333333h-6.585365853658537Z" style="fill: #D2D4CE;"></path><path d="M110.12195121951221,79.65h6.585365853658537v20.349999999999994h-6.585365853658537Z" style="fill: #D2D4CE;"></path><path d="M117.43902439024392,79.53333333333333h6.585365853658537v20.46666666666667h-6.585365853658537Z" style="fill: #D2D4CE;"></path><path d="M124.75609756097562,77.55000000000001h6.585365853658537v22.44999999999999h-6.585365853658537Z" style="fill: #D2D4CE;"></path><path d="M132.07317073170734,76.6h6.585365853658537v23.400000000000006h-6.585365853658537Z" style="fill: #D2D4CE;"></path><path d="M139.39024390243904,76.6h6.585365853658537v23.400000000000006h-6.585365853658537Z" style="fill: #D2D4CE;"></path><path d="M146.70731707317074,75.55000000000001h6.585365853658537v24.44999999999999h-6.585365853658537Z" style="fill: #D2D4CE;"></path><path d="M154.02439024390245,73.33333333333334h6.585365853658537v26.666666666666657h-6.585365853658537Z" style="fill: #00923E;"></path><path d="M161.34146341463415,72.21666666666667h6.585365853658537v27.78333333333333h-6.585365853658537Z" style="fill: #D2D4CE;"></path><path d="M168.65853658536588,71.88333333333334h6.585365853658537v28.11666666666666h-6.585365853658537Z" style="fill: #D2D4CE;"></path><path d="M175.97560975609758,70.88333333333334h6.585365853658537v29.11666666666666h-6.585365853658537Z" style="fill: #D2D4CE;"></path><path d="M183.2926829268293,70.44999999999999h6.585365853658537v29.55000000000001h-6.585365853658537Z" style="fill: #D2D4CE;"></path><path d="M190.609756097561,68.93333333333334h6.585365853658537v31.066666666666663h-6.585365853658537Z" style="fill: #D2D4CE;"></path><path d="M197.9268292682927,62.783333333333324h6.585365853658537v37.216666666666676h-6.585365853658537Z" style="fill: #D2D4CE;"></path><path d="M205.2439024390244,56.41666666666667h6.585365853658537v43.58333333333333h-6.585365853658537Z" style="fill: #D2D4CE;"></path><path d="M212.56097560975613,55.85h6.585365853658537v44.15h-6.585365853658537Z" style="fill: #D2D4CE;"></path><path d="M219.87804878048783,52.26666666666667h6.585365853658537v47.73333333333333h-6.585365853658537Z" style="fill: #D2D4CE;"></path><path d="M227.19512195121953,52.1h6.585365853658537v47.9h-6.585365853658537Z" style="fill: #D2D4CE;"></path><path d="M234.51219512195124,45.46666666666667h6.585365853658537v54.53333333333333h-6.585365853658537Z" style="fill: #D2D4CE;"></path><path d="M241.82926829268294,40.56666666666666h6.585365853658537v59.43333333333334h-6.585365853658537Z" style="fill: #D2D4CE;"></path><path d="M249.14634146341464,37.76666666666667h6.585365853658537v62.23333333333333h-6.585365853658537Z" style="fill: #D2D4CE;"></path><path d="M256.4634146341464,30.399999999999995h6.585365853658537v69.60000000000001h-6.585365853658537Z" style="fill: #D2D4CE;"></path><path d="M263.7804878048781,28.89999999999999h6.585365853658537v71.10000000000001h-6.585365853658537Z" style="fill: #D2D4CE;"></path><path d="M271.0975609756098,18.633333333333336h6.585365853658537v81.36666666666666h-6.585365853658537Z" style="fill: #D2D4CE;"></path><path d="M278.4146341463415,16.89999999999999h6.585365853658537v83.10000000000001h-6.585365853658537Z" style="fill: #D2D4CE;"></path><path d="M285.7317073170732,5.7666666666666755h6.585365853658537v94.23333333333332h-6.585365853658537Z" style="fill: #D2D4CE;"></path><path d="M293.0487804878049,3.399999999999992h6.585365853658537v96.60000000000001h-6.585365853658537Z" style="fill: #D2D4CE;"></path></g></g><path class="foreground" d="" style="display: none; fill: none;"></path></g></g></g></svg>