<svg class="marks" preserveAspectRatio="none" width="310" height="110"  version="1.1" xmlns="http://www.w3.org/2000/svg" xmlns:xlink="http://www.w3.org/1999/xlink"><g transform="translate(5,5)"><g class="mark-group role-frame root"><g transform="translate(0,0)"><path class="background" d="M0,0h300v100h-300Z" style="fill: none; stroke: #ddd; stroke-width: 0;"></path><g><g class="mark-rect role-mark marks"><path d="M0.3658536585365937,97.63636363636363h6.585365853658537v2.363636363636374h-6.585365853658537Z" style="fill: #D2D4CE;"></path><path d="M7.682926829268301,96.72727272727273h6.585365853658537v3.2727272727272663h-6.585365853658537Z" style="fill: #D2D4CE;"></path><path d="M15.000000000000009,96.54545454545455h6.585365853658537v3.4545454545454533h-6.585365853658537Z" style="fill: #D2D4CE;"></path><path d="M22.317073170731717,93.63636363636364h6.585365853658537v6.36363636363636h-6.585365853658537Z" style="fill: #D2D4CE;"></path><path d="M29.634146341463424,93.0909090909091h6.585365853658537v6.9090909090909065h-6.585365853658537Z" style="fill: #D2D4CE;"></path><path d="M36.95121951219513,92.54545454545455h6.585365853658537v7.454545454545453h-6.585365853658537Z" style="fill: #D2D4CE;"></path><path d="M44.26829268292684,92.36363636363636h6.585365853658537v7.63636363636364h-6.585365853658537Z" style="fill: #D2D4CE;"></path><path d="M51.585365853658544,91.81818181818183h6.585365853658537v8.181818181818173h-6.585365853658537Z" style="fill: #D2D4CE;"></path><path d="M58.902439024390254,91.63636363636364h6.585365853658537v8.36363636363636h-6.585365853658537Z" style="fill: #D2D4CE;"></path><path d="M66.21951219512196,91.63636363636364h6.585365853658537v8.36363636363636h-6.585365853658537Z" style="fill: #D2D4CE;"></path><path d="M73.53658536585367,89.81818181818181h6.585365853658537v10.181818181818187h-6.585365853658537Z" style="fill: #D2D4CE;"></path><path d="M80.85365853658537,89.81818181818181h6.585365853658537v10.181818181818187h-6.585365853658537Z" style="fill: #D2D4CE;"></path><path d="M88.17073170731709,88.90909090909092h6.585365853658537v11.09090909090908h-6.585365853658537Z" style="fill: #D2D4CE;"></path><path d="M95.48780487804879,88.90909090909092h6.585365853658537v11.09090909090908h-6.585365853658537Z" style="fill: #D2D4CE;"></path><path d="M102.8048780487805,88.18181818181819h6.585365853658537v11.818181818181813h-6.585365853658537Z" style="fill: #D2D4CE;"></path><path d="M110.12195121951221,87.27272727272728h6.585365853658537v12.72727272727272h-6.585365853658537Z" style="fill: #D2D4CE;"></path><path d="M117.43902439024392,87.27272727272728h6.585365853658537v12.72727272727272h-6.585365853658537Z" style="fill: #D2D4CE;"></path><path d="M124.75609756097562,86.54545454545455h6.585365853658537v13.454545454545453h-6.585365853658537Z" style="fill: #00923E;"></path><path d="M132.07317073170734,86.54545454545455h6.585365853658537v13.454545454545453h-6.585365853658537Z" style="fill: #D2D4CE;"></path><path d="M139.39024390243904,86.36363636363636h6.585365853658537v13.63636363636364h-6.585365853658537Z" style="fill: #D2D4CE;"></path><path d="M146.70731707317074,86.18181818181819h6.585365853658537v13.818181818181813h-6.585365853658537Z" style="fill: #D2D4CE;"></path><path d="M154.02439024390245,85.27272727272728h6.585365853658537v14.72727272727272h-6.585365853658537Z" style="fill: #D2D4CE;"></path><path d="M161.34146341463415,85.0909090909091h6.585365853658537v14.909090909090907h-6.585365853658537Z" style="fill: #D2D4CE;"></path><path d="M168.65853658536588,84.18181818181819h6.585365853658537v15.818181818181813h-6.585365853658537Z" style="fill: #D2D4CE;"></path><path d="M175.97560975609758,82.18181818181817h6.585365853658537v17.818181818181827h-6.585365853658537Z" style="fill: #D2D4CE;"></path><path d="M183.2926829268293,81.45454545454545h6.585365853658537v18.545454545454547h-6.585365853658537Z" style="fill: #D2D4CE;"></path><path d="M190.609756097561,80.36363636363636h6.585365853658537v19.63636363636364h-6.585365853658537Z" style="fill: #D2D4CE;"></path><path d="M197.9268292682927,79.0909090909091h6.585365853658537v20.909090909090907h-6.585365853658537Z" style="fill: #D2D4CE;"></path><path d="M205.2439024390244,78h6.585365853658537v22h-6.585365853658537Z" style="fill: #D2D4CE;"></path><path d="M212.56097560975613,74.54545454545455h6.585365853658537v25.454545454545453h-6.585365853658537Z" style="fill: #D2D4CE;"></path><path d="M219.87804878048783,74h6.585365853658537v26h-6.585365853658537Z" style="fill: #D2D4CE;"></path><path d="M227.19512195121953,73.0909090909091h6.585365853658537v26.909090909090907h-6.585365853658537Z" style="fill: #D2D4CE;"></path><path d="M234.51219512195124,67.27272727272727h6.585365853658537v32.727272727272734h-6.585365853658537Z" style="fill: #D2D4CE;"></path><path d="M241.82926829268294,63.090909090909086h6.585365853658537v36.909090909090914h-6.585365853658537Z" style="fill: #D2D4CE;"></path><path d="M249.14634146341464,59.63636363636364h6.585365853658537v40.36363636363636h-6.585365853658537Z" style="fill: #D2D4CE;"></path><path d="M256.4634146341464,52h6.585365853658537v48h-6.585365853658537Z" style="fill: #D2D4CE;"></path><path d="M263.7804878048781,52h6.585365853658537v48h-6.585365853658537Z" style="fill: #D2D4CE;"></path><path d="M271.0975609756098,49.45454545454545h6.585365853658537v50.54545454545455h-6.585365853658537Z" style="fill: #D2D4CE;"></path><path d="M278.4146341463415,41.454545454545446h6.585365853658537v58.545454545454554h-6.585365853658537Z" style="fill: #D2D4CE;"></path><path d="M285.7317073170732,27.27272727272727h6.585365853658537v72.72727272727273h-6.585365853658537Z" style="fill: #D2D4CE;"></path><path d="M293.0487804878049,7.636363636363641h6.585365853658537v92.36363636363636h-6.585365853658537Z" style="fill: #D2D4CE;"></path></g></g><path class="foreground" d="" style="display: none; fill: none;"></path></g></g></g></svg>