<svg class="marks" preserveAspectRatio="none" width="310" height="110"  version="1.1" xmlns="http://www.w3.org/2000/svg" xmlns:xlink="http://www.w3.org/1999/xlink"><g transform="translate(5,5)"><g class="mark-group role-frame root"><g transform="translate(0,0)"><path class="background" d="M0,0h300v100h-300Z" style="fill: none; stroke: #ddd; stroke-width: 0;"></path><g><g class="mark-rect role-mark marks"><path d="M0.3658536585365937,100h6.585365853658537v0h-6.585365853658537Z" style="fill: #D2D4CE;"></path><path d="M7.682926829268301,100h6.585365853658537v0h-6.585365853658537Z" style="fill: #D2D4CE;"></path><path d="M15.000000000000009,100h6.585365853658537v0h-6.585365853658537Z" style="fill: #D2D4CE;"></path><path d="M22.317073170731717,100h6.585365853658537v0h-6.585365853658537Z" style="fill: #D2D4CE;"></path><path d="M29.634146341463424,99.81818181818181h6.585365853658537v0.18181818181818699h-6.585365853658537Z" style="fill: #D2D4CE;"></path><path d="M36.95121951219513,99.63636363636364h6.585365853658537v0.36363636363635976h-6.585365853658537Z" style="fill: #D2D4CE;"></path><path d="M44.26829268292684,99.45454545454545h6.585365853658537v0.5454545454545467h-6.585365853658537Z" style="fill: #D2D4CE;"></path><path d="M51.585365853658544,99.45454545454545h6.585365853658537v0.5454545454545467h-6.585365853658537Z" style="fill: #D2D4CE;"></path><path d="M58.902439024390254,99.45454545454545h6.585365853658537v0.5454545454545467h-6.585365853658537Z" style="fill: #D2D4CE;"></path><path d="M66.21951219512196,99.27272727272727h6.585365853658537v0.7272727272727337h-6.585365853658537Z" style="fill: #D2D4CE;"></path><path d="M73.53658536585367,99.0909090909091h6.585365853658537v0.9090909090909065h-6.585365853658537Z" style="fill: #D2D4CE;"></path><path d="M80.85365853658537,99.0909090909091h6.585365853658537v0.9090909090909065h-6.585365853658537Z" style="fill: #D2D4CE;"></path><path d="M88.17073170731709,98.72727272727273h6.585365853658537v1.2727272727272663h-6.585365853658537Z" style="fill: #D2D4CE;"></path><path d="M95.48780487804879,98.36363636363636h6.585365853658537v1.6363636363636402h-6.585365853658537Z" style="fill: #D2D4CE;"></path><path d="M102.8048780487805,98.18181818181819h6.585365853658537v1.818181818181813h-6.585365853658537Z" style="fill: #00923E;"></path><path d="M110.12195121951221,98h6.585365853658537v2h-6.585365853658537Z" style="fill: #D2D4CE;"></path><path d="M117.43902439024392,98h6.585365853658537v2h-6.585365853658537Z" style="fill: #D2D4CE;"></path><path d="M124.75609756097562,97.81818181818181h6.585365853658537v2.181818181818187h-6.585365853658537Z" style="fill: #D2D4CE;"></path><path d="M132.07317073170734,97.81818181818181h6.585365853658537v2.181818181818187h-6.585365853658537Z" style="fill: #D2D4CE;"></path><path d="M139.39024390243904,97.63636363636363h6.585365853658537v2.363636363636374h-6.585365853658537Z" style="fill: #D2D4CE;"></path><path d="M146.70731707317074,97.0909090909091h6.585365853658537v2.9090909090909065h-6.585365853658537Z" style="fill: #D2D4CE;"></path><path d="M154.02439024390245,96.9090909090909h6.585365853658537v3.0909090909090935h-6.585365853658537Z" style="fill: #D2D4CE;"></path><path d="M161.34146341463415,96.9090909090909h6.585365853658537v3.0909090909090935h-6.585365853658537Z" style="fill: #D2D4CE;"></path><path d="M168.65853658536588,94.9090909090909h6.585365853658537v5.0909090909090935h-6.585365853658537Z" style="fill: #D2D4CE;"></path><path d="M175.97560975609758,94.54545454545455h6.585365853658537v5.454545454545453h-6.585365853658537Z" style="fill: #D2D4CE;"></path><path d="M183.2926829268293,94.36363636363636h6.585365853658537v5.63636363636364h-6.585365853658537Z" style="fill: #D2D4CE;"></path><path d="M190.609756097561,91.27272727272727h6.585365853658537v8.727272727272734h-6.585365853658537Z" style="fill: #D2D4CE;"></path><path d="M197.9268292682927,90.9090909090909h6.585365853658537v9.090909090909093h-6.585365853658537Z" style="fill: #D2D4CE;"></path><path d="M205.2439024390244,84.9090909090909h6.585365853658537v15.090909090909093h-6.585365853658537Z" style="fill: #D2D4CE;"></path><path d="M212.56097560975613,84h6.585365853658537v16h-6.585365853658537Z" style="fill: #D2D4CE;"></path><path d="M219.87804878048783,83.45454545454545h6.585365853658537v16.545454545454547h-6.585365853658537Z" style="fill: #D2D4CE;"></path><path d="M227.19512195121953,80.54545454545455h6.585365853658537v19.454545454545453h-6.585365853658537Z" style="fill: #D2D4CE;"></path><path d="M234.51219512195124,76.54545454545453h6.585365853658537v23.454545454545467h-6.585365853658537Z" style="fill: #D2D4CE;"></path><path d="M241.82926829268294,74.36363636363636h6.585365853658537v25.63636363636364h-6.585365853658537Z" style="fill: #D2D4CE;"></path><path d="M249.14634146341464,69.81818181818183h6.585365853658537v30.181818181818173h-6.585365853658537Z" style="fill: #D2D4CE;"></path><path d="M256.4634146341464,67.63636363636363h6.585365853658537v32.363636363636374h-6.585365853658537Z" style="fill: #D2D4CE;"></path><path d="M263.7804878048781,41.81818181818182h6.585365853658537v58.18181818181818h-6.585365853658537Z" style="fill: #D2D4CE;"></path><path d="M271.0975609756098,33.81818181818183h6.585365853658537v66.18181818181817h-6.585365853658537Z" style="fill: #D2D4CE;"></path><path d="M278.4146341463415,28.363636363636367h6.585365853658537v71.63636363636363h-6.585365853658537Z" style="fill: #D2D4CE;"></path><path d="M285.7317073170732,24.545454545454547h6.585365853658537v75.45454545454545h-6.585365853658537Z" style="fill: #D2D4CE;"></path><path d="M293.0487804878049,7.454545454545459h6.585365853658537v92.54545454545455h-6.585365853658537Z" style="fill: #D2D4CE;"></path></g></g><path class="foreground" d="" style="display: none; fill: none;"></path></g></g></g></svg>