<svg class="marks" preserveAspectRatio="none" width="310" height="110"  version="1.1" xmlns="http://www.w3.org/2000/svg" xmlns:xlink="http://www.w3.org/1999/xlink"><g transform="translate(5,5)"><g class="mark-group role-frame root"><g transform="translate(0,0)"><path class="background" d="M0,0h300v100h-300Z" style="fill: none; stroke: #ddd; stroke-width: 0;"></path><g><g class="mark-rect role-mark marks"><path d="M0.3658536585365937,99.23076923076923h6.585365853658537v0.7692307692307736h-6.585365853658537Z" style="fill: #D2D4CE;"></path><path d="M7.682926829268301,99.1923076923077h6.585365853658537v0.8076923076923066h-6.585365853658537Z" style="fill: #D2D4CE;"></path><path d="M15.000000000000009,98.92307692307692h6.585365853658537v1.0769230769230802h-6.585365853658537Z" style="fill: #D2D4CE;"></path><path d="M22.317073170731717,98.23076923076923h6.585365853658537v1.7692307692307736h-6.585365853658537Z" style="fill: #D2D4CE;"></path><path d="M29.634146341463424,97.65384615384616h6.585365853658537v2.3461538461538396h-6.585365853658537Z" style="fill: #D2D4CE;"></path><path d="M36.95121951219513,97.46153846153847h6.585365853658537v2.538461538461533h-6.585365853658537Z" style="fill: #D2D4CE;"></path><path d="M44.26829268292684,96.88461538461539h6.585365853658537v3.115384615384613h-6.585365853658537Z" style="fill: #00923E;"></path><path d="M51.585365853658544,96.23076923076923h6.585365853658537v3.7692307692307736h-6.585365853658537Z" style="fill: #D2D4CE;"></path><path d="M58.902439024390254,94.96153846153847h6.585365853658537v5.038461538461533h-6.585365853658537Z" style="fill: #D2D4CE;"></path><path d="M66.21951219512196,94.65384615384616h6.585365853658537v5.34615384615384h-6.585365853658537Z" style="fill: #D2D4CE;"></path><path d="M73.53658536585367,94.5h6.585365853658537v5.5h-6.585365853658537Z" style="fill: #D2D4CE;"></path><path d="M80.85365853658537,94.5h6.585365853658537v5.5h-6.585365853658537Z" style="fill: #D2D4CE;"></path><path d="M88.17073170731709,94.34615384615384h6.585365853658537v5.65384615384616h-6.585365853658537Z" style="fill: #D2D4CE;"></path><path d="M95.48780487804879,93.46153846153847h6.585365853658537v6.538461538461533h-6.585365853658537Z" style="fill: #D2D4CE;"></path><path d="M102.8048780487805,92.76923076923077h6.585365853658537v7.230769230769226h-6.585365853658537Z" style="fill: #D2D4CE;"></path><path d="M110.12195121951221,91.34615384615384h6.585365853658537v8.65384615384616h-6.585365853658537Z" style="fill: #D2D4CE;"></path><path d="M117.43902439024392,90.96153846153847h6.585365853658537v9.038461538461533h-6.585365853658537Z" style="fill: #D2D4CE;"></path><path d="M124.75609756097562,90.92307692307693h6.585365853658537v9.076923076923066h-6.585365853658537Z" style="fill: #D2D4CE;"></path><path d="M132.07317073170734,90.88461538461539h6.585365853658537v9.115384615384613h-6.585365853658537Z" style="fill: #D2D4CE;"></path><path d="M139.39024390243904,89.3076923076923h6.585365853658537v10.692307692307693h-6.585365853658537Z" style="fill: #D2D4CE;"></path><path d="M146.70731707317074,88.73076923076924h6.585365853658537v11.26923076923076h-6.585365853658537Z" style="fill: #D2D4CE;"></path><path d="M154.02439024390245,87.73076923076924h6.585365853658537v12.26923076923076h-6.585365853658537Z" style="fill: #D2D4CE;"></path><path d="M161.34146341463415,87.5h6.585365853658537v12.5h-6.585365853658537Z" style="fill: #D2D4CE;"></path><path d="M168.65853658536588,87.23076923076923h6.585365853658537v12.769230769230774h-6.585365853658537Z" style="fill: #D2D4CE;"></path><path d="M175.97560975609758,87.1923076923077h6.585365853658537v12.807692307692307h-6.585365853658537Z" style="fill: #D2D4CE;"></path><path d="M183.2926829268293,86.76923076923077h6.585365853658537v13.230769230769226h-6.585365853658537Z" style="fill: #D2D4CE;"></path><path d="M190.609756097561,86.34615384615385h6.585365853658537v13.653846153846146h-6.585365853658537Z" style="fill: #D2D4CE;"></path><path d="M197.9268292682927,86.23076923076923h6.585365853658537v13.769230769230774h-6.585365853658537Z" style="fill: #D2D4CE;"></path><path d="M205.2439024390244,80.73076923076923h6.585365853658537v19.269230769230774h-6.585365853658537Z" style="fill: #D2D4CE;"></path><path d="M212.56097560975613,78.46153846153847h6.585365853658537v21.538461538461533h-6.585365853658537Z" style="fill: #D2D4CE;"></path><path d="M219.87804878048783,75h6.585365853658537v25h-6.585365853658537Z" style="fill: #D2D4CE;"></path><path d="M227.19512195121953,72.23076923076923h6.585365853658537v27.769230769230774h-6.585365853658537Z" style="fill: #D2D4CE;"></path><path d="M234.51219512195124,70.07692307692308h6.585365853658537v29.92307692307692h-6.585365853658537Z" style="fill: #D2D4CE;"></path><path d="M241.82926829268294,61.30769230769231h6.585365853658537v38.69230769230769h-6.585365853658537Z" style="fill: #D2D4CE;"></path><path d="M249.14634146341464,55.807692307692314h6.585365853658537v44.192307692307686h-6.585365853658537Z" style="fill: #D2D4CE;"></path><path d="M256.4634146341464,54.807692307692314h6.585365853658537v45.192307692307686h-6.585365853658537Z" style="fill: #D2D4CE;"></path><path d="M263.7804878048781,53.34615384615384h6.585365853658537v46.65384615384616h-6.585365853658537Z" style="fill: #D2D4CE;"></path><path d="M271.0975609756098,30.192307692307697h6.585365853658537v69.8076923076923h-6.585365853658537Z" style="fill: #D2D4CE;"></path><path d="M278.4146341463415,19.038461538461537h6.585365853658537v80.96153846153847h-6.585365853658537Z" style="fill: #D2D4CE;"></path><path d="M285.7317073170732,13.115384615384617h6.585365853658537v86.88461538461539h-6.585365853658537Z" style="fill: #D2D4CE;"></path><path d="M293.0487804878049,1.4615384615384697h6.585365853658537v98.53846153846153h-6.585365853658537Z" style="fill: #D2D4CE;"></path></g></g><path class="foreground" d="" style="display: none; fill: none;"></path></g></g></g></svg>