<svg class="marks" preserveAspectRatio="none" width="310" height="110"  version="1.1" xmlns="http://www.w3.org/2000/svg" xmlns:xlink="http://www.w3.org/1999/xlink"><g transform="translate(5,5)"><g class="mark-group role-frame root"><g transform="translate(0,0)"><path class="background" d="M0,0h300v100h-300Z" style="fill: none; stroke: #ddd; stroke-width: 0;"></path><g><g class="mark-rect role-mark marks"><path d="M0.3658536585365937,96.88888888888889h6.585365853658537v3.1111111111111143h-6.585365853658537Z" style="fill: #D2D4CE;"></path><path d="M7.682926829268301,92.22222222222223h6.585365853658537v7.7777777777777715h-6.585365853658537Z" style="fill: #D2D4CE;"></path><path d="M15.000000000000009,90h6.585365853658537v10h-6.585365853658537Z" style="fill: #00923E;"></path><path d="M22.317073170731717,88.88888888888889h6.585365853658537v11.111111111111114h-6.585365853658537Z" style="fill: #D2D4CE;"></path><path d="M29.634146341463424,88.22222222222223h6.585365853658537v11.777777777777771h-6.585365853658537Z" style="fill: #D2D4CE;"></path><path d="M36.95121951219513,86.44444444444444h6.585365853658537v13.555555555555557h-6.585365853658537Z" style="fill: #D2D4CE;"></path><path d="M44.26829268292684,86h6.585365853658537v14h-6.585365853658537Z" style="fill: #D2D4CE;"></path><path d="M51.585365853658544,85.33333333333333h6.585365853658537v14.666666666666671h-6.585365853658537Z" style="fill: #D2D4CE;"></path><path d="M58.902439024390254,84.66666666666667h6.585365853658537v15.333333333333329h-6.585365853658537Z" style="fill: #D2D4CE;"></path><path d="M66.21951219512196,83.77777777777777h6.585365853658537v16.22222222222223h-6.585365853658537Z" style="fill: #D2D4CE;"></path><path d="M73.53658536585367,82.88888888888889h6.585365853658537v17.111111111111114h-6.585365853658537Z" style="fill: #D2D4CE;"></path><path d="M80.85365853658537,81.77777777777779h6.585365853658537v18.222222222222214h-6.585365853658537Z" style="fill: #D2D4CE;"></path><path d="M88.17073170731709,80.66666666666666h6.585365853658537v19.333333333333343h-6.585365853658537Z" style="fill: #D2D4CE;"></path><path d="M95.48780487804879,80.22222222222221h6.585365853658537v19.777777777777786h-6.585365853658537Z" style="fill: #D2D4CE;"></path><path d="M102.8048780487805,80h6.585365853658537v20h-6.585365853658537Z" style="fill: #D2D4CE;"></path><path d="M110.12195121951221,80h6.585365853658537v20h-6.585365853658537Z" style="fill: #D2D4CE;"></path><path d="M117.43902439024392,79.55555555555556h6.585365853658537v20.444444444444443h-6.585365853658537Z" style="fill: #D2D4CE;"></path><path d="M124.75609756097562,79.11111111111111h6.585365853658537v20.888888888888886h-6.585365853658537Z" style="fill: #D2D4CE;"></path><path d="M132.07317073170734,76.88888888888889h6.585365853658537v23.111111111111114h-6.585365853658537Z" style="fill: #D2D4CE;"></path><path d="M139.39024390243904,76h6.585365853658537v24h-6.585365853658537Z" style="fill: #D2D4CE;"></path><path d="M146.70731707317074,75.77777777777777h6.585365853658537v24.22222222222223h-6.585365853658537Z" style="fill: #D2D4CE;"></path><path d="M154.02439024390245,75.55555555555556h6.585365853658537v24.444444444444443h-6.585365853658537Z" style="fill: #D2D4CE;"></path><path d="M161.34146341463415,74.8888888888889h6.585365853658537v25.1111111111111h-6.585365853658537Z" style="fill: #D2D4CE;"></path><path d="M168.65853658536588,74.8888888888889h6.585365853658537v25.1111111111111h-6.585365853658537Z" style="fill: #D2D4CE;"></path><path d="M175.97560975609758,72.44444444444444h6.585365853658537v27.555555555555557h-6.585365853658537Z" style="fill: #D2D4CE;"></path><path d="M183.2926829268293,72h6.585365853658537v28h-6.585365853658537Z" style="fill: #D2D4CE;"></path><path d="M190.609756097561,71.77777777777779h6.585365853658537v28.222222222222214h-6.585365853658537Z" style="fill: #D2D4CE;"></path><path d="M197.9268292682927,70.66666666666667h6.585365853658537v29.33333333333333h-6.585365853658537Z" style="fill: #D2D4CE;"></path><path d="M205.2439024390244,70.66666666666667h6.585365853658537v29.33333333333333h-6.585365853658537Z" style="fill: #D2D4CE;"></path><path d="M212.56097560975613,70.22222222222221h6.585365853658537v29.777777777777786h-6.585365853658537Z" style="fill: #D2D4CE;"></path><path d="M219.87804878048783,67.77777777777779h6.585365853658537v32.222222222222214h-6.585365853658537Z" style="fill: #D2D4CE;"></path><path d="M227.19512195121953,67.55555555555556h6.585365853658537v32.44444444444444h-6.585365853658537Z" style="fill: #D2D4CE;"></path><path d="M234.51219512195124,66.88888888888889h6.585365853658537v33.111111111111114h-6.585365853658537Z" style="fill: #D2D4CE;"></path><path d="M241.82926829268294,65.55555555555556h6.585365853658537v34.44444444444444h-6.585365853658537Z" style="fill: #D2D4CE;"></path><path d="M249.14634146341464,63.11111111111111h6.585365853658537v36.88888888888889h-6.585365853658537Z" style="fill: #D2D4CE;"></path><path d="M256.4634146341464,62.66666666666667h6.585365853658537v37.33333333333333h-6.585365853658537Z" style="fill: #D2D4CE;"></path><path d="M263.7804878048781,58.00000000000001h6.585365853658537v41.99999999999999h-6.585365853658537Z" style="fill: #D2D4CE;"></path><path d="M271.0975609756098,57.77777777777777h6.585365853658537v42.22222222222223h-6.585365853658537Z" style="fill: #D2D4CE;"></path><path d="M278.4146341463415,54.222222222222214h6.585365853658537v45.777777777777786h-6.585365853658537Z" style="fill: #D2D4CE;"></path><path d="M285.7317073170732,27.77777777777778h6.585365853658537v72.22222222222223h-6.585365853658537Z" style="fill: #D2D4CE;"></path><path d="M293.0487804878049,9.55555555555555h6.585365853658537v90.44444444444446h-6.585365853658537Z" style="fill: #D2D4CE;"></path></g></g><path class="foreground" d="" style="display: none; fill: none;"></path></g></g></g></svg>