<svg class="marks" preserveAspectRatio="none" width="310" height="110"  version="1.1" xmlns="http://www.w3.org/2000/svg" xmlns:xlink="http://www.w3.org/1999/xlink"><g transform="translate(5,5)"><g class="mark-group role-frame root"><g transform="translate(0,0)"><path class="background" d="M0,0h300v100h-300Z" style="fill: none; stroke: #ddd; stroke-width: 0;"></path><g><g class="mark-rect role-mark marks"><path d="M0.3658536585365937,44.90909090909091h6.585365853658537v55.09090909090909h-6.585365853658537Z" style="fill: #D2D4CE;"></path><path d="M7.682926829268301,43.81818181818182h6.585365853658537v56.18181818181818h-6.585365853658537Z" style="fill: #D2D4CE;"></path><path d="M15.000000000000009,42.18181818181817h6.585365853658537v57.81818181818183h-6.585365853658537Z" style="fill: #D2D4CE;"></path><path d="M22.317073170731717,41.63636363636364h6.585365853658537v58.36363636363636h-6.585365853658537Z" style="fill: #D2D4CE;"></path><path d="M29.634146341463424,41.090909090909086h6.585365853658537v58.909090909090914h-6.585365853658537Z" style="fill: #D2D4CE;"></path><path d="M36.95121951219513,40.45454545454545h6.585365853658537v59.54545454545455h-6.585365853658537Z" style="fill: #D2D4CE;"></path><path d="M44.26829268292684,40.45454545454545h6.585365853658537v59.54545454545455h-6.585365853658537Z" style="fill: #D2D4CE;"></path><path d="M51.585365853658544,40.36363636363637h6.585365853658537v59.63636363636363h-6.585365853658537Z" style="fill: #D2D4CE;"></path><path d="M58.902439024390254,39.727272727272734h6.585365853658537v60.272727272727266h-6.585365853658537Z" style="fill: #D2D4CE;"></path><path d="M66.21951219512196,39.18181818181817h6.585365853658537v60.81818181818183h-6.585365853658537Z" style="fill: #D2D4CE;"></path><path d="M73.53658536585367,39.090909090909086h6.585365853658537v60.909090909090914h-6.585365853658537Z" style="fill: #D2D4CE;"></path><path d="M80.85365853658537,38.36363636363637h6.585365853658537v61.63636363636363h-6.585365853658537Z" style="fill: #D2D4CE;"></path><path d="M88.17073170731709,37.272727272727266h6.585365853658537v62.727272727272734h-6.585365853658537Z" style="fill: #D2D4CE;"></path><path d="M95.48780487804879,36.81818181818181h6.585365853658537v63.18181818181819h-6.585365853658537Z" style="fill: #D2D4CE;"></path><path d="M102.8048780487805,36.45454545454545h6.585365853658537v63.54545454545455h-6.585365853658537Z" style="fill: #D2D4CE;"></path><path d="M110.12195121951221,36.45454545454545h6.585365853658537v63.54545454545455h-6.585365853658537Z" style="fill: #D2D4CE;"></path><path d="M117.43902439024392,36.45454545454545h6.585365853658537v63.54545454545455h-6.585365853658537Z" style="fill: #D2D4CE;"></path><path d="M124.75609756097562,36.36363636363637h6.585365853658537v63.63636363636363h-6.585365853658537Z" style="fill: #D2D4CE;"></path><path d="M132.07317073170734,36h6.585365853658537v64h-6.585365853658537Z" style="fill: #D2D4CE;"></path><path d="M139.39024390243904,35.81818181818183h6.585365853658537v64.18181818181817h-6.585365853658537Z" style="fill: #00923E;"></path><path d="M146.70731707317074,34.63636363636363h6.585365853658537v65.36363636363637h-6.585365853658537Z" style="fill: #D2D4CE;"></path><path d="M154.02439024390245,33.909090909090914h6.585365853658537v66.0909090909091h-6.585365853658537Z" style="fill: #D2D4CE;"></path><path d="M161.34146341463415,33.454545454545446h6.585365853658537v66.54545454545456h-6.585365853658537Z" style="fill: #D2D4CE;"></path><path d="M168.65853658536588,32.81818181818183h6.585365853658537v67.18181818181817h-6.585365853658537Z" style="fill: #D2D4CE;"></path><path d="M175.97560975609758,31.545454545454543h6.585365853658537v68.45454545454545h-6.585365853658537Z" style="fill: #D2D4CE;"></path><path d="M183.2926829268293,31.545454545454543h6.585365853658537v68.45454545454545h-6.585365853658537Z" style="fill: #D2D4CE;"></path><path d="M190.609756097561,31.181818181818176h6.585365853658537v68.81818181818183h-6.585365853658537Z" style="fill: #D2D4CE;"></path><path d="M197.9268292682927,30.181818181818187h6.585365853658537v69.81818181818181h-6.585365853658537Z" style="fill: #D2D4CE;"></path><path d="M205.2439024390244,29.81818181818182h6.585365853658537v70.18181818181819h-6.585365853658537Z" style="fill: #D2D4CE;"></path><path d="M212.56097560975613,28.636363636363637h6.585365853658537v71.36363636363636h-6.585365853658537Z" style="fill: #D2D4CE;"></path><path d="M219.87804878048783,28.636363636363637h6.585365853658537v71.36363636363636h-6.585365853658537Z" style="fill: #D2D4CE;"></path><path d="M227.19512195121953,26.27272727272728h6.585365853658537v73.72727272727272h-6.585365853658537Z" style="fill: #D2D4CE;"></path><path d="M234.51219512195124,25.99999999999999h6.585365853658537v74.00000000000001h-6.585365853658537Z" style="fill: #D2D4CE;"></path><path d="M241.82926829268294,25.818181818181817h6.585365853658537v74.18181818181819h-6.585365853658537Z" style="fill: #D2D4CE;"></path><path d="M249.14634146341464,25.818181818181817h6.585365853658537v74.18181818181819h-6.585365853658537Z" style="fill: #D2D4CE;"></path><path d="M256.4634146341464,21.090909090909093h6.585365853658537v78.9090909090909h-6.585365853658537Z" style="fill: #D2D4CE;"></path><path d="M263.7804878048781,20.727272727272716h6.585365853658537v79.27272727272728h-6.585365853658537Z" style="fill: #D2D4CE;"></path><path d="M271.0975609756098,20.090909090909104h6.585365853658537v79.90909090909089h-6.585365853658537Z" style="fill: #D2D4CE;"></path><path d="M278.4146341463415,18.727272727272737h6.585365853658537v81.27272727272727h-6.585365853658537Z" style="fill: #D2D4CE;"></path><path d="M285.7317073170732,9.363636363636363h6.585365853658537v90.63636363636364h-6.585365853658537Z" style="fill: #D2D4CE;"></path><path d="M293.0487804878049,6.36363636363636h6.585365853658537v93.63636363636364h-6.585365853658537Z" style="fill: #D2D4CE;"></path></g></g><path class="foreground" d="" style="display: none; fill: none;"></path></g></g></g></svg>