<svg class="marks" preserveAspectRatio="none" width="310" height="110"  version="1.1" xmlns="http://www.w3.org/2000/svg" xmlns:xlink="http://www.w3.org/1999/xlink"><g transform="translate(5,5)"><g class="mark-group role-frame root"><g transform="translate(0,0)"><path class="background" d="M0,0h300v100h-300Z" style="fill: none; stroke: #ddd; stroke-width: 0;"></path><g><g class="mark-rect role-mark marks"><path d="M0.3658536585365937,93.77777777777779h6.585365853658537v6.222222222222214h-6.585365853658537Z" style="fill: #D2D4CE;"></path><path d="M7.682926829268301,90.44444444444444h6.585365853658537v9.555555555555557h-6.585365853658537Z" style="fill: #D2D4CE;"></path><path d="M15.000000000000009,86.66666666666667h6.585365853658537v13.333333333333329h-6.585365853658537Z" style="fill: #D2D4CE;"></path><path d="M22.317073170731717,85.11111111111111h6.585365853658537v14.888888888888886h-6.585365853658537Z" style="fill: #D2D4CE;"></path><path d="M29.634146341463424,83.55555555555556h6.585365853658537v16.444444444444443h-6.585365853658537Z" style="fill: #D2D4CE;"></path><path d="M36.95121951219513,82.22222222222221h6.585365853658537v17.777777777777786h-6.585365853658537Z" style="fill: #D2D4CE;"></path><path d="M44.26829268292684,81.11111111111111h6.585365853658537v18.888888888888886h-6.585365853658537Z" style="fill: #D2D4CE;"></path><path d="M51.585365853658544,78.66666666666666h6.585365853658537v21.333333333333343h-6.585365853658537Z" style="fill: #D2D4CE;"></path><path d="M58.902439024390254,78h6.585365853658537v22h-6.585365853658537Z" style="fill: #D2D4CE;"></path><path d="M66.21951219512196,75.77777777777777h6.585365853658537v24.22222222222223h-6.585365853658537Z" style="fill: #D2D4CE;"></path><path d="M73.53658536585367,74.8888888888889h6.585365853658537v25.1111111111111h-6.585365853658537Z" style="fill: #D2D4CE;"></path><path d="M80.85365853658537,74.66666666666666h6.585365853658537v25.333333333333343h-6.585365853658537Z" style="fill: #D2D4CE;"></path><path d="M88.17073170731709,74.44444444444444h6.585365853658537v25.555555555555557h-6.585365853658537Z" style="fill: #D2D4CE;"></path><path d="M95.48780487804879,74h6.585365853658537v26h-6.585365853658537Z" style="fill: #D2D4CE;"></path><path d="M102.8048780487805,73.33333333333334h6.585365853658537v26.666666666666657h-6.585365853658537Z" style="fill: #D2D4CE;"></path><path d="M110.12195121951221,70.44444444444444h6.585365853658537v29.555555555555557h-6.585365853658537Z" style="fill: #D2D4CE;"></path><path d="M117.43902439024392,69.33333333333334h6.585365853658537v30.666666666666657h-6.585365853658537Z" style="fill: #D2D4CE;"></path><path d="M124.75609756097562,68.22222222222223h6.585365853658537v31.77777777777777h-6.585365853658537Z" style="fill: #D2D4CE;"></path><path d="M132.07317073170734,67.77777777777779h6.585365853658537v32.222222222222214h-6.585365853658537Z" style="fill: #D2D4CE;"></path><path d="M139.39024390243904,66.88888888888889h6.585365853658537v33.111111111111114h-6.585365853658537Z" style="fill: #D2D4CE;"></path><path d="M146.70731707317074,65.77777777777779h6.585365853658537v34.222222222222214h-6.585365853658537Z" style="fill: #D2D4CE;"></path><path d="M154.02439024390245,65.11111111111111h6.585365853658537v34.888888888888886h-6.585365853658537Z" style="fill: #00923E;"></path><path d="M161.34146341463415,61.33333333333333h6.585365853658537v38.66666666666667h-6.585365853658537Z" style="fill: #D2D4CE;"></path><path d="M168.65853658536588,59.33333333333333h6.585365853658537v40.66666666666667h-6.585365853658537Z" style="fill: #D2D4CE;"></path><path d="M175.97560975609758,54.44444444444445h6.585365853658537v45.55555555555555h-6.585365853658537Z" style="fill: #D2D4CE;"></path><path d="M183.2926829268293,54.44444444444445h6.585365853658537v45.55555555555555h-6.585365853658537Z" style="fill: #D2D4CE;"></path><path d="M190.609756097561,53.55555555555556h6.585365853658537v46.44444444444444h-6.585365853658537Z" style="fill: #D2D4CE;"></path><path d="M197.9268292682927,51.33333333333334h6.585365853658537v48.66666666666666h-6.585365853658537Z" style="fill: #D2D4CE;"></path><path d="M205.2439024390244,48.22222222222222h6.585365853658537v51.77777777777778h-6.585365853658537Z" style="fill: #D2D4CE;"></path><path d="M212.56097560975613,48.22222222222222h6.585365853658537v51.77777777777778h-6.585365853658537Z" style="fill: #D2D4CE;"></path><path d="M219.87804878048783,46.44444444444444h6.585365853658537v53.55555555555556h-6.585365853658537Z" style="fill: #D2D4CE;"></path><path d="M227.19512195121953,41.77777777777778h6.585365853658537v58.22222222222222h-6.585365853658537Z" style="fill: #D2D4CE;"></path><path d="M234.51219512195124,40.444444444444436h6.585365853658537v59.555555555555564h-6.585365853658537Z" style="fill: #D2D4CE;"></path><path d="M241.82926829268294,35.777777777777786h6.585365853658537v64.22222222222221h-6.585365853658537Z" style="fill: #D2D4CE;"></path><path d="M249.14634146341464,34.88888888888889h6.585365853658537v65.11111111111111h-6.585365853658537Z" style="fill: #D2D4CE;"></path><path d="M256.4634146341464,30.000000000000004h6.585365853658537v70h-6.585365853658537Z" style="fill: #D2D4CE;"></path><path d="M263.7804878048781,29.11111111111111h6.585365853658537v70.88888888888889h-6.585365853658537Z" style="fill: #D2D4CE;"></path><path d="M271.0975609756098,27.77777777777778h6.585365853658537v72.22222222222223h-6.585365853658537Z" style="fill: #D2D4CE;"></path><path d="M278.4146341463415,12.444444444444446h6.585365853658537v87.55555555555556h-6.585365853658537Z" style="fill: #D2D4CE;"></path><path d="M285.7317073170732,7.555555555555548h6.585365853658537v92.44444444444446h-6.585365853658537Z" style="fill: #D2D4CE;"></path><path d="M293.0487804878049,5.777777777777782h6.585365853658537v94.22222222222221h-6.585365853658537Z" style="fill: #D2D4CE;"></path></g></g><path class="foreground" d="" style="display: none; fill: none;"></path></g></g></g></svg>