<svg class="marks" preserveAspectRatio="none" width="310" height="110"  version="1.1" xmlns="http://www.w3.org/2000/svg" xmlns:xlink="http://www.w3.org/1999/xlink"><g transform="translate(5,5)"><g class="mark-group role-frame root"><g transform="translate(0,0)"><path class="background" d="M0,0h300v100h-300Z" style="fill: none; stroke: #ddd; stroke-width: 0;"></path><g><g class="mark-rect role-mark marks"><path d="M0.3658536585365937,54.2h6.585365853658537v45.8h-6.585365853658537Z" style="fill: #D2D4CE;"></path><path d="M7.682926829268301,51h6.585365853658537v49h-6.585365853658537Z" style="fill: #D2D4CE;"></path><path d="M15.000000000000009,50.4h6.585365853658537v49.6h-6.585365853658537Z" style="fill: #D2D4CE;"></path><path d="M22.317073170731717,39.5h6.585365853658537v60.5h-6.585365853658537Z" style="fill: #D2D4CE;"></path><path d="M29.634146341463424,37.4h6.585365853658537v62.6h-6.585365853658537Z" style="fill: #D2D4CE;"></path><path d="M36.95121951219513,33.70000000000001h6.585365853658537v66.29999999999998h-6.585365853658537Z" style="fill: #D2D4CE;"></path><path d="M44.26829268292684,28.59999999999999h6.585365853658537v71.4h-6.585365853658537Z" style="fill: #D2D4CE;"></path><path d="M51.585365853658544,28.400000000000002h6.585365853658537v71.6h-6.585365853658537Z" style="fill: #D2D4CE;"></path><path d="M58.902439024390254,26.900000000000002h6.585365853658537v73.1h-6.585365853658537Z" style="fill: #D2D4CE;"></path><path d="M66.21951219512196,26.900000000000002h6.585365853658537v73.1h-6.585365853658537Z" style="fill: #D2D4CE;"></path><path d="M73.53658536585367,26.200000000000003h6.585365853658537v73.8h-6.585365853658537Z" style="fill: #D2D4CE;"></path><path d="M80.85365853658537,24.40000000000001h6.585365853658537v75.6h-6.585365853658537Z" style="fill: #D2D4CE;"></path><path d="M88.17073170731709,24.3h6.585365853658537v75.7h-6.585365853658537Z" style="fill: #D2D4CE;"></path><path d="M95.48780487804879,22.799999999999997h6.585365853658537v77.2h-6.585365853658537Z" style="fill: #D2D4CE;"></path><path d="M102.8048780487805,22.299999999999997h6.585365853658537v77.7h-6.585365853658537Z" style="fill: #D2D4CE;"></path><path d="M110.12195121951221,20.799999999999997h6.585365853658537v79.2h-6.585365853658537Z" style="fill: #D2D4CE;"></path><path d="M117.43902439024392,19.799999999999997h6.585365853658537v80.2h-6.585365853658537Z" style="fill: #D2D4CE;"></path><path d="M124.75609756097562,17.799999999999994h6.585365853658537v82.2h-6.585365853658537Z" style="fill: #D2D4CE;"></path><path d="M132.07317073170734,14.900000000000002h6.585365853658537v85.1h-6.585365853658537Z" style="fill: #D2D4CE;"></path><path d="M139.39024390243904,14.800000000000002h6.585365853658537v85.2h-6.585365853658537Z" style="fill: #D2D4CE;"></path><path d="M146.70731707317074,14.800000000000002h6.585365853658537v85.2h-6.585365853658537Z" style="fill: #D2D4CE;"></path><path d="M154.02439024390245,14.800000000000002h6.585365853658537v85.2h-6.585365853658537Z" style="fill: #D2D4CE;"></path><path d="M161.34146341463415,14.000000000000002h6.585365853658537v86h-6.585365853658537Z" style="fill: #D2D4CE;"></path><path d="M168.65853658536588,13.8h6.585365853658537v86.2h-6.585365853658537Z" style="fill: #D2D4CE;"></path><path d="M175.97560975609758,13.4h6.585365853658537v86.6h-6.585365853658537Z" style="fill: #D2D4CE;"></path><path d="M183.2926829268293,12.8h6.585365853658537v87.2h-6.585365853658537Z" style="fill: #D2D4CE;"></path><path d="M190.609756097561,12.7h6.585365853658537v87.3h-6.585365853658537Z" style="fill: #D2D4CE;"></path><path d="M197.9268292682927,12.7h6.585365853658537v87.3h-6.585365853658537Z" style="fill: #D2D4CE;"></path><path d="M205.2439024390244,12.5h6.585365853658537v87.5h-6.585365853658537Z" style="fill: #D2D4CE;"></path><path d="M212.56097560975613,12.1h6.585365853658537v87.9h-6.585365853658537Z" style="fill: #D2D4CE;"></path><path d="M219.87804878048783,11.7h6.585365853658537v88.3h-6.585365853658537Z" style="fill: #D2D4CE;"></path><path d="M227.19512195121953,9.999999999999998h6.585365853658537v90h-6.585365853658537Z" style="fill: #D2D4CE;"></path><path d="M234.51219512195124,9.699999999999998h6.585365853658537v90.3h-6.585365853658537Z" style="fill: #D2D4CE;"></path><path d="M241.82926829268294,7.700000000000006h6.585365853658537v92.3h-6.585365853658537Z" style="fill: #D2D4CE;"></path><path d="M249.14634146341464,7.200000000000006h6.585365853658537v92.8h-6.585365853658537Z" style="fill: #D2D4CE;"></path><path d="M256.4634146341464,6.2000000000000055h6.585365853658537v93.8h-6.585365853658537Z" style="fill: #D2D4CE;"></path><path d="M263.7804878048781,6.000000000000005h6.585365853658537v94h-6.585365853658537Z" style="fill: #D2D4CE;"></path><path d="M271.0975609756098,4.799999999999994h6.585365853658537v95.2h-6.585365853658537Z" style="fill: #00923E;"></path><path d="M278.4146341463415,4.799999999999994h6.585365853658537v95.2h-6.585365853658537Z" style="fill: #D2D4CE;"></path><path d="M285.7317073170732,4.0999999999999925h6.585365853658537v95.9h-6.585365853658537Z" style="fill: #D2D4CE;"></path><path d="M293.0487804878049,2.0000000000000018h6.585365853658537v98h-6.585365853658537Z" style="fill: #D2D4CE;"></path></g></g><path class="foreground" d="" style="display: none; fill: none;"></path></g></g></g></svg>