<svg class="marks" preserveAspectRatio="none" width="310" height="110"  version="1.1" xmlns="http://www.w3.org/2000/svg" xmlns:xlink="http://www.w3.org/1999/xlink"><g transform="translate(5,5)"><g class="mark-group role-frame root"><g transform="translate(0,0)"><path class="background" d="M0,0h300v100h-300Z" style="fill: none; stroke: #ddd; stroke-width: 0;"></path><g><g class="mark-rect role-mark marks"><path d="M0.3658536585365937,80.76923076923077h6.585365853658537v19.230769230769226h-6.585365853658537Z" style="fill: #D2D4CE;"></path><path d="M7.682926829268301,78.84615384615384h6.585365853658537v21.15384615384616h-6.585365853658537Z" style="fill: #D2D4CE;"></path><path d="M15.000000000000009,78.84615384615384h6.585365853658537v21.15384615384616h-6.585365853658537Z" style="fill: #D2D4CE;"></path><path d="M22.317073170731717,76.15384615384615h6.585365853658537v23.846153846153854h-6.585365853658537Z" style="fill: #D2D4CE;"></path><path d="M29.634146341463424,75h6.585365853658537v25h-6.585365853658537Z" style="fill: #D2D4CE;"></path><path d="M36.95121951219513,72.69230769230771h6.585365853658537v27.307692307692292h-6.585365853658537Z" style="fill: #D2D4CE;"></path><path d="M44.26829268292684,71.92307692307692h6.585365853658537v28.07692307692308h-6.585365853658537Z" style="fill: #D2D4CE;"></path><path d="M51.585365853658544,70.76923076923077h6.585365853658537v29.230769230769226h-6.585365853658537Z" style="fill: #D2D4CE;"></path><path d="M58.902439024390254,68.46153846153847h6.585365853658537v31.538461538461533h-6.585365853658537Z" style="fill: #D2D4CE;"></path><path d="M66.21951219512196,65h6.585365853658537v35h-6.585365853658537Z" style="fill: #D2D4CE;"></path><path d="M73.53658536585367,65h6.585365853658537v35h-6.585365853658537Z" style="fill: #D2D4CE;"></path><path d="M80.85365853658537,63.07692307692307h6.585365853658537v36.92307692307693h-6.585365853658537Z" style="fill: #D2D4CE;"></path><path d="M88.17073170731709,62.69230769230769h6.585365853658537v37.30769230769231h-6.585365853658537Z" style="fill: #D2D4CE;"></path><path d="M95.48780487804879,61.92307692307693h6.585365853658537v38.07692307692307h-6.585365853658537Z" style="fill: #D2D4CE;"></path><path d="M102.8048780487805,60.769230769230774h6.585365853658537v39.230769230769226h-6.585365853658537Z" style="fill: #D2D4CE;"></path><path d="M110.12195121951221,58.84615384615385h6.585365853658537v41.15384615384615h-6.585365853658537Z" style="fill: #D2D4CE;"></path><path d="M117.43902439024392,58.46153846153845h6.585365853658537v41.53846153846155h-6.585365853658537Z" style="fill: #00923E;"></path><path d="M124.75609756097562,57.692307692307686h6.585365853658537v42.307692307692314h-6.585365853658537Z" style="fill: #D2D4CE;"></path><path d="M132.07317073170734,56.53846153846154h6.585365853658537v43.46153846153846h-6.585365853658537Z" style="fill: #D2D4CE;"></path><path d="M139.39024390243904,53.84615384615385h6.585365853658537v46.15384615384615h-6.585365853658537Z" style="fill: #D2D4CE;"></path><path d="M146.70731707317074,52.69230769230768h6.585365853658537v47.30769230769232h-6.585365853658537Z" style="fill: #D2D4CE;"></path><path d="M154.02439024390245,50.76923076923077h6.585365853658537v49.23076923076923h-6.585365853658537Z" style="fill: #D2D4CE;"></path><path d="M161.34146341463415,49.61538461538461h6.585365853658537v50.38461538461539h-6.585365853658537Z" style="fill: #D2D4CE;"></path><path d="M168.65853658536588,45.38461538461539h6.585365853658537v54.61538461538461h-6.585365853658537Z" style="fill: #D2D4CE;"></path><path d="M175.97560975609758,44.99999999999999h6.585365853658537v55.00000000000001h-6.585365853658537Z" style="fill: #D2D4CE;"></path><path d="M183.2926829268293,44.61538461538461h6.585365853658537v55.38461538461539h-6.585365853658537Z" style="fill: #D2D4CE;"></path><path d="M190.609756097561,42.69230769230769h6.585365853658537v57.30769230769231h-6.585365853658537Z" style="fill: #D2D4CE;"></path><path d="M197.9268292682927,38.46153846153846h6.585365853658537v61.53846153846154h-6.585365853658537Z" style="fill: #D2D4CE;"></path><path d="M205.2439024390244,36.153846153846146h6.585365853658537v63.846153846153854h-6.585365853658537Z" style="fill: #D2D4CE;"></path><path d="M212.56097560975613,35.00000000000001h6.585365853658537v65h-6.585365853658537Z" style="fill: #D2D4CE;"></path><path d="M219.87804878048783,34.61538461538461h6.585365853658537v65.38461538461539h-6.585365853658537Z" style="fill: #D2D4CE;"></path><path d="M227.19512195121953,32.692307692307686h6.585365853658537v67.30769230769232h-6.585365853658537Z" style="fill: #D2D4CE;"></path><path d="M234.51219512195124,29.61538461538461h6.585365853658537v70.38461538461539h-6.585365853658537Z" style="fill: #D2D4CE;"></path><path d="M241.82926829268294,28.46153846153846h6.585365853658537v71.53846153846155h-6.585365853658537Z" style="fill: #D2D4CE;"></path><path d="M249.14634146341464,22.307692307692307h6.585365853658537v77.6923076923077h-6.585365853658537Z" style="fill: #D2D4CE;"></path><path d="M256.4634146341464,20.38461538461539h6.585365853658537v79.61538461538461h-6.585365853658537Z" style="fill: #D2D4CE;"></path><path d="M263.7804878048781,19.23076923076923h6.585365853658537v80.76923076923077h-6.585365853658537Z" style="fill: #D2D4CE;"></path><path d="M271.0975609756098,18.07692307692308h6.585365853658537v81.92307692307692h-6.585365853658537Z" style="fill: #D2D4CE;"></path><path d="M278.4146341463415,14.999999999999991h6.585365853658537v85.00000000000001h-6.585365853658537Z" style="fill: #D2D4CE;"></path><path d="M285.7317073170732,12.307692307692308h6.585365853658537v87.6923076923077h-6.585365853658537Z" style="fill: #D2D4CE;"></path><path d="M293.0487804878049,6.538461538461537h6.585365853658537v93.46153846153847h-6.585365853658537Z" style="fill: #D2D4CE;"></path></g></g><path class="foreground" d="" style="display: none; fill: none;"></path></g></g></g></svg>