<svg class="marks" preserveAspectRatio="none" width="310" height="110"  version="1.1" xmlns="http://www.w3.org/2000/svg" xmlns:xlink="http://www.w3.org/1999/xlink"><g transform="translate(5,5)"><g class="mark-group role-frame root"><g transform="translate(0,0)"><path class="background" d="M0,0h300v100h-300Z" style="fill: none; stroke: #ddd; stroke-width: 0;"></path><g><g class="mark-rect role-mark marks"><path d="M0.3658536585365937,43.39999999999999h6.585365853658537v56.60000000000001h-6.585365853658537Z" style="fill: #D2D4CE;"></path><path d="M7.682926829268301,38.9h6.585365853658537v61.1h-6.585365853658537Z" style="fill: #D2D4CE;"></path><path d="M15.000000000000009,36.4h6.585365853658537v63.6h-6.585365853658537Z" style="fill: #D2D4CE;"></path><path d="M22.317073170731717,28.500000000000004h6.585365853658537v71.5h-6.585365853658537Z" style="fill: #D2D4CE;"></path><path d="M29.634146341463424,24.099999999999998h6.585365853658537v75.9h-6.585365853658537Z" style="fill: #D2D4CE;"></path><path d="M36.95121951219513,23.90000000000001h6.585365853658537v76.1h-6.585365853658537Z" style="fill: #D2D4CE;"></path><path d="M44.26829268292684,23.40000000000001h6.585365853658537v76.6h-6.585365853658537Z" style="fill: #D2D4CE;"></path><path d="M51.585365853658544,22.199999999999996h6.585365853658537v77.80000000000001h-6.585365853658537Z" style="fill: #D2D4CE;"></path><path d="M58.902439024390254,21.90000000000001h6.585365853658537v78.1h-6.585365853658537Z" style="fill: #D2D4CE;"></path><path d="M66.21951219512196,20.999999999999996h6.585365853658537v79h-6.585365853658537Z" style="fill: #D2D4CE;"></path><path d="M73.53658536585367,19.999999999999996h6.585365853658537v80h-6.585365853658537Z" style="fill: #D2D4CE;"></path><path d="M80.85365853658537,19.900000000000006h6.585365853658537v80.1h-6.585365853658537Z" style="fill: #D2D4CE;"></path><path d="M88.17073170731709,18.400000000000006h6.585365853658537v81.6h-6.585365853658537Z" style="fill: #D2D4CE;"></path><path d="M95.48780487804879,18.299999999999994h6.585365853658537v81.7h-6.585365853658537Z" style="fill: #D2D4CE;"></path><path d="M102.8048780487805,18.099999999999994h6.585365853658537v81.9h-6.585365853658537Z" style="fill: #D2D4CE;"></path><path d="M110.12195121951221,17.900000000000006h6.585365853658537v82.1h-6.585365853658537Z" style="fill: #D2D4CE;"></path><path d="M117.43902439024392,17.400000000000006h6.585365853658537v82.6h-6.585365853658537Z" style="fill: #D2D4CE;"></path><path d="M124.75609756097562,16.299999999999994h6.585365853658537v83.7h-6.585365853658537Z" style="fill: #D2D4CE;"></path><path d="M132.07317073170734,13.900000000000002h6.585365853658537v86.1h-6.585365853658537Z" style="fill: #D2D4CE;"></path><path d="M139.39024390243904,13.4h6.585365853658537v86.6h-6.585365853658537Z" style="fill: #D2D4CE;"></path><path d="M146.70731707317074,12.3h6.585365853658537v87.7h-6.585365853658537Z" style="fill: #D2D4CE;"></path><path d="M154.02439024390245,12h6.585365853658537v88h-6.585365853658537Z" style="fill: #D2D4CE;"></path><path d="M161.34146341463415,11.6h6.585365853658537v88.4h-6.585365853658537Z" style="fill: #D2D4CE;"></path><path d="M168.65853658536588,10.499999999999998h6.585365853658537v89.5h-6.585365853658537Z" style="fill: #D2D4CE;"></path><path d="M175.97560975609758,10.40000000000001h6.585365853658537v89.6h-6.585365853658537Z" style="fill: #D2D4CE;"></path><path d="M183.2926829268293,9.90000000000001h6.585365853658537v90.1h-6.585365853658537Z" style="fill: #D2D4CE;"></path><path d="M190.609756097561,9.299999999999997h6.585365853658537v90.7h-6.585365853658537Z" style="fill: #D2D4CE;"></path><path d="M197.9268292682927,9.200000000000008h6.585365853658537v90.8h-6.585365853658537Z" style="fill: #D2D4CE;"></path><path d="M205.2439024390244,8.599999999999996h6.585365853658537v91.4h-6.585365853658537Z" style="fill: #D2D4CE;"></path><path d="M212.56097560975613,6.900000000000006h6.585365853658537v93.1h-6.585365853658537Z" style="fill: #D2D4CE;"></path><path d="M219.87804878048783,6.700000000000006h6.585365853658537v93.3h-6.585365853658537Z" style="fill: #D2D4CE;"></path><path d="M227.19512195121953,6.099999999999994h6.585365853658537v93.9h-6.585365853658537Z" style="fill: #D2D4CE;"></path><path d="M234.51219512195124,5.200000000000005h6.585365853658537v94.8h-6.585365853658537Z" style="fill: #D2D4CE;"></path><path d="M241.82926829268294,4.799999999999994h6.585365853658537v95.2h-6.585365853658537Z" style="fill: #D2D4CE;"></path><path d="M249.14634146341464,4.5000000000000036h6.585365853658537v95.5h-6.585365853658537Z" style="fill: #D2D4CE;"></path><path d="M256.4634146341464,4.299999999999993h6.585365853658537v95.7h-6.585365853658537Z" style="fill: #D2D4CE;"></path><path d="M263.7804878048781,3.7999999999999923h6.585365853658537v96.2h-6.585365853658537Z" style="fill: #D2D4CE;"></path><path d="M271.0975609756098,3.0000000000000027h6.585365853658537v97h-6.585365853658537Z" style="fill: #00923E;"></path><path d="M278.4146341463415,3.0000000000000027h6.585365853658537v97h-6.585365853658537Z" style="fill: #D2D4CE;"></path><path d="M285.7317073170732,2.400000000000002h6.585365853658537v97.6h-6.585365853658537Z" style="fill: #D2D4CE;"></path><path d="M293.0487804878049,1.8000000000000016h6.585365853658537v98.2h-6.585365853658537Z" style="fill: #D2D4CE;"></path></g></g><path class="foreground" d="" style="display: none; fill: none;"></path></g></g></g></svg>