<svg class="marks" preserveAspectRatio="none" width="310" height="110"  version="1.1" xmlns="http://www.w3.org/2000/svg" xmlns:xlink="http://www.w3.org/1999/xlink"><g transform="translate(5,5)"><g class="mark-group role-frame root"><g transform="translate(0,0)"><path class="background" d="M0,0h300v100h-300Z" style="fill: none; stroke: #ddd; stroke-width: 0;"></path><g><g class="mark-rect role-mark marks"><path d="M0.3658536585365937,87.55555555555556h6.585365853658537v12.444444444444443h-6.585365853658537Z" style="fill: #D2D4CE;"></path><path d="M7.682926829268301,85.11111111111111h6.585365853658537v14.888888888888886h-6.585365853658537Z" style="fill: #D2D4CE;"></path><path d="M15.000000000000009,84.88888888888889h6.585365853658537v15.111111111111114h-6.585365853658537Z" style="fill: #D2D4CE;"></path><path d="M22.317073170731717,82.44444444444444h6.585365853658537v17.555555555555557h-6.585365853658537Z" style="fill: #D2D4CE;"></path><path d="M29.634146341463424,81.77777777777779h6.585365853658537v18.222222222222214h-6.585365853658537Z" style="fill: #D2D4CE;"></path><path d="M36.95121951219513,80.66666666666666h6.585365853658537v19.333333333333343h-6.585365853658537Z" style="fill: #D2D4CE;"></path><path d="M44.26829268292684,76.66666666666666h6.585365853658537v23.333333333333343h-6.585365853658537Z" style="fill: #D2D4CE;"></path><path d="M51.585365853658544,74h6.585365853658537v26h-6.585365853658537Z" style="fill: #D2D4CE;"></path><path d="M58.902439024390254,73.33333333333334h6.585365853658537v26.666666666666657h-6.585365853658537Z" style="fill: #D2D4CE;"></path><path d="M66.21951219512196,72.44444444444444h6.585365853658537v27.555555555555557h-6.585365853658537Z" style="fill: #D2D4CE;"></path><path d="M73.53658536585367,72.44444444444444h6.585365853658537v27.555555555555557h-6.585365853658537Z" style="fill: #00923E;"></path><path d="M80.85365853658537,71.33333333333334h6.585365853658537v28.666666666666657h-6.585365853658537Z" style="fill: #D2D4CE;"></path><path d="M88.17073170731709,71.11111111111111h6.585365853658537v28.888888888888886h-6.585365853658537Z" style="fill: #D2D4CE;"></path><path d="M95.48780487804879,70.88888888888889h6.585365853658537v29.111111111111114h-6.585365853658537Z" style="fill: #D2D4CE;"></path><path d="M102.8048780487805,68.66666666666667h6.585365853658537v31.33333333333333h-6.585365853658537Z" style="fill: #D2D4CE;"></path><path d="M110.12195121951221,65.99999999999999h6.585365853658537v34.000000000000014h-6.585365853658537Z" style="fill: #D2D4CE;"></path><path d="M117.43902439024392,65.77777777777779h6.585365853658537v34.222222222222214h-6.585365853658537Z" style="fill: #D2D4CE;"></path><path d="M124.75609756097562,64.44444444444444h6.585365853658537v35.55555555555556h-6.585365853658537Z" style="fill: #D2D4CE;"></path><path d="M132.07317073170734,64.44444444444444h6.585365853658537v35.55555555555556h-6.585365853658537Z" style="fill: #D2D4CE;"></path><path d="M139.39024390243904,63.77777777777778h6.585365853658537v36.22222222222222h-6.585365853658537Z" style="fill: #D2D4CE;"></path><path d="M146.70731707317074,62.22222222222222h6.585365853658537v37.77777777777778h-6.585365853658537Z" style="fill: #D2D4CE;"></path><path d="M154.02439024390245,59.77777777777777h6.585365853658537v40.22222222222223h-6.585365853658537Z" style="fill: #D2D4CE;"></path><path d="M161.34146341463415,59.77777777777777h6.585365853658537v40.22222222222223h-6.585365853658537Z" style="fill: #D2D4CE;"></path><path d="M168.65853658536588,59.555555555555564h6.585365853658537v40.444444444444436h-6.585365853658537Z" style="fill: #D2D4CE;"></path><path d="M175.97560975609758,52.44444444444445h6.585365853658537v47.55555555555555h-6.585365853658537Z" style="fill: #D2D4CE;"></path><path d="M183.2926829268293,52.44444444444445h6.585365853658537v47.55555555555555h-6.585365853658537Z" style="fill: #D2D4CE;"></path><path d="M190.609756097561,52h6.585365853658537v48h-6.585365853658537Z" style="fill: #D2D4CE;"></path><path d="M197.9268292682927,51.55555555555556h6.585365853658537v48.44444444444444h-6.585365853658537Z" style="fill: #D2D4CE;"></path><path d="M205.2439024390244,44.00000000000001h6.585365853658537v55.99999999999999h-6.585365853658537Z" style="fill: #D2D4CE;"></path><path d="M212.56097560975613,42.666666666666664h6.585365853658537v57.333333333333336h-6.585365853658537Z" style="fill: #D2D4CE;"></path><path d="M219.87804878048783,39.77777777777778h6.585365853658537v60.22222222222222h-6.585365853658537Z" style="fill: #D2D4CE;"></path><path d="M227.19512195121953,38.44444444444445h6.585365853658537v61.55555555555555h-6.585365853658537Z" style="fill: #D2D4CE;"></path><path d="M234.51219512195124,36.88888888888889h6.585365853658537v63.11111111111111h-6.585365853658537Z" style="fill: #D2D4CE;"></path><path d="M241.82926829268294,36.66666666666667h6.585365853658537v63.33333333333333h-6.585365853658537Z" style="fill: #D2D4CE;"></path><path d="M249.14634146341464,30.44444444444444h6.585365853658537v69.55555555555556h-6.585365853658537Z" style="fill: #D2D4CE;"></path><path d="M256.4634146341464,29.333333333333332h6.585365853658537v70.66666666666667h-6.585365853658537Z" style="fill: #D2D4CE;"></path><path d="M263.7804878048781,27.77777777777778h6.585365853658537v72.22222222222223h-6.585365853658537Z" style="fill: #D2D4CE;"></path><path d="M271.0975609756098,27.111111111111118h6.585365853658537v72.88888888888889h-6.585365853658537Z" style="fill: #D2D4CE;"></path><path d="M278.4146341463415,14.888888888888896h6.585365853658537v85.1111111111111h-6.585365853658537Z" style="fill: #D2D4CE;"></path><path d="M285.7317073170732,12.666666666666671h6.585365853658537v87.33333333333333h-6.585365853658537Z" style="fill: #D2D4CE;"></path><path d="M293.0487804878049,4.222222222222216h6.585365853658537v95.77777777777779h-6.585365853658537Z" style="fill: #D2D4CE;"></path></g></g><path class="foreground" d="" style="display: none; fill: none;"></path></g></g></g></svg>