<svg class="marks" preserveAspectRatio="none" width="310" height="110"  version="1.1" xmlns="http://www.w3.org/2000/svg" xmlns:xlink="http://www.w3.org/1999/xlink"><g transform="translate(5,5)"><g class="mark-group role-frame root"><g transform="translate(0,0)"><path class="background" d="M0,0h300v100h-300Z" style="fill: none; stroke: #ddd; stroke-width: 0;"></path><g><g class="mark-rect role-mark marks"><path d="M0.3658536585365937,96.25h6.585365853658537v3.75h-6.585365853658537Z" style="fill: #D2D4CE;"></path><path d="M7.682926829268301,95.625h6.585365853658537v4.375h-6.585365853658537Z" style="fill: #D2D4CE;"></path><path d="M15.000000000000009,93.75h6.585365853658537v6.25h-6.585365853658537Z" style="fill: #D2D4CE;"></path><path d="M22.317073170731717,93.75h6.585365853658537v6.25h-6.585365853658537Z" style="fill: #D2D4CE;"></path><path d="M29.634146341463424,93.125h6.585365853658537v6.875h-6.585365853658537Z" style="fill: #D2D4CE;"></path><path d="M36.95121951219513,92.5h6.585365853658537v7.5h-6.585365853658537Z" style="fill: #D2D4CE;"></path><path d="M44.26829268292684,91.25h6.585365853658537v8.75h-6.585365853658537Z" style="fill: #D2D4CE;"></path><path d="M51.585365853658544,91.25h6.585365853658537v8.75h-6.585365853658537Z" style="fill: #D2D4CE;"></path><path d="M58.902439024390254,90.625h6.585365853658537v9.375h-6.585365853658537Z" style="fill: #D2D4CE;"></path><path d="M66.21951219512196,90h6.585365853658537v10h-6.585365853658537Z" style="fill: #D2D4CE;"></path><path d="M73.53658536585367,89.375h6.585365853658537v10.625h-6.585365853658537Z" style="fill: #D2D4CE;"></path><path d="M80.85365853658537,88.125h6.585365853658537v11.875h-6.585365853658537Z" style="fill: #D2D4CE;"></path><path d="M88.17073170731709,86.25h6.585365853658537v13.75h-6.585365853658537Z" style="fill: #D2D4CE;"></path><path d="M95.48780487804879,85.625h6.585365853658537v14.375h-6.585365853658537Z" style="fill: #D2D4CE;"></path><path d="M102.8048780487805,85.625h6.585365853658537v14.375h-6.585365853658537Z" style="fill: #D2D4CE;"></path><path d="M110.12195121951221,85.625h6.585365853658537v14.375h-6.585365853658537Z" style="fill: #D2D4CE;"></path><path d="M117.43902439024392,84.375h6.585365853658537v15.625h-6.585365853658537Z" style="fill: #D2D4CE;"></path><path d="M124.75609756097562,83.75h6.585365853658537v16.25h-6.585365853658537Z" style="fill: #D2D4CE;"></path><path d="M132.07317073170734,82.5h6.585365853658537v17.5h-6.585365853658537Z" style="fill: #D2D4CE;"></path><path d="M139.39024390243904,82.5h6.585365853658537v17.5h-6.585365853658537Z" style="fill: #D2D4CE;"></path><path d="M146.70731707317074,82.5h6.585365853658537v17.5h-6.585365853658537Z" style="fill: #D2D4CE;"></path><path d="M154.02439024390245,81.875h6.585365853658537v18.125h-6.585365853658537Z" style="fill: #D2D4CE;"></path><path d="M161.34146341463415,81.25h6.585365853658537v18.75h-6.585365853658537Z" style="fill: #D2D4CE;"></path><path d="M168.65853658536588,77.5h6.585365853658537v22.5h-6.585365853658537Z" style="fill: #D2D4CE;"></path><path d="M175.97560975609758,76.25h6.585365853658537v23.75h-6.585365853658537Z" style="fill: #D2D4CE;"></path><path d="M183.2926829268293,75h6.585365853658537v25h-6.585365853658537Z" style="fill: #D2D4CE;"></path><path d="M190.609756097561,73.125h6.585365853658537v26.875h-6.585365853658537Z" style="fill: #D2D4CE;"></path><path d="M197.9268292682927,71.25h6.585365853658537v28.75h-6.585365853658537Z" style="fill: #D2D4CE;"></path><path d="M205.2439024390244,70h6.585365853658537v30h-6.585365853658537Z" style="fill: #D2D4CE;"></path><path d="M212.56097560975613,68.75h6.585365853658537v31.25h-6.585365853658537Z" style="fill: #D2D4CE;"></path><path d="M219.87804878048783,66.25h6.585365853658537v33.75h-6.585365853658537Z" style="fill: #D2D4CE;"></path><path d="M227.19512195121953,64.375h6.585365853658537v35.625h-6.585365853658537Z" style="fill: #D2D4CE;"></path><path d="M234.51219512195124,61.875h6.585365853658537v38.125h-6.585365853658537Z" style="fill: #D2D4CE;"></path><path d="M241.82926829268294,58.75h6.585365853658537v41.25h-6.585365853658537Z" style="fill: #D2D4CE;"></path><path d="M249.14634146341464,56.25h6.585365853658537v43.75h-6.585365853658537Z" style="fill: #D2D4CE;"></path><path d="M256.4634146341464,51.87500000000001h6.585365853658537v48.12499999999999h-6.585365853658537Z" style="fill: #D2D4CE;"></path><path d="M263.7804878048781,43.125h6.585365853658537v56.875h-6.585365853658537Z" style="fill: #00923E;"></path><path d="M271.0975609756098,38.74999999999999h6.585365853658537v61.25000000000001h-6.585365853658537Z" style="fill: #D2D4CE;"></path><path d="M278.4146341463415,37.5h6.585365853658537v62.5h-6.585365853658537Z" style="fill: #D2D4CE;"></path><path d="M285.7317073170732,25h6.585365853658537v75h-6.585365853658537Z" style="fill: #D2D4CE;"></path><path d="M293.0487804878049,11.250000000000004h6.585365853658537v88.75h-6.585365853658537Z" style="fill: #D2D4CE;"></path></g></g><path class="foreground" d="" style="display: none; fill: none;"></path></g></g></g></svg>