<svg class="marks" preserveAspectRatio="none" width="310" height="110"  version="1.1" xmlns="http://www.w3.org/2000/svg" xmlns:xlink="http://www.w3.org/1999/xlink"><g transform="translate(5,5)"><g class="mark-group role-frame root"><g transform="translate(0,0)"><path class="background" d="M0,0h300v100h-300Z" style="fill: none; stroke: #ddd; stroke-width: 0;"></path><g><g class="mark-rect role-mark marks"><path d="M0.3658536585365937,95.625h6.585365853658537v4.375h-6.585365853658537Z" style="fill: #D2D4CE;"></path><path d="M7.682926829268301,94.625h6.585365853658537v5.375h-6.585365853658537Z" style="fill: #D2D4CE;"></path><path d="M15.000000000000009,94.625h6.585365853658537v5.375h-6.585365853658537Z" style="fill: #D2D4CE;"></path><path d="M22.317073170731717,92.5625h6.585365853658537v7.4375h-6.585365853658537Z" style="fill: #D2D4CE;"></path><path d="M29.634146341463424,91.3125h6.585365853658537v8.6875h-6.585365853658537Z" style="fill: #D2D4CE;"></path><path d="M36.95121951219513,91.125h6.585365853658537v8.875h-6.585365853658537Z" style="fill: #D2D4CE;"></path><path d="M44.26829268292684,88.5h6.585365853658537v11.5h-6.585365853658537Z" style="fill: #D2D4CE;"></path><path d="M51.585365853658544,87.1875h6.585365853658537v12.8125h-6.585365853658537Z" style="fill: #D2D4CE;"></path><path d="M58.902439024390254,87.0625h6.585365853658537v12.9375h-6.585365853658537Z" style="fill: #D2D4CE;"></path><path d="M66.21951219512196,86.625h6.585365853658537v13.375h-6.585365853658537Z" style="fill: #D2D4CE;"></path><path d="M73.53658536585367,86.5625h6.585365853658537v13.4375h-6.585365853658537Z" style="fill: #D2D4CE;"></path><path d="M80.85365853658537,83.1875h6.585365853658537v16.8125h-6.585365853658537Z" style="fill: #D2D4CE;"></path><path d="M88.17073170731709,82.9375h6.585365853658537v17.0625h-6.585365853658537Z" style="fill: #D2D4CE;"></path><path d="M95.48780487804879,82.75h6.585365853658537v17.25h-6.585365853658537Z" style="fill: #D2D4CE;"></path><path d="M102.8048780487805,82.6875h6.585365853658537v17.3125h-6.585365853658537Z" style="fill: #D2D4CE;"></path><path d="M110.12195121951221,82.3125h6.585365853658537v17.6875h-6.585365853658537Z" style="fill: #D2D4CE;"></path><path d="M117.43902439024392,82.0625h6.585365853658537v17.9375h-6.585365853658537Z" style="fill: #D2D4CE;"></path><path d="M124.75609756097562,81.9375h6.585365853658537v18.0625h-6.585365853658537Z" style="fill: #D2D4CE;"></path><path d="M132.07317073170734,81.9375h6.585365853658537v18.0625h-6.585365853658537Z" style="fill: #D2D4CE;"></path><path d="M139.39024390243904,80.875h6.585365853658537v19.125h-6.585365853658537Z" style="fill: #D2D4CE;"></path><path d="M146.70731707317074,78.5625h6.585365853658537v21.4375h-6.585365853658537Z" style="fill: #00923E;"></path><path d="M154.02439024390245,77.375h6.585365853658537v22.625h-6.585365853658537Z" style="fill: #D2D4CE;"></path><path d="M161.34146341463415,74.5625h6.585365853658537v25.4375h-6.585365853658537Z" style="fill: #D2D4CE;"></path><path d="M168.65853658536588,73.375h6.585365853658537v26.625h-6.585365853658537Z" style="fill: #D2D4CE;"></path><path d="M175.97560975609758,69.6875h6.585365853658537v30.3125h-6.585365853658537Z" style="fill: #D2D4CE;"></path><path d="M183.2926829268293,69.375h6.585365853658537v30.625h-6.585365853658537Z" style="fill: #D2D4CE;"></path><path d="M190.609756097561,66.375h6.585365853658537v33.625h-6.585365853658537Z" style="fill: #D2D4CE;"></path><path d="M197.9268292682927,62.375h6.585365853658537v37.625h-6.585365853658537Z" style="fill: #D2D4CE;"></path><path d="M205.2439024390244,60.75000000000001h6.585365853658537v39.24999999999999h-6.585365853658537Z" style="fill: #D2D4CE;"></path><path d="M212.56097560975613,60.62499999999999h6.585365853658537v39.37500000000001h-6.585365853658537Z" style="fill: #D2D4CE;"></path><path d="M219.87804878048783,58.18749999999999h6.585365853658537v41.81250000000001h-6.585365853658537Z" style="fill: #D2D4CE;"></path><path d="M227.19512195121953,53.37500000000001h6.585365853658537v46.62499999999999h-6.585365853658537Z" style="fill: #D2D4CE;"></path><path d="M234.51219512195124,46.56249999999999h6.585365853658537v53.43750000000001h-6.585365853658537Z" style="fill: #D2D4CE;"></path><path d="M241.82926829268294,39.5625h6.585365853658537v60.4375h-6.585365853658537Z" style="fill: #D2D4CE;"></path><path d="M249.14634146341464,37.375h6.585365853658537v62.625h-6.585365853658537Z" style="fill: #D2D4CE;"></path><path d="M256.4634146341464,32.62500000000001h6.585365853658537v67.375h-6.585365853658537Z" style="fill: #D2D4CE;"></path><path d="M263.7804878048781,30.000000000000004h6.585365853658537v70h-6.585365853658537Z" style="fill: #D2D4CE;"></path><path d="M271.0975609756098,24.124999999999996h6.585365853658537v75.875h-6.585365853658537Z" style="fill: #D2D4CE;"></path><path d="M278.4146341463415,21.9375h6.585365853658537v78.0625h-6.585365853658537Z" style="fill: #D2D4CE;"></path><path d="M285.7317073170732,18.6875h6.585365853658537v81.3125h-6.585365853658537Z" style="fill: #D2D4CE;"></path><path d="M293.0487804878049,11.562499999999998h6.585365853658537v88.4375h-6.585365853658537Z" style="fill: #D2D4CE;"></path></g></g><path class="foreground" d="" style="display: none; fill: none;"></path></g></g></g></svg>