<svg class="marks" preserveAspectRatio="none" width="310" height="110"  version="1.1" xmlns="http://www.w3.org/2000/svg" xmlns:xlink="http://www.w3.org/1999/xlink"><g transform="translate(5,5)"><g class="mark-group role-frame root"><g transform="translate(0,0)"><path class="background" d="M0,0h300v100h-300Z" style="fill: none; stroke: #ddd; stroke-width: 0;"></path><g><g class="mark-rect role-mark marks"><path d="M0.3658536585365937,93.57142857142857h6.585365853658537v6.428571428571431h-6.585365853658537Z" style="fill: #D2D4CE;"></path><path d="M7.682926829268301,93.21428571428572h6.585365853658537v6.785714285714278h-6.585365853658537Z" style="fill: #D2D4CE;"></path><path d="M15.000000000000009,93.10714285714286h6.585365853658537v6.892857142857139h-6.585365853658537Z" style="fill: #D2D4CE;"></path><path d="M22.317073170731717,91.96428571428571h6.585365853658537v8.035714285714292h-6.585365853658537Z" style="fill: #D2D4CE;"></path><path d="M29.634146341463424,91.21428571428571h6.585365853658537v8.785714285714292h-6.585365853658537Z" style="fill: #D2D4CE;"></path><path d="M36.95121951219513,89.14285714285714h6.585365853658537v10.857142857142861h-6.585365853658537Z" style="fill: #D2D4CE;"></path><path d="M44.26829268292684,86.96428571428572h6.585365853658537v13.035714285714278h-6.585365853658537Z" style="fill: #D2D4CE;"></path><path d="M51.585365853658544,85.82142857142857h6.585365853658537v14.17857142857143h-6.585365853658537Z" style="fill: #D2D4CE;"></path><path d="M58.902439024390254,84.53571428571429h6.585365853658537v15.464285714285708h-6.585365853658537Z" style="fill: #D2D4CE;"></path><path d="M66.21951219512196,83.5h6.585365853658537v16.5h-6.585365853658537Z" style="fill: #D2D4CE;"></path><path d="M73.53658536585367,83.07142857142857h6.585365853658537v16.92857142857143h-6.585365853658537Z" style="fill: #D2D4CE;"></path><path d="M80.85365853658537,83.07142857142857h6.585365853658537v16.92857142857143h-6.585365853658537Z" style="fill: #D2D4CE;"></path><path d="M88.17073170731709,80.42857142857143h6.585365853658537v19.57142857142857h-6.585365853658537Z" style="fill: #D2D4CE;"></path><path d="M95.48780487804879,79.78571428571428h6.585365853658537v20.214285714285722h-6.585365853658537Z" style="fill: #D2D4CE;"></path><path d="M102.8048780487805,79h6.585365853658537v21h-6.585365853658537Z" style="fill: #D2D4CE;"></path><path d="M110.12195121951221,78.53571428571429h6.585365853658537v21.464285714285708h-6.585365853658537Z" style="fill: #D2D4CE;"></path><path d="M117.43902439024392,78.35714285714286h6.585365853658537v21.64285714285714h-6.585365853658537Z" style="fill: #D2D4CE;"></path><path d="M124.75609756097562,78.14285714285714h6.585365853658537v21.85714285714286h-6.585365853658537Z" style="fill: #D2D4CE;"></path><path d="M132.07317073170734,77.64285714285715h6.585365853658537v22.357142857142847h-6.585365853658537Z" style="fill: #D2D4CE;"></path><path d="M139.39024390243904,75.75h6.585365853658537v24.25h-6.585365853658537Z" style="fill: #00923E;"></path><path d="M146.70731707317074,71.89285714285714h6.585365853658537v28.10714285714286h-6.585365853658537Z" style="fill: #D2D4CE;"></path><path d="M154.02439024390245,71.60714285714286h6.585365853658537v28.39285714285714h-6.585365853658537Z" style="fill: #D2D4CE;"></path><path d="M161.34146341463415,71.17857142857143h6.585365853658537v28.82142857142857h-6.585365853658537Z" style="fill: #D2D4CE;"></path><path d="M168.65853658536588,69.71428571428572h6.585365853658537v30.285714285714278h-6.585365853658537Z" style="fill: #D2D4CE;"></path><path d="M175.97560975609758,68.25h6.585365853658537v31.75h-6.585365853658537Z" style="fill: #D2D4CE;"></path><path d="M183.2926829268293,64.35714285714286h6.585365853658537v35.64285714285714h-6.585365853658537Z" style="fill: #D2D4CE;"></path><path d="M190.609756097561,62.25000000000001h6.585365853658537v37.74999999999999h-6.585365853658537Z" style="fill: #D2D4CE;"></path><path d="M197.9268292682927,61.46428571428571h6.585365853658537v38.53571428571429h-6.585365853658537Z" style="fill: #D2D4CE;"></path><path d="M205.2439024390244,57.392857142857146h6.585365853658537v42.607142857142854h-6.585365853658537Z" style="fill: #D2D4CE;"></path><path d="M212.56097560975613,55.39285714285713h6.585365853658537v44.60714285714287h-6.585365853658537Z" style="fill: #D2D4CE;"></path><path d="M219.87804878048783,53.107142857142854h6.585365853658537v46.892857142857146h-6.585365853658537Z" style="fill: #D2D4CE;"></path><path d="M227.19512195121953,48.92857142857143h6.585365853658537v51.07142857142857h-6.585365853658537Z" style="fill: #D2D4CE;"></path><path d="M234.51219512195124,48.10714285714285h6.585365853658537v51.89285714285715h-6.585365853658537Z" style="fill: #D2D4CE;"></path><path d="M241.82926829268294,41.57142857142857h6.585365853658537v58.42857142857143h-6.585365853658537Z" style="fill: #D2D4CE;"></path><path d="M249.14634146341464,37.89285714285714h6.585365853658537v62.10714285714286h-6.585365853658537Z" style="fill: #D2D4CE;"></path><path d="M256.4634146341464,32.92857142857143h6.585365853658537v67.07142857142857h-6.585365853658537Z" style="fill: #D2D4CE;"></path><path d="M263.7804878048781,28.714285714285715h6.585365853658537v71.28571428571428h-6.585365853658537Z" style="fill: #D2D4CE;"></path><path d="M271.0975609756098,21.142857142857142h6.585365853658537v78.85714285714286h-6.585365853658537Z" style="fill: #D2D4CE;"></path><path d="M278.4146341463415,19.64285714285714h6.585365853658537v80.35714285714286h-6.585365853658537Z" style="fill: #D2D4CE;"></path><path d="M285.7317073170732,18.35714285714286h6.585365853658537v81.64285714285714h-6.585365853658537Z" style="fill: #D2D4CE;"></path><path d="M293.0487804878049,6.321428571428567h6.585365853658537v93.67857142857143h-6.585365853658537Z" style="fill: #D2D4CE;"></path></g></g><path class="foreground" d="" style="display: none; fill: none;"></path></g></g></g></svg>