<svg class="marks" preserveAspectRatio="none" width="310" height="110"  version="1.1" xmlns="http://www.w3.org/2000/svg" xmlns:xlink="http://www.w3.org/1999/xlink"><g transform="translate(5,5)"><g class="mark-group role-frame root"><g transform="translate(0,0)"><path class="background" d="M0,0h300v100h-300Z" style="fill: none; stroke: #ddd; stroke-width: 0;"></path><g><g class="mark-rect role-mark marks"><path d="M0.3658536585365937,68h6.585365853658537v32h-6.585365853658537Z" style="fill: #D2D4CE;"></path><path d="M7.682926829268301,59.74999999999999h6.585365853658537v40.25000000000001h-6.585365853658537Z" style="fill: #D2D4CE;"></path><path d="M15.000000000000009,57.25h6.585365853658537v42.75h-6.585365853658537Z" style="fill: #D2D4CE;"></path><path d="M22.317073170731717,50.625h6.585365853658537v49.375h-6.585365853658537Z" style="fill: #00923E;"></path><path d="M29.634146341463424,47h6.585365853658537v53h-6.585365853658537Z" style="fill: #D2D4CE;"></path><path d="M36.95121951219513,46.375h6.585365853658537v53.625h-6.585365853658537Z" style="fill: #D2D4CE;"></path><path d="M44.26829268292684,44.75h6.585365853658537v55.25h-6.585365853658537Z" style="fill: #D2D4CE;"></path><path d="M51.585365853658544,39.125h6.585365853658537v60.875h-6.585365853658537Z" style="fill: #D2D4CE;"></path><path d="M58.902439024390254,38.87500000000001h6.585365853658537v61.12499999999999h-6.585365853658537Z" style="fill: #D2D4CE;"></path><path d="M66.21951219512196,36.625h6.585365853658537v63.375h-6.585365853658537Z" style="fill: #D2D4CE;"></path><path d="M73.53658536585367,36.12499999999999h6.585365853658537v63.87500000000001h-6.585365853658537Z" style="fill: #D2D4CE;"></path><path d="M80.85365853658537,36h6.585365853658537v64h-6.585365853658537Z" style="fill: #D2D4CE;"></path><path d="M88.17073170731709,34.5h6.585365853658537v65.5h-6.585365853658537Z" style="fill: #D2D4CE;"></path><path d="M95.48780487804879,33.12500000000001h6.585365853658537v66.875h-6.585365853658537Z" style="fill: #D2D4CE;"></path><path d="M102.8048780487805,31.624999999999993h6.585365853658537v68.375h-6.585365853658537Z" style="fill: #D2D4CE;"></path><path d="M110.12195121951221,30.625000000000004h6.585365853658537v69.375h-6.585365853658537Z" style="fill: #D2D4CE;"></path><path d="M117.43902439024392,29.625h6.585365853658537v70.375h-6.585365853658537Z" style="fill: #D2D4CE;"></path><path d="M124.75609756097562,27.625h6.585365853658537v72.375h-6.585365853658537Z" style="fill: #D2D4CE;"></path><path d="M132.07317073170734,27h6.585365853658537v73h-6.585365853658537Z" style="fill: #D2D4CE;"></path><path d="M139.39024390243904,25.750000000000007h6.585365853658537v74.25h-6.585365853658537Z" style="fill: #D2D4CE;"></path><path d="M146.70731707317074,25.624999999999996h6.585365853658537v74.375h-6.585365853658537Z" style="fill: #D2D4CE;"></path><path d="M154.02439024390245,25h6.585365853658537v75h-6.585365853658537Z" style="fill: #D2D4CE;"></path><path d="M161.34146341463415,24.5h6.585365853658537v75.5h-6.585365853658537Z" style="fill: #D2D4CE;"></path><path d="M168.65853658536588,24.375000000000004h6.585365853658537v75.625h-6.585365853658537Z" style="fill: #D2D4CE;"></path><path d="M175.97560975609758,24.249999999999993h6.585365853658537v75.75h-6.585365853658537Z" style="fill: #D2D4CE;"></path><path d="M183.2926829268293,23.875h6.585365853658537v76.125h-6.585365853658537Z" style="fill: #D2D4CE;"></path><path d="M190.609756097561,23.375h6.585365853658537v76.625h-6.585365853658537Z" style="fill: #D2D4CE;"></path><path d="M197.9268292682927,22.499999999999996h6.585365853658537v77.5h-6.585365853658537Z" style="fill: #D2D4CE;"></path><path d="M205.2439024390244,20.75h6.585365853658537v79.25h-6.585365853658537Z" style="fill: #D2D4CE;"></path><path d="M212.56097560975613,20.499999999999996h6.585365853658537v79.5h-6.585365853658537Z" style="fill: #D2D4CE;"></path><path d="M219.87804878048783,18.625000000000004h6.585365853658537v81.375h-6.585365853658537Z" style="fill: #D2D4CE;"></path><path d="M227.19512195121953,16.625h6.585365853658537v83.375h-6.585365853658537Z" style="fill: #D2D4CE;"></path><path d="M234.51219512195124,15.999999999999993h6.585365853658537v84h-6.585365853658537Z" style="fill: #D2D4CE;"></path><path d="M241.82926829268294,15.625h6.585365853658537v84.375h-6.585365853658537Z" style="fill: #D2D4CE;"></path><path d="M249.14634146341464,15.250000000000007h6.585365853658537v84.75h-6.585365853658537Z" style="fill: #D2D4CE;"></path><path d="M256.4634146341464,13.249999999999995h6.585365853658537v86.75h-6.585365853658537Z" style="fill: #D2D4CE;"></path><path d="M263.7804878048781,9.87500000000001h6.585365853658537v90.12499999999999h-6.585365853658537Z" style="fill: #D2D4CE;"></path><path d="M271.0975609756098,9.000000000000007h6.585365853658537v91h-6.585365853658537Z" style="fill: #D2D4CE;"></path><path d="M278.4146341463415,5.625000000000002h6.585365853658537v94.375h-6.585365853658537Z" style="fill: #D2D4CE;"></path><path d="M285.7317073170732,4.374999999999996h6.585365853658537v95.625h-6.585365853658537Z" style="fill: #D2D4CE;"></path><path d="M293.0487804878049,1.9999999999999907h6.585365853658537v98.00000000000001h-6.585365853658537Z" style="fill: #D2D4CE;"></path></g></g><path class="foreground" d="" style="display: none; fill: none;"></path></g></g></g></svg>