<svg class="marks" preserveAspectRatio="none" width="310" height="110"  version="1.1" xmlns="http://www.w3.org/2000/svg" xmlns:xlink="http://www.w3.org/1999/xlink"><g transform="translate(5,5)"><g class="mark-group role-frame root"><g transform="translate(0,0)"><path class="background" d="M0,0h300v100h-300Z" style="fill: none; stroke: #ddd; stroke-width: 0;"></path><g><g class="mark-rect role-mark marks"><path d="M0.3658536585365937,97.55555555555556h6.585365853658537v2.444444444444443h-6.585365853658537Z" style="fill: #D2D4CE;"></path><path d="M7.682926829268301,77.55555555555556h6.585365853658537v22.444444444444443h-6.585365853658537Z" style="fill: #D2D4CE;"></path><path d="M15.000000000000009,70.22222222222221h6.585365853658537v29.777777777777786h-6.585365853658537Z" style="fill: #D2D4CE;"></path><path d="M22.317073170731717,70.22222222222221h6.585365853658537v29.777777777777786h-6.585365853658537Z" style="fill: #D2D4CE;"></path><path d="M29.634146341463424,67.33333333333333h6.585365853658537v32.66666666666667h-6.585365853658537Z" style="fill: #D2D4CE;"></path><path d="M36.95121951219513,66.88888888888889h6.585365853658537v33.111111111111114h-6.585365853658537Z" style="fill: #D2D4CE;"></path><path d="M44.26829268292684,63.77777777777778h6.585365853658537v36.22222222222222h-6.585365853658537Z" style="fill: #D2D4CE;"></path><path d="M51.585365853658544,62h6.585365853658537v38h-6.585365853658537Z" style="fill: #D2D4CE;"></path><path d="M58.902439024390254,61.77777777777778h6.585365853658537v38.22222222222222h-6.585365853658537Z" style="fill: #D2D4CE;"></path><path d="M66.21951219512196,60.22222222222222h6.585365853658537v39.77777777777778h-6.585365853658537Z" style="fill: #D2D4CE;"></path><path d="M73.53658536585367,56.222222222222214h6.585365853658537v43.777777777777786h-6.585365853658537Z" style="fill: #D2D4CE;"></path><path d="M80.85365853658537,56.222222222222214h6.585365853658537v43.777777777777786h-6.585365853658537Z" style="fill: #D2D4CE;"></path><path d="M88.17073170731709,53.11111111111111h6.585365853658537v46.88888888888889h-6.585365853658537Z" style="fill: #D2D4CE;"></path><path d="M95.48780487804879,51.55555555555556h6.585365853658537v48.44444444444444h-6.585365853658537Z" style="fill: #D2D4CE;"></path><path d="M102.8048780487805,50.44444444444445h6.585365853658537v49.55555555555555h-6.585365853658537Z" style="fill: #D2D4CE;"></path><path d="M110.12195121951221,50h6.585365853658537v50h-6.585365853658537Z" style="fill: #D2D4CE;"></path><path d="M117.43902439024392,49.55555555555555h6.585365853658537v50.44444444444445h-6.585365853658537Z" style="fill: #D2D4CE;"></path><path d="M124.75609756097562,48.66666666666666h6.585365853658537v51.33333333333334h-6.585365853658537Z" style="fill: #D2D4CE;"></path><path d="M132.07317073170734,47.77777777777777h6.585365853658537v52.22222222222223h-6.585365853658537Z" style="fill: #D2D4CE;"></path><path d="M139.39024390243904,47.333333333333336h6.585365853658537v52.666666666666664h-6.585365853658537Z" style="fill: #D2D4CE;"></path><path d="M146.70731707317074,46.666666666666664h6.585365853658537v53.333333333333336h-6.585365853658537Z" style="fill: #00923E;"></path><path d="M154.02439024390245,45.777777777777786h6.585365853658537v54.222222222222214h-6.585365853658537Z" style="fill: #D2D4CE;"></path><path d="M161.34146341463415,44.888888888888886h6.585365853658537v55.111111111111114h-6.585365853658537Z" style="fill: #D2D4CE;"></path><path d="M168.65853658536588,41.55555555555556h6.585365853658537v58.44444444444444h-6.585365853658537Z" style="fill: #D2D4CE;"></path><path d="M175.97560975609758,41.333333333333336h6.585365853658537v58.666666666666664h-6.585365853658537Z" style="fill: #D2D4CE;"></path><path d="M183.2926829268293,38.888888888888886h6.585365853658537v61.111111111111114h-6.585365853658537Z" style="fill: #D2D4CE;"></path><path d="M190.609756097561,38h6.585365853658537v62h-6.585365853658537Z" style="fill: #D2D4CE;"></path><path d="M197.9268292682927,36.44444444444444h6.585365853658537v63.55555555555556h-6.585365853658537Z" style="fill: #D2D4CE;"></path><path d="M205.2439024390244,35.55555555555555h6.585365853658537v64.44444444444446h-6.585365853658537Z" style="fill: #D2D4CE;"></path><path d="M212.56097560975613,31.999999999999996h6.585365853658537v68h-6.585365853658537Z" style="fill: #D2D4CE;"></path><path d="M219.87804878048783,29.555555555555557h6.585365853658537v70.44444444444444h-6.585365853658537Z" style="fill: #D2D4CE;"></path><path d="M227.19512195121953,28.888888888888886h6.585365853658537v71.11111111111111h-6.585365853658537Z" style="fill: #D2D4CE;"></path><path d="M234.51219512195124,25.555555555555554h6.585365853658537v74.44444444444444h-6.585365853658537Z" style="fill: #D2D4CE;"></path><path d="M241.82926829268294,25.111111111111107h6.585365853658537v74.88888888888889h-6.585365853658537Z" style="fill: #D2D4CE;"></path><path d="M249.14634146341464,24.66666666666667h6.585365853658537v75.33333333333333h-6.585365853658537Z" style="fill: #D2D4CE;"></path><path d="M256.4634146341464,19.77777777777777h6.585365853658537v80.22222222222223h-6.585365853658537Z" style="fill: #D2D4CE;"></path><path d="M263.7804878048781,18.88888888888889h6.585365853658537v81.11111111111111h-6.585365853658537Z" style="fill: #D2D4CE;"></path><path d="M271.0975609756098,18.88888888888889h6.585365853658537v81.11111111111111h-6.585365853658537Z" style="fill: #D2D4CE;"></path><path d="M278.4146341463415,15.555555555555555h6.585365853658537v84.44444444444444h-6.585365853658537Z" style="fill: #D2D4CE;"></path><path d="M285.7317073170732,10.222222222222221h6.585365853658537v89.77777777777777h-6.585365853658537Z" style="fill: #D2D4CE;"></path><path d="M293.0487804878049,0.22222222222222365h6.585365853658537v99.77777777777777h-6.585365853658537Z" style="fill: #D2D4CE;"></path></g></g><path class="foreground" d="" style="display: none; fill: none;"></path></g></g></g></svg>