<svg class="marks" preserveAspectRatio="none" width="310" height="110"  version="1.1" xmlns="http://www.w3.org/2000/svg" xmlns:xlink="http://www.w3.org/1999/xlink"><g transform="translate(5,5)"><g class="mark-group role-frame root"><g transform="translate(0,0)"><path class="background" d="M0,0h300v100h-300Z" style="fill: none; stroke: #ddd; stroke-width: 0;"></path><g><g class="mark-rect role-mark marks"><path d="M0.3658536585365937,94.45454545454545h6.585365853658537v5.545454545454547h-6.585365853658537Z" style="fill: #D2D4CE;"></path><path d="M7.682926829268301,93.77272727272728h6.585365853658537v6.2272727272727195h-6.585365853658537Z" style="fill: #D2D4CE;"></path><path d="M15.000000000000009,93.54545454545455h6.585365853658537v6.454545454545453h-6.585365853658537Z" style="fill: #D2D4CE;"></path><path d="M22.317073170731717,92.81818181818183h6.585365853658537v7.181818181818173h-6.585365853658537Z" style="fill: #D2D4CE;"></path><path d="M29.634146341463424,92.36363636363636h6.585365853658537v7.63636363636364h-6.585365853658537Z" style="fill: #D2D4CE;"></path><path d="M36.95121951219513,91.54545454545455h6.585365853658537v8.454545454545453h-6.585365853658537Z" style="fill: #D2D4CE;"></path><path d="M44.26829268292684,91.45454545454545h6.585365853658537v8.545454545454547h-6.585365853658537Z" style="fill: #D2D4CE;"></path><path d="M51.585365853658544,87.54545454545455h6.585365853658537v12.454545454545453h-6.585365853658537Z" style="fill: #D2D4CE;"></path><path d="M58.902439024390254,86.63636363636364h6.585365853658537v13.36363636363636h-6.585365853658537Z" style="fill: #D2D4CE;"></path><path d="M66.21951219512196,85.72727272727273h6.585365853658537v14.272727272727266h-6.585365853658537Z" style="fill: #D2D4CE;"></path><path d="M73.53658536585367,85.36363636363636h6.585365853658537v14.63636363636364h-6.585365853658537Z" style="fill: #D2D4CE;"></path><path d="M80.85365853658537,84.36363636363636h6.585365853658537v15.63636363636364h-6.585365853658537Z" style="fill: #D2D4CE;"></path><path d="M88.17073170731709,83.9090909090909h6.585365853658537v16.090909090909093h-6.585365853658537Z" style="fill: #D2D4CE;"></path><path d="M95.48780487804879,83.54545454545455h6.585365853658537v16.454545454545453h-6.585365853658537Z" style="fill: #D2D4CE;"></path><path d="M102.8048780487805,82.04545454545455h6.585365853658537v17.954545454545453h-6.585365853658537Z" style="fill: #D2D4CE;"></path><path d="M110.12195121951221,80.45454545454545h6.585365853658537v19.545454545454547h-6.585365853658537Z" style="fill: #D2D4CE;"></path><path d="M117.43902439024392,79.77272727272727h6.585365853658537v20.227272727272734h-6.585365853658537Z" style="fill: #D2D4CE;"></path><path d="M124.75609756097562,79.04545454545455h6.585365853658537v20.954545454545453h-6.585365853658537Z" style="fill: #D2D4CE;"></path><path d="M132.07317073170734,78.9090909090909h6.585365853658537v21.090909090909093h-6.585365853658537Z" style="fill: #D2D4CE;"></path><path d="M139.39024390243904,77.5h6.585365853658537v22.5h-6.585365853658537Z" style="fill: #D2D4CE;"></path><path d="M146.70731707317074,76.40909090909092h6.585365853658537v23.59090909090908h-6.585365853658537Z" style="fill: #D2D4CE;"></path><path d="M154.02439024390245,75.63636363636364h6.585365853658537v24.36363636363636h-6.585365853658537Z" style="fill: #D2D4CE;"></path><path d="M161.34146341463415,75h6.585365853658537v25h-6.585365853658537Z" style="fill: #D2D4CE;"></path><path d="M168.65853658536588,72.63636363636363h6.585365853658537v27.363636363636374h-6.585365853658537Z" style="fill: #D2D4CE;"></path><path d="M175.97560975609758,70.0909090909091h6.585365853658537v29.909090909090907h-6.585365853658537Z" style="fill: #D2D4CE;"></path><path d="M183.2926829268293,69.59090909090908h6.585365853658537v30.40909090909092h-6.585365853658537Z" style="fill: #D2D4CE;"></path><path d="M190.609756097561,68.36363636363636h6.585365853658537v31.63636363636364h-6.585365853658537Z" style="fill: #D2D4CE;"></path><path d="M197.9268292682927,62.909090909090914h6.585365853658537v37.090909090909086h-6.585365853658537Z" style="fill: #D2D4CE;"></path><path d="M205.2439024390244,61.72727272727272h6.585365853658537v38.27272727272728h-6.585365853658537Z" style="fill: #D2D4CE;"></path><path d="M212.56097560975613,53.54545454545454h6.585365853658537v46.45454545454546h-6.585365853658537Z" style="fill: #D2D4CE;"></path><path d="M219.87804878048783,52.18181818181817h6.585365853658537v47.81818181818183h-6.585365853658537Z" style="fill: #D2D4CE;"></path><path d="M227.19512195121953,50.95454545454545h6.585365853658537v49.04545454545455h-6.585365853658537Z" style="fill: #D2D4CE;"></path><path d="M234.51219512195124,50.63636363636363h6.585365853658537v49.36363636363637h-6.585365853658537Z" style="fill: #00923E;"></path><path d="M241.82926829268294,46.18181818181818h6.585365853658537v53.81818181818182h-6.585365853658537Z" style="fill: #D2D4CE;"></path><path d="M249.14634146341464,43.363636363636374h6.585365853658537v56.636363636363626h-6.585365853658537Z" style="fill: #D2D4CE;"></path><path d="M256.4634146341464,30.181818181818187h6.585365853658537v69.81818181818181h-6.585365853658537Z" style="fill: #D2D4CE;"></path><path d="M263.7804878048781,24.00000000000001h6.585365853658537v75.99999999999999h-6.585365853658537Z" style="fill: #D2D4CE;"></path><path d="M271.0975609756098,14.27272727272727h6.585365853658537v85.72727272727273h-6.585365853658537Z" style="fill: #D2D4CE;"></path><path d="M278.4146341463415,12.22727272727273h6.585365853658537v87.77272727272727h-6.585365853658537Z" style="fill: #D2D4CE;"></path><path d="M285.7317073170732,11.50000000000001h6.585365853658537v88.49999999999999h-6.585365853658537Z" style="fill: #D2D4CE;"></path><path d="M293.0487804878049,2.0454545454545503h6.585365853658537v97.95454545454545h-6.585365853658537Z" style="fill: #D2D4CE;"></path></g></g><path class="foreground" d="" style="display: none; fill: none;"></path></g></g></g></svg>