<svg class="marks" preserveAspectRatio="none" width="310" height="110"  version="1.1" xmlns="http://www.w3.org/2000/svg" xmlns:xlink="http://www.w3.org/1999/xlink"><g transform="translate(5,5)"><g class="mark-group role-frame root"><g transform="translate(0,0)"><path class="background" d="M0,0h300v100h-300Z" style="fill: none; stroke: #ddd; stroke-width: 0;"></path><g><g class="mark-rect role-mark marks"><path d="M0.3658536585365937,86.22222222222223h6.585365853658537v13.777777777777771h-6.585365853658537Z" style="fill: #D2D4CE;"></path><path d="M7.682926829268301,84.93333333333332h6.585365853658537v15.066666666666677h-6.585365853658537Z" style="fill: #D2D4CE;"></path><path d="M15.000000000000009,83h6.585365853658537v17h-6.585365853658537Z" style="fill: #D2D4CE;"></path><path d="M22.317073170731717,80.88888888888889h6.585365853658537v19.111111111111114h-6.585365853658537Z" style="fill: #D2D4CE;"></path><path d="M29.634146341463424,80.42222222222222h6.585365853658537v19.577777777777783h-6.585365853658537Z" style="fill: #D2D4CE;"></path><path d="M36.95121951219513,78.73333333333333h6.585365853658537v21.266666666666666h-6.585365853658537Z" style="fill: #D2D4CE;"></path><path d="M44.26829268292684,78.35555555555555h6.585365853658537v21.644444444444446h-6.585365853658537Z" style="fill: #D2D4CE;"></path><path d="M51.585365853658544,77.57777777777778h6.585365853658537v22.422222222222217h-6.585365853658537Z" style="fill: #D2D4CE;"></path><path d="M58.902439024390254,75.1111111111111h6.585365853658537v24.8888888888889h-6.585365853658537Z" style="fill: #D2D4CE;"></path><path d="M66.21951219512196,75.06666666666666h6.585365853658537v24.933333333333337h-6.585365853658537Z" style="fill: #D2D4CE;"></path><path d="M73.53658536585367,70.77777777777779h6.585365853658537v29.222222222222214h-6.585365853658537Z" style="fill: #D2D4CE;"></path><path d="M80.85365853658537,70.44444444444444h6.585365853658537v29.555555555555557h-6.585365853658537Z" style="fill: #D2D4CE;"></path><path d="M88.17073170731709,70.08888888888889h6.585365853658537v29.91111111111111h-6.585365853658537Z" style="fill: #D2D4CE;"></path><path d="M95.48780487804879,69.95555555555555h6.585365853658537v30.04444444444445h-6.585365853658537Z" style="fill: #D2D4CE;"></path><path d="M102.8048780487805,67.53333333333333h6.585365853658537v32.46666666666667h-6.585365853658537Z" style="fill: #D2D4CE;"></path><path d="M110.12195121951221,66.95555555555556h6.585365853658537v33.04444444444444h-6.585365853658537Z" style="fill: #D2D4CE;"></path><path d="M117.43902439024392,66.88888888888889h6.585365853658537v33.111111111111114h-6.585365853658537Z" style="fill: #D2D4CE;"></path><path d="M124.75609756097562,66.62222222222223h6.585365853658537v33.377777777777766h-6.585365853658537Z" style="fill: #D2D4CE;"></path><path d="M132.07317073170734,66.24444444444444h6.585365853658537v33.75555555555556h-6.585365853658537Z" style="fill: #D2D4CE;"></path><path d="M139.39024390243904,64.75555555555556h6.585365853658537v35.24444444444444h-6.585365853658537Z" style="fill: #D2D4CE;"></path><path d="M146.70731707317074,64.26666666666667h6.585365853658537v35.733333333333334h-6.585365853658537Z" style="fill: #D2D4CE;"></path><path d="M154.02439024390245,62.15555555555555h6.585365853658537v37.84444444444445h-6.585365853658537Z" style="fill: #D2D4CE;"></path><path d="M161.34146341463415,58.51111111111111h6.585365853658537v41.48888888888889h-6.585365853658537Z" style="fill: #D2D4CE;"></path><path d="M168.65853658536588,57.08888888888889h6.585365853658537v42.91111111111111h-6.585365853658537Z" style="fill: #D2D4CE;"></path><path d="M175.97560975609758,56.71111111111111h6.585365853658537v43.28888888888889h-6.585365853658537Z" style="fill: #D2D4CE;"></path><path d="M183.2926829268293,52.55555555555556h6.585365853658537v47.44444444444444h-6.585365853658537Z" style="fill: #D2D4CE;"></path><path d="M190.609756097561,50.82222222222222h6.585365853658537v49.17777777777778h-6.585365853658537Z" style="fill: #D2D4CE;"></path><path d="M197.9268292682927,49.355555555555554h6.585365853658537v50.644444444444446h-6.585365853658537Z" style="fill: #D2D4CE;"></path><path d="M205.2439024390244,49.24444444444445h6.585365853658537v50.75555555555555h-6.585365853658537Z" style="fill: #D2D4CE;"></path><path d="M212.56097560975613,47.77777777777777h6.585365853658537v52.22222222222223h-6.585365853658537Z" style="fill: #D2D4CE;"></path><path d="M219.87804878048783,42.39999999999999h6.585365853658537v57.60000000000001h-6.585365853658537Z" style="fill: #D2D4CE;"></path><path d="M227.19512195121953,40.64444444444444h6.585365853658537v59.35555555555556h-6.585365853658537Z" style="fill: #D2D4CE;"></path><path d="M234.51219512195124,36.66666666666667h6.585365853658537v63.33333333333333h-6.585365853658537Z" style="fill: #D2D4CE;"></path><path d="M241.82926829268294,36.53333333333334h6.585365853658537v63.46666666666666h-6.585365853658537Z" style="fill: #00923E;"></path><path d="M249.14634146341464,33.400000000000006h6.585365853658537v66.6h-6.585365853658537Z" style="fill: #D2D4CE;"></path><path d="M256.4634146341464,32.15555555555555h6.585365853658537v67.84444444444445h-6.585365853658537Z" style="fill: #D2D4CE;"></path><path d="M263.7804878048781,27.64444444444444h6.585365853658537v72.35555555555555h-6.585365853658537Z" style="fill: #D2D4CE;"></path><path d="M271.0975609756098,23.755555555555553h6.585365853658537v76.24444444444444h-6.585365853658537Z" style="fill: #D2D4CE;"></path><path d="M278.4146341463415,14.066666666666661h6.585365853658537v85.93333333333334h-6.585365853658537Z" style="fill: #D2D4CE;"></path><path d="M285.7317073170732,12.644444444444435h6.585365853658537v87.35555555555557h-6.585365853658537Z" style="fill: #D2D4CE;"></path><path d="M293.0487804878049,8.066666666666677h6.585365853658537v91.93333333333332h-6.585365853658537Z" style="fill: #D2D4CE;"></path></g></g><path class="foreground" d="" style="display: none; fill: none;"></path></g></g></g></svg>