<svg class="marks" preserveAspectRatio="none" width="310" height="110"  version="1.1" xmlns="http://www.w3.org/2000/svg" xmlns:xlink="http://www.w3.org/1999/xlink"><g transform="translate(5,5)"><g class="mark-group role-frame root"><g transform="translate(0,0)"><path class="background" d="M0,0h300v100h-300Z" style="fill: none; stroke: #ddd; stroke-width: 0;"></path><g><g class="mark-rect role-mark marks"><path d="M7.682926829268301,99h6.585365853658537v1h-6.585365853658537Z" style="fill: #D2D4CE;"></path><path d="M15.000000000000009,95h6.585365853658537v5h-6.585365853658537Z" style="fill: #D2D4CE;"></path><path d="M22.317073170731717,93h6.585365853658537v7h-6.585365853658537Z" style="fill: #D2D4CE;"></path><path d="M29.634146341463424,89h6.585365853658537v11h-6.585365853658537Z" style="fill: #D2D4CE;"></path><path d="M36.95121951219513,86h6.585365853658537v14h-6.585365853658537Z" style="fill: #D2D4CE;"></path><path d="M44.26829268292684,84h6.585365853658537v16h-6.585365853658537Z" style="fill: #D2D4CE;"></path><path d="M51.585365853658544,84h6.585365853658537v16h-6.585365853658537Z" style="fill: #D2D4CE;"></path><path d="M58.902439024390254,82h6.585365853658537v18h-6.585365853658537Z" style="fill: #D2D4CE;"></path><path d="M66.21951219512196,82h6.585365853658537v18h-6.585365853658537Z" style="fill: #D2D4CE;"></path><path d="M73.53658536585367,80h6.585365853658537v20h-6.585365853658537Z" style="fill: #D2D4CE;"></path><path d="M80.85365853658537,80h6.585365853658537v20h-6.585365853658537Z" style="fill: #D2D4CE;"></path><path d="M88.17073170731709,79h6.585365853658537v21h-6.585365853658537Z" style="fill: #D2D4CE;"></path><path d="M95.48780487804879,79h6.585365853658537v21h-6.585365853658537Z" style="fill: #D2D4CE;"></path><path d="M102.8048780487805,78h6.585365853658537v22h-6.585365853658537Z" style="fill: #D2D4CE;"></path><path d="M110.12195121951221,77h6.585365853658537v23h-6.585365853658537Z" style="fill: #D2D4CE;"></path><path d="M117.43902439024392,76h6.585365853658537v24h-6.585365853658537Z" style="fill: #D2D4CE;"></path><path d="M124.75609756097562,75h6.585365853658537v25h-6.585365853658537Z" style="fill: #D2D4CE;"></path><path d="M132.07317073170734,73h6.585365853658537v27h-6.585365853658537Z" style="fill: #00923E;"></path><path d="M139.39024390243904,71h6.585365853658537v29h-6.585365853658537Z" style="fill: #D2D4CE;"></path><path d="M146.70731707317074,70h6.585365853658537v30h-6.585365853658537Z" style="fill: #D2D4CE;"></path><path d="M154.02439024390245,70h6.585365853658537v30h-6.585365853658537Z" style="fill: #D2D4CE;"></path><path d="M161.34146341463415,64h6.585365853658537v36h-6.585365853658537Z" style="fill: #D2D4CE;"></path><path d="M168.65853658536588,57.00000000000001h6.585365853658537v42.99999999999999h-6.585365853658537Z" style="fill: #D2D4CE;"></path><path d="M175.97560975609758,55.99999999999999h6.585365853658537v44.00000000000001h-6.585365853658537Z" style="fill: #D2D4CE;"></path><path d="M183.2926829268293,52h6.585365853658537v48h-6.585365853658537Z" style="fill: #D2D4CE;"></path><path d="M190.609756097561,51h6.585365853658537v49h-6.585365853658537Z" style="fill: #D2D4CE;"></path><path d="M197.9268292682927,50h6.585365853658537v50h-6.585365853658537Z" style="fill: #D2D4CE;"></path><path d="M205.2439024390244,48h6.585365853658537v52h-6.585365853658537Z" style="fill: #D2D4CE;"></path><path d="M212.56097560975613,44.99999999999999h6.585365853658537v55.00000000000001h-6.585365853658537Z" style="fill: #D2D4CE;"></path><path d="M219.87804878048783,40.99999999999999h6.585365853658537v59.00000000000001h-6.585365853658537Z" style="fill: #D2D4CE;"></path><path d="M227.19512195121953,40h6.585365853658537v60h-6.585365853658537Z" style="fill: #D2D4CE;"></path><path d="M234.51219512195124,35h6.585365853658537v65h-6.585365853658537Z" style="fill: #D2D4CE;"></path><path d="M241.82926829268294,32.99999999999999h6.585365853658537v67h-6.585365853658537Z" style="fill: #D2D4CE;"></path><path d="M249.14634146341464,32.00000000000001h6.585365853658537v68h-6.585365853658537Z" style="fill: #D2D4CE;"></path><path d="M256.4634146341464,29.000000000000004h6.585365853658537v71h-6.585365853658537Z" style="fill: #D2D4CE;"></path><path d="M263.7804878048781,29.000000000000004h6.585365853658537v71h-6.585365853658537Z" style="fill: #D2D4CE;"></path><path d="M271.0975609756098,21.999999999999996h6.585365853658537v78h-6.585365853658537Z" style="fill: #D2D4CE;"></path><path d="M278.4146341463415,18.000000000000004h6.585365853658537v82h-6.585365853658537Z" style="fill: #D2D4CE;"></path><path d="M285.7317073170732,14.000000000000002h6.585365853658537v86h-6.585365853658537Z" style="fill: #D2D4CE;"></path><path d="M293.0487804878049,1.0000000000000009h6.585365853658537v99h-6.585365853658537Z" style="fill: #D2D4CE;"></path></g></g><path class="foreground" d="" style="display: none; fill: none;"></path></g></g></g></svg>