<svg class="marks" preserveAspectRatio="none" width="310" height="110"  version="1.1" xmlns="http://www.w3.org/2000/svg" xmlns:xlink="http://www.w3.org/1999/xlink"><g transform="translate(5,5)"><g class="mark-group role-frame root"><g transform="translate(0,0)"><path class="background" d="M0,0h300v100h-300Z" style="fill: none; stroke: #ddd; stroke-width: 0;"></path><g><g class="mark-rect role-mark marks"><path d="M0.3658536585365937,82.88571428571429h6.585365853658537v17.114285714285714h-6.585365853658537Z" style="fill: #D2D4CE;"></path><path d="M7.682926829268301,79.08571428571427h6.585365853658537v20.914285714285725h-6.585365853658537Z" style="fill: #D2D4CE;"></path><path d="M15.000000000000009,76.65714285714286h6.585365853658537v23.34285714285714h-6.585365853658537Z" style="fill: #D2D4CE;"></path><path d="M22.317073170731717,76.57142857142857h6.585365853658537v23.42857142857143h-6.585365853658537Z" style="fill: #D2D4CE;"></path><path d="M29.634146341463424,74.62857142857142h6.585365853658537v25.37142857142858h-6.585365853658537Z" style="fill: #D2D4CE;"></path><path d="M36.95121951219513,72.8h6.585365853658537v27.200000000000003h-6.585365853658537Z" style="fill: #D2D4CE;"></path><path d="M44.26829268292684,71.5142857142857h6.585365853658537v28.485714285714295h-6.585365853658537Z" style="fill: #D2D4CE;"></path><path d="M51.585365853658544,69.45714285714286h6.585365853658537v30.542857142857144h-6.585365853658537Z" style="fill: #D2D4CE;"></path><path d="M58.902439024390254,69.39999999999999h6.585365853658537v30.60000000000001h-6.585365853658537Z" style="fill: #D2D4CE;"></path><path d="M66.21951219512196,66.82857142857144h6.585365853658537v33.171428571428564h-6.585365853658537Z" style="fill: #00923E;"></path><path d="M73.53658536585367,65.82857142857144h6.585365853658537v34.171428571428564h-6.585365853658537Z" style="fill: #D2D4CE;"></path><path d="M80.85365853658537,64.91428571428571h6.585365853658537v35.08571428571429h-6.585365853658537Z" style="fill: #D2D4CE;"></path><path d="M88.17073170731709,63.74285714285715h6.585365853658537v36.25714285714285h-6.585365853658537Z" style="fill: #D2D4CE;"></path><path d="M95.48780487804879,63.42857142857143h6.585365853658537v36.57142857142857h-6.585365853658537Z" style="fill: #D2D4CE;"></path><path d="M102.8048780487805,62.828571428571436h6.585365853658537v37.171428571428564h-6.585365853658537Z" style="fill: #D2D4CE;"></path><path d="M110.12195121951221,60.82857142857143h6.585365853658537v39.17142857142857h-6.585365853658537Z" style="fill: #D2D4CE;"></path><path d="M117.43902439024392,57.971428571428575h6.585365853658537v42.028571428571425h-6.585365853658537Z" style="fill: #D2D4CE;"></path><path d="M124.75609756097562,57.14285714285714h6.585365853658537v42.85714285714286h-6.585365853658537Z" style="fill: #D2D4CE;"></path><path d="M132.07317073170734,56.74285714285714h6.585365853658537v43.25714285714286h-6.585365853658537Z" style="fill: #D2D4CE;"></path><path d="M139.39024390243904,56.25714285714286h6.585365853658537v43.74285714285714h-6.585365853658537Z" style="fill: #D2D4CE;"></path><path d="M146.70731707317074,55.91428571428572h6.585365853658537v44.08571428571428h-6.585365853658537Z" style="fill: #D2D4CE;"></path><path d="M154.02439024390245,55.028571428571425h6.585365853658537v44.971428571428575h-6.585365853658537Z" style="fill: #D2D4CE;"></path><path d="M161.34146341463415,54.94285714285715h6.585365853658537v45.05714285714285h-6.585365853658537Z" style="fill: #D2D4CE;"></path><path d="M168.65853658536588,53.91428571428571h6.585365853658537v46.08571428571429h-6.585365853658537Z" style="fill: #D2D4CE;"></path><path d="M175.97560975609758,53.25714285714286h6.585365853658537v46.74285714285714h-6.585365853658537Z" style="fill: #D2D4CE;"></path><path d="M183.2926829268293,48.199999999999996h6.585365853658537v51.800000000000004h-6.585365853658537Z" style="fill: #D2D4CE;"></path><path d="M190.609756097561,45.14285714285714h6.585365853658537v54.85714285714286h-6.585365853658537Z" style="fill: #D2D4CE;"></path><path d="M197.9268292682927,43.68571428571428h6.585365853658537v56.31428571428572h-6.585365853658537Z" style="fill: #D2D4CE;"></path><path d="M205.2439024390244,41.51428571428571h6.585365853658537v58.48571428571429h-6.585365853658537Z" style="fill: #D2D4CE;"></path><path d="M212.56097560975613,41.228571428571435h6.585365853658537v58.771428571428565h-6.585365853658537Z" style="fill: #D2D4CE;"></path><path d="M219.87804878048783,35.51428571428572h6.585365853658537v64.48571428571428h-6.585365853658537Z" style="fill: #D2D4CE;"></path><path d="M227.19512195121953,34.31428571428571h6.585365853658537v65.68571428571428h-6.585365853658537Z" style="fill: #D2D4CE;"></path><path d="M234.51219512195124,29.542857142857148h6.585365853658537v70.45714285714286h-6.585365853658537Z" style="fill: #D2D4CE;"></path><path d="M241.82926829268294,25.8h6.585365853658537v74.2h-6.585365853658537Z" style="fill: #D2D4CE;"></path><path d="M249.14634146341464,23.799999999999997h6.585365853658537v76.2h-6.585365853658537Z" style="fill: #D2D4CE;"></path><path d="M256.4634146341464,22.057142857142853h6.585365853658537v77.94285714285715h-6.585365853658537Z" style="fill: #D2D4CE;"></path><path d="M263.7804878048781,21.457142857142863h6.585365853658537v78.54285714285714h-6.585365853658537Z" style="fill: #D2D4CE;"></path><path d="M271.0975609756098,20.999999999999996h6.585365853658537v79h-6.585365853658537Z" style="fill: #D2D4CE;"></path><path d="M278.4146341463415,19.14285714285714h6.585365853658537v80.85714285714286h-6.585365853658537Z" style="fill: #D2D4CE;"></path><path d="M285.7317073170732,18.000000000000004h6.585365853658537v82h-6.585365853658537Z" style="fill: #D2D4CE;"></path><path d="M293.0487804878049,12.485714285714277h6.585365853658537v87.51428571428572h-6.585365853658537Z" style="fill: #D2D4CE;"></path></g></g><path class="foreground" d="" style="display: none; fill: none;"></path></g></g></g></svg>