<svg class="marks" preserveAspectRatio="none" width="310" height="110"  version="1.1" xmlns="http://www.w3.org/2000/svg" xmlns:xlink="http://www.w3.org/1999/xlink"><g transform="translate(5,5)"><g class="mark-group role-frame root"><g transform="translate(0,0)"><path class="background" d="M0,0h300v100h-300Z" style="fill: none; stroke: #ddd; stroke-width: 0;"></path><g><g class="mark-rect role-mark marks"><path d="M0.3658536585365937,84h6.585365853658537v16h-6.585365853658537Z" style="fill: #D2D4CE;"></path><path d="M7.682926829268301,78.78571428571428h6.585365853658537v21.214285714285722h-6.585365853658537Z" style="fill: #D2D4CE;"></path><path d="M15.000000000000009,74.21428571428572h6.585365853658537v25.785714285714278h-6.585365853658537Z" style="fill: #D2D4CE;"></path><path d="M22.317073170731717,72.57142857142857h6.585365853658537v27.42857142857143h-6.585365853658537Z" style="fill: #D2D4CE;"></path><path d="M29.634146341463424,70.92857142857143h6.585365853658537v29.07142857142857h-6.585365853658537Z" style="fill: #D2D4CE;"></path><path d="M36.95121951219513,70.21428571428572h6.585365853658537v29.785714285714278h-6.585365853658537Z" style="fill: #D2D4CE;"></path><path d="M44.26829268292684,69.78571428571429h6.585365853658537v30.214285714285708h-6.585365853658537Z" style="fill: #D2D4CE;"></path><path d="M51.585365853658544,65.99999999999999h6.585365853658537v34.000000000000014h-6.585365853658537Z" style="fill: #D2D4CE;"></path><path d="M58.902439024390254,65.57142857142857h6.585365853658537v34.42857142857143h-6.585365853658537Z" style="fill: #D2D4CE;"></path><path d="M66.21951219512196,61.28571428571428h6.585365853658537v38.71428571428572h-6.585365853658537Z" style="fill: #D2D4CE;"></path><path d="M73.53658536585367,60.21428571428571h6.585365853658537v39.78571428571429h-6.585365853658537Z" style="fill: #D2D4CE;"></path><path d="M80.85365853658537,58.57142857142856h6.585365853658537v41.42857142857144h-6.585365853658537Z" style="fill: #D2D4CE;"></path><path d="M88.17073170731709,57.57142857142858h6.585365853658537v42.42857142857142h-6.585365853658537Z" style="fill: #D2D4CE;"></path><path d="M95.48780487804879,54.42857142857142h6.585365853658537v45.57142857142858h-6.585365853658537Z" style="fill: #D2D4CE;"></path><path d="M102.8048780487805,54.35714285714286h6.585365853658537v45.64285714285714h-6.585365853658537Z" style="fill: #D2D4CE;"></path><path d="M110.12195121951221,53.142857142857146h6.585365853658537v46.857142857142854h-6.585365853658537Z" style="fill: #D2D4CE;"></path><path d="M117.43902439024392,52.714285714285715h6.585365853658537v47.285714285714285h-6.585365853658537Z" style="fill: #D2D4CE;"></path><path d="M124.75609756097562,51.21428571428572h6.585365853658537v48.78571428571428h-6.585365853658537Z" style="fill: #D2D4CE;"></path><path d="M132.07317073170734,49.357142857142854h6.585365853658537v50.642857142857146h-6.585365853658537Z" style="fill: #D2D4CE;"></path><path d="M139.39024390243904,49.07142857142858h6.585365853658537v50.92857142857142h-6.585365853658537Z" style="fill: #D2D4CE;"></path><path d="M146.70731707317074,48.642857142857146h6.585365853658537v51.357142857142854h-6.585365853658537Z" style="fill: #D2D4CE;"></path><path d="M154.02439024390245,48.28571428571428h6.585365853658537v51.71428571428572h-6.585365853658537Z" style="fill: #D2D4CE;"></path><path d="M161.34146341463415,46.14285714285714h6.585365853658537v53.85714285714286h-6.585365853658537Z" style="fill: #D2D4CE;"></path><path d="M168.65853658536588,45.14285714285714h6.585365853658537v54.85714285714286h-6.585365853658537Z" style="fill: #D2D4CE;"></path><path d="M175.97560975609758,44.785714285714285h6.585365853658537v55.214285714285715h-6.585365853658537Z" style="fill: #D2D4CE;"></path><path d="M183.2926829268293,44.64285714285714h6.585365853658537v55.35714285714286h-6.585365853658537Z" style="fill: #D2D4CE;"></path><path d="M190.609756097561,44.14285714285714h6.585365853658537v55.85714285714286h-6.585365853658537Z" style="fill: #D2D4CE;"></path><path d="M197.9268292682927,41.42857142857142h6.585365853658537v58.57142857142858h-6.585365853658537Z" style="fill: #D2D4CE;"></path><path d="M205.2439024390244,39.85714285714286h6.585365853658537v60.14285714285714h-6.585365853658537Z" style="fill: #D2D4CE;"></path><path d="M212.56097560975613,39.78571428571429h6.585365853658537v60.21428571428571h-6.585365853658537Z" style="fill: #D2D4CE;"></path><path d="M219.87804878048783,38.357142857142854h6.585365853658537v61.642857142857146h-6.585365853658537Z" style="fill: #D2D4CE;"></path><path d="M227.19512195121953,35.07142857142856h6.585365853658537v64.92857142857144h-6.585365853658537Z" style="fill: #D2D4CE;"></path><path d="M234.51219512195124,34.857142857142854h6.585365853658537v65.14285714285714h-6.585365853658537Z" style="fill: #D2D4CE;"></path><path d="M241.82926829268294,33.785714285714285h6.585365853658537v66.21428571428572h-6.585365853658537Z" style="fill: #D2D4CE;"></path><path d="M249.14634146341464,32.57142857142856h6.585365853658537v67.42857142857144h-6.585365853658537Z" style="fill: #D2D4CE;"></path><path d="M256.4634146341464,29.714285714285715h6.585365853658537v70.28571428571428h-6.585365853658537Z" style="fill: #D2D4CE;"></path><path d="M263.7804878048781,27.142857142857146h6.585365853658537v72.85714285714286h-6.585365853658537Z" style="fill: #D2D4CE;"></path><path d="M271.0975609756098,26h6.585365853658537v74h-6.585365853658537Z" style="fill: #00923E;"></path><path d="M278.4146341463415,24.857142857142854h6.585365853658537v75.14285714285714h-6.585365853658537Z" style="fill: #D2D4CE;"></path><path d="M285.7317073170732,23.92857142857143h6.585365853658537v76.07142857142857h-6.585365853658537Z" style="fill: #D2D4CE;"></path><path d="M293.0487804878049,5.785714285714283h6.585365853658537v94.21428571428572h-6.585365853658537Z" style="fill: #D2D4CE;"></path></g></g><path class="foreground" d="" style="display: none; fill: none;"></path></g></g></g></svg>