<svg class="marks" preserveAspectRatio="none" width="310" height="110"  version="1.1" xmlns="http://www.w3.org/2000/svg" xmlns:xlink="http://www.w3.org/1999/xlink"><g transform="translate(5,5)"><g class="mark-group role-frame root"><g transform="translate(0,0)"><path class="background" d="M0,0h300v100h-300Z" style="fill: none; stroke: #ddd; stroke-width: 0;"></path><g><g class="mark-rect role-mark marks"><path d="M0.3658536585365937,37h6.585365853658537v63h-6.585365853658537Z" style="fill: #D2D4CE;"></path><path d="M7.682926829268301,36h6.585365853658537v64h-6.585365853658537Z" style="fill: #D2D4CE;"></path><path d="M15.000000000000009,35.400000000000006h6.585365853658537v64.6h-6.585365853658537Z" style="fill: #D2D4CE;"></path><path d="M22.317073170731717,34.8h6.585365853658537v65.2h-6.585365853658537Z" style="fill: #D2D4CE;"></path><path d="M29.634146341463424,34.599999999999994h6.585365853658537v65.4h-6.585365853658537Z" style="fill: #D2D4CE;"></path><path d="M36.95121951219513,32.400000000000006h6.585365853658537v67.6h-6.585365853658537Z" style="fill: #D2D4CE;"></path><path d="M44.26829268292684,30.500000000000004h6.585365853658537v69.5h-6.585365853658537Z" style="fill: #D2D4CE;"></path><path d="M51.585365853658544,29.500000000000004h6.585365853658537v70.5h-6.585365853658537Z" style="fill: #D2D4CE;"></path><path d="M58.902439024390254,29.400000000000006h6.585365853658537v70.6h-6.585365853658537Z" style="fill: #D2D4CE;"></path><path d="M66.21951219512196,29.099999999999994h6.585365853658537v70.9h-6.585365853658537Z" style="fill: #D2D4CE;"></path><path d="M73.53658536585367,29.099999999999994h6.585365853658537v70.9h-6.585365853658537Z" style="fill: #D2D4CE;"></path><path d="M80.85365853658537,29.000000000000004h6.585365853658537v71h-6.585365853658537Z" style="fill: #D2D4CE;"></path><path d="M88.17073170731709,28.799999999999994h6.585365853658537v71.2h-6.585365853658537Z" style="fill: #D2D4CE;"></path><path d="M95.48780487804879,28.59999999999999h6.585365853658537v71.4h-6.585365853658537Z" style="fill: #D2D4CE;"></path><path d="M102.8048780487805,28.59999999999999h6.585365853658537v71.4h-6.585365853658537Z" style="fill: #D2D4CE;"></path><path d="M110.12195121951221,28.59999999999999h6.585365853658537v71.4h-6.585365853658537Z" style="fill: #D2D4CE;"></path><path d="M117.43902439024392,27.400000000000002h6.585365853658537v72.6h-6.585365853658537Z" style="fill: #D2D4CE;"></path><path d="M124.75609756097562,26.900000000000002h6.585365853658537v73.1h-6.585365853658537Z" style="fill: #D2D4CE;"></path><path d="M132.07317073170734,26.8h6.585365853658537v73.2h-6.585365853658537Z" style="fill: #D2D4CE;"></path><path d="M139.39024390243904,26.200000000000003h6.585365853658537v73.8h-6.585365853658537Z" style="fill: #D2D4CE;"></path><path d="M146.70731707317074,26.200000000000003h6.585365853658537v73.8h-6.585365853658537Z" style="fill: #D2D4CE;"></path><path d="M154.02439024390245,26h6.585365853658537v74h-6.585365853658537Z" style="fill: #D2D4CE;"></path><path d="M161.34146341463415,25.59999999999999h6.585365853658537v74.4h-6.585365853658537Z" style="fill: #D2D4CE;"></path><path d="M168.65853658536588,25.5h6.585365853658537v74.5h-6.585365853658537Z" style="fill: #D2D4CE;"></path><path d="M175.97560975609758,24.8h6.585365853658537v75.2h-6.585365853658537Z" style="fill: #D2D4CE;"></path><path d="M183.2926829268293,24.40000000000001h6.585365853658537v75.6h-6.585365853658537Z" style="fill: #D2D4CE;"></path><path d="M190.609756097561,24.099999999999998h6.585365853658537v75.9h-6.585365853658537Z" style="fill: #D2D4CE;"></path><path d="M197.9268292682927,23.799999999999997h6.585365853658537v76.2h-6.585365853658537Z" style="fill: #D2D4CE;"></path><path d="M205.2439024390244,23.099999999999998h6.585365853658537v76.9h-6.585365853658537Z" style="fill: #D2D4CE;"></path><path d="M212.56097560975613,22.499999999999996h6.585365853658537v77.5h-6.585365853658537Z" style="fill: #D2D4CE;"></path><path d="M219.87804878048783,21.099999999999998h6.585365853658537v78.9h-6.585365853658537Z" style="fill: #D2D4CE;"></path><path d="M227.19512195121953,19.200000000000006h6.585365853658537v80.8h-6.585365853658537Z" style="fill: #00923E;"></path><path d="M234.51219512195124,18.900000000000006h6.585365853658537v81.1h-6.585365853658537Z" style="fill: #D2D4CE;"></path><path d="M241.82926829268294,18.000000000000004h6.585365853658537v82h-6.585365853658537Z" style="fill: #D2D4CE;"></path><path d="M249.14634146341464,17.400000000000006h6.585365853658537v82.6h-6.585365853658537Z" style="fill: #D2D4CE;"></path><path d="M256.4634146341464,15.09999999999999h6.585365853658537v84.9h-6.585365853658537Z" style="fill: #D2D4CE;"></path><path d="M263.7804878048781,14.200000000000001h6.585365853658537v85.8h-6.585365853658537Z" style="fill: #D2D4CE;"></path><path d="M271.0975609756098,14.09999999999999h6.585365853658537v85.9h-6.585365853658537Z" style="fill: #D2D4CE;"></path><path d="M278.4146341463415,13.900000000000002h6.585365853658537v86.1h-6.585365853658537Z" style="fill: #D2D4CE;"></path><path d="M285.7317073170732,9.200000000000008h6.585365853658537v90.8h-6.585365853658537Z" style="fill: #D2D4CE;"></path><path d="M293.0487804878049,8.599999999999996h6.585365853658537v91.4h-6.585365853658537Z" style="fill: #D2D4CE;"></path></g></g><path class="foreground" d="" style="display: none; fill: none;"></path></g></g></g></svg>