<svg class="marks" preserveAspectRatio="none" width="310" height="110"  version="1.1" xmlns="http://www.w3.org/2000/svg" xmlns:xlink="http://www.w3.org/1999/xlink"><g transform="translate(5,5)"><g class="mark-group role-frame root"><g transform="translate(0,0)"><path class="background" d="M0,0h300v100h-300Z" style="fill: none; stroke: #ddd; stroke-width: 0;"></path><g><g class="mark-rect role-mark marks"><path d="M0.3658536585365937,68.77777777777779h6.585365853658537v31.222222222222214h-6.585365853658537Z" style="fill: #D2D4CE;"></path><path d="M7.682926829268301,67.88888888888889h6.585365853658537v32.111111111111114h-6.585365853658537Z" style="fill: #D2D4CE;"></path><path d="M15.000000000000009,62.77777777777778h6.585365853658537v37.22222222222222h-6.585365853658537Z" style="fill: #D2D4CE;"></path><path d="M22.317073170731717,58.88888888888889h6.585365853658537v41.11111111111111h-6.585365853658537Z" style="fill: #D2D4CE;"></path><path d="M29.634146341463424,57.77777777777777h6.585365853658537v42.22222222222223h-6.585365853658537Z" style="fill: #D2D4CE;"></path><path d="M36.95121951219513,56.333333333333336h6.585365853658537v43.666666666666664h-6.585365853658537Z" style="fill: #D2D4CE;"></path><path d="M44.26829268292684,55.33333333333332h6.585365853658537v44.66666666666668h-6.585365853658537Z" style="fill: #D2D4CE;"></path><path d="M51.585365853658544,48.77777777777778h6.585365853658537v51.22222222222222h-6.585365853658537Z" style="fill: #D2D4CE;"></path><path d="M58.902439024390254,48.66666666666666h6.585365853658537v51.33333333333334h-6.585365853658537Z" style="fill: #D2D4CE;"></path><path d="M66.21951219512196,47.88888888888889h6.585365853658537v52.11111111111111h-6.585365853658537Z" style="fill: #D2D4CE;"></path><path d="M73.53658536585367,47.111111111111114h6.585365853658537v52.888888888888886h-6.585365853658537Z" style="fill: #D2D4CE;"></path><path d="M80.85365853658537,45.44444444444444h6.585365853658537v54.55555555555556h-6.585365853658537Z" style="fill: #D2D4CE;"></path><path d="M88.17073170731709,44.888888888888886h6.585365853658537v55.111111111111114h-6.585365853658537Z" style="fill: #D2D4CE;"></path><path d="M95.48780487804879,44.77777777777777h6.585365853658537v55.22222222222223h-6.585365853658537Z" style="fill: #D2D4CE;"></path><path d="M102.8048780487805,42.888888888888886h6.585365853658537v57.111111111111114h-6.585365853658537Z" style="fill: #00923E;"></path><path d="M110.12195121951221,41.22222222222223h6.585365853658537v58.77777777777777h-6.585365853658537Z" style="fill: #D2D4CE;"></path><path d="M117.43902439024392,39.33333333333333h6.585365853658537v60.66666666666667h-6.585365853658537Z" style="fill: #D2D4CE;"></path><path d="M124.75609756097562,38.55555555555556h6.585365853658537v61.44444444444444h-6.585365853658537Z" style="fill: #D2D4CE;"></path><path d="M132.07317073170734,38.22222222222222h6.585365853658537v61.77777777777778h-6.585365853658537Z" style="fill: #D2D4CE;"></path><path d="M139.39024390243904,36.22222222222222h6.585365853658537v63.77777777777778h-6.585365853658537Z" style="fill: #D2D4CE;"></path><path d="M146.70731707317074,36h6.585365853658537v64h-6.585365853658537Z" style="fill: #D2D4CE;"></path><path d="M154.02439024390245,32.44444444444444h6.585365853658537v67.55555555555556h-6.585365853658537Z" style="fill: #D2D4CE;"></path><path d="M161.34146341463415,30.11111111111111h6.585365853658537v69.88888888888889h-6.585365853658537Z" style="fill: #D2D4CE;"></path><path d="M168.65853658536588,28.77777777777778h6.585365853658537v71.22222222222223h-6.585365853658537Z" style="fill: #D2D4CE;"></path><path d="M175.97560975609758,26.777777777777768h6.585365853658537v73.22222222222223h-6.585365853658537Z" style="fill: #D2D4CE;"></path><path d="M183.2926829268293,26.555555555555564h6.585365853658537v73.44444444444443h-6.585365853658537Z" style="fill: #D2D4CE;"></path><path d="M190.609756097561,25.222222222222225h6.585365853658537v74.77777777777777h-6.585365853658537Z" style="fill: #D2D4CE;"></path><path d="M197.9268292682927,24.555555555555554h6.585365853658537v75.44444444444444h-6.585365853658537Z" style="fill: #D2D4CE;"></path><path d="M205.2439024390244,23.777777777777786h6.585365853658537v76.22222222222221h-6.585365853658537Z" style="fill: #D2D4CE;"></path><path d="M212.56097560975613,23.777777777777786h6.585365853658537v76.22222222222221h-6.585365853658537Z" style="fill: #D2D4CE;"></path><path d="M219.87804878048783,21.777777777777775h6.585365853658537v78.22222222222223h-6.585365853658537Z" style="fill: #D2D4CE;"></path><path d="M227.19512195121953,21.666666666666668h6.585365853658537v78.33333333333333h-6.585365853658537Z" style="fill: #D2D4CE;"></path><path d="M234.51219512195124,20.55555555555556h6.585365853658537v79.44444444444444h-6.585365853658537Z" style="fill: #D2D4CE;"></path><path d="M241.82926829268294,19.8888888888889h6.585365853658537v80.1111111111111h-6.585365853658537Z" style="fill: #D2D4CE;"></path><path d="M249.14634146341464,19.333333333333336h6.585365853658537v80.66666666666666h-6.585365853658537Z" style="fill: #D2D4CE;"></path><path d="M256.4634146341464,16.333333333333332h6.585365853658537v83.66666666666667h-6.585365853658537Z" style="fill: #D2D4CE;"></path><path d="M263.7804878048781,16.11111111111111h6.585365853658537v83.88888888888889h-6.585365853658537Z" style="fill: #D2D4CE;"></path><path d="M271.0975609756098,15.888888888888886h6.585365853658537v84.11111111111111h-6.585365853658537Z" style="fill: #D2D4CE;"></path><path d="M278.4146341463415,15.222222222222225h6.585365853658537v84.77777777777777h-6.585365853658537Z" style="fill: #D2D4CE;"></path><path d="M285.7317073170732,13.222222222222225h6.585365853658537v86.77777777777777h-6.585365853658537Z" style="fill: #D2D4CE;"></path><path d="M293.0487804878049,8.111111111111114h6.585365853658537v91.88888888888889h-6.585365853658537Z" style="fill: #D2D4CE;"></path></g></g><path class="foreground" d="" style="display: none; fill: none;"></path></g></g></g></svg>