<svg class="marks" preserveAspectRatio="none" width="310" height="110"  version="1.1" xmlns="http://www.w3.org/2000/svg" xmlns:xlink="http://www.w3.org/1999/xlink"><g transform="translate(5,5)"><g class="mark-group role-frame root"><g transform="translate(0,0)"><path class="background" d="M0,0h300v100h-300Z" style="fill: none; stroke: #ddd; stroke-width: 0;"></path><g><g class="mark-rect role-mark marks"><path d="M36.95121951219513,89.0909090909091h6.585365853658537v10.909090909090907h-6.585365853658537Z" style="fill: #D2D4CE;"></path><path d="M44.26829268292684,88.18181818181819h6.585365853658537v11.818181818181813h-6.585365853658537Z" style="fill: #D2D4CE;"></path><path d="M51.585365853658544,87.27272727272728h6.585365853658537v12.72727272727272h-6.585365853658537Z" style="fill: #D2D4CE;"></path><path d="M58.902439024390254,87.27272727272728h6.585365853658537v12.72727272727272h-6.585365853658537Z" style="fill: #D2D4CE;"></path><path d="M66.21951219512196,86.36363636363636h6.585365853658537v13.63636363636364h-6.585365853658537Z" style="fill: #D2D4CE;"></path><path d="M73.53658536585367,84.54545454545455h6.585365853658537v15.454545454545453h-6.585365853658537Z" style="fill: #D2D4CE;"></path><path d="M80.85365853658537,84.54545454545455h6.585365853658537v15.454545454545453h-6.585365853658537Z" style="fill: #D2D4CE;"></path><path d="M88.17073170731709,80.9090909090909h6.585365853658537v19.090909090909093h-6.585365853658537Z" style="fill: #D2D4CE;"></path><path d="M95.48780487804879,79.0909090909091h6.585365853658537v20.909090909090907h-6.585365853658537Z" style="fill: #D2D4CE;"></path><path d="M102.8048780487805,77.27272727272727h6.585365853658537v22.727272727272734h-6.585365853658537Z" style="fill: #D2D4CE;"></path><path d="M110.12195121951221,74.54545454545455h6.585365853658537v25.454545454545453h-6.585365853658537Z" style="fill: #D2D4CE;"></path><path d="M117.43902439024392,62.727272727272734h6.585365853658537v37.272727272727266h-6.585365853658537Z" style="fill: #D2D4CE;"></path><path d="M124.75609756097562,60.909090909090914h6.585365853658537v39.090909090909086h-6.585365853658537Z" style="fill: #D2D4CE;"></path><path d="M132.07317073170734,57.27272727272727h6.585365853658537v42.72727272727273h-6.585365853658537Z" style="fill: #D2D4CE;"></path><path d="M139.39024390243904,57.27272727272727h6.585365853658537v42.72727272727273h-6.585365853658537Z" style="fill: #D2D4CE;"></path><path d="M146.70731707317074,57.27272727272727h6.585365853658537v42.72727272727273h-6.585365853658537Z" style="fill: #D2D4CE;"></path><path d="M154.02439024390245,55.454545454545446h6.585365853658537v44.545454545454554h-6.585365853658537Z" style="fill: #D2D4CE;"></path><path d="M161.34146341463415,53.63636363636364h6.585365853658537v46.36363636363636h-6.585365853658537Z" style="fill: #D2D4CE;"></path><path d="M168.65853658536588,51.81818181818182h6.585365853658537v48.18181818181818h-6.585365853658537Z" style="fill: #D2D4CE;"></path><path d="M175.97560975609758,51.81818181818182h6.585365853658537v48.18181818181818h-6.585365853658537Z" style="fill: #D2D4CE;"></path><path d="M183.2926829268293,48.18181818181818h6.585365853658537v51.81818181818182h-6.585365853658537Z" style="fill: #D2D4CE;"></path><path d="M190.609756097561,44.54545454545455h6.585365853658537v55.45454545454545h-6.585365853658537Z" style="fill: #D2D4CE;"></path><path d="M197.9268292682927,38.18181818181819h6.585365853658537v61.81818181818181h-6.585365853658537Z" style="fill: #D2D4CE;"></path><path d="M205.2439024390244,38.18181818181819h6.585365853658537v61.81818181818181h-6.585365853658537Z" style="fill: #D2D4CE;"></path><path d="M212.56097560975613,35.45454545454546h6.585365853658537v64.54545454545453h-6.585365853658537Z" style="fill: #D2D4CE;"></path><path d="M219.87804878048783,35.45454545454546h6.585365853658537v64.54545454545453h-6.585365853658537Z" style="fill: #D2D4CE;"></path><path d="M227.19512195121953,32.72727272727273h6.585365853658537v67.27272727272728h-6.585365853658537Z" style="fill: #D2D4CE;"></path><path d="M234.51219512195124,29.999999999999993h6.585365853658537v70h-6.585365853658537Z" style="fill: #D2D4CE;"></path><path d="M241.82926829268294,28.181818181818173h6.585365853658537v71.81818181818183h-6.585365853658537Z" style="fill: #D2D4CE;"></path><path d="M249.14634146341464,28.181818181818173h6.585365853658537v71.81818181818183h-6.585365853658537Z" style="fill: #D2D4CE;"></path><path d="M256.4634146341464,28.181818181818173h6.585365853658537v71.81818181818183h-6.585365853658537Z" style="fill: #00923E;"></path><path d="M263.7804878048781,21.818181818181827h6.585365853658537v78.18181818181817h-6.585365853658537Z" style="fill: #D2D4CE;"></path><path d="M271.0975609756098,18.181818181818176h6.585365853658537v81.81818181818183h-6.585365853658537Z" style="fill: #D2D4CE;"></path><path d="M278.4146341463415,17.272727272727273h6.585365853658537v82.72727272727272h-6.585365853658537Z" style="fill: #D2D4CE;"></path><path d="M285.7317073170732,10.909090909090901h6.585365853658537v89.0909090909091h-6.585365853658537Z" style="fill: #D2D4CE;"></path><path d="M293.0487804878049,1.8181818181818077h6.585365853658537v98.18181818181819h-6.585365853658537Z" style="fill: #D2D4CE;"></path></g></g><path class="foreground" d="" style="display: none; fill: none;"></path></g></g></g></svg>