<svg class="marks" preserveAspectRatio="none" width="310" height="110"  version="1.1" xmlns="http://www.w3.org/2000/svg" xmlns:xlink="http://www.w3.org/1999/xlink"><g transform="translate(5,5)"><g class="mark-group role-frame root"><g transform="translate(0,0)"><path class="background" d="M0,0h300v100h-300Z" style="fill: none; stroke: #ddd; stroke-width: 0;"></path><g><g class="mark-rect role-mark marks"><path d="M0.3658536585365937,100h6.585365853658537v0h-6.585365853658537Z" style="fill: #D2D4CE;"></path><path d="M7.682926829268301,100h6.585365853658537v0h-6.585365853658537Z" style="fill: #D2D4CE;"></path><path d="M15.000000000000009,100h6.585365853658537v0h-6.585365853658537Z" style="fill: #D2D4CE;"></path><path d="M22.317073170731717,100h6.585365853658537v0h-6.585365853658537Z" style="fill: #D2D4CE;"></path><path d="M29.634146341463424,100h6.585365853658537v0h-6.585365853658537Z" style="fill: #D2D4CE;"></path><path d="M36.95121951219513,96h6.585365853658537v4h-6.585365853658537Z" style="fill: #D2D4CE;"></path><path d="M44.26829268292684,95h6.585365853658537v5h-6.585365853658537Z" style="fill: #D2D4CE;"></path><path d="M51.585365853658544,88h6.585365853658537v12h-6.585365853658537Z" style="fill: #D2D4CE;"></path><path d="M58.902439024390254,85h6.585365853658537v15h-6.585365853658537Z" style="fill: #D2D4CE;"></path><path d="M66.21951219512196,77h6.585365853658537v23h-6.585365853658537Z" style="fill: #D2D4CE;"></path><path d="M73.53658536585367,75h6.585365853658537v25h-6.585365853658537Z" style="fill: #D2D4CE;"></path><path d="M80.85365853658537,68h6.585365853658537v32h-6.585365853658537Z" style="fill: #D2D4CE;"></path><path d="M88.17073170731709,67h6.585365853658537v33h-6.585365853658537Z" style="fill: #D2D4CE;"></path><path d="M95.48780487804879,61h6.585365853658537v39h-6.585365853658537Z" style="fill: #D2D4CE;"></path><path d="M102.8048780487805,61h6.585365853658537v39h-6.585365853658537Z" style="fill: #D2D4CE;"></path><path d="M110.12195121951221,59.00000000000001h6.585365853658537v40.99999999999999h-6.585365853658537Z" style="fill: #D2D4CE;"></path><path d="M117.43902439024392,57.00000000000001h6.585365853658537v42.99999999999999h-6.585365853658537Z" style="fill: #D2D4CE;"></path><path d="M124.75609756097562,57.00000000000001h6.585365853658537v42.99999999999999h-6.585365853658537Z" style="fill: #D2D4CE;"></path><path d="M132.07317073170734,53h6.585365853658537v47h-6.585365853658537Z" style="fill: #D2D4CE;"></path><path d="M139.39024390243904,50h6.585365853658537v50h-6.585365853658537Z" style="fill: #D2D4CE;"></path><path d="M146.70731707317074,46h6.585365853658537v54h-6.585365853658537Z" style="fill: #D2D4CE;"></path><path d="M154.02439024390245,44.99999999999999h6.585365853658537v55.00000000000001h-6.585365853658537Z" style="fill: #D2D4CE;"></path><path d="M161.34146341463415,43.00000000000001h6.585365853658537v56.99999999999999h-6.585365853658537Z" style="fill: #D2D4CE;"></path><path d="M168.65853658536588,43.00000000000001h6.585365853658537v56.99999999999999h-6.585365853658537Z" style="fill: #D2D4CE;"></path><path d="M175.97560975609758,40h6.585365853658537v60h-6.585365853658537Z" style="fill: #D2D4CE;"></path><path d="M183.2926829268293,40h6.585365853658537v60h-6.585365853658537Z" style="fill: #D2D4CE;"></path><path d="M190.609756097561,39h6.585365853658537v61h-6.585365853658537Z" style="fill: #D2D4CE;"></path><path d="M197.9268292682927,38h6.585365853658537v62h-6.585365853658537Z" style="fill: #D2D4CE;"></path><path d="M205.2439024390244,37h6.585365853658537v63h-6.585365853658537Z" style="fill: #D2D4CE;"></path><path d="M212.56097560975613,35h6.585365853658537v65h-6.585365853658537Z" style="fill: #D2D4CE;"></path><path d="M219.87804878048783,34h6.585365853658537v66h-6.585365853658537Z" style="fill: #D2D4CE;"></path><path d="M227.19512195121953,31.000000000000007h6.585365853658537v69h-6.585365853658537Z" style="fill: #00923E;"></path><path d="M234.51219512195124,29.000000000000004h6.585365853658537v71h-6.585365853658537Z" style="fill: #D2D4CE;"></path><path d="M241.82926829268294,26h6.585365853658537v74h-6.585365853658537Z" style="fill: #D2D4CE;"></path><path d="M249.14634146341464,24h6.585365853658537v76h-6.585365853658537Z" style="fill: #D2D4CE;"></path><path d="M256.4634146341464,19.999999999999996h6.585365853658537v80h-6.585365853658537Z" style="fill: #D2D4CE;"></path><path d="M263.7804878048781,16.000000000000004h6.585365853658537v84h-6.585365853658537Z" style="fill: #D2D4CE;"></path><path d="M271.0975609756098,12h6.585365853658537v88h-6.585365853658537Z" style="fill: #D2D4CE;"></path><path d="M278.4146341463415,10.999999999999998h6.585365853658537v89h-6.585365853658537Z" style="fill: #D2D4CE;"></path><path d="M285.7317073170732,6.000000000000005h6.585365853658537v94h-6.585365853658537Z" style="fill: #D2D4CE;"></path><path d="M293.0487804878049,4.0000000000000036h6.585365853658537v96h-6.585365853658537Z" style="fill: #D2D4CE;"></path></g></g><path class="foreground" d="" style="display: none; fill: none;"></path></g></g></g></svg>