<svg class="marks" preserveAspectRatio="none" width="310" height="110"  version="1.1" xmlns="http://www.w3.org/2000/svg" xmlns:xlink="http://www.w3.org/1999/xlink"><g transform="translate(5,5)"><g class="mark-group role-frame root"><g transform="translate(0,0)"><path class="background" d="M0,0h300v100h-300Z" style="fill: none; stroke: #ddd; stroke-width: 0;"></path><g><g class="mark-rect role-mark marks"><path d="M0.3658536585365937,90.57142857142857h6.585365853658537v9.42857142857143h-6.585365853658537Z" style="fill: #D2D4CE;"></path><path d="M7.682926829268301,90.42857142857143h6.585365853658537v9.57142857142857h-6.585365853658537Z" style="fill: #00923E;"></path><path d="M15.000000000000009,90h6.585365853658537v10h-6.585365853658537Z" style="fill: #D2D4CE;"></path><path d="M22.317073170731717,81.14285714285714h6.585365853658537v18.85714285714286h-6.585365853658537Z" style="fill: #D2D4CE;"></path><path d="M29.634146341463424,80.85714285714286h6.585365853658537v19.14285714285714h-6.585365853658537Z" style="fill: #D2D4CE;"></path><path d="M36.95121951219513,75.71428571428571h6.585365853658537v24.285714285714292h-6.585365853658537Z" style="fill: #D2D4CE;"></path><path d="M44.26829268292684,75.57142857142857h6.585365853658537v24.42857142857143h-6.585365853658537Z" style="fill: #D2D4CE;"></path><path d="M51.585365853658544,73h6.585365853658537v27h-6.585365853658537Z" style="fill: #D2D4CE;"></path><path d="M58.902439024390254,72.28571428571429h6.585365853658537v27.714285714285708h-6.585365853658537Z" style="fill: #D2D4CE;"></path><path d="M66.21951219512196,71.14285714285715h6.585365853658537v28.857142857142847h-6.585365853658537Z" style="fill: #D2D4CE;"></path><path d="M73.53658536585367,70.57142857142857h6.585365853658537v29.42857142857143h-6.585365853658537Z" style="fill: #D2D4CE;"></path><path d="M80.85365853658537,70h6.585365853658537v30h-6.585365853658537Z" style="fill: #D2D4CE;"></path><path d="M88.17073170731709,69.85714285714286h6.585365853658537v30.14285714285714h-6.585365853658537Z" style="fill: #D2D4CE;"></path><path d="M95.48780487804879,69.28571428571428h6.585365853658537v30.714285714285722h-6.585365853658537Z" style="fill: #D2D4CE;"></path><path d="M102.8048780487805,65.85714285714286h6.585365853658537v34.14285714285714h-6.585365853658537Z" style="fill: #D2D4CE;"></path><path d="M110.12195121951221,64.42857142857143h6.585365853658537v35.57142857142857h-6.585365853658537Z" style="fill: #D2D4CE;"></path><path d="M117.43902439024392,64.14285714285714h6.585365853658537v35.85714285714286h-6.585365853658537Z" style="fill: #D2D4CE;"></path><path d="M124.75609756097562,63.857142857142854h6.585365853658537v36.142857142857146h-6.585365853658537Z" style="fill: #D2D4CE;"></path><path d="M132.07317073170734,63.42857142857143h6.585365853658537v36.57142857142857h-6.585365853658537Z" style="fill: #D2D4CE;"></path><path d="M139.39024390243904,62.71428571428571h6.585365853658537v37.28571428571429h-6.585365853658537Z" style="fill: #D2D4CE;"></path><path d="M146.70731707317074,61.857142857142854h6.585365853658537v38.142857142857146h-6.585365853658537Z" style="fill: #D2D4CE;"></path><path d="M154.02439024390245,60.857142857142854h6.585365853658537v39.142857142857146h-6.585365853658537Z" style="fill: #D2D4CE;"></path><path d="M161.34146341463415,59.71428571428572h6.585365853658537v40.28571428571428h-6.585365853658537Z" style="fill: #D2D4CE;"></path><path d="M168.65853658536588,58.857142857142854h6.585365853658537v41.142857142857146h-6.585365853658537Z" style="fill: #D2D4CE;"></path><path d="M175.97560975609758,57.57142857142858h6.585365853658537v42.42857142857142h-6.585365853658537Z" style="fill: #D2D4CE;"></path><path d="M183.2926829268293,54.57142857142857h6.585365853658537v45.42857142857143h-6.585365853658537Z" style="fill: #D2D4CE;"></path><path d="M190.609756097561,51.714285714285715h6.585365853658537v48.285714285714285h-6.585365853658537Z" style="fill: #D2D4CE;"></path><path d="M197.9268292682927,48.28571428571428h6.585365853658537v51.71428571428572h-6.585365853658537Z" style="fill: #D2D4CE;"></path><path d="M205.2439024390244,48.142857142857146h6.585365853658537v51.857142857142854h-6.585365853658537Z" style="fill: #D2D4CE;"></path><path d="M212.56097560975613,48h6.585365853658537v52h-6.585365853658537Z" style="fill: #D2D4CE;"></path><path d="M219.87804878048783,43.714285714285715h6.585365853658537v56.285714285714285h-6.585365853658537Z" style="fill: #D2D4CE;"></path><path d="M227.19512195121953,43.285714285714285h6.585365853658537v56.714285714285715h-6.585365853658537Z" style="fill: #D2D4CE;"></path><path d="M234.51219512195124,36.57142857142858h6.585365853658537v63.42857142857142h-6.585365853658537Z" style="fill: #D2D4CE;"></path><path d="M241.82926829268294,35.42857142857142h6.585365853658537v64.57142857142858h-6.585365853658537Z" style="fill: #D2D4CE;"></path><path d="M249.14634146341464,34.57142857142858h6.585365853658537v65.42857142857142h-6.585365853658537Z" style="fill: #D2D4CE;"></path><path d="M256.4634146341464,33.00000000000001h6.585365853658537v67h-6.585365853658537Z" style="fill: #D2D4CE;"></path><path d="M263.7804878048781,28.428571428571423h6.585365853658537v71.57142857142858h-6.585365853658537Z" style="fill: #D2D4CE;"></path><path d="M271.0975609756098,25.428571428571423h6.585365853658537v74.57142857142858h-6.585365853658537Z" style="fill: #D2D4CE;"></path><path d="M278.4146341463415,25.142857142857146h6.585365853658537v74.85714285714286h-6.585365853658537Z" style="fill: #D2D4CE;"></path><path d="M285.7317073170732,14.714285714285714h6.585365853658537v85.28571428571429h-6.585365853658537Z" style="fill: #D2D4CE;"></path><path d="M293.0487804878049,2.000000000000013h6.585365853658537v97.99999999999999h-6.585365853658537Z" style="fill: #D2D4CE;"></path></g></g><path class="foreground" d="" style="display: none; fill: none;"></path></g></g></g></svg>