<svg class="marks" preserveAspectRatio="none" width="310" height="110"  version="1.1" xmlns="http://www.w3.org/2000/svg" xmlns:xlink="http://www.w3.org/1999/xlink"><g transform="translate(5,5)"><g class="mark-group role-frame root"><g transform="translate(0,0)"><path class="background" d="M0,0h300v100h-300Z" style="fill: none; stroke: #ddd; stroke-width: 0;"></path><g><g class="mark-rect role-mark marks"><path d="M0.3658536585365937,90.15384615384615h6.585365853658537v9.846153846153854h-6.585365853658537Z" style="fill: #D2D4CE;"></path><path d="M7.682926829268301,90.15384615384615h6.585365853658537v9.846153846153854h-6.585365853658537Z" style="fill: #D2D4CE;"></path><path d="M15.000000000000009,90h6.585365853658537v10h-6.585365853658537Z" style="fill: #D2D4CE;"></path><path d="M22.317073170731717,80.76923076923077h6.585365853658537v19.230769230769226h-6.585365853658537Z" style="fill: #D2D4CE;"></path><path d="M29.634146341463424,80.61538461538463h6.585365853658537v19.384615384615373h-6.585365853658537Z" style="fill: #D2D4CE;"></path><path d="M36.95121951219513,76.15384615384615h6.585365853658537v23.846153846153854h-6.585365853658537Z" style="fill: #D2D4CE;"></path><path d="M44.26829268292684,74.61538461538461h6.585365853658537v25.384615384615387h-6.585365853658537Z" style="fill: #D2D4CE;"></path><path d="M51.585365853658544,71.6923076923077h6.585365853658537v28.307692307692307h-6.585365853658537Z" style="fill: #D2D4CE;"></path><path d="M58.902439024390254,71.53846153846153h6.585365853658537v28.461538461538467h-6.585365853658537Z" style="fill: #D2D4CE;"></path><path d="M66.21951219512196,71.38461538461539h6.585365853658537v28.615384615384613h-6.585365853658537Z" style="fill: #D2D4CE;"></path><path d="M73.53658536585367,69.53846153846153h6.585365853658537v30.461538461538467h-6.585365853658537Z" style="fill: #D2D4CE;"></path><path d="M80.85365853658537,69.23076923076923h6.585365853658537v30.769230769230774h-6.585365853658537Z" style="fill: #D2D4CE;"></path><path d="M88.17073170731709,68.92307692307693h6.585365853658537v31.076923076923066h-6.585365853658537Z" style="fill: #D2D4CE;"></path><path d="M95.48780487804879,68.30769230769232h6.585365853658537v31.69230769230768h-6.585365853658537Z" style="fill: #D2D4CE;"></path><path d="M102.8048780487805,66.3076923076923h6.585365853658537v33.69230769230769h-6.585365853658537Z" style="fill: #D2D4CE;"></path><path d="M110.12195121951221,63.84615384615384h6.585365853658537v36.15384615384616h-6.585365853658537Z" style="fill: #D2D4CE;"></path><path d="M117.43902439024392,63.38461538461539h6.585365853658537v36.61538461538461h-6.585365853658537Z" style="fill: #D2D4CE;"></path><path d="M124.75609756097562,62.92307692307693h6.585365853658537v37.07692307692307h-6.585365853658537Z" style="fill: #D2D4CE;"></path><path d="M132.07317073170734,62.769230769230774h6.585365853658537v37.230769230769226h-6.585365853658537Z" style="fill: #D2D4CE;"></path><path d="M139.39024390243904,61.69230769230769h6.585365853658537v38.30769230769231h-6.585365853658537Z" style="fill: #D2D4CE;"></path><path d="M146.70731707317074,60.61538461538461h6.585365853658537v39.38461538461539h-6.585365853658537Z" style="fill: #D2D4CE;"></path><path d="M154.02439024390245,60.15384615384616h6.585365853658537v39.84615384615384h-6.585365853658537Z" style="fill: #D2D4CE;"></path><path d="M161.34146341463415,59.53846153846154h6.585365853658537v40.46153846153846h-6.585365853658537Z" style="fill: #D2D4CE;"></path><path d="M168.65853658536588,59.07692307692307h6.585365853658537v40.92307692307693h-6.585365853658537Z" style="fill: #D2D4CE;"></path><path d="M175.97560975609758,58.00000000000001h6.585365853658537v41.99999999999999h-6.585365853658537Z" style="fill: #D2D4CE;"></path><path d="M183.2926829268293,57.07692307692308h6.585365853658537v42.92307692307692h-6.585365853658537Z" style="fill: #D2D4CE;"></path><path d="M190.609756097561,50.92307692307693h6.585365853658537v49.07692307692307h-6.585365853658537Z" style="fill: #D2D4CE;"></path><path d="M197.9268292682927,50.46153846153846h6.585365853658537v49.53846153846154h-6.585365853658537Z" style="fill: #D2D4CE;"></path><path d="M205.2439024390244,47.53846153846154h6.585365853658537v52.46153846153846h-6.585365853658537Z" style="fill: #D2D4CE;"></path><path d="M212.56097560975613,47.53846153846154h6.585365853658537v52.46153846153846h-6.585365853658537Z" style="fill: #D2D4CE;"></path><path d="M219.87804878048783,44.15384615384615h6.585365853658537v55.84615384615385h-6.585365853658537Z" style="fill: #00923E;"></path><path d="M227.19512195121953,41.53846153846153h6.585365853658537v58.46153846153847h-6.585365853658537Z" style="fill: #D2D4CE;"></path><path d="M234.51219512195124,37.07692307692307h6.585365853658537v62.92307692307693h-6.585365853658537Z" style="fill: #D2D4CE;"></path><path d="M241.82926829268294,35.6923076923077h6.585365853658537v64.30769230769229h-6.585365853658537Z" style="fill: #D2D4CE;"></path><path d="M249.14634146341464,33.23076923076923h6.585365853658537v66.76923076923077h-6.585365853658537Z" style="fill: #D2D4CE;"></path><path d="M256.4634146341464,32.15384615384615h6.585365853658537v67.84615384615384h-6.585365853658537Z" style="fill: #D2D4CE;"></path><path d="M263.7804878048781,28.46153846153846h6.585365853658537v71.53846153846155h-6.585365853658537Z" style="fill: #D2D4CE;"></path><path d="M271.0975609756098,27.538461538461533h6.585365853658537v72.46153846153847h-6.585365853658537Z" style="fill: #D2D4CE;"></path><path d="M278.4146341463415,24.307692307692307h6.585365853658537v75.6923076923077h-6.585365853658537Z" style="fill: #D2D4CE;"></path><path d="M285.7317073170732,12.307692307692308h6.585365853658537v87.6923076923077h-6.585365853658537Z" style="fill: #D2D4CE;"></path><path d="M293.0487804878049,0.4615384615384577h6.585365853658537v99.53846153846155h-6.585365853658537Z" style="fill: #D2D4CE;"></path></g></g><path class="foreground" d="" style="display: none; fill: none;"></path></g></g></g></svg>