<svg class="marks" preserveAspectRatio="none" width="310" height="110"  version="1.1" xmlns="http://www.w3.org/2000/svg" xmlns:xlink="http://www.w3.org/1999/xlink"><g transform="translate(5,5)"><g class="mark-group role-frame root"><g transform="translate(0,0)"><path class="background" d="M0,0h300v100h-300Z" style="fill: none; stroke: #ddd; stroke-width: 0;"></path><g><g class="mark-rect role-mark marks"><path d="M0.3658536585365937,85.832h6.585365853658537v14.168000000000006h-6.585365853658537Z" style="fill: #D2D4CE;"></path><path d="M7.682926829268301,85.60900000000001h6.585365853658537v14.390999999999991h-6.585365853658537Z" style="fill: #D2D4CE;"></path><path d="M15.000000000000009,82.2964h6.585365853658537v17.703599999999994h-6.585365853658537Z" style="fill: #D2D4CE;"></path><path d="M22.317073170731717,81.3116h6.585365853658537v18.6884h-6.585365853658537Z" style="fill: #D2D4CE;"></path><path d="M29.634146341463424,79.178h6.585365853658537v20.822000000000003h-6.585365853658537Z" style="fill: #D2D4CE;"></path><path d="M36.95121951219513,78.98479999999999h6.585365853658537v21.015200000000007h-6.585365853658537Z" style="fill: #D2D4CE;"></path><path d="M44.26829268292684,74.9684h6.585365853658537v25.031599999999997h-6.585365853658537Z" style="fill: #D2D4CE;"></path><path d="M51.585365853658544,74.028h6.585365853658537v25.971999999999994h-6.585365853658537Z" style="fill: #D2D4CE;"></path><path d="M58.902439024390254,73.4858h6.585365853658537v26.514200000000002h-6.585365853658537Z" style="fill: #D2D4CE;"></path><path d="M66.21951219512196,73.0792h6.585365853658537v26.9208h-6.585365853658537Z" style="fill: #D2D4CE;"></path><path d="M73.53658536585367,71.7866h6.585365853658537v28.213399999999993h-6.585365853658537Z" style="fill: #D2D4CE;"></path><path d="M80.85365853658537,70.8134h6.585365853658537v29.1866h-6.585365853658537Z" style="fill: #D2D4CE;"></path><path d="M88.17073170731709,70.4904h6.585365853658537v29.509600000000006h-6.585365853658537Z" style="fill: #D2D4CE;"></path><path d="M95.48780487804879,69.90259999999999h6.585365853658537v30.097400000000007h-6.585365853658537Z" style="fill: #D2D4CE;"></path><path d="M102.8048780487805,69.5164h6.585365853658537v30.483599999999996h-6.585365853658537Z" style="fill: #D2D4CE;"></path><path d="M110.12195121951221,68.6358h6.585365853658537v31.364199999999997h-6.585365853658537Z" style="fill: #D2D4CE;"></path><path d="M117.43902439024392,68.0892h6.585365853658537v31.910799999999995h-6.585365853658537Z" style="fill: #D2D4CE;"></path><path d="M124.75609756097562,67.2668h6.585365853658537v32.7332h-6.585365853658537Z" style="fill: #D2D4CE;"></path><path d="M132.07317073170734,67.08959999999999h6.585365853658537v32.91040000000001h-6.585365853658537Z" style="fill: #D2D4CE;"></path><path d="M139.39024390243904,65.94680000000001h6.585365853658537v34.05319999999999h-6.585365853658537Z" style="fill: #00923E;"></path><path d="M146.70731707317074,64.8162h6.585365853658537v35.183800000000005h-6.585365853658537Z" style="fill: #D2D4CE;"></path><path d="M154.02439024390245,60.2958h6.585365853658537v39.7042h-6.585365853658537Z" style="fill: #D2D4CE;"></path><path d="M161.34146341463415,59.826h6.585365853658537v40.174h-6.585365853658537Z" style="fill: #D2D4CE;"></path><path d="M168.65853658536588,59.09040000000001h6.585365853658537v40.90959999999999h-6.585365853658537Z" style="fill: #D2D4CE;"></path><path d="M175.97560975609758,58.79540000000001h6.585365853658537v41.20459999999999h-6.585365853658537Z" style="fill: #D2D4CE;"></path><path d="M183.2926829268293,58.6464h6.585365853658537v41.3536h-6.585365853658537Z" style="fill: #D2D4CE;"></path><path d="M190.609756097561,57.9642h6.585365853658537v42.0358h-6.585365853658537Z" style="fill: #D2D4CE;"></path><path d="M197.9268292682927,57.1152h6.585365853658537v42.8848h-6.585365853658537Z" style="fill: #D2D4CE;"></path><path d="M205.2439024390244,56.8198h6.585365853658537v43.1802h-6.585365853658537Z" style="fill: #D2D4CE;"></path><path d="M212.56097560975613,56.4762h6.585365853658537v43.5238h-6.585365853658537Z" style="fill: #D2D4CE;"></path><path d="M219.87804878048783,55.3788h6.585365853658537v44.6212h-6.585365853658537Z" style="fill: #D2D4CE;"></path><path d="M227.19512195121953,55.2312h6.585365853658537v44.7688h-6.585365853658537Z" style="fill: #D2D4CE;"></path><path d="M234.51219512195124,48.25899999999999h6.585365853658537v51.74100000000001h-6.585365853658537Z" style="fill: #D2D4CE;"></path><path d="M241.82926829268294,47.60300000000001h6.585365853658537v52.39699999999999h-6.585365853658537Z" style="fill: #D2D4CE;"></path><path d="M249.14634146341464,47.2064h6.585365853658537v52.7936h-6.585365853658537Z" style="fill: #D2D4CE;"></path><path d="M256.4634146341464,45.579h6.585365853658537v54.421h-6.585365853658537Z" style="fill: #D2D4CE;"></path><path d="M263.7804878048781,39.81600000000001h6.585365853658537v60.18399999999999h-6.585365853658537Z" style="fill: #D2D4CE;"></path><path d="M271.0975609756098,38.194799999999994h6.585365853658537v61.805200000000006h-6.585365853658537Z" style="fill: #D2D4CE;"></path><path d="M278.4146341463415,36.0762h6.585365853658537v63.9238h-6.585365853658537Z" style="fill: #D2D4CE;"></path><path d="M285.7317073170732,31.6422h6.585365853658537v68.3578h-6.585365853658537Z" style="fill: #D2D4CE;"></path><path d="M293.0487804878049,6.137400000000004h6.585365853658537v93.8626h-6.585365853658537Z" style="fill: #D2D4CE;"></path></g></g><path class="foreground" d="" style="display: none; fill: none;"></path></g></g></g></svg>