<svg class="marks" preserveAspectRatio="none" width="310" height="110"  version="1.1" xmlns="http://www.w3.org/2000/svg" xmlns:xlink="http://www.w3.org/1999/xlink"><g transform="translate(5,5)"><g class="mark-group role-frame root"><g transform="translate(0,0)"><path class="background" d="M0,0h300v100h-300Z" style="fill: none; stroke: #ddd; stroke-width: 0;"></path><g><g class="mark-rect role-mark marks"><path d="M0.3658536585365937,83.07692307692307h6.585365853658537v16.923076923076934h-6.585365853658537Z" style="fill: #D2D4CE;"></path><path d="M7.682926829268301,80h6.585365853658537v20h-6.585365853658537Z" style="fill: #D2D4CE;"></path><path d="M15.000000000000009,80h6.585365853658537v20h-6.585365853658537Z" style="fill: #D2D4CE;"></path><path d="M22.317073170731717,78.46153846153847h6.585365853658537v21.538461538461533h-6.585365853658537Z" style="fill: #D2D4CE;"></path><path d="M29.634146341463424,72.3076923076923h6.585365853658537v27.692307692307693h-6.585365853658537Z" style="fill: #D2D4CE;"></path><path d="M36.95121951219513,72.3076923076923h6.585365853658537v27.692307692307693h-6.585365853658537Z" style="fill: #D2D4CE;"></path><path d="M44.26829268292684,72.3076923076923h6.585365853658537v27.692307692307693h-6.585365853658537Z" style="fill: #D2D4CE;"></path><path d="M51.585365853658544,67.6923076923077h6.585365853658537v32.30769230769231h-6.585365853658537Z" style="fill: #D2D4CE;"></path><path d="M58.902439024390254,66.15384615384615h6.585365853658537v33.846153846153854h-6.585365853658537Z" style="fill: #D2D4CE;"></path><path d="M66.21951219512196,66.15384615384615h6.585365853658537v33.846153846153854h-6.585365853658537Z" style="fill: #D2D4CE;"></path><path d="M73.53658536585367,64.61538461538461h6.585365853658537v35.38461538461539h-6.585365853658537Z" style="fill: #D2D4CE;"></path><path d="M80.85365853658537,63.07692307692307h6.585365853658537v36.92307692307693h-6.585365853658537Z" style="fill: #D2D4CE;"></path><path d="M88.17073170731709,63.07692307692307h6.585365853658537v36.92307692307693h-6.585365853658537Z" style="fill: #D2D4CE;"></path><path d="M95.48780487804879,63.07692307692307h6.585365853658537v36.92307692307693h-6.585365853658537Z" style="fill: #D2D4CE;"></path><path d="M102.8048780487805,61.53846153846154h6.585365853658537v38.46153846153846h-6.585365853658537Z" style="fill: #D2D4CE;"></path><path d="M110.12195121951221,61.53846153846154h6.585365853658537v38.46153846153846h-6.585365853658537Z" style="fill: #D2D4CE;"></path><path d="M117.43902439024392,55.38461538461539h6.585365853658537v44.61538461538461h-6.585365853658537Z" style="fill: #D2D4CE;"></path><path d="M124.75609756097562,55.38461538461539h6.585365853658537v44.61538461538461h-6.585365853658537Z" style="fill: #D2D4CE;"></path><path d="M132.07317073170734,55.38461538461539h6.585365853658537v44.61538461538461h-6.585365853658537Z" style="fill: #D2D4CE;"></path><path d="M139.39024390243904,55.38461538461539h6.585365853658537v44.61538461538461h-6.585365853658537Z" style="fill: #D2D4CE;"></path><path d="M146.70731707317074,55.38461538461539h6.585365853658537v44.61538461538461h-6.585365853658537Z" style="fill: #D2D4CE;"></path><path d="M154.02439024390245,53.84615384615385h6.585365853658537v46.15384615384615h-6.585365853658537Z" style="fill: #D2D4CE;"></path><path d="M161.34146341463415,52.3076923076923h6.585365853658537v47.6923076923077h-6.585365853658537Z" style="fill: #D2D4CE;"></path><path d="M168.65853658536588,50.76923076923077h6.585365853658537v49.23076923076923h-6.585365853658537Z" style="fill: #D2D4CE;"></path><path d="M175.97560975609758,46.15384615384615h6.585365853658537v53.84615384615385h-6.585365853658537Z" style="fill: #D2D4CE;"></path><path d="M183.2926829268293,46.15384615384615h6.585365853658537v53.84615384615385h-6.585365853658537Z" style="fill: #D2D4CE;"></path><path d="M190.609756097561,44.61538461538461h6.585365853658537v55.38461538461539h-6.585365853658537Z" style="fill: #D2D4CE;"></path><path d="M197.9268292682927,43.07692307692308h6.585365853658537v56.92307692307692h-6.585365853658537Z" style="fill: #D2D4CE;"></path><path d="M205.2439024390244,41.53846153846153h6.585365853658537v58.46153846153847h-6.585365853658537Z" style="fill: #D2D4CE;"></path><path d="M212.56097560975613,38.46153846153846h6.585365853658537v61.53846153846154h-6.585365853658537Z" style="fill: #D2D4CE;"></path><path d="M219.87804878048783,36.92307692307693h6.585365853658537v63.07692307692307h-6.585365853658537Z" style="fill: #D2D4CE;"></path><path d="M227.19512195121953,36.92307692307693h6.585365853658537v63.07692307692307h-6.585365853658537Z" style="fill: #D2D4CE;"></path><path d="M234.51219512195124,32.30769230769231h6.585365853658537v67.6923076923077h-6.585365853658537Z" style="fill: #00923E;"></path><path d="M241.82926829268294,30.76923076923077h6.585365853658537v69.23076923076923h-6.585365853658537Z" style="fill: #D2D4CE;"></path><path d="M249.14634146341464,29.230769230769226h6.585365853658537v70.76923076923077h-6.585365853658537Z" style="fill: #D2D4CE;"></path><path d="M256.4634146341464,29.230769230769226h6.585365853658537v70.76923076923077h-6.585365853658537Z" style="fill: #D2D4CE;"></path><path d="M263.7804878048781,21.53846153846154h6.585365853658537v78.46153846153845h-6.585365853658537Z" style="fill: #D2D4CE;"></path><path d="M271.0975609756098,15.384615384615385h6.585365853658537v84.61538461538461h-6.585365853658537Z" style="fill: #D2D4CE;"></path><path d="M278.4146341463415,9.230769230769232h6.585365853658537v90.76923076923077h-6.585365853658537Z" style="fill: #D2D4CE;"></path><path d="M285.7317073170732,6.153846153846154h6.585365853658537v93.84615384615384h-6.585365853658537Z" style="fill: #D2D4CE;"></path><path d="M293.0487804878049,3.076923076923077h6.585365853658537v96.92307692307692h-6.585365853658537Z" style="fill: #D2D4CE;"></path></g></g><path class="foreground" d="" style="display: none; fill: none;"></path></g></g></g></svg>