<?xml version="1.0" encoding="UTF-8"?>
<svg id="Tile_lines_and_wall" data-name="Tile lines and wall" xmlns="http://www.w3.org/2000/svg" viewBox="0 0 517.82 380.35">
  <defs>
    <style>
      .cls-1, .cls-2, .cls-3, .cls-4, .cls-5, .cls-6 {
        fill: none;
      }

      .cls-1, .cls-7, .cls-8, .cls-9, .cls-3, .cls-10, .cls-4, .cls-5, .cls-6 {
        stroke: #000;
      }

      .cls-1, .cls-9, .cls-3, .cls-10, .cls-4, .cls-5 {
        stroke-linejoin: round;
      }

      .cls-1, .cls-9, .cls-10, .cls-4, .cls-6 {
        stroke-width: .34px;
      }

      .cls-2 {
        stroke-width: 0px;
      }

      .cls-7, .cls-8, .cls-6 {
        stroke-miterlimit: 10;
      }

      .cls-7, .cls-9, .cls-10 {
        fill: #fff;
      }

      .cls-8 {
        fill: #075ca9;
      }

      .cls-9, .cls-3, .cls-4, .cls-5 {
        stroke-linecap: round;
      }

      .cls-3 {
        stroke-width: .22px;
      }

      .cls-5 {
        stroke-width: .21px;
      }
    </style>
  </defs>
  <path class="cls-7" d="m229.42,111.36s.33-.11.41.17c.08.28.08.5.03.75-.06.25-.22.28-.39.39-.17.11-.64.57-.78,1.35-.14.77-.05,1.89.06,2.94.11,1.05.39,1.8.61,2.3.22.5.61,1.05.61,1.05,0,0,.02.34-.08.55-.15.3-.32.21-.32.21,0,0-1.04-1.57-1.31-2.81-.28-1.24-.44-1.94-.44-3.29s.29-1.97.68-2.61c.39-.64.93-.99.93-.99"/>
  <path class="cls-7" d="m236.76,108.95s.33-.12.41.17c.08.29.08.52.03.79-.06.26-.22.29-.39.41-.17.11-.64.6-.78,1.42-.14.82-.05,1.99.06,3.09.11,1.11.39,1.89.61,2.41.22.52.61,1.11.61,1.11,0,0,.02.36-.08.58-.15.32-.32.22-.32.22,0,0-1.04-1.65-1.31-2.96-.28-1.31-.44-2.04-.44-3.46s.29-2.07.68-2.74c.39-.67.93-1.04.93-1.04"/>
  <path class="cls-7" d="m211.36,129.46s.29-.1.36.14c.07.24.07.43.02.64-.05.21-.19.24-.33.33-.14.1-.55.49-.67,1.16-.12.66-.04,1.62.06,2.52.1.9.33,1.55.52,1.97.19.43.52.9.52.9,0,0,.02.29-.07.48-.13.26-.27.18-.27.18,0,0-.89-1.35-1.13-2.42-.24-1.07-.38-1.66-.38-2.83s.25-1.69.58-2.24c.33-.55.8-.85.8-.85"/>
  <line class="cls-1" x1="214.36" y1="128.36" x2="216.12" y2="129.16"/>
  <polyline class="cls-1" points="216.13 132.38 216.12 129.12 257.8 118.05"/>
  <path class="cls-7" d="m257.83,123.75s-4.22.35-8.09.86c-3.87.51-42.99,10.12-43.99,10.36-1.14.28-1.06.61-1.06.61,0,0-.03.32-.05,1.18-.02,1.06.69,1.38.69,1.38l3.73,1.98,21.35,3.85,41.66-5.85"/>
  <path class="cls-1" d="m257.83,123.75s-4.22.35-8.09.86c-3.87.51-42.99,10.12-43.99,10.36-1.14.28-1.06.61-1.06.61,0,0-.03.32-.05,1.18-.02,1.06.69,1.38.69,1.38l3.73,1.98,21.35,3.85,41.66-5.85"/>
  <line class="cls-10" x1="205.19" y1="138" x2="248.29" y2="128.66"/>
  <line class="cls-1" x1="209.06" y1="140.13" x2="252.23" y2="131.81"/>
  <path class="cls-1" d="m248.41,124.83s-.78.44-.65,1.9c.12,1.46.33,1.69,1.28,2.52,1.34,1.18,3.11,2.55,3.11,2.55l19.93,6.32v-1.71"/>
  <line class="cls-1" x1="226.5" y1="143.25" x2="268.13" y2="136.91"/>
  <polyline class="cls-10" points="228.14 142.98 212.24 140.11 251.22 132.81 266 137.26"/>
  <line class="cls-1" x1="228.87" y1="137.03" x2="244.79" y2="140.47"/>
  <line class="cls-1" x1="232.33" y1="142.37" x2="235.77" y2="143.19"/>
  <line class="cls-1" x1="259.94" y1="138.19" x2="263.56" y2="139.32"/>
  <polygon class="cls-7" points="257.82 72.91 257.83 132.63 316.08 121.4 316.15 44.4 257.82 72.91"/>
  <polygon class="cls-1" points="257.82 72.91 257.83 132.63 316.08 121.4 316.15 44.4 257.82 72.91"/>
  <line class="cls-1" x1="337.58" y1="95.82" x2="337.59" y2="126.72"/>
  <path class="cls-7" d="m309.97,106.44s.33-.13.41.21c.08.34.08.61.02.91-.06.3-.22.34-.39.47-.17.13-.65.69-.8,1.63-.15.94-.07,2.3.03,3.58.1,1.28.37,2.19.58,2.8.22.61.6,1.29.6,1.29,0,0,.02.41-.09.67-.15.37-.32.26-.32.26,0,0-1.02-1.92-1.28-3.44-.26-1.52-.42-2.36-.41-4.01.01-1.65.31-2.39.71-3.16.39-.77.94-1.2.94-1.2"/>
  <polygon class="cls-1" points="161.69 107.32 188.16 106.85 188.12 145.21 161.64 145.26 161.69 107.32"/>
  <line class="cls-1" x1="161.59" y1="108.47" x2="188.08" y2="107.92"/>
  <line class="cls-1" x1="161.7" y1="125.68" x2="188.12" y2="125.32"/>
  <polyline class="cls-1" points="188.12 126.3 161.81 126.74 177.56 129.79 186.82 126.33"/>
  <polyline class="cls-1" points="161.97 108.45 177.54 112.53 186.71 107.94"/>
  <line class="cls-1" x1="177.54" y1="112.53" x2="177.54" y2="125.36"/>
  <line class="cls-1" x1="177.56" y1="129.79" x2="177.56" y2="144.1"/>
  <line class="cls-1" x1="161.65" y1="144.3" x2="188.06" y2="144.22"/>
  <polyline class="cls-1" points="161.64 145.26 180.55 146.46 214.59 141.31"/>
  <polyline class="cls-1" points="161.8 145.29 152 144.67 148.65 145.4 148.79 170.49 109.12 171.11"/>
  <polyline class="cls-1" points="1.26 130.76 108.93 141.26 109.08 171.89 151.97 171.03 152 144.67"/>
  <line class="cls-1" x1="148.79" y1="170.49" x2="151.97" y2="171.03"/>
  <line class="cls-1" x1="429.23" y1="295.98" x2="517.56" y2="325.94"/>
  <polyline class="cls-1" points="1.26 51.09 163.6 100.6 188.15 99.77 388.12 -2.03"/>
  <line class="cls-1" x1="163.6" y1="100.6" x2="163.58" y2="107.16"/>
  <line class="cls-1" x1="188.15" y1="99.77" x2="188.15" y2="106.85"/>
  <polyline class="cls-1" points="107.94 141.24 108.28 94.05 152.29 106.09 152.47 144.64"/>
  <polyline class="cls-1" points="108.13 97.15 149.15 107.97 149.2 145.31"/>
  <line class="cls-1" x1="149.15" y1="107.97" x2="152.29" y2="106.09"/>
  <polyline class="cls-1" points="108.93 141.26 108.93 136.33 147.17 140.44 147.17 167.91 109.1 168"/>
  <line class="cls-1" x1="108.98" y1="137.55" x2="147" y2="141.5"/>
  <polyline class="cls-1" points="107.96 134.94 147.98 139.47 148.02 168.77 109.02 168.93"/>
  <polyline class="cls-1" points="108.23 98.8 147.94 108.93 147.98 138.09 107.95 133.45"/>
  <polyline class="cls-1" points="108.14 99.97 147.14 109.63 147.23 137.9"/>
  <line class="cls-1" x1="108.18" y1="101.33" x2="147" y2="110.71"/>
  <polyline class="cls-1" points="108.18 102.5 146.34 111.65 146.34 137.76"/>
  <polyline class="cls-1" points="242.7 195.25 314.18 205 337.67 191.92 337.67 195.85 314.07 209.54 242.7 199.36 242.7 195.29 272.89 186.89"/>
  <line class="cls-1" x1="314.16" y1="205" x2="314.15" y2="212.93"/>
  <line class="cls-1" x1="245.03" y1="199.77" x2="245.15" y2="273.19"/>
  <line class="cls-1" x1="314.15" y1="212.41" x2="314.2" y2="302.39"/>
  <line class="cls-1" x1="337.72" y1="195.43" x2="338.07" y2="281.35"/>
  <line class="cls-1" x1="245.05" y1="222.53" x2="314.18" y2="238.07"/>
  <line class="cls-1" x1="245.14" y1="247.71" x2="314.09" y2="270.83"/>
  <line class="cls-1" x1="125.05" y1="197.37" x2="125.17" y2="265.87"/>
  <line class="cls-1" x1="170.86" y1="191.49" x2="170.72" y2="252.32"/>
  <line class="cls-1" x1="185.97" y1="190.03" x2="185.92" y2="247.93"/>
  <line class="cls-1" x1="184.58" y1="187.28" x2="184.58" y2="189.78"/>
  <polyline class="cls-1" points="271.59 187.28 271.59 180.86 272.79 180.33"/>
  <line class="cls-1" x1="271.6" y1="180.87" x2="233.82" y2="178.41"/>
  <polyline class="cls-1" points="242.71 195.25 242.71 198.36 201.81 192.28 201.78 189.81 233.82 183.99 233.81 178.36 234.83 178.08 272.82 180.28 272.82 186.81"/>
  <line class="cls-1" x1="201.87" y1="189.69" x2="242.69" y2="195.27"/>
  <polyline class="cls-1" points="202.77 192.38 202.77 202.02 242.25 209.76 242.25 198.2"/>
  <line class="cls-1" x1="243.09" y1="199.49" x2="243.39" y2="272.45"/>
  <polygon class="cls-1" points="242.22 210.55 203 202.74 203.11 243.7 242.5 258.38 242.22 210.55"/>
  <path class="cls-1" d="m206.56,207.77l29.22,6.99s.75.45.74,1.51c-.01,1.05-.82,1.92-.82,1.92l-28.99-7.48s-.62-.55-.56-1.65c.06-1.1.41-1.29.41-1.29Z"/>
  <path class="cls-1" d="m209.61,208.6s-.22.53-.19,1.33c.03.8.3,1.49.3,1.49"/>
  <path class="cls-1" d="m231.5,213.8s-.52.64-.51,1.65c.01,1.26.23,1.56.23,1.56"/>
  <path class="cls-1" d="m235.78,214.76s-.58.88-.52,1.92c.06,1.04.44,1.51.44,1.51"/>
  <polyline class="cls-4" points="234.81 214.53 236.08 214.12 237.1 214.33 237.57 215.48 236.49 215.83"/>
  <line class="cls-4" x1="237.1" y1="214.32" x2="235.69" y2="214.8"/>
  <polyline class="cls-4" points="208.7 208.24 209.89 207.86 210.84 208.05 211.17 208.87"/>
  <line class="cls-4" x1="210.84" y1="208.05" x2="209.52" y2="208.49"/>
  <path class="cls-4" d="m207.91,216.29l-.04,18.4s-.12,2.08.99,2.6c1.11.52,24.79,8.97,24.79,8.97,0,0,1.43.8,1.43-1.13v-21.65s.04-1.4-1.56-1.76c-1.6-.37-24.29-6.56-24.29-6.56,0,0-.73-.25-1.05.07-.34.34-.26,1.06-.26,1.06Z"/>
  <polyline class="cls-4" points="203.21 255.34 203.08 244.71 242.49 259.5 242.49 272.04"/>
  <line class="cls-1" x1="326.86" y1="128.13" x2="326.86" y2="191"/>
  <path class="cls-7" d="m266.63,215.25s.52-.61,1.14-.09c.37.31,1.24,1.21,2.32,1.53,1.08.32,3.56,1.02,6.03,1.22,2.48.2,4.44.16,4.44.16,0,0,.64.15.92.52.37.49-.07.67-.07.67,0,0-5.08.09-7.64-.43-2.56-.52-4.49-1-5.71-1.96-.86-.67-1.42-1.63-1.42-1.63"/>
  <path class="cls-7" d="m266.43,240.6s.56-.58,1.19-.04c.37.32,1.09,1.15,2.13,1.67,1.36.68,3.64,1.51,6.2,1.82,2.56.31,4.81,0,4.81,0,0,0,.65.18.93.56.37.51-.1.67-.1.67,0,0-4.82.27-7.45-.37-2.63-.64-5.08-1.63-6.3-2.64-.86-.71-1.41-1.69-1.41-1.69"/>
  <path class="cls-7" d="m266.61,267.35s.6-.54,1.19.05c.35.35,1,1.23,2,1.83,1.31.78,3.52,1.77,6.05,2.28,2.53.5,4.79.37,4.79.37,0,0,.64.22.89.63.33.54-.15.66-.15.66,0,0-4.82-.09-7.4-.92-2.58-.83-4.94-2-6.09-3.1-.8-.77-1.28-1.79-1.28-1.79"/>
  <path class="cls-7" d="m119.12,203.36s-.45-.67.02-1.11c.47-.45.97.16,1.05,1.13.08.97.16,4.09.14,5.29-.02,1.2-.08,3.28-.22,3.99-.14.71-.36,1.14-.67,1.26-.3.12-.53-.2-.67-.49-.14-.28-.1-.59.02-.65.12-.06.4.13.51-.3.14-.61.26-.77.28-4.5.02-3.73-.47-4.62-.47-4.62"/>
  <path class="cls-7" d="m130.18,202.04s-.46-.63,0-1.06c.46-.43.97.14,1.07,1.06.1.92.22,3.88.22,5.01,0,1.13-.03,3.11-.17,3.79-.13.67-.35,1.08-.65,1.2-.3.12-.53-.18-.67-.45-.15-.27-.11-.56.01-.61.12-.06.41.12.5-.3.13-.58.25-.73.22-4.27-.03-3.54-.53-4.37-.53-4.37"/>
  <path class="cls-7" d="m174.75,195.32s-.45-.51,0-.86c.46-.35.97.11,1.07.86.09.75.21,3.15.2,4.07,0,.92-.04,2.53-.18,3.08-.13.55-.35.88-.65.98-.3.1-.53-.15-.68-.36-.14-.22-.11-.45.01-.5.12-.05.41.1.5-.24.14-.47.25-.6.23-3.47-.02-2.87-.52-3.55-.52-3.55"/>
  <polyline class="cls-1" points="163.6 183.38 182.38 186.71 85.91 196.77 72.54 190.94"/>
  <polygon class="cls-1" points="138.92 188.03 145.16 190.06 165.03 187.98 157.18 186.36 138.92 188.03"/>
  <path class="cls-1" d="m134.94,188.58v2.58m0-2.58l5.59,1.99-37.25,3.84-5.13-2.24,36.79-3.59Z"/>
  <line class="cls-1" x1="157.18" y1="186.36" x2="157.18" y2="188.7"/>
  <rect class="cls-8" x="144.02" y="182.13" width=".73" height="1.97"/>
  <rect class="cls-1" x="144.02" y="182.13" width=".73" height="1.97"/>
  <path class="cls-8" d="m143.85,183.72h1.18s.28.07.35.37c.07.3.07,1.01.25,1.34.18.33.49.81.6.88.11.07.21.39.14.51-.07.12-1,.35-1.87.37-.86.02-1.71-.16-1.92-.26-.21-.1-.21-.39-.14-.49.07-.11.46-.21.57-.41.11-.19.32-.9.35-1.43.03-.53.05-.71.16-.78.11-.07.33-.11.33-.11"/>
  <path class="cls-10" d="m143.85,183.72h1.18s.28.07.35.37c.07.3.07,1.01.25,1.34.18.33.49.81.6.88.11.07.21.39.14.51-.07.12-1,.35-1.87.37-.86.02-1.71-.16-1.92-.26-.21-.1-.21-.39-.14-.49.07-.11.46-.21.57-.41.11-.19.32-.9.35-1.43.03-.53.05-.71.16-.78.11-.07.33-.11.33-.11Z"/>
  <path class="cls-1" d="m142.6,186.34s.56.25,1.36.28c1.29.05,2.27-.32,2.27-.32"/>
  <path class="cls-8" d="m134.36,184.5s.19-2.37,1.4-4.14c1.21-1.77,3.24-2.67,4.3-2.98,1.07-.31,2.82-.36,3.74.1.92.45,1.23,1.25,1.3,1.63.07.38.07,2.34.07,2.34v1.03s-.4.07-.78.09c-.38.02-.71-.07-.71-.07l-.02-2.8s-.09-1.2-1.54-1.1c-1.44.1-2.89.59-4.07,1.59-1.18.99-1.75,2.34-1.96,3-.21.66-.24,1.35-.24,1.35"/>
  <path class="cls-10" d="m134.36,184.5s.19-2.37,1.4-4.14c1.21-1.77,3.24-2.67,4.3-2.98,1.07-.31,2.82-.36,3.74.1.92.45,1.23,1.25,1.3,1.63.07.38.07,2.34.07,2.34v1.03s-.4.07-.78.09c-.38.02-.71-.07-.71-.07l-.02-2.8s-.09-1.2-1.54-1.1c-1.44.1-2.89.59-4.07,1.59-1.18.99-1.75,2.34-1.96,3-.21.66-.24,1.35-.24,1.35"/>
  <path class="cls-1" d="m143.64,181.71s-.51-.21-.78-.04c-.29.19-.37.44-.26.71.11.26.39.35.58.35s.5-.24.5-.24"/>
  <path class="cls-1" d="m145.19,181.73s.79-.05,1.15-.14c.35-.09,1-.46,1.16-.48.16-.02.39.19.44.64.05.46-.22.7-.31.7s-.57-.19-.88-.2c-.32-.02-1.54-.03-1.54-.03"/>
  <path class="cls-1" d="m147.5,181.11s-.18.17-.13.67c.05.49.27.67.27.67"/>
  <rect class="cls-7" x="134.17" y="185.38" width="1.81" height="1.7"/>
  <rect class="cls-1" x="134.17" y="185.38" width="1.81" height="1.7"/>
  <path class="cls-8" d="m136.7,188.08s-.63.13-1.62.13-1.63-.13-1.63-.13v-1.21s1.05.09,1.64.09,1.61-.09,1.61-.09v1.21Z"/>
  <path class="cls-10" d="m136.7,188.08s-.63.13-1.62.13-1.63-.13-1.63-.13v-1.21s1.05.09,1.64.09,1.61-.09,1.61-.09v1.21Z"/>
  <path class="cls-8" d="m136.17,185.4s-.43.11-1.1.11-1.1-.11-1.1-.11v-1.02s.71.07,1.11.07,1.09-.07,1.09-.07v1.02Z"/>
  <path class="cls-10" d="m136.17,185.4s-.43.11-1.1.11-1.1-.11-1.1-.11v-1.02s.71.07,1.11.07,1.09-.07,1.09-.07v1.02Z"/>
  <rect class="cls-7" x="124.47" y="184.07" width=".73" height="1.97"/>
  <rect class="cls-1" x="124.47" y="184.07" width=".73" height="1.97"/>
  <path class="cls-8" d="m124.3,185.58h1.24s.29.07.37.37c.07.3.07,1.01.26,1.34.18.33.52.81.63.88.11.07.22.39.15.51-.07.12-1.05.35-1.96.37-.9.02-1.79-.16-2.01-.26-.22-.11-.22-.39-.15-.49.07-.11.48-.21.59-.41.11-.19.33-.9.37-1.43.04-.53.06-.71.17-.78.11-.07.35-.1.35-.1"/>
  <path class="cls-10" d="m124.3,185.58h1.24s.29.07.37.37c.07.3.07,1.01.26,1.34.18.33.52.81.63.88.11.07.22.39.15.51-.07.12-1.05.35-1.96.37-.9.02-1.79-.16-2.01-.26-.22-.11-.22-.39-.15-.49.07-.11.48-.21.59-.41.11-.19.33-.9.37-1.43.04-.53.06-.71.17-.78.11-.07.35-.1.35-.1Z"/>
  <path class="cls-1" d="m122.99,188.21s.59.25,1.42.28c1.35.05,2.38-.32,2.38-.32"/>
  <rect class="cls-1" x="121.64" y="183.24" width="5.12" height=".48" transform="translate(-18.09 13.64) rotate(-5.86)"/>
  <path class="cls-8" d="m122.23,183.92c0,.44-.36.8-.8.8s-.8-.36-.8-.8.36-.8.8-.8.8.36.8.8"/>
  <path class="cls-10" d="m122.23,183.92c0,.44-.36.8-.8.8s-.8-.36-.8-.8.36-.8.8-.8.8.36.8.8Z"/>
  <path class="cls-8" d="m127.39,183.26c0,.35-.29.64-.64.64s-.64-.29-.64-.64.29-.64.64-.64.64.29.64.64"/>
  <circle class="cls-10" cx="126.75" cy="183.26" r=".64"/>
  <path class="cls-8" d="m125.65,183.37c0,.44-.36.8-.8.8s-.8-.36-.8-.8.36-.8.8-.8.8.36.8.8"/>
  <circle class="cls-10" cx="124.85" cy="183.37" r=".8"/>
  <polygon class="cls-7" points="316.1 303.83 316.1 116.83 393.15 99.33 393.15 336.46 316.1 303.83"/>
  <polygon class="cls-2" points="316.1 303.83 316.1 116.83 393.15 99.33 393.15 336.46 316.1 303.83"/>
  <polyline class="cls-1" points="316.18 295.25 393.06 327.17 429.2 286.27"/>
  <polyline class="cls-7" points="316.2 44.41 408.1 -.42 429.36 8.92 429.36 71.38 408.1 63.98 316.04 91.13 337.59 96.03 429.26 71.55"/>
  <polyline class="cls-2" points="316.2 44.41 408.1 -.42 429.36 8.92 429.36 71.38 408.1 63.98 316.04 91.13 337.59 96.03 429.26 71.55"/>
  <line class="cls-1" x1="408.1" y1="63.98" x2="408.1" y2="-.42"/>
  <path class="cls-7" d="m358.04,61.5s.33-.13.41.21c.08.34.08.61.02.91-.06.3-.22.34-.39.47-.17.13-.65.69-.8,1.63-.15.94-.07,2.3.03,3.58.1,1.28.37,2.19.58,2.8.22.61.6,1.29.6,1.29,0,0,.02.41-.09.67-.15.37-.32.26-.32.26,0,0-1.02-1.92-1.28-3.44-.26-1.52-.42-2.36-.41-4.01.01-1.65.31-2.39.71-3.16.39-.77.94-1.2.94-1.2"/>
  <path class="cls-7" d="m368.86,58.03s.34-.14.42.21c.08.34.08.62.02.93-.06.31-.23.34-.4.48-.17.14-.67.71-.82,1.67-.15.96-.07,2.35.03,3.66.1,1.31.38,2.24.6,2.87.22.62.61,1.32.61,1.32,0,0,.02.42-.09.69-.16.37-.33.26-.33.26,0,0-1.04-1.96-1.31-3.52-.27-1.55-.43-2.42-.42-4.1.02-1.69.32-2.45.72-3.24.4-.79.96-1.23.96-1.23"/>
  <line class="cls-1" x1="316.15" y1="235.82" x2="393.17" y2="254.9"/>
  <line class="cls-1" x1="350.4" y1="109.03" x2="350.4" y2="244.55"/>
  <path class="cls-1" d="m320.24,243.96l63.09,16.96s1.6.97,1.47,3.03c-.13,2.06-1.98,3.66-1.98,3.66l-62.55-17.89s-1.29-1.14-1.07-3.28c.23-2.14,1.03-2.47,1.03-2.47Z"/>
  <path class="cls-1" d="m326.81,245.92s-.53,1.01-.54,2.58c-.02,1.57.52,2.94.52,2.94"/>
  <path class="cls-1" d="m374.1,258.57s-1.2,1.2-1.28,3.18c-.1,2.47.35,3.07.35,3.07"/>
  <path class="cls-1" d="m383.33,260.92s-1.36,1.65-1.32,3.69c.03,2.04.82,3,.82,3"/>
  <polyline class="cls-4" points="381.25 260.36 384.05 259.71 386.25 260.22 387.17 262.53 384.79 263.09"/>
  <line class="cls-4" x1="386.25" y1="260.22" x2="383.14" y2="260.99"/>
  <polyline class="cls-4" points="324.87 245.12 327.5 244.51 329.56 244.99 330.21 246.63"/>
  <line class="cls-4" x1="329.56" y1="244.99" x2="326.64" y2="245.71"/>
  <path class="cls-10" d="m345.56,150.05l.09,61.15s-.33,1.83-1.66,1.83c-2.09,0-2.23-1.9-2.23-1.9l.19-60.78s.5-1.38,1.89-1.48c1.39-.1,1.73,1.18,1.73,1.18Z"/>
  <path class="cls-1" d="m345.5,154.46s-.76-.73-1.77-.72c-1.43.02-1.85.94-1.85.94"/>
  <path class="cls-1" d="m345.64,207.23s-.57.78-2.31.79c-1.09,0-1.59-.67-1.59-.67"/>
  <path class="cls-10" d="m359.64,149.16l.09,64.01s-.34,1.91-1.74,1.91c-2.19,0-2.34-1.99-2.34-1.99l.2-63.62s.52-1.45,1.97-1.55c1.45-.11,1.81,1.24,1.81,1.24Z"/>
  <path class="cls-1" d="m359.58,153.78s-.8-.77-1.86-.75c-1.5.02-1.93.98-1.93.98"/>
  <path class="cls-1" d="m359.73,209.02s-.6.82-2.42.83c-1.14,0-1.66-.7-1.66-.7"/>
  <polyline class="cls-1" points="73.67 203.71 71.83 203.99 56.97 196.08 56.97 192.35 71.85 200.28 184.58 187.28 201.75 189.75 201.78 192.26 184.48 189.78 73.6 203.73 73.6 280.74 185.92 247.93 314.21 302.63 316.12 300.92"/>
  <line class="cls-6" x1="71.85" y1="200.28" x2="71.85" y2="203.91"/>
  <polyline class="cls-6" points="73.6 280.9 58.95 264.89 58.31 196.82"/>
  <rect class="cls-1" x="365.6" y="131.01" width="17.8" height="14.78" transform="translate(155.31 472.1) rotate(-76.98)"/>
  <path class="cls-7" d="m379.74,129.43c0,1.67-1.35,3.02-3.02,3.02s-3.02-1.35-3.02-3.02,1.35-3.02,3.02-3.02,3.02,1.35,3.02,3.02"/>
  <path class="cls-1" d="m379.74,129.43c0,1.67-1.35,3.02-3.02,3.02s-3.02-1.35-3.02-3.02,1.35-3.02,3.02-3.02,3.02,1.35,3.02,3.02Z"/>
  <rect class="cls-1" x="373.98" y="154.53" width="12.44" height="14.98" transform="translate(-2.67 6.41) rotate(-.96)"/>
  <polygon class="cls-7" points="377.4 152.02 376.05 159.29 383.02 156.82 377.4 152.02"/>
  <polygon class="cls-1" points="377.4 152.02 376.05 159.29 383.02 156.82 377.4 152.02"/>
  <path class="cls-8" d="m206.92,196.7s.27-.62,1.41-.63c1.09-.01,1.53.77,1.71,1.13.19.38.36,1.27.13,2.22-.18.73-.74,1.48-1.67,1.52-.74.03-1.28-.41-1.28-.41"/>
  <path class="cls-4" d="m206.92,196.7s.27-.62,1.41-.63c1.09-.01,1.53.77,1.71,1.13.19.38.36,1.27.13,2.22-.18.73-.74,1.48-1.67,1.52-.74.03-1.28-.41-1.28-.41"/>
  <path class="cls-7" d="m206.93,196.75c.17-.14.48-.29.98-.28.97.01,1.33.79,1.43,1.02.12.28.27,1.09.09,1.7-.18.61-.62,1.23-1.41,1.26-.24.01-.45-.02-.61-.06"/>
  <path class="cls-4" d="m206.93,196.75c.17-.14.48-.29.98-.28.97.01,1.33.79,1.43,1.02.12.28.27,1.09.09,1.7-.18.61-.62,1.23-1.41,1.26-.24.01-.45-.02-.61-.06"/>
  <path class="cls-7" d="m205.81,197.27s.46-.54,1.01-.53c.86,0,1.34.76,1.49,1.25.17.53.08,1.27-.12,1.63-.27.51-.77.89-1.29.9-.65,0-1.36-.56-1.54-1.18-.16-.54-.09-1,.05-1.44.09-.27.4-.64.4-.64"/>
  <path class="cls-1" d="m205.81,197.27s.46-.54,1.01-.53c.86,0,1.34.76,1.49,1.25.17.53.08,1.27-.12,1.63-.27.51-.77.89-1.29.9-.65,0-1.36-.56-1.54-1.18-.16-.54-.09-1,.05-1.44.09-.27.4-.64.4-.64Z"/>
  <path class="cls-4" d="m207.46,197.51s-.84-.04-1.21.76c-.43.92-.14,1.43-.14,1.43"/>
  <path class="cls-8" d="m212.68,197.57s.27-.62,1.41-.63c1.09-.01,1.53.77,1.71,1.13.19.38.36,1.27.13,2.22-.18.73-.74,1.48-1.67,1.52-.74.03-1.28-.41-1.28-.41"/>
  <path class="cls-4" d="m212.68,197.57s.27-.62,1.41-.63c1.09-.01,1.53.77,1.71,1.13.19.38.36,1.27.13,2.22-.18.73-.74,1.48-1.67,1.52-.74.03-1.28-.41-1.28-.41"/>
  <path class="cls-8" d="m212.69,197.62c.17-.14.48-.29.98-.28.97.01,1.32.79,1.43,1.02.12.28.27,1.09.09,1.7-.18.61-.62,1.23-1.41,1.26-.24.01-.45-.02-.61-.06"/>
  <path class="cls-9" d="m212.69,197.62c.17-.14.48-.29.98-.28.97.01,1.32.79,1.43,1.02.12.28.27,1.09.09,1.7-.18.61-.62,1.23-1.41,1.26-.24.01-.45-.02-.61-.06"/>
  <path class="cls-7" d="m211.57,198.14s.46-.54,1.01-.53c.86,0,1.34.76,1.49,1.25.17.53.08,1.27-.12,1.63-.27.51-.77.89-1.29.9-.65,0-1.36-.56-1.54-1.18-.16-.54-.09-1,.05-1.44.09-.27.4-.64.4-.64"/>
  <path class="cls-1" d="m211.57,198.14s.46-.54,1.01-.53c.86,0,1.34.76,1.49,1.25.17.53.08,1.27-.12,1.63-.27.51-.77.89-1.29.9-.65,0-1.36-.56-1.54-1.18-.16-.54-.09-1,.05-1.44.09-.27.4-.64.4-.64Z"/>
  <path class="cls-4" d="m213.21,198.38s-.84-.04-1.21.76c-.43.92-.14,1.43-.14,1.43"/>
  <path class="cls-8" d="m218.44,198.57s.27-.62,1.41-.63c1.09-.01,1.53.77,1.71,1.13.19.38.36,1.27.13,2.22-.18.73-.74,1.48-1.67,1.52-.74.03-1.28-.41-1.28-.41"/>
  <path class="cls-4" d="m218.44,198.57s.27-.62,1.41-.63c1.09-.01,1.53.77,1.71,1.13.19.38.36,1.27.13,2.22-.18.73-.74,1.48-1.67,1.52-.74.03-1.28-.41-1.28-.41"/>
  <path class="cls-7" d="m218.45,198.62c.17-.14.48-.29.98-.28.97.01,1.33.79,1.43,1.02.12.28.27,1.09.09,1.7-.18.61-.62,1.23-1.41,1.26-.24.01-.45-.02-.61-.06"/>
  <path class="cls-4" d="m218.45,198.62c.17-.14.48-.29.98-.28.97.01,1.33.79,1.43,1.02.12.28.27,1.09.09,1.7-.18.61-.62,1.23-1.41,1.26-.24.01-.45-.02-.61-.06"/>
  <path class="cls-7" d="m217.33,199.13s.46-.54,1.01-.53c.86,0,1.34.76,1.49,1.25.17.54.08,1.27-.12,1.63-.27.51-.77.89-1.29.9-.65,0-1.36-.56-1.54-1.18-.16-.54-.09-1,.05-1.44.09-.27.4-.64.4-.64"/>
  <path class="cls-1" d="m217.33,199.13s.46-.54,1.01-.53c.86,0,1.34.76,1.49,1.25.17.54.08,1.27-.12,1.63-.27.51-.77.89-1.29.9-.65,0-1.36-.56-1.54-1.18-.16-.54-.09-1,.05-1.44.09-.27.4-.64.4-.64Z"/>
  <path class="cls-4" d="m218.97,199.37s-.84-.04-1.21.76c-.43.93-.14,1.43-.14,1.43"/>
  <path class="cls-8" d="m224.44,199.4s.27-.62,1.41-.63c1.09-.01,1.53.77,1.71,1.13.19.38.36,1.27.13,2.22-.18.73-.74,1.48-1.67,1.52-.74.03-1.28-.41-1.28-.41"/>
  <path class="cls-4" d="m224.44,199.4s.27-.62,1.41-.63c1.09-.01,1.53.77,1.71,1.13.19.38.36,1.27.13,2.22-.18.73-.74,1.48-1.67,1.52-.74.03-1.28-.41-1.28-.41"/>
  <path class="cls-7" d="m224.44,199.45c.17-.14.48-.29.98-.28.97.01,1.32.79,1.43,1.02.12.28.27,1.09.09,1.7-.18.61-.62,1.23-1.41,1.26-.24.01-.45-.02-.61-.06"/>
  <path class="cls-4" d="m224.44,199.45c.17-.14.48-.29.98-.28.97.01,1.32.79,1.43,1.02.12.28.27,1.09.09,1.7-.18.61-.62,1.23-1.41,1.26-.24.01-.45-.02-.61-.06"/>
  <path class="cls-7" d="m223.32,199.96s.46-.54,1.01-.53c.86,0,1.34.76,1.49,1.25.17.54.08,1.27-.12,1.63-.27.51-.77.89-1.29.9-.65,0-1.36-.56-1.54-1.18-.16-.54-.09-1,.05-1.44.09-.27.4-.64.4-.64"/>
  <path class="cls-1" d="m223.32,199.96s.46-.54,1.01-.53c.86,0,1.34.76,1.49,1.25.17.54.08,1.27-.12,1.63-.27.51-.77.89-1.29.9-.65,0-1.36-.56-1.54-1.18-.16-.54-.09-1,.05-1.44.09-.27.4-.64.4-.64Z"/>
  <path class="cls-4" d="m224.97,200.2s-.84-.04-1.21.76c-.43.93-.14,1.43-.14,1.43"/>
  <path class="cls-8" d="m235.46,201.28s.27-.62,1.41-.63c1.09-.01,1.53.77,1.71,1.13.19.38.36,1.27.13,2.22-.18.73-.74,1.48-1.67,1.52-.74.03-1.28-.41-1.28-.41"/>
  <path class="cls-4" d="m235.46,201.28s.27-.62,1.41-.63c1.09-.01,1.53.77,1.71,1.13.19.38.36,1.27.13,2.22-.18.73-.74,1.48-1.67,1.52-.74.03-1.28-.41-1.28-.41"/>
  <path class="cls-7" d="m235.47,201.33c.17-.14.48-.29.98-.28.97.01,1.32.79,1.43,1.02.12.28.27,1.09.09,1.7-.18.61-.62,1.23-1.41,1.26-.24.01-.45-.02-.61-.06"/>
  <path class="cls-4" d="m235.47,201.33c.17-.14.48-.29.98-.28.97.01,1.32.79,1.43,1.02.12.28.27,1.09.09,1.7-.18.61-.62,1.23-1.41,1.26-.24.01-.45-.02-.61-.06"/>
  <path class="cls-7" d="m234.34,201.85s.46-.54,1.01-.53c.86,0,1.34.76,1.49,1.25.17.53.08,1.27-.12,1.63-.27.51-.77.89-1.29.9-.65,0-1.36-.56-1.54-1.18-.16-.54-.09-1,.05-1.44.09-.27.4-.64.4-.64"/>
  <path class="cls-1" d="m234.34,201.85s.46-.54,1.01-.53c.86,0,1.34.76,1.49,1.25.17.53.08,1.27-.12,1.63-.27.51-.77.89-1.29.9-.65,0-1.36-.56-1.54-1.18-.16-.54-.09-1,.05-1.44.09-.27.4-.64.4-.64Z"/>
  <path class="cls-4" d="m235.99,202.09s-.84-.04-1.21.76c-.43.93-.14,1.43-.14,1.43"/>
  <line class="cls-5" x1="222.8" y1="187.73" x2="221.71" y2="190.87"/>
  <line class="cls-5" x1="215.99" y1="189.27" x2="228.52" y2="189.33"/>
  <line class="cls-5" x1="218.21" y1="188.17" x2="226.3" y2="190.43"/>
  <line class="cls-5" x1="217.44" y1="190.39" x2="227.07" y2="188.21"/>
  <line class="cls-5" x1="220.5" y1="187.82" x2="224.01" y2="190.78"/>
  <line class="cls-5" x1="216.22" y1="189.84" x2="228.29" y2="188.76"/>
  <line class="cls-5" x1="216.75" y1="188.64" x2="227.76" y2="189.96"/>
  <line class="cls-5" x1="219.23" y1="190.73" x2="225.28" y2="187.87"/>
  <path class="cls-7" d="m219.99,189.31c-.1.3.82.55,2.07.55,1.25,0,2.35-.23,2.45-.54.1-.3-.82-.55-2.07-.55-1.25,0-2.35.24-2.45.54"/>
  <line class="cls-3" x1="240.92" y1="189.88" x2="239.78" y2="193.2"/>
  <line class="cls-3" x1="233.74" y1="191.51" x2="246.97" y2="191.56"/>
  <line class="cls-3" x1="236.08" y1="190.34" x2="244.62" y2="192.73"/>
  <line class="cls-3" x1="235.27" y1="192.69" x2="245.43" y2="190.38"/>
  <line class="cls-3" x1="238.5" y1="189.98" x2="242.2" y2="193.1"/>
  <line class="cls-3" x1="233.98" y1="192.11" x2="246.73" y2="190.96"/>
  <line class="cls-3" x1="234.53" y1="190.84" x2="246.17" y2="192.23"/>
  <line class="cls-3" x1="237.15" y1="193.04" x2="243.55" y2="190.03"/>
  <path class="cls-7" d="m237.95,191.55c-.11.32.87.58,2.19.59,1.32,0,2.48-.25,2.59-.57.11-.32-.87-.58-2.19-.59-1.32,0-2.48.25-2.59.57"/>
  <line class="cls-5" x1="236.54" y1="185.22" x2="235.46" y2="188.37"/>
  <line class="cls-5" x1="229.74" y1="186.77" x2="242.26" y2="186.82"/>
  <line class="cls-5" x1="231.95" y1="185.66" x2="240.04" y2="187.93"/>
  <line class="cls-5" x1="231.19" y1="187.89" x2="240.81" y2="185.7"/>
  <line class="cls-5" x1="234.24" y1="185.32" x2="237.75" y2="188.27"/>
  <line class="cls-5" x1="229.96" y1="187.34" x2="242.03" y2="186.25"/>
  <line class="cls-5" x1="230.49" y1="186.13" x2="241.51" y2="187.45"/>
  <line class="cls-5" x1="232.97" y1="188.22" x2="239.03" y2="185.37"/>
  <path class="cls-7" d="m233.73,186.81c-.1.3.82.55,2.07.55,1.25,0,2.35-.23,2.45-.53.1-.3-.82-.55-2.07-.56-1.25,0-2.35.23-2.45.54"/>
  <line class="cls-3" x1="252.92" y1="186.65" x2="251.78" y2="189.97"/>
  <line class="cls-3" x1="245.73" y1="188.28" x2="258.96" y2="188.34"/>
  <line class="cls-3" x1="248.08" y1="187.12" x2="256.62" y2="189.51"/>
  <line class="cls-3" x1="247.27" y1="189.47" x2="257.43" y2="187.16"/>
  <polyline id="Fridge_right_panel" data-name="Fridge right panel" class="cls-1" points="393.15 99.38 429.2 116.04 429.2 296.15 393.15 336.46"/>
  <line class="cls-3" x1="250.49" y1="186.75" x2="254.2" y2="189.87"/>
  <line class="cls-3" x1="245.97" y1="188.89" x2="258.72" y2="187.74"/>
  <line class="cls-3" x1="246.53" y1="187.62" x2="258.17" y2="189.01"/>
  <line class="cls-3" x1="249.15" y1="189.82" x2="255.55" y2="186.8"/>
  <path class="cls-7" d="m249.95,188.33c-.11.32.87.58,2.19.59,1.32,0,2.48-.25,2.59-.57.11-.32-.87-.58-2.19-.59-1.32,0-2.48.25-2.59.57"/>
  <line class="cls-8" x1="363.23" y1="21.48" x2="363.23" y2="77.23"/>
  <line class="cls-1" x1="363.23" y1="21.48" x2="363.23" y2="77.23"/>
  <line class="cls-1" x1="58.95" y1="264.89" x2="-.26" y2="279.86"/>
  <polyline id="BT_14" data-name="BT 14" class="cls-1" points="241.41 132.8 254.69 136.64 307.25 128.2 316.05 127.09 316.1 191.81 180.65 180.95 .99 196.97"/>
  <line class="cls-1" x1="194.18" y1="144.41" x2="194.18" y2="181.12"/>
  <polygon class="cls-1" points="232.91 84.97 214.34 94.04 214.36 128.36 233.2 123.54 232.91 84.97"/>
  <polygon class="cls-6" points="232.91 84.95 257.82 72.86 257.82 116.73 233.2 123.54 232.91 84.95"/>
  <polygon class="cls-1" points="188.16 106.85 214.36 94.09 214.36 140.34 188.12 145.21 188.16 106.85"/>
</svg>