<?xml version="1.0" encoding="UTF-8"?>
<svg id="Tile_lines_and_wall" data-name="Tile lines and wall" xmlns="http://www.w3.org/2000/svg" xmlns:xlink="http://www.w3.org/1999/xlink" viewBox="0 0 691.41 653.38">
  <defs>
    <style>
      .cls-1, .cls-2, .cls-3, .cls-4, .cls-5, .cls-6, .cls-7 {
        fill: none;
      }

      .cls-1, .cls-8, .cls-9, .cls-10, .cls-3, .cls-4, .cls-11, .cls-5, .cls-6, .cls-7 {
        stroke: #000;
      }

      .cls-1, .cls-10, .cls-4, .cls-11, .cls-5, .cls-6 {
        stroke-linejoin: round;
      }

      .cls-1, .cls-10, .cls-11, .cls-5, .cls-7 {
        stroke-width: .34px;
      }

      .cls-12 {
        clip-path: url(#clippath);
      }

      .cls-2 {
        stroke-width: 0px;
      }

      .cls-8, .cls-9, .cls-3, .cls-7 {
        stroke-miterlimit: 10;
      }

      .cls-8, .cls-10, .cls-11 {
        fill: #fff;
      }

      .cls-9 {
        fill: #075ca9;
      }

      .cls-10, .cls-4, .cls-5, .cls-6 {
        stroke-linecap: round;
      }

      .cls-4 {
        stroke-width: .22px;
      }

      .cls-6 {
        stroke-width: .21px;
      }
    </style>
    <clipPath id="clippath">
      <polygon class="cls-3" points="90.89 553.93 609.11 553.39 609.11 180.16 90.89 180.69 90.89 553.93"/>
    </clipPath>
  </defs>
  <g class="cls-12">
    <path class="cls-8" d="m320.91,282.56s.33-.11.41.17c.08.28.08.5.03.75-.06.25-.22.28-.39.39-.17.11-.64.57-.78,1.35-.14.77-.05,1.89.06,2.94.11,1.05.39,1.8.61,2.3.22.5.61,1.05.61,1.05,0,0,.02.34-.08.55-.15.3-.32.21-.32.21,0,0-1.04-1.57-1.31-2.81-.28-1.24-.44-1.94-.44-3.29s.29-1.97.68-2.61c.39-.64.93-.99.93-.99"/>
    <path class="cls-8" d="m328.25,280.14s.33-.12.41.17c.08.29.08.52.03.79-.06.26-.22.29-.39.41-.17.11-.64.6-.78,1.42-.14.82-.05,1.99.06,3.09.11,1.11.39,1.89.61,2.41.22.52.61,1.11.61,1.11,0,0,.02.36-.08.58-.15.32-.32.22-.32.22,0,0-1.04-1.65-1.31-2.96-.28-1.31-.44-2.04-.44-3.46s.29-2.07.68-2.74c.39-.67.93-1.04.93-1.04"/>
    <path class="cls-8" d="m302.85,300.65s.29-.1.36.14c.07.24.07.43.02.64-.05.21-.19.24-.33.33-.14.1-.55.49-.67,1.16-.12.66-.04,1.62.06,2.52.1.9.33,1.55.52,1.97.19.43.52.9.52.9,0,0,.02.29-.07.48-.13.26-.27.18-.27.18,0,0-.89-1.35-1.13-2.42-.24-1.07-.38-1.66-.38-2.83s.25-1.69.58-2.24c.33-.55.8-.85.8-.85"/>
    <line class="cls-1" x1="305.84" y1="299.56" x2="307.6" y2="300.35"/>
    <polyline class="cls-1" points="307.62 303.58 307.6 300.31 349.28 289.25"/>
    <path class="cls-8" d="m349.31,294.94s-4.22.35-8.09.86c-3.87.51-42.99,10.12-43.99,10.36-1.14.28-1.06.61-1.06.61,0,0-.03.32-.05,1.18-.02,1.06.69,1.38.69,1.38l3.73,1.98,21.35,3.85,41.66-5.85"/>
    <path class="cls-1" d="m349.31,294.94s-4.22.35-8.09.86c-3.87.51-42.99,10.12-43.99,10.36-1.14.28-1.06.61-1.06.61,0,0-.03.32-.05,1.18-.02,1.06.69,1.38.69,1.38l3.73,1.98,21.35,3.85,41.66-5.85"/>
    <line class="cls-11" x1="296.68" y1="309.19" x2="339.78" y2="299.85"/>
    <line class="cls-1" x1="300.55" y1="311.32" x2="343.71" y2="303"/>
    <path class="cls-1" d="m339.9,296.03s-.78.44-.65,1.9c.12,1.46.33,1.69,1.28,2.52,1.34,1.18,3.11,2.55,3.11,2.55l19.93,6.32v-1.71"/>
    <line class="cls-1" x1="317.99" y1="314.44" x2="359.62" y2="308.11"/>
    <polyline class="cls-11" points="319.63 314.17 303.73 311.3 342.71 304 357.48 308.46"/>
    <line class="cls-1" x1="320.36" y1="308.22" x2="336.28" y2="311.66"/>
    <line class="cls-1" x1="323.82" y1="313.56" x2="327.26" y2="314.38"/>
    <line class="cls-1" x1="351.43" y1="309.39" x2="355.05" y2="310.51"/>
    <polygon class="cls-8" points="349.31 244.1 349.32 303.82 407.56 292.59 407.64 215.59 349.31 244.1"/>
    <polygon class="cls-1" points="349.31 244.1 349.32 303.82 407.56 292.59 407.64 215.59 349.31 244.1"/>
    <line class="cls-1" x1="429.07" y1="267.01" x2="429.08" y2="297.92"/>
    <path class="cls-8" d="m401.46,277.63s.33-.13.41.21c.08.34.08.61.02.91-.06.3-.22.34-.39.47-.17.13-.65.69-.8,1.63-.15.94-.07,2.3.03,3.58.1,1.28.37,2.19.58,2.8.22.61.6,1.29.6,1.29,0,0,.02.41-.09.67-.15.37-.32.26-.32.26,0,0-1.02-1.92-1.28-3.44-.26-1.52-.42-2.36-.41-4.01.01-1.65.31-2.39.71-3.16.39-.77.94-1.2.94-1.2"/>
    <polygon class="cls-1" points="253.18 278.52 279.65 278.04 279.61 316.41 253.13 316.45 253.18 278.52"/>
    <line class="cls-1" x1="253.07" y1="279.66" x2="279.57" y2="279.12"/>
    <line class="cls-1" x1="253.19" y1="296.87" x2="279.6" y2="296.52"/>
    <polyline class="cls-1" points="279.6 297.49 253.3 297.93 269.05 300.98 278.31 297.52"/>
    <polyline class="cls-1" points="253.46 279.64 269.03 283.72 278.2 279.14"/>
    <line class="cls-1" x1="269.03" y1="283.72" x2="269.03" y2="296.55"/>
    <line class="cls-1" x1="269.05" y1="300.98" x2="269.05" y2="315.29"/>
    <line class="cls-1" x1="253.14" y1="315.49" x2="279.55" y2="315.41"/>
    <polyline class="cls-1" points="253.13 316.45 272.03 317.66 306.08 312.51"/>
    <polyline class="cls-1" points="253.29 316.48 243.49 315.86 240.13 316.59 240.28 341.69 200.61 342.3"/>
    <polyline class="cls-1" points="92.75 301.95 200.42 312.45 200.57 343.08 243.46 342.22 243.49 315.86"/>
    <line class="cls-1" x1="240.28" y1="341.69" x2="243.46" y2="342.22"/>
    <line class="cls-1" x1="520.71" y1="467.17" x2="609.05" y2="497.13"/>
    <polyline class="cls-1" points="92.75 222.28 255.08 271.79 279.64 270.96 607.45 104.08"/>
    <line class="cls-1" x1="255.08" y1="271.79" x2="255.07" y2="278.36"/>
    <line class="cls-1" x1="279.64" y1="270.96" x2="279.64" y2="278.04"/>
    <polyline class="cls-1" points="199.43 312.43 199.77 265.25 243.78 277.28 243.95 315.83"/>
    <polyline class="cls-1" points="199.62 268.34 240.64 279.16 240.69 316.51"/>
    <line class="cls-1" x1="240.64" y1="279.16" x2="243.78" y2="277.28"/>
    <polyline class="cls-1" points="200.42 312.45 200.42 307.52 238.65 311.64 238.65 339.11 200.59 339.19"/>
    <line class="cls-1" x1="200.47" y1="308.74" x2="238.49" y2="312.7"/>
    <polyline class="cls-1" points="199.45 306.13 239.47 310.66 239.51 339.96 200.51 340.12"/>
    <polyline class="cls-1" points="199.72 269.99 239.43 280.12 239.47 309.28 199.44 304.64"/>
    <polyline class="cls-1" points="199.62 271.17 238.63 280.82 238.72 309.09"/>
    <line class="cls-1" x1="199.67" y1="272.52" x2="238.49" y2="281.9"/>
    <polyline class="cls-1" points="199.67 273.7 237.83 282.84 237.83 308.95"/>
    <polyline class="cls-1" points="334.19 366.44 405.67 376.19 429.16 363.11 429.16 367.04 405.56 380.73 334.19 370.55 334.19 366.48 364.38 358.08"/>
    <line class="cls-1" x1="405.65" y1="376.19" x2="405.63" y2="384.12"/>
    <line class="cls-1" x1="336.51" y1="370.96" x2="336.64" y2="444.38"/>
    <line class="cls-1" x1="405.64" y1="383.6" x2="405.68" y2="473.59"/>
    <line class="cls-1" x1="429.2" y1="366.63" x2="429.56" y2="452.54"/>
    <line class="cls-1" x1="336.54" y1="393.72" x2="405.67" y2="409.26"/>
    <line class="cls-1" x1="336.63" y1="418.9" x2="405.58" y2="442.02"/>
    <line class="cls-1" x1="216.54" y1="368.56" x2="216.66" y2="437.06"/>
    <line class="cls-1" x1="262.35" y1="362.68" x2="262.2" y2="423.51"/>
    <line class="cls-1" x1="277.45" y1="361.22" x2="277.41" y2="419.12"/>
    <line class="cls-1" x1="276.07" y1="358.47" x2="276.07" y2="360.98"/>
    <polyline class="cls-1" points="363.08 358.47 363.08 352.05 364.28 351.52"/>
    <line class="cls-1" x1="363.09" y1="352.06" x2="325.31" y2="349.6"/>
    <polyline class="cls-1" points="334.2 366.45 334.2 369.55 293.3 363.47 293.27 361 325.31 355.18 325.3 349.55 326.32 349.27 364.31 351.47 364.31 358"/>
    <line class="cls-1" x1="293.36" y1="360.89" x2="334.17" y2="366.46"/>
    <polyline class="cls-1" points="294.26 363.57 294.26 373.21 333.74 380.95 333.74 369.39"/>
    <line class="cls-1" x1="334.58" y1="370.69" x2="334.88" y2="443.64"/>
    <polygon class="cls-1" points="333.71 381.74 294.49 373.93 294.6 414.89 333.99 429.57 333.71 381.74"/>
    <path class="cls-1" d="m298.04,378.97l29.22,6.99s.75.45.74,1.51c-.01,1.05-.82,1.92-.82,1.92l-28.99-7.48s-.62-.55-.56-1.65c.06-1.1.41-1.29.41-1.29Z"/>
    <path class="cls-1" d="m301.09,379.79s-.22.53-.19,1.33c.03.8.3,1.49.3,1.49"/>
    <path class="cls-1" d="m322.99,385s-.52.64-.51,1.65c.01,1.26.23,1.56.23,1.56"/>
    <path class="cls-1" d="m327.26,385.95s-.58.88-.52,1.92c.06,1.04.44,1.51.44,1.51"/>
    <polyline class="cls-5" points="326.3 385.72 327.57 385.32 328.58 385.52 329.06 386.67 327.98 387.02"/>
    <line class="cls-5" x1="328.58" y1="385.52" x2="327.18" y2="385.99"/>
    <polyline class="cls-5" points="300.19 379.44 301.37 379.05 302.33 379.24 302.66 380.06"/>
    <line class="cls-5" x1="302.33" y1="379.24" x2="301.01" y2="379.69"/>
    <path class="cls-5" d="m299.39,387.48l-.04,18.4s-.12,2.08.99,2.6c1.11.52,24.79,8.97,24.79,8.97,0,0,1.43.8,1.43-1.13v-21.65s.04-1.4-1.56-1.76c-1.6-.37-24.29-6.56-24.29-6.56,0,0-.73-.25-1.05.07-.34.34-.26,1.06-.26,1.06Z"/>
    <polyline class="cls-5" points="294.7 426.53 294.56 415.9 333.98 430.7 333.98 443.24"/>
    <line class="cls-1" x1="418.35" y1="299.32" x2="418.35" y2="362.19"/>
    <path class="cls-8" d="m358.12,386.44s.52-.61,1.14-.09c.37.31,1.24,1.21,2.32,1.53,1.08.32,3.56,1.02,6.03,1.22,2.48.2,4.44.16,4.44.16,0,0,.64.15.92.52.37.49-.07.67-.07.67,0,0-5.08.09-7.64-.43-2.56-.52-4.49-1-5.71-1.96-.86-.67-1.42-1.63-1.42-1.63"/>
    <path class="cls-8" d="m357.92,411.79s.56-.58,1.19-.04c.37.32,1.09,1.15,2.13,1.67,1.36.68,3.64,1.51,6.2,1.82,2.56.31,4.81,0,4.81,0,0,0,.65.18.93.56.37.51-.1.67-.1.67,0,0-4.82.27-7.45-.37-2.63-.64-5.08-1.63-6.3-2.64-.86-.71-1.41-1.69-1.41-1.69"/>
    <path class="cls-8" d="m358.1,438.54s.6-.54,1.19.05c.35.35,1,1.23,2,1.83,1.31.78,3.52,1.77,6.05,2.28,2.53.5,4.79.37,4.79.37,0,0,.64.22.89.63.33.54-.15.66-.15.66,0,0-4.82-.09-7.4-.92-2.58-.83-4.94-2-6.09-3.1-.8-.77-1.28-1.79-1.28-1.79"/>
    <path class="cls-8" d="m210.61,374.55s-.45-.67.02-1.11c.47-.45.97.16,1.05,1.13.08.97.16,4.09.14,5.29-.02,1.2-.08,3.28-.22,3.99-.14.71-.36,1.14-.67,1.26-.3.12-.53-.2-.67-.49-.14-.28-.1-.59.02-.65.12-.06.4.13.51-.3.14-.61.26-.77.28-4.5.02-3.73-.47-4.62-.47-4.62"/>
    <path class="cls-8" d="m221.66,373.24s-.46-.63,0-1.06c.46-.43.97.14,1.07,1.06.1.92.22,3.88.22,5.01,0,1.13-.03,3.11-.17,3.79-.13.67-.35,1.08-.65,1.2-.3.12-.53-.18-.67-.45-.15-.27-.11-.56.01-.61.12-.06.41.12.5-.3.13-.58.25-.73.22-4.27-.03-3.54-.53-4.37-.53-4.37"/>
    <path class="cls-8" d="m266.24,366.51s-.45-.51,0-.86c.46-.35.97.11,1.07.86.09.75.21,3.15.2,4.07,0,.92-.04,2.53-.18,3.08-.13.55-.35.88-.65.98-.3.1-.53-.15-.68-.36-.14-.22-.11-.45.01-.5.12-.05.41.1.5-.24.14-.47.25-.6.23-3.47-.02-2.87-.52-3.55-.52-3.55"/>
    <polyline class="cls-1" points="255.09 354.58 273.87 357.9 177.4 367.96 164.03 362.13"/>
    <polygon class="cls-1" points="230.41 359.22 236.65 361.25 256.52 359.17 248.66 357.56 230.41 359.22"/>
    <path class="cls-1" d="m226.43,359.77v2.58m0-2.58l5.59,1.99-37.25,3.84-5.13-2.24,36.79-3.59Z"/>
    <line class="cls-1" x1="248.66" y1="357.56" x2="248.66" y2="359.89"/>
    <rect class="cls-9" x="235.51" y="353.32" width=".73" height="1.97"/>
    <rect class="cls-1" x="235.51" y="353.32" width=".73" height="1.97"/>
    <path class="cls-9" d="m235.34,354.91h1.18s.28.07.35.37c.07.3.07,1.01.25,1.34.18.33.49.81.6.88.11.07.21.39.14.51-.07.12-1,.35-1.87.37-.86.02-1.71-.16-1.92-.26-.21-.1-.21-.39-.14-.49.07-.11.46-.21.57-.41.11-.19.32-.9.35-1.43.03-.53.05-.71.16-.78.11-.07.33-.11.33-.11"/>
    <path class="cls-11" d="m235.34,354.91h1.18s.28.07.35.37c.07.3.07,1.01.25,1.34.18.33.49.81.6.88.11.07.21.39.14.51-.07.12-1,.35-1.87.37-.86.02-1.71-.16-1.92-.26-.21-.1-.21-.39-.14-.49.07-.11.46-.21.57-.41.11-.19.32-.9.35-1.43.03-.53.05-.71.16-.78.11-.07.33-.11.33-.11Z"/>
    <path class="cls-1" d="m234.09,357.54s.56.25,1.36.28c1.29.05,2.27-.32,2.27-.32"/>
    <path class="cls-9" d="m225.85,355.69s.19-2.37,1.4-4.14c1.21-1.77,3.24-2.67,4.3-2.98,1.07-.31,2.82-.36,3.74.1.92.45,1.23,1.25,1.3,1.63.07.38.07,2.34.07,2.34v1.03s-.4.07-.78.09c-.38.02-.71-.07-.71-.07l-.02-2.8s-.09-1.2-1.54-1.1c-1.44.1-2.89.59-4.07,1.59-1.18.99-1.75,2.34-1.96,3-.21.66-.24,1.35-.24,1.35"/>
    <path class="cls-11" d="m225.85,355.69s.19-2.37,1.4-4.14c1.21-1.77,3.24-2.67,4.3-2.98,1.07-.31,2.82-.36,3.74.1.92.45,1.23,1.25,1.3,1.63.07.38.07,2.34.07,2.34v1.03s-.4.07-.78.09c-.38.02-.71-.07-.71-.07l-.02-2.8s-.09-1.2-1.54-1.1c-1.44.1-2.89.59-4.07,1.59-1.18.99-1.75,2.34-1.96,3-.21.66-.24,1.35-.24,1.35"/>
    <path class="cls-1" d="m235.12,352.9s-.51-.21-.78-.04c-.29.19-.37.44-.26.71.11.26.39.35.58.35s.5-.24.5-.24"/>
    <path class="cls-1" d="m236.68,352.92s.79-.05,1.15-.14c.35-.09,1-.46,1.16-.48.16-.02.39.19.44.64.05.46-.22.7-.31.7s-.57-.19-.88-.2c-.32-.02-1.54-.03-1.54-.03"/>
    <path class="cls-1" d="m238.98,352.3s-.18.17-.13.67c.05.49.27.67.27.67"/>
    <rect class="cls-8" x="225.66" y="356.57" width="1.81" height="1.7"/>
    <rect class="cls-1" x="225.66" y="356.57" width="1.81" height="1.7"/>
    <path class="cls-9" d="m228.19,359.27s-.63.13-1.62.13-1.63-.13-1.63-.13v-1.21s1.05.09,1.64.09,1.61-.09,1.61-.09v1.21Z"/>
    <path class="cls-11" d="m228.19,359.27s-.63.13-1.62.13-1.63-.13-1.63-.13v-1.21s1.05.09,1.64.09,1.61-.09,1.61-.09v1.21Z"/>
    <path class="cls-9" d="m227.66,356.59s-.43.11-1.1.11-1.1-.11-1.1-.11v-1.02s.71.07,1.11.07,1.09-.07,1.09-.07v1.02Z"/>
    <path class="cls-11" d="m227.66,356.59s-.43.11-1.1.11-1.1-.11-1.1-.11v-1.02s.71.07,1.11.07,1.09-.07,1.09-.07v1.02Z"/>
    <rect class="cls-8" x="215.96" y="355.26" width=".73" height="1.97"/>
    <rect class="cls-1" x="215.96" y="355.26" width=".73" height="1.97"/>
    <path class="cls-9" d="m215.79,356.77h1.24s.29.07.37.37c.07.3.07,1.01.26,1.34.18.33.52.81.63.88.11.07.22.39.15.51-.07.12-1.05.35-1.96.37-.9.02-1.79-.16-2.01-.26-.22-.11-.22-.39-.15-.49.07-.11.48-.21.59-.41.11-.19.33-.9.37-1.43.04-.53.06-.71.17-.78.11-.07.35-.1.35-.1"/>
    <path class="cls-11" d="m215.79,356.77h1.24s.29.07.37.37c.07.3.07,1.01.26,1.34.18.33.52.81.63.88.11.07.22.39.15.51-.07.12-1.05.35-1.96.37-.9.02-1.79-.16-2.01-.26-.22-.11-.22-.39-.15-.49.07-.11.48-.21.59-.41.11-.19.33-.9.37-1.43.04-.53.06-.71.17-.78.11-.07.35-.1.35-.1Z"/>
    <path class="cls-1" d="m214.48,359.4s.59.25,1.42.28c1.35.05,2.38-.32,2.38-.32"/>
    <rect class="cls-1" x="213.13" y="354.43" width="5.12" height=".48" transform="translate(-35.09 23.88) rotate(-5.86)"/>
    <path class="cls-9" d="m213.72,355.11c0,.44-.36.8-.8.8s-.8-.36-.8-.8.36-.8.8-.8.8.36.8.8"/>
    <path class="cls-11" d="m213.72,355.11c0,.44-.36.8-.8.8s-.8-.36-.8-.8.36-.8.8-.8.8.36.8.8Z"/>
    <path class="cls-9" d="m218.88,354.46c0,.35-.29.64-.64.64s-.64-.29-.64-.64.29-.64.64-.64.64.29.64.64"/>
    <circle class="cls-11" cx="218.23" cy="354.46" r=".64"/>
    <path class="cls-9" d="m217.14,354.56c0,.44-.36.8-.8.8s-.8-.36-.8-.8.36-.8.8-.8.8.36.8.8"/>
    <circle class="cls-11" cx="216.33" cy="354.56" r=".8"/>
    <polygon class="cls-8" points="407.59 475.02 407.59 288.03 484.64 270.52 484.64 507.66 407.59 475.02"/>
    <polygon class="cls-2" points="407.59 475.02 407.59 288.03 484.64 270.52 484.64 507.66 407.59 475.02"/>
    <polyline class="cls-1" points="407.66 466.44 484.54 498.36 520.69 457.46"/>
    <polyline class="cls-8" points="407.68 215.61 499.59 170.77 520.85 180.11 520.85 242.57 499.59 235.17 407.52 262.32 429.07 267.22 520.75 242.74"/>
    <polyline class="cls-2" points="407.68 215.61 499.59 170.77 520.85 180.11 520.85 242.57 499.59 235.17 407.52 262.32 429.07 267.22 520.75 242.74"/>
    <line class="cls-1" x1="499.59" y1="235.17" x2="499.59" y2="170.77"/>
    <path class="cls-8" d="m449.53,232.7s.33-.13.41.21c.08.34.08.61.02.91-.06.3-.22.34-.39.47-.17.13-.65.69-.8,1.63-.15.94-.07,2.3.03,3.58.1,1.28.37,2.19.58,2.8.22.61.6,1.29.6,1.29,0,0,.02.41-.09.67-.15.37-.32.26-.32.26,0,0-1.02-1.92-1.28-3.44-.26-1.52-.42-2.36-.41-4.01.01-1.65.31-2.39.71-3.16.39-.77.94-1.2.94-1.2"/>
    <path class="cls-8" d="m460.35,229.22s.34-.14.42.21c.08.34.08.62.02.93-.06.31-.23.34-.4.48-.17.14-.67.71-.82,1.67-.15.96-.07,2.35.03,3.66.1,1.31.38,2.24.6,2.87.22.62.61,1.32.61,1.32,0,0,.02.42-.09.69-.16.37-.33.26-.33.26,0,0-1.04-1.96-1.31-3.52-.27-1.55-.43-2.42-.42-4.1.02-1.69.32-2.45.72-3.24.4-.79.96-1.23.96-1.23"/>
    <line class="cls-1" x1="407.64" y1="407.02" x2="484.66" y2="426.09"/>
    <line class="cls-1" x1="441.89" y1="280.22" x2="441.89" y2="415.74"/>
    <path class="cls-1" d="m411.73,415.16l63.09,16.96s1.6.97,1.47,3.03c-.13,2.06-1.98,3.66-1.98,3.66l-62.55-17.89s-1.29-1.14-1.07-3.28c.23-2.14,1.03-2.47,1.03-2.47Z"/>
    <path class="cls-1" d="m418.3,417.12s-.53,1.01-.54,2.58c-.02,1.57.52,2.94.52,2.94"/>
    <path class="cls-1" d="m465.59,429.76s-1.2,1.2-1.28,3.18c-.1,2.47.35,3.07.35,3.07"/>
    <path class="cls-1" d="m474.82,432.12s-1.36,1.65-1.32,3.69c.03,2.04.82,3,.82,3"/>
    <polyline class="cls-5" points="472.74 431.55 475.54 430.9 477.74 431.41 478.66 433.72 476.28 434.28"/>
    <line class="cls-5" x1="477.74" y1="431.41" x2="474.63" y2="432.18"/>
    <polyline class="cls-5" points="416.36 416.32 418.98 415.71 421.05 416.18 421.7 417.82"/>
    <line class="cls-5" x1="421.05" y1="416.18" x2="418.13" y2="416.9"/>
    <path class="cls-11" d="m437.05,321.24l.09,61.15s-.33,1.83-1.66,1.83c-2.09,0-2.23-1.9-2.23-1.9l.19-60.78s.5-1.38,1.89-1.48c1.39-.1,1.73,1.18,1.73,1.18Z"/>
    <path class="cls-1" d="m436.99,325.65s-.76-.73-1.77-.72c-1.43.02-1.85.94-1.85.94"/>
    <path class="cls-1" d="m437.13,378.42s-.57.78-2.31.79c-1.09,0-1.59-.67-1.59-.67"/>
    <path class="cls-11" d="m451.12,320.35l.09,64.01s-.34,1.91-1.74,1.91c-2.19,0-2.34-1.99-2.34-1.99l.2-63.62s.52-1.45,1.97-1.55c1.45-.11,1.81,1.24,1.81,1.24Z"/>
    <path class="cls-1" d="m451.07,324.97s-.8-.77-1.86-.75c-1.5.02-1.93.98-1.93.98"/>
    <path class="cls-1" d="m451.22,380.21s-.6.82-2.42.83c-1.14,0-1.66-.7-1.66-.7"/>
    <polyline class="cls-1" points="165.16 374.9 163.32 375.18 148.46 367.27 148.46 363.54 163.34 371.47 276.07 358.47 293.24 360.94 293.27 363.45 275.97 360.98 165.09 374.92 165.09 451.93 277.4 419.12 405.7 473.83 407.61 472.11"/>
    <line class="cls-7" x1="163.34" y1="371.47" x2="163.34" y2="375.1"/>
    <polyline class="cls-7" points="165.09 452.09 150.44 436.08 149.79 368.01"/>
    <rect class="cls-1" x="457.09" y="302.2" width="17.8" height="14.78" transform="translate(59.4 693.87) rotate(-76.98)"/>
    <path class="cls-8" d="m471.23,300.62c0,1.67-1.35,3.02-3.02,3.02s-3.02-1.35-3.02-3.02,1.35-3.02,3.02-3.02,3.02,1.35,3.02,3.02"/>
    <path class="cls-1" d="m471.23,300.62c0,1.67-1.35,3.02-3.02,3.02s-3.02-1.35-3.02-3.02,1.35-3.02,3.02-3.02,3.02,1.35,3.02,3.02Z"/>
    <rect class="cls-1" x="465.47" y="325.72" width="12.44" height="14.98" transform="translate(-5.53 7.97) rotate(-.96)"/>
    <polygon class="cls-8" points="468.89 323.21 467.54 330.48 474.5 328.01 468.89 323.21"/>
    <polygon class="cls-1" points="468.89 323.21 467.54 330.48 474.5 328.01 468.89 323.21"/>
    <path class="cls-9" d="m298.41,367.89s.27-.62,1.41-.63c1.09-.01,1.53.77,1.71,1.13.19.38.36,1.27.13,2.22-.18.73-.74,1.48-1.67,1.52-.74.03-1.28-.41-1.28-.41"/>
    <path class="cls-5" d="m298.41,367.89s.27-.62,1.41-.63c1.09-.01,1.53.77,1.71,1.13.19.38.36,1.27.13,2.22-.18.73-.74,1.48-1.67,1.52-.74.03-1.28-.41-1.28-.41"/>
    <path class="cls-8" d="m298.42,367.95c.17-.14.48-.29.98-.28.97.01,1.33.79,1.43,1.02.12.28.27,1.09.09,1.7-.18.61-.62,1.23-1.41,1.26-.24.01-.45-.02-.61-.06"/>
    <path class="cls-5" d="m298.42,367.95c.17-.14.48-.29.98-.28.97.01,1.33.79,1.43,1.02.12.28.27,1.09.09,1.7-.18.61-.62,1.23-1.41,1.26-.24.01-.45-.02-.61-.06"/>
    <path class="cls-8" d="m297.3,368.46s.46-.54,1.01-.53c.86,0,1.34.76,1.49,1.25.17.53.08,1.27-.12,1.63-.27.51-.77.89-1.29.9-.65,0-1.36-.56-1.54-1.18-.16-.54-.09-1,.05-1.44.09-.27.4-.64.4-.64"/>
    <path class="cls-1" d="m297.3,368.46s.46-.54,1.01-.53c.86,0,1.34.76,1.49,1.25.17.53.08,1.27-.12,1.63-.27.51-.77.89-1.29.9-.65,0-1.36-.56-1.54-1.18-.16-.54-.09-1,.05-1.44.09-.27.4-.64.4-.64Z"/>
    <path class="cls-5" d="m298.94,368.7s-.84-.04-1.21.76c-.43.92-.14,1.43-.14,1.43"/>
    <path class="cls-9" d="m304.17,368.76s.27-.62,1.41-.63c1.09-.01,1.53.77,1.71,1.13.19.38.36,1.27.13,2.22-.18.73-.74,1.48-1.67,1.52-.74.03-1.28-.41-1.28-.41"/>
    <path class="cls-5" d="m304.17,368.76s.27-.62,1.41-.63c1.09-.01,1.53.77,1.71,1.13.19.38.36,1.27.13,2.22-.18.73-.74,1.48-1.67,1.52-.74.03-1.28-.41-1.28-.41"/>
    <path class="cls-9" d="m304.18,368.81c.17-.14.48-.29.98-.28.97.01,1.32.79,1.43,1.02.12.28.27,1.09.09,1.7-.18.61-.62,1.23-1.41,1.26-.24.01-.45-.02-.61-.06"/>
    <path class="cls-10" d="m304.18,368.81c.17-.14.48-.29.98-.28.97.01,1.32.79,1.43,1.02.12.28.27,1.09.09,1.7-.18.61-.62,1.23-1.41,1.26-.24.01-.45-.02-.61-.06"/>
    <path class="cls-8" d="m303.05,369.33s.46-.54,1.01-.53c.86,0,1.34.76,1.49,1.25.17.53.08,1.27-.12,1.63-.27.51-.77.89-1.29.9-.65,0-1.36-.56-1.54-1.18-.16-.54-.09-1,.05-1.44.09-.27.4-.64.4-.64"/>
    <path class="cls-1" d="m303.05,369.33s.46-.54,1.01-.53c.86,0,1.34.76,1.49,1.25.17.53.08,1.27-.12,1.63-.27.51-.77.89-1.29.9-.65,0-1.36-.56-1.54-1.18-.16-.54-.09-1,.05-1.44.09-.27.4-.64.4-.64Z"/>
    <path class="cls-5" d="m304.7,369.57s-.84-.04-1.21.76c-.43.92-.14,1.43-.14,1.43"/>
    <path class="cls-9" d="m309.93,369.76s.27-.62,1.41-.63c1.09-.01,1.53.77,1.71,1.13.19.38.36,1.27.13,2.22-.18.73-.74,1.48-1.67,1.52-.74.03-1.28-.41-1.28-.41"/>
    <path class="cls-5" d="m309.93,369.76s.27-.62,1.41-.63c1.09-.01,1.53.77,1.71,1.13.19.38.36,1.27.13,2.22-.18.73-.74,1.48-1.67,1.52-.74.03-1.28-.41-1.28-.41"/>
    <path class="cls-8" d="m309.94,369.81c.17-.14.48-.29.98-.28.97.01,1.33.79,1.43,1.02.12.28.27,1.09.09,1.7-.18.61-.62,1.23-1.41,1.26-.24.01-.45-.02-.61-.06"/>
    <path class="cls-5" d="m309.94,369.81c.17-.14.48-.29.98-.28.97.01,1.33.79,1.43,1.02.12.28.27,1.09.09,1.7-.18.61-.62,1.23-1.41,1.26-.24.01-.45-.02-.61-.06"/>
    <path class="cls-8" d="m308.81,370.32s.46-.54,1.01-.53c.86,0,1.34.76,1.49,1.25.17.54.08,1.27-.12,1.63-.27.51-.77.89-1.29.9-.65,0-1.36-.56-1.54-1.18-.16-.54-.09-1,.05-1.44.09-.27.4-.64.4-.64"/>
    <path class="cls-1" d="m308.81,370.32s.46-.54,1.01-.53c.86,0,1.34.76,1.49,1.25.17.54.08,1.27-.12,1.63-.27.51-.77.89-1.29.9-.65,0-1.36-.56-1.54-1.18-.16-.54-.09-1,.05-1.44.09-.27.4-.64.4-.64Z"/>
    <path class="cls-5" d="m310.46,370.57s-.84-.04-1.21.76c-.43.93-.14,1.43-.14,1.43"/>
    <path class="cls-9" d="m315.92,370.59s.27-.62,1.41-.63c1.09-.01,1.53.77,1.71,1.13.19.38.36,1.27.13,2.22-.18.73-.74,1.48-1.67,1.52-.74.03-1.28-.41-1.28-.41"/>
    <path class="cls-5" d="m315.92,370.59s.27-.62,1.41-.63c1.09-.01,1.53.77,1.71,1.13.19.38.36,1.27.13,2.22-.18.73-.74,1.48-1.67,1.52-.74.03-1.28-.41-1.28-.41"/>
    <path class="cls-8" d="m315.93,370.64c.17-.14.48-.29.98-.28.97.01,1.32.79,1.43,1.02.12.28.27,1.09.09,1.7-.18.61-.62,1.23-1.41,1.26-.24.01-.45-.02-.61-.06"/>
    <path class="cls-5" d="m315.93,370.64c.17-.14.48-.29.98-.28.97.01,1.32.79,1.43,1.02.12.28.27,1.09.09,1.7-.18.61-.62,1.23-1.41,1.26-.24.01-.45-.02-.61-.06"/>
    <path class="cls-8" d="m314.81,371.15s.46-.54,1.01-.53c.86,0,1.34.76,1.49,1.25.17.54.08,1.27-.12,1.63-.27.51-.77.89-1.29.9-.65,0-1.36-.56-1.54-1.18-.16-.54-.09-1,.05-1.44.09-.27.4-.64.4-.64"/>
    <path class="cls-1" d="m314.81,371.15s.46-.54,1.01-.53c.86,0,1.34.76,1.49,1.25.17.54.08,1.27-.12,1.63-.27.51-.77.89-1.29.9-.65,0-1.36-.56-1.54-1.18-.16-.54-.09-1,.05-1.44.09-.27.4-.64.4-.64Z"/>
    <path class="cls-5" d="m316.46,371.4s-.84-.04-1.21.76c-.43.93-.14,1.43-.14,1.43"/>
    <path class="cls-9" d="m326.94,372.47s.27-.62,1.41-.63c1.09-.01,1.53.77,1.71,1.13.19.38.36,1.27.13,2.22-.18.73-.74,1.48-1.67,1.52-.74.03-1.28-.41-1.28-.41"/>
    <path class="cls-5" d="m326.94,372.47s.27-.62,1.41-.63c1.09-.01,1.53.77,1.71,1.13.19.38.36,1.27.13,2.22-.18.73-.74,1.48-1.67,1.52-.74.03-1.28-.41-1.28-.41"/>
    <path class="cls-8" d="m326.95,372.53c.17-.14.48-.29.98-.28.97.01,1.32.79,1.43,1.02.12.28.27,1.09.09,1.7-.18.61-.62,1.23-1.41,1.26-.24.01-.45-.02-.61-.06"/>
    <path class="cls-5" d="m326.95,372.53c.17-.14.48-.29.98-.28.97.01,1.32.79,1.43,1.02.12.28.27,1.09.09,1.7-.18.61-.62,1.23-1.41,1.26-.24.01-.45-.02-.61-.06"/>
    <path class="cls-8" d="m325.83,373.04s.46-.54,1.01-.53c.86,0,1.34.76,1.49,1.25.17.53.08,1.27-.12,1.63-.27.51-.77.89-1.29.9-.65,0-1.36-.56-1.54-1.18-.16-.54-.09-1,.05-1.44.09-.27.4-.64.4-.64"/>
    <path class="cls-1" d="m325.83,373.04s.46-.54,1.01-.53c.86,0,1.34.76,1.49,1.25.17.53.08,1.27-.12,1.63-.27.51-.77.89-1.29.9-.65,0-1.36-.56-1.54-1.18-.16-.54-.09-1,.05-1.44.09-.27.4-.64.4-.64Z"/>
    <path class="cls-5" d="m327.48,373.28s-.84-.04-1.21.76c-.43.93-.14,1.43-.14,1.43"/>
    <line class="cls-6" x1="314.28" y1="358.92" x2="313.2" y2="362.07"/>
    <line class="cls-6" x1="307.48" y1="360.47" x2="320" y2="360.52"/>
    <line class="cls-6" x1="309.7" y1="359.36" x2="317.79" y2="361.62"/>
    <line class="cls-6" x1="308.93" y1="361.59" x2="318.55" y2="359.4"/>
    <line class="cls-6" x1="311.99" y1="359.02" x2="315.5" y2="361.97"/>
    <line class="cls-6" x1="307.71" y1="361.04" x2="319.78" y2="359.95"/>
    <line class="cls-6" x1="308.23" y1="359.83" x2="319.25" y2="361.15"/>
    <line class="cls-6" x1="310.72" y1="361.92" x2="316.77" y2="359.06"/>
    <path class="cls-8" d="m311.47,360.5c-.1.3.82.55,2.07.55,1.25,0,2.35-.23,2.45-.54.1-.3-.82-.55-2.07-.55-1.25,0-2.35.24-2.45.54"/>
    <line class="cls-4" x1="332.41" y1="361.07" x2="331.27" y2="364.39"/>
    <line class="cls-4" x1="325.22" y1="362.7" x2="338.45" y2="362.76"/>
    <line class="cls-4" x1="327.57" y1="361.53" x2="336.11" y2="363.92"/>
    <line class="cls-4" x1="326.76" y1="363.88" x2="336.92" y2="361.57"/>
    <line class="cls-4" x1="329.98" y1="361.17" x2="333.69" y2="364.29"/>
    <line class="cls-4" x1="325.46" y1="363.3" x2="338.21" y2="362.16"/>
    <line class="cls-4" x1="326.02" y1="362.03" x2="337.66" y2="363.42"/>
    <line class="cls-4" x1="328.64" y1="364.24" x2="335.04" y2="361.22"/>
    <path class="cls-8" d="m329.44,362.74c-.11.32.87.58,2.19.59,1.32,0,2.48-.25,2.59-.57.11-.32-.87-.58-2.19-.59-1.32,0-2.48.25-2.59.57"/>
    <line class="cls-6" x1="328.03" y1="356.41" x2="326.95" y2="359.56"/>
    <line class="cls-6" x1="321.22" y1="357.96" x2="333.75" y2="358.01"/>
    <line class="cls-6" x1="323.44" y1="356.86" x2="331.53" y2="359.12"/>
    <line class="cls-6" x1="322.68" y1="359.08" x2="332.3" y2="356.89"/>
    <line class="cls-6" x1="325.73" y1="356.51" x2="329.24" y2="359.46"/>
    <line class="cls-6" x1="321.45" y1="358.53" x2="333.52" y2="357.44"/>
    <line class="cls-6" x1="321.98" y1="357.33" x2="333" y2="358.65"/>
    <line class="cls-6" x1="324.46" y1="359.41" x2="330.51" y2="356.56"/>
    <path class="cls-8" d="m325.22,358c-.1.3.82.55,2.07.55,1.25,0,2.35-.23,2.45-.53.1-.3-.82-.55-2.07-.56-1.25,0-2.35.23-2.45.54"/>
    <line class="cls-4" x1="344.41" y1="357.84" x2="343.26" y2="361.16"/>
    <line class="cls-4" x1="337.22" y1="359.48" x2="350.45" y2="359.53"/>
    <line class="cls-4" x1="339.56" y1="358.31" x2="348.11" y2="360.7"/>
    <line class="cls-4" x1="338.75" y1="360.66" x2="348.92" y2="358.35"/>
    <polyline id="Fridge_right_panel" data-name="Fridge right panel" class="cls-1" points="484.64 270.57 520.69 287.23 520.69 467.34 484.64 507.66"/>
    <line class="cls-4" x1="341.98" y1="357.95" x2="345.69" y2="361.06"/>
    <line class="cls-4" x1="337.46" y1="360.08" x2="350.21" y2="358.93"/>
    <line class="cls-4" x1="338.02" y1="358.81" x2="349.65" y2="360.2"/>
    <line class="cls-4" x1="340.64" y1="361.01" x2="347.03" y2="358"/>
    <path class="cls-8" d="m341.44,359.52c-.11.32.87.58,2.19.59,1.32,0,2.48-.25,2.59-.57.11-.32-.87-.58-2.19-.59-1.32,0-2.48.25-2.59.57"/>
    <line class="cls-9" x1="454.71" y1="192.67" x2="454.71" y2="248.42"/>
    <line class="cls-1" x1="454.71" y1="192.67" x2="454.71" y2="248.42"/>
    <line class="cls-1" x1="150.44" y1="436.08" x2="91.23" y2="451.06"/>
    <polyline id="BT_14" data-name="BT 14" class="cls-1" points="332.9 303.99 346.17 307.83 398.74 299.39 407.54 298.28 407.59 363 272.14 352.14 92.48 368.16"/>
    <line class="cls-1" x1="285.66" y1="315.6" x2="285.66" y2="352.31"/>
    <polygon class="cls-1" points="324.4 256.16 305.83 265.23 305.84 299.56 324.69 294.73 324.4 256.16"/>
    <polygon class="cls-7" points="324.4 256.15 349.31 244.05 349.31 287.92 324.69 294.73 324.4 256.15"/>
    <polygon class="cls-1" points="279.65 278.04 305.85 265.28 305.85 311.53 279.61 316.41 279.65 278.04"/>
  </g>
  <polygon class="cls-3" points="90.89 553.93 609.11 553.39 609.11 180.16 90.89 180.69 90.89 553.93"/>
</svg>