<?xml version="1.0" encoding="UTF-8"?>
<svg id="Dog_food_bowl" data-name="Dog food bowl" xmlns="http://www.w3.org/2000/svg" viewBox="0 0 517.82 380.35">
  <defs>
    <style>
      .cls-1 {
        stroke-width: .43px;
      }

      .cls-1, .cls-2 {
        stroke-linejoin: round;
      }

      .cls-1, .cls-2, .cls-3, .cls-4 {
        fill: none;
        stroke: #075ca9;
      }

      .cls-2 {
        stroke-width: .38px;
      }

      .cls-3 {
        stroke-linecap: round;
        stroke-width: .16px;
      }

      .cls-3, .cls-4 {
        stroke-miterlimit: 10;
      }

      .cls-4 {
        stroke-width: .44px;
      }

      .cls-5 {
        fill: #fff;
        stroke-width: 0px;
      }
    </style>
  </defs>
  <path class="cls-5" d="m20.59,280.42s-1.83,1.24-2.88,3.1c-.95,1.69-1.33,2.58-1.38,3.31-.05.73-.18,2.3,2.14,4.11,2.32,1.81,5.56,3.29,9.83,4.19,4.27.9,10.61,1.06,14.75.23,4.14-.82,5.67-1.53,6.7-2.16,1.03-.64,2.33-1.83,2.67-3.08.33-1.24.23-2-.12-3.5-.54-2.28-2.04-3.87-2.04-3.87"/>
  <path class="cls-4" d="m20.59,280.42s-1.83,1.24-2.88,3.1c-.95,1.69-1.33,2.58-1.38,3.31-.05.73-.18,2.3,2.14,4.11,2.32,1.81,5.56,3.29,9.83,4.19,4.27.9,10.61,1.06,14.75.23,4.14-.82,5.67-1.53,6.7-2.16,1.03-.64,2.33-1.83,2.67-3.08.33-1.24.23-2-.12-3.5-.54-2.28-2.04-3.87-2.04-3.87"/>
  <path class="cls-4" d="m18.54,290.92s-.02-1.06.83-1.62c.85-.56,1.96.27,2.54.8.58.54,1.09,1.49,1.33,2.11.24.62.34,1.5.34,1.5"/>
  <path class="cls-3" d="m18.65,289.94s.48-1.31,1.78-1.37c.98-.04,1.92.52,2.5,1.4.97,1.48.96,3.12.96,3.12"/>
  <path class="cls-4" d="m16.42,286.3s-.63.77-.65,2.46c-.03,1.7.46,2.37,1.63,3.56,1.18,1.19,3.7,2.65,6.51,3.54,2.8.89,7.05,1.87,12.59,1.92,5.54.04,10.07-1.23,12-2.13,1.93-.9,3.32-1.77,4.04-3.22.95-1.92.07-4.09.07-4.09"/>
  <path class="cls-1" d="m27.31,283.75c-.11-.17.1-.8.27-.93.17-.12.39-.16.61-.19.03.11.11.2.22.24.25.09.51-.1.74-.24.23-.14.6-.2.72.03.06.12.01.27.03.41.02.18.15.33.33.39.18.05.39,0,.51-.13.11-.11.16-.28.31-.34.18-.07.38.07.49.23.11.16.19.35.37.43.11.06.25.06.36.12.18.1.23.33.26.53.02.15-.19.42-.36.52"/>
  <path class="cls-2" d="m40.58,285.26c.16-.16.38-.71.28-.9-.1-.2-.3-.34-.5-.45-.11-.06-.23-.11-.35-.1-.09,0-.16.04-.25.05-.19.02-.36-.08-.51-.17-.43-.25-.87-.49-1.32-.72-.2-.1-.43-.21-.65-.13-.26.09-.36.4-.59.53-.41.24-1.06-.11-1.37.23-.1.1-.15.27-.29.31-.22.05-.44-.27-.65-.16-.06.03-.09.09-.12.14-.15.31-.26.9-.22,1.24"/>
  <path class="cls-2" d="m31.06,282.97c0-.17.02-.35.11-.5.08-.15.25-.28.43-.26.15.01.27.11.42.11.39.01.49-.57.86-.68.15.15.3.3.5.38.2.08.45.09.61-.04.04-.03.08-.07.13-.08.12-.02.18.12.24.22.12.2.4.29.63.21.21-.07.37-.27.59-.26.36.02.4.54.7.74-.1,0-.16.13-.12.22.03.09.21.25.27.34"/>
  <path class="cls-2" d="m40.02,283.86c-.02-.35.02-.8.37-.91.15-.04.31-.01.46-.02.24,0,.49-.1.66-.25.07-.07.13-.14.22-.19.08-.04.18-.05.27-.04.85.03,1.43.81,2.22,1.09.1.03.22.07.28.15.1.14.49.55.67.84"/>
  <path class="cls-2" d="m35.67,282.05c.09-.51.79-.93,1.28-.69.16.08.32.22.5.21.21-.01.35-.2.54-.28.25-.11.55-.01.78.12.23.14.44.32.7.4.23.07.48.07.71.14.23.08.52.75.45.97"/>
  <path class="cls-2" d="m31.2,280.63c.03-.29.58-.66.89-.63.31.03.58.19.87.27.3.08.66.07.85-.16.1-.12.13-.28.08-.42.16-.15.44-.11.62,0,.19.12.33.29.51.41.18.12.45.19.63.07.03-.02.06-.05.1-.05.1-.02.14.13.13.23-.02.22.48.73.46.95"/>
  <path class="cls-2" d="m38.82,281.38c.7-.31,1.54-.67,2.27-.45.14.04.27.1.42.12.45.05.91-.34,1.31-.15.11.05.19.13.29.21.5.4,1.31.49,1.6,1.05.11.2.12.44.21.66.08.22.28.43.52.41-.23-.04-.36.29-.22.47.14.18.68.31.91.35"/>
  <path class="cls-2" d="m20.74,285.07c.03-.34.1-.71.28-.85.18-.14.43-.18.66-.2.03.12.12.22.24.26.28.1.56-.1.81-.26.25-.15.66-.22.79.03.07.13.01.3.03.44.02.19.17.36.36.43.2.06.42,0,.56-.14.12-.12.18-.31.34-.37.2-.08.42.08.54.25.12.17.21.38.4.47.12.06.27.07.39.13.2.11.87,1.14.88,1.36.06.88-1.39,1.02-1.61,1.07"/>
  <path class="cls-2" d="m26.43,283.91c.16-.16.35-.58.24-.78-.1-.2-.3-.34-.5-.45-.11-.06-.22-.11-.35-.1-.09,0-.17.04-.25.05-.19.02-.36-.08-.51-.17-.43-.25-.87-.49-1.32-.72-.2-.1-.43-.21-.65-.13-.26.09-.36.4-.59.53-.41.24-1.06-.11-1.37.23-.1.11-.15.27-.29.3-.23.05-.45-.27-.65-.16-.06.03-.09.09-.12.14-.15.31-.07.48-.28.87"/>
  <path class="cls-2" d="m29.66,288.78c-.06-.2-.21-1.28.39-1.77.09-.07.06-.2.14-.26.2-.15.48.02.66.19.18.17.45.35.66.22.06-.03.1-.09.17-.11.13-.04.25.06.36.14.37.29.86.42,1.33.53.18.04.37.09.54.03.17-.06.31-.26.21-.41.3-.06,1.25.49,1.37.76.12.27-.3,1.1-.32,1.39"/>
  <path class="cls-2" d="m39.43,289.46c-.11-.2-.21-.41-.22-.61,0-.21.1-.41.32-.46.17-.04.38.02.55-.03.45-.13.17-.84.52-1.11.27.11.55.22.83.24.28.02.57-.07.66-.29.02-.05.04-.11.09-.14.12-.07.29.07.42.16.27.18.66.18.86,0,.19-.16.23-.45.49-.52.43-.11.82.46,1.3.58-.12.03-.09.21.01.3.1.09.43.46.55.54"/>
  <path class="cls-2" d="m33.91,287.75c-.09-.23-.46-.69-.43-.93.03-.24.21-.49.47-.51.14-.01.31.03.42-.05.13-.1.09-.31.22-.42.08-.06.19-.07.29-.06.34.03.66.18.88.41.13.13.25.3.43.37.33.11.64-.17.9-.38.04-.03.09-.07.15-.08.07-.01.13,0,.2.03.33.12.61.34.8.62.29.43.71,1.43,1.15,1.73"/>
  <path class="cls-2" d="m25.13,284.51c.16-.33.43-.73.82-.73.16,0,.29.08.43.12.23.07.5.06.74-.04.1-.04.2-.09.3-.1.1,0,.19,0,.27.04.76.28.89,1.16,1.49,1.64.08.06.17.13.18.22.02.16.3,1.6.46,1.65"/>
  <path class="cls-2" d="m43.87,285.43c-.17-.5.33-.99.9-.89.19.03.4.12.57.06.19-.07.22-.28.36-.41.18-.17.5-.16.79-.09.28.07.57.18.85.19.25,0,.49-.11.73-.06,1.41.25,1.58,1.45,1.62,1.67"/>
  <path class="cls-2" d="m37.8,286.26c.03-.29.58-.66.89-.63.3.03.58.19.87.27.3.08.66.07.85-.16.1-.12.13-.28.08-.42.16-.15.44-.11.63,0,.19.12.33.29.51.41.18.12.45.19.63.07.03-.02.06-.05.1-.05.11-.02.14.13.13.23-.02.21.46,1.21.45,1.43"/>
  <path class="cls-2" d="m34.48,286.04c.06-.27-.29-.79-.52-.96-.23-.17-.57-.21-.84-.09-.1.04-.19.11-.3.12-.23.03-.42-.15-.61-.27-.19-.12-.54-.11-.57.1-.03.23.35.42.23.62-.09.14-.31.09-.47.16-.13.06-.19.2-.27.31-.15.18-.7.71-.94.72"/>
  <path class="cls-2" d="m42.36,285.94c.7-.31,1.5-.6,2.24-.38.14.04.27.1.42.11.45.05.91-.34,1.31-.15.11.05.19.13.29.21.5.4,1.31.49,1.6,1.05.05.1.08.2.11.31"/>
  <path class="cls-2" d="m26.89,300.68c-.05.06-.2.18-.23.25-.04.07,0,.18.08.18-.25.15-.31.55-.6.55-.18,0-.29-.16-.45-.23-.17-.07-.4,0-.51.14-.05.07-.11.18-.2.16-.04-.01-.07-.04-.09-.07-.12-.11-.32-.12-.48-.06-.16.06-.29.17-.42.28-.29-.1-.33-.57-.64-.58-.11,0-.22.07-.34.07-.15,0-.27-.1-.33-.22-.06-.12-.06-.26-.05-.4,0-.22-.12-.49.02-.68.13-.2.52-.28.66-.1.03-.24.32-.44.61-.47.29-.03.58.07.82.21.23.13.43.31.66.45.22-.11.42-.26.58-.43.21-.23.4-.53.74-.57.33-.04.59.2.77.43.05.06.1.12.1.2.02.19-.23.33-.44.43-.21.1-.34.28-.25.46Z"/>
  <path class="cls-2" d="m34.2,297.07c-.17.04-.36.1-.45.23-.08.11-.07.25-.16.35-.08.1-.22.15-.33.23-.27.17-.37.5-.23.74.13.24.49.38.82.32.46-.09.86-.53,1.29-.39.13.04.23.14.35.2.26.12.6.07.88-.03.29-.1.55-.25.85-.31.41-.09.93-.05,1.19-.34-.15-.05-.11-.24,0-.33.12-.1.28-.15.37-.26.16-.2,0-.46-.24-.58-.24-.11-.52-.13-.78-.21-.22-.07-.42-.18-.65-.25-.23-.07-.5-.08-.7.03-.17.1-.27.27-.46.34-.51.2-1.2.16-1.74.28Z"/>
  <path class="cls-5" d="m31.58,300c-.21.03-.4.14-.56.26-.16.12-.32.26-.51.34-.28.11-.59.1-.89.13-.3.03-.64.14-.75.38-.01.03-.03.07-.01.1.02.05.09.07.15.09.53.15,1.1.24,1.67.26.24.01.48.01.7.07.17.04.32.11.49.15.31.07.65.03.98-.02.39-.06.8-.13,1.12-.34.31-.21.48-.61.26-.88-.12-.14-.33-.23-.35-.4,0-.08.02-.19-.05-.24-.04-.03-.1-.04-.16-.04-.29.02-.51.23-.75.37-.64.36-.76-.3-1.31-.23"/>
  <path class="cls-2" d="m31.58,300c-.21.03-.4.14-.56.26-.16.12-.32.26-.51.34-.28.11-.59.1-.89.13-.3.03-.64.14-.75.38-.01.03-.03.07-.01.1.02.05.09.07.15.09.53.15,1.1.24,1.67.26.24.01.48.01.7.07.17.04.32.11.49.15.31.07.65.03.98-.02.39-.06.8-.13,1.12-.34.31-.21.48-.61.26-.88-.12-.14-.33-.23-.35-.4,0-.08.02-.19-.05-.24-.04-.03-.1-.04-.16-.04-.29.02-.51.23-.75.37-.64.36-.76-.3-1.31-.23Z"/>
  <path class="cls-5" d="m42.62,301.52c.98-.09,1.9-.44,2.8-.78-.03-.38-.05-.77-.08-1.16,0-.14-.02-.29-.14-.39-.35-.28-1.05.23-1.43-.03-.14-.1-.2-.29-.38-.32-.08-.01-.17,0-.25.03-.35.1-.78.29-.74.58-.26-.18-.51-.36-.77-.54-.05-.03-.1-.07-.16-.08-.09-.01-.18.04-.26.09-.15.09-.42.2-.52.33-.09.12.04.27-.06.38-.33.39-.4.2-.83.23-.73.04-.95.26-1.16.82-.28.74-.28,1.27.85,1.09,1.07-.18,2.05-.16,3.13-.25"/>
  <path class="cls-2" d="m42.62,301.52c.98-.09,1.9-.44,2.8-.78-.03-.38-.05-.77-.08-1.16,0-.14-.02-.29-.14-.39-.35-.28-1.05.23-1.43-.03-.14-.1-.2-.29-.38-.32-.08-.01-.17,0-.25.03-.35.1-.78.29-.74.58-.26-.18-.51-.36-.77-.54-.05-.03-.1-.07-.16-.08-.09-.01-.18.04-.26.09-.15.09-.42.2-.52.33-.09.12.04.27-.06.38-.33.39-.4.2-.83.23-.73.04-.95.26-1.16.82-.28.74-.28,1.27.85,1.09,1.07-.18,2.05-.16,3.13-.25Z"/>
  <path class="cls-5" d="m20.59,280.42s.83-.99,3.74-2.09c2.91-1.1,6.34-1.22,7.63-1.3,1.3-.07,5.44.2,5.44.2l-4.61,2.07-11.1,1.25-1.11-.14Z"/>
  <path class="cls-2" d="m22.99,281.8c-.06-.2-.02-.69.02-.89.02-.1.06-.2.14-.26.2-.15.48.02.66.19.18.17.45.35.66.22.06-.03.11-.09.17-.11.13-.04.25.06.36.14.37.29.86.42,1.33.53.18.04.37.09.54.03.17-.06.31-.26.21-.41.3-.06.6.16.72.43.12.27.12.63.1.92"/>
  <path class="cls-2" d="m26.88,281.64c-.09-.23-.46-.69-.43-.93.03-.24.21-.49.47-.51.14-.01.31.03.42-.05.13-.1.09-.31.22-.42.08-.06.19-.07.29-.06.34.03.66.18.88.41.13.14.25.3.43.37.33.11.64-.17.9-.38.04-.03.09-.07.15-.08.07-.01.13,0,.2.03.33.12.61.34.8.62.29.43.75,1.18,1.2,1.48"/>
  <path class="cls-2" d="m29.01,280.28c.07-.28-.24-.82-.45-1.01-.22-.19-.54-.23-.8-.12-.1.04-.19.11-.3.12-.22.03-.39-.17-.57-.29-.18-.13-.51-.13-.55.09-.04.23.31.44.18.65-.09.14-.31.08-.46.15-.13.06-.19.21-.28.32-.15.18-.71.72-.94.72"/>
  <path class="cls-4" d="m50.51,284.15c-.31,3.41-7.48,5.78-16.03,5.29-8.54-.49-15.21-3.66-14.9-7.07.31-3.41,7.48-5.78,16.02-5.29,8.54.49,15.21,3.65,14.9,7.07Z"/>
</svg>