<?xml version="1.0" encoding="UTF-8"?>
<svg id="Chew_marks_droppings" data-name="Chew marks + droppings" xmlns="http://www.w3.org/2000/svg" viewBox="0 0 443.46 374.24">
  <defs>
    <style>
      .cls-1 {
        stroke-miterlimit: 80;
      }

      .cls-1, .cls-2 {
        fill: none;
        stroke: #075ca9;
        stroke-width: .23px;
      }

      .cls-2 {
        stroke-miterlimit: 10;
      }

      .cls-3 {
        fill: #075ca9;
        stroke-width: 0px;
      }
    </style>
  </defs>
  <g id="Droppings">
    <path class="cls-3" d="M57.92,252.59c.17.08,1.28-.27,1.69-.26.7.02,1.44.04,2.11.24.43.13.84.39,1.13.86-.69.36-2.17-.04-2.96-.12-.82-.09-1.4-.2-1.99-.71"/>
    <path class="cls-3" d="M59.89,254.95c.06.02.15-.02.21-.03.13-.03.3-.05.42-.11.08-.04.17-.09.25-.12.12-.03.27-.01.4-.03.24-.03.46-.05.7,0,.26.06.53.06.78.12.07.02.14.05.21.07.1.02.2.05.29.08.12.04.28.07.38.14.09.06.18.13.26.2.08.06.18.11.26.17.08.06.13.11.22.15-.11.05-.25.04-.37.06-.08.01-.15.04-.23.06-.18.03-.36.02-.53.06-.14.04-.3.03-.45.03-.1,0-.19,0-.29.01-.17,0-.34-.01-.51-.02-.06,0-.11,0-.16,0-.14-.01-.26-.07-.4-.11-.17-.05-.33-.15-.49-.24-.14-.08-.31-.15-.45-.24-.1-.06-.22-.08-.33-.12-.07-.02-.08-.08-.14-.1"/>
    <path class="cls-3" d="M60.46,250.58c.07.01.14-.02.22-.03.16-.02.33-.02.49-.01.19,0,.35-.02.53-.06.11-.02.22-.03.33-.04.19-.02.33.02.52.06.09.02.19.01.28.03.06.01.1.03.16.06.11.06.21.08.32.12.17.05.32.12.48.18.11.05.26.1.33.2.04.05.04.12.07.17.04.05.08.08.11.13-.07-.01-.15,0-.22.02-.14.02-.25.05-.38.05-.07,0-.14,0-.21,0-.11.01-.22.06-.33.06-.16,0-.35,0-.51-.04-.08-.02-.15-.05-.23-.07-.22-.05-.45-.11-.65-.2-.22-.1-.44-.18-.66-.27-.1-.04-.21-.07-.3-.13-.12-.08-.25-.15-.36-.24"/>
    <path class="cls-3" d="M57.07,248.72c.11-.02.22-.02.32-.05.1-.03.2-.07.3-.08.14-.01.28,0,.41-.04.23-.07.49-.09.73-.08.2.01.37.03.57.06.17.03.33.04.47.13.06.04.08.09.15.12.13.07.28.1.41.17.15.08.31.13.45.22.04.03.09.05.13.08.03.03.02.05.07.06-.03.02-.08.03-.11.05-.09.05-.17.12-.28.15-.06.01-.14,0-.19.02-.06.01-.08.03-.15.03-.07,0-.11.01-.17.02-.2.04-.4.03-.6.05-.13.01-.26.03-.38.03-.13,0-.27-.04-.4-.07-.11-.02-.21-.05-.32-.06-.11,0-.21-.02-.31-.08-.09-.04-.16-.09-.25-.12-.05-.01-.1-.03-.16-.04-.13-.04-.21-.11-.3-.2-.08-.08-.18-.14-.25-.21-.04-.05-.11-.09-.13-.15"/>
    <path class="cls-3" d="M56.7,250.85c.09,0,.18-.02.27-.03.09-.01.11-.05.17-.09.03-.01.08-.01.12-.03.07-.02.14-.05.22-.07.13-.05.27-.07.4-.1.1-.02.19-.06.29-.05.06,0,.1.04.15.05.08.03.16.03.24.05.21.05.41.1.62.16.15.04.31.05.45.11.09.04.2.1.27.15.05.04.09.08.14.13-.12.01-.2.08-.31.13-.07.03-.14.03-.21.05-.09.03-.16.03-.26.05-.17.03-.33.1-.5.14-.09.02-.19,0-.28-.02-.29-.06-.57-.14-.86-.21-.18-.05-.39-.06-.56-.13-.08-.03-.13-.1-.2-.15-.06-.05-.11-.06-.17-.13"/>
    <path class="cls-3" d="M55.47,251.94c-.33-.01-.66-.22-.97-.32-.43-.13-.85-.32-1.29-.37-.36-.04-.76-.15-1.11-.1-.31.04-.69.07-.96.2-.17.08-.33.13-.5.21.09.18.31.24.48.34.17.1.35.18.54.24.6.17,1.35.36,1.98.24.15-.03.3-.07.45-.09.29-.02.57.05.84-.09.17-.09.35-.19.55-.27"/>
    <path class="cls-3" d="M58.83,254.24c-.05-.07-.21-.12-.28-.16-.22-.1-.43-.18-.64-.29-.33-.18-.63-.33-.98-.45-.77-.24-1.45.01-2.19.14-.21.04-.46.26-.67.23,0,0,0,.05,0,.05.21.07.44.25.59.37.24.19.6.23.91.26.06.27,1.07.27,1.28.28.36.02.84.1,1.19,0,.26-.08.58-.34.81-.43"/>
    <path class="cls-3" d="M53.22,253.33c-.23-.06-.43-.14-.67-.12-.17.01-.34.05-.51.07-.42.04-.84.02-1.26.1-.34.06-.51.18-.78.36-.16.1-.4.12-.55.21-.13.09-.25.35-.31.5.28.05.59.08.87.1.39.02.69-.04,1.07-.09.42-.05.71.04,1.09-.15.29-.14.54-.19.78-.4.17-.14.31-.32.46-.47-.07-.02-.14-.06-.19-.09"/>
  </g>
  <g id="Chew_marks" data-name="Chew marks">
    <path class="cls-2" d="M16.51,246.66c.87,1.07,1.87,1.74,3.14,2.37.15.56.72.9,1.25,1.18.19.11.38.21.56.31.24.13.5.27.78.25.45-.03.83-.43,1.28-.46.18-.01.35.04.53.04.37,0,.72-.18,1.06-.34,1.31-.62,1.85-.72,3.29-.67.11,0,.69-.14.72-.04.03.1.92-.19.95-.29,1.69-.84,2.82-1.22,4.63-1.75.25-.07.5-.15.71-.3.22-.16.37-.39.57-.57.2-.19.44-.32.68-.44.58-.3,1.15-.61,1.73-.92.36-.19.81-.01,1.13-.17.69-.17.67-1.15,1.3-1.39.3-.11.62-.16.89-.34.44-.29.6-.86,1.05-1.16.28-.18.82-.44,1.07-.65.3-.24.2-.43.41-.75.25-.4.68-.68,1.03-1.01.36-.33.42-.28.46-.53"/>
    <path class="cls-2" d="M46.77,238.73c.63.5.48,1.22.34,2.01-.05.29-.11.58-.3.81-.21.26-.54.38-.84.53-.78.4-1.42,1.07-1.79,1.86-.07.16-.14.35-.07.52.12.27.51.29.78.17.27-.12.52-.32.82-.35.27-.02.53.12.78.2.91.31,1.92.03,2.81-.34.89-.37,1.76-.85,2.72-.95.18-.02.36-.03.52-.1.24-.11.39-.35.52-.58.16-.28.32-.55.48-.83.13-.22.27-.48.22-.73-.05-.24-.5-.36-.43-.59.38-1.26-.49-2.29-.2-3.29"/>
    <path class="cls-2" d="M17.3,247.41c2.87-.91,5.95-1.64,8.93-2.13.52-.09,1.04-.17,1.54-.29.82-.19,1.61-.49,2.41-.75,2.24-.74,4.57-1.2,6.87-1.75,2.39-.57,4.98-1.34,7.32-2.1"/>
    <path class="cls-2" d="M20.64,250.01c1.88-.51,3.76-1.02,5.65-1.53.41-.11.83-.22,1.25-.32,1.2-.27,2.42-.42,3.59-.8.71-.23,1.4-.55,2.12-.77.4-.12.8-.22,1.21-.31.89-.21,1.79-.41,2.68-.62"/>
    <path class="cls-2" d="M20.13,249.72c1.09-.43,3.5-1.11,4.63-1.41.41-.1.81-.21,1.22-.32,1.29-.34,2.58-.68,3.87-1.02l2.6-.68c.67-.18,1.33-.35,2-.53.56-.15,1.12-.29,1.68-.44.92-.24,1.86-.48,2.8-.4"/>
    <path class="cls-1" d="M19.79,249.24c2-.78,4.08-1.33,6.15-1.88,1.01-.27,2.02-.54,3.03-.8.72-.19,1.43-.38,2.14-.56.55-.14,1.1-.27,1.66-.4,2.45-.59,5.15-1.18,7.61-1.72"/>
    <path class="cls-1" d="M19.03,248.75c1.14-.03,2.16-.71,3.25-1.05.44-.13.9-.21,1.36-.31.46-.1.91-.22,1.36-.34.37-.1.73-.19,1.1-.29,2.15-.56,4.29-1.13,6.43-1.69,1.41-.37,2.82-.75,4.24-1.12.56-.15,1.12-.29,1.68-.44.25-.07.5-.13.75-.16.22-.03.45-.03.68-.04.55,0,1.09-.02,1.64-.1"/>
    <path class="cls-1" d="M18.48,248.29c1.31-.38,2.86-.76,4.16-1.14.81-.23,1.62-.47,2.43-.7.59-.17,1.19-.33,1.79-.5,1.01-.27,2.01-.54,3.03-.8,2.67-.67,5.35-1.28,8.04-1.89.7-.16,1.4-.32,2.09-.47.74-.17,1.77-.45,2.51-.62"/>
    <path class="cls-1" d="M21.32,250.4c.37-.13.95-.31,1.33-.4,2.23-.55,4.46-1.1,6.69-1.65.35-.09.7-.17,1.05-.21.29-.03.58-.03.87-.09.43-.09.82-.31,1.23-.48.8-.33,2.64-1.06,3.5-1.18"/>
    <path class="cls-1" d="M17.76,247.81c.6-.35,1.54-.56,2.21-.71,3.6-.78,7.19-1.65,10.77-2.53l3.63-.89c.74-.18,1.48-.36,2.22-.54,2.31-.56,4.92-1.25,7.23-1.81"/>
    <path class="cls-1" d="M47.22,239.68c1.01-.38,2.06-.67,3.13-.88.31-.06.62-.11.93-.16.6-.1,1.36-.26,1.97-.36"/>
    <path class="cls-1" d="M47.19,240.24c.21.14.5.08.72-.05.22-.12.41-.3.65-.39.29-.11.62-.09.93-.11.46-.03.92-.17,1.32-.4.09-.05.17-.11.27-.12.16-.02.31.05.47.09.61.13,1.26-.45,1.83-.19"/>
    <path class="cls-1" d="M47.14,240.87c.43-.04.86-.15,1.26-.32.18-.08.36-.17.54-.23.25-.09.51-.13.78-.17.79-.13,1.59-.26,2.39-.38.23-.04.45-.07.68-.05.21.02.44.08.63-.02"/>
    <path class="cls-1" d="M46.92,241.41c.78-.18,1.57-.36,2.35-.55.56-.13,1.12-.26,1.69-.34.87-.12,1.53.09,2.38-.15"/>
    <path class="cls-1" d="M46.16,242c.64-.14,1.69-.3,2.33-.44.16-.03.32-.07.48-.06.13,0,.26.04.38.05.44.04.85-.21,1.27-.32.27-.08.55-.1.83-.12.72-.07,1.44-.13,2.16-.19"/>
    <path class="cls-1" d="M44.8,243.02c.66-.33,1.41-.4,2.14-.51.87-.12,1.74-.29,2.61-.47.38-.08.77-.15,1.15-.23.99-.2,1.99-.4,3-.52"/>
    <path class="cls-1" d="M44.43,243.56c.63-.11,1.25-.22,1.88-.33.17-.03.34-.06.52-.09.8-.14,1.59-.28,2.39-.42.38-.07.77-.14,1.16-.16.26-.01.52,0,.79-.04.66-.09,1.58-.63,2.25-.56"/>
    <path class="cls-1" d="M44.19,244.02c.91-.08,1.83-.16,2.74-.27.63-.08,1.26-.18,1.88-.29,1.31-.24,2.85-.65,4.17-.78"/>
    <path class="cls-1" d="M46.24,244.32c.41-.22,1.49-.16,1.95-.23.42-.07.87-.27,1.25-.08"/>
    <path class="cls-1" d="M13.95,247.31c.28.25.96.81,1.24,1.06.06.06.13.11.21.13.1.02.19-.03.28-.08.23-.13.47-.29.54-.54.09-.35-.19-.78.06-1.03"/>
    <path class="cls-1" d="M42.86,244.48c-.43.02-.86.21-1.16.52.12.13.34.12.51.07.18-.05.35-.13.53-.12.1,0,.2.04.28,0,.12-.06.11-.25.02-.34-.09-.1-.23-.12-.37-.13"/>
    <path class="cls-1" d="M54.21,240.27c.07.05.16.07.2.15.06.12-.05.25-.09.37-.08.26.2.53.47.54.28.02.53-.12.78-.24.52-.26,1.06-.45,1.63-.59.14-.04.29-.07.41-.15.12-.08.2-.24.16-.38-.02-.08-.08-.14-.15-.19-.48-.42-1.15-.52-1.79-.61-.34-.05-1.31-.36-1.62-.12-.23.19-.24,1.04,0,1.22Z"/>
    <path class="cls-2" d="M14.56,247.85c.42-.06.9-.2,1.29-.35.12-.05.24-.1.37-.11"/>
    <path class="cls-2" d="M14.86,248.08c.19-.03.48-.06.67-.13.22-.08.43-.19.66-.17"/>
    <path class="cls-2" d="M15.12,248.32c.26-.04.7-.11.95-.19"/>
    <path class="cls-1" d="M54.01,239.53c.41-.22,1.02-.24,1.43-.44"/>
    <path class="cls-1" d="M54.04,239.96c.04-.09.14-.13.24-.14.09,0,.19,0,.28-.01.18-.03.33-.18.52-.2.05,0,.11,0,.16,0,.09,0,.17-.03.25-.06.33-.11.67-.19,1.01-.25"/>
    <path class="cls-1" d="M54.21,240.27c.48-.16,1.07-.31,1.55-.47.07-.02.15-.05.22-.05.08,0,.15.02.23.02.31,0,.71-.24,1.03-.23"/>
    <path class="cls-1" d="M54.41,240.59c.3-.25.62-.1,1.01-.19.16-.04.32-.1.48-.16.57-.2,1.17-.29,1.77-.38"/>
    <path class="cls-1" d="M54.33,241.07c.13-.13.34-.14.53-.16.26-.03.51-.09.76-.14.24-.06.43-.16.67-.22.08-.02.29-.08.37-.1.33-.07.7-.09,1.03-.17"/>
  </g>
</svg>