<?xml version="1.0" encoding="UTF-8"?>
<svg id="Cleaning_products_public_domain_stored_incorrectly" data-name="Cleaning products public domain_stored incorrectly" xmlns="http://www.w3.org/2000/svg" viewBox="0 0 443.46 374.24">
  <defs>
    <style>
      .cls-1 {
        stroke-miterlimit: 10;
      }

      .cls-1, .cls-2 {
        fill: none;
      }

      .cls-1, .cls-2, .cls-3 {
        stroke: #1d5caa;
        stroke-width: .44px;
      }

      .cls-2, .cls-3 {
        stroke-miterlimit: 3.2;
      }

      .cls-3 {
        fill: #fff;
        fill-rule: evenodd;
      }
    </style>
  </defs>
  <g id="layer1">
    <g id="g4877">
      <g id="g3969">
        <path id="path1316" class="cls-3" d="M156.48,220.96s.22,4.57.41,5.95c0,0,.39,1.57,1.28,2.12,2.09,1.29,5.2,1.01,6.89-.17.63-.44,1.03-1.93,1.04-1.99.36-1.7.46-5.58.46-5.58"/>
        <path id="path1314" class="cls-3" d="M160.04,213.67c-.01.1-.03-.13-.13.18-.89,2.89-1.61,4.63-3.4,7.02-.11.15.99,1.25,2.05,1.69,2.01.84,4.14.63,5.68.14,1.58-.5,2.52-1.08,2.26-1.5-1.59-2.53-1.83-2.59-3.31-7.44-.09-.29-.19-.08-.19-.14"/>
        <path id="path1312" class="cls-3" d="M160.27,212.07s-.11-.21-.17.19-.05,1.42-.05,1.42c.99.25,1.98.18,2.97-.04,0,0,.02-.97-.02-1.37s-.16-.22-.16-.22"/>
        <path id="path1310" class="cls-3" d="M158.24,209.23c.19.96,0,1.83-1.37,4.02l.28.15c.39-.75.81-.81,1.35-1.71.54-.89.91-.6,1.41-.69l1.18-.88-2.32-1.75-.52.86h0Z"/>
        <path id="path1308" class="cls-3" d="M155.86,208.57c-.38-.4-.22-.88-.08-1.36l6.35-.22,2.43,1.62-.14.43h-.46c-.96.54-.9,1.9-1.13,3.02-.82.3-1.69.26-2.58.04-.39-2.48-2.23-3.2-4.39-3.52h0Z"/>
      </g>
      <path id="path3976" class="cls-2" d="M157.16,207.19c-.33.54-.31,1.01-.21,1.47"/>
      <path id="path3978" class="cls-2" d="M164.34,209.01c-2.34-.64-4.93-1.01-7.45-1.04"/>
      <path id="path4853" class="cls-2" d="M160.48,212.38c-.06.39-.07.91,0,1.29"/>
      <path id="path4855" class="cls-2" d="M160.69,212.43c-.06.14-.05,1.05,0,1.25"/>
      <path id="path4857" class="cls-2" d="M160.9,212.45c0,.5-.04.94,0,1.28"/>
      <path id="path4859" class="cls-2" d="M161.11,212.49c0,.44-.01.88.03,1.24"/>
      <path id="path4861" class="cls-2" d="M161.32,212.51c0,.44-.01.87.02,1.23"/>
      <path id="path4863" class="cls-2" d="M161.52,212.52c.02.43.03.86.04,1.23"/>
      <path id="path4865" class="cls-2" d="M161.75,212.51c.04.46.01.91.03,1.26"/>
      <path id="path4867" class="cls-2" d="M161.97,212.5c.02.45,0,.84,0,1.19"/>
      <path id="path4869" class="cls-2" d="M162.18,212.48c.06.46,0,.85,0,1.21"/>
      <path id="path4871" class="cls-2" d="M162.38,212.45c.09.44.03.88.02,1.25"/>
      <path id="path4873" class="cls-2" d="M162.59,212.41c.12.43.04.91.03,1.29"/>
    </g>
  </g>
  <g id="Aerosol">
    <g id="layer1-2" data-name="layer1">
      <g id="g4141">
        <path id="path4131" class="cls-1" d="M135.13,219.62c-1.36,0-2.75-.02-4.07.28-.04.08-.12.15-.2.19v13.87c.16.06.24.23.3.38.79.39,1.71.44,2.58.49,1.34.03,2.73.07,4.01-.35.18-.01.29-.12.34-.29.06-.11.15-.17.26-.2v-13.93c-.05-.04-.1-.09-.13-.16-1-.25-2.06-.25-3.09-.29h0Z"/>
        <path id="rect3001" class="cls-1" d="M134.59,213.66c-.32,0-.68.04-1.02.27v2.13c.73-.18,1.42-.14,2.07,0v-2.13c-.35-.23-.68-.27-1.05-.27h0ZM134.6,214c.31,0,.57.25.57.57s-.25.57-.57.57-.57-.25-.57-.57.25-.57.57-.57ZM134.6,214.34c-.12,0-.22.1-.22.22s.1.22.22.22.22-.1.22-.22-.1-.22-.22-.22Z"/>
        <path id="path3304" class="cls-1" d="M131.33,218.98c2.24-.28,4.4-.2,6.54,0,.45-2.88-6.92-2.92-6.54,0Z"/>
        <path id="path3326" class="cls-1" d="M134.63,218.97c-.55,0-1.07.01-1.55.04-.48.02-.91.06-1.27.1-.18.02-.35.05-.49.07-.07.01-.14.03-.21.04-.03,0-.06.01-.09.02-.03,0-.06.01-.09.02-.03,0-.05.02-.08.02-.08.02-.15.05-.21.09-.01,0-.02.01-.03.02-.03.02-.06.05-.09.08-.04.05-.08.13-.08.22,0,.01,0,.02,0,.03,0,.08.05.14.08.18,0,0,.02.02.02.03.13.11.34.07.43-.14,0,0,0,0,.01,0,.01,0,.02,0,.03-.01,0,0,0,0,0,0,.01,0,.03-.01.05-.02.08-.02.18-.04.3-.07,0,0,0,0,0,0,.06-.01.12-.02.19-.03.01,0,.03,0,.04,0,0,0,.01,0,.02,0,0,0,0,0,0,0,.03,0,.07,0,.11-.01.04,0,.09-.01.14-.02.35-.04.77-.08,1.24-.1.12,0,.24-.01.36-.02.12,0,.25,0,.37-.01.13,0,.26,0,.39,0,.13,0,.26,0,.4,0s.27,0,.4,0c.13,0,.26,0,.39,0,.13,0,.25,0,.37.01.61.02,1.16.06,1.6.11.05,0,.09.01.14.02.04,0,.08.01.11.02,0,0,.01,0,.02,0,.01,0,.03,0,.04,0,.07.01.13.02.19.03.06.01.12.02.17.03,0,0,0,0,0,0,.05.01.09.02.13.03,0,0,0,0,0,0,.02,0,.04.01.05.02.01,0,.02,0,.03.01,0,0,0,0,.01,0,.09.21.3.25.43.14,0,0,.02-.02.02-.03.04-.04.07-.11.08-.18,0-.01,0-.02,0-.03,0-.02,0-.04,0-.07,0-.04-.03-.08-.05-.11,0-.02-.02-.03-.03-.04-.03-.04-.06-.06-.09-.08,0,0,0,0,0,0-.01,0-.02-.01-.03-.02,0,0,0,0,0,0-.02-.01-.04-.02-.06-.03,0,0,0,0,0,0-.02-.01-.04-.02-.07-.03,0,0,0,0,0,0-.05-.02-.1-.03-.15-.05-.11-.03-.24-.06-.39-.09,0,0,0,0,0,0-.07-.01-.15-.03-.23-.04,0,0,0,0,0,0-.08-.01-.17-.02-.26-.03,0,0,0,0,0,0-.09-.01-.19-.02-.28-.03,0,0,0,0,0,0-.1,0-.2-.02-.31-.03,0,0,0,0,0,0-.11,0-.21-.02-.33-.02,0,0,0,0,0,0-.11,0-.23-.01-.35-.02-.48-.02-1-.04-1.55-.04h0Z"/>
        <path id="path3340" class="cls-1" d="M134.74,216.16c-.56-.02-1.22.04-1.9.25-.14.04-.22.18-.18.31s.18.22.31.18c0,0,.01,0,.02,0,1.62-.51,3.18,0,3.18,0,.13.04.28-.03.32-.16.04-.13-.03-.28-.16-.32,0,0,0,0,0,0,0,0-.66-.22-1.6-.25h0Z"/>
        <path id="path4112" class="cls-1" d="M130.68,234.13c-.14,0-.25.12-.25.26,0,.14.06.28.15.38s.2.18.32.25c.25.13.57.23.95.31.76.16,1.74.24,2.73.24s1.97-.07,2.73-.22c.38-.08.7-.17.95-.3.13-.06.23-.14.32-.24s.15-.23.15-.37c0-.14-.11-.26-.25-.26-.14,0-.26.11-.26.25,0,0,0,0,0,0,0,0,0,0-.02.04-.03.03-.09.08-.18.12-.18.09-.47.18-.82.25-.7.14-1.67.21-2.63.21-.96,0-1.92-.08-2.62-.23-.35-.07-.64-.17-.81-.26-.09-.05-.15-.09-.17-.13-.03-.03-.03-.04-.03-.05,0-.14-.11-.26-.25-.26,0,0,0,0,0,0h0Z"/>
      </g>
    </g>
  </g>
</svg>