<?xml version="1.0" encoding="UTF-8"?>
<svg id="Sink_leak_drops" data-name="Sink leak drops" xmlns="http://www.w3.org/2000/svg" viewBox="0 0 443.46 374.24">
  <defs>
    <style>
      .cls-1 {
        fill: #1d5caa;
        stroke-width: 0px;
      }
    </style>
  </defs>
  <g id="Sink_leak_drops-2" data-name="Sink leak drops">
    <path class="cls-1" d="M141.85,212.33c0,.35.28.61.63.6.35-.02.63-.31.63-.65,0-.35-.64-1.76-.64-1.76,0,0-.63,1.47-.63,1.82"/>
    <path class="cls-1" d="M149.89,213.44c0,.35.28.61.63.6.35-.02.63-.31.63-.66,0-.35-.64-1.76-.64-1.76,0,0-.63,1.47-.63,1.82"/>
    <path class="cls-1" d="M149.89,209.53c0,.35.28.61.63.6.35-.02.63-.31.63-.66,0-.35-.64-1.76-.64-1.76,0,0-.63,1.47-.63,1.82"/>
    <path class="cls-1" d="M145.36,203.18l-2.54.16c-.03,1.72-.07,3.44-.1,5.17-.02.85-.13.56-.24,1.4-.15-.03-.08-.81-.09-.95-.07-2.66-.2-4-.27-6.66,0,.27,2.84.33,3.08.28.28-.06,1.25-.45,1.36-.02.12.47-.91.61-1.2.63"/>
    <path class="cls-1" d="M149.41,199.41c.39.17.63.57.73.98.1.41.08.85.05,1.27-.07,1.27.15,1.32.08,2.59-.02.39,0,2.19.23,2.5.17-1.99.01-4.15.18-6.14.03-.31.05-.64.18-.93.13-.29.38-.56.7-.61.14-.14.05-.39-.13-.47-.17-.08-.38-.04-.57,0-1.09.2-3.18-.37-4.04.42.56.76,1.8.04,2.58.39"/>
  </g>
</svg>