<?xml version="1.0" encoding="UTF-8"?>
<svg id="Mold" xmlns="http://www.w3.org/2000/svg" viewBox="0 0 1231.01 565.07">
  <defs>
    <style>
      .cls-1 {
        opacity: .65;
      }

      .cls-1, .cls-2, .cls-3, .cls-4, .cls-5, .cls-6, .cls-7, .cls-8, .cls-9, .cls-10, .cls-11 {
        fill: #1d5caa;
        stroke-width: 0px;
      }

      .cls-2 {
        opacity: .75;
      }

      .cls-3 {
        opacity: .2;
      }

      .cls-4 {
        opacity: .85;
      }

      .cls-5 {
        opacity: .9;
      }

      .cls-6 {
        opacity: .45;
      }

      .cls-7 {
        opacity: .5;
      }

      .cls-8 {
        opacity: .55;
      }

      .cls-9 {
        opacity: .6;
      }

      .cls-10 {
        opacity: .3;
      }
    </style>
  </defs>
  <circle class="cls-11" cx="849.39" cy="251.06" r=".12"/>
  <circle class="cls-5" cx="848.7" cy="250.29" r=".18"/>
  <circle class="cls-5" cx="849.42" cy="249.57" r=".26"/>
  <circle class="cls-2" cx="849.16" cy="250.29" r=".13"/>
  <circle class="cls-11" cx="847.92" cy="249.58" r=".26"/>
  <circle class="cls-11" cx="848.4" cy="250.8" r=".26"/>
  <circle class="cls-4" cx="847.54" cy="250.21" r=".26"/>
  <circle class="cls-3" cx="848.47" cy="249.8" r=".95"/>
  <circle class="cls-11" cx="849.68" cy="248.93" r=".13"/>
  <circle class="cls-11" cx="848.26" cy="248.83" r=".26"/>
  <circle class="cls-4" cx="847.54" cy="250.48" r=".26"/>
  <circle class="cls-11" cx="848.38" cy="250.42" r=".13"/>
  <circle class="cls-11" cx="846.85" cy="249.72" r=".26"/>
  <circle class="cls-2" cx="850.39" cy="250.54" r=".13"/>
  <circle class="cls-11" cx="846.31" cy="250.45" r=".13"/>
  <circle class="cls-11" cx="847.54" cy="248.71" r=".13"/>
  <circle class="cls-11" cx="847.99" cy="249.72" r=".13"/>
  <circle class="cls-11" cx="849.02" cy="248.96" r=".13"/>
  <circle class="cls-2" cx="847.41" cy="249.23" r=".13"/>
  <circle class="cls-11" cx="849.12" cy="249.72" r=".13"/>
  <circle class="cls-11" cx="849.21" cy="249.71" r=".26"/>
  <circle class="cls-11" cx="848.91" cy="249.85" r=".13"/>
  <circle class="cls-11" cx="847.99" cy="249.72" r=".13"/>
  <circle class="cls-4" cx="849.21" cy="249.71" r=".26" transform="translate(-34.09 307.07) rotate(-20.1)"/>
  <circle class="cls-11" cx="847.78" cy="249.85" r=".13"/>
  <circle class="cls-5" cx="848.73" cy="249.72" r=".26"/>
  <circle class="cls-11" cx="850.4" cy="249.93" r=".13"/>
  <circle class="cls-11" cx="848.73" cy="249.98" r=".26"/>
  <circle class="cls-2" cx="849.34" cy="248.44" r=".13"/>
  <circle class="cls-4" cx="849.13" cy="250.93" r=".26"/>
  <circle class="cls-11" cx="849.68" cy="250.8" r=".13"/>
  <circle class="cls-11" cx="850.23" cy="248.7" r=".13"/>
  <circle class="cls-11" cx="850.26" cy="249.72" r=".13"/>
  <circle class="cls-11" cx="849.82" cy="250.43" r=".13"/>
  <circle class="cls-5" cx="848.51" cy="248.42" r=".13"/>
  <circle class="cls-1" cx="847.99" cy="250.93" r=".13"/>
  <circle class="cls-5" cx="850.26" cy="249.72" r=".26"/>
  <circle class="cls-2" cx="849.42" cy="250.06" r=".13"/>
  <circle class="cls-2" cx="849.82" cy="250.29" r=".13"/>
  <circle class="cls-5" cx="848.6" cy="249.29" r=".26"/>
  <circle class="cls-5" cx="846.98" cy="250.85" r=".13"/>
  <circle class="cls-4" cx="850" cy="249.36" r=".26"/>
  <circle class="cls-11" cx="850.53" cy="249.1" r=".07"/>
  <circle class="cls-1" cx="850.81" cy="249.29" r=".07"/>
  <circle class="cls-1" cx="851.37" cy="249.43" r=".07"/>
  <circle class="cls-2" cx="850.23" cy="250.56" r=".07"/>
  <circle class="cls-8" cx="850.87" cy="248.83" r=".07"/>
  <circle class="cls-2" cx="850.74" cy="250.19" r=".07"/>
  <circle class="cls-6" cx="846.76" cy="248.79" r=".07"/>
  <circle class="cls-9" cx="846.5" cy="249" r=".07"/>
  <circle class="cls-7" cx="846.91" cy="249.2" r=".07"/>
  <circle class="cls-9" cx="846.69" cy="250.25" r=".07"/>
  <circle class="cls-11" cx="846.81" cy="250.56" r=".07"/>
  <circle class="cls-8" cx="847.12" cy="250.22" r=".07"/>
  <circle class="cls-7" cx="849.85" cy="250.9" r=".07"/>
  <circle class="cls-1" cx="849.93" cy="251.22" r=".07"/>
  <circle class="cls-7" cx="850.28" cy="250.93" r=".07"/>
  <circle class="cls-11" cx="848.81" cy="248.44" r=".07"/>
  <circle class="cls-11" cx="849.37" cy="248.58" r=".07"/>
  <circle class="cls-9" cx="848.67" cy="247.99" r=".07"/>
  <circle class="cls-10" cx="849.32" cy="249.93" r=".76"/>
</svg>