<?xml version="1.0" encoding="UTF-8"?>
<svg id="Peeling_paint" data-name="Peeling paint" xmlns="http://www.w3.org/2000/svg" viewBox="0 0 517.82 380.35">
  <defs>
    <style>
      .cls-1 {
        stroke-miterlimit: 10;
        stroke-width: .2px;
      }

      .cls-1, .cls-2 {
        fill: none;
        stroke: #1d5caa;
      }

      .cls-2 {
        stroke-linecap: round;
        stroke-linejoin: round;
        stroke-width: .27px;
      }
    </style>
  </defs>
  <path class="cls-1" d="m28.09,225.68c.69.14.46-.56.99-.8.25-.11.48-.27.76-.33.38-.08.86.01,1.21-.13.38-.15.54-.54.76-.86.21-.32-.13-.65.35-.51"/>
  <path class="cls-1" d="m29.88,224.52c-.01-.16-.02-.35.1-.45.04-.04.1-.06.12-.11.04-.08-.02-.2-.11-.23-.01-.04.02-.07.06-.08.04-.01.08,0,.12-.03.09-.05.04-.18.01-.29-.05-.16-.05-.33.04-.45.05-.07.14-.11.18-.19.09-.18,1.48.04,1.72.19"/>
  <path class="cls-2" d="m28.03,225.64c-.23.25-.44.67-.75.65-.11,0-.27-.2-.38-.17-.17.05-.17.54-.1.73-.04.08-.23-.16-.29-.21-.07-.04-.24.07-.31.05-.19-.06-.15.08-.27.28-.17.3-.36.14-.66.19-.17.03.17.57-.42.39-.33-.1.15.56-.63.51"/>
  <path class="cls-1" d="m23.99,225.04c.29-.03.33-.4.58-.22.09.06.14.27.24.31.16.06.37-.23.39-.39.07-.02.12.22.15.28.04.06.23.09.28.14.13.14.19.11.36.05.27-.09.15-.29.41-.16.15.08.29-.11.7.32.23.24.36-.14.98.31"/>
  <path class="cls-1" d="m24.22,228.06c-.02-.45-.58.39-.83-.6"/>
  <path class="cls-1" d="m23.38,227.46c.01-.17-.17-.17-.06-.33.04-.06.15-.1.18-.16.04-.1-.08-.21-.16-.21,0-.04.12-.08.16-.11.04-.03.06-.14.1-.18.08-.09.07-.12.06-.22-.02-.15-.13-.07-.04-.23.05-.1-.03-.17.23-.44.14-.15-.04-.2.25-.6"/>
</svg>