<?xml version="1.0" encoding="UTF-8"?>
<svg id="Droppings" xmlns="http://www.w3.org/2000/svg" viewBox="0 0 443.46 374.24">
  <defs>
    <style>
      .cls-1 {
        fill: #075ca9;
        stroke-width: 0px;
      }
    </style>
  </defs>
  <path class="cls-1" d="M57.92,252.59c.17.08,1.28-.27,1.69-.26.7.02,1.44.04,2.11.24.43.13.84.39,1.13.86-.69.36-2.17-.04-2.96-.12-.82-.09-1.4-.2-1.99-.71"/>
  <path class="cls-1" d="M59.89,254.95c.06.02.15-.02.21-.03.13-.03.3-.05.42-.11.08-.04.17-.09.25-.12.12-.03.27-.01.4-.03.24-.03.46-.05.7,0,.26.06.53.06.78.12.07.02.14.05.21.07.1.02.2.05.29.08.12.04.28.07.38.14.09.06.18.13.26.2.08.06.18.11.26.17.08.06.13.11.22.15-.11.05-.25.04-.37.06-.08.01-.15.04-.23.06-.18.03-.36.02-.53.06-.14.04-.3.03-.45.03-.1,0-.19,0-.29.01-.17,0-.34-.01-.51-.02-.06,0-.11,0-.16,0-.14-.01-.26-.07-.4-.11-.17-.05-.33-.15-.49-.24-.14-.08-.31-.15-.45-.24-.1-.06-.22-.08-.33-.12-.07-.02-.08-.08-.14-.1"/>
  <path class="cls-1" d="M60.46,250.58c.07.01.14-.02.22-.03.16-.02.33-.02.49-.01.19,0,.35-.02.53-.06.11-.02.22-.03.33-.04.19-.02.33.02.52.06.09.02.19.01.28.03.06.01.1.03.16.06.11.06.21.08.32.12.17.05.32.12.48.18.11.05.26.1.33.2.04.05.04.12.07.17.04.05.08.08.11.13-.07-.01-.15,0-.22.02-.14.02-.25.05-.38.05-.07,0-.14,0-.21,0-.11.01-.22.06-.33.06-.16,0-.35,0-.51-.04-.08-.02-.15-.05-.23-.07-.22-.05-.45-.11-.65-.2-.22-.1-.44-.18-.66-.27-.1-.04-.21-.07-.3-.13-.12-.08-.25-.15-.36-.24"/>
  <path class="cls-1" d="M57.07,248.72c.11-.02.22-.02.32-.05.1-.03.2-.07.3-.08.14-.01.28,0,.41-.04.23-.07.49-.09.73-.08.2.01.37.03.57.06.17.03.33.04.47.13.06.04.08.09.15.12.13.07.28.1.41.17.15.08.31.13.45.22.04.03.09.05.13.08.03.03.02.05.07.06-.03.02-.08.03-.11.05-.09.05-.17.12-.28.15-.06.01-.14,0-.19.02-.06.01-.08.03-.15.03-.07,0-.11.01-.17.02-.2.04-.4.03-.6.05-.13.01-.26.03-.38.03-.13,0-.27-.04-.4-.07-.11-.02-.21-.05-.32-.06-.11,0-.21-.02-.31-.08-.09-.04-.16-.09-.25-.12-.05-.01-.1-.03-.16-.04-.13-.04-.21-.11-.3-.2-.08-.08-.18-.14-.25-.21-.04-.05-.11-.09-.13-.15"/>
  <path class="cls-1" d="M56.7,250.85c.09,0,.18-.02.27-.03.09-.01.11-.05.17-.09.03-.01.08-.01.12-.03.07-.02.14-.05.22-.07.13-.05.27-.07.4-.1.1-.02.19-.06.29-.05.06,0,.1.04.15.05.08.03.16.03.24.05.21.05.41.1.62.16.15.04.31.05.45.11.09.04.2.1.27.15.05.04.09.08.14.13-.12.01-.2.08-.31.13-.07.03-.14.03-.21.05-.09.03-.16.03-.26.05-.17.03-.33.1-.5.14-.09.02-.19,0-.28-.02-.29-.06-.57-.14-.86-.21-.18-.05-.39-.06-.56-.13-.08-.03-.13-.1-.2-.15-.06-.05-.11-.06-.17-.13"/>
  <path class="cls-1" d="M55.47,251.94c-.33-.01-.66-.22-.97-.32-.43-.13-.85-.32-1.29-.37-.36-.04-.76-.15-1.11-.1-.31.04-.69.07-.96.2-.17.08-.33.13-.5.21.09.18.31.24.48.34.17.1.35.18.54.24.6.17,1.35.36,1.98.24.15-.03.3-.07.45-.09.29-.02.57.05.84-.09.17-.09.35-.19.55-.27"/>
  <path class="cls-1" d="M58.83,254.24c-.05-.07-.21-.12-.28-.16-.22-.1-.43-.18-.64-.29-.33-.18-.63-.33-.98-.45-.77-.24-1.45.01-2.19.14-.21.04-.46.26-.67.23,0,0,0,.05,0,.05.21.07.44.25.59.37.24.19.6.23.91.26.06.27,1.07.27,1.28.28.36.02.84.1,1.19,0,.26-.08.58-.34.81-.43"/>
  <path class="cls-1" d="M53.22,253.33c-.23-.06-.43-.14-.67-.12-.17.01-.34.05-.51.07-.42.04-.84.02-1.26.1-.34.06-.51.18-.78.36-.16.1-.4.12-.55.21-.13.09-.25.35-.31.5.28.05.59.08.87.1.39.02.69-.04,1.07-.09.42-.05.71.04,1.09-.15.29-.14.54-.19.78-.4.17-.14.31-.32.46-.47-.07-.02-.14-.06-.19-.09"/>
</svg>