<?xml version="1.0" encoding="UTF-8"?>
<svg id="Smoke_detector" data-name="Smoke detector" xmlns="http://www.w3.org/2000/svg" viewBox="0 0 691.41 653.38">
  <defs>
    <style>
      .cls-1 {
        fill: none;
      }

      .cls-1, .cls-2 {
        stroke-miterlimit: 10;
      }

      .cls-1, .cls-2, .cls-3, .cls-4 {
        stroke: #fff;
      }

      .cls-1, .cls-2, .cls-4 {
        stroke-width: .25px;
      }

      .cls-2, .cls-3, .cls-4 {
        fill: #1d5caa;
      }

      .cls-3 {
        stroke-width: .44px;
      }

      .cls-3, .cls-4 {
        stroke-linecap: round;
        stroke-linejoin: round;
      }
    </style>
  </defs>
  <g id="layer1">
    <g id="g3852">
      <path class="cls-2" d="M568.04,208.68c-.47-.13-.95-.23-1.44-.28h-1.28s1.28,21.65,1.28,21.65c5.52,0,9.33-4.22,9.33-10.82,0-3.8-2.95-8.79-7.27-10.36-.22-.03-.42-.09-.62-.19Z"/>
      <path id="path2996" class="cls-3" d="M567.51,208.84c3.83,1.52,6.7,6.72,6.7,10.43,0,6.63-3.13,10.73-8.89,10.73-4.8,0-8.89-4.19-8.89-10.86,0-7.54,4.82-10.73,8.89-10.73.76,0,1.49.16,2.2.44"/>
      <path id="path3004" class="cls-1" d="M571.54,214.28c-5.92,2.8-7.32,7.96-5.69,14.68-1.06-5.94.79-10.85,5.69-14.68Z"/>
      <path id="path3008" class="cls-1" d="M558.25,223.43c5.07-3.81,5.13-8.9,4.36-13.89.34,4.79.04,9.53-4.36,13.89h0Z"/>
      <path id="path3010" class="cls-1" d="M561.01,224.73c.29.39,1.39,1.16,2.05,1.5l.06-.47c-.67-.36-1.32-.78-1.95-1.31l-.15.28ZM561.4,224.02c.47.45,1.07.85,1.77,1.22l.07-.57c-.59-.26-1.15-.57-1.66-.98l-.18.33ZM561.83,223.25c.44.41.94.73,1.47.95l.06-.5c-.5-.16-.94-.44-1.35-.79l-.19.34Z"/>
      <path id="path3018" class="cls-4" d="M566.58,210.91c.79,0,1.43.74,1.43,1.65s-.64,1.65-1.43,1.65-1.43-.74-1.43-1.65.64-1.65,1.43-1.65Z"/>
      <path id="path3020" class="cls-1" d="M566.53,212.24c.13,0,.23.15.23.33,0,.18-.1.33-.23.33s-.23-.15-.23-.33c0-.18.1-.33.23-.33Z"/>
    </g>
  </g>
</svg>