<?xml version="1.0" encoding="UTF-8"?>
<svg xmlns="http://www.w3.org/2000/svg" viewBox="0 0 517.82 380.35">
  <defs>
    <style>
      .cls-1 {
        stroke-linecap: round;
      }

      .cls-1, .cls-2, .cls-3, .cls-4 {
        stroke: #1d5caa;
        stroke-miterlimit: 10;
      }

      .cls-1, .cls-2, .cls-4 {
        stroke-width: .44px;
      }

      .cls-1, .cls-3, .cls-4 {
        fill: none;
      }

      .cls-2, .cls-5 {
        fill: #fff;
      }

      .cls-3 {
        stroke-width: .42px;
      }

      .cls-6 {
        fill: #1d5caa;
      }

      .cls-6, .cls-5 {
        stroke-width: 0px;
      }
    </style>
  </defs>
  <g id="Open_cabinet_door" data-name="Open cabinet door">
    <polygon class="cls-2" points="170.71 252.76 170.86 191.49 214.76 195.82 214.76 262.17 170.71 252.76"/>
  </g>
  <g id="Floor_spill" data-name="Floor spill">
    <path class="cls-6" d="m151.68,262.38s.69-.08,1.22-.06c.42.01.8-.18,1.35-.75.54-.57,1.32-1.14,3.97-1.35,2.65-.21,4.96-.15,6.38.26,1.43.42,1.71.73,1.77,1.09.05.36-.23.49-.62.62-.39.13-.68.44-.65.7.03.26,0,.36,1.4.73,1.4.36,1.76.93,1.82,1.17.05.23.26.57-.78.88-1.04.31-3.22.65-5.11.54-1.89-.1-3.92-.8-4.85-.96-.93-.16-1.79-.1-3.27.08-1.48.18-3.66.13-4.67-.34-1.01-.47-1.01-.86-1.01-1.12s.47-.73,1.53-1.12c.89-.32,1.53-.38,1.53-.38"/>
    <path class="cls-6" d="m169.1,265.56c0-.21.72-.38,1.61-.38s1.61.17,1.61.38"/>
    <path class="cls-6" d="m172.33,265.56c0,.21-.72.38-1.61.38s-1.61-.17-1.61-.38"/>
    <path class="cls-6" d="m147.21,266.44c0-.11.45-.21,1.01-.21s1.01.09,1.01.21"/>
    <path class="cls-6" d="m149.23,266.44c0,.11-.45.21-1.01.21s-1.01-.09-1.01-.21"/>
  </g>
  <g id="Leaking_sink" data-name="Leaking sink">
    <path class="cls-5" d="m170.86,191.49s-1.6,11.36-1.86,12.15c-.55,1.65-.11,2.2-4.37,2.93-3.17.54-26.33,4.1-38.69,5.91"/>
    <path class="cls-3" d="m170.86,191.49s-1.39,11.01-1.68,11.96c-.48,1.58-.84,2.73-4.6,3.36-3.16.53-26.45,4.04-38.83,5.81"/>
    <path class="cls-5" d="m146.95,232.3c2.6-.12,4.28-2.6,4.27-6.29l-.03-15.09c0-1.32-1.08-1.69-2.41-1.62-1.33.06-2.41.54-2.4,1.85v7.97c-1.01-3.43-3.27-4.46-4.76-4.76-3.26-.65-10.56-1.59-10.87-1.63-1.31-.17-2.56.75-2.79,2.06-.23,1.3.64,2.5,1.95,2.67.08.01,7.46.96,10.55,1.58,1.54.3,1.66,3.51,1.66,4.49,0,1.5.25,8.99,4.84,8.77"/>
    <path class="cls-4" d="m146.95,232.3c2.6-.12,4.28-2.6,4.27-6.29l-.03-15.09c0-1.32-1.08-1.69-2.41-1.62-1.33.06-2.41.54-2.4,1.85v7.97c-1.01-3.43-3.27-4.46-4.76-4.76-3.26-.65-10.56-1.59-10.87-1.63-1.31-.17-2.56.75-2.79,2.06-.23,1.3.64,2.5,1.95,2.67.08.01,7.46.96,10.55,1.58,1.54.3,1.66,3.51,1.66,4.49,0,1.5.25,8.99,4.84,8.77Z"/>
    <path class="cls-4" d="m154.67,208.14s-1.87,4.03-5.88,4.22c-4.01.19-5.89-2.36-5.89-2.36l11.77-1.85Z"/>
    <path class="cls-5" d="m151.48,219.11s-3.74.76-5.09,0"/>
    <path class="cls-4" d="m151.48,219.11s-3.74.76-5.09,0"/>
    <line class="cls-5" x1="146.44" y1="219.13" x2="146.41" y2="227.48"/>
    <line class="cls-1" x1="146.44" y1="219.13" x2="146.41" y2="227.48"/>
    <path class="cls-5" d="m136.38,213.7s-2.67,2.16-.48,4.57"/>
    <path class="cls-4" d="m136.38,213.7s-2.67,2.16-.48,4.57"/>
    <path class="cls-5" d="m146.45,222.94s-2.63,1.22-4.29.11"/>
    <path class="cls-4" d="m146.45,222.94s-2.63,1.22-4.29.11"/>
    <path class="cls-6" d="m149.11,220.1c.39.17.63.57.73.98.1.41.08.85.05,1.27-.07,1.27.15,1.32.08,2.59-.02.39,0,2.19.23,2.5.17-1.99.01-4.15.18-6.14.03-.31.05-.64.18-.93.13-.29.38-.56.7-.61.14-.14.05-.39-.13-.47-.17-.08-.38-.04-.57,0-1.09.2-3.18-.37-4.04.42.56.76,1.8.04,2.58.39"/>
    <path class="cls-6" d="m149.59,230.22c0,.35.28.61.63.6.35-.02.63-.31.63-.66,0-.35-.64-1.76-.64-1.76,0,0-.63,1.47-.63,1.82"/>
    <path class="cls-6" d="m149.59,234.13c0,.35.28.61.63.6.35-.02.63-.31.63-.66,0-.35-.64-1.76-.64-1.76,0,0-.63,1.47-.63,1.82"/>
    <path class="cls-6" d="m145.06,223.87l-2.54.16c-.03,1.72-.07,3.44-.1,5.17-.02.85-.13.56-.24,1.4-.15-.03-.08-.81-.09-.95-.07-2.66-.2-4-.27-6.66,0,.27,2.84.33,3.08.28.28-.06,1.25-.45,1.36-.02.12.47-.91.61-1.2.63"/>
    <path class="cls-6" d="m141.55,233.02c0,.35.28.61.63.6.35-.02.63-.31.63-.65,0-.35-.64-1.76-.64-1.76,0,0-.63,1.47-.63,1.82"/>
  </g>
</svg>