<?xml version="1.0" encoding="UTF-8"?>
<svg id="Stove_spill" data-name="Stove spill" xmlns="http://www.w3.org/2000/svg" viewBox="0 0 618.88 612">
  <defs>
    <style>
      .cls-1 {
        fill: #1d5caa;
        stroke-width: 0px;
      }
    </style>
  </defs>
  <path class="cls-1" d="M188.45,365.43s1.17.28,1.97-.12c.8-.4.29-.66,1.28-.66s1.69.28,2.49.08c.8-.2,1.71-.64,2.92-.48.61.08.93.26,2.08.13,1.15-.13,4.12-.25,4.12-.25l-7.68,2.24-7.17-.94Z"/>
  <path class="cls-1" d="M191.95,365.11s.73.48.71,1.08c-.03.6-.3,1.63-.25,1.9.05.28.47.25.51,0,.04-.25-.12-1.67-.09-1.84.03-.17.52-.96.52-.96l-1.4-.18Z"/>
  <path class="cls-1" d="M193.31,366.13s.73.48.71,1.08c-.02.6-.3,1.63-.25,1.9.05.28.47.25.51,0,.04-.25-.12-1.67-.09-1.84.03-.17.52-.96.52-.96l-1.4-.18Z"/>
  <path class="cls-1" d="M194.31,370.12c0,.17-.13.3-.3.3s-.3-.13-.3-.3.3-.57.3-.57c0,0,.3.41.3.57"/>
  <path class="cls-1" d="M181.56,364.33s.73.48.71,1.08c-.02.6-.29,1.63-.25,1.9.05.28.47.25.51,0,.04-.25-.12-1.66-.09-1.84.03-.17.52-.96.52-.96l-1.4-.18Z"/>
  <path class="cls-1" d="M182.5,364.38s.73,1.36.71,3.07c-.03,1.71-.3,4.64-.25,5.43.05.79.47.72.51,0,.04-.72-.12-4.76-.09-5.24.03-.49.52-2.75.52-2.75l-1.4-.51Z"/>
  <path class="cls-1" d="M181.57,364.6l-1.54-.33s.39.12.52-.03c.13-.15-.08-.33.73-.37.81-.04,1.69.41,2.22.45.54.04,1.29.19,1.31-.01.02-.21.61-.41,1.4-.26.79.15.66.31,1.49.43.83.12.18.05,1.21.27,1.03.21.54.11,1.64.32,1.11.22,1.18.7,1.95.77.77.07-9.67-1.09-9.67-1.09l-1.27-.15Z"/>
</svg>