<?xml version="1.0" encoding="UTF-8"?>
<svg width="187px" height="87px" viewBox="0 0 187 87" version="1.1" xmlns="http://www.w3.org/2000/svg" xmlns:xlink="http://www.w3.org/1999/xlink">
    <title>NYC health #1CA970</title>
    <defs>
        <polygon id="path-1" points="0.094908284 0.184543396 11.5490858 0.184543396 11.5490858 12.0754717 0.094908284 12.0754717"></polygon>
    </defs>
    <g id="Page-1" stroke="none" stroke-width="1" fill="none" fill-rule="evenodd">
        <g id="Neighborhood-Main-Page-Blue" transform="translate(-408.000000, -369.000000)">
            <g id="NYC-health-#1CA970" transform="translate(408.000000, 369.000000)">
                <polygon id="Fill-1" fill="#1CA970" points="136.353373 0 124.665967 11.6248882 124.665967 3.87466446 120.768666 0.00119303039 105.186657 0.00119303039 101.292354 3.87466446 101.292354 11.6242916 93.4983508 19.3733223 85.7073463 11.6242916 85.7073463 3.87466446 81.8100449 0.00119303039 66.2277361 0.00119303039 62.3337331 3.87466446 62.3337331 3.87496272 58.4379311 0 42.8556222 0 38.9586207 3.87615575 38.9586207 19.3748136 19.482309 0 3.89700154 0 0 3.87615575 0 58.1220547 3.89700154 61.9982105 19.482309 61.9982105 23.3763119 58.1220547 23.3763119 42.6228004 42.8556222 61.9982105 58.4379311 61.9982105 62.3349326 58.1220547 62.3349326 27.123546 81.8100449 46.5010439 81.8100449 58.1238443 85.7073463 62 101.292354 62 105.186657 58.1238443 105.186657 46.5010439 124.665067 27.123546 124.665067 50.3757084 136.353373 61.9982105 175.311994 61.9982105 187 50.3760066 187 38.7496272 183.102699 34.8704889 163.623688 34.8704889 163.623688 38.7499254 148.038381 38.7499254 148.038381 23.2479868 163.623688 23.2479868 163.623688 27.076123 183.102699 27.076123 187 23.248285 187 11.6251864 175.311994 0"></polygon>
                <polygon id="Fill-2" fill="#1CA970" points="9.08173316 70 9.08173316 75.4633823 3.91826684 75.4633823 3.91826684 70 0 70 0 85 3.91826684 85 3.91826684 78.8239772 9.08173316 78.8239772 9.08173316 85 13 85 13 70"></polygon>
                <g id="Group-12" transform="translate(15.000000, 70.000000)">
                    <path d="M3.72034438,8.89575849 C3.93490651,7.53062642 4.80251006,6.59779623 6.10225562,6.59779623 C7.33681775,6.59779623 8.22403669,7.63779623 8.28922012,8.89575849 L3.72034438,8.89575849 Z M6.10225562,4.10783396 C2.78785917,4.10783396 0.0389893491,6.58149434 0.0389893491,10.0236075 C0.0389893491,13.7944755 2.52803077,15.9982491 6.19007219,15.9982491 C8.70174675,15.9982491 11.1029716,14.8737208 11.7756284,12.2762868 L8.33116686,12.2762868 C7.98684142,13.0989283 7.11923787,13.5116075 6.23201893,13.5116075 C4.67244497,13.5116075 3.78552781,12.4876075 3.72034438,10.9567396 L11.9705751,10.9567396 C12.1428888,7.14058868 10.1279361,4.10783396 6.10225562,4.10783396 L6.10225562,4.10783396 Z" id="Fill-3" fill="#1CA970"></path>
                    <g id="Group-7" transform="translate(12.674556, 3.924528)">
                        <mask id="mask-2" fill="white">
                            <use xlink:href="#path-1"></use>
                        </mask>
                        <g id="Clip-6"></g>
                        <path d="M5.31350592,9.79993962 C4.49147041,9.79993962 3.77656509,9.4325434 3.77656509,8.52567547 C3.77656509,7.63843019 4.4685355,7.28733585 5.29087278,7.09231698 C6.0932929,6.8746566 7.04539349,6.81578868 7.56535207,6.48763774 C7.65316864,8.80522264 7.06802663,9.79993962 5.31350592,9.79993962 L5.31350592,9.79993962 Z M11.1169438,3.95209057 C11.1169438,0.769901887 8.5400858,0.184543396 5.87571302,0.184543396 C4.59860059,0.184543396 3.29885503,0.399184906 2.30450592,0.961901887 C1.30713905,1.55329811 0.615168639,2.50243019 0.549985207,3.97503396 L3.99444675,3.97503396 C4.16645858,3.02258113 4.81316272,2.5706566 5.8334645,2.5706566 C6.59031657,2.5706566 7.60790237,2.88914717 7.60790237,3.73775094 C7.60790237,4.42997736 7.26327515,4.64793962 6.63618639,4.77473208 C4.07864201,5.29790189 0.094908284,5.01503396 0.094908284,8.67510943 C0.094908284,10.996317 1.78484911,12.0755623 3.92594379,12.0755623 C5.2712574,12.0755623 6.67813314,11.6852226 7.6305355,10.6905057 C7.67248225,11.0579019 7.71835207,11.4056755 7.84811538,11.7504302 L11.5490858,11.7504302 C11.1169438,10.862883 11.1169438,9.82288302 11.1169438,8.87043019 L11.1169438,3.95209057 Z" id="Fill-5" fill="#1CA970" mask="url(#mask-2)"></path>
                    </g>
                    <polygon id="Fill-8" fill="#1CA970" points="25.9101124 15.6751698 29.5914675 15.6751698 29.5914675 0.20890566 25.9101124 0.20890566"></polygon>
                    <path d="M36.2596118,1.03166792 L32.5812746,1.03166792 L32.5812746,4.43483774 L30.7160024,4.43483774 L30.7160024,6.81430943 L32.5812746,6.81430943 L32.5812746,11.8171774 C32.5812746,14.8758943 33.3806769,15.7827623 36.5227598,15.7827623 C37.192097,15.7827623 37.8644521,15.698234 38.5340911,15.6755925 L38.5340911,12.9709887 C38.2090793,12.9709887 37.8843692,13.010234 37.5819905,13.010234 C36.7825882,13.010234 36.2596118,12.8149132 36.2596118,11.9276679 L36.2596118,6.81430943 L38.5340911,6.81430943 L38.5340911,4.43483774 L36.2596118,4.43483774 L36.2596118,1.03166792 Z" id="Fill-10" fill="#1CA970"></path>
                    <path d="M46.8918746,4.11009811 C45.5498805,4.11009811 44.0322533,4.82496604 43.4703479,5.97243774 L43.4277976,5.97243774 L43.4277976,0.209116981 L39.7464426,0.209116981 L39.7464426,15.675683 L43.4277976,15.675683 L43.4277976,9.54496604 C43.4277976,8.31296604 44.0322533,7.13953208 45.4198154,7.13953208 C47.4344663,7.13953208 47.2591349,8.69968302 47.2591349,10.2408151 L47.2591349,15.675683 L50.9404899,15.675683 L50.9404899,8.4624 C50.9404899,6.83704151 50.638413,4.11009811 46.8918746,4.11009811" id="Fill-11" fill="#1CA970"></path>
                </g>
            </g>
        </g>
    </g>
</svg>