<?xml version="1.0" encoding="UTF-8"?>
<svg width="400px" height="305px" viewBox="0 0 400 305" version="1.1" xmlns="http://www.w3.org/2000/svg" xmlns:xlink="http://www.w3.org/1999/xlink">
    <title>tab_data stories</title>
    <g id="Approved-Image-Overlays" stroke="none" stroke-width="1" fill="none" fill-rule="evenodd">
        <g id="Image-Tab_data-stories" transform="translate(0, -79)">
            <g id="tab_data-stories" transform="translate(0, 79)">
                <path d="M0,0 L370,0 C386.568542,-3.04359188e-15 400,13.4314575 400,30 L400,275 C400,291.568542 386.568542,305 370,305 L0,305 L0,305 L0,0 Z" id="Rectangle" fill="#D75047" opacity="0.894414993"></path>
                <path d="M161,126 L177.134709,126 C177.749719,114.099276 179.834146,103.391706 183,95 C171.562477,100.829286 163.179362,112.254509 161,126 Z M161,140 C163.18349,153.745491 171.562477,165.170714 183,171 C179.830019,162.608294 177.749719,151.900724 177.134709,140 L161,140 L161,140 Z M200.002134,173 C203.28355,169.78104 208.864946,158.127971 210,139 L190,139 C191.139322,158.12365 196.720717,169.78104 200.002134,173 Z M190,124 L210,124 C208.864946,104.87635 203.28355,93.2189605 200.002134,90 C196.71645,93.2189605 191.135054,104.87635 190,124 Z M217,171 C228.437523,165.170714 236.820638,153.745491 239,140 L222.865291,140 C222.250281,151.900724 220.169981,162.608294 217,171 Z M279.714286,49 L133.571429,49 C118.894866,49 107,61.4224609 107,76.75 L107,243.25 C107,258.577539 118.894866,271 133.571429,271 L279.714286,271 C287.050491,271 293,264.786602 293,257.125 L293,62.875 C293,55.2133984 287.050491,49 279.714286,49 Z M246.3125,229 L152.6875,229 C149.009375,229 146,225.85 146,222 C146,218.15 149.009375,215 152.6875,215 L246.3125,215 C249.990625,215 253,218.15 253,222 C253,225.85 249.990625,229 246.3125,229 Z M199.5,187 C169.953789,187 146,162.150742 146,131.5 C146,100.849258 169.953789,76 199.5,76 C229.046211,76 253,100.849258 253,131.5 C253,162.150742 229.046211,187 199.5,187 Z M217,95 C220.169981,103.391706 222.250281,114.099276 222.865291,126 L239,126 C236.820638,112.254509 228.437523,100.829286 217,95 Z" id="Shape" fill="#FFFFFF" fill-rule="nonzero"></path>
            </g>
        </g>
    </g>
</svg>