<?xml version="1.0" encoding="UTF-8"?>
<svg id="Ceramicware_public_domain_cooking" data-name="Ceramicware public domain_cooking" xmlns="http://www.w3.org/2000/svg" viewBox="0 0 443.46 374.24">
  <defs>
    <style>
      .cls-1 {
        fill: none;
        stroke: #1d5caa;
        stroke-miterlimit: 10;
        stroke-width: .44px;
      }

      .cls-2 {
        fill: #fff;
      }
    </style>
  </defs>
  <g id="layer1">
    <g id="g6790">
      <g id="g6751">
        <g id="g6713">
          <g id="g6676">
            <g id="g6590">
              <g id="g6578">
                <g id="g5697">
                  <g id="g5668">
                    <path id="path6366" class="cls-1" d="M288.43,147.02c-.28,0-.53-.03-.78.03-.41,1.09-.62,2.28-.34,3.39.74,1.83,1.05,3.79.34,5.64-1.05,2.52-4.09,4.45-6,6.71-1.45,1.75-2.15,3.74-2,5.71.01,1.63.46,3.25.95,4.85.01,0,.02,0,.03,0,.31.47,4.55.83,9.68.83,5.36,0,9.7-.4,9.7-.88,0-.01,0-.02-.01-.03.09-.1.02-.29.11-.38.44-1.58.87-3.18.79-4.79.11-2.32-1.07-4.63-3.18-6.54-1.89-1.87-4.31-3.66-4.95-5.9-.62-1.86-.08-3.76.57-5.59.28-1.02-.16-2.05-.41-3.05-1.15,0-2.29,0-3.44,0-.34.02-.7,0-1.06,0h0Z"/>
                    <ellipse id="ellipse6396" class="cls-1" cx="290.29" cy="147.06" rx="2.65" ry=".34"/>
                    <path id="ellipse6417" class="cls-1" d="M290.1,146.79c-.77.02-1.58.03-2.29.23-.12.06.08.1.15.12.75.18,1.57.18,2.36.19.79,0,1.6-.03,2.35-.2.07-.02.21-.08.07-.11-.64-.2-1.39-.2-2.09-.23-.18,0-.37,0-.55,0h0Z"/>
                    <g>
                      <path class="cls-2" d="M288.43,147.02c-.28,0-.53-.03-.78.03-.41,1.09-.62,2.28-.34,3.39.74,1.83,1.05,3.79.34,5.64-1.05,2.52-4.09,4.45-6,6.71-1.45,1.75-2.15,3.74-2,5.71.01,1.63.46,3.25.95,4.85.01,0,.02,0,.03,0,.31.47,4.55.83,9.68.83,5.36,0,9.7-.4,9.7-.88,0-.01,0-.02-.01-.03.09-.1.02-.29.11-.38.44-1.58.87-3.18.79-4.79.11-2.32-1.07-4.63-3.18-6.54-1.89-1.87-4.31-3.66-4.95-5.9-.62-1.86-.08-3.76.57-5.59.28-1.02-.16-2.05-.41-3.05-1.15,0-2.29,0-3.44,0-.34.02-.7,0-1.06,0h0Z"/>
                      <path class="cls-1" d="M288.43,147.02c-.28,0-.53-.03-.78.03-.41,1.09-.62,2.28-.34,3.39.74,1.83,1.05,3.79.34,5.64-1.05,2.52-4.09,4.45-6,6.71-1.45,1.75-2.15,3.74-2,5.71.01,1.63.46,3.25.95,4.85.01,0,.02,0,.03,0,.31.47,4.55.83,9.68.83,5.36,0,9.7-.4,9.7-.88,0-.01,0-.02-.01-.03.09-.1.02-.29.11-.38.44-1.58.87-3.18.79-4.79.11-2.32-1.07-4.63-3.18-6.54-1.89-1.87-4.31-3.66-4.95-5.9-.62-1.86-.08-3.76.57-5.59.28-1.02-.16-2.05-.41-3.05-1.15,0-2.29,0-3.44,0-.34.02-.7,0-1.06,0h0Z"/>
                    </g>
                    <g id="g6536">
                      <path id="path6534" class="cls-1" d="M300.83,166.73c-1.97.32-6.34.53-11.17.53-3.95,0-7.65-.14-9.95-.37-.01.07-.2.15-.21.22,0,.07.16.15.16.22,2.3.24,6.03.38,10,.38,4.87,0,9.27-.21,11.22-.54,0-.07.14-.13.13-.21,0-.07-.17-.16-.18-.24Z"/>
                      <path id="path6520" class="cls-1" d="M300.83,166.89c-1.97.32-6.34.53-11.17.53-3.95,0-7.65-.14-9.95-.37-.01.07-.2.15-.21.22,0,.07.16.15.16.22,2.3.24,6.03.38,10,.38,4.87,0,9.27-.21,11.22-.54,0-.07.14-.13.13-.21,0-.07-.17-.16-.18-.24Z"/>
                      <path id="ellipse6506" class="cls-1" d="M300.83,166.8c-1.97.32-6.34.53-11.17.53-3.95,0-7.65-.14-9.95-.37-.01.07-.2.15-.21.22,0,.07.16.15.16.22,2.3.24,6.03.38,10,.38,4.87,0,9.27-.21,11.22-.54,0-.07.14-.13.13-.21,0-.07-.17-.16-.18-.24Z"/>
                    </g>
                    <g id="g6542">
                      <path id="path6544" class="cls-1" d="M300.93,167.85c-1.99.32-6.4.53-11.28.53-3.99,0-7.73-.14-10.05-.37-.01.07-.2.15-.21.22,0,.07.16.15.16.22,2.32.24,6.08.38,10.1.38,4.92,0,9.36-.21,11.33-.54,0-.07.14-.13.13-.21,0-.07-.17-.16-.19-.24Z"/>
                      <path id="path6546" class="cls-1" d="M300.93,168c-1.99.32-6.4.53-11.28.53-3.99,0-7.73-.14-10.05-.37-.01.07-.2.15-.21.22,0,.07.16.15.16.22,2.32.24,6.08.38,10.1.38,4.92,0,9.36-.21,11.33-.54,0-.07.14-.13.13-.21,0-.07-.17-.16-.19-.24Z"/>
                      <path id="path6548" class="cls-1" d="M300.93,167.91c-1.99.32-6.4.53-11.28.53-3.99,0-7.73-.14-10.05-.37-.01.07-.2.15-.21.22,0,.07.16.15.16.22,2.32.24,6.08.38,10.1.38,4.92,0,9.36-.21,11.33-.54,0-.07.14-.13.13-.21,0-.07-.17-.16-.19-.24Z"/>
                    </g>
                    <g id="g6554">
                      <path id="path6556" class="cls-1" d="M298.48,161.91c-1.53.32-4.93.53-8.69.53-3.07,0-5.95-.14-7.74-.37,0,.07-.16.15-.16.22,0,.07.13.15.12.22,1.79.24,4.69.38,7.78.38,3.79,0,7.21-.21,8.73-.54,0-.07.11-.13.1-.21,0-.07-.13-.16-.14-.24Z"/>
                      <path id="path6558" class="cls-1" d="M298.48,162.07c-1.53.32-4.93.53-8.69.53-3.07,0-5.95-.14-7.74-.37,0,.07-.16.15-.16.22,0,.07.13.15.12.22,1.79.24,4.69.38,7.78.38,3.79,0,7.21-.21,8.73-.54,0-.07.11-.13.1-.21,0-.07-.13-.16-.14-.24Z"/>
                      <path id="path6560" class="cls-1" d="M298.48,161.97c-1.53.32-4.93.53-8.69.53-3.07,0-5.95-.14-7.74-.37,0,.07-.16.15-.16.22,0,.07.13.15.12.22,1.79.24,4.69.38,7.78.38,3.79,0,7.21-.21,8.73-.54,0-.07.11-.13.1-.21,0-.07-.13-.16-.14-.24Z"/>
                    </g>
                    <g id="g6566">
                      <path id="path6568" class="cls-1" d="M293.45,148.98c-.59.17-1.89.28-3.33.28-1.18,0-2.28-.07-2.97-.19,0,.04-.06.08-.06.12,0,.04.05.08.05.12.69.12,1.8.2,2.99.2,1.45,0,2.77-.11,3.35-.28,0-.04.04-.07.04-.11,0-.04-.05-.08-.06-.12Z"/>
                      <path id="path6570" class="cls-1" d="M293.45,149.06c-.59.17-1.89.28-3.33.28-1.18,0-2.28-.07-2.97-.19,0,.04-.06.08-.06.12,0,.04.05.08.05.12.69.12,1.8.2,2.99.2,1.45,0,2.77-.11,3.35-.28,0-.04.04-.07.04-.11,0-.04-.05-.08-.06-.12Z"/>
                      <path id="path6572" class="cls-1" d="M293.45,149.01c-.59.17-1.89.28-3.33.28-1.18,0-2.28-.07-2.97-.19,0,.04-.06.08-.06.12,0,.04.05.08.05.12.69.12,1.8.2,2.99.2,1.45,0,2.77-.11,3.35-.28,0-.04.04-.07.04-.11,0-.04-.05-.08-.06-.12Z"/>
                    </g>
                    <path id="path6580" class="cls-1" d="M293.41,149.52c-.58.17-1.87.28-3.3.28-1.17,0-2.26-.07-2.94-.19,0,.04-.06.08-.06.12,0,.04.05.08.05.12.68.12,1.78.2,2.95.2,1.44,0,2.74-.11,3.31-.28,0-.04.04-.07.04-.11,0-.04-.05-.08-.05-.12Z"/>
                    <path id="path6582" class="cls-1" d="M293.41,149.61c-.58.17-1.87.28-3.3.28-1.17,0-2.26-.07-2.94-.19,0,.04-.06.08-.06.12,0,.04.05.08.05.12.68.12,1.78.2,2.95.2,1.44,0,2.74-.11,3.31-.28,0-.04.04-.07.04-.11,0-.04-.05-.08-.05-.12Z"/>
                    <path id="path6584" class="cls-1" d="M293.41,149.56c-.58.17-1.87.28-3.3.28-1.17,0-2.26-.07-2.94-.19,0,.04-.06.08-.06.12,0,.04.05.08.05.12.68.12,1.78.2,2.95.2,1.44,0,2.74-.11,3.31-.28,0-.04.04-.07.04-.11,0-.04-.05-.08-.05-.12Z"/>
                  </g>
                </g>
              </g>
            </g>
          </g>
        </g>
      </g>
    </g>
  </g>
</svg>