<?xml version="1.0" encoding="UTF-8"?>
<svg id="Ceramic_x5F_bowl" xmlns="http://www.w3.org/2000/svg" viewBox="0 0 443.46 374.24">
  <defs>
    <style>
      .cls-1 {
        fill: #fff;
        fill-rule: evenodd;
        stroke: #075ca9;
        stroke-miterlimit: 10;
        stroke-width: .25px;
      }
    </style>
  </defs>
  <g id="svg2">
    <g id="layer1">
      <path id="path4193-0-6" class="cls-1" d="M267.97,169.03c.01,1.9,1.3,3.16,4.26,4.13,1.04.76,1.49,1.19,2.12,1.84.12.5.19,1.01.72,1.09,1.75.46,4.34.77,6.42.77,2.08,0,4.77-.3,6.3-.79.53-.08.66-.65.77-1.15.75-.74,1.1-1.14,2.32-1.87,2.58-.81,4.41-2.2,3.95-3.85-.13-1.92-6.06-3.5-13.45-3.5-7.39,0-13.44,1.42-13.42,3.32Z"/>
      <path id="path4391" class="cls-1" d="M274.03,168.66c.5.12.42.49.77.83.53.51,1.32,1.07,2.12,1.25,0,0-1.45.21-2.26.51-.2.07-.47.3-.48.51,0,.39.59.64.59.64,0,0-1.54-.42-2.26-.83-.36-.2-1.36-.9-1.16-1.59.29-1,2.68-1.34,2.68-1.34Z"/>
      <path id="path4372" class="cls-1" d="M272.65,173.23c.06.13,4.59,1.09,9.2,1.12,3.37.02,8.12-1.02,8.57-1.26-.45.57-.47.56-.76.81-2.46.69-4.25,1.1-7.82,1.13-2.93.02-5.54-.23-8.53-1.14-.22-.14-.61-.32-.68-.65Z"/>
      <path id="path4389" class="cls-1" d="M279.43,176.73c-.04-.43,1.82-.04,2.69-.68.26-.1,1.07-.02,2.26-.17.95-.12,1.98-.37,2.7-.53.61-.14,1.52-.6,1.63-.75-.09.53-.34.81-.51,1.22,0,0-.53.36-1.36.56-.92.22-2.18.29-2.9.37-1.42.17-4.36,0-4.51-.02h0Z"/>
      <g id="g4253">
        <path id="path4193" class="cls-1" d="M294.32,167.96c-1.59-1.08-4.05-1.61-5.84-1.9-2.35-.39-4.73-.47-7.11-.46-3.69.02-7.46.16-10.98,1.35-1.06.36-2.46.92-2.61,2.18-.16,1.37.98,2.38,2.08,3.08.7.44,1.13.65,1.89.97.69.38,1.03.67,1.56,1.03.47.32.79.59.93.92.07.27.04.67.21.83.63.61,4.79,1.08,7.24,1.07,2.51-.02,5.69-.4,6.53-1.01.44-.32.28-.45.43-.78.07-.27.38-.56.75-.91.56-.54.86-.71,1.41-1.06,1.49-.48,3.66-1.39,4.15-3.03.12-.38.12-.69.08-.91-.08-.55-.43-1.17-.71-1.36h0ZM289.34,168.63c-3.1-.72-5.33-.88-7.89-.99-2.28-.1-7.24.5-9.39,1.39-1.35.56-1.67,2.3,1.64,3.29-.24.04-2.79-.83-3.21-1.01-.92-.39-2.22-1.01-2.25-2.08-.03-1.1,1.38-1.68,2.3-1.96,3.38-1.01,7.16-1.4,10.86-1.39,3.58,0,7.39.35,10.81,1.5.92.31,2.22.75,2.31,1.93.01.15-.06.42-.12.52-.42.68-1.53,1.36-2.75,1.8-1.19.43-2.49.63-3.19.85.52-.21,1.58-.57,2.31-1.01.56-.34.88-.73.9-1.07.05-1.16-1.39-1.55-2.33-1.77h0ZM289.44,171.89c-2.1.73-4.8,1.22-7.69,1.2-4.09-.03-7.09-.46-9.01-1.47-.66-.35-1.38-.98-1.3-1.51.08-.49.97-.91,1.46-1.05,2.41-.68,5.51-1.14,8.54-1.1,2.69.03,6.34.5,8.6,1.21.65.21,1.22.53,1.29,1.09.09.69-1.07,1.35-1.89,1.64h0ZM294.77,169.9c0,.39-.54,1.26-1.21,1.72-1.03.7-2.4,1.16-3.31,1.38-2.73.67-5.62,1.15-8.43,1.16-1.37,0-4.22-.21-5.57-.41-2.98-.46-4.25-.86-6.22-1.89-.45-.23-1.32-1.04-1.48-1.3,1.24.92,3.33,1.74,5.4,2.15,2.1.42,4.45.87,7.85.86,2.8-.01,4.57-.21,8.65-1.27.76-.2,1.84-.52,2.74-1.01.65-.35,1.22-.88,1.58-1.38ZM289.86,173.51c-.16.15-.35.33-.77.64-.4.29-.62.51-.78.87-.21.47-.17.76-.42.84-1.53.43-4.45.81-6.14.81-2.08,0-4.77-.27-6.74-.8-.64-.1-.26-.73-.53-1.03-.16-.18-.24-.37-.8-.76-.45-.3-.54-.43-.91-.64,1.64.46,2.86.67,4.45.84,2.96.3,5.95.37,8.9-.07,1.47-.22,2.28-.37,3.73-.7ZM275.26,175.17c.02.3,1.44.58,2.06.69,1.11.19,2.98.32,4.11.3,1-.02,2.01-.07,3-.23.88-.14,2.37-.35,3.07-.71-.51.07-1.95.32-2.65.43-1.38.21-3.64.28-5.04.24-1.54-.05-3.01-.26-4.55-.72h0Z"/>
      </g>
      <path id="path4330" class="cls-1" d="M281.52,170.37c-2.16.02-4.36.09-6.45.66-.3.08-.72.2-.9.46-.18.26-.05.45.13.51-.12-.18-.08-.32.03-.43.22-.22.74-.33.97-.39,2.29-.59,4.73-.69,7.09-.63,1.98.04,4.02.2,5.93.74.19.05.6.24.67.44.08-.05.15-.04.09-.21-.14-.16-.38-.31-.63-.38-1.85-.49-3.77-.67-5.67-.75-.43-.02-.87-.02-1.25-.02h0Z"/>
    </g>
  </g>
</svg>