<?xml version="1.0" encoding="UTF-8"?>
<svg id="Crack_in_wall" data-name="Crack in wall" xmlns="http://www.w3.org/2000/svg" viewBox="0 0 517.82 380.35">
  <defs>
    <style>
      .cls-1 {
        fill: #1d5caa;
        stroke-width: 0px;
      }

      .cls-2 {
        fill: none;
        stroke: #1d5caa;
        stroke-linecap: round;
        stroke-linejoin: round;
        stroke-width: .27px;
      }
    </style>
  </defs>
  <path class="cls-2" d="m179.1,168.86c.56-.42,0-.92.22-1.58.11-.31.17-.65.34-.94.22-.39.6-.69.77-1.11.18-.46.06-.96.02-1.45-.04-.49.04-1.06.46-1.32"/>
  <path class="cls-2" d="m179.54,166.37c-.3-.37-.62-.8-.57-1.28.02-.17.09-.35.05-.52-.05-.26-.37-.43-.62-.33-.09-.07-.08-.22-.02-.33.06-.1.15-.19.19-.3.09-.29-.22-.53-.46-.72-.37-.29-.66-.7-.7-1.17-.02-.27.04-.54.04-.82,0-.55-.23-1.06-.47-1.56"/>
  <path class="cls-1" d="m178.94,168.99c-.31-.02-.63-.05-.91-.19-.2-.1-.37-.26-.59-.32-.18-.05-.37-.03-.55-.07-.52-.12-.98-.74-1.45-.49-.16.08-.26.25-.43.32-.19.07-1.39-.21-1.57-.29-1.2-.57.01-.93-1.08-1.69-.18.07-.46.16-.36.32s-.82.38-.88.56c-.12.32-.61.11-.93.22-.2.07-.32.27-.48.39-.38.3-.93.19-1.39.07-.07-.02-.14-.04-.22-.02-.25.04-.31.38-.5.54-.14.12-.34.13-.52.13-.56.01-1.12.03-1.65-.15-.18-.06-.35-.14-.54-.16-.22-.02-.44.05-.66.01-.3-.06-.51-.31-.77-.49-.25-.17-.66-.23-.82.03-.13.21,0,.5-.11.72-.11.24-.42.3-.67.25-.25-.05-.48-.18-.74-.24-.45-.09-.91.08-1.34.25-.43.17-.86.34-1.29.51"/>
</svg>