<?xml version="1.0" encoding="UTF-8"?>
<svg id="Layer_1" xmlns="http://www.w3.org/2000/svg" xmlns:xlink="http://www.w3.org/1999/xlink" viewBox="0 0 518.22 373.77">
  <defs>
    <style>
      .cls-1 {
        fill: none;
      }

      .cls-2 {
        fill: #075ca9;
      }

      .cls-3 {
        fill: #fff;
      }

      .cls-4 {
        clip-path: url(#clippath);
      }
    </style>
    <clipPath id="clippath">
      <polygon class="cls-1" points="0 373.77 518.22 373.24 518.22 0 0 .53 0 373.77"/>
    </clipPath>
  </defs>
  <g class="cls-4">
    <path class="cls-3" d="M230.02,102.4s.33-.11.41.17.08.5.03.75c-.06.25-.22.28-.39.39-.17.11-.64.57-.78,1.35-.14.77-.05,1.89.06,2.94s.39,1.8.61,2.3.61,1.05.61,1.05c0,0,.02.34-.08.55-.15.3-.32.21-.32.21,0,0-1.04-1.57-1.31-2.81-.28-1.24-.44-1.94-.44-3.29s.29-1.97.68-2.61c.39-.64.93-.99.93-.99"/>
    <path d="M230.18,102.87l-.04-.13.03.13h.02s-.04-.13-.04-.13l.03.13h0s0,0,0,0h0s0,0,0,0h0s0-.19,0-.19l-.1.17.1.03v-.2l-.1.17.12-.21-.24.07.12.14.12-.21-.24.07c.03.12.04.21.05.29l-.02.22.49.1-.49-.12h0s.1.05.1.05l-.08-.07-.02.03.1.04-.08-.07.06.05-.05-.06h-.01s.06.06.06.06l-.05-.06s-.08.04-.2.12c-.16.11-.35.28-.54.56-.19.28-.38.65-.46,1.12h0c-.06.32-.08.68-.08,1.05,0,.65.06,1.36.13,2.03.12,1.11.42,1.92.65,2.45.25.57.65,1.12.66,1.14l.41-.29-.5.03h0s0,.04,0,.04l-.03.26.45.21-.45-.22v.03s.19.16.19.16v-.24c-.1,0-.2.07-.2.08l.2.16v-.24.37l.17-.33-.17-.05v.37l.17-.33-.23.44.42-.28-.04-.06c-.19-.29-1-1.63-1.2-2.58h0c-.28-1.25-.43-1.87-.43-3.18,0-.64.07-1.08.17-1.43.1-.35.25-.62.43-.92.16-.27.36-.48.52-.63l.19-.16.05-.04h.01s-.03-.04-.03-.04l.02.04h0s-.03-.04-.03-.04l.02.04-.54-.84s-.63.41-1.09,1.15c-.2.33-.4.7-.54,1.16-.14.46-.22,1.01-.21,1.72,0,1.39.17,2.17.45,3.4h0c.16.7.5,1.43.8,2,.3.57.57.97.58.98l.07.11.11.06s.14.07.3.07c.12,0,.28-.04.41-.13.13-.09.22-.22.3-.36h0s0,0,0,0c.13-.3.12-.55.13-.69v-.1s-.01-.14-.01-.14l-.08-.12-.06-.08c-.11-.16-.36-.56-.5-.88-.21-.47-.47-1.16-.57-2.15-.07-.66-.13-1.34-.13-1.92,0-.33.02-.64.06-.87h0c.06-.31.18-.56.3-.73.12-.17.25-.29.26-.29.04-.03.13-.06.27-.16.14-.1.29-.31.34-.53h0s0-.02,0-.02c.03-.13.04-.27.04-.42,0-.18-.03-.37-.08-.57-.05-.19-.19-.36-.34-.45-.16-.09-.3-.1-.4-.1-.17,0-.27.04-.3.05l.32.95Z"/>
    <path class="cls-3" d="M237.36,99.98s.33-.12.41.17c.08.29.08.52.03.79-.06.26-.22.29-.39.41-.17.11-.64.6-.78,1.42-.14.82-.05,1.99.06,3.09.11,1.11.39,1.89.61,2.41.22.52.61,1.11.61,1.11,0,0,.02.36-.08.58-.15.32-.32.22-.32.22,0,0-1.04-1.65-1.31-2.96-.28-1.31-.44-2.04-.44-3.46s.29-2.07.68-2.74c.39-.67.93-1.04.93-1.04"/>
    <path d="M237.53,100.45l-.05-.13.03.13h.02s-.05-.13-.05-.13l.03.13v-.02s0,.02,0,.02h0s0-.02,0-.02v.02-.21l-.11.18.11.03v-.21l-.11.18.12-.2-.24.06.11.14.12-.2-.24.06c.03.13.05.22.05.31,0,.08,0,.15-.03.25l.49.09-.49-.11h0s.08.05.08.05l-.07-.06-.02.02.08.03-.07-.06.05.04-.04-.05h0s.05.05.05.05l-.04-.05s-.08.05-.21.13l.29.41-.27-.42c-.18.12-.35.3-.55.59-.19.29-.37.68-.45,1.17-.06.34-.08.71-.08,1.1,0,.68.06,1.42.13,2.12.12,1.17.42,2.01.65,2.56.25.58.65,1.18.65,1.19l.42-.28-.5.03h0s0,.05,0,.05l-.04.3.46.21-.45-.21-.02.03.15.11-.09-.16-.06.05.15.11-.09-.16.15.28v-.32l-.15.04.15.28v-.32.38l.19-.32-.19-.05v.38l.19-.32-.25.43.42-.27-.04-.07c-.19-.31-1-1.71-1.2-2.73h0s0,0,0,0c-.28-1.32-.43-1.97-.43-3.36,0-.68.07-1.14.17-1.51.11-.37.25-.65.44-.97.16-.28.37-.51.53-.66l.19-.17.05-.04h.01s-.02-.04-.02-.04l.02.03h0s-.02-.03-.02-.03l.02.03-.57-.82s-.63.43-1.08,1.2c-.2.35-.4.73-.53,1.2-.14.48-.21,1.05-.21,1.79,0,1.46.17,2.26.45,3.56h0c.15.73.5,1.5.8,2.09.3.6.57,1.02.58,1.03l.06.1.1.06s.15.08.32.08c.13,0,.3-.05.42-.15.13-.1.22-.23.29-.38h0s0,0,0,0c.13-.3.12-.56.13-.71v-.1s0-.14,0-.14l-.07-.11-.06-.09c-.11-.18-.36-.6-.51-.94-.21-.49-.47-1.21-.57-2.26-.07-.69-.13-1.41-.13-2.02,0-.35.02-.68.06-.93.06-.33.18-.6.3-.79.06-.09.12-.17.17-.22l.06-.06h.02s0-.02,0-.02h0s0-.01,0-.01c.04-.03.12-.06.26-.17.14-.1.29-.32.33-.54h0s0-.02,0-.02c.03-.14.04-.28.04-.43,0-.19-.03-.38-.08-.58-.05-.18-.18-.36-.33-.45-.16-.09-.3-.11-.41-.11-.18,0-.29.04-.32.05l.34.94Z"/>
    <path class="cls-3" d="M211.96,120.49s.29-.1.36.14c.07.24.07.43.02.64-.05.21-.19.24-.33.33-.14.1-.55.49-.67,1.16-.12.66-.04,1.62.06,2.52.1.9.33,1.55.52,1.97.19.43.52.9.52.9,0,0,.02.29-.07.48-.13.26-.27.18-.27.18,0,0-.89-1.35-1.13-2.42s-.38-1.66-.38-2.83.25-1.69.58-2.24c.33-.55.8-.85.8-.85"/>
    <path d="M212.12,120.96l-.03-.09v.1h.03s-.03-.1-.03-.1v.1-.24l-.12.2.12.04v-.24l-.12.2.14-.24-.28.08.14.16.14-.24-.28.08c.03.09.04.16.04.22l-.02.17.1.02-.09-.06-.02.03.1.02-.09-.06.14.09-.11-.13-.03.03.14.09-.11-.13.03.04-.03-.04h0s.03.04.03.04l-.03-.04s-.07.04-.16.1h-.01s-.01.01-.01.01c-.13.09-.29.24-.46.49-.17.24-.33.58-.41.99h0c-.05.28-.07.58-.07.89,0,.57.06,1.18.12,1.77.11.96.35,1.66.56,2.12h0c.22.49.56.97.57.98l.41-.29-.5.03h.15s-.15,0-.15,0h0s.15,0,.15,0h-.15s0,.05,0,.05v.12s-.02.07-.02.07l.45.21-.45-.22h0s.06.05.06.05l-.05-.05h0s.06.05.06.05l-.05-.05.23.22v-.3c-.1,0-.21.06-.23.09l.23.22v-.3.4l.2-.34-.2-.05v.4l.2-.34-.25.43.42-.28-.03-.05c-.16-.25-.85-1.4-1.03-2.2-.24-1.08-.37-1.59-.37-2.72,0-.55.06-.92.15-1.21.09-.29.21-.51.36-.77.13-.22.3-.4.43-.52l.16-.13.04-.03h0s-.06-.1-.06-.1l.06.1h0s-.06-.1-.06-.1l.06.1-.54-.84s-.56.36-.96,1.01c-.17.29-.34.6-.46,1-.12.4-.19.88-.19,1.5,0,1.21.15,1.88.39,2.94.14.62.44,1.24.7,1.74.26.49.49.84.5.85l.07.1.1.06s.15.08.3.08c.12,0,.28-.04.39-.13.12-.09.2-.2.27-.34h0s0,0,0,0c.12-.27.12-.49.12-.62v-.11s-.01-.14-.01-.14l-.08-.11-.05-.07c-.09-.14-.31-.47-.42-.74h0s0,0,0,0c-.17-.38-.38-.98-.48-1.82-.06-.57-.12-1.16-.12-1.66,0-.28.02-.52.05-.72h0c.05-.25.14-.45.25-.6.1-.14.21-.24.22-.25l-.29-.41.27.42s.1-.05.23-.14c.13-.09.27-.29.31-.49.03-.13.05-.26.05-.4,0-.16-.03-.33-.08-.5-.05-.17-.18-.34-.33-.42-.15-.08-.28-.1-.38-.1-.17,0-.26.04-.29.05l.33.95Z"/>
    <polyline points="214.89 119.55 216.65 120.35 216.79 120.05 215.03 119.25"/>
    <polygon points="216.9 123.42 216.89 120.28 258.44 109.25 258.36 108.93 216.68 119.99 216.55 120.15 216.56 123.42 216.9 123.42"/>
    <path class="cls-3" d="M258.43,114.78s-4.22.35-8.09.86c-3.87.51-42.99,10.12-43.99,10.36-1.14.28-1.06.61-1.06.61,0,0-.03.32-.05,1.18-.02,1.06.69,1.38.69,1.38l3.73,1.98,21.35,3.85,41.66-5.85"/>
    <path d="M258.39,114.28s-4.23.35-8.11.86c-.52.07-1.55.28-3,.59-10.11,2.19-40.17,9.57-41.04,9.78h0c-.54.13-.87.28-1.09.46-.23.17-.35.43-.35.62l.02.13.49-.12-.5-.05s-.03.35-.05,1.22h0s0,.06,0,.06c0,.63.22,1.09.46,1.37.24.28.48.4.52.42l.21-.46-.23.44,3.8,2.02,21.51,3.88,41.74-5.86-.14-.99-41.58,5.84-21.19-3.82-3.68-1.95h-.01s-.12.25-.12.25l.13-.26h-.01s-.12.26-.12.26l.13-.26h-.01s-.14-.1-.22-.23c-.09-.13-.17-.33-.17-.65v-.03s0,0,0,0c0-.43.02-.72.03-.9,0-.09,0-.15.01-.19v-.05s.01-.08.01-.08l-.02-.08-.43.1h.44v-.1s-.44.1-.44.1h.44-.31l.28.15.03-.15h-.31l.28.15-.14-.08.13.1.02-.02-.14-.08.13.1h-.01s.01,0,.01,0h0s-.01-.01-.01-.01h.01s.2-.15.73-.28h0c.5-.12,10.53-2.58,20.92-5.08,5.19-1.25,10.48-2.5,14.7-3.48,2.11-.49,3.96-.91,5.4-1.22,1.44-.31,2.47-.52,2.92-.57,1.93-.25,3.94-.47,5.48-.62,1.54-.15,2.58-.24,2.59-.24l-.08-1Z"/>
    <path d="M258.42,114.61s-4.22.35-8.1.86c-1.96.26-12.69,2.79-23.09,5.28-10.39,2.5-20.42,4.96-20.92,5.08h0c-.51.13-.8.26-.97.4-.17.13-.22.28-.22.36v.05s.17-.04.17-.04l-.17-.02s-.03.33-.05,1.19v.05c0,1.11.76,1.48.79,1.49l.07-.15-.08.15,3.73,1.98.05.02,21.35,3.85h.05s41.66-5.85,41.66-5.85l-.05-.34-41.63,5.85-21.3-3.84-3.71-1.97h0s-.02-.01-.02-.01c-.1-.06-.57-.35-.57-1.17v-.04c.01-.43.02-.72.03-.91,0-.19.02-.26.02-.26v-.06s-.11.03-.11.03h.11v-.03s-.11.03-.11.03h.11-.03.03s0,0,0,0h-.03.03s.01-.05.14-.13c.13-.08.37-.2.79-.3h0c.5-.12,10.53-2.58,20.92-5.08,10.38-2.5,21.15-5.03,23.05-5.28,1.93-.25,3.95-.47,5.49-.62,1.54-.15,2.59-.24,2.59-.24l-.03-.34Z"/>
    <polyline points="205.83 129.2 248.93 119.86 248.85 119.52 205.75 128.86"/>
    <polyline points="209.69 131.33 252.86 123.02 252.8 122.68 209.63 130.99"/>
    <path d="M248.93,115.72s-.75.45-.75,1.73c0,.11,0,.22.02.33h0c.06.73.14,1.18.35,1.56.21.38.51.66.99,1.07,1.35,1.18,3.12,2.56,3.12,2.56l.05.03,19.93,6.32.15-.02.07-.14v-1.71h-.34v1.48l-19.71-6.25-.05.16.1-.13s-.44-.34-1.05-.83c-.61-.49-1.38-1.13-2.05-1.71-.48-.42-.75-.67-.91-.98-.17-.31-.25-.7-.31-1.43h0c0-.11-.01-.21-.01-.31,0-.57.16-.93.3-1.15.07-.11.15-.18.2-.23l.06-.05h.01s0-.01,0-.01l-.17-.3Z"/>
    <polyline points="227.13 134.45 268.76 128.12 268.7 127.78 227.07 134.11"/>
    <polyline class="cls-3" points="228.74 134.01 212.84 131.14 251.82 123.85 266.6 128.3"/>
    <polygon points="228.77 133.84 213.78 131.14 251.81 124.02 266.55 128.46 266.65 128.14 251.87 123.69 251.79 123.68 212.81 130.97 212.67 131.14 212.81 131.31 228.71 134.18 228.77 133.84"/>
    <polyline points="229.43 128.23 245.35 131.67 245.43 131.33 229.51 127.89"/>
    <polyline points="232.89 133.57 236.33 134.4 236.41 134.06 232.97 133.23"/>
    <polyline points="260.49 129.39 264.11 130.52 264.21 130.2 260.59 129.07"/>
    <polygon class="cls-3" points="258.42 63.94 258.43 123.66 316.68 112.43 316.75 35.43 258.42 63.94"/>
    <polygon points="258.42 63.94 257.92 63.94 257.93 124.27 317.18 112.84 317.25 34.63 257.92 63.63 257.92 63.94 258.42 63.94 258.64 64.39 316.25 36.23 316.18 112.02 258.93 123.05 258.92 63.94 258.42 63.94 258.64 64.39 258.42 63.94"/>
    <polygon points="258.42 63.94 258.25 63.94 258.26 123.66 258.32 123.79 258.46 123.83 316.71 112.6 316.85 112.43 316.92 35.43 316.84 35.29 316.68 35.28 258.35 63.79 258.25 63.94 258.42 63.94 258.49 64.09 316.58 35.7 316.51 112.29 258.6 123.45 258.59 63.94 258.42 63.94 258.49 64.09 258.42 63.94"/>
    <polyline points="338.01 86.85 338.02 117.76 338.36 117.76 338.35 86.85"/>
    <path class="cls-3" d="M310.57,97.47s.33-.13.41.21c.08.34.08.61.02.91-.06.3-.22.34-.39.47s-.65.69-.8,1.63-.07,2.3.03,3.58c.1,1.28.37,2.19.58,2.8.22.61.6,1.29.6,1.29,0,0,.02.41-.09.67-.15.37-.32.26-.32.26,0,0-1.02-1.92-1.28-3.44-.26-1.52-.42-2.36-.41-4.01.01-1.65.31-2.39.71-3.16.39-.77.94-1.2.94-1.2"/>
    <path d="M310.75,97.94l-.04-.11v.12h.04s-.04-.12-.04-.12v.12-.23l-.13.19.13.04v-.23l-.13.19.14-.2-.21.13.07.07.14-.2-.21.13.1-.06-.12.03.02.04.1-.06-.12.03c.04.15.05.27.05.39,0,.1-.01.2-.03.31v.04s.03.02.03.02l-.04-.03h0s.04.03.04.03l-.04-.03h0s-.09.06-.19.14c-.16.13-.34.33-.54.66-.19.32-.37.76-.45,1.29-.07.41-.09.88-.09,1.37,0,.74.05,1.55.11,2.33.1,1.33.39,2.29.61,2.92h0s0,0,0,0c.24.67.63,1.35.63,1.36l.44-.24-.5.02h0s0,.05,0,.05c0,.1-.02.34-.05.4h0s0,0,0,0l-.03.06.05.03-.04-.04h0s.05.04.05.04l-.04-.04.22.22v-.3c-.1,0-.2.06-.22.08l.22.22v-.3.39l.21-.33s-.11-.06-.21-.07v.39l.21-.33-.27.42.44-.23-.04-.08c-.19-.37-.99-2-1.19-3.21-.25-1.49-.4-2.26-.4-3.78v-.14c.02-1.6.28-2.19.65-2.93h0s0,0,0,0c.17-.33.38-.6.54-.78l.2-.2.05-.05h.01s-.01-.03-.01-.03v.02s.01,0,.01,0v-.02s0,.02,0,.02l-.62-.79s-.63.5-1.08,1.37l.45.23-.44-.23c-.42.8-.76,1.69-.77,3.39v.15c0,1.59.17,2.48.42,3.95.29,1.65,1.32,3.57,1.33,3.59l.06.11.11.07s.16.09.33.1c.15,0,.33-.06.45-.18.12-.11.21-.25.27-.41l-.46-.19.46.19c.13-.33.13-.63.13-.79v-.1s0-.12,0-.12l-.06-.1-.06-.11c-.11-.21-.36-.69-.51-1.11l-.47.17.47-.16c-.2-.59-.46-1.45-.55-2.68-.06-.77-.11-1.55-.11-2.25,0-.46.02-.88.08-1.21.06-.4.2-.72.33-.95.13-.22.27-.37.28-.37.04-.04.13-.08.27-.2.14-.12.26-.34.3-.57.03-.17.05-.33.05-.51,0-.2-.03-.4-.08-.62-.04-.19-.15-.38-.32-.49-.16-.11-.33-.13-.44-.13-.18,0-.29.05-.32.06l.37.93Z"/>
    <path d="M162.29,98.36v.17s26.3-.48,26.3-.48l-.04,38.03-26.14.04.05-37.76h-.17s0,.17,0,.17v-.17s-.17,0-.17,0l-.05,37.93.05.12.12.05,26.48-.04c.09,0,.17-.08.17-.17l.04-38.37-.05-.12-.12-.05-26.47.48c-.09,0-.17.08-.17.17h.17Z"/>
    <polyline points="162.19 99.67 188.68 99.13 188.68 98.79 162.19 99.33"/>
    <polyline points="162.3 116.88 188.72 116.53 188.72 116.19 162.3 116.54"/>
    <polygon points="188.72 117.16 162.41 117.61 162.24 117.77 162.38 117.95 178.13 120.99 178.22 120.98 187.48 117.53 187.36 117.21 178.15 120.64 164.04 117.92 188.72 117.5 188.72 117.16"/>
    <polygon points="162.53 99.64 178.1 103.72 178.22 103.71 187.39 99.13 187.23 98.83 178.12 103.38 162.61 99.32 162.53 99.64"/>
    <polyline points="177.97 103.56 177.97 116.4 178.31 116.4 178.31 103.56"/>
    <polyline points="177.99 120.82 177.99 135.14 178.33 135.14 178.33 120.82"/>
    <polyline points="162.25 135.51 188.66 135.43 188.66 135.09 162.25 135.17"/>
    <polygon points="162.23 136.46 181.14 137.67 181.18 137.67 215.22 132.52 215.16 132.18 181.14 137.33 162.25 136.12 162.23 136.46"/>
    <polyline points="69.27 128.36 109.51 132.46 109.55 132.12 69.31 128.02"/>
    <polyline points="429.77 287.17 518.11 317.13 518.21 316.81 429.87 286.85"/>
    <polygon points="1.81 42.28 164.15 91.79 164.21 91.8 188.76 90.97 188.83 90.95 516.64 -75.93 516.48 -76.23 188.71 90.63 164.22 91.46 1.91 41.96 1.81 42.28 1.81 42.28"/>
    <polyline points="164.03 91.63 164.01 98.2 164.35 98.2 164.37 91.63"/>
    <polyline points="188.58 90.8 188.58 97.88 188.92 97.88 188.92 90.8"/>
    <polygon points="243.28 186.45 314.76 196.2 314.86 196.18 338.1 183.24 338.1 186.78 314.64 200.39 243.47 190.24 243.47 186.46 273.54 178.09 273.44 177.77 243.25 186.17 243.13 186.33 243.13 190.39 243.28 190.56 314.65 200.74 314.76 200.72 338.36 187.03 338.44 186.88 338.44 182.95 338.36 182.8 338.19 182.8 314.75 195.85 243.32 186.11 243.28 186.45"/>
    <polyline points="314.59 196.03 314.58 203.96 314.92 203.96 314.93 196.03"/>
    <polyline points="245.46 190.81 245.58 264.22 245.92 264.22 245.8 190.81"/>
    <polyline points="314.58 203.44 314.63 293.43 314.97 293.43 314.92 203.44"/>
    <polyline points="338.15 186.47 338.5 272.38 338.84 272.38 338.49 186.47"/>
    <polyline points="245.61 213.73 314.74 229.27 314.82 228.93 245.69 213.39"/>
    <polyline points="245.69 238.91 314.64 262.02 314.74 261.7 245.79 238.59"/>
    <polyline points="125.48 188.4 125.6 256.9 125.94 256.9 125.82 188.4"/>
    <polyline points="171.29 182.53 171.15 243.35 171.49 243.35 171.63 182.53"/>
    <polyline points="186.4 181.07 186.35 238.96 186.69 238.96 186.74 181.07"/>
    <polyline points="185.01 178.32 185.01 180.82 185.35 180.82 185.35 178.32"/>
    <polygon points="272.36 178.31 272.36 172 273.46 171.53 273.32 171.21 272.12 171.73 272.02 171.89 272.02 178.31 272.36 178.31"/>
    <polyline points="272.21 171.74 234.43 169.28 234.41 169.62 272.19 172.08"/>
    <path d="M243.14,186.29v2.9l-40.56-6.03-.03-2.18,31.9-5.78.14-.17v-5.51s.86-.23.86-.23l37.8,2.19v6.36h.34v-6.52c0-.09-.07-.16-.16-.17l-37.99-2.2h-.05s-1.02.28-1.02.28l-.13.16v5.5s-31.89,5.78-31.89,5.78l-.14.17.03,2.47.14.17,40.9,6.08.14-.04.06-.13v-3.1h-.34Z"/>
    <polyline points="202.45 180.9 243.27 186.47 243.31 186.13 202.49 180.56"/>
    <polygon points="203.2 183.41 203.2 193.06 203.34 193.23 242.82 200.96 242.96 200.92 243.02 200.79 243.02 189.23 242.68 189.23 242.68 200.58 203.54 192.92 203.54 183.41 203.2 183.41"/>
    <polyline points="243.52 190.53 243.82 263.49 244.16 263.49 243.86 190.53"/>
    <polygon points="242.82 201.58 242.85 201.41 203.63 193.61 203.49 193.65 203.43 193.78 203.54 234.74 203.65 234.9 243.04 249.58 243.2 249.56 243.27 249.42 242.99 201.58 242.85 201.41 242.82 201.58 242.65 201.58 242.93 249.17 203.88 234.62 203.77 193.99 242.79 201.75 242.82 201.58 242.65 201.58 242.82 201.58"/>
    <path d="M207.16,198.81l-.04.17,29.22,6.99.04-.17-.09.15h.02c.12.1.64.51.64,1.34v.02c0,.48-.2.94-.39,1.27-.1.17-.19.3-.27.4-.07.09-.12.14-.12.14l.12.12.04-.16-28.99-7.48-.04.16.11-.13-.02-.02c-.09-.09-.49-.54-.49-1.36v-.14c.03-.53.13-.83.21-.99l.1-.15.02-.02-.03-.04.02.04h0s-.03-.04-.03-.04l.02.04.09-.15h0s-.17,0-.17,0l-.04.17.04-.17h-.17s.17,0,.17,0l-.08-.15c-.07.03-.44.3-.5,1.43v.16c0,1.07.6,1.61.62,1.63l.07.04,28.99,7.48.17-.05s.85-.9.87-2.03v-.02c0-1.13-.8-1.62-.82-1.63l-.05-.02-29.22-6.99-.14.03-.06.13h.17Z"/>
    <path d="M210.05,199.57s-.21.5-.21,1.25v.16c.04.83.31,1.54.31,1.55l.32-.12-.04-.11c-.07-.22-.23-.75-.25-1.32v-.14c0-.34.04-.62.09-.82.02-.1.05-.17.06-.22l.03-.07-.31-.13Z"/>
    <path d="M231.97,204.73s-.55.67-.55,1.73v.03c.01,1.28.23,1.61.26,1.66l.27-.2-.08.06.08-.05h0s-.08.05-.08.05l.08-.05s-.05-.07-.1-.29c-.05-.22-.1-.59-.1-1.17v-.03c0-.47.12-.85.24-1.11.06-.13.12-.23.16-.3l.05-.08.02-.02-.26-.21Z"/>
    <path d="M236.24,205.7s-.55.83-.55,1.86v.16c.07,1.08.46,1.59.48,1.61l.26-.21h0c-.06-.1-.34-.54-.39-1.41v-.14c0-.46.12-.88.25-1.18.06-.15.13-.28.17-.36l.07-.13-.28-.19Z"/>
    <polygon points="235.46 205.72 236.69 205.34 237.58 205.51 237.94 206.4 237.04 206.7 236.93 206.91 237.14 207.02 238.22 206.67 238.32 206.58 238.33 206.45 237.86 205.3 237.73 205.19 236.71 204.99 236.63 205 235.36 205.4 235.25 205.61 235.46 205.72"/>
    <polyline points="237.65 205.2 236.24 205.67 236.13 205.88 236.34 205.99 237.75 205.52 237.86 205.31 237.65 205.2"/>
    <polygon points="209.35 199.44 210.5 199.08 211.32 199.24 211.61 199.96 211.83 200.06 211.93 199.84 211.6 199.03 211.47 198.92 210.52 198.73 210.44 198.74 209.25 199.12 209.14 199.33 209.35 199.44"/>
    <polyline points="211.39 198.93 210.07 199.37 209.96 199.58 210.17 199.69 211.49 199.25 211.6 199.04 211.39 198.93"/>
    <path d="M208.51,207.32h-.17s-.04,18.4-.04,18.4h.17s-.17,0-.17,0c0,0,0,.07,0,.19,0,.27.02.78.16,1.29.14.51.4,1.04.93,1.29.3.14,1.98.76,4.36,1.63,7.13,2.6,20.45,7.35,20.45,7.35l.06-.16-.08.15s.32.18.7.19c.23,0,.49-.08.68-.31.19-.24.3-.6.3-1.15v-21.65h-.17.17s0,0,0,0c0-.08,0-.45-.23-.87-.22-.42-.66-.87-1.46-1.05h0c-.79-.18-6.87-1.82-12.74-3.42-2.94-.8-5.82-1.58-7.97-2.17-2.15-.59-3.57-.97-3.57-.97l-.04.16.06-.16s-.29-.1-.61-.1c-.2,0-.44.04-.61.21-.29.3-.31.74-.32,1,0,.12,0,.2,0,.2l.17-.02v-.17s0,0,0,0c-.09,0-.17.08-.17.17h.17s0,.17,0,.17h0s.13-.06.13-.06l.04-.13s0-.06,0-.17c0-.22.05-.59.22-.75.07-.08.21-.11.37-.11.12,0,.25.02.35.04.1.02.15.04.15.04h.01s22.68,6.19,24.3,6.56h0c.72.16,1.06.53,1.24.87.18.34.19.67.19.71h0s0,0,0,0v21.65c0,.51-.1.79-.22.94-.12.15-.26.19-.42.19-.13,0-.27-.04-.37-.07l-.12-.05-.04-.02h-.03s-1.48-.54-3.72-1.34c-3.36-1.2-8.42-3.01-12.74-4.57-2.16-.78-4.14-1.5-5.63-2.05-1.49-.55-2.5-.93-2.69-1.02-.39-.18-.62-.6-.75-1.07-.13-.46-.15-.95-.15-1.2,0-.11,0-.17,0-.17h0s.04-18.41.04-18.41h-.17s0,.17,0,.17v-.17Z"/>
    <path d="M203.98,246.37l-.13-10.37,39.07,14.66v12.42c0,.09.08.17.17.17s.17-.08.17-.17v-12.54l-.11-.16-39.41-14.79-.16.02-.07.14.13,10.62c0,.09.08.17.17.17.09,0,.17-.08.17-.17Z"/>
    <polyline points="327.29 119.16 327.29 182.04 327.63 182.04 327.63 119.16"/>
    <path class="cls-3" d="M267.23,206.29s.52-.61,1.14-.09c.37.31,1.24,1.21,2.32,1.53,1.08.32,3.56,1.02,6.03,1.22,2.48.2,4.44.16,4.44.16,0,0,.64.15.92.52.37.49-.07.67-.07.67,0,0-5.08.09-7.64-.43-2.56-.52-4.49-1-5.71-1.96-.86-.67-1.42-1.63-1.42-1.63"/>
    <path d="M267.61,206.61l-.11-.09.1.1h0s-.11-.1-.11-.1l.1.1.1-.08.14-.05s.08,0,.2.09c.16.13.49.45.91.78.43.32.96.66,1.59.85,1.09.32,3.6,1.03,6.13,1.24,1.79.14,3.31.16,4.03.16.29,0,.45,0,.46,0v-.5s-.12.49-.12.49h.01s.18.06.32.12c.14.06.27.16.31.21l.05.08h0s0,0,0,0h0s0,0,0,0h0s.12-.02.12-.02h-.12v.02s.12-.02.12-.02h-.12.17l-.12-.13-.05.13h.17l-.12-.13.09.1-.05-.12-.04.02.09.1-.05-.12.19.46v-.5s-.34,0-.88,0c-1.55,0-4.85-.05-6.66-.43-2.55-.51-4.43-1.01-5.5-1.86h0c-.38-.3-.71-.68-.94-.98-.12-.15-.21-.28-.27-.37l-.07-.11-.02-.03-.86.5s.59,1.02,1.54,1.77h0c1.37,1.06,3.35,1.53,5.92,2.06,1.99.4,5.28.44,6.86.45.55,0,.88,0,.89,0h.09s.09-.04.09-.04c.03-.01.14-.06.26-.17.12-.11.27-.32.27-.61,0-.23-.1-.46-.25-.66-.24-.3-.53-.45-.77-.56-.24-.1-.42-.14-.44-.15h-.06s-.06-.01-.06-.01c0,0-.15,0-.44,0-.71,0-2.2-.02-3.95-.16-2.41-.19-4.86-.88-5.93-1.2-.45-.13-.89-.4-1.27-.69-.37-.28-.66-.57-.88-.75-.26-.22-.56-.33-.84-.33-.32,0-.57.13-.73.24-.16.11-.25.22-.27.24l.76.65Z"/>
    <path class="cls-3" d="M267.03,231.63s.56-.58,1.19-.04c.37.32,1.09,1.15,2.13,1.67,1.36.68,3.64,1.51,6.2,1.82,2.56.31,4.81,0,4.81,0,0,0,.65.18.93.56.37.51-.1.67-.1.67,0,0-4.82.27-7.45-.37s-5.08-1.63-6.3-2.64c-.86-.71-1.41-1.69-1.41-1.69"/>
    <path d="M267.39,231.98l-.11-.1.1.11h0s-.11-.11-.11-.11l.1.11s.18-.13.27-.12c.05,0,.11,0,.24.11h0c.15.13.44.43.81.76.38.33.85.69,1.42.98,1.41.7,3.73,1.55,6.36,1.87.88.11,1.72.14,2.44.14,1.46,0,2.48-.14,2.49-.14l-.07-.5-.13.48h.01s.19.07.33.14c.14.07.28.17.32.24h0s.05.08.05.08h0s.12-.02.12-.02h-.12v.02s.12-.02.12-.02h-.12.18l-.11-.14-.06.14h.18l-.11-.14.07.09-.04-.1-.04.02.07.09-.04-.1.16.47-.03-.5s-.25.01-.66.03c-.42.01-1,.03-1.67.03-1.58,0-3.63-.08-4.98-.41-2.58-.62-5-1.62-6.1-2.54-.38-.32-.71-.71-.94-1.02-.11-.16-.2-.29-.26-.39l-.07-.11-.02-.03-.87.49s.58,1.04,1.53,1.83c1.34,1.1,3.82,2.08,6.5,2.74,1.51.37,3.6.44,5.21.44,1.36,0,2.38-.06,2.38-.06h.07s.06-.03.06-.03c.03-.01.14-.05.28-.16.13-.1.31-.33.3-.63,0-.23-.09-.45-.24-.65h0s0,0,0,0c-.23-.31-.53-.46-.76-.58-.24-.11-.42-.16-.44-.17l-.1-.03h-.1s-.05.02-.17.03c-.33.04-1.15.11-2.19.11-.7,0-1.5-.03-2.32-.13-2.49-.3-4.73-1.12-6.04-1.77-.47-.23-.87-.54-1.21-.84-.34-.3-.6-.57-.82-.76h0c-.28-.24-.6-.36-.89-.35-.31,0-.55.11-.71.21-.16.1-.26.19-.28.21l.72.69Z"/>
    <path class="cls-3" d="M267.21,258.38s.6-.54,1.19.05c.35.35,1,1.23,2,1.83,1.31.78,3.52,1.77,6.05,2.28,2.53.5,4.79.37,4.79.37,0,0,.64.22.89.63.33.54-.15.66-.15.66,0,0-4.82-.09-7.4-.92-2.58-.83-4.94-2-6.09-3.1-.8-.77-1.28-1.79-1.28-1.79"/>
    <path d="M267.54,258.75l-.11-.13.11.13h0s-.11-.13-.11-.13l.11.13s.17-.11.26-.1c.06,0,.12,0,.25.13.14.14.41.46.75.82.35.36.79.76,1.34,1.09h0c1.36.81,3.61,1.82,6.21,2.34h0c1.71.34,3.29.39,4.17.4.46,0,.73-.02.74-.02l-.03-.5-.16.47h.01s.18.08.31.16c.14.08.26.19.3.26l.04.08h0s.08,0,.08,0h-.08,0s.08,0,.08,0h-.08.18l-.11-.15-.07.15h.18l-.11-.15.07.09-.03-.11-.04.02.07.09-.03-.11.12.49v-.5s-.28,0-.77-.03c-1.46-.06-4.65-.28-6.48-.87-2.53-.81-4.86-1.98-5.9-2.99h0c-.36-.34-.66-.76-.86-1.09-.1-.16-.18-.31-.24-.4l-.06-.11-.02-.03-.9.43s.5,1.08,1.39,1.94h0c1.26,1.2,3.65,2.36,6.28,3.22,1.37.44,3.23.66,4.78.79,1.54.13,2.76.15,2.76.15h.07s.06-.01.06-.01c.04-.01.16-.04.31-.15.15-.1.34-.35.34-.66,0-.21-.07-.41-.19-.6-.21-.33-.49-.51-.72-.65-.23-.13-.41-.19-.43-.2l-.09-.03h-.1s-.06,0-.18.01c-.12,0-.29,0-.51,0-.84,0-2.36-.06-3.98-.38h0c-2.46-.49-4.63-1.47-5.89-2.22h0c-.45-.27-.83-.61-1.14-.93-.32-.32-.55-.62-.76-.83-.28-.29-.65-.43-.96-.42-.57.01-.88.33-.92.35l.67.74Z"/>
    <path class="cls-3" d="M119.72,194.39s-.45-.67.02-1.11c.47-.45.97.16,1.05,1.13s.16,4.09.14,5.29c-.02,1.2-.08,3.28-.22,3.99s-.36,1.14-.67,1.26c-.3.12-.53-.2-.67-.49-.14-.28-.1-.59.02-.65.12-.06.4.13.51-.3.14-.61.26-.77.28-4.5s-.47-4.62-.47-4.62"/>
    <path d="M120.14,194.11l-.05.03.05-.03h0s-.05.03-.05.03l.05-.03s-.12-.23-.11-.34l.06-.13h0s0,0,0,0l.02-.02h0s-.05-.1-.05-.1v.1h.05s-.05-.1-.05-.1v.1-.13l-.05.12h.05s0-.12,0-.12l-.05.12.02-.06-.03.06h0s.02-.06.02-.06l-.03.06h0c.07.05.25.38.27.83.07.83.14,3.43.14,4.81,0,.16,0,.31,0,.43,0,.6-.03,1.41-.06,2.16-.03.75-.09,1.45-.15,1.74-.06.32-.15.57-.22.71-.08.15-.14.18-.14.18h0s0,0,0,0l.06.14v-.15h-.06s.06.15.06.15v-.15.15l.07-.13-.07-.02v.15l.07-.13h0s0,0,0,0h0s0,0,0,0h0s-.11-.13-.17-.26h0s0,0,0,0l-.04-.14v-.02s-.13-.02-.13-.02l.11.06.02-.04-.13-.02.11.06-.31-.17.15.31c.1-.05.14-.11.15-.14l-.31-.17.15.31-.15-.3v.34s.05,0,.15-.04l-.15-.3v.34h.03s.1,0,.1,0c.1,0,.3-.02.47-.15.17-.13.27-.32.32-.52h0s0-.01,0-.01c.06-.28.15-.54.2-1.15.05-.61.09-1.59.1-3.46v-.22c0-3.59-.47-4.51-.53-4.64l-.88.48.24-.13-.25.12h0s.24-.12.24-.12l-.25.12s.03.05.06.19c.12.4.35,1.52.35,3.98v.22c-.01,1.86-.05,2.82-.09,3.38-.05.56-.1.68-.17,1.01l.49.11-.48-.12v.03s0,0,0,0l.2.11-.1-.2-.1.09.2.11-.1-.2.11.22-.04-.24-.06.02.11.22-.04-.24.02.11v-.11h-.02s.02.11.02.11v-.11h-.13c-.06,0-.16,0-.3.06-.2.1-.28.25-.32.37-.05.12-.06.24-.06.36,0,.19.04.39.14.59l.45-.22-.45.22c.07.15.17.32.31.47.14.15.36.32.68.33.11,0,.22-.02.31-.06l-.19-.46.18.47c.31-.12.52-.37.66-.64.14-.28.24-.6.32-.99.08-.42.13-1.11.16-1.88.04-.77.06-1.59.07-2.19,0-.13,0-.28,0-.45,0-1.41-.07-3.99-.14-4.89-.04-.43-.14-.81-.32-1.13-.09-.16-.2-.3-.35-.41-.15-.11-.34-.2-.56-.2-.26,0-.5.12-.67.29l.35.36-.34-.37c-.27.25-.38.59-.37.86.01.52.26.85.28.89l.83-.56Z"/>
    <path class="cls-3" d="M130.78,193.08s-.46-.63,0-1.06.97.14,1.07,1.06.22,3.88.22,5.01-.03,3.11-.17,3.79c-.13.67-.35,1.08-.65,1.2-.3.12-.53-.18-.67-.45-.15-.27-.11-.56,0-.61.12-.06.41.12.5-.3.13-.58.25-.73.22-4.27-.03-3.54-.53-4.37-.53-4.37"/>
    <path d="M131.18,192.79l-.22.16.22-.16h0s-.22.16-.22.16l.22-.16-.06-.11-.05-.19.05-.1.02-.02h0s-.04-.09-.04-.09v.09h.04s-.04-.09-.04-.09v.09-.11l-.04.1h.04s0-.1,0-.1l-.04.1v-.04s0,.04,0,.04h0s.01-.04.01-.04l-.02.04.04.04c.09.09.21.37.25.73.1.87.22,3.86.22,4.96,0,.56,0,1.33-.03,2.05-.02.71-.07,1.38-.13,1.64h0s0,0,0,0c-.06.3-.14.53-.21.66-.08.14-.13.17-.13.17l.05.13v-.14h-.05s.05.14.05.14v-.14.14l.06-.12h-.06s0,.12,0,.12l.06-.12h0s0,0,0,0h0s0,0,0,0h0s-.1-.12-.16-.23h0s0-.01,0-.01l-.03-.11h0s-.19-.04-.19-.04l.16.1.03-.06-.19-.03.16.1-.31-.19.14.33c.1-.04.15-.11.17-.15l-.31-.19.14.33h.02s.02-.01.02-.01l-.14-.28v.32s.04,0,.14-.04l-.14-.28v.32h.11c.1,0,.29,0,.47-.14.18-.13.28-.34.32-.54h0c.05-.23.12-.46.17-.92.04-.46.07-1.16.07-2.45,0-.3,0-.64,0-1.01-.03-3.59-.53-4.49-.6-4.62l-.86.52.25-.15-.26.14h0s.25-.14.25-.14l-.26.14s.03.05.07.18c.13.39.38,1.5.4,3.95,0,.37,0,.7,0,1,0,1.28-.03,1.95-.07,2.35-.04.4-.08.51-.15.8h0s0,0,0,0v.02s.1.04.1.04l-.09-.07-.02.03.11.04-.09-.07.21.16-.09-.25-.12.09.21.16-.09-.25.07.2-.03-.21h-.04s.07.21.07.21l-.03-.21v.1s0-.1,0-.1h0s.01.1.01.1v-.1s0,0,0,0h-.11c-.06,0-.16,0-.31.06l.22.45-.19-.46c-.2.09-.3.24-.35.36-.05.12-.07.24-.07.36,0,.2.05.4.16.6l.44-.24-.44.23c.07.14.17.3.31.45.14.14.36.3.67.3.11,0,.22-.02.32-.06.3-.12.5-.36.64-.62.14-.27.24-.58.31-.95l-.49-.1.49.1c.08-.41.12-1.07.15-1.81.03-.73.03-1.51.03-2.08,0-1.16-.12-4.1-.22-5.06-.05-.41-.16-.78-.34-1.08-.09-.15-.21-.28-.35-.39-.15-.11-.34-.18-.55-.18-.25,0-.49.12-.66.28-.26.24-.37.57-.36.83.01.53.28.85.3.89l.81-.59Z"/>
    <path class="cls-3" d="M175.35,186.36s-.45-.51,0-.86c.46-.35.97.11,1.07.86.09.75.21,3.15.2,4.07,0,.92-.04,2.53-.18,3.08-.13.55-.35.88-.65.98-.3.1-.53-.15-.68-.36-.14-.22-.11-.45,0-.5s.41.1.5-.24c.14-.47.25-.6.23-3.47s-.52-3.55-.52-3.55"/>
    <path d="M175.72,186.03l-.11.1.12-.09h0s-.11.09-.11.09l.12-.09-.05-.08-.02-.05v-.02h-.06l.05.03v-.03s-.05,0-.05,0l.05.03h-.03s.02,0,.02,0h0s-.03-.02-.03-.02l.02.02.02-.02-.31-.39.3.4.03-.02v-.02s0,.02,0,.02h0s0-.02,0-.02v.02-.03.03s0,0,0,0v-.03.03s.02.02.02.02c.07.05.19.24.23.53l.5-.07-.5.06c.08.67.2,2.94.2,3.89v.11s0,0,0,0h0c0,.46,0,1.08-.04,1.66-.02.57-.08,1.11-.13,1.3h0s0,0,0,0c-.06.24-.13.4-.19.5-.07.1-.11.11-.13.12l.02.07v-.07h-.02s.02.07.02.07v-.07.07l.03-.07h-.03s0,.07,0,.07l.03-.07-.06-.04-.11-.13-.41.29.42-.27v-.03s-.02,0-.02,0h-.06s.06,0,.06,0h0s-.06,0-.06,0h.06-.21l.18.09.02-.09h-.21l.18.09-.31-.15.13.32c.1-.04.16-.12.18-.16l-.31-.15.13.32-.14-.33.05.35.09-.03-.14-.33.05.35-.02-.16v.16h.02s-.02-.16-.02-.16v.16h.12c.09,0,.26,0,.43-.11.18-.11.3-.31.35-.49l-.48-.13.48.14c.06-.19.14-.41.18-.82.05-.41.07-1.02.07-2.16,0-.2,0-.41,0-.64-.02-2.92-.52-3.7-.62-3.84l-.81.59.27-.2-.28.18v.02s.28-.2.28-.2l-.28.18h0s.42.8.43,3.27c0,.23,0,.44,0,.63,0,1.12-.03,1.71-.06,2.05-.04.34-.07.4-.15.65h0s0,.01,0,.01h0s.21.07.21.07l-.1-.19-.11.12.21.07-.1-.19.11.21-.04-.23-.07.03.11.21-.04-.23.02.1v-.1s-.02,0-.02,0l.02.1v-.1s-.01,0-.01,0h-.12c-.06,0-.14,0-.27.05-.16.07-.27.2-.33.32-.06.12-.08.24-.08.35,0,.19.06.38.17.56h0s0,.02,0,.02c.08.11.18.24.32.36.14.12.36.24.63.24.1,0,.2-.02.29-.05.28-.09.5-.29.65-.52.15-.23.26-.51.33-.82l-.49-.12.48.12c.09-.36.13-.9.16-1.5.03-.6.04-1.24.04-1.7h-.5.5s0-.12,0-.12c0-1.03-.11-3.25-.2-4.01h0s0,0,0,0c-.05-.36-.17-.68-.37-.94-.19-.25-.5-.47-.87-.47-.23,0-.45.08-.63.22h0s0,0,0,0c-.26.19-.4.51-.39.77,0,.26.09.45.16.58.08.13.15.21.16.23l.75-.66Z"/>
    <polygon points="164.17 174.59 181.76 177.7 86.54 187.63 73.21 181.82 73.07 182.14 86.44 187.96 86.53 187.97 183 177.91 183.15 177.75 183.01 177.57 164.23 174.25 164.17 174.59"/>
    <polygon points="139.52 179.06 139.47 179.22 145.71 181.26 145.78 181.27 165.65 179.19 165.8 179.03 165.66 178.85 157.81 177.23 157.76 177.23 139.5 178.89 139.35 179.04 139.47 179.22 139.52 179.06 139.54 179.23 157.77 177.57 164.52 178.97 145.78 180.93 139.57 178.9 139.52 179.06 139.54 179.23 139.52 179.06"/>
    <path d="M135.37,179.62v2.58h.34v-2.58h-.34ZM135.54,179.62l-.06.16,4.88,1.74-36.46,3.76-4.49-1.96,36.14-3.53-.02-.17-.06.16.06-.16-.02-.17-36.79,3.59-.15.14.1.18,5.13,2.24h.09s37.25-3.83,37.25-3.83l.15-.15-.11-.18-5.59-1.99h-.07s.02.16.02.16Z"/>
    <polyline points="157.61 177.4 157.61 179.73 157.95 179.73 157.95 177.4"/>
    <rect class="cls-2" x="144.62" y="173.17" width=".73" height="1.97"/>
    <polygon points="144.62 173.17 144.62 173.67 144.85 173.67 144.85 174.64 144.62 174.64 144.62 175.14 145.12 175.14 145.12 173.17 144.62 173.17 144.62 173.67 144.62 173.17 144.12 173.17 144.12 175.64 145.35 175.64 145.85 175.64 145.85 172.67 144.62 172.67 144.12 172.67 144.12 173.17 144.62 173.17"/>
    <polygon points="144.62 173.16 144.62 173.33 145.18 173.33 145.18 174.96 144.79 174.96 144.79 173.16 144.62 173.16 144.62 173.33 144.62 173.16 144.45 173.16 144.45 175.13 144.5 175.25 144.62 175.3 145.35 175.3 145.47 175.25 145.52 175.13 145.52 173.16 145.47 173.04 145.35 172.99 144.62 172.99 144.5 173.04 144.45 173.16 144.62 173.16"/>
    <path class="cls-2" d="M144.45,174.75h1.18s.28.07.35.37c.07.3.07,1.01.25,1.34s.49.81.6.88.21.39.14.51-1,.35-1.87.37c-.86.02-1.71-.16-1.92-.26-.21-.1-.21-.39-.14-.49.07-.11.46-.21.57-.41.11-.19.32-.9.35-1.43s.05-.71.16-.78c.11-.07.33-.11.33-.11"/>
    <path d="M144.45,175.25h1.18v-.5l-.12.49.04-.17-.07.16h.02s.04-.16.04-.16l-.07.16h.01s0,0,0,0h0s0,0,0,0h0s0,0,0,0c.02.07.04.34.07.61.04.28.07.57.22.86.1.18.23.39.35.58.06.09.12.18.18.25.07.08.1.14.24.23l.15-.24-.24.16.09.08.15-.24-.24.16h0s.01.04.01.04v.02s.01,0,.01,0h-.01s.01,0,.01,0h-.01.29l-.24-.14c-.05.09-.04.13-.04.14h.29l-.24-.14.3.18-.17-.32s-.03,0-.13.14l.3.18-.17-.32s-.08.03-.18.06c-.31.09-.89.19-1.4.2h-.12c-.37,0-.75-.04-1.04-.09-.15-.02-.28-.05-.37-.08l-.12-.03h-.03s0-.01,0-.01l-.08.18.18-.09-.09-.09-.08.18.18-.09-.08.04h.09v-.04s-.09.04-.09.04h.09-.22l.17.12c.06-.1.04-.11.05-.12h-.22l.17.12h0s0-.02,0-.02l-.28-.18.2.26.08-.09-.28-.18.2.26-.05-.07.05.07h0s-.05-.07-.05-.07l.05.07s.12-.06.24-.13c.12-.08.29-.16.43-.4l-.44-.24.43.25c.06-.1.09-.2.14-.31.12-.35.25-.86.28-1.34.01-.26.03-.43.04-.5v-.03s-.17-.05-.17-.05l.15.1.02-.05-.17-.05.15.1-.27-.18.17.27.09-.09-.27-.18.17.27-.05-.07.04.08h0s-.05-.08-.05-.08l.04.08.1-.03h.05s.01-.01.01-.01l-.18-.98s-.08.01-.17.04c-.09.03-.2.05-.34.14-.11.07-.2.17-.24.27-.07.15-.09.27-.11.41-.02.14-.03.29-.04.49-.01.21-.07.5-.13.74-.03.12-.07.23-.1.32l-.04.11v.03s-.02,0-.02,0h0s0,0,0,0l.14.08-.12-.12-.03.04.14.08-.12-.12h0s-.1.07-.19.12l-.16.09c-.06.04-.13.08-.22.21l.42.27-.41-.29c-.11.17-.13.31-.13.45,0,.13.02.26.09.41.07.14.2.29.37.37.11.05.21.08.34.11.39.1,1,.2,1.66.2h.15c.47-.01.95-.08,1.33-.16.19-.04.36-.09.5-.13l.2-.09c.07-.04.14-.06.26-.24.08-.15.09-.26.09-.36,0-.16-.04-.29-.09-.42-.06-.13-.1-.25-.31-.4l-.17.27.21-.24-.04-.03-.17.27.21-.24-.04.05.05-.05h0s-.04.05-.04.05l.05-.05s-.12-.15-.21-.29c-.09-.14-.19-.31-.26-.44-.03-.04-.08-.27-.11-.5-.03-.24-.04-.49-.09-.71-.07-.29-.25-.49-.4-.59-.15-.11-.28-.14-.31-.15h-.06s-1.24-.01-1.24-.01v1Z"/>
    <path class="cls-3" d="M144.45,174.75h1.18s.28.07.35.37c.07.3.07,1.01.25,1.34s.49.81.6.88.21.39.14.51-1,.35-1.87.37c-.86.02-1.71-.16-1.92-.26-.21-.1-.21-.39-.14-.49.07-.11.46-.21.57-.41.11-.19.32-.9.35-1.43s.05-.71.16-.78c.11-.07.33-.11.33-.11h0Z"/>
    <path d="M144.45,174.75v.17h1.18v-.17l-.04.16h0s.19.07.22.24c.03.12.05.38.08.64.03.26.07.53.19.74.09.17.22.38.33.55l.17.23.16.16h0s0,0,0,0h0s0,0,0,0h0s.09.26.09.26v.03s0,0,0,0h.03s-.03,0-.03,0h0s.03.02.03.02l-.03-.02.07.04-.05-.07-.02.03.07.04-.05-.07s-.08.04-.19.08c-.33.1-.97.22-1.56.23h-.13c-.39,0-.78-.04-1.1-.09-.31-.05-.55-.12-.62-.15l-.08-.17v-.05s.01-.01.01-.01h0s0,0,0,0l-.04-.02.03.03h0s-.04-.03-.04-.03l.03.03s.12-.07.24-.13c.12-.07.26-.14.35-.29l-.15-.08.15.09c.07-.13.15-.35.22-.63.07-.28.13-.59.15-.88.01-.26.03-.44.05-.54l.03-.09h0s.16-.07.16-.07l.11-.03-.03-.17h-.17s0,0,0,0l.05.12.12.05v-.17h.17s0,0,0,0l-.06-.13-.14-.04s-.23.03-.39.13c-.11.07-.16.2-.19.33-.03.14-.04.32-.05.58-.01.25-.07.55-.14.81-.07.26-.15.48-.19.55h0s-.12.12-.23.17c-.12.07-.23.09-.33.23l.14.09-.14-.1c-.06.08-.07.17-.07.27,0,.16.07.37.28.48.13.06.38.12.71.18.33.05.73.1,1.15.1h.14c.45-.01.91-.08,1.27-.15.18-.04.34-.08.46-.12l.16-.07.13-.11.05-.2c0-.1-.03-.2-.06-.3-.04-.09-.08-.18-.18-.25h0s-.14-.17-.24-.32c-.1-.16-.22-.34-.3-.49-.07-.12-.12-.37-.15-.62-.03-.25-.05-.5-.09-.68-.05-.2-.17-.33-.27-.4-.1-.07-.19-.09-.2-.1h-.04s-1.18,0-1.18,0v.17h.17s-.17,0-.17,0Z"/>
    <path d="M143.13,177.54s.59.26,1.42.29h.25c1.2,0,2.08-.33,2.09-.33l-.12-.32s-.05.02-.14.05c-.29.09-.97.27-1.83.27h-.23c-.38-.02-.71-.09-.94-.15-.11-.03-.21-.06-.27-.08l-.09-.04-.14.31Z"/>
    <path class="cls-2" d="M134.96,175.53s.19-2.37,1.4-4.14c1.21-1.77,3.24-2.67,4.3-2.98,1.07-.31,2.82-.36,3.74.1.92.45,1.23,1.25,1.3,1.63s.07,2.34.07,2.34v1.03s-.4.07-.78.09c-.38.02-.71-.07-.71-.07l-.02-2.8s-.09-1.2-1.54-1.1c-1.44.1-2.89.59-4.07,1.59-1.18.99-1.75,2.34-1.96,3s-.24,1.35-.24,1.35"/>
    <path d="M135.46,175.57v-.09c.05-.44.34-2.39,1.31-3.81,1.1-1.62,3.04-2.5,4.03-2.78h0c.46-.13,1.1-.22,1.72-.22.66,0,1.31.1,1.66.29h0s0,0,0,0c.37.18.61.43.77.67.16.24.23.48.26.6,0,.03.02.23.03.46.03.69.03,1.79.03,1.79v1.03h.5l-.09-.49s-.09.02-.23.03c-.14.02-.32.04-.49.05h-.09c-.13,0-.25-.01-.34-.03l-.1-.02h-.02s0,0,0,0l-.13.48h.5s-.02-2.82-.02-2.82v-.02s-.03-.4-.28-.79c-.13-.19-.32-.4-.59-.54-.27-.15-.61-.24-1-.23h-.2c-1.53.11-3.08.63-4.36,1.71h0c-1.29,1.09-1.88,2.51-2.12,3.23-.23.74-.26,1.46-.26,1.48l1,.04v-.1c.02-.2.08-.69.22-1.12.19-.6.73-1.88,1.8-2.77h0s0,0,0,0c1.09-.92,2.43-1.38,3.78-1.47h.13c.25,0,.41.05.52.11.16.09.25.22.3.34l.05.15v.04s.04,0,.04,0h-.04s.04,0,.04,0h-.04s.5-.03.5-.03h-.5s.02,3.18.02,3.18l.37.1s.33.09.73.09h.14c.42-.03.83-.1.84-.1l.41-.07v-1.45s0-.49,0-1.04c0-.27-.01-.56-.02-.8-.01-.25-.02-.44-.05-.6-.05-.26-.16-.61-.41-.97-.24-.37-.62-.75-1.17-1.01h0c-.6-.29-1.35-.39-2.1-.39-.71,0-1.42.09-2,.26h0s0,0,0,0c-1.13.34-3.25,1.26-4.57,3.18-1.3,1.92-1.48,4.34-1.49,4.38l1,.08Z"/>
    <path class="cls-3" d="M134.96,175.53s.19-2.37,1.4-4.14c1.21-1.77,3.24-2.67,4.3-2.98,1.07-.31,2.82-.36,3.74.1.92.45,1.23,1.25,1.3,1.63s.07,2.34.07,2.34v1.03s-.4.07-.78.09c-.38.02-.71-.07-.71-.07l-.02-2.8s-.09-1.2-1.54-1.1c-1.44.1-2.89.59-4.07,1.59-1.18.99-1.75,2.34-1.96,3s-.24,1.35-.24,1.35"/>
    <path d="M135.13,175.54s.01-.14.05-.39c.11-.74.44-2.38,1.32-3.67,1.17-1.72,3.17-2.61,4.21-2.91.5-.14,1.16-.23,1.81-.23.69,0,1.37.1,1.8.32h0c.86.42,1.14,1.17,1.21,1.51.03.16.05.75.06,1.28,0,.54,0,1.02,0,1.02v1.03h.17l-.03-.17s-.39.07-.76.09h-.1c-.15,0-.29-.01-.39-.03-.1-.02-.16-.03-.16-.03l-.04.16h.17s-.02-2.8-.02-2.8h0s-.02-.33-.23-.65c-.2-.32-.62-.63-1.31-.63h-.18c-1.47.11-2.96.61-4.17,1.64h0c-1.22,1.02-1.8,2.4-2.01,3.08-.22.69-.25,1.39-.25,1.39h.34s0-.15.04-.4c.03-.25.09-.58.19-.89.2-.64.76-1.96,1.91-2.92h0c1.15-.97,2.56-1.45,3.97-1.55h.16c.6,0,.87.24,1.03.47.08.12.12.24.15.33l.02.11v.03s.17-.01.17-.01h-.17s.02,2.8.02,2.8l.13.16s.29.08.64.08h.12c.39-.02.8-.09.8-.1l.14-.17v-1.03s0-.49,0-1.03c0-.54-.02-1.12-.06-1.34-.08-.42-.41-1.27-1.39-1.75h0c-.52-.26-1.23-.36-1.96-.36-.68,0-1.37.09-1.91.25-1.09.32-3.14,1.23-4.39,3.05-1.24,1.82-1.43,4.21-1.43,4.22l.34.03Z"/>
    <path d="M144.3,172.58s-.28-.12-.57-.12c-.12,0-.25.02-.37.09h0c-.24.15-.39.38-.38.63,0,.1.02.2.06.29h0c.15.35.5.46.74.46.16,0,.29-.08.41-.14.11-.07.19-.13.2-.13l-.21-.27s-.07.05-.16.11l-.23.1c-.15,0-.36-.08-.42-.25l-.16.07.16-.06-.03-.16c0-.12.05-.22.23-.34l-.09-.14.09.14.18-.04c.1,0,.21.02.3.05l.14.05.13-.31Z"/>
    <path d="M145.8,172.93s.79-.05,1.18-.14h0c.2-.05.45-.17.68-.28.11-.05.22-.1.31-.14l.15-.06h0l.11.09c.06.08.11.21.14.4v.09c0,.16-.04.27-.09.34l-.07.07h-.01s.03.08.03.08v-.08h-.03s.03.08.03.08v-.08.04-.04s0,0,0,0v.04-.04s-.18-.05-.34-.1c-.17-.05-.36-.09-.53-.1v.17s0-.17,0-.17c-.33-.02-1.55-.03-1.55-.03v.34s1.22.01,1.53.03h0c.12,0,.32.05.48.1l.23.07.18.04.19-.07c.15-.11.3-.34.3-.69v-.13c-.03-.24-.11-.43-.21-.56-.1-.13-.23-.23-.39-.23h-.04c-.08.02-.15.05-.25.09-.27.12-.71.34-.93.4h0c-.16.04-.45.08-.69.1-.24.02-.43.04-.43.04l.02.34Z"/>
    <path d="M147.97,172.02s-.19.21-.19.63v.19c.06.54.31.76.34.78l.22-.26h0s0,0,0,0h0s0,0,0,0h0s-.17-.17-.21-.56v-.15c0-.16.02-.26.05-.32l.03-.05h0s-.23-.25-.23-.25Z"/>
    <rect class="cls-3" x="134.77" y="176.41" width="1.81" height="1.7"/>
    <polygon points="134.77 176.41 134.77 176.91 136.08 176.91 136.08 177.61 135.27 177.61 135.27 176.41 134.77 176.41 134.77 176.91 134.77 176.41 134.27 176.41 134.27 178.61 137.08 178.61 137.08 175.91 134.27 175.91 134.27 176.41 134.77 176.41"/>
    <polygon points="134.77 176.41 134.77 176.58 136.41 176.58 136.41 177.94 134.94 177.94 134.94 176.41 134.77 176.41 134.77 176.58 134.77 176.41 134.6 176.41 134.6 178.11 134.65 178.23 134.77 178.28 136.58 178.28 136.7 178.23 136.75 178.11 136.75 176.41 136.7 176.29 136.58 176.24 134.77 176.24 134.65 176.29 134.6 176.41 134.77 176.41"/>
    <path class="cls-2" d="M137.3,179.11s-.63.13-1.62.13-1.63-.13-1.63-.13v-1.21s1.05.09,1.64.09,1.61-.09,1.61-.09v1.21Z"/>
    <path d="M137.3,179.11l-.1-.49h-.02c-.11.02-.67.12-1.5.12-.47,0-.86-.03-1.13-.06-.13-.02-.24-.03-.31-.04h-.08s-.02-.02-.02-.02l-.1.49h.5v-1.21h-.5l-.04.5s1.05.09,1.68.09c.63,0,1.65-.09,1.65-.09l-.04-.5h-.5v1.21h.5l-.1-.49.1.49h.5v-1.76l-.54.05s-.25.02-.57.04c-.32.02-.72.04-.99.04-.27,0-.68-.02-1.01-.04-.33-.02-.59-.04-.59-.04l-.54-.05v2.16l.4.08s.7.14,1.73.14c1.03,0,1.7-.14,1.72-.14l.4-.08v-.41h-.5Z"/>
    <path class="cls-3" d="M137.3,179.11s-.63.13-1.62.13-1.63-.13-1.63-.13v-1.21s1.05.09,1.64.09,1.61-.09,1.61-.09v1.21Z"/>
    <path d="M137.3,179.11l-.03-.17s-.15.03-.42.06c-.28.03-.67.06-1.16.06s-.89-.03-1.17-.06c-.28-.03-.43-.06-.43-.06l-.03.17h.17v-1.21h-.17v.17s1.04.09,1.64.09c.6,0,1.62-.09,1.62-.09v-.17h-.18v1.21h.17l-.03-.17.03.17h.17v-1.21l-.06-.13-.13-.04s-1.02.09-1.6.09c-.58,0-1.62-.09-1.63-.09l-.13.04-.06.13v1.21l.14.17s.66.13,1.66.13c1,0,1.65-.13,1.65-.13l.14-.17h-.17Z"/>
    <path class="cls-2" d="M136.77,176.43s-.43.11-1.1.11-1.1-.11-1.1-.11v-1.02s.71.07,1.11.07,1.09-.07,1.09-.07v1.02h0Z"/>
    <path d="M136.77,176.43l-.12-.48h0c-.06.02-.43.09-.97.09-.31,0-.56-.03-.73-.05l-.19-.03h-.05s0-.01,0-.01l-.12.48h.5v-1.02h-.5l-.05.5s.71.07,1.16.07c.45,0,1.13-.07,1.14-.07l-.05-.5h-.5v1.52h.5v-.5l-.12-.48.12.48v-.5h0v.5h.5v-1.57l-.55.06s-.17.02-.38.03c-.22.02-.48.03-.66.03-.17,0-.45-.02-.67-.03-.22-.02-.39-.03-.39-.03l-.55-.05v1.96l.38.1s.5.13,1.22.13c.72,0,1.19-.12,1.22-.13l3.85-.98h-3.97v.5Z"/>
    <path class="cls-3" d="M136.77,176.43s-.43.11-1.1.11-1.1-.11-1.1-.11v-1.02s.71.07,1.11.07,1.09-.07,1.09-.07v1.02h0Z"/>
    <path d="M136.77,176.43l-.04-.16-.07.02c-.14.03-.5.09-.99.09-.33,0-.59-.03-.78-.05-.18-.03-.28-.05-.28-.05l-.04.16h.17v-1.02h-.17l-.02.17s.71.07,1.13.07c.42,0,1.1-.07,1.11-.07l-.02-.17h-.17v1.02l.05.12.12.05h0v-.17l-.04-.16.04.16v-.17h0v.17h.17v-1.02l-.06-.13-.13-.04s-.69.07-1.07.07c-.38,0-1.09-.07-1.09-.07l-.13.04-.06.13v1.02l.13.16s.45.12,1.14.12c.69,0,1.13-.11,1.14-.12l.13-.19-.17-.15v.17Z"/>
    <rect class="cls-3" x="125.07" y="175.1" width=".73" height="1.97"/>
    <polygon points="125.07 175.1 125.07 175.6 125.3 175.6 125.3 176.57 125.07 176.57 125.07 177.07 125.57 177.07 125.57 175.1 125.07 175.1 125.07 175.6 125.07 175.1 124.57 175.1 124.57 177.57 125.8 177.57 126.3 177.57 126.3 174.6 125.07 174.6 124.57 174.6 124.57 175.1 125.07 175.1"/>
    <polygon points="125.07 175.1 125.07 175.27 125.63 175.27 125.63 176.9 125.24 176.9 125.24 175.1 125.07 175.1 125.07 175.27 125.07 175.1 124.9 175.1 124.9 177.07 124.95 177.19 125.07 177.24 125.8 177.24 125.92 177.19 125.97 177.07 125.97 175.1 125.92 174.98 125.8 174.93 125.07 174.93 124.95 174.98 124.9 175.1 125.07 175.1"/>
    <path class="cls-2" d="M124.9,176.61h1.24s.29.07.37.37c.07.3.07,1.01.26,1.34.18.33.52.81.63.88s.22.39.15.51-1.05.35-1.96.37c-.9.02-1.79-.16-2.01-.26-.22-.11-.22-.39-.15-.49.07-.11.48-.21.59-.41.11-.19.33-.9.37-1.43s.06-.71.17-.78c.11-.07.35-.1.35-.1"/>
    <path d="M124.9,177.11h1.24v-.5l-.12.49.03-.14-.05.14h.02s.03-.14.03-.14l-.05.14h.02s0,.02,0,.02l.48-.13-.49.11c.02.07.04.34.08.61.04.28.07.57.24.87l.43-.25-.44.24c.1.19.24.4.37.59.07.09.13.18.19.25.07.08.1.13.23.22l.14-.23-.23.15.08.07.14-.23-.23.15h.01s-.02,0-.02,0h0s.01,0,.01,0h-.02s.02.05.02.05v.02s0,0,0,0h.08s-.08,0-.08,0h0s.08,0,.08,0h-.08.3l-.26-.15c-.05.09-.04.14-.05.15h.3l-.26-.15.36.21-.25-.34-.11.13.36.21-.25-.34.12.17-.09-.18-.03.02.12.17-.09-.18s-.08.03-.19.06c-.33.09-.94.19-1.49.2h-.13c-.39,0-.79-.04-1.1-.09-.16-.02-.29-.05-.39-.08-.1-.02-.17-.05-.17-.05l-.21.46.22-.45-.07.15.15-.08-.07-.07-.07.15.15-.08-.09.05h.11v-.05s-.11.05-.11.05h.11-.23l.18.12c.06-.09.04-.11.05-.12h-.23l.18.12h0s0-.02,0-.02l-.28-.18.2.27.08-.09-.28-.18.2.27-.05-.06.04.07h0s-.05-.07-.05-.07l.04.07s.12-.06.25-.13c.13-.08.3-.16.44-.4l-.44-.24.43.25c.06-.1.09-.19.14-.31.12-.35.26-.86.3-1.33.02-.26.04-.43.05-.5v-.03s-.16-.05-.16-.05l.14.1.02-.04-.17-.05.14.1-.26-.18.17.27.09-.09-.26-.18.17.27-.08-.13.06.14h.02s-.08-.14-.08-.14l.06.14.09-.03h.05s.02-.01.02-.01l-.12-.99s-.08.01-.18.03c-.1.03-.21.04-.38.14-.11.07-.2.17-.24.27-.07.15-.09.27-.11.4-.02.14-.03.29-.05.49-.02.21-.07.5-.14.75-.03.12-.07.23-.1.32l-.06.15h0s0,0,0,0l.16.09-.13-.13-.03.04.16.09-.13-.13h0s0,0,0,0h0s0,.01,0,.01h0s-.09.05-.19.1l-.17.09c-.06.04-.14.08-.24.23l.42.27-.41-.29c-.11.17-.13.3-.13.45,0,.13.03.27.1.41.07.14.2.28.37.36h0s0,0,0,0c.11.05.21.08.35.11.4.1,1.04.19,1.73.19h.15c.49-.01.99-.08,1.38-.16.2-.04.37-.08.52-.13l.21-.08.11-.07s.1-.07.16-.17c.08-.14.09-.26.09-.35,0-.17-.04-.3-.09-.43-.06-.13-.11-.25-.31-.4l-.16.25.2-.23-.04-.03-.16.25.2-.23h0s.01,0,.01,0h0s0,.01,0,.01h.01s-.13-.17-.23-.31c-.1-.14-.2-.31-.27-.43h0s0-.01,0-.01c-.03-.03-.09-.26-.11-.49-.03-.24-.04-.48-.09-.71h0s0-.02,0-.02c-.08-.29-.27-.49-.42-.58-.15-.1-.28-.13-.32-.14h-.06s-1.3-.01-1.3-.01v1Z"/>
    <path class="cls-3" d="M124.9,176.61h1.24s.29.07.37.37c.07.3.07,1.01.26,1.34.18.33.52.81.63.88s.22.39.15.51-1.05.35-1.96.37c-.9.02-1.79-.16-2.01-.26-.22-.11-.22-.39-.15-.49.07-.11.48-.21.59-.41.11-.19.33-.9.37-1.43s.06-.71.17-.78c.11-.07.35-.1.35-.1h0Z"/>
    <path d="M124.9,176.61v.17h1.24v-.17l-.04.17h0s.2.08.24.25l.16-.04-.17.04c.03.12.05.38.08.64.04.26.08.53.2.74l.15-.08-.15.08c.09.17.23.38.35.55l.18.23.16.16h0s.09.26.09.26v.02s.02,0,.02,0h-.02s0,0,0,0h.02s-.02,0-.02,0l.07.04-.05-.07-.02.03.07.04-.05-.07s-.09.05-.2.08c-.35.1-1.02.22-1.64.24h-.14c-.41,0-.82-.04-1.15-.09-.32-.05-.58-.12-.65-.15l-.07.15.08-.15-.1-.18v-.05s.01-.01.01-.01h0s-.04-.03-.04-.03l.04.04h0s-.04-.04-.04-.04l.04.04s.12-.07.25-.13c.12-.07.27-.14.36-.3l-.15-.08.15.09c.07-.13.15-.35.23-.63.08-.28.14-.59.16-.87.02-.26.04-.44.06-.54l.03-.1h0s.16-.06.16-.06l.12-.02.15-.18-.17-.16h0c-.09,0-.17.08-.17.17,0,.09.08.17.17.17v-.17.17s.01,0,.01,0v-.17s-.02-.17-.02-.17c-.01,0-.24.02-.42.13-.11.07-.16.2-.19.33-.03.14-.04.32-.06.58-.02.25-.08.55-.15.81-.07.26-.16.48-.19.55h0s-.12.11-.24.17l-.18.09-.17.14.14.09-.14-.1c-.05.08-.07.17-.07.26,0,.16.07.37.29.48h0c.14.06.39.13.74.18.34.05.77.1,1.2.1h.14c.47-.01.95-.08,1.33-.15.19-.04.35-.08.48-.12l.16-.07.14-.12.05-.19c0-.11-.03-.21-.07-.3-.04-.09-.09-.18-.18-.25h0s0,0,0,0h0s0,.01,0,.01h0s-.14-.17-.25-.33c-.11-.16-.24-.35-.32-.5h0c-.07-.12-.12-.37-.15-.62-.03-.25-.05-.5-.09-.68h0c-.11-.41-.48-.49-.49-.5h-.04s-1.24,0-1.24,0l-.12.05-.05.12.05.12.12.05v-.17Z"/>
    <path d="M123.52,179.4s.62.26,1.48.29h.26c1.25,0,2.17-.33,2.19-.33l-.11-.32s-.05.02-.15.05c-.3.09-1.02.27-1.92.27h-.25c-.4-.02-.74-.09-.98-.15-.12-.03-.22-.06-.28-.09l-.1-.04-.13.31Z"/>
    <path d="M122.22,174.54l.02.17,4.92-.51v.14s-4.74.49-4.74.49l-.03-.31-.17.02.02.17-.02-.17-.17.02.05.48.06.11.12.04,5.09-.52c.09,0,.16-.09.15-.19l-.05-.48-.06-.11-.12-.04-5.09.52c-.09,0-.16.09-.15.19l.17-.02Z"/>
    <path class="cls-2" d="M122.83,174.95c0,.44-.36.8-.8.8s-.8-.36-.8-.8.36-.8.8-.8.8.36.8.8"/>
    <path d="M122.33,174.95c0,.16-.14.3-.3.3-.16,0-.3-.14-.3-.3,0-.16.14-.3.3-.3.16,0,.3.14.3.3h1c0-.72-.58-1.3-1.3-1.3-.72,0-1.3.58-1.3,1.3,0,.72.58,1.3,1.3,1.3.72,0,1.3-.58,1.3-1.3h-1Z"/>
    <circle class="cls-3" cx="122.03" cy="174.95" r=".8"/>
    <path d="M122.83,174.95h-.17c0,.35-.28.63-.63.63-.35,0-.63-.28-.63-.63,0-.35.28-.63.63-.63.35,0,.63.28.63.63h.34c0-.53-.44-.97-.97-.97-.53,0-.97.44-.97.97,0,.53.44.97.97.97.53,0,.97-.44.97-.97h-.17Z"/>
    <path class="cls-2" d="M127.99,174.3c0,.35-.29.64-.64.64s-.64-.29-.64-.64.29-.64.64-.64.64.29.64.64"/>
    <path d="M127.49,174.3l-.04.1-.1.04-.1-.04-.04-.1.04-.1.1-.04.1.04.04.1h1c0-.63-.51-1.14-1.14-1.14-.63,0-1.14.51-1.14,1.14,0,.63.51,1.14,1.14,1.14.63,0,1.14-.51,1.14-1.14h-1Z"/>
    <circle class="cls-3" cx="127.35" cy="174.3" r=".64"/>
    <path d="M127.35,173.66v.17c.26,0,.47.21.47.47,0,.26-.21.47-.47.47-.26,0-.47-.21-.47-.47,0-.26.21-.47.47-.47v-.34c-.45,0-.81.36-.81.81,0,.45.36.81.81.81.45,0,.81-.36.81-.81,0-.45-.36-.81-.81-.81v.17Z"/>
    <path class="cls-2" d="M126.25,174.4c0,.44-.36.8-.8.8s-.8-.36-.8-.8.36-.8.8-.8.8.36.8.8"/>
    <path d="M125.75,174.4c0,.16-.14.3-.3.3-.16,0-.3-.14-.3-.3,0-.16.14-.3.3-.3.16,0,.3.14.3.3h1c0-.72-.58-1.3-1.3-1.3-.72,0-1.3.58-1.3,1.3,0,.72.58,1.3,1.3,1.3.72,0,1.3-.58,1.3-1.3h-1Z"/>
    <circle class="cls-3" cx="125.45" cy="174.4" r=".8"/>
    <path d="M125.45,173.6v.17c.35,0,.63.28.63.63,0,.35-.28.63-.63.63-.35,0-.63-.28-.63-.63,0-.35.28-.63.63-.63v-.34c-.54,0-.97.43-.97.97,0,.54.43.97.97.97.54,0,.97-.43.97-.97,0-.54-.43-.97-.97-.97v.17Z"/>
    <polygon class="cls-3" points="316.7 294.87 316.7 107.87 393.75 90.36 393.75 327.5 316.7 294.87"/>
    <polygon points="316.7 294.87 317.2 294.87 317.2 108.27 393.25 90.99 393.25 326.75 316.89 294.41 316.7 294.87 317.2 294.87 316.7 294.87 316.51 295.33 394.25 328.25 394.25 89.73 316.2 107.47 316.2 295.2 316.51 295.33 316.7 294.87"/>
    <polygon points="316.7 286.44 393.58 318.36 393.78 318.31 429.93 277.41 429.67 277.19 393.6 318 316.84 286.12 316.7 286.44"/>
    <polyline class="cls-3" points="316.8 35.45 408.7 -9.39 429.96 -.05 429.96 62.41 408.7 55.02 316.64 82.16 338.19 87.06 429.86 62.59"/>
    <polygon points="317.02 35.9 408.71 -8.84 429.46 .28 429.46 61.71 408.71 54.5 314.66 82.22 338.2 87.57 429.99 63.07 429.73 62.11 338.18 86.55 318.62 82.1 408.69 55.54 430.46 63.11 430.46 -.38 408.69 -9.94 316.58 35 317.02 35.9"/>
    <polyline points="408.87 55.01 408.87 -9.39 408.53 -9.39 408.53 55.01"/>
    <path class="cls-3" d="M358.64,52.54s.33-.13.41.21c.08.34.08.61.02.91s-.22.34-.39.47-.65.69-.8,1.63-.07,2.3.03,3.58.37,2.19.58,2.8c.22.61.6,1.29.6,1.29,0,0,.02.41-.09.67-.15.37-.32.26-.32.26,0,0-1.02-1.92-1.28-3.44-.26-1.52-.42-2.36-.41-4.01s.31-2.39.71-3.16c.39-.77.94-1.2.94-1.2"/>
    <path d="M358.82,53.01l-.04-.11v.12h.04s-.04-.12-.04-.12v.12-.23l-.13.19.13.04v-.23l-.13.19.14-.21-.21.13.07.07.14-.21-.21.13.1-.06-.12.03.02.04.1-.06-.12.03c.04.15.05.27.05.39,0,.1-.01.2-.03.31v.04s.03.02.03.02l-.04-.03h0s.04.03.04.03l-.04-.03h0s-.09.06-.19.14c-.16.13-.34.33-.54.66-.19.32-.37.76-.45,1.29-.07.41-.09.88-.09,1.37,0,.74.05,1.55.11,2.33.1,1.33.39,2.29.61,2.92h0s0,0,0,0c.24.67.63,1.35.63,1.36l.44-.24-.5.02h0s0,.05,0,.05c0,.1-.02.34-.05.4h0s0,0,0,0l-.03.06.05.03-.04-.04h0s.05.04.05.04l-.04-.04.22.22v-.3c-.1,0-.2.06-.22.08l.22.22v-.3.39l.21-.33s-.11-.06-.21-.07v.39l.21-.33-.27.42.44-.23-.04-.08c-.19-.37-.99-2-1.19-3.21-.25-1.49-.4-2.26-.4-3.78v-.14c.02-1.6.28-2.19.65-2.93h0s0,0,0,0c.17-.33.38-.6.54-.78l.2-.2.05-.05h.01s-.02-.03-.02-.03l.02.02h0s-.02-.02-.02-.02l.02.02-.62-.79s-.63.5-1.08,1.37l.45.23-.44-.23c-.42.8-.76,1.69-.77,3.39v.15c0,1.59.17,2.48.42,3.95.29,1.65,1.32,3.57,1.33,3.59l.06.11.11.07s.16.09.33.1c.15,0,.33-.06.45-.18.12-.11.21-.25.27-.41l-.46-.19.46.19c.13-.33.13-.63.13-.79v-.1s0-.12,0-.12l-.06-.1-.06-.11c-.11-.21-.36-.69-.51-1.11l-.47.17.47-.16c-.2-.59-.46-1.45-.55-2.68-.06-.77-.11-1.55-.11-2.25,0-.46.02-.88.08-1.21.06-.4.2-.72.33-.95.13-.22.27-.37.28-.37.04-.04.13-.08.27-.2.14-.12.26-.34.3-.57.03-.17.05-.33.05-.51,0-.2-.03-.4-.08-.62-.04-.19-.15-.38-.32-.49-.16-.11-.33-.13-.44-.13-.18,0-.29.05-.32.06l.37.93Z"/>
    <path class="cls-3" d="M369.46,49.06s.34-.14.42.21c.08.34.08.62.02.93-.06.31-.23.34-.4.48-.17.14-.67.71-.82,1.67-.15.96-.07,2.35.03,3.66.1,1.31.38,2.24.6,2.87.22.62.61,1.32.61,1.32,0,0,.02.42-.09.69-.16.37-.33.26-.33.26,0,0-1.04-1.96-1.31-3.52-.27-1.55-.43-2.42-.42-4.1.02-1.69.32-2.45.72-3.24.4-.79.96-1.23.96-1.23"/>
    <path d="M369.65,49.52l-.04-.1v.11h.04s-.04-.11-.04-.11v.11-.23l-.13.19.13.05v-.23l-.13.19.14-.2-.21.13.07.07.14-.2-.21.13.09-.06-.11.03.02.03.09-.06-.11.03h0c.04.15.05.28.05.4,0,.1-.01.21-.03.33v.03s-.01,0-.01,0l.05.03-.04-.04h0s.05.04.05.04l-.04-.04h0s-.1.07-.22.16c-.15.12-.33.33-.53.66-.19.33-.38.77-.47,1.32-.07.42-.09.89-.09,1.4,0,.76.05,1.59.11,2.38.1,1.36.4,2.35.63,3h0s0,0,0,0c.24.68.64,1.38.64,1.4l.44-.24-.5.02h0s0,.05,0,.05c0,.1-.02.36-.05.42l.46.19-.46-.2-.03.06h0s.22.18.22.18v-.27c-.11,0-.22.08-.22.09l.22.18v-.27.39l.21-.32s-.11-.06-.21-.07v.39l.21-.32-.27.42.44-.23-.04-.08c-.19-.37-1.01-2.04-1.22-3.29-.26-1.51-.41-2.32-.41-3.87v-.14s0,0,0,0c.03-1.64.29-2.26.67-3.02.17-.34.39-.62.55-.8.08-.09.15-.16.2-.2l.05-.05h.01s-.01-.02-.01-.02h.01s0,.01,0,.01h-.01s.01,0,.01,0l-.62-.79s-.64.51-1.1,1.4c-.42.82-.76,1.72-.77,3.46h0s0,.15,0,.15c0,1.62.17,2.54.43,4.04.3,1.69,1.35,3.64,1.36,3.67l.06.11.11.07s.16.09.33.1c.15,0,.32-.06.45-.17.13-.11.21-.24.28-.41h0s0,0,0,0c.13-.33.12-.63.13-.8v-.1s0-.12,0-.12l-.06-.1-.06-.11c-.11-.21-.37-.71-.52-1.13h0c-.21-.61-.48-1.48-.57-2.74-.06-.78-.11-1.59-.11-2.3,0-.47.02-.9.08-1.24.06-.41.2-.73.34-.97.13-.23.28-.38.3-.4.03-.03.12-.07.26-.19.14-.12.28-.35.32-.58.03-.17.05-.34.05-.52,0-.2-.03-.41-.08-.62h0c-.04-.18-.15-.37-.31-.49-.16-.11-.33-.14-.45-.14-.19,0-.3.05-.34.07l.38.92Z"/>
    <polyline points="316.71 227.03 393.73 246.1 393.81 245.76 316.79 226.69"/>
    <polyline points="350.83 100.06 350.83 235.58 351.17 235.58 351.17 100.06"/>
    <path d="M320.84,235l-.04.16,63.09,16.96.04-.16-.09.15.05.04c.26.18,1.34,1.04,1.34,2.61v.23c-.07.98-.55,1.87-1.01,2.51-.23.32-.46.58-.64.76l-.21.2-.07.07.11.13.05-.16-62.55-17.89-.05.16.11-.13-.04-.04c-.19-.19-1-1.09-1-2.63,0-.15,0-.31.02-.47h0c.11-1.05.36-1.64.57-1.96.11-.16.2-.26.27-.31l.07-.05h.01s-.01-.03-.01-.03v.03s.01,0,.01,0v-.02s0,.03,0,.03l.06-.04h.01s-.12-.13-.12-.13l-.04.16.04-.16-.12-.12h-.01s.12.13.12.13l-.06-.16c-.06.02-.91.43-1.13,2.61h0c-.02.17-.03.34-.03.5,0,1.9,1.14,2.91,1.15,2.92l.07.04,62.55,17.89.16-.03s1.89-1.62,2.04-3.78v-.25c0-2-1.53-2.93-1.55-2.94l-.04-.02-63.09-16.96-.16.04.12.12Z"/>
    <path d="M327.26,236.88s-.55,1.05-.56,2.66h0s0,.09,0,.09c0,1.57.53,2.91.53,2.92l.32-.12s-.03-.08-.08-.22c-.14-.43-.43-1.45-.43-2.57v-.08s0,0,0,0c0-.77.14-1.4.27-1.83.06-.22.13-.39.18-.5.05-.11.08-.17.08-.17l-.3-.16Z"/>
    <path d="M374.58,249.48s-1.24,1.24-1.33,3.29c-.01.25-.01.48-.01.69,0,1.92.37,2.44.4,2.49l.27-.2-.04.03.04-.02h0s-.04.02-.04.02l.04-.02s-.33-.52-.33-2.28c0-.21,0-.43.01-.68.04-.96.35-1.73.65-2.26.15-.26.3-.47.41-.61l.13-.15.05-.05-.24-.24Z"/>
    <path d="M383.8,251.85s-1.36,1.63-1.36,3.71v.09s0,0,0,0c.03,2.08.84,3.08.86,3.11l.26-.22-.03-.04c-.14-.19-.73-1.11-.75-2.86h0s0-.09,0-.09c0-.96.32-1.84.64-2.47.16-.32.32-.57.44-.75l.14-.2.05-.07-.26-.22Z"/>
    <path d="M381.89,251.57l2.76-.64,2.07.47.81,2.04-2.19.51c-.09.02-.15.11-.13.2.02.09.11.15.2.13l2.38-.56.11-.09v-.14s-.91-2.31-.91-2.31l-.12-.1-2.2-.5h-.08s-2.8.65-2.8.65c-.09.02-.15.11-.13.2s.11.15.2.13Z"/>
    <path d="M386.81,251.08l-3.11.77c-.09.02-.15.11-.12.21.02.09.11.15.21.12l3.11-.77c.09-.02.15-.11.12-.21-.02-.09-.11-.15-.21-.12"/>
    <path d="M325.51,236.33l2.59-.6,1.93.44.62,1.56.22.1.1-.22-.65-1.64-.12-.1-2.06-.47h-.08s-2.63.61-2.63.61c-.09.02-.15.11-.13.2.02.09.11.15.2.13Z"/>
    <path d="M330.12,235.85l-2.92.72c-.09.02-.15.11-.12.21.02.09.11.15.21.12l2.92-.72c.09-.02.15-.11.12-.21-.02-.09-.11-.15-.21-.12"/>
    <path class="cls-3" d="M346.16,141.08l.09,61.15s-.33,1.83-1.66,1.83c-2.09,0-2.23-1.9-2.23-1.9l.19-60.78s.5-1.38,1.89-1.48c1.39-.1,1.73,1.18,1.73,1.18h-.01Z"/>
    <path d="M346.16,141.08h-.17s.09,61.15.09,61.15h.17s-.17-.03-.17-.03c0,0-.02.1-.07.27-.07.25-.22.61-.45.91-.24.3-.54.51-.98.51-.99,0-1.48-.43-1.75-.87-.14-.22-.21-.44-.26-.61l-.04-.2v-.07s-.18.01-.18.01h.17s.19-60.78.19-60.78h-.17s.16.06.16.06l.02-.05c.05-.12.21-.44.49-.73.28-.29.68-.55,1.24-.59h.14c.58,0,.91.26,1.13.52.11.13.18.27.22.37l.05.12v.04s.18-.04.18-.04v-.17s0,0,0,0l-.12.05-.05.12h.17s0,.17,0,.17h.01s.13-.07.13-.07l.03-.15s-.09-.33-.35-.66c-.26-.33-.71-.66-1.4-.66h-.16c-.75.06-1.27.46-1.58.84-.32.38-.45.74-.45.75v.06s-.2,60.78-.2,60.78h0s.04.53.36,1.04c.32.51.94,1.03,2.04,1.03.75,0,1.22-.52,1.48-1,.26-.49.35-.96.35-.97v-.03s-.09-61.15-.09-61.15h-.17s0,.17,0,.17v-.17Z"/>
    <path d="M346.22,145.38s-.78-.76-1.87-.77h-.02c-1.51.02-2,1.01-2,1.04l.31.14v-.03c.1-.14.52-.79,1.7-.81h.02c.46,0,.87.17,1.16.34.15.09.27.17.35.23l.09.08.03.03.24-.25Z"/>
    <path d="M346.1,198.17h0c-.05.06-.59.71-2.17.72-.51,0-.87-.16-1.11-.31-.12-.08-.21-.15-.26-.21l-.06-.07-.02-.02-.27.2s.56.74,1.73.74c1.79,0,2.43-.83,2.45-.86l-.27-.2Z"/>
    <path class="cls-3" d="M360.23,140.19l.09,64.01s-.34,1.91-1.74,1.91c-2.19,0-2.34-1.99-2.34-1.99l.2-63.62s.52-1.45,1.97-1.55c1.45-.11,1.81,1.24,1.81,1.24h0Z"/>
    <path d="M360.23,140.19h-.17s.09,64.01.09,64.01h.17s-.17-.03-.17-.03c0,0-.02.11-.07.28-.08.26-.23.64-.47.95-.25.31-.57.54-1.03.54-1.04,0-1.56-.46-1.85-.92-.14-.23-.23-.46-.27-.64l-.04-.21v-.07s-.18.01-.18.01h.17s.2-63.62.2-63.62h-.17s.16.06.16.06l.02-.05c.05-.13.22-.46.51-.76.29-.3.71-.58,1.29-.62h.15c.6,0,.95.27,1.18.55.11.14.19.28.24.39l.05.13v.04s.18.13.18.13h0s0-.17,0-.17h-.17s.17,0,.17,0v-.17s-.01,0-.01,0v.17s.16-.04.16-.04c0-.01-.09-.34-.36-.69-.27-.34-.73-.69-1.45-.69h-.18c-.78.06-1.32.48-1.65.88-.33.4-.47.78-.47.79v.06s-.21,63.62-.21,63.62h0s.04.55.37,1.09c.33.54.99,1.08,2.14,1.07.79,0,1.27-.54,1.54-1.04.27-.51.36-1,.36-1.01v-.03s-.09-64.01-.09-64.01l-.05-.12-.12-.05v.17Z"/>
    <path d="M360.3,144.7s-.81-.79-1.94-.8h-.04c-1.58.02-2.07,1.05-2.08,1.08l.31.14v-.03c.1-.15.53-.83,1.78-.85h.04c.48,0,.91.17,1.21.35.15.09.28.18.36.24l.1.08.03.03.24-.24Z"/>
    <path d="M360.19,199.96h0c-.05.06-.62.75-2.28.76-.53,0-.91-.16-1.16-.32-.12-.08-.22-.16-.28-.22l-.06-.07-.02-.02-.27.2s.58.77,1.8.77c1.87,0,2.54-.87,2.56-.9l-.27-.2Z"/>
    <polygon points="74.24 194.57 72.46 194.84 57.74 187.01 57.74 183.67 72.37 191.46 72.47 191.48 185.18 178.48 202.18 180.93 202.21 183.09 185.1 180.65 185.06 180.65 74.18 194.59 74.03 194.76 74.03 271.77 74.1 271.91 74.25 271.93 186.51 239.14 314.74 293.83 314.92 293.8 316.83 292.08 316.61 291.82 314.78 293.47 186.59 238.8 186.47 238.8 74.37 271.54 74.37 194.91 185.08 180.99 202.36 183.46 202.49 183.42 202.55 183.29 202.52 180.78 202.37 180.61 185.2 178.14 185.16 178.14 72.48 191.14 57.65 183.24 57.48 183.24 57.4 183.39 57.4 187.11 57.49 187.26 72.35 195.17 72.46 195.19 74.3 194.91 74.24 194.57"/>
    <polyline points="72.28 191.31 72.28 194.94 72.62 194.94 72.62 191.31"/>
    <polygon points="74.33 271.83 59.72 255.85 59.08 187.86 58.74 187.86 59.38 255.99 74.07 272.05 74.33 271.83"/>
    <path d="M365.91,136.44l.17.04,3.97-17.18,14.07,3.25-3.93,17.01-14.23-3.29-.04.17.17.04-.17-.04-.04.17,14.4,3.33c.09.02.18-.04.2-.13l4.01-17.34-.02-.13-.11-.08-14.4-3.33c-.09-.02-.18.04-.2.13l-4.01,17.34.02.13.11.08.04-.17Z"/>
    <path class="cls-3" d="M380.34,120.46c0,1.67-1.35,3.02-3.02,3.02s-3.02-1.35-3.02-3.02,1.35-3.02,3.02-3.02,3.02,1.35,3.02,3.02"/>
    <path d="M379.84,120.46c0,1.39-1.13,2.52-2.52,2.52-1.39,0-2.52-1.13-2.52-2.52,0-1.39,1.13-2.52,2.52-2.52,1.39,0,2.52,1.13,2.52,2.52h1c0-.97-.39-1.85-1.03-2.49-.64-.64-1.52-1.03-2.49-1.03-.97,0-1.85.39-2.49,1.03-.64.64-1.03,1.52-1.03,2.49,0,.97.39,1.85,1.03,2.49.64.64,1.52,1.03,2.49,1.03.97,0,1.85-.39,2.49-1.03.64-.64,1.03-1.52,1.03-2.49h-1Z"/>
    <path d="M380.34,120.46h-.17c0,1.58-1.27,2.85-2.85,2.85-1.58,0-2.85-1.27-2.85-2.85,0-1.58,1.27-2.85,2.85-2.85,1.58,0,2.85,1.27,2.85,2.85h.34c0-1.76-1.43-3.19-3.19-3.19-1.76,0-3.19,1.43-3.19,3.19,0,1.76,1.43,3.19,3.19,3.19,1.76,0,3.19-1.43,3.19-3.19h-.17Z"/>
    <path d="M374.45,145.68v.17s12.27-.21,12.27-.21l.25,14.64-12.1.2-.25-14.81h-.17s0,.17,0,.17v-.17s-.17,0-.17,0l.25,14.98c0,.09.08.17.17.17l12.44-.21.12-.05.05-.12-.25-14.98c0-.09-.08-.17-.17-.17l-12.44.21-.12.05-.05.12h.17Z"/>
    <polygon class="cls-3" points="378 143.06 376.65 150.32 383.62 147.86 378 143.06"/>
    <polygon points="378 143.06 377.51 142.97 376 151.08 384.6 148.04 377.67 142.12 377.51 142.97 378 143.06 377.68 143.44 382.64 147.68 377.3 149.56 378.49 143.15 378 143.06 377.68 143.44 378 143.06"/>
    <polygon points="378 143.06 377.83 143.03 376.48 150.29 376.54 150.45 376.71 150.48 383.68 148.02 383.79 147.89 383.73 147.73 378.11 142.93 377.94 142.9 377.83 143.03 378 143.06 377.89 143.19 383.29 147.8 376.87 150.06 378.17 143.09 378 143.06 377.89 143.19 378 143.06"/>
    <path class="cls-2" d="M207.52,187.74s.27-.62,1.41-.63c1.09,0,1.53.77,1.71,1.13.19.38.36,1.27.13,2.22-.18.73-.74,1.48-1.67,1.52-.74.03-1.28-.41-1.28-.41"/>
    <path d="M207.98,187.94l-.19-.08.19.1v-.02s-.19-.08-.19-.08l.19.1s.05-.08.18-.17c.13-.08.37-.18.79-.18h.02c.42,0,.65.14.85.3.19.17.32.39.39.55.08.14.19.57.19,1.06,0,.26-.03.54-.1.82h0c-.07.29-.22.58-.42.79-.21.21-.45.34-.78.35h0s-.05,0-.05,0c-.25,0-.48-.08-.65-.16l-.19-.11-.04-.03h0s-.1.12-.1.12l.1-.13h0s-.1.13-.1.13l.1-.13-.63.78s.62.52,1.52.52h.09s0,0,0,0c.6-.02,1.1-.29,1.45-.65.35-.36.57-.81.68-1.25h0s0,0,0,0c.09-.37.12-.73.12-1.06,0-.63-.12-1.15-.29-1.5-.1-.2-.28-.54-.62-.85-.34-.31-.86-.56-1.51-.56h-.03c-.66,0-1.13.2-1.43.42-.3.22-.41.46-.44.51l.92.4Z"/>
    <path d="M207.68,187.81h-.01s.01,0,.01,0h0s-.01,0-.01,0h.01s.25-.51,1.26-.52h.02c.98,0,1.36.69,1.54,1.04.11.21.22.67.22,1.2,0,.28-.03.59-.11.9-.17.68-.68,1.36-1.51,1.39h-.07c-.32,0-.6-.09-.79-.19-.1-.05-.18-.1-.23-.13l-.06-.04h-.02s-.24.01-.24.01l.02.24s.54.45,1.31.45h.08c1.03-.05,1.64-.87,1.83-1.65.08-.34.12-.67.12-.98,0-.59-.12-1.07-.26-1.36-.18-.37-.67-1.23-1.84-1.22h-.02c-1.21,0-1.56.69-1.56.73l.09.22.22-.09Z"/>
    <path class="cls-3" d="M207.53,187.79c.17-.14.48-.29.98-.28.97,0,1.33.79,1.43,1.02.12.28.27,1.09.09,1.7-.18.61-.62,1.23-1.41,1.26-.24,0-.45-.02-.61-.06"/>
    <path d="M207.85,188.18c.07-.06.25-.16.62-.17h.04s0,0,0,0h0c.35,0,.53.13.69.28.15.15.24.34.28.44h0s.06.16.08.32c.03.16.05.35.05.53,0,.19-.02.37-.06.51-.07.24-.2.48-.35.64-.16.16-.33.25-.6.26h0s0,0,0,0h-.07c-.16,0-.29-.02-.4-.05l-.24.97c.18.04.39.08.64.08h.11s0,0,0,0c.52-.02.97-.25,1.27-.56.31-.31.49-.69.6-1.06.08-.27.1-.54.1-.79,0-.26-.03-.5-.06-.71-.04-.21-.09-.39-.15-.54h0c-.06-.13-.2-.45-.49-.75-.29-.3-.77-.57-1.39-.57h0s-.06,0-.06,0c-.57,0-1,.18-1.25.39l.64.77Z"/>
    <path d="M207.64,187.92c.13-.11.39-.24.82-.24h.04s0,0,0,0c.44,0,.72.18.92.38.2.2.31.43.35.54h0c.07.15.16.57.16.98,0,.21-.02.42-.08.6-.17.58-.56,1.11-1.25,1.14h-.09c-.19,0-.35-.02-.48-.06-.09-.02-.18.03-.21.12s.03.18.12.21c.15.04.34.07.56.07h.1c.89-.04,1.38-.74,1.57-1.38.07-.22.09-.47.09-.7,0-.47-.09-.9-.19-1.12h0c-.05-.12-.18-.4-.42-.65-.25-.25-.63-.47-1.16-.48h0s-.05,0-.05,0c-.51,0-.85.16-1.04.32l-.02.24.24.02Z"/>
    <path class="cls-3" d="M206.41,188.3s.46-.54,1.01-.53c.86,0,1.34.76,1.49,1.25.17.53.08,1.27-.12,1.63-.27.51-.77.89-1.29.9-.65,0-1.36-.56-1.54-1.18-.16-.54-.09-1,.05-1.44.09-.27.4-.64.4-.64"/>
    <path d="M206.79,188.62l-.07-.06.07.06h0s-.07-.06-.07-.06l.07.06s.11-.12.24-.21c.13-.09.28-.15.38-.15h0s0,0,0,0h0c.28,0,.47.11.65.29.18.18.31.43.36.61h0s0,0,0,0c.04.13.07.3.07.48,0,.31-.08.64-.15.75h0s0,0,0,0c-.2.38-.58.64-.86.63v.5s0-.5,0-.5c-.18,0-.43-.09-.64-.25-.21-.16-.37-.39-.42-.57h0s0,0,0,0c-.05-.17-.07-.33-.07-.48,0-.22.04-.44.12-.67l-.48-.15.47.16s.09-.19.17-.29l.1-.14.04-.05-.77-.64s-.09.11-.19.25c-.1.15-.22.32-.3.55h0s0,0,0,0c-.09.29-.17.61-.17.97,0,.24.03.5.11.76h0c.13.44.42.8.77,1.08.35.27.78.46,1.25.46h0c.76-.03,1.38-.53,1.72-1.17l-.44-.23.44.24c.19-.35.27-.78.27-1.24,0-.26-.03-.53-.11-.79l-.48.15.48-.15c-.1-.32-.28-.69-.6-1.01-.31-.32-.79-.59-1.37-.59v.5-.5s-.02,0-.02,0c-.44,0-.77.2-1,.36-.23.17-.36.33-.38.34l.76.65Z"/>
    <path d="M206.41,188.3l.13.11.07-.07c.14-.14.47-.4.8-.4h.01s0,0,0,0c.38,0,.67.16.89.39.22.23.37.52.44.74h0c.06.17.08.38.08.59,0,.36-.08.72-.19.91h0c-.25.47-.71.81-1.14.81v.17s0-.17,0-.17c-.56.01-1.23-.52-1.38-1.06h0c-.06-.2-.08-.39-.08-.57,0-.27.05-.52.13-.77l-.16-.05.16.05c.03-.1.13-.26.21-.38.08-.12.16-.21.16-.21l-.13-.11h-.17s0,0,0,0l.11.16.19-.05-.13-.11h.17s0,0,0,0l-.11-.16-.19.05s-.32.37-.43.7h0c-.09.27-.15.56-.15.87,0,.21.03.43.1.67h0c.21.7.96,1.29,1.7,1.3h0c.6-.02,1.14-.44,1.44-.99l-.15-.08.15.08c.15-.27.23-.67.23-1.08,0-.24-.03-.47-.1-.69l-.16.05.16-.05c-.08-.27-.25-.6-.52-.88-.27-.28-.65-.49-1.13-.49v.17-.17s-.02,0-.02,0c-.65.01-1.11.58-1.12.59l.13.11h.17s-.17,0-.17,0Z"/>
    <path d="M208.07,188.37h-.03c-.08,0-.31,0-.58.12-.27.11-.58.33-.76.74-.19.41-.25.76-.25,1.02,0,.35.11.55.12.57l.23.06.06-.23h0s0,0,0,0h0s0,0,0,0h0s-.07-.15-.07-.4c0-.21.05-.5.22-.87.15-.32.37-.48.58-.57.21-.09.4-.09.45-.09h.01c.09,0,.17-.07.18-.16s-.07-.17-.16-.18Z"/>
    <path class="cls-2" d="M213.28,188.61s.27-.62,1.41-.63c1.09,0,1.53.77,1.71,1.13.19.38.36,1.27.13,2.22-.18.73-.74,1.48-1.67,1.52-.74.03-1.28-.41-1.28-.41"/>
    <path d="M213.74,188.81l-.19-.08.19.1v-.02s-.19-.08-.19-.08l.19.1s.05-.08.18-.17c.13-.08.37-.18.79-.18h.02c.42,0,.65.14.85.3.19.17.32.39.39.55.08.14.19.57.19,1.06,0,.26-.03.54-.1.82h0c-.07.29-.22.58-.42.79-.21.21-.45.34-.78.35h0s-.05,0-.05,0c-.25,0-.48-.08-.65-.16l-.19-.11-.04-.03h0s-.1.12-.1.12l.1-.13h0s-.1.13-.1.13l.1-.13-.63.78s.62.52,1.52.52h.09s0,0,0,0c.6-.02,1.1-.29,1.45-.65.35-.36.57-.81.68-1.25h0s0,0,0,0c.09-.37.12-.73.12-1.06,0-.63-.12-1.15-.29-1.5-.1-.2-.28-.54-.62-.85-.34-.31-.86-.56-1.51-.56h-.03c-.66,0-1.13.2-1.43.42-.3.22-.41.46-.44.51l.92.4Z"/>
    <path d="M213.44,188.68h-.01s.01,0,.01,0h0s-.01,0-.01,0h.01s.25-.51,1.26-.52h.02c.98,0,1.36.69,1.54,1.04.11.21.22.67.22,1.2,0,.28-.03.59-.11.9-.17.68-.68,1.36-1.51,1.39h-.07c-.32,0-.6-.09-.79-.19-.1-.05-.18-.1-.23-.13l-.06-.04h-.02s-.24.01-.24.01l.02.24s.54.45,1.31.45h.08c1.03-.05,1.64-.87,1.83-1.65.08-.34.12-.67.12-.98,0-.59-.12-1.07-.26-1.36-.18-.37-.67-1.23-1.84-1.22h-.02c-1.21,0-1.56.69-1.56.73l.09.22.22-.09Z"/>
    <path class="cls-2" d="M213.29,188.66c.17-.14.48-.29.98-.28.97,0,1.32.79,1.43,1.02.12.28.27,1.09.09,1.7-.18.61-.62,1.23-1.41,1.26-.24,0-.45-.02-.61-.06"/>
    <path d="M213.61,189.05c.07-.06.25-.16.62-.17h.04s0,0,0,0h0c.35,0,.53.13.69.28.15.16.24.34.3.46l.45-.22-.46.2s.06.17.08.32c.03.16.05.35.05.53,0,.19-.02.37-.06.51-.07.24-.2.48-.35.64-.16.16-.33.25-.6.26h0s0,0,0,0h-.07c-.16,0-.29-.02-.4-.05l-.24.97c.18.04.39.08.64.08h.11s0,0,0,0c.52-.02.97-.25,1.27-.56.31-.31.49-.69.6-1.06.08-.27.1-.54.1-.79,0-.26-.03-.5-.06-.71-.04-.21-.09-.39-.15-.54h0s0-.02,0-.02c-.06-.11-.2-.43-.49-.73-.29-.3-.77-.57-1.39-.58h0s-.06,0-.06,0c-.57,0-1,.18-1.25.39l.64.77Z"/>
    <path class="cls-3" d="M213.29,188.66c.17-.14.48-.29.98-.28.97,0,1.32.79,1.43,1.02.12.28.27,1.09.09,1.7-.18.61-.62,1.23-1.41,1.26-.24,0-.45-.02-.61-.06"/>
    <path d="M213.4,188.79c.13-.11.39-.24.82-.24h.04s0,0,0,0c.44,0,.72.18.92.38.2.2.31.43.36.55l.15-.07-.16.07c.07.15.16.57.16.98,0,.21-.02.42-.08.6-.17.58-.56,1.11-1.25,1.14h-.09c-.19,0-.35-.02-.48-.06-.09-.02-.18.03-.21.12s.03.18.12.21c.15.04.34.07.56.07h.1c.89-.04,1.38-.74,1.57-1.38.07-.22.09-.47.09-.7,0-.47-.09-.9-.19-1.12h0c-.06-.12-.18-.4-.42-.65-.24-.25-.62-.47-1.16-.48h0s-.05,0-.05,0c-.51,0-.85.16-1.04.32l-.02.24.24.02Z"/>
    <path class="cls-3" d="M212.17,189.17s.46-.54,1.01-.53c.86,0,1.34.76,1.49,1.25.17.53.08,1.27-.12,1.63-.27.51-.77.89-1.29.9-.65,0-1.36-.56-1.54-1.18-.16-.54-.09-1,.05-1.44.09-.27.4-.64.4-.64"/>
    <path d="M212.55,189.49l-.07-.06.07.06h0s-.07-.06-.07-.06l.07.06s.11-.12.24-.21c.13-.09.28-.15.38-.15h0s0,0,0,0h0c.28,0,.47.11.65.29.18.18.31.43.36.61h0s0,0,0,0c.04.13.07.3.07.48,0,.31-.08.64-.15.75h0s0,0,0,0c-.2.38-.58.64-.86.63v.5s0-.5,0-.5c-.18,0-.43-.09-.64-.25-.21-.16-.37-.39-.42-.57h0s0,0,0,0c-.05-.17-.07-.33-.07-.48,0-.22.04-.44.12-.67l-.48-.15.47.16s.09-.19.17-.29l.1-.14.04-.05-.77-.64s-.09.11-.19.25c-.1.15-.22.32-.3.55h0s0,0,0,0c-.09.29-.17.61-.17.97,0,.24.03.5.11.76h0c.13.44.42.8.77,1.08.35.27.78.46,1.25.46h0c.76-.03,1.38-.53,1.72-1.17l-.44-.23.44.24c.19-.35.27-.78.27-1.24,0-.26-.03-.53-.11-.79l-.48.15.48-.15c-.1-.32-.28-.69-.6-1.01-.31-.32-.79-.59-1.37-.59v.5-.5s-.02,0-.02,0c-.44,0-.77.2-1,.36-.23.17-.36.33-.38.34l.76.65Z"/>
    <path d="M212.17,189.17l.13.11.07-.07c.14-.14.47-.4.8-.4h.01s0,0,0,0c.38,0,.67.16.89.39.22.23.37.52.44.74h0c.06.17.08.38.08.59,0,.36-.08.72-.19.91h0c-.25.47-.71.81-1.14.81v.17s0-.17,0-.17c-.56.01-1.23-.52-1.38-1.06h0c-.06-.2-.08-.39-.08-.57,0-.27.05-.52.13-.77l-.16-.05.16.05c.03-.1.13-.26.21-.38.08-.12.16-.21.16-.21l-.13-.11h-.17s0,0,0,0l.11.16.19-.05-.13-.11h.17s0,0,0,0l-.11-.16-.19.05s-.32.37-.43.7h0c-.09.27-.15.56-.15.87,0,.21.03.43.1.67h0c.21.7.96,1.29,1.7,1.3h0c.6-.02,1.14-.44,1.44-.99l-.15-.08.15.08c.15-.27.23-.67.23-1.08,0-.24-.03-.47-.1-.69l-.16.05.16-.05c-.08-.27-.25-.6-.52-.88-.27-.28-.65-.49-1.13-.49v.17-.17s-.02,0-.02,0c-.65.01-1.11.58-1.12.59l.13.11h.17s-.17,0-.17,0Z"/>
    <path d="M213.82,189.24h-.03c-.08,0-.31,0-.58.12-.27.11-.58.33-.76.74-.19.41-.25.76-.25,1.02,0,.35.11.55.12.57l.23.06.06-.23h0s0,0,0,0h0s0,0,0,0h0s-.07-.15-.07-.4c0-.21.05-.5.22-.87.15-.32.37-.48.58-.57.21-.09.4-.09.45-.09h.01c.09,0,.17-.07.18-.16s-.07-.17-.16-.18Z"/>
    <path class="cls-2" d="M219.04,189.6s.27-.62,1.41-.63c1.09,0,1.53.77,1.71,1.13.19.38.36,1.27.13,2.22-.18.73-.74,1.48-1.67,1.52-.74.03-1.28-.41-1.28-.41"/>
    <path d="M219.5,189.8l-.19-.08.19.1v-.02s-.19-.08-.19-.08l.19.1s.05-.08.18-.17c.13-.08.37-.18.79-.18h.02c.42,0,.65.14.85.3.19.17.32.39.39.55.08.14.19.57.19,1.06,0,.26-.03.54-.1.82h0s0,0,0,0c-.07.29-.22.58-.42.79-.21.21-.45.34-.78.35h0s-.05,0-.05,0c-.25,0-.48-.08-.65-.16l-.19-.11-.04-.03h0s-.1.12-.1.12l.1-.13h0s-.1.13-.1.13l.1-.13-.63.78s.62.52,1.52.52h.09s0,0,0,0c.6-.02,1.1-.29,1.45-.65.35-.36.57-.81.68-1.25h0s0,0,0,0c.09-.37.12-.73.12-1.06,0-.63-.12-1.15-.29-1.5-.1-.2-.28-.54-.62-.85-.34-.31-.86-.56-1.51-.56h-.03c-.66,0-1.13.2-1.43.42-.3.22-.41.46-.44.51l.92.4Z"/>
    <path d="M219.2,189.67h-.01s.01,0,.01,0h0s-.01,0-.01,0h.01s.25-.51,1.26-.52h.02c.98,0,1.36.69,1.54,1.04.11.21.22.67.22,1.2,0,.28-.03.59-.11.9-.17.68-.68,1.36-1.51,1.39h-.07c-.32,0-.6-.09-.79-.19-.1-.05-.18-.1-.23-.13l-.06-.04h-.02s-.24.01-.24.01l.02.24s.54.45,1.31.45h.08c1.03-.05,1.64-.87,1.83-1.65.08-.34.12-.67.12-.98,0-.59-.12-1.07-.26-1.36-.18-.37-.67-1.23-1.84-1.22h-.02c-1.21,0-1.56.69-1.56.73l.09.22.22-.09Z"/>
    <path class="cls-3" d="M219.05,189.65c.17-.14.48-.29.98-.28.97,0,1.33.79,1.43,1.02.12.28.27,1.09.09,1.7-.18.61-.62,1.23-1.41,1.26-.24,0-.45-.02-.61-.06"/>
    <path d="M219.37,190.04c.07-.06.25-.16.62-.17h.04s0,0,0,0h0c.35,0,.53.13.69.28.15.15.24.34.28.44h0s.06.16.08.32c.03.16.05.35.05.53,0,.19-.02.37-.06.51-.07.24-.2.48-.35.64-.16.16-.33.25-.6.26h0s-.07,0-.07,0c-.16,0-.29-.02-.4-.05l-.24.97c.18.04.39.08.64.08h.11s0,0,0,0c.52-.02.97-.25,1.27-.56.31-.31.49-.69.6-1.06.08-.27.1-.54.1-.79,0-.26-.03-.5-.06-.71-.04-.21-.09-.39-.15-.54h0c-.06-.13-.2-.45-.49-.75-.29-.3-.77-.57-1.39-.57h0s-.06,0-.06,0c-.57,0-1,.18-1.25.39l.64.77Z"/>
    <path d="M219.16,189.78c.13-.11.39-.24.82-.24h.04s0,0,0,0c.44,0,.72.18.92.38.2.2.31.43.35.54h0c.07.15.16.57.16.98,0,.21-.02.42-.08.6-.17.58-.56,1.11-1.25,1.14h-.09c-.19,0-.35-.02-.48-.06-.09-.02-.18.03-.21.12s.03.18.12.21c.15.04.34.07.56.07h.1c.89-.04,1.38-.74,1.57-1.38.07-.22.09-.47.09-.7,0-.47-.09-.9-.19-1.12h0c-.05-.12-.18-.4-.42-.65-.25-.25-.63-.47-1.16-.48h0s-.05,0-.05,0c-.51,0-.85.16-1.04.32l-.02.24.24.02Z"/>
    <path class="cls-3" d="M217.93,190.17s.46-.54,1.01-.53c.86,0,1.34.76,1.49,1.25.17.54.08,1.27-.12,1.63-.27.51-.77.89-1.29.9-.65,0-1.36-.56-1.54-1.18-.16-.54-.09-1,.05-1.44.09-.27.4-.64.4-.64"/>
    <path d="M218.31,190.49l-.07-.06.07.06h0s-.07-.06-.07-.06l.07.06s.11-.12.24-.21c.13-.09.28-.15.38-.15h0s0,0,0,0h0c.28,0,.47.11.65.29.18.18.31.43.36.61h0c.04.14.07.32.07.49,0,.31-.08.64-.15.75h0s0,0,0,0c-.2.38-.58.64-.86.63v.5s0-.5,0-.5c-.18,0-.43-.09-.64-.25-.21-.16-.37-.39-.42-.57h0s0,0,0,0c-.05-.17-.07-.33-.07-.48,0-.22.04-.44.12-.67l-.48-.15.47.16s.09-.19.17-.29l.1-.14.04-.05-.77-.64s-.09.11-.19.25c-.1.15-.22.32-.3.55h0s0,0,0,0c-.09.29-.17.61-.17.97,0,.24.03.5.11.76h0c.13.44.42.8.77,1.08.35.27.78.46,1.25.46h0c.76-.03,1.38-.53,1.72-1.17l-.44-.23.44.24c.19-.35.27-.77.27-1.23,0-.26-.03-.53-.11-.79h0c-.1-.31-.28-.68-.6-1.01-.31-.32-.79-.59-1.37-.59v.5-.5s-.02,0-.02,0c-.44,0-.77.2-1,.36-.23.17-.36.33-.38.34l.76.65Z"/>
    <path d="M217.93,190.17l.13.11.07-.07c.14-.14.47-.4.8-.4h.01s0,0,0,0c.38,0,.67.16.89.39.22.23.37.52.44.74h0c.06.18.08.38.08.59,0,.36-.08.72-.19.91h0c-.25.47-.71.81-1.14.81v.17s0-.17,0-.17c-.56.01-1.23-.52-1.38-1.06h0c-.06-.2-.08-.39-.08-.57,0-.27.05-.52.13-.77l-.16-.05.16.05c.03-.1.13-.26.21-.38.08-.12.16-.21.16-.21l-.13-.11h-.17s0,0,0,0l.11.16.19-.05-.13-.11h.17s0,0,0,0l-.11-.16-.19.05s-.32.37-.43.7h0c-.09.27-.15.56-.15.87,0,.21.03.43.1.67h0c.21.7.96,1.29,1.7,1.3h0c.6-.02,1.14-.44,1.44-.99l-.15-.08.15.08c.15-.27.23-.66.23-1.07,0-.23-.03-.47-.1-.69h0c-.08-.27-.25-.6-.52-.88-.27-.28-.65-.49-1.13-.49v.17-.17s-.02,0-.02,0c-.65.01-1.11.58-1.12.59l.13.11h.17s-.17,0-.17,0Z"/>
    <path d="M219.58,190.24h-.03c-.08,0-.31,0-.58.12-.27.11-.58.33-.76.74-.19.42-.25.76-.25,1.02,0,.35.11.55.12.57l.23.06.06-.23h0s0,0,0,0h0s0,0,0,0h0s-.07-.15-.07-.4c0-.21.05-.5.22-.88.15-.32.37-.48.58-.57.21-.09.4-.09.45-.09h.01c.09,0,.17-.07.18-.16s-.07-.17-.16-.18Z"/>
    <path class="cls-2" d="M225.03,190.43s.27-.62,1.41-.63c1.09,0,1.53.77,1.71,1.13.19.38.36,1.27.13,2.22-.18.73-.74,1.48-1.67,1.52-.74.03-1.28-.41-1.28-.41"/>
    <path d="M225.49,190.63l-.19-.08.18.1v-.02s-.18-.08-.18-.08l.18.1s.05-.08.18-.17c.13-.08.37-.18.79-.18h.02c.42,0,.65.14.85.3.19.17.32.39.39.55.08.14.19.57.19,1.06,0,.26-.03.54-.1.82h0c-.07.29-.22.58-.42.79-.21.21-.45.34-.78.35h0s-.05,0-.05,0c-.25,0-.48-.08-.65-.16l-.19-.11-.04-.03h0s-.1.12-.1.12l.1-.13h0s-.1.13-.1.13l.1-.13-.63.78s.62.52,1.52.52h.09s0,0,0,0c.6-.02,1.1-.29,1.45-.65.35-.36.57-.81.68-1.25h0s0,0,0,0c.09-.37.12-.73.12-1.06,0-.63-.12-1.15-.29-1.5-.1-.2-.28-.54-.62-.85-.34-.31-.86-.56-1.51-.56h-.03c-.66,0-1.13.2-1.43.42-.3.22-.41.46-.44.51l.92.4Z"/>
    <path d="M225.19,190.5h-.01s.01,0,.01,0h0s-.01,0-.01,0h.01s.25-.51,1.26-.52h.02c.98,0,1.36.69,1.54,1.04.11.21.22.67.22,1.2,0,.28-.03.59-.11.9-.17.68-.68,1.36-1.51,1.39h-.07c-.32,0-.6-.09-.79-.19-.1-.05-.18-.1-.23-.13l-.06-.04h-.02s-.24.01-.24.01l.02.24s.54.45,1.31.45h.08c1.03-.05,1.64-.87,1.83-1.65.08-.34.12-.67.12-.98,0-.59-.12-1.07-.26-1.36-.18-.37-.67-1.23-1.84-1.22h-.02c-1.21,0-1.56.69-1.56.73l.09.22.22-.09Z"/>
    <path class="cls-3" d="M225.04,190.48c.17-.14.48-.29.98-.28.97,0,1.32.79,1.43,1.02.12.28.27,1.09.09,1.7-.18.61-.62,1.23-1.41,1.26-.24,0-.45-.02-.61-.06"/>
    <path d="M225.36,190.87c.07-.06.25-.16.62-.17h.04s0,0,0,0h0c.35,0,.53.13.69.28.15.16.24.34.3.46l.45-.22-.46.2s.06.17.08.32c.03.16.05.35.05.53,0,.19-.02.37-.06.51-.07.24-.2.48-.35.64-.16.16-.33.25-.6.26h0s-.07,0-.07,0c-.16,0-.29-.02-.4-.05l-.24.97c.18.04.39.08.64.08h.11s0,0,0,0c.52-.02.97-.25,1.27-.56.31-.31.49-.69.6-1.06.08-.27.1-.54.1-.79,0-.26-.03-.5-.06-.71-.04-.21-.09-.39-.15-.54h0s0-.02,0-.02c-.06-.11-.2-.43-.49-.73-.29-.3-.77-.57-1.39-.58h0s-.06,0-.06,0c-.57,0-1,.18-1.25.39l.64.77Z"/>
    <path d="M225.15,190.61c.13-.11.39-.24.82-.24h.04s0,0,0,0c.44,0,.72.18.92.38.2.2.31.43.36.55l.15-.07-.16.07c.07.15.16.57.16.98,0,.21-.02.42-.08.6-.17.58-.56,1.11-1.25,1.14h-.09c-.19,0-.35-.02-.48-.06-.09-.02-.18.03-.21.12s.03.18.12.21c.15.04.34.07.56.07h.1c.89-.04,1.38-.74,1.57-1.38.07-.22.09-.47.09-.7,0-.47-.09-.9-.19-1.12h0c-.06-.12-.18-.4-.42-.65-.24-.25-.62-.47-1.16-.48h0s-.05,0-.05,0c-.51,0-.85.16-1.04.32l-.02.24.24.02Z"/>
    <path class="cls-3" d="M223.92,191s.46-.54,1.01-.53c.86,0,1.34.76,1.49,1.25.17.54.08,1.27-.12,1.63-.27.51-.77.89-1.29.9-.65,0-1.36-.56-1.54-1.18-.16-.54-.09-1,.05-1.44.09-.27.4-.64.4-.64"/>
    <path d="M224.3,191.32l-.07-.06.07.06h0s-.07-.06-.07-.06l.07.06s.11-.12.24-.21c.13-.09.28-.15.38-.15h0s0,0,0,0h0c.28,0,.47.11.65.29.18.18.31.43.36.61h0s0,0,0,0c.04.13.07.31.07.49,0,.31-.08.64-.15.75h0s0,0,0,0c-.2.38-.58.64-.86.63v.5s0-.5,0-.5c-.18,0-.43-.09-.64-.25-.21-.16-.37-.39-.42-.57h0c-.05-.18-.07-.33-.07-.48,0-.22.04-.44.12-.67l-.48-.15.47.16s.09-.19.17-.29l.1-.14.04-.05-.77-.64s-.09.11-.19.25c-.1.15-.22.32-.3.55h0s0,0,0,0c-.09.29-.17.61-.17.97,0,.24.03.5.11.76h0c.13.44.42.8.77,1.08.35.27.78.46,1.25.46h0c.76-.03,1.38-.53,1.72-1.17l-.44-.23.44.24c.19-.35.27-.77.27-1.23,0-.26-.03-.53-.11-.79h0c-.1-.31-.28-.68-.6-1.01-.31-.32-.79-.59-1.37-.59v.5-.5s-.02,0-.02,0c-.44,0-.77.2-1,.36-.23.17-.36.33-.38.34l.76.65Z"/>
    <path d="M223.92,191l.13.11.07-.07c.14-.14.47-.4.8-.4h.01s0,0,0,0c.38,0,.67.16.89.39.22.23.37.52.44.74h0c.06.18.08.38.08.59,0,.36-.08.72-.19.91h0c-.25.47-.71.81-1.14.81v.17s0-.17,0-.17c-.56.01-1.23-.52-1.38-1.06h0c-.06-.2-.08-.39-.08-.57,0-.27.05-.52.13-.77l-.16-.05.16.05c.03-.1.13-.26.21-.38.08-.12.16-.21.16-.21l-.13-.11h-.17s0,0,0,0l.11.16.19-.05-.13-.11h.17s0,0,0,0l-.11-.16-.19.05s-.32.37-.43.7h0c-.09.27-.15.56-.15.87,0,.21.03.43.1.67h0c.21.7.96,1.29,1.7,1.3h0c.6-.02,1.14-.44,1.44-.99l-.15-.08.15.08c.15-.27.23-.66.23-1.07,0-.23-.03-.47-.1-.69h0c-.08-.27-.25-.6-.52-.88-.27-.28-.65-.49-1.13-.49v.17-.17s-.02,0-.02,0c-.65.01-1.11.58-1.12.59l.13.11h.17s-.17,0-.17,0Z"/>
    <path d="M225.58,191.07h-.03c-.08,0-.31,0-.58.12-.27.11-.58.33-.76.74-.19.42-.25.76-.25,1.02,0,.35.11.55.12.57l.23.06.06-.23h0s0,0,0,0h0s0,0,0,0h0s-.07-.15-.07-.4c0-.21.05-.5.22-.88.15-.32.37-.48.58-.57.21-.09.4-.09.45-.09h.01c.09,0,.17-.07.18-.16s-.07-.17-.16-.18Z"/>
    <path class="cls-2" d="M236.06,192.32s.27-.62,1.41-.63c1.09,0,1.53.77,1.71,1.13.19.38.36,1.27.13,2.22-.18.73-.74,1.48-1.67,1.52-.74.03-1.28-.41-1.28-.41"/>
    <path d="M236.52,192.52l-.19-.08.18.1v-.02s-.18-.08-.18-.08l.18.1s.05-.08.18-.17c.13-.08.37-.18.79-.18h.02c.42,0,.65.14.85.3.19.17.32.39.39.55.08.14.19.57.19,1.06,0,.26-.03.54-.1.82h0c-.07.29-.22.58-.42.79-.21.21-.45.34-.78.35h0s-.05,0-.05,0c-.25,0-.48-.08-.65-.16l-.19-.11-.04-.03h0s-.1.12-.1.12l.1-.13h0s-.1.13-.1.13l.1-.13-.63.78s.62.52,1.52.52h.09s0,0,0,0h0c.6-.02,1.1-.29,1.45-.65.35-.36.57-.81.68-1.25h0s0,0,0,0c.09-.37.12-.73.12-1.06,0-.63-.12-1.15-.29-1.5-.1-.2-.28-.54-.62-.85-.34-.31-.86-.56-1.51-.56h-.03c-.66,0-1.13.2-1.43.42-.3.22-.41.46-.44.51l.92.4Z"/>
    <path d="M236.22,192.39h-.01s.01,0,.01,0h0s-.01,0-.01,0h.01s.25-.51,1.26-.52h.02c.98,0,1.36.69,1.54,1.04.11.21.22.67.22,1.2,0,.28-.03.59-.11.9h0c-.17.68-.68,1.36-1.51,1.39h-.07c-.32,0-.6-.09-.79-.19-.1-.05-.18-.1-.23-.13l-.06-.04h-.02s-.24.01-.24.01l.02.24s.54.45,1.31.45h.08c1.03-.05,1.64-.87,1.83-1.65h0c.08-.34.12-.67.12-.98,0-.59-.12-1.07-.26-1.36-.18-.37-.67-1.23-1.84-1.22h-.02c-1.21,0-1.56.69-1.56.73l.09.22.22-.09Z"/>
    <path class="cls-3" d="M236.07,192.37c.17-.14.48-.29.98-.28.97,0,1.32.79,1.43,1.02.12.28.27,1.09.09,1.7-.18.61-.62,1.23-1.41,1.26-.24,0-.45-.02-.61-.06"/>
    <path d="M236.39,192.76c.07-.06.25-.16.62-.17h.04s0,0,0,0h0c.35,0,.53.13.69.28.15.16.24.34.3.46l.45-.22-.46.2s.06.17.08.32c.03.16.05.35.05.53,0,.19-.02.37-.06.51-.07.24-.2.48-.35.64-.16.16-.33.25-.6.26h0s-.07,0-.07,0c-.16,0-.29-.02-.4-.05l-.24.97c.18.04.39.08.64.08h.11s0,0,0,0c.52-.02.97-.25,1.27-.56.31-.31.49-.69.6-1.06.08-.27.1-.54.1-.79,0-.26-.03-.5-.06-.71-.04-.21-.09-.39-.15-.54h0s0-.02,0-.02c-.06-.11-.2-.43-.49-.73-.29-.3-.77-.57-1.39-.58h0s-.06,0-.06,0c-.57,0-1,.18-1.25.39l.64.77Z"/>
    <path d="M236.18,192.5c.13-.11.39-.24.82-.24h.04s0,0,0,0c.44,0,.72.18.92.38.2.2.31.43.36.55l.15-.07-.16.07c.07.15.16.57.16.98,0,.21-.02.42-.08.6-.17.58-.56,1.11-1.25,1.14h-.09c-.19,0-.35-.02-.48-.06-.09-.02-.18.03-.21.12s.03.18.12.21c.15.04.34.07.56.07h.1c.89-.04,1.38-.74,1.57-1.38.07-.22.09-.47.09-.7,0-.47-.09-.9-.19-1.12h0c-.06-.12-.18-.4-.42-.65-.24-.25-.62-.47-1.16-.48h0s-.05,0-.05,0c-.51,0-.85.16-1.04.32l-.02.24.24.02Z"/>
    <path class="cls-3" d="M234.94,192.88s.46-.54,1.01-.53c.86,0,1.34.76,1.49,1.25.17.53.08,1.27-.12,1.63-.27.51-.77.89-1.29.9-.65,0-1.36-.56-1.54-1.18-.16-.54-.09-1,.05-1.44.09-.27.4-.64.4-.64"/>
    <path d="M235.32,193.2l-.07-.06.07.06h0s-.07-.06-.07-.06l.07.06s.11-.12.24-.21c.13-.09.28-.15.38-.15h0s0,0,0,0h0c.28,0,.47.11.65.29.18.18.31.43.36.61h0s0,0,0,0c.04.13.07.3.07.48,0,.31-.08.64-.15.75h0s0,0,0,0c-.2.38-.58.64-.86.63v.5s0-.5,0-.5c-.18,0-.43-.09-.64-.25-.21-.16-.37-.39-.42-.57h0s0,0,0,0c-.05-.17-.07-.33-.07-.48,0-.22.04-.44.12-.67l-.48-.15.47.16s.09-.19.17-.29l.1-.14.04-.05-.77-.64s-.09.11-.19.25c-.1.15-.22.32-.3.55h0s0,0,0,0c-.09.29-.17.61-.17.97,0,.24.03.5.11.76h0c.13.44.42.8.77,1.08.35.27.78.46,1.25.46h0c.76-.03,1.38-.53,1.72-1.17l-.44-.23.44.24c.19-.35.27-.78.27-1.24,0-.26-.03-.53-.11-.79l-.48.15.48-.15c-.1-.32-.28-.69-.6-1.01-.31-.32-.79-.59-1.37-.59v.5-.5s-.02,0-.02,0c-.44,0-.77.2-1,.36-.23.17-.36.33-.38.34l.76.65Z"/>
    <path d="M234.94,192.88l.13.11.07-.07c.14-.14.47-.4.8-.4h.01s0,0,0,0c.38,0,.67.16.89.39.22.23.37.52.44.74h0c.06.17.08.38.08.59,0,.36-.08.72-.19.91h0c-.25.47-.71.81-1.14.81v.17s0-.17,0-.17c-.56.01-1.23-.52-1.38-1.06h0c-.06-.2-.08-.39-.08-.57,0-.27.05-.52.13-.77l-.16-.05.16.05c.03-.1.13-.26.21-.38.08-.12.16-.21.16-.21l-.13-.11h-.17s0,0,0,0l.11.16.19-.05-.13-.11h.17s0,0,0,0l-.11-.16-.19.05s-.32.37-.43.7h0c-.09.27-.15.56-.15.87,0,.21.03.43.1.67h0c.21.7.96,1.29,1.7,1.3h0c.6-.02,1.14-.44,1.44-.99l-.15-.08.15.08c.15-.27.23-.67.23-1.08,0-.24-.03-.47-.1-.69l-.16.05.16-.05c-.08-.27-.25-.6-.52-.88-.27-.28-.65-.49-1.13-.49v.17-.17s-.02,0-.02,0c-.65.01-1.11.58-1.12.59l.13.11h.17s-.17,0-.17,0Z"/>
    <path d="M236.6,192.95h-.03c-.08,0-.31,0-.58.12-.27.11-.58.33-.76.74-.19.42-.25.76-.25,1.02,0,.35.11.55.12.57l.23.06.06-.23h0s0,0,0,0h0s0,0,0,0h0s-.07-.15-.07-.4c0-.21.05-.5.22-.88.15-.32.37-.48.58-.57.21-.09.4-.09.45-.09h.01c.09,0,.17-.07.18-.16s-.07-.17-.16-.18Z"/>
    <polyline points="223.3 178.73 222.21 181.88 222.28 182.01 222.41 181.94 223.5 178.79 223.43 178.66 223.3 178.73"/>
    <polyline points="216.59 180.41 229.12 180.46 229.22 180.36 229.12 180.26 216.59 180.21 216.49 180.31 216.59 180.41"/>
    <polyline points="218.78 179.3 226.87 181.57 227 181.5 226.93 181.37 218.84 179.1 218.71 179.17 218.78 179.3"/>
    <polyline points="218.06 181.53 227.69 179.34 227.77 179.22 227.65 179.14 218.02 181.33 217.94 181.45 218.06 181.53"/>
    <polyline points="221.03 178.94 224.54 181.89 224.69 181.88 224.68 181.73 221.17 178.78 221.02 178.79 221.03 178.94"/>
    <polyline points="216.83 180.98 228.9 179.89 228.99 179.78 228.88 179.69 216.81 180.78 216.72 180.89 216.83 180.98"/>
    <polyline points="217.34 179.77 228.35 181.09 228.46 181 228.37 180.89 217.36 179.57 217.25 179.66 217.34 179.77"/>
    <polyline points="219.87 181.85 225.92 179 225.97 178.87 225.84 178.82 219.79 181.67 219.74 181.8 219.87 181.85"/>
    <path class="cls-3" d="M220.59,180.35c-.1.3.82.55,2.07.55s2.35-.23,2.45-.54c.1-.3-.82-.55-2.07-.55s-2.35.24-2.45.54"/>
    <path d="M220.12,180.19l-.03.2c0,.17.07.32.15.42.14.17.29.24.45.31.47.19,1.15.28,1.98.28.66,0,1.27-.06,1.76-.17.25-.05.46-.12.65-.21.1-.05.19-.1.28-.17.09-.08.18-.18.23-.34l-.48-.15.47.16.03-.2c0-.17-.07-.32-.15-.42-.14-.17-.29-.24-.45-.31-.47-.19-1.15-.28-1.98-.28-.66,0-1.27.06-1.76.17-.25.05-.46.12-.65.21-.1.05-.19.1-.27.17-.09.07-.18.17-.24.33l.95.32-.23-.08.16.19.07-.12-.23-.08.16.19h0c.06-.05.35-.15.72-.21.37-.06.83-.1,1.32-.1.56,0,1.05.06,1.36.13.16.04.27.08.3.11h0s.19-.23.19-.23h-.29c0,.16.09.24.1.24l.19-.24h-.29.36l-.34-.11-.02.11h.36l-.34-.11h0s0,0,0,0l.23.07-.16-.19-.07.11.23.07-.16-.19h0c-.06.05-.35.15-.71.21-.37.06-.83.1-1.32.1-.56,0-1.05-.06-1.36-.13-.16-.04-.27-.08-.3-.11h0s-.19.23-.19.23h.29c0-.16-.09-.24-.1-.24l-.19.24h.29-.36l.34.11.02-.11h-.36l.34.11-.95-.32Z"/>
    <polyline points="241.42 180.87 240.28 184.19 240.34 184.33 240.48 184.27 241.62 180.95 241.56 180.81 241.42 180.87"/>
    <polyline points="234.34 182.65 247.56 182.71 247.67 182.6 247.56 182.49 234.34 182.43 234.23 182.54 234.34 182.65"/>
    <polyline points="236.65 181.49 245.19 183.87 245.33 183.79 245.25 183.65 236.71 181.27 236.57 181.35 236.65 181.49"/>
    <polyline points="235.89 183.84 246.05 181.53 246.14 181.4 246.01 181.31 235.85 183.62 235.76 183.75 235.89 183.84"/>
    <polyline points="239.03 181.09 242.73 184.21 242.88 184.2 242.87 184.05 239.17 180.93 239.02 180.94 239.03 181.09"/>
    <polyline points="234.59 183.25 247.34 182.11 247.44 181.99 247.32 181.89 234.57 183.03 234.47 183.15 234.59 183.25"/>
    <polyline points="235.12 181.98 246.76 183.38 246.88 183.28 246.78 183.16 235.14 181.76 235.02 181.86 235.12 181.98"/>
    <polyline points="237.8 184.18 244.2 181.16 244.25 181.01 244.1 180.96 237.7 183.98 237.65 184.13 237.8 184.18"/>
    <path class="cls-3" d="M238.55,182.58c-.11.32.87.58,2.19.59,1.32,0,2.48-.25,2.59-.57s-.87-.58-2.19-.59c-1.32,0-2.48.25-2.59.57"/>
    <path d="M238.08,182.42l-.04.21c0,.17.07.33.15.42.15.17.3.25.47.32.49.2,1.21.29,2.07.3h0s0,0,0,0c.69,0,1.34-.06,1.86-.18.26-.06.48-.12.68-.22.1-.05.19-.1.28-.18.09-.08.18-.18.24-.34l.04-.21c0-.17-.07-.33-.15-.42-.15-.17-.3-.25-.47-.32-.49-.2-1.21-.29-2.07-.3h0s0,0,0,0c-.69,0-1.34.06-1.86.18-.26.06-.48.12-.68.22-.1.05-.19.1-.28.18-.09.08-.18.18-.24.34l.95.33-.21-.07.15.18.06-.1-.21-.07.15.18s.08-.05.2-.09c.38-.14,1.16-.25,1.98-.24h0c.59,0,1.12.06,1.45.15.17.04.29.09.33.11h.01s.12-.15.12-.15l-.17.1.04.05.12-.15-.17.1.29-.18h-.34l.05.18.29-.18h-.34.35l-.33-.11-.02.11h.35l-.33-.11.21.07-.15-.18-.06.1.21.07-.15-.18s-.08.05-.2.09c-.38.14-1.16.25-1.98.24h0c-.59,0-1.12-.06-1.45-.15-.17-.04-.29-.09-.33-.11h-.01s-.12.15-.12.15l.17-.1-.04-.05-.12.15.17-.1-.29.18h.34l-.05-.18-.29.18h.34-.35l.33.11.02-.11h-.35l.33.11-.95-.32Z"/>
    <polyline points="237.04 176.23 235.96 179.37 236.03 179.5 236.16 179.43 237.24 176.29 237.17 176.16 237.04 176.23"/>
    <polyline points="230.34 177.9 242.86 177.96 242.96 177.86 242.86 177.76 230.34 177.7 230.24 177.8 230.34 177.9"/>
    <polyline points="232.52 176.8 240.61 179.06 240.74 178.99 240.67 178.86 232.58 176.6 232.45 176.67 232.52 176.8"/>
    <polyline points="231.81 179.02 241.43 176.84 241.51 176.72 241.39 176.64 231.77 178.82 231.69 178.94 231.81 179.02"/>
    <polyline points="234.77 176.43 238.28 179.38 238.43 179.37 238.42 179.22 234.91 176.27 234.76 176.28 234.77 176.43"/>
    <polyline points="230.57 178.47 242.64 177.39 242.73 177.28 242.62 177.19 230.55 178.27 230.46 178.38 230.57 178.47"/>
    <polyline points="231.08 177.27 242.1 178.59 242.21 178.5 242.12 178.39 231.1 177.07 230.99 177.16 231.08 177.27"/>
    <polyline points="233.61 179.35 239.66 176.49 239.71 176.36 239.58 176.31 233.53 179.17 233.48 179.3 233.61 179.35"/>
    <path class="cls-3" d="M234.33,177.84c-.1.3.82.55,2.07.55s2.35-.23,2.45-.53c.1-.3-.82-.55-2.07-.56-1.25,0-2.35.23-2.45.54"/>
    <path d="M233.86,177.68l-.03.2c0,.17.07.32.15.42.14.17.29.24.45.31.47.19,1.15.28,1.98.28.66,0,1.27-.06,1.76-.16.25-.05.46-.12.65-.2.1-.04.19-.1.27-.17.09-.07.18-.17.24-.34l.03-.2c0-.17-.07-.32-.15-.42-.14-.17-.29-.24-.45-.31-.47-.19-1.15-.28-1.97-.29h0s0,0,0,0c-.66,0-1.27.06-1.76.17-.25.05-.46.12-.65.21-.1.05-.19.1-.28.17-.09.08-.18.18-.23.34l.95.31-.23-.07.16.19.07-.11-.23-.07.16.19h0c.06-.05.35-.15.71-.21.37-.06.83-.1,1.32-.1h0c.56,0,1.05.06,1.37.14.16.04.27.09.3.11h0s.19-.23.19-.23h-.29c0,.16.09.24.09.24l.19-.24h-.29.36l-.34-.11-.02.11h.36l-.34-.11.23.08-.16-.2-.07.12.23.08-.16-.2h0c-.06.05-.35.15-.72.21-.37.06-.84.1-1.32.1-.56,0-1.05-.06-1.36-.13-.16-.04-.27-.08-.3-.11h0s-.19.23-.19.23h.29c0-.16-.09-.24-.1-.24l-.19.24h.29-.36l.34.11.02-.11h-.36l.34.11-.95-.32Z"/>
    <polyline points="253.42 177.65 252.28 180.97 252.34 181.11 252.48 181.05 253.62 177.73 253.56 177.59 253.42 177.65"/>
    <polyline points="246.33 179.43 259.56 179.48 259.67 179.37 259.56 179.26 246.33 179.21 246.22 179.32 246.33 179.43"/>
    <polyline points="248.64 178.26 257.19 180.65 257.33 180.57 257.25 180.43 248.7 178.04 248.56 178.12 248.64 178.26"/>
    <polyline points="247.89 180.61 258.05 178.3 258.14 178.17 258.01 178.08 247.85 180.39 247.76 180.52 247.89 180.61"/>
    <polygon points="393.68 90.56 429.63 107.18 429.63 287.12 393.62 327.39 393.88 327.61 429.93 287.29 429.97 287.18 429.97 107.07 429.87 106.92 393.82 90.26 393.68 90.56"/>
    <polyline points="251.02 177.87 254.73 180.99 254.88 180.98 254.87 180.83 251.16 177.71 251.01 177.72 251.02 177.87"/>
    <polyline points="246.58 180.03 259.33 178.88 259.43 178.76 259.31 178.66 246.56 179.81 246.46 179.93 246.58 180.03"/>
    <polyline points="247.12 178.76 258.76 180.15 258.88 180.05 258.78 179.93 247.14 178.54 247.02 178.64 247.12 178.76"/>
    <polyline points="249.8 180.95 256.19 177.94 256.24 177.79 256.09 177.74 249.7 180.75 249.65 180.9 249.8 180.95"/>
    <path class="cls-3" d="M250.55,179.36c-.11.32.87.58,2.19.59,1.32,0,2.48-.25,2.59-.57s-.87-.58-2.19-.59c-1.32,0-2.48.25-2.59.57"/>
    <path d="M250.08,179.2l-.04.21c0,.17.07.33.15.42.15.17.3.25.47.32.49.2,1.21.29,2.07.3h0s0,0,0,0c.69,0,1.34-.06,1.86-.18.26-.06.48-.12.68-.22.1-.05.19-.1.28-.18.09-.08.18-.18.24-.34l.04-.21c0-.17-.07-.33-.15-.42-.15-.17-.3-.25-.47-.32-.49-.2-1.21-.29-2.07-.3h0s0,0,0,0c-.69,0-1.34.06-1.86.18-.26.06-.48.12-.68.22-.1.05-.19.1-.28.18-.09.08-.18.18-.24.34l.95.33-.21-.07.15.18.06-.1-.21-.07.15.18s.08-.05.2-.09c.38-.14,1.16-.25,1.98-.24h0c.59,0,1.12.06,1.45.15.17.04.29.09.33.11h.01s.12-.15.12-.15l-.17.1.04.05.12-.15-.17.1.29-.18h-.34l.05.18.29-.18h-.34.35l-.33-.11-.02.11h.35l-.33-.11.21.07-.15-.18-.06.1.21.07-.15-.18s-.08.05-.2.09c-.38.14-1.16.25-1.98.24h0c-.59,0-1.12-.06-1.45-.15-.17-.04-.29-.09-.33-.11h-.01s-.12.15-.12.15l.17-.1-.04-.05-.12.15.17-.1-.29.18h.34l-.05-.18-.29.18h.34-.35l.33.11.02-.11h-.35l.33.11-.95-.32Z"/>
    <polyline points="363.33 12.51 363.33 68.27 364.33 68.27 364.33 12.51"/>
    <polyline points="363.66 12.51 363.66 68.27 364 68.27 364 12.51"/>
    <polyline points="59.51 255.76 .3 270.74 .38 271.06 59.59 256.08"/>
    <polygon points="241.96 123.99 255.24 127.83 255.32 127.84 307.87 119.4 316.48 118.31 316.53 182.66 181.26 171.81 181.23 171.81 1.57 187.83 1.61 188.17 181.25 172.15 316.69 183.01 316.82 182.96 316.87 182.84 316.82 118.12 316.76 117.99 316.63 117.95 307.83 119.06 307.82 119.06 255.3 127.5 242.06 123.67 241.96 123.99"/>
    <polyline points="194.61 135.44 194.61 172.15 194.95 172.15 194.95 135.44"/>
    <polygon points="233.51 76 233.44 75.85 214.87 84.93 214.77 85.08 214.79 119.4 214.86 119.53 215 119.56 233.84 114.73 233.97 114.57 233.68 76 233.6 75.86 233.44 75.85 233.51 76 233.34 76 233.63 114.44 215.13 119.18 215.11 85.19 233.58 76.15 233.51 76 233.34 76 233.51 76"/>
    <polygon points="233.51 75.99 233.58 76.14 258.25 64.16 258.25 107.63 233.97 114.35 233.68 75.99 233.51 75.99 233.58 76.14 233.51 75.99 233.34 75.99 233.63 114.79 258.59 107.89 258.59 63.62 233.34 75.88 233.34 75.99 233.51 75.99"/>
    <polygon points="188.76 97.88 188.83 98.03 214.79 85.4 214.79 131.24 188.89 136.05 188.93 97.88 188.76 97.88 188.83 98.03 188.76 97.88 188.59 97.88 188.55 136.25 188.61 136.38 188.75 136.42 214.99 131.55 215.13 131.38 215.13 85.13 215.05 84.99 214.89 84.98 188.69 97.73 188.59 97.88 188.76 97.88"/>
  </g>
  <polygon class="cls-1" points="0 373.77 0 374.27 518.72 373.74 518.72 -.5 -.5 .03 -.5 374.27 0 374.27 0 373.77 .5 373.77 .5 1.03 517.72 .5 517.72 372.74 0 373.27 0 373.77 .5 373.77 0 373.77"/>
  <polygon points="108.71 132.27 109.05 85.31 152.72 97.25 152.9 135.68 153.24 135.68 153.06 97.12 152.93 96.96 108.92 84.93 108.78 84.95 108.71 85.09 108.37 132.27 108.71 132.27"/>
  <polygon points="108.69 88.34 149.58 99.13 149.63 136.35 149.97 136.35 149.92 99 149.79 98.84 108.77 88.02 108.69 88.34"/>
  <polyline points="149.84 99.15 152.98 97.27 152.8 96.97 149.66 98.85"/>
  <path d="M109.7,132.29v-4.74l37.9,4.08v27.15l-37.9.08v.34s38.07-.08,38.07-.08c.09,0,.17-.08.17-.17v-27.47l-.15-.17-38.24-4.12-.13.04-.06.13v4.93h.34Z"/>
  <polyline points="109.56 128.75 147.58 132.71 147.62 132.37 109.6 128.41"/>
  <path d="M108.54,126.15l39.87,4.5.04,28.98-38.83.17v.34s39-.17,39-.17c.09,0,.17-.08.17-.17l-.04-29.3-.15-.17-40.02-4.52-.04.34Z"/>
  <polygon points="108.79 89.99 148.37 100.09 148.41 128.93 108.57 124.31 108.53 124.65 148.56 129.29 148.69 129.25 148.75 129.12 148.71 99.96 148.58 99.8 108.87 89.67 108.79 89.99"/>
  <polygon points="108.7 91.18 147.57 100.79 147.66 128.93 148 128.93 147.91 100.66 147.78 100.49 108.78 90.85 108.7 91.18"/>
  <polyline points="108.74 92.54 147.56 101.91 147.64 101.57 108.82 92.2"/>
  <polygon points="108.74 93.71 146.77 102.81 146.77 128.79 147.11 128.79 147.11 102.68 146.98 102.51 108.82 93.37 108.74 93.71"/>
  <polyline points="149.36 161.7 152.54 162.23 152.6 161.89 149.42 161.36"/>
  <path d="M162.41,136.15l-9.8-.62h-.05s-3.35.74-3.35.74l-.13.17.14,24.92-39.5.61v.34s39.68-.61,39.68-.61c.09,0,.17-.08.17-.17l-.14-24.95,3.19-.71,9.78.62.02-.34Z"/>
  <polyline points="109.36 132.29 109.51 162.93 109.85 162.93 109.7 132.29"/>
  <path d="M109.68,163.1l42.89-.86c.09,0,.17-.08.17-.17l.03-26.36h-.34s-.03,26.19-.03,26.19l-42.72.86v.34Z"/>
  <polygon points="17.8 124.17 18.2 69.07 69.46 83.09 69.66 128.16 70 128.16 69.8 82.96 69.67 82.8 18.07 68.69 17.93 68.71 17.86 68.85 17.46 124.17 17.8 124.17"/>
  <polygon points="17.81 72.63 65.77 85.29 65.83 128.94 66.17 128.94 66.11 85.16 65.98 85 17.89 72.31 17.81 72.63 17.81 72.63"/>
  <polyline points="66.03 85.31 69.72 83.11 69.54 82.81 65.85 85.01"/>
  <path d="M18.96,124.19v-5.59l44.49,4.78v31.89s-44.46.1-44.46.1v.34s44.63-.1,44.63-.1c.09,0,.17-.08.17-.17v-32.21l-.15-.17-44.83-4.82-.13.04-.06.13v5.78h.34Z"/>
  <polyline points="18.83 120.01 63.41 124.65 63.45 124.31 18.87 119.67"/>
  <path d="M17.63,116.95l46.77,5.29.05,34.03-45.56.19v.34s45.73-.19,45.73-.19c.09,0,.17-.08.17-.17l-.05-34.35-.15-.17-46.92-5.31-.04.34h0Z"/>
  <polygon points="17.93 74.57 64.35 86.41 64.41 120.28 17.66 114.86 17.62 115.2 64.56 120.64 64.69 120.6 64.75 120.47 64.69 86.28 64.56 86.12 18.01 74.25 17.93 74.57 17.93 74.57"/>
  <polygon points="17.82 75.96 63.42 87.24 63.53 120.25 63.87 120.25 63.76 87.11 63.63 86.95 17.9 75.62 17.82 75.96"/>
  <polyline points="17.87 77.55 63.38 88.54 63.46 88.2 17.95 77.21"/>
  <polygon points="17.87 78.92 62.48 89.6 62.48 120.09 62.82 120.09 62.82 89.47 62.69 89.3 17.95 78.58 17.87 78.92"/>
  <polyline points="65.49 158.64 69.22 159.26 69.28 158.92 65.55 158.3"/>
  <path d="M69.25,128.02l-3.94.86-.13.17.17,29.25-46.34.71v.34s46.52-.71,46.52-.71c.09,0,.17-.08.17-.17l-.17-29.28,3.81-.83-.07-.33Z"/>
  <polyline points="18.62 124.19 18.79 160.1 19.13 160.1 18.96 124.19"/>
  <path d="M18.96,160.27l50.29-1c.09,0,.17-.08.17-.17l.04-30.91h-.34s-.04,30.74-.04,30.74l-50.12,1v.34Z"/>
</svg>