<?xml version="1.0" encoding="UTF-8"?>
<svg xmlns="http://www.w3.org/2000/svg" xmlns:xlink="http://www.w3.org/1999/xlink" viewBox="0 0 518.22 373.77">
  <defs>
    <style>
      .cls-1, .cls-2, .cls-3, .cls-4, .cls-5, .cls-6, .cls-7 {
        fill: none;
      }

      .cls-8 {
        fill: #075ca9;
      }

      .cls-8, .cls-2, .cls-3, .cls-4, .cls-5, .cls-9, .cls-6, .cls-7, .cls-10, .cls-11 {
        stroke: #000;
      }

      .cls-8, .cls-9, .cls-6, .cls-7 {
        stroke-miterlimit: 10;
      }

      .cls-2, .cls-3, .cls-4, .cls-5, .cls-10, .cls-11 {
        stroke-linejoin: round;
      }

      .cls-2, .cls-3, .cls-4, .cls-10 {
        stroke-linecap: round;
      }

      .cls-2, .cls-5, .cls-6, .cls-10, .cls-11 {
        stroke-width: .34px;
      }

      .cls-3 {
        stroke-width: .22px;
      }

      .cls-4 {
        stroke-width: .21px;
      }

      .cls-9, .cls-10, .cls-11 {
        fill: #fff;
      }

      .cls-12 {
        clip-path: url(#clippath);
      }
    </style>
    <clipPath id="clippath">
      <polygon class="cls-7" points="0 373.77 518.22 373.24 518.22 0 0 .53 0 373.77"/>
    </clipPath>
  </defs>
  <g id="Tile_lines_and_wall">
    <g>
      <g class="cls-12">
        <path class="cls-9" d="M230.02,102.4s.33-.11.41.17c.08.28.08.5.03.75-.06.25-.22.28-.39.39-.17.11-.64.57-.78,1.35-.14.77-.05,1.89.06,2.94.11,1.05.39,1.8.61,2.3.22.5.61,1.05.61,1.05,0,0,.02.34-.08.55-.15.3-.32.21-.32.21,0,0-1.04-1.57-1.31-2.81-.28-1.24-.44-1.94-.44-3.29s.29-1.97.68-2.61c.39-.64.93-.99.93-.99"/>
        <path class="cls-9" d="M237.36,99.98s.33-.12.41.17c.08.29.08.52.03.79-.06.26-.22.29-.39.41-.17.11-.64.6-.78,1.42-.14.82-.05,1.99.06,3.09.11,1.11.39,1.89.61,2.41.22.52.61,1.11.61,1.11,0,0,.02.36-.08.58-.15.32-.32.22-.32.22,0,0-1.04-1.65-1.31-2.96-.28-1.31-.44-2.04-.44-3.46s.29-2.07.68-2.74c.39-.67.93-1.04.93-1.04"/>
        <path class="cls-9" d="M211.96,120.49s.29-.1.36.14c.07.24.07.43.02.64-.05.21-.19.24-.33.33-.14.1-.55.49-.67,1.16-.12.66-.04,1.62.06,2.52.1.9.33,1.55.52,1.97.19.43.52.9.52.9,0,0,.02.29-.07.48-.13.26-.27.18-.27.18,0,0-.89-1.35-1.13-2.42-.24-1.07-.38-1.66-.38-2.83s.25-1.69.58-2.24c.33-.55.8-.85.8-.85"/>
        <line class="cls-5" x1="214.96" y1="119.4" x2="216.72" y2="120.2"/>
        <polyline class="cls-5" points="216.73 123.42 216.72 120.15 258.4 109.09"/>
        <path class="cls-9" d="M258.43,114.78s-4.22.35-8.09.86c-3.87.51-42.99,10.12-43.99,10.36-1.14.28-1.06.61-1.06.61,0,0-.03.32-.05,1.18-.02,1.06.69,1.38.69,1.38l3.73,1.98,21.35,3.85,41.66-5.85"/>
        <path class="cls-5" d="M258.43,114.78s-4.22.35-8.09.86c-3.87.51-42.99,10.12-43.99,10.36-1.14.28-1.06.61-1.06.61,0,0-.03.32-.05,1.18-.02,1.06.69,1.38.69,1.38l3.73,1.98,21.35,3.85,41.66-5.85"/>
        <line class="cls-11" x1="205.79" y1="129.03" x2="248.89" y2="119.69"/>
        <line class="cls-5" x1="209.66" y1="131.16" x2="252.83" y2="122.85"/>
        <path class="cls-5" d="M249.01,115.87s-.78.44-.65,1.9c.12,1.46.33,1.69,1.28,2.52,1.34,1.18,3.11,2.55,3.11,2.55l19.93,6.32v-1.71"/>
        <line class="cls-5" x1="227.1" y1="134.28" x2="268.73" y2="127.95"/>
        <polyline class="cls-11" points="228.74 134.01 212.84 131.14 251.82 123.85 266.6 128.3"/>
        <line class="cls-5" x1="229.47" y1="128.06" x2="245.39" y2="131.5"/>
        <line class="cls-5" x1="232.93" y1="133.4" x2="236.37" y2="134.23"/>
        <line class="cls-5" x1="260.54" y1="129.23" x2="264.16" y2="130.36"/>
        <polygon class="cls-9" points="258.42 63.94 258.43 123.66 316.68 112.43 316.75 35.43 258.42 63.94"/>
        <polygon class="cls-5" points="258.42 63.94 258.43 123.66 316.68 112.43 316.75 35.43 258.42 63.94"/>
        <line class="cls-5" x1="338.18" y1="86.85" x2="338.19" y2="117.76"/>
        <path class="cls-9" d="M310.57,97.47s.33-.13.41.21c.08.34.08.61.02.91-.06.3-.22.34-.39.47-.17.13-.65.69-.8,1.63-.15.94-.07,2.3.03,3.58.1,1.28.37,2.19.58,2.8.22.61.6,1.29.6,1.29,0,0,.02.41-.09.67-.15.37-.32.26-.32.26,0,0-1.02-1.92-1.28-3.44-.26-1.52-.42-2.36-.41-4.01.01-1.65.31-2.39.71-3.16.39-.77.94-1.2.94-1.2"/>
        <polygon class="cls-5" points="162.29 98.36 188.76 97.88 188.72 136.25 162.24 136.29 162.29 98.36"/>
        <line class="cls-5" x1="162.19" y1="99.5" x2="188.68" y2="98.96"/>
        <line class="cls-5" x1="162.3" y1="116.71" x2="188.72" y2="116.36"/>
        <polyline class="cls-5" points="188.72 117.33 162.41 117.78 178.16 120.82 187.42 117.37"/>
        <polyline class="cls-5" points="162.57 99.48 178.14 103.56 187.31 98.98"/>
        <line class="cls-5" x1="178.14" y1="103.56" x2="178.14" y2="116.4"/>
        <line class="cls-5" x1="178.16" y1="120.82" x2="178.16" y2="135.14"/>
        <line class="cls-5" x1="162.25" y1="135.34" x2="188.66" y2="135.26"/>
        <polyline class="cls-5" points="162.24 136.29 181.15 137.5 215.19 132.35"/>
        <line id="Window14" class="cls-5" x1="69.29" y1="128.19" x2="109.53" y2="132.29"/>
        <line class="cls-5" x1="429.82" y1="287.01" x2="518.16" y2="316.97"/>
        <polyline class="cls-5" points="1.86 42.12 164.2 91.63 188.75 90.8 516.56 -76.08"/>
        <line class="cls-5" x1="164.2" y1="91.63" x2="164.18" y2="98.2"/>
        <line class="cls-5" x1="188.75" y1="90.8" x2="188.75" y2="97.88"/>
        <polyline class="cls-5" points="243.3 186.28 314.78 196.03 338.27 182.95 338.27 186.88 314.67 200.57 243.3 190.39 243.3 186.33 273.49 177.93"/>
        <line class="cls-5" x1="314.76" y1="196.03" x2="314.75" y2="203.96"/>
        <line class="cls-5" x1="245.63" y1="190.81" x2="245.75" y2="264.22"/>
        <line class="cls-5" x1="314.75" y1="203.44" x2="314.8" y2="293.43"/>
        <line class="cls-5" x1="338.32" y1="186.47" x2="338.67" y2="272.38"/>
        <line class="cls-5" x1="245.65" y1="213.56" x2="314.78" y2="229.1"/>
        <line class="cls-5" x1="245.74" y1="238.75" x2="314.69" y2="261.86"/>
        <line class="cls-5" x1="125.65" y1="188.4" x2="125.77" y2="256.9"/>
        <line class="cls-5" x1="171.46" y1="182.53" x2="171.32" y2="243.35"/>
        <line class="cls-5" x1="186.57" y1="181.07" x2="186.52" y2="238.96"/>
        <line class="cls-5" x1="185.18" y1="178.32" x2="185.18" y2="180.82"/>
        <polyline class="cls-5" points="272.19 178.31 272.19 171.89 273.39 171.37"/>
        <line class="cls-5" x1="272.2" y1="171.91" x2="234.42" y2="169.45"/>
        <polyline class="cls-5" points="243.31 186.29 243.31 189.39 202.41 183.31 202.38 180.84 234.42 175.03 234.41 169.39 235.43 169.12 273.42 171.32 273.42 177.84"/>
        <line class="cls-5" x1="202.47" y1="180.73" x2="243.29" y2="186.3"/>
        <polyline class="cls-5" points="203.37 183.41 203.37 193.06 242.85 200.79 242.85 189.23"/>
        <line class="cls-5" x1="243.69" y1="190.53" x2="243.99" y2="263.49"/>
        <polygon class="cls-5" points="242.82 201.58 203.6 193.78 203.71 234.74 243.1 249.42 242.82 201.58"/>
        <path class="cls-5" d="M207.16,198.81l29.22,6.99s.75.45.74,1.51c-.01,1.05-.82,1.92-.82,1.92l-28.99-7.48s-.62-.55-.56-1.65c.06-1.1.41-1.29.41-1.29Z"/>
        <path class="cls-5" d="M210.21,199.64s-.22.53-.19,1.33c.03.8.3,1.49.3,1.49"/>
        <path class="cls-5" d="M232.1,204.84s-.52.64-.51,1.65c.01,1.26.23,1.56.23,1.56"/>
        <path class="cls-5" d="M236.38,205.79s-.58.88-.52,1.92c.06,1.04.44,1.51.44,1.51"/>
        <polyline class="cls-2" points="235.41 205.56 236.68 205.16 237.7 205.36 238.17 206.51 237.09 206.86"/>
        <line class="cls-2" x1="237.7" y1="205.36" x2="236.29" y2="205.83"/>
        <polyline class="cls-2" points="209.3 199.28 210.49 198.9 211.44 199.09 211.77 199.9"/>
        <line class="cls-2" x1="211.44" y1="199.09" x2="210.12" y2="199.53"/>
        <path class="cls-2" d="M208.51,207.32l-.04,18.4s-.12,2.08.99,2.6c1.11.52,24.79,8.97,24.79,8.97,0,0,1.43.8,1.43-1.13v-21.65s.04-1.4-1.56-1.76c-1.6-.37-24.29-6.56-24.29-6.56,0,0-.73-.25-1.05.07-.34.34-.26,1.06-.26,1.06Z"/>
        <polyline class="cls-2" points="203.81 246.37 203.68 235.75 243.09 250.54 243.09 263.08"/>
        <line class="cls-5" x1="327.46" y1="119.16" x2="327.46" y2="182.04"/>
        <path class="cls-9" d="M267.23,206.29s.52-.61,1.14-.09c.37.31,1.24,1.21,2.32,1.53,1.08.32,3.56,1.02,6.03,1.22,2.48.2,4.44.16,4.44.16,0,0,.64.15.92.52.37.49-.07.67-.07.67,0,0-5.08.09-7.64-.43-2.56-.52-4.49-1-5.71-1.96-.86-.67-1.42-1.63-1.42-1.63"/>
        <path class="cls-9" d="M267.03,231.63s.56-.58,1.19-.04c.37.32,1.09,1.15,2.13,1.67,1.36.68,3.64,1.51,6.2,1.82,2.56.31,4.81,0,4.81,0,0,0,.65.18.93.56.37.51-.1.67-.1.67,0,0-4.82.27-7.45-.37-2.63-.64-5.08-1.63-6.3-2.64-.86-.71-1.41-1.69-1.41-1.69"/>
        <path class="cls-9" d="M267.21,258.38s.6-.54,1.19.05c.35.35,1,1.23,2,1.83,1.31.78,3.52,1.77,6.05,2.28,2.53.5,4.79.37,4.79.37,0,0,.64.22.89.63.33.54-.15.66-.15.66,0,0-4.82-.09-7.4-.92-2.58-.83-4.94-2-6.09-3.1-.8-.77-1.28-1.79-1.28-1.79"/>
        <path class="cls-9" d="M119.72,194.39s-.45-.67.02-1.11c.47-.45.97.16,1.05,1.13.08.97.16,4.09.14,5.29-.02,1.2-.08,3.28-.22,3.99-.14.71-.36,1.14-.67,1.26-.3.12-.53-.2-.67-.49-.14-.28-.1-.59.02-.65.12-.06.4.13.51-.3.14-.61.26-.77.28-4.5.02-3.73-.47-4.62-.47-4.62"/>
        <path class="cls-9" d="M130.78,193.08s-.46-.63,0-1.06c.46-.43.97.14,1.07,1.06.1.92.22,3.88.22,5.01,0,1.13-.03,3.11-.17,3.79-.13.67-.35,1.08-.65,1.2-.3.12-.53-.18-.67-.45-.15-.27-.11-.56.01-.61.12-.06.41.12.5-.3.13-.58.25-.73.22-4.27-.03-3.54-.53-4.37-.53-4.37"/>
        <path class="cls-9" d="M175.35,186.36s-.45-.51,0-.86c.46-.35.97.11,1.07.86.09.75.21,3.15.2,4.07,0,.92-.04,2.53-.18,3.08-.13.55-.35.88-.65.98-.3.1-.53-.15-.68-.36-.14-.22-.11-.45.01-.5.12-.05.41.1.5-.24.14-.47.25-.6.23-3.47-.02-2.87-.52-3.55-.52-3.55"/>
        <polyline class="cls-5" points="164.2 174.42 182.98 177.74 86.51 187.8 73.14 181.98"/>
        <polygon class="cls-5" points="139.52 179.06 145.76 181.1 165.63 179.02 157.78 177.4 139.52 179.06"/>
        <path class="cls-5" d="M135.54,179.62v2.58M135.54,179.62l5.59,1.99-37.25,3.84-5.13-2.24,36.79-3.59Z"/>
        <line class="cls-5" x1="157.78" y1="177.4" x2="157.78" y2="179.73"/>
        <rect class="cls-8" x="144.62" y="173.17" width=".73" height="1.97"/>
        <rect class="cls-5" x="144.62" y="173.16" width=".73" height="1.97"/>
        <path class="cls-8" d="M144.45,174.75h1.18s.28.07.35.37c.07.3.07,1.01.25,1.34.18.33.49.81.6.88.11.07.21.39.14.51-.07.12-1,.35-1.87.37-.86.02-1.71-.16-1.92-.26-.21-.1-.21-.39-.14-.49.07-.11.46-.21.57-.41.11-.19.32-.9.35-1.43.03-.53.05-.71.16-.78.11-.07.33-.11.33-.11"/>
        <path class="cls-11" d="M144.45,174.75h1.18s.28.07.35.37c.07.3.07,1.01.25,1.34.18.33.49.81.6.88.11.07.21.39.14.51-.07.12-1,.35-1.87.37-.86.02-1.71-.16-1.92-.26-.21-.1-.21-.39-.14-.49.07-.11.46-.21.57-.41.11-.19.32-.9.35-1.43.03-.53.05-.71.16-.78.11-.07.33-.11.33-.11Z"/>
        <path class="cls-5" d="M143.2,177.38s.56.25,1.36.28c1.29.05,2.27-.32,2.27-.32"/>
        <path class="cls-8" d="M134.96,175.53s.19-2.37,1.4-4.14c1.21-1.77,3.24-2.67,4.3-2.98,1.07-.31,2.82-.36,3.74.1.92.45,1.23,1.25,1.3,1.63.07.38.07,2.34.07,2.34v1.03s-.4.07-.78.09c-.38.02-.71-.07-.71-.07l-.02-2.8s-.09-1.2-1.54-1.1c-1.44.1-2.89.59-4.07,1.59-1.18.99-1.75,2.34-1.96,3-.21.66-.24,1.35-.24,1.35"/>
        <path class="cls-11" d="M134.96,175.53s.19-2.37,1.4-4.14c1.21-1.77,3.24-2.67,4.3-2.98,1.07-.31,2.82-.36,3.74.1.92.45,1.23,1.25,1.3,1.63.07.38.07,2.34.07,2.34v1.03s-.4.07-.78.09c-.38.02-.71-.07-.71-.07l-.02-2.8s-.09-1.2-1.54-1.1c-1.44.1-2.89.59-4.07,1.59-1.18.99-1.75,2.34-1.96,3-.21.66-.24,1.35-.24,1.35"/>
        <path class="cls-5" d="M144.24,172.74s-.51-.21-.78-.04c-.29.19-.37.44-.26.71.11.26.39.35.58.35s.5-.24.5-.24"/>
        <path class="cls-5" d="M145.79,172.76s.79-.05,1.15-.14c.35-.09,1-.46,1.16-.48.16-.02.39.19.44.64.05.46-.22.7-.31.7s-.57-.19-.88-.2c-.32-.02-1.54-.03-1.54-.03"/>
        <path class="cls-5" d="M148.09,172.14s-.18.17-.13.67c.05.49.27.67.27.67"/>
        <rect class="cls-9" x="134.77" y="176.41" width="1.81" height="1.7"/>
        <rect class="cls-5" x="134.77" y="176.41" width="1.81" height="1.7"/>
        <path class="cls-8" d="M137.3,179.11s-.63.13-1.62.13-1.63-.13-1.63-.13v-1.21s1.05.09,1.64.09,1.61-.09,1.61-.09v1.21Z"/>
        <path class="cls-11" d="M137.3,179.11s-.63.13-1.62.13-1.63-.13-1.63-.13v-1.21s1.05.09,1.64.09,1.61-.09,1.61-.09v1.21Z"/>
        <path class="cls-8" d="M136.77,176.43s-.43.11-1.1.11-1.1-.11-1.1-.11v-1.02s.71.07,1.11.07,1.09-.07,1.09-.07v1.02Z"/>
        <path class="cls-11" d="M136.77,176.43s-.43.11-1.1.11-1.1-.11-1.1-.11v-1.02s.71.07,1.11.07,1.09-.07,1.09-.07v1.02Z"/>
        <rect class="cls-9" x="125.07" y="175.1" width=".73" height="1.97"/>
        <rect class="cls-5" x="125.07" y="175.1" width=".73" height="1.97"/>
        <path class="cls-8" d="M124.9,176.61h1.24s.29.07.37.37c.07.3.07,1.01.26,1.34.18.33.52.81.63.88.11.07.22.39.15.51-.07.12-1.05.35-1.96.37-.9.02-1.79-.16-2.01-.26-.22-.11-.22-.39-.15-.49.07-.11.48-.21.59-.41.11-.19.33-.9.37-1.43.04-.53.06-.71.17-.78.11-.07.35-.1.35-.1"/>
        <path class="cls-11" d="M124.9,176.61h1.24s.29.07.37.37c.07.3.07,1.01.26,1.34.18.33.52.81.63.88.11.07.22.39.15.51-.07.12-1.05.35-1.96.37-.9.02-1.79-.16-2.01-.26-.22-.11-.22-.39-.15-.49.07-.11.48-.21.59-.41.11-.19.33-.9.37-1.43.04-.53.06-.71.17-.78.11-.07.35-.1.35-.1Z"/>
        <path class="cls-5" d="M123.59,179.24s.59.25,1.42.28c1.35.05,2.38-.32,2.38-.32"/>
        <rect class="cls-5" x="122.24" y="174.27" width="5.12" height=".48" transform="translate(-17.17 13.66) rotate(-5.86)"/>
        <path class="cls-8" d="M122.83,174.95c0,.44-.36.8-.8.8s-.8-.36-.8-.8.36-.8.8-.8.8.36.8.8"/>
        <path class="cls-11" d="M122.83,174.95c0,.44-.36.8-.8.8s-.8-.36-.8-.8.36-.8.8-.8.8.36.8.8Z"/>
        <path class="cls-8" d="M127.99,174.3c0,.35-.29.64-.64.64s-.64-.29-.64-.64.29-.64.64-.64.64.29.64.64"/>
        <circle class="cls-11" cx="127.35" cy="174.3" r=".64"/>
        <path class="cls-8" d="M126.25,174.4c0,.44-.36.8-.8.8s-.8-.36-.8-.8.36-.8.8-.8.8.36.8.8"/>
        <circle class="cls-11" cx="125.45" cy="174.4" r=".8"/>
        <polygon class="cls-9" points="316.7 294.87 316.7 107.87 393.75 90.36 393.75 327.5 316.7 294.87"/>
        <polygon class="cls-1" points="316.7 294.87 316.7 107.87 393.75 90.36 393.75 327.5 316.7 294.87"/>
        <polyline class="cls-5" points="316.77 286.28 393.65 318.2 429.8 277.3"/>
        <polyline class="cls-9" points="316.8 35.45 408.7 -9.39 429.96 -.05 429.96 62.41 408.7 55.02 316.64 82.16 338.19 87.06 429.86 62.59"/>
        <polyline class="cls-1" points="316.8 35.45 408.7 -9.39 429.96 -.05 429.96 62.41 408.7 55.02 316.64 82.16 338.19 87.06 429.86 62.59"/>
        <line class="cls-5" x1="408.7" y1="55.01" x2="408.7" y2="-9.39"/>
        <path class="cls-9" d="M358.64,52.54s.33-.13.41.21c.08.34.08.61.02.91-.06.3-.22.34-.39.47-.17.13-.65.69-.8,1.63-.15.94-.07,2.3.03,3.58.1,1.28.37,2.19.58,2.8.22.61.6,1.29.6,1.29,0,0,.02.41-.09.67-.15.37-.32.26-.32.26,0,0-1.02-1.92-1.28-3.44-.26-1.52-.42-2.36-.41-4.01.01-1.65.31-2.39.71-3.16.39-.77.94-1.2.94-1.2"/>
        <path class="cls-9" d="M369.46,49.06s.34-.14.42.21c.08.34.08.62.02.93-.06.31-.23.34-.4.48-.17.14-.67.71-.82,1.67-.15.96-.07,2.35.03,3.66.1,1.31.38,2.24.6,2.87.22.62.61,1.32.61,1.32,0,0,.02.42-.09.69-.16.37-.33.26-.33.26,0,0-1.04-1.96-1.31-3.52-.27-1.55-.43-2.42-.42-4.1.02-1.69.32-2.45.72-3.24.4-.79.96-1.23.96-1.23"/>
        <line class="cls-5" x1="316.75" y1="226.86" x2="393.77" y2="245.93"/>
        <line class="cls-5" x1="351" y1="100.06" x2="351" y2="235.58"/>
        <path class="cls-5" d="M320.84,235l63.09,16.96s1.6.97,1.47,3.03c-.13,2.06-1.98,3.66-1.98,3.66l-62.55-17.89s-1.29-1.14-1.07-3.28c.23-2.14,1.03-2.47,1.03-2.47Z"/>
        <path class="cls-5" d="M327.41,236.96s-.53,1.01-.54,2.58c-.02,1.57.52,2.94.52,2.94"/>
        <path class="cls-5" d="M374.7,249.6s-1.2,1.2-1.28,3.18c-.1,2.47.35,3.07.35,3.07"/>
        <path class="cls-5" d="M383.93,251.96s-1.36,1.65-1.32,3.69c.03,2.04.82,3,.82,3"/>
        <polyline class="cls-2" points="381.85 251.4 384.65 250.75 386.85 251.25 387.77 253.56 385.39 254.12"/>
        <line class="cls-2" x1="386.85" y1="251.25" x2="383.74" y2="252.02"/>
        <polyline class="cls-2" points="325.47 236.16 328.1 235.55 330.16 236.02 330.81 237.66"/>
        <line class="cls-2" x1="330.16" y1="236.02" x2="327.24" y2="236.74"/>
        <path class="cls-11" d="M346.16,141.08l.09,61.15s-.33,1.83-1.66,1.83c-2.09,0-2.23-1.9-2.23-1.9l.19-60.78s.5-1.38,1.89-1.48c1.39-.1,1.73,1.18,1.73,1.18Z"/>
        <path class="cls-5" d="M346.1,145.5s-.76-.73-1.77-.72c-1.43.02-1.85.94-1.85.94"/>
        <path class="cls-5" d="M346.24,198.27s-.57.78-2.31.79c-1.09,0-1.59-.67-1.59-.67"/>
        <path class="cls-11" d="M360.23,140.19l.09,64.01s-.34,1.91-1.74,1.91c-2.19,0-2.34-1.99-2.34-1.99l.2-63.62s.52-1.45,1.97-1.55c1.45-.11,1.81,1.24,1.81,1.24Z"/>
        <path class="cls-5" d="M360.18,144.82s-.8-.77-1.86-.75c-1.5.02-1.93.98-1.93.98"/>
        <path class="cls-5" d="M360.33,200.06s-.6.82-2.42.83c-1.14,0-1.66-.7-1.66-.7"/>
        <polyline class="cls-5" points="74.27 194.74 72.43 195.02 57.57 187.11 57.57 183.39 72.45 191.31 185.18 178.31 202.35 180.78 202.38 183.29 185.08 180.82 74.2 194.76 74.2 271.77 186.52 238.96 314.81 293.67 316.72 291.95"/>
        <line class="cls-6" x1="72.45" y1="191.31" x2="72.45" y2="194.94"/>
        <polyline class="cls-6" points="74.2 271.94 59.55 255.92 58.91 187.86"/>
        <rect class="cls-5" x="366.2" y="122.04" width="17.8" height="14.78" transform="translate(164.51 465.73) rotate(-76.98)"/>
        <path class="cls-9" d="M380.34,120.46c0,1.67-1.35,3.02-3.02,3.02s-3.02-1.35-3.02-3.02,1.35-3.02,3.02-3.02,3.02,1.35,3.02,3.02"/>
        <path class="cls-5" d="M380.34,120.46c0,1.67-1.35,3.02-3.02,3.02s-3.02-1.35-3.02-3.02,1.35-3.02,3.02-3.02,3.02,1.35,3.02,3.02Z"/>
        <rect class="cls-5" x="374.58" y="145.56" width="12.44" height="14.98" transform="translate(-2.52 6.42) rotate(-.96)"/>
        <polygon class="cls-9" points="378 143.06 376.65 150.32 383.62 147.86 378 143.06"/>
        <polygon class="cls-5" points="378 143.06 376.65 150.32 383.62 147.86 378 143.06"/>
        <path class="cls-8" d="M207.52,187.74s.27-.62,1.41-.63c1.09-.01,1.53.77,1.71,1.13.19.38.36,1.27.13,2.22-.18.73-.74,1.48-1.67,1.52-.74.03-1.28-.41-1.28-.41"/>
        <path class="cls-2" d="M207.52,187.74s.27-.62,1.41-.63c1.09-.01,1.53.77,1.71,1.13.19.38.36,1.27.13,2.22-.18.73-.74,1.48-1.67,1.52-.74.03-1.28-.41-1.28-.41"/>
        <path class="cls-9" d="M207.53,187.79c.17-.14.48-.29.98-.28.97.01,1.33.79,1.43,1.02.12.28.27,1.09.09,1.7-.18.61-.62,1.23-1.41,1.26-.24.01-.45-.02-.61-.06"/>
        <path class="cls-2" d="M207.53,187.79c.17-.14.48-.29.98-.28.97.01,1.33.79,1.43,1.02.12.28.27,1.09.09,1.7-.18.61-.62,1.23-1.41,1.26-.24.01-.45-.02-.61-.06"/>
        <path class="cls-9" d="M206.41,188.3s.46-.54,1.01-.53c.86,0,1.34.76,1.49,1.25.17.53.08,1.27-.12,1.63-.27.51-.77.89-1.29.9-.65,0-1.36-.56-1.54-1.18-.16-.54-.09-1,.05-1.44.09-.27.4-.64.4-.64"/>
        <path class="cls-5" d="M206.41,188.3s.46-.54,1.01-.53c.86,0,1.34.76,1.49,1.25.17.53.08,1.27-.12,1.63-.27.51-.77.89-1.29.9-.65,0-1.36-.56-1.54-1.18-.16-.54-.09-1,.05-1.44.09-.27.4-.64.4-.64Z"/>
        <path class="cls-2" d="M208.06,188.54s-.84-.04-1.21.76c-.43.92-.14,1.43-.14,1.43"/>
        <path class="cls-8" d="M213.28,188.61s.27-.62,1.41-.63c1.09-.01,1.53.77,1.71,1.13.19.38.36,1.27.13,2.22-.18.73-.74,1.48-1.67,1.52-.74.03-1.28-.41-1.28-.41"/>
        <path class="cls-2" d="M213.28,188.61s.27-.62,1.41-.63c1.09-.01,1.53.77,1.71,1.13.19.38.36,1.27.13,2.22-.18.73-.74,1.48-1.67,1.52-.74.03-1.28-.41-1.28-.41"/>
        <path class="cls-8" d="M213.29,188.66c.17-.14.48-.29.98-.28.97.01,1.32.79,1.43,1.02.12.28.27,1.09.09,1.7-.18.61-.62,1.23-1.41,1.26-.24.01-.45-.02-.61-.06"/>
        <path class="cls-10" d="M213.29,188.66c.17-.14.48-.29.98-.28.97.01,1.32.79,1.43,1.02.12.28.27,1.09.09,1.7-.18.61-.62,1.23-1.41,1.26-.24.01-.45-.02-.61-.06"/>
        <path class="cls-9" d="M212.17,189.17s.46-.54,1.01-.53c.86,0,1.34.76,1.49,1.25.17.53.08,1.27-.12,1.63-.27.51-.77.89-1.29.9-.65,0-1.36-.56-1.54-1.18-.16-.54-.09-1,.05-1.44.09-.27.4-.64.4-.64"/>
        <path class="cls-5" d="M212.17,189.17s.46-.54,1.01-.53c.86,0,1.34.76,1.49,1.25.17.53.08,1.27-.12,1.63-.27.51-.77.89-1.29.9-.65,0-1.36-.56-1.54-1.18-.16-.54-.09-1,.05-1.44.09-.27.4-.64.4-.64Z"/>
        <path class="cls-2" d="M213.81,189.41s-.84-.04-1.21.76c-.43.92-.14,1.43-.14,1.43"/>
        <path class="cls-8" d="M219.04,189.6s.27-.62,1.41-.63c1.09-.01,1.53.77,1.71,1.13.19.38.36,1.27.13,2.22-.18.73-.74,1.48-1.67,1.52-.74.03-1.28-.41-1.28-.41"/>
        <path class="cls-2" d="M219.04,189.6s.27-.62,1.41-.63c1.09-.01,1.53.77,1.71,1.13.19.38.36,1.27.13,2.22-.18.73-.74,1.48-1.67,1.52-.74.03-1.28-.41-1.28-.41"/>
        <path class="cls-9" d="M219.05,189.65c.17-.14.48-.29.98-.28.97.01,1.33.79,1.43,1.02.12.28.27,1.09.09,1.7-.18.61-.62,1.23-1.41,1.26-.24.01-.45-.02-.61-.06"/>
        <path class="cls-2" d="M219.05,189.65c.17-.14.48-.29.98-.28.97.01,1.33.79,1.43,1.02.12.28.27,1.09.09,1.7-.18.61-.62,1.23-1.41,1.26-.24.01-.45-.02-.61-.06"/>
        <path class="cls-9" d="M217.93,190.17s.46-.54,1.01-.53c.86,0,1.34.76,1.49,1.25.17.54.08,1.27-.12,1.63-.27.51-.77.89-1.29.9-.65,0-1.36-.56-1.54-1.18-.16-.54-.09-1,.05-1.44.09-.27.4-.64.4-.64"/>
        <path class="cls-5" d="M217.93,190.17s.46-.54,1.01-.53c.86,0,1.34.76,1.49,1.25.17.54.08,1.27-.12,1.63-.27.51-.77.89-1.29.9-.65,0-1.36-.56-1.54-1.18-.16-.54-.09-1,.05-1.44.09-.27.4-.64.4-.64Z"/>
        <path class="cls-2" d="M219.57,190.41s-.84-.04-1.21.76c-.43.93-.14,1.43-.14,1.43"/>
        <path class="cls-8" d="M225.03,190.43s.27-.62,1.41-.63c1.09-.01,1.53.77,1.71,1.13.19.38.36,1.27.13,2.22-.18.73-.74,1.48-1.67,1.52-.74.03-1.28-.41-1.28-.41"/>
        <path class="cls-2" d="M225.03,190.43s.27-.62,1.41-.63c1.09-.01,1.53.77,1.71,1.13.19.38.36,1.27.13,2.22-.18.73-.74,1.48-1.67,1.52-.74.03-1.28-.41-1.28-.41"/>
        <path class="cls-9" d="M225.04,190.48c.17-.14.48-.29.98-.28.97.01,1.32.79,1.43,1.02.12.28.27,1.09.09,1.7-.18.61-.62,1.23-1.41,1.26-.24.01-.45-.02-.61-.06"/>
        <path class="cls-2" d="M225.04,190.48c.17-.14.48-.29.98-.28.97.01,1.32.79,1.43,1.02.12.28.27,1.09.09,1.7-.18.61-.62,1.23-1.41,1.26-.24.01-.45-.02-.61-.06"/>
        <path class="cls-9" d="M223.92,191s.46-.54,1.01-.53c.86,0,1.34.76,1.49,1.25.17.54.08,1.27-.12,1.63-.27.51-.77.89-1.29.9-.65,0-1.36-.56-1.54-1.18-.16-.54-.09-1,.05-1.44.09-.27.4-.64.4-.64"/>
        <path class="cls-5" d="M223.92,191s.46-.54,1.01-.53c.86,0,1.34.76,1.49,1.25.17.54.08,1.27-.12,1.63-.27.51-.77.89-1.29.9-.65,0-1.36-.56-1.54-1.18-.16-.54-.09-1,.05-1.44.09-.27.4-.64.4-.64Z"/>
        <path class="cls-2" d="M225.57,191.24s-.84-.04-1.21.76c-.43.93-.14,1.43-.14,1.43"/>
        <path class="cls-8" d="M236.06,192.32s.27-.62,1.41-.63c1.09-.01,1.53.77,1.71,1.13.19.38.36,1.27.13,2.22-.18.73-.74,1.48-1.67,1.52-.74.03-1.28-.41-1.28-.41"/>
        <path class="cls-2" d="M236.06,192.32s.27-.62,1.41-.63c1.09-.01,1.53.77,1.71,1.13.19.38.36,1.27.13,2.22-.18.73-.74,1.48-1.67,1.52-.74.03-1.28-.41-1.28-.41"/>
        <path class="cls-9" d="M236.07,192.37c.17-.14.48-.29.98-.28.97.01,1.32.79,1.43,1.02.12.28.27,1.09.09,1.7-.18.61-.62,1.23-1.41,1.26-.24.01-.45-.02-.61-.06"/>
        <path class="cls-2" d="M236.07,192.37c.17-.14.48-.29.98-.28.97.01,1.32.79,1.43,1.02.12.28.27,1.09.09,1.7-.18.61-.62,1.23-1.41,1.26-.24.01-.45-.02-.61-.06"/>
        <path class="cls-9" d="M234.94,192.88s.46-.54,1.01-.53c.86,0,1.34.76,1.49,1.25.17.53.08,1.27-.12,1.63-.27.51-.77.89-1.29.9-.65,0-1.36-.56-1.54-1.18-.16-.54-.09-1,.05-1.44.09-.27.4-.64.4-.64"/>
        <path class="cls-5" d="M234.94,192.88s.46-.54,1.01-.53c.86,0,1.34.76,1.49,1.25.17.53.08,1.27-.12,1.63-.27.51-.77.89-1.29.9-.65,0-1.36-.56-1.54-1.18-.16-.54-.09-1,.05-1.44.09-.27.4-.64.4-.64Z"/>
        <path class="cls-2" d="M236.59,193.12s-.84-.04-1.21.76c-.43.93-.14,1.43-.14,1.43"/>
        <line class="cls-4" x1="223.4" y1="178.76" x2="222.31" y2="181.91"/>
        <line class="cls-4" x1="216.59" y1="180.31" x2="229.12" y2="180.36"/>
        <line class="cls-4" x1="218.81" y1="179.2" x2="226.9" y2="181.47"/>
        <line class="cls-4" x1="218.04" y1="181.43" x2="227.67" y2="179.24"/>
        <line class="cls-4" x1="221.1" y1="178.86" x2="224.61" y2="181.81"/>
        <line class="cls-4" x1="216.82" y1="180.88" x2="228.89" y2="179.79"/>
        <line class="cls-4" x1="217.35" y1="179.67" x2="228.36" y2="180.99"/>
        <line class="cls-4" x1="219.83" y1="181.76" x2="225.88" y2="178.91"/>
        <path class="cls-9" d="M220.59,180.35c-.1.3.82.55,2.07.55,1.25,0,2.35-.23,2.45-.54.1-.3-.82-.55-2.07-.55-1.25,0-2.35.24-2.45.54"/>
        <line class="cls-3" x1="241.52" y1="180.91" x2="240.38" y2="184.23"/>
        <line class="cls-3" x1="234.34" y1="182.54" x2="247.56" y2="182.6"/>
        <line class="cls-3" x1="236.68" y1="181.38" x2="245.22" y2="183.76"/>
        <line class="cls-3" x1="235.87" y1="183.73" x2="246.03" y2="181.42"/>
        <line class="cls-3" x1="239.1" y1="181.01" x2="242.8" y2="184.13"/>
        <line class="cls-3" x1="234.58" y1="183.14" x2="247.33" y2="182"/>
        <line class="cls-3" x1="235.13" y1="181.87" x2="246.77" y2="183.27"/>
        <line class="cls-3" x1="237.75" y1="184.08" x2="244.15" y2="181.06"/>
        <path class="cls-9" d="M238.55,182.58c-.11.32.87.58,2.19.59,1.32,0,2.48-.25,2.59-.57.11-.32-.87-.58-2.19-.59-1.32,0-2.48.25-2.59.57"/>
        <line class="cls-4" x1="237.14" y1="176.26" x2="236.06" y2="179.4"/>
        <line class="cls-4" x1="230.34" y1="177.8" x2="242.86" y2="177.86"/>
        <line class="cls-4" x1="232.55" y1="176.7" x2="240.64" y2="178.96"/>
        <line class="cls-4" x1="231.79" y1="178.92" x2="241.41" y2="176.74"/>
        <line class="cls-4" x1="234.84" y1="176.35" x2="238.35" y2="179.3"/>
        <line class="cls-4" x1="230.56" y1="178.37" x2="242.63" y2="177.29"/>
        <line class="cls-4" x1="231.09" y1="177.17" x2="242.11" y2="178.49"/>
        <line class="cls-4" x1="233.57" y1="179.26" x2="239.62" y2="176.4"/>
        <path class="cls-9" d="M234.33,177.84c-.1.3.82.55,2.07.55,1.25,0,2.35-.23,2.45-.53.1-.3-.82-.55-2.07-.56-1.25,0-2.35.23-2.45.54"/>
        <line class="cls-3" x1="253.52" y1="177.69" x2="252.38" y2="181.01"/>
        <line class="cls-3" x1="246.33" y1="179.32" x2="259.56" y2="179.37"/>
        <line class="cls-3" x1="248.67" y1="178.15" x2="257.22" y2="180.54"/>
        <line class="cls-3" x1="247.87" y1="180.5" x2="258.03" y2="178.19"/>
        <polyline id="Fridge_right_panel" class="cls-5" points="393.75 90.41 429.8 107.07 429.8 287.18 393.75 327.5"/>
        <line class="cls-3" x1="251.09" y1="177.79" x2="254.8" y2="180.91"/>
        <line class="cls-3" x1="246.57" y1="179.92" x2="259.32" y2="178.77"/>
        <line class="cls-3" x1="247.13" y1="178.65" x2="258.77" y2="180.04"/>
        <line class="cls-3" x1="249.75" y1="180.85" x2="256.14" y2="177.84"/>
        <path class="cls-9" d="M250.55,179.36c-.11.32.87.58,2.19.59,1.32,0,2.48-.25,2.59-.57.11-.32-.87-.58-2.19-.59-1.32,0-2.48.25-2.59.57"/>
        <line class="cls-8" x1="363.83" y1="12.51" x2="363.83" y2="68.27"/>
        <line class="cls-5" x1="363.83" y1="12.51" x2="363.83" y2="68.27"/>
        <line class="cls-5" x1="59.55" y1="255.92" x2=".34" y2="270.9"/>
        <polyline id="BT_14" class="cls-5" points="242.01 123.83 255.29 127.67 307.85 119.23 316.65 118.12 316.7 182.84 181.25 171.98 1.59 188"/>
        <line class="cls-5" x1="194.78" y1="135.44" x2="194.78" y2="172.15"/>
        <polygon class="cls-5" points="233.51 76 214.94 85.08 214.96 119.4 233.8 114.57 233.51 76"/>
        <polygon class="cls-6" points="233.51 75.99 258.42 63.89 258.42 107.76 233.8 114.57 233.51 75.99"/>
        <polygon class="cls-5" points="188.76 97.88 214.96 85.13 214.96 131.38 188.72 136.25 188.76 97.88"/>
      </g>
      <polygon class="cls-7" points="0 373.77 518.22 373.24 518.22 0 0 .53 0 373.77"/>
    </g>
  </g>
  <g id="Window">
    <polyline id="Window10" class="cls-5" points="108.54 132.27 108.88 85.09 152.89 97.12 153.07 135.68"/>
    <polyline id="Window9" class="cls-5" points="108.73 88.18 149.75 99 149.8 136.35"/>
    <line id="Window8" class="cls-5" x1="149.75" y1="99" x2="152.89" y2="97.12"/>
    <polyline id="Window7" class="cls-5" points="109.53 132.29 109.53 127.36 147.77 131.48 147.77 158.95 109.7 159.03"/>
    <line id="Window6" class="cls-5" x1="109.58" y1="128.58" x2="147.6" y2="132.54"/>
    <polyline id="Window5" class="cls-5" points="108.56 125.98 148.58 130.5 148.62 159.8 109.62 159.97"/>
    <polyline id="Window4" class="cls-5" points="108.83 89.83 148.54 99.96 148.58 129.12 108.55 124.48"/>
    <polyline id="Window3" class="cls-5" points="108.74 91.01 147.74 100.66 147.83 128.93"/>
    <line id="Window_2" class="cls-5" x1="108.78" y1="92.37" x2="147.6" y2="101.74"/>
    <polyline id="Window1" class="cls-5" points="108.78 93.54 146.94 102.68 146.94 128.79"/>
    <line id="Window11" class="cls-5" x1="149.39" y1="161.53" x2="152.57" y2="162.06"/>
    <polyline id="Window13" class="cls-5" points="162.4 136.32 152.6 135.7 149.25 136.44 149.39 161.53 109.72 162.14"/>
    <line id="Window14-2" data-name="Window14" class="cls-5" x1="109.53" y1="132.29" x2="109.68" y2="162.93"/>
    <polyline id="Window14-3" data-name="Window14" class="cls-5" points="109.68 162.93 152.57 162.07 152.6 135.71"/>
  </g>
  <g id="Small_window">
    <polyline id="Window10-2" data-name="Window10" class="cls-5" points="17.63 124.17 18.03 68.85 69.63 82.96 69.83 128.16"/>
    <polyline id="Window9-2" data-name="Window9" class="cls-5" points="17.85 72.47 65.94 85.16 66 128.94"/>
    <line id="Window8-2" data-name="Window8" class="cls-5" x1="65.94" y1="85.16" x2="69.63" y2="82.96"/>
    <polyline id="Window7-2" data-name="Window7" class="cls-5" points="18.79 124.19 18.79 118.41 63.62 123.23 63.62 155.44 18.99 155.54"/>
    <line id="Window6-2" data-name="Window6" class="cls-5" x1="18.85" y1="119.84" x2="63.43" y2="124.48"/>
    <polyline id="Window5-2" data-name="Window5" class="cls-5" points="17.65 116.78 64.57 122.09 64.62 156.44 18.89 156.63"/>
    <polyline id="Window4-2" data-name="Window4" class="cls-5" points="17.97 74.41 64.52 86.28 64.58 120.47 17.64 115.03"/>
    <polyline id="Window3-2" data-name="Window3" class="cls-5" points="17.86 75.79 63.59 87.11 63.7 120.25"/>
    <line id="Window_2-2" data-name="Window_2" class="cls-5" x1="17.91" y1="77.38" x2="63.42" y2="88.37"/>
    <polyline id="Window1-2" data-name="Window1" class="cls-5" points="17.91 78.75 62.65 89.47 62.65 120.09"/>
    <line id="Window11-2" data-name="Window11" class="cls-5" x1="65.52" y1="158.47" x2="69.25" y2="159.09"/>
    <polyline id="Window13-2" data-name="Window13" class="cls-5" points="69.29 128.19 65.35 129.05 65.52 158.47 19.01 159.18"/>
    <line id="Window14-4" data-name="Window14" class="cls-5" x1="18.79" y1="124.19" x2="18.96" y2="160.1"/>
    <polyline id="Window14-5" data-name="Window14" class="cls-5" points="18.96 160.1 69.25 159.1 69.29 128.19"/>
  </g>
</svg>