<?xml version="1.0" encoding="UTF-8"?>
<svg id="Open_food_trash" data-name="Open food + trash" xmlns="http://www.w3.org/2000/svg" viewBox="0 0 517.92 445.76">
  <defs>
    <style>
      .cls-1, .cls-2, .cls-3, .cls-4, .cls-5, .cls-6, .cls-7, .cls-8, .cls-9, .cls-10, .cls-11, .cls-12, .cls-13, .cls-14, .cls-15, .cls-16, .cls-17, .cls-18 {
        fill: none;
      }

      .cls-1, .cls-2, .cls-3, .cls-4, .cls-6, .cls-7, .cls-8, .cls-9, .cls-10, .cls-11, .cls-12, .cls-13, .cls-14, .cls-15, .cls-16, .cls-17, .cls-18 {
        stroke: #075ca9;
      }

      .cls-1, .cls-2, .cls-7, .cls-9, .cls-11, .cls-14, .cls-15, .cls-16, .cls-17, .cls-18 {
        stroke-linejoin: round;
      }

      .cls-1, .cls-7, .cls-10 {
        stroke-width: .38px;
      }

      .cls-2 {
        stroke-width: .41px;
      }

      .cls-2, .cls-6, .cls-7, .cls-8, .cls-11, .cls-18 {
        stroke-linecap: round;
      }

      .cls-3, .cls-4, .cls-6, .cls-8, .cls-10, .cls-12 {
        stroke-miterlimit: 10;
      }

      .cls-3, .cls-11, .cls-14 {
        stroke-width: .44px;
      }

      .cls-4, .cls-15 {
        stroke-width: .43px;
      }

      .cls-5, .cls-19, .cls-20 {
        stroke-width: 0px;
      }

      .cls-6, .cls-9, .cls-12, .cls-18 {
        stroke-width: .45px;
      }

      .cls-8 {
        stroke-width: .16px;
      }

      .cls-19 {
        fill: #075ca9;
      }

      .cls-13 {
        stroke-width: .33px;
      }

      .cls-16 {
        stroke-width: .43px;
      }

      .cls-20 {
        fill: #fff;
      }

      .cls-17 {
        stroke-width: .38px;
      }
    </style>
  </defs>
  <g id="Trash_and_radiator" data-name="Trash and radiator">
    <path class="cls-12" d="M483.2,372.58l1.02-58.1s.27-2.67-1.96-2.01c-2.5.74-5.76,1.79-5.76,1.79"/>
    <path class="cls-12" d="M471.78,315.91l-5.83,1.81s-1.88.42-1.89,2.98c0,2.78.3,62.7.3,62.7"/>
    <path class="cls-12" d="M461.57,394.93l-.21-1.69s.71-2.61.75-3.63c.04-1.02.17-2.91-.1-5.49-.28-2.57-.62-3.32-.71-3.96-.21-1.49-.51-8.38-.51-12.59,0-2.78-.3-47.19-.3-47.36,0-.16.34-2.73,2.72-3.7,2.43-.99,17.23-5.51,17.23-5.51,0,0,1.25-.34,1.7.13.46.47.58,1.12.58,1.12"/>
    <path class="cls-12" d="M483.13,323.9v-1.64s-.3-1.34-1.52-1.11c-1.22.23-1.85,2.28-1.84,3.17,0,.89-.66,40.24-.66,40.24,0,0-.04,2.22,1.39,1.58,1.51-.68,1.9-2.44,1.89-4.02,0-.85.74-38.22.74-38.22Z"/>
    <path class="cls-12" d="M469.77,330.24l-.06-1.86s-.14-2.1-1.99-1.81-2.2,3.84-2.2,4.71c0,.87.1,41.29.1,41.29,0,0-.07,2.82,1.68,1.93,1.75-.89,2.24-3.16,2.26-4.85.02-1.69.21-39.42.21-39.42Z"/>
    <path class="cls-4" d="M472.7,320.66c-.1,3.55,1.42,6.43,3.39,6.44,1.97.01,3.66-2.86,3.76-6.4.1-3.55-1.42-6.43-3.39-6.44-1.98-.01-3.66,2.86-3.76,6.4Z"/>
    <path class="cls-15" d="M476.45,314.26s-1.2-.07-1.93.08c-1.03.22-2.27.67-2.96,1.98-.69,1.31-1.09,3.62-1.03,5.28.05,1.67.3,3.73,1.37,4.78.93.96,1.24.99,1.69,1.05.42.12,2.64-.31,2.64-.31"/>
    <polygon class="cls-15" points="478.68 318.53 476.82 319.46 476.13 322.11 477.4 323.97 479.61 322.4 479.77 319.99 478.68 318.53"/>
    <polyline class="cls-4" points="478.68 318.53 477.54 317.88 475.7 318.98 474.96 322.16 476.36 324.13 477.4 323.97"/>
    <line class="cls-4" x1="475.7" y1="318.98" x2="476.82" y2="319.46"/>
    <line class="cls-4" x1="474.96" y1="322.16" x2="476.13" y2="322.11"/>
    <path class="cls-12" d="M472.23,366.59h0c.69-.21,1.25-1.02,1.25-1.81v-33.82c0-.78-.56-1.24-1.24-1.03-.69.21-1.25,1.02-1.25,1.8v33.82c0,.78.56,1.25,1.24,1.03Z"/>
    <path class="cls-12" d="M476.4,364.3h0c.69-.2,1.26-1,1.27-1.77l.44-33.4c0-.77-.54-1.24-1.23-1.03-.69.2-1.26,1-1.27,1.77l-.44,33.41c-.01.77.54,1.24,1.23,1.03Z"/>
    <path class="cls-12" d="M479.89,373.5s.26-3.54-1.72-4.66c-1.98-1.12-4.63,1.5-5.19,3.13-.56,1.63-1.02,5.5.58,6.66,1.6,1.16,3.9-.91,3.9-.91"/>
    <path class="cls-12" d="M478.16,368.84s.05-.7-.81-1.47c-.86-.77-1.48-.71-1.95-.71-.95,0-3.15,1.32-3.99,3.26-.95,2.21-1,4.47-.86,5.74.13,1.27.81,2.61,1.74,3.17,1.44.87,3.57-.15,3.57-.15"/>
    <polyline class="cls-12" points="479.92 373.62 478.43 372.1 476.76 373.96 476.63 376.74 477.74 377.66 478.19 377.56"/>
    <polyline class="cls-12" points="478.36 372.02 477.47 371.36 475.4 373.52 475.26 376.71 477.07 378.02 477.74 377.65"/>
    <line class="cls-12" x1="475.26" y1="376.71" x2="476.63" y2="376.74"/>
    <line class="cls-12" x1="475.4" y1="373.52" x2="476.76" y2="373.96"/>
    <path class="cls-12" d="M479.75,373.64l-.89-.33s-.91-.02-1.35.87c-.43.89-.11,2.06-.03,2.27.08.21.74.6.74.6"/>
    <path class="cls-9" d="M482.67,374.2l-1.82-.94-1.45.58-1.08,2.38s-.13,1.57-.06,1.59c.07.02,2.57,1.47,2.57,1.47l-.25-1.69.9-2.38,1.19-.74"/>
    <line class="cls-12" x1="481.48" y1="375.2" x2="479.4" y2="373.84"/>
    <line class="cls-12" x1="480.59" y1="377.59" x2="478.32" y2="376.22"/>
    <path class="cls-12" d="M485.81,375.7l-.02.87s1.14.97,1.25,1.8c.11.82.06,2.6.06,2.6"/>
    <path class="cls-12" d="M487.06,384.19s-.48,10.11-.51,10.44c-.03.33-.42,1.2-1.69,1.02-1.27-.18-1.72-.81-1.74-1.18-.02-.36.05-10.99.05-10.99"/>
    <path class="cls-18" d="M487.23,380.94s.39.42.4.83c0,.41-.02.67-.02.67,0,0-.98.11-1.61.09-.74-.02-1.21-.02-2.02-.4-.81-.38-1.16-.6-1.15-.7.09-.78.68-1.14.68-1.14,0,0,.77.72,1.72.84.95.12,2.01-.19,2.01-.19Z"/>
    <path class="cls-18" d="M487.53,382.46l-.06,1.42s-.13.31-.71.35c-.57.04-1.2.04-1.79-.04-1.23-.16-2.09-.81-2.09-.81v-1.79"/>
    <path class="cls-6" d="M483.62,380.37l-.04-.64s-.16-.41-.49-.61c-.34-.2-1.09-.74-1.09-.74,0,0-.08-.85.09-1.27.17-.42.69-.74.69-.74"/>
    <path class="cls-6" d="M485.79,376.57s-.7-.01-1.17.26l-.47.27"/>
    <path class="cls-18" d="M486.18,374.02l-.1,1.53s-.49.42-1.73.21c-1.17-.19-1.65-.69-1.65-.69l.07-1.6s.89.75,1.8.77c.91.02,1.61-.21,1.61-.21Z"/>
    <polyline class="cls-18" points="485.96 373.97 486.05 373.11 484.98 373.47 483.88 373.27 483.03 372.61 482.98 373.47"/>
    <line class="cls-18" x1="484.98" y1="373.47" x2="484.94" y2="374.13"/>
    <line class="cls-18" x1="483.88" y1="373.27" x2="483.81" y2="373.99"/>
    <polyline class="cls-18" points="486.05 373.11 485.29 372.43 483.97 372.22 483.03 372.61"/>
    <path class="cls-19" d="M483.95,372.7c0,.1.26.21.59.26.33.05.61.01.62-.08,0-.09-.26-.21-.59-.26-.33-.05-.61-.01-.61.08"/>
    <polyline class="cls-12" points="480.83 379.26 482.58 379.84 483.25 379.32"/>
    <line class="cls-6" x1="482.9" y1="375.24" x2="482.86" y2="377.12"/>
    <path class="cls-6" d="M478.43,378.56s-.32,1.2-3.48,2.16c-1.43.43-4.06.05-4.45.1-.39.05-5.37-.39-5.37-.39"/>
    <path class="cls-6" d="M478,377.83s.8.64.88,1.9c.08,1.26,0,2.9.01,3.25.02.35.76,1.19.76,1.19l1.61.07,1.58-2.01s-.56-1.26-.71-1.73c-.15-.47-.17-.83-.17-.83"/>
    <path class="cls-6" d="M481.26,384.25s-.36-1.15-.51-2.21c-.15-1.06-.52-3.07-.52-3.07"/>
    <path class="cls-6" d="M459.44,324.71s-.3.08-.73.65c-.43.57-.73,1.52-.71,3.36.03,1.85.03,38.03.03,38.03,0,0-.13,1.6.87,1.76.52.08.57,0,.57,0"/>
    <path class="cls-6" d="M474.89,311.12l-16.68,5.07s-1.7.45-1.69,2.84c0,2.4-.15,56.25-.15,56.25,0,0-.09,1.34.48,1.88.57.54,2.02-.33,2.02-.33l2.07-1.45"/>
    <path class="cls-6" d="M475.24,310.99s0-.9-.46-1.27c-.46-.36-1.05-.4-1.84-.22-.79.18-16.98,4.98-16.98,4.98,0,0-1.57.4-2.07,1.61-.49,1.21-.54,2.29-.49,3.51.05,1.21.08,55.77.08,55.77,0,0-.01,1.4.43,1.98.32.43,1.12.55,1.92.42.49-.08,1.52-.42,1.52-.42"/>
    <path class="cls-6" d="M454.11,315.67s-1.23.74-1.57,1.32c-.34.59-.52,1.4-.47,2.56.05,1.17.24,53.64.24,53.64,0,0,.04,1.18.26,1.81.22.61,1.04,1.72,1.04,1.72"/>
    <path class="cls-6" d="M452.08,323.28s-.6.27-1.05,1.05c-.45.78-.65,1.93-.66,2.83,0,.9.18,37.91.18,37.91,0,0,.08,1.24.7,1.37.62.13.82.05.82.05"/>
    <path class="cls-6" d="M453.04,374.63s-2.64,1.59-3.4,1.05c-.71-.51-.62-2.38-.62-2.38,0,0,.07-53.99.05-54.47-.02-.48,0-1.58.34-2.5.33-.91,1.27-1.33,1.27-1.33l16.43-5.38s.9-.39,1.32.19c.28.39.19.88.19.88"/>
    <path class="cls-6" d="M467.29,309.57s.08-1.1-.56-1.37c-.64-.27-1.8.19-2.52.38-.72.19-16.18,5.09-16.18,5.09,0,0-1.1.56-1.44,2.06-.34,1.5-.31,2.44-.31,3.78,0,1.34-.05,54.36-.05,54.36,0,0,.06,1.82.85,2.27s1.47.27,2.05.21c.58-.06,2.4-.93,2.4-.93"/>
    <path class="cls-6" d="M446.58,375.59s-.55-.7-.78-1.07c-.32-.5-.42-1.44-.42-1.44,0,0-.38-53.6-.41-54.5-.03-.9.24-2.18.7-2.85.66-.97,2.05-1.87,2.05-1.87"/>
    <path class="cls-6" d="M444.96,321.99s-.84.58-1.14,1.47c-.29.89-.32,3.02-.31,4.04.01,1.03-.21,36.1-.21,36.1,0,0,.05,1.06.69,1.16.5.07,1.25-.03,1.25-.03"/>
    <path class="cls-6" d="M460.72,308.34l-16.93,5.37s-1.37.4-1.4,2.43c-.02,2.03-.62,55.58-.62,55.58,0,0,.05,1.27.66,1.65.62.38,1.15.34,1.38.29.24-.04,1.78-.94,1.78-.94"/>
    <path class="cls-6" d="M460.94,308.25s-.02-.96-.42-1.18c-.4-.21-.83-.18-1.69.03-.87.22-16.83,5-16.83,5,0,0-1.44.51-1.99,1.89-.55,1.38-.48,2.86-.48,2.86l-.26,55.57s.17,1.5,1.13,1.76c.96.26,1.59.14,2.04.02.45-.12,1.13-.46,1.13-.46"/>
    <path class="cls-6" d="M440.37,313.25s-.92.71-1.27,1.56c-.35.85-.42,1.68-.41,2.4.01.72-.12,53.26-.12,53.26,0,0,.08,1.02.17,1.35.09.33.54.93.54.93"/>
    <path class="cls-6" d="M438.6,320.68s-.65.46-1,1.34c-.35.88-.4,1.69-.42,2.27-.02.58-.16,36.51-.16,36.51,0,0-.1,2.17.33,2.52.42.36,1.21.23,1.21.23"/>
    <path class="cls-6" d="M439.01,371.01s-1.71.89-2.49.43c-.63-.38-.6-2.14-.6-2.14,0,0,.05-52.44.01-53.13-.04-.7-.02-1.72.36-2.54.38-.82,1.48-1.12,1.48-1.12l16.49-5.55s.9-.45,1.38.11c.28.32.19.85.19.85"/>
    <path class="cls-6" d="M454.48,306.82s.11-1.56-1.2-1.31c-.99.18-17.53,5.62-17.53,5.62,0,0-1.72.69-2.11,1.92-.39,1.22-.37,2.63-.41,3.61s.15,53.41.15,53.41c0,0,.02,1.72,1.19,2.05.97.27,3.34-.67,3.34-.67"/>
    <path class="cls-6" d="M433.77,312.74s-1,.79-1.13,1.67c-.14.88-.07,2.47-.07,2.47l.13,51.22s.06.98.18,1.42c.12.45.49.79.49.79"/>
    <path class="cls-6" d="M432.56,319.29s-.56.33-.9,1.19c-.34.86-.39,1.66-.42,2.24-.03.58-.46,36.23-.46,36.23,0,0-.09,1.65.36,2.32.3.45,1.5.25,1.5.25"/>
    <path class="cls-6" d="M447.8,305.84l-15.9,5.23s-1.05.29-1.42,1.09c-.37.8-.39,1.82-.36,2.51.03.69-.45,52.54-.45,52.54,0,0-.05,1.75.55,2.12.74.46,3.1-.69,3.1-.69"/>
    <path class="cls-6" d="M447.84,305.82s.03-1.76-1.13-1.53c-.94.18-16.71,5.41-16.71,5.41,0,0-1.64.67-2.02,1.88-.38,1.21-.37,2.59-.42,3.57-.05.97-.3,52.81-.3,52.81,0,0,0,1.7,1.11,2.03.92.28,3.53-.75,3.53-.75"/>
    <path class="cls-6" d="M428.06,311.3s-.92.75-1.06,1.62c-.14.87-.08,2.44-.08,2.44l-.3,50.64s.05.96.16,1.41c.11.45.44.68.44.68"/>
    <path class="cls-6" d="M426.82,318.08s-.57.36-.89,1.2c-.32.84-.37,1.63-.39,2.19-.02.56-.34,36.34-.34,36.34,0,0,0,1.05.38,1.39.38.35.97.39.97.39"/>
    <path class="cls-6" d="M427.2,366.53s-1.8.94-2.5.49c-.57-.36-.53-2.07-.53-2.07,0,0,.27-50.63.29-51.32.02-.54,0-1.4.18-2.05.23-.89,1.64-1.67,1.64-1.67l14.77-5.17s1.05-.41,1.43-.06c.39.35.3.73.3.73"/>
    <path class="cls-6" d="M441.21,304.69s.03-1.51-1.08-1.32c-.9.15-15.8,5.39-15.8,5.39,0,0-1.55.67-1.9,1.85-.36,1.18-.35,2.54-.39,3.49-.04.95-.15,51.58-.15,51.58,0,0,0,1.67,1.06,1.98.93.27,3.04-.62,2.96-.62"/>
    <path class="cls-6" d="M422.51,310.4s-.88.4-1.01,1.54c-.1.85-.07,2.38-.07,2.38l-.15,49.47s.05.94.15,1.38c.1.43.4.75.4.75"/>
    <path class="cls-19" d="M488.44,393.42c.44.04.88.22,1.14.58.08.12.14.25.25.34.1.08.23.12.35.15.52.16,1.01.38,1.5.6.2.09.4.18.55.34.15.16.23.4.13.59-.1.19-.36.32-.33.54.01.08.06.15.09.23.1.33-.31.57-.63.7-.6.24-1.16.55-1.67.93-.36.27-.74.59-1.2.56-.46-.03-.82-.39-1.24-.55-.59-.23-1.26-.05-1.88-.19-.4-.09-.76-.31-1.1-.54-.04-.03-.09-.06-.11-.11-.07-.14.11-.27.25-.32.52-.18,1.06-.27,1.59-.41.53-.15,1.05-.37,1.42-.76.37-.39.56-.99.34-1.49-.11-.26-.72-.72-.62-1,.1-.28.94-.22,1.17-.2"/>
    <path class="cls-9" d="M483.02,393.52c-.89.34-1.47.94-1.47,1.62,0,1.09,1.45,1.99,3.25,2.02,1.79.03,3.25-.83,3.25-1.92,0-.68-.57-1.28-1.43-1.65"/>
    <path class="cls-6" d="M474.89,311.12s1.57-.55,1.98-.02c.37.48.28.83.28.83"/>
    <path class="cls-6" d="M460.72,308.34s1.05-.45,1.49-.18c.44.27.32.81.32.81"/>
    <path class="cls-6" d="M447.8,305.84s.79-.33,1.11-.07c.32.26.22.97.22.97"/>
    <line class="cls-10" x1="413.03" y1="366.09" x2="413.03" y2="372.21"/>
    <path class="cls-1" d="M420.37,382.23v12.92l4.16-1.87v-3.39s.17-1.65,2.35-2.52"/>
    <polygon class="cls-20" points="445.43 401.28 430.41 408.59 408.12 398.49 406.65 360.54 430.99 367.93 446.78 361.61 445.43 401.28"/>
    <polygon class="cls-14" points="445.43 401.28 430.41 408.59 408.12 398.49 406.65 360.54 430.99 367.93 446.78 361.61 445.43 401.28"/>
    <line class="cls-20" x1="430.99" y1="367.94" x2="430.41" y2="408.6"/>
    <line class="cls-3" x1="430.99" y1="367.94" x2="430.41" y2="408.6"/>
    <polyline class="cls-20" points="446.78 361.61 420.69 355.5 406.65 360.53"/>
    <polyline class="cls-10" points="446.78 361.61 420.69 355.5 406.65 360.53"/>
    <path class="cls-14" d="M437.72,358.27c2.87.64,5.74,1.28,8.61,1.91.53.12,1.08.25,1.51.58.46.36.72.92.96,1.46.85,1.89,1.72,3.95,1.26,5.97-.47-.52-1.32-.35-1.99-.14-1.02.32-2.03.63-3.05.95-.48.15-.96.3-1.45.34-.39.04-.78.01-1.18.03-3.1.12-5.41,2.72-7.86,4.62-.21.17-.46.34-.73.32-.24-.01-.45-.17-.68-.21-.49-.08-.91.33-1.35.55-.63.3-1.43.21-1.96-.24-.2-.17-.36-.37-.56-.54-.79-.66-1.95-.51-2.98-.58-1.7-.11-3.27-.88-4.84-1.53-2.3-.95-4.7-1.66-7.15-2.11-.86-.16-1.73-.29-2.53-.61-1.09-.44-2.11-1.25-3.29-1.21-.5.02-1.02.19-1.49,0-.37-.15-.61-.5-.84-.83-.38-.56-.75-1.11-1.13-1.67-.08-.12-.16-.24-.18-.38-.03-.26.14-.48.29-.69.62-.86.93-1.95.85-3.01-.04-.52-.16-1.06.05-1.53.25-.58.91-.86,1.51-1.09,3.66-1.35,7.35-2.61,11.08-3.77,2.95-.92,5.83.45,8.77,1.11,3.44.77,6.89,1.53,10.33,2.3Z"/>
    <path class="cls-11" d="M445.75,361.23c.43.03.84.27,1.08.62-4.05,1.46-8.74,3.18-13.57,4.56-1.17.33-1.97.87-2.27.83-.71-.1-2.77-.59-3.47-.74-2.76-.57-4.44-1.31-7.17-2.04-1.95-.51-3.84-1.07-5.77-1.62-1.86-.53-4.51-1.11-6.39-1.56-.69-.16-.76-.82-.68-.97"/>
    <line class="cls-7" x1="420.46" y1="356.08" x2="420.42" y2="358.22"/>
    <path class="cls-7" d="M434.29,365.89c.26-.35.14-.87-.16-1.18-.3-.32-.72-.47-1.13-.6-.4-.12-.8-.23-1.22-.23-.33,0-.66.09-.99.09-.33,0-.69-.09-.89-.36-.13-.18-.17-.41-.27-.61-.32-.66-1.15-.86-1.78-1.24-.61-.36-1.08-.95-1.3-1.62-.18-.55-.23-1.21-.69-1.56-.49-.38-1.19-.23-1.79-.06-.5.14-1.04.08-1.15.59-.05.22.13.53.05.66-.07.13-.21.2-.34.26-.39.19-.78.39-1.16.58-.47.3-.05,1.31-.7,1.56-.3.3-.15.82-.4.96-.25.14-.54.17-.83.19-.5.05-1,.09-1.5.14-.03.15-.36.11-.39.26"/>
    <path class="cls-7" d="M430.2,365.55c-.85-.33-1.77-.74-2.17-1.56-.06-.12-.1-.25-.2-.35-.24-.25-.66-.17-.96,0-.3.17-.59.41-.93.43-.58.03-.97-.54-1.45-.87-.05-.03-.11-.07-.17-.05-.05.01-.09.06-.12.11-.2.31-.37.63-.5.98.26.17.53.34.79.51-.07.1-.98.66-1.1.63"/>
    <polyline class="cls-1" points="421.46 360.62 420.77 358.44 413.41 360.51 414.03 362.69"/>
    <path class="cls-20" d="M413.42,360.51c.15.55,1.93.53,3.96-.04,2.03-.57,3.55-1.48,3.39-2.03-.16-.55-1.93-.53-3.96.04-2.03.57-3.55,1.48-3.4,2.03"/>
    <path class="cls-1" d="M413.42,360.51c.15.55,1.93.53,3.96-.04,2.03-.57,3.55-1.48,3.39-2.03-.16-.55-1.93-.53-3.96.04-2.03.57-3.55,1.48-3.4,2.03Z"/>
    <path class="cls-1" d="M428.96,362.31c.17-.78.54-1.59,1.26-1.92.58-.27,1.26-.16,1.9-.26.72-.11,1.37-.49,2.08-.67.71-.19,1.57-.13,2.01.46.1.13.17.27.29.38.15.12.34.16.53.18.62.06,1.26-.09,1.79-.4.1-.06.19-.12.31-.13.13-.01.25.05.37.12.32.18.64.36.87.64.23.28.35.68.2,1.01-.08.18-.24.37-.16.55.03.07.1.12.16.17.25.16.55.23.81.37.26.14.51.39.5.69"/>
    <path class="cls-7" d="M430.53,362.51c.61-.7,1.57-1.09,2.5-1.02.37.03.77.12,1.1-.04.18-.09.33-.26.52-.32.36-.13.74.12,1.09.27.92.39,1.96.11,2.95.07.09,0,.18,0,.25.04.22.13.08.46.05.72-.05.48.39.86.79,1.14"/>
    <path class="cls-20" d="M421.4,366.81s-1.02,2.77-.5,3.54c.51.76.88,2.88-.15,4.49-1.03,1.61-1.09,1.88-1.13,3.5-.04,1.62.61,2.99.61,2.99,0,0,.88-2.23,1.62-3.09.73-.87,1.33-3.34,1.44-4.06.12-.73,1.28-3.87.3-5.85-.98-1.98.84-3.75,1.15-3.32l-1.05-1.99-2.28,3.8Z"/>
    <path class="cls-14" d="M421.4,366.81s-1.02,2.77-.5,3.54c.51.76.88,2.88-.15,4.49-1.03,1.61-1.09,1.88-1.13,3.5-.04,1.62.61,2.99.61,2.99,0,0,.88-2.23,1.62-3.09.73-.87,1.33-3.34,1.44-4.06.12-.73,1.28-3.87.3-5.85-.98-1.98.84-3.75,1.15-3.32l-1.05-1.99-2.28,3.8"/>
    <path class="cls-20" d="M430.32,367.08s.01-3.49-1.84-3.95c-1.86-.46-3.03-.25-4.02-1.95-.98-1.71-.79-3.62-.79-3.62l-1.51,1.76.74,2.15s1.25-1.61-.62,1.1c-1.87,2.71-5.72,5.19-6.13,8.14-.41,2.95-1.59,6.63-2.48,7.29-.9.65-2.92,2.71-3.22,5.14-.3,2.43.98,1.71.98,1.71,0,0,1.08-2.57,2.34-4.19,1.25-1.61,3.21-1.96,4.02-4.98.81-3.02,1.1-5.75,2.61-7.5,1.1-1.28.94-1.37,1.36-1.87.14-.17,1.8-3.07,1.98-3.05.17.02,1.05,2.44,1.25,2.5"/>
    <path class="cls-14" d="M430.47,367.15s-.14-3.56-2-4.02c-1.86-.46-3.03-.25-4.01-1.95-.98-1.71-.79-3.62-.79-3.62l-1.51,1.76.74,2.15s1.25-1.61-.62,1.1c-1.87,2.71-5.72,5.19-6.13,8.14-.41,2.95-1.59,6.63-2.49,7.29-.89.65-2.92,2.71-3.22,5.14-.3,2.43.98,1.7.98,1.7,0,0,1.08-2.57,2.34-4.19,1.25-1.61,3.21-1.97,4.02-4.98.81-3.02,1.1-5.75,2.61-7.5,1.1-1.28.94-1.37,1.36-1.87.14-.17,1.8-3.07,1.98-3.05.17.02,1.07,2.54,1.28,2.6,1.73.45,2.38.6,5.47,1.32Z"/>
    <path class="cls-11" d="M458.63,403.37l1.39.32s.03,1.33,1.03,1.54c1.14.23,1.18-.94,1.18-.94l12.31,2.85v.77"/>
    <polyline class="cls-2" points="474.53 407.13 475.09 407.3 475.09 411.31 475.09 411.46"/>
    <path class="cls-20" d="M424.01,409.39l10.63-33.12,12.36,1.51s.55-1.11,1.6-.96c1.05.15.66,1.25.66,1.25l13.42,1.71-12.4,35.85"/>
    <path class="cls-3" d="M424.01,409.39l10.63-33.12,12.36,1.51s.55-1.11,1.6-.96c1.05.15.66,1.25.66,1.25l13.42,1.71-12.4,35.85"/>
    <path class="cls-11" d="M424.01,409.39l10.63-33.12,12.36,1.51s.55-1.11,1.6-.96c1.05.15.66,1.25.66,1.25l13.59,1.76-12.57,35.8"/>
    <polygon class="cls-7" points="462.92 379.85 465.13 380.43 463.31 380.61 462.92 379.85"/>
    <polyline class="cls-20" points="462.89 380.12 465.21 383.61 454.6 415.74 450.39 415.67"/>
    <polyline class="cls-11" points="462.83 379.89 465.21 383.61 454.6 415.74 450.39 415.67"/>
    <line class="cls-11" x1="450.68" y1="416.13" x2="450.68" y2="416.13"/>
    <line class="cls-3" x1="468.82" y1="409.82" x2="457.46" y2="406.89"/>
    <path class="cls-13" d="M447.69,397.98s-.13,0-.24-.02c-.3-.07-.36-.41-.24-.86.14-.52.42-.8.73-.73.08.02.13.04.17.06l-.43,1.55ZM449.8,393.3l-.78-.19-.56,2.07s-.11-.05-.19-.06c-.4-.09-.8.02-1.15.4-.28.31-.53.82-.7,1.43-.17.62-.18,1.19-.06,1.54.12.37.38.61.8.71.45.11.77.12,1.01.1l1.64-6Z"/>
    <polygon class="cls-13" points="445.38 398.73 447.04 392.64 446.25 392.46 444.59 398.55 445.38 398.73"/>
    <polygon class="cls-13" points="445.76 392.34 443.41 391.78 443.04 393.13 444.33 393.43 444.32 393.47 442.02 396.95 441.77 397.88 443.97 398.4 444.34 397.05 443.16 396.77 443.17 396.74 445.52 393.21 445.76 392.34"/>
    <polygon class="cls-13" points="443.05 391.7 440.71 391.14 440.34 392.49 441.62 392.79 441.61 392.83 439.32 396.31 439.06 397.24 441.27 397.76 441.64 396.41 440.45 396.13 440.46 396.1 442.82 392.56 443.05 391.7"/>
    <path class="cls-13" d="M438.53,393.4l-.42,1.06c-.13.33-.32.83-.46,1.17h0c.05-.37.13-.89.18-1.24l.16-1.13.55.13ZM438.2,392.05l.2-1.45-.85-.2-.78,6.3,1.05.25,2.52-5.89-.82-.19-.55,1.37-.76-.18Z"/>
    <path class="cls-7" d="M452.48,393.99c0,5.2-4.25,9.79-9.5,10.26s-9.5-3.37-9.5-8.56c0-5.2,4.25-9.79,9.5-10.26,5.25-.47,9.5,3.37,9.5,8.56Z"/>
    <path class="cls-7" d="M451.55,394.08c0,4.69-3.83,8.83-8.57,9.26-4.73.42-8.57-3.04-8.57-7.73,0-4.69,3.83-8.83,8.57-9.26,4.73-.42,8.57,3.04,8.57,7.73Z"/>
    <path class="cls-11" d="M424.01,413.79v-4.4l26.28,6.24.39.5v4.68c-.33-.03-26.66-7.02-26.66-7.02Z"/>
    <rect class="cls-5" x="285.48" y="139.64" width="314.75" height="290.95"/>
    <line class="cls-6" x1="450.68" y1="420.8" x2="475.09" y2="411.46"/>
    <line class="cls-6" x1="474.53" y1="407.91" x2="455.04" y2="414.39"/>
  </g>
  <g id="Dog_food_bowl" data-name="Dog food bowl">
    <path class="cls-20" d="M20.89,347.68s-1.83,1.24-2.88,3.1c-.95,1.69-1.33,2.58-1.38,3.31-.05.73-.18,2.3,2.14,4.11,2.32,1.81,5.56,3.29,9.83,4.19,4.27.9,10.61,1.06,14.75.23,4.14-.82,5.67-1.53,6.7-2.16,1.03-.64,2.33-1.83,2.67-3.08.33-1.24.23-2-.12-3.5-.54-2.28-2.04-3.87-2.04-3.87"/>
    <path class="cls-3" d="M20.89,347.68s-1.83,1.24-2.88,3.1c-.95,1.69-1.33,2.58-1.38,3.31-.05.73-.18,2.3,2.14,4.11,2.32,1.81,5.56,3.29,9.83,4.19,4.27.9,10.61,1.06,14.75.23,4.14-.82,5.67-1.53,6.7-2.16,1.03-.64,2.33-1.83,2.67-3.08.33-1.24.23-2-.12-3.5-.54-2.28-2.04-3.87-2.04-3.87"/>
    <path class="cls-3" d="M18.84,358.18s-.02-1.06.83-1.62c.85-.56,1.96.27,2.54.8.58.54,1.09,1.49,1.33,2.11.24.62.34,1.5.34,1.5"/>
    <path class="cls-8" d="M18.95,357.2s.48-1.31,1.78-1.37c.98-.04,1.92.52,2.5,1.4.97,1.48.96,3.12.96,3.12"/>
    <path class="cls-3" d="M16.72,353.57s-.63.77-.65,2.46c-.03,1.7.46,2.37,1.63,3.56,1.18,1.19,3.7,2.65,6.51,3.54,2.8.89,7.05,1.87,12.59,1.92,5.54.04,10.07-1.23,12-2.13,1.93-.9,3.32-1.77,4.04-3.22.95-1.92.07-4.09.07-4.09"/>
    <path class="cls-16" d="M27.61,351.01c-.11-.17.1-.8.27-.93.17-.12.39-.16.61-.19.03.11.11.2.22.24.25.09.51-.1.74-.24.23-.14.6-.2.72.03.06.12.01.27.03.41.02.18.15.33.33.39.18.05.39,0,.51-.13.11-.11.16-.28.31-.34.18-.07.38.07.49.23.11.16.19.35.37.43.11.06.25.06.36.12.18.1.23.33.26.53.02.15-.19.42-.36.52"/>
    <path class="cls-17" d="M40.88,352.53c.16-.16.38-.71.28-.9-.1-.2-.3-.34-.5-.45-.11-.06-.23-.11-.35-.1-.09,0-.16.04-.25.05-.19.02-.36-.08-.51-.17-.43-.25-.87-.49-1.32-.72-.2-.1-.43-.21-.65-.13-.26.09-.36.4-.59.53-.41.24-1.06-.11-1.37.23-.1.1-.15.27-.29.31-.22.05-.44-.27-.65-.16-.06.03-.09.09-.12.14-.15.31-.26.9-.22,1.24"/>
    <path class="cls-17" d="M31.36,350.24c0-.17.02-.35.11-.5.08-.15.25-.28.43-.26.15.01.27.11.42.11.39.01.49-.57.86-.68.15.15.3.3.5.38.2.08.45.09.61-.04.04-.03.08-.07.13-.08.12-.02.18.12.24.22.12.2.4.29.63.21.21-.07.37-.27.59-.26.36.02.4.54.7.74-.1,0-.16.13-.12.22.03.09.21.25.27.34"/>
    <path class="cls-17" d="M40.32,351.12c-.02-.35.02-.8.37-.91.15-.04.31-.01.46-.02.24,0,.49-.1.66-.25.07-.07.13-.14.22-.19.08-.04.18-.05.27-.04.85.03,1.43.81,2.22,1.09.1.03.22.07.28.15.1.14.49.55.67.84"/>
    <path class="cls-17" d="M35.97,349.31c.09-.51.79-.93,1.28-.69.16.08.32.22.5.21.21-.01.35-.2.54-.28.25-.11.55-.01.78.12.23.14.44.32.7.4.23.07.48.07.71.14.23.08.52.75.45.97"/>
    <path class="cls-17" d="M31.5,347.9c.03-.29.58-.66.89-.63.31.03.58.19.87.27.3.08.66.07.85-.16.1-.12.13-.28.08-.42.16-.15.44-.11.62,0,.19.12.33.29.51.41.18.12.45.19.63.07.03-.02.06-.05.1-.05.1-.02.14.13.13.23-.02.22.48.73.46.95"/>
    <path class="cls-17" d="M39.12,348.65c.7-.31,1.54-.67,2.27-.45.14.04.27.1.42.12.45.05.91-.34,1.31-.15.11.05.19.13.29.21.5.4,1.31.49,1.6,1.05.11.2.12.44.21.66.08.22.28.43.52.41-.23-.04-.36.29-.22.47.14.18.68.31.91.35"/>
    <path class="cls-17" d="M21.04,352.33c.03-.34.1-.71.28-.85.18-.14.43-.18.66-.2.03.12.12.22.24.26.28.1.56-.1.81-.26.25-.15.66-.22.79.03.07.13.01.3.03.44.02.19.17.36.36.43.2.06.42,0,.56-.14.12-.12.18-.31.34-.37.2-.08.42.08.54.25.12.17.21.38.4.47.12.06.27.07.39.13.2.11.87,1.14.88,1.36.06.88-1.39,1.02-1.61,1.07"/>
    <path class="cls-17" d="M26.73,351.17c.16-.16.35-.58.24-.78-.1-.2-.3-.34-.5-.45-.11-.06-.22-.11-.35-.1-.09,0-.17.04-.25.05-.19.02-.36-.08-.51-.17-.43-.25-.87-.49-1.32-.72-.2-.1-.43-.21-.65-.13-.26.09-.36.4-.59.53-.41.24-1.06-.11-1.37.23-.1.11-.15.27-.29.3-.23.05-.45-.27-.65-.16-.06.03-.09.09-.12.14-.15.31-.07.48-.28.87"/>
    <path class="cls-17" d="M29.96,356.05c-.06-.2-.21-1.28.39-1.77.09-.07.06-.2.14-.26.2-.15.48.02.66.19.18.17.45.35.66.22.06-.03.1-.09.17-.11.13-.04.25.06.36.14.37.29.86.42,1.33.53.18.04.37.09.54.03.17-.06.31-.26.21-.41.3-.06,1.25.49,1.37.76.12.27-.3,1.1-.32,1.39"/>
    <path class="cls-17" d="M39.73,356.72c-.11-.2-.21-.41-.22-.61,0-.21.1-.41.32-.46.17-.04.38.02.55-.03.45-.13.17-.84.52-1.11.27.11.55.22.83.24.28.02.57-.07.66-.29.02-.05.04-.11.09-.14.12-.07.29.07.42.16.27.18.66.18.86,0,.19-.16.23-.45.49-.52.43-.11.82.46,1.3.58-.12.03-.09.21.01.3.1.09.43.46.55.54"/>
    <path class="cls-17" d="M34.21,355.01c-.09-.23-.46-.69-.43-.93.03-.24.21-.49.47-.51.14-.01.31.03.42-.05.13-.1.09-.31.22-.42.08-.06.19-.07.29-.06.34.03.66.18.88.41.13.13.25.3.43.37.33.11.64-.17.9-.38.04-.03.09-.07.15-.08.07-.01.13,0,.2.03.33.12.61.34.8.62.29.43.71,1.43,1.15,1.73"/>
    <path class="cls-17" d="M25.43,351.77c.16-.33.43-.73.82-.73.16,0,.29.08.43.12.23.07.5.06.74-.04.1-.04.2-.09.3-.1.1,0,.19,0,.27.04.76.28.89,1.16,1.49,1.64.08.06.17.13.18.22.02.16.3,1.6.46,1.65"/>
    <path class="cls-17" d="M44.17,352.7c-.17-.5.33-.99.9-.89.19.03.4.12.57.06.19-.07.22-.28.36-.41.18-.17.5-.16.79-.09.28.07.57.18.85.19.25,0,.49-.11.73-.06,1.41.25,1.58,1.45,1.62,1.67"/>
    <path class="cls-17" d="M38.1,353.52c.03-.29.58-.66.89-.63.3.03.58.19.87.27.3.08.66.07.85-.16.1-.12.13-.28.08-.42.16-.15.44-.11.63,0,.19.12.33.29.51.41.18.12.45.19.63.07.03-.02.06-.05.1-.05.11-.02.14.13.13.23-.02.21.46,1.21.45,1.43"/>
    <path class="cls-17" d="M34.78,353.3c.06-.27-.29-.79-.52-.96-.23-.17-.57-.21-.84-.09-.1.04-.19.11-.3.12-.23.03-.42-.15-.61-.27-.19-.12-.54-.11-.57.1-.03.23.35.42.23.62-.09.14-.31.09-.47.16-.13.06-.19.2-.27.31-.15.18-.7.71-.94.72"/>
    <path class="cls-17" d="M42.66,353.2c.7-.31,1.5-.6,2.24-.38.14.04.27.1.42.11.45.05.91-.34,1.31-.15.11.05.19.13.29.21.5.4,1.31.49,1.6,1.05.05.1.08.2.11.31"/>
    <path class="cls-17" d="M27.19,367.94c-.05.06-.2.18-.23.25-.04.07,0,.18.08.18-.25.15-.31.55-.6.55-.18,0-.29-.16-.45-.23-.17-.07-.4,0-.51.14-.05.07-.11.18-.2.16-.04-.01-.07-.04-.09-.07-.12-.11-.32-.12-.48-.06-.16.06-.29.17-.42.28-.29-.1-.33-.57-.64-.58-.11,0-.22.07-.34.07-.15,0-.27-.1-.33-.22-.06-.12-.06-.26-.05-.4,0-.22-.12-.49.02-.68.13-.2.52-.28.66-.1.03-.24.32-.44.61-.47.29-.03.58.07.82.21.23.13.43.31.66.45.22-.11.42-.26.58-.43.21-.23.4-.53.74-.57.33-.04.59.2.77.43.05.06.1.12.1.2.02.19-.23.33-.44.43-.21.1-.34.28-.25.46Z"/>
    <path class="cls-17" d="M34.5,364.33c-.17.04-.36.1-.45.23-.08.11-.07.25-.16.35-.08.1-.22.15-.33.23-.27.17-.37.5-.23.74.13.24.49.38.82.32.46-.09.86-.53,1.29-.39.13.04.23.14.35.2.26.12.6.07.88-.03.29-.1.55-.25.85-.31.41-.09.93-.05,1.19-.34-.15-.05-.11-.24,0-.33.12-.1.28-.15.37-.26.16-.2,0-.46-.24-.58-.24-.11-.52-.13-.78-.21-.22-.07-.42-.18-.65-.25-.23-.07-.5-.08-.7.03-.17.1-.27.27-.46.34-.51.2-1.2.16-1.74.28Z"/>
    <path class="cls-20" d="M31.88,367.26c-.21.03-.4.14-.56.26-.16.12-.32.26-.51.34-.28.11-.59.1-.89.13-.3.03-.64.14-.75.38-.01.03-.03.07-.01.1.02.05.09.07.15.09.53.15,1.1.24,1.67.26.24.01.48.01.7.07.17.04.32.11.49.15.31.07.65.03.98-.02.39-.06.8-.13,1.12-.34.31-.21.48-.61.26-.88-.12-.14-.33-.23-.35-.4,0-.08.02-.19-.05-.24-.04-.03-.1-.04-.16-.04-.29.02-.51.23-.75.37-.64.36-.76-.3-1.31-.23"/>
    <path class="cls-17" d="M31.88,367.26c-.21.03-.4.14-.56.26-.16.12-.32.26-.51.34-.28.11-.59.1-.89.13-.3.03-.64.14-.75.38-.01.03-.03.07-.01.1.02.05.09.07.15.09.53.15,1.1.24,1.67.26.24.01.48.01.7.07.17.04.32.11.49.15.31.07.65.03.98-.02.39-.06.8-.13,1.12-.34.31-.21.48-.61.26-.88-.12-.14-.33-.23-.35-.4,0-.08.02-.19-.05-.24-.04-.03-.1-.04-.16-.04-.29.02-.51.23-.75.37-.64.36-.76-.3-1.31-.23Z"/>
    <path class="cls-20" d="M42.92,368.79c.98-.09,1.9-.44,2.8-.78-.03-.38-.05-.77-.08-1.16,0-.14-.02-.29-.14-.39-.35-.28-1.05.23-1.43-.03-.14-.1-.2-.29-.38-.32-.08-.01-.17,0-.25.03-.35.1-.78.29-.74.58-.26-.18-.51-.36-.77-.54-.05-.03-.1-.07-.16-.08-.09-.01-.18.04-.26.09-.15.09-.42.2-.52.33-.09.12.04.27-.06.38-.33.39-.4.2-.83.23-.73.04-.95.26-1.16.82-.28.74-.28,1.27.85,1.09,1.07-.18,2.05-.16,3.13-.25"/>
    <path class="cls-17" d="M42.92,368.79c.98-.09,1.9-.44,2.8-.78-.03-.38-.05-.77-.08-1.16,0-.14-.02-.29-.14-.39-.35-.28-1.05.23-1.43-.03-.14-.1-.2-.29-.38-.32-.08-.01-.17,0-.25.03-.35.1-.78.29-.74.58-.26-.18-.51-.36-.77-.54-.05-.03-.1-.07-.16-.08-.09-.01-.18.04-.26.09-.15.09-.42.2-.52.33-.09.12.04.27-.06.38-.33.39-.4.2-.83.23-.73.04-.95.26-1.16.82-.28.74-.28,1.27.85,1.09,1.07-.18,2.05-.16,3.13-.25Z"/>
    <path class="cls-20" d="M20.89,347.68s.83-.99,3.74-2.09c2.91-1.1,6.34-1.22,7.63-1.3,1.3-.07,5.44.2,5.44.2l-4.61,2.07-11.1,1.25-1.11-.14Z"/>
    <path class="cls-17" d="M23.29,349.06c-.06-.2-.02-.69.02-.89.02-.1.06-.2.14-.26.2-.15.48.02.66.19.18.17.45.35.66.22.06-.03.11-.09.17-.11.13-.04.25.06.36.14.37.29.86.42,1.33.53.18.04.37.09.54.03.17-.06.31-.26.21-.41.3-.06.6.16.72.43.12.27.12.63.1.92"/>
    <path class="cls-17" d="M27.18,348.91c-.09-.23-.46-.69-.43-.93.03-.24.21-.49.47-.51.14-.01.31.03.42-.05.13-.1.09-.31.22-.42.08-.06.19-.07.29-.06.34.03.66.18.88.41.13.14.25.3.43.37.33.11.64-.17.9-.38.04-.03.09-.07.15-.08.07-.01.13,0,.2.03.33.12.61.34.8.62.29.43.75,1.18,1.2,1.48"/>
    <path class="cls-17" d="M29.31,347.55c.07-.28-.24-.82-.45-1.01-.22-.19-.54-.23-.8-.12-.1.04-.19.11-.3.12-.22.03-.39-.17-.57-.29-.18-.13-.51-.13-.55.09-.04.23.31.44.18.65-.09.14-.31.08-.46.15-.13.06-.19.21-.28.32-.15.18-.71.72-.94.72"/>
    <path class="cls-3" d="M50.81,351.41c-.31,3.41-7.48,5.78-16.03,5.29-8.54-.49-15.21-3.66-14.9-7.07.31-3.41,7.48-5.78,16.02-5.29,8.54.49,15.21,3.65,14.9,7.07Z"/>
    <path class="cls-5" d="M203.61,140.12h288.81s0-215.36,0-215.36H204.37s-.77,215.36-.77,215.36ZM261.4,21.94c0,1.98-3.88,1.98-3.88,0s3.88-1.98,3.88,0ZM266.05,21.91c0,.52-.27.9-.66,1.15-1.07.79-3.32.44-3.32-1.07,0-.52.27-.9.66-1.15,1.07-.79,3.32-.44,3.32,1.07ZM263.95-4.14c.38.25.64.62.64,1.13,0,.02,0,.03,0,.04,0,.02,0,.04,0,.06,0,1.38-1.89,1.8-3.03,1.24-.62-.21-1.1-.65-1.1-1.34,0-.22.05-.41.14-.58.4-1.19,2.44-1.37,3.36-.55Z"/>
  </g>
</svg>