<?xml version="1.0" encoding="UTF-8"?>
<svg id="Leaking_sink" data-name="Leaking sink" xmlns="http://www.w3.org/2000/svg" viewBox="0 0 443.46 374.24">
  <defs>
    <style>
      .cls-1, .cls-2 {
        stroke-width: .44px;
      }

      .cls-1, .cls-2, .cls-3 {
        fill: none;
        stroke: #1d5caa;
        stroke-miterlimit: 10;
      }

      .cls-2 {
        stroke-linecap: round;
      }

      .cls-3 {
        stroke-width: .42px;
      }

      .cls-4 {
        fill: #fff;
        stroke-width: 0px;
      }
    </style>
  </defs>
  <path class="cls-4" d="M171.16,170.8s-1.6,11.36-1.86,12.15c-.55,1.65-.11,2.2-4.37,2.93-3.17.54-26.33,4.1-38.69,5.91"/>
  <path class="cls-3" d="M171.16,170.8s-1.39,11.01-1.68,11.96c-.48,1.58-.84,2.73-4.6,3.36-3.16.53-26.45,4.04-38.83,5.81"/>
  <path class="cls-4" d="M147.25,211.6c2.6-.12,4.28-2.6,4.27-6.29l-.03-15.09c0-1.32-1.08-1.69-2.41-1.62-1.33.06-2.41.54-2.4,1.85v7.97c-1.01-3.43-3.27-4.46-4.76-4.76-3.26-.65-10.56-1.59-10.87-1.63-1.31-.17-2.56.75-2.79,2.06-.23,1.3.64,2.5,1.95,2.67.08.01,7.46.96,10.55,1.58,1.54.3,1.66,3.51,1.66,4.49,0,1.5.25,8.99,4.84,8.77"/>
  <path class="cls-1" d="M147.25,211.6c2.6-.12,4.28-2.6,4.27-6.29l-.03-15.09c0-1.32-1.08-1.69-2.41-1.62-1.33.06-2.41.54-2.4,1.85v7.97c-1.01-3.43-3.27-4.46-4.76-4.76-3.26-.65-10.56-1.59-10.87-1.63-1.31-.17-2.56.75-2.79,2.06-.23,1.3.64,2.5,1.95,2.67.08.01,7.46.96,10.55,1.58,1.54.3,1.66,3.51,1.66,4.49,0,1.5.25,8.99,4.84,8.77Z"/>
  <path class="cls-1" d="M154.97,187.45s-1.87,4.03-5.88,4.22c-4.01.19-5.89-2.36-5.89-2.36l11.77-1.85Z"/>
  <path class="cls-4" d="M151.78,198.42s-3.74.76-5.09,0"/>
  <path class="cls-1" d="M151.78,198.42s-3.74.76-5.09,0"/>
  <line class="cls-4" x1="146.74" y1="198.44" x2="146.71" y2="206.78"/>
  <line class="cls-2" x1="146.74" y1="198.44" x2="146.71" y2="206.78"/>
  <path class="cls-4" d="M136.68,193s-2.67,2.16-.48,4.57"/>
  <path class="cls-1" d="M136.68,193s-2.67,2.16-.48,4.57"/>
  <path class="cls-4" d="M146.75,202.24s-2.63,1.22-4.29.11"/>
  <path class="cls-1" d="M146.75,202.24s-2.63,1.22-4.29.11"/>
</svg>