<?xml version="1.0" encoding="UTF-8"?>
<svg id="Shoes" xmlns="http://www.w3.org/2000/svg" viewBox="0 0 443.46 374.24">
  <defs>
    <style>
      .cls-1 {
        fill: none;
      }

      .cls-1, .cls-2 {
        stroke: #fff;
      }

      .cls-1, .cls-2, .cls-3 {
        stroke-miterlimit: 10;
        stroke-width: .25px;
      }

      .cls-2 {
        fill: #1d5caa;
      }

      .cls-3 {
        fill: #fff;
        stroke: #1d5caa;
      }
    </style>
  </defs>
  <g id="Layer_1" data-name="Layer 1">
    <path class="cls-2" d="M95.56,296.12c.49.3.9.54,1.18.69l.75-1,1.48-.86.9-.19h1.03s.77.82.77.82l.42,1.13.46,1.55.16,1.81.44,1.32.08.97.65,1.06.12,1.44.09,1.07.09,1.07-2.09.69-3.82.61-2.59.22-2.6.69-2.55.22-1.85.16-2.41.68-2.13.18-2.76-.09-2.65.14-2.92.21-2.77-.79-1.6-.66-1.04-1.78-.11-1.3.16-1.41,1.27-1.51,1.36-.44,2.54-.87,1.59-.51.76-1.47,1.2-.1.57-.38,1.11-.1.67-.29.26-.77.93-.08.53-.37.48-.97,1.35-1.14.91-.31,1.66.37.55-.14.7-.48,1.24-.81,1.11-.1,1.07-.09c.96.47,1.67.9,2.15,1.21.25.16.57.38,1.1.7Z"/>
    <path class="cls-3" d="M73.34,309.22c-.14-.13-.29-.27-.43-.4l-.11-.26v-.69s.02-.54.02-.54l-.02-.34.16-.33h0l-.03-.2.11-.6.27-.31.16.06,8,.55.12.06h.3s.17,0,.17,0l.42.21.21.07.4.35.15.21h.25s.24.03.24.03c.2,0,.53,0,.93-.02.93-.03,3.34-.15,5.63-.69.29-.07.9-.22,1.54-.38.45-.12.8-.21,1.25-.33.98-.28,1.06-.34,2.28-.7.96-.28.67-.17,1.43-.4.35-.11.62-.19,1.02-.25.32-.05.51-.05.8-.07.39-.02.76-.08,1.49-.19,0,0,1.11-.36,3.51-.82,0,0-.03,0,0,0,.29-.03.61.22.43.54,0,0-.01.03,0,.13,0,.08,0-.02,0,0,.2.49.22,2.7.27,2.79.02.03,0,.26-.08.32-.05.04.04-.04,0,0,0,0-.14.24-.14.3.03.56-6.81,1.34-8.74,1.57-.99.12-1.9.25-2.02.26-1.79.25-2.87.44-3.58.55-2.63.41-4.83.47-5.79.49-2.3.05-4.04-.09-5.44-.21-2.03-.17-3.85-.56-5.18-.78"/>
    <path class="cls-1" d="M94.22,295.25c-.32.16-3.74,2.14-3.81,2.18-1.17.7-2.1,1.51-2.1,1.51-.78.68-1.54.99-2.15,1.25-.88.36-1.66.96-2.58,1.21-.05.01-.18.05-.23.15-.06.14.1.31.41.76.31.46.34.57.33.69-.03.16-.15.33-.31.37-.27.07-.48-.25-1.04-.71-.48-.39-1.17-.95-1.71-.76-.15.05-.09.09-.33.21-.5.25-.88.13-1.22.37-.03.02-.25.18-.25.18,0,0,0,0,0,0,0,0-1.21.38-4.71,1.47"/>
    <path class="cls-1" d="M82.81,306.88c-.12-.2-.99-.3-1.21-.32-2.92-.31-7.06-.38-7.06-.38-.95,0-1.06-.24-1.2-.54-.17-.37.29-1.14.93-1.4.86-.35,2.04.21,2.63-.01.05-.02.23-.09.47-.09.21,0,.36.06.4.07.51.17,1.89-.05,2.92-.01.86.03.7.21,2.56.44.96.12,1.35.12,1.61-.14.19-.19.26-.59.41-1.39.09-.46.09-.65.27-.9.05-.06.29-.41.7-.49.17-.03.15.02.32,0,.4-.06.49-.37.94-.51.15-.05.15-.01.34-.06.79-.17.92-.76,1.7-.97.11-.03.22-.05.39-.11.34-.13.56-.32.63-.37.74-.59,1.46-.83,1.74-1.08.26-.23,3.93-1.77,3.28-2.43"/>
    <path class="cls-1" d="M86.57,301.72c2.16,1.7,4.91,4.62,4.78,4.79-.02.03-1.23.29-1.23.29.87-.2-6.68,1.2-7.3.08"/>
    <path class="cls-1" d="M95.58,296.18c.83.48.95.65,1.51.9.73.33,1.68.77,2.43.36.91-.49,1.25-2.07.76-2.47-.37-.3-1.92.16-2.79.84"/>
    <path class="cls-1" d="M80.77,302.01c.4-.16,1.26-.79,2.02-1.16,1.17-.57,1.12-.64,3.24-1.8.55-.3,1.08-.58,1.8-1.07.38-.26.63-.45.88-.64.81-.62,1.48-1.03,2.03-1.33.59-.33.62-.29,1.7-.86.34-.18.62-.33.81-.44.17.1.33.19.5.29"/>
  </g>
</svg>