<?xml version="1.0" encoding="UTF-8"?>
<svg id="Floor_spill" data-name="Floor spill" xmlns="http://www.w3.org/2000/svg" viewBox="0 0 443.46 374.24">
  <defs>
    <style>
      .cls-1 {
        fill: #1d5caa;
        stroke-width: 0px;
      }
    </style>
  </defs>
  <path class="cls-1" d="M151.98,241.69s.69-.08,1.22-.06c.42.01.8-.18,1.35-.75.54-.57,1.32-1.14,3.97-1.35,2.65-.21,4.96-.15,6.38.26,1.43.42,1.71.73,1.77,1.09.05.36-.23.49-.62.62-.39.13-.68.44-.65.7.03.26,0,.36,1.4.73,1.4.36,1.76.93,1.82,1.17.05.23.26.57-.78.88-1.04.31-3.22.65-5.11.54-1.89-.1-3.92-.8-4.85-.96-.93-.16-1.79-.1-3.27.08-1.48.18-3.66.13-4.67-.34-1.01-.47-1.01-.86-1.01-1.12s.47-.73,1.53-1.12c.89-.32,1.53-.38,1.53-.38"/>
  <path class="cls-1" d="M169.4,244.86c0-.21.72-.38,1.61-.38s1.61.17,1.61.38"/>
  <path class="cls-1" d="M172.63,244.86c0,.21-.72.38-1.61.38s-1.61-.17-1.61-.38"/>
  <path class="cls-1" d="M147.51,245.75c0-.11.45-.21,1.01-.21s1.01.09,1.01.21"/>
  <path class="cls-1" d="M149.53,245.75c0,.11-.45.21-1.01.21s-1.01-.09-1.01-.21"/>
</svg>