<svg class="marks" preserveAspectRatio="none" width="310" height="110"  version="1.1" xmlns="http://www.w3.org/2000/svg" xmlns:xlink="http://www.w3.org/1999/xlink"><g transform="translate(5,5)"><g class="mark-group role-frame root"><g transform="translate(0,0)"><path class="background" d="M0,0h300v100h-300Z" style="fill: none; stroke: #ddd; stroke-width: 0;"></path><g><g class="mark-rect role-mark marks"><path d="M0.3658536585365937,99.0909090909091h6.585365853658537v0.9090909090909065h-6.585365853658537Z" style="fill: #D2D4CE;"></path><path d="M7.682926829268301,99.0909090909091h6.585365853658537v0.9090909090909065h-6.585365853658537Z" style="fill: #D2D4CE;"></path><path d="M15.000000000000009,98.18181818181819h6.585365853658537v1.818181818181813h-6.585365853658537Z" style="fill: #D2D4CE;"></path><path d="M22.317073170731717,97.27272727272728h6.585365853658537v2.7272727272727195h-6.585365853658537Z" style="fill: #D2D4CE;"></path><path d="M29.634146341463424,97.27272727272728h6.585365853658537v2.7272727272727195h-6.585365853658537Z" style="fill: #D2D4CE;"></path><path d="M36.95121951219513,95.45454545454545h6.585365853658537v4.545454545454547h-6.585365853658537Z" style="fill: #D2D4CE;"></path><path d="M44.26829268292684,95.45454545454545h6.585365853658537v4.545454545454547h-6.585365853658537Z" style="fill: #D2D4CE;"></path><path d="M51.585365853658544,94.54545454545455h6.585365853658537v5.454545454545453h-6.585365853658537Z" style="fill: #D2D4CE;"></path><path d="M58.902439024390254,94.54545454545455h6.585365853658537v5.454545454545453h-6.585365853658537Z" style="fill: #D2D4CE;"></path><path d="M66.21951219512196,94.54545454545455h6.585365853658537v5.454545454545453h-6.585365853658537Z" style="fill: #D2D4CE;"></path><path d="M73.53658536585367,94.54545454545455h6.585365853658537v5.454545454545453h-6.585365853658537Z" style="fill: #D2D4CE;"></path><path d="M80.85365853658537,93.63636363636364h6.585365853658537v6.36363636363636h-6.585365853658537Z" style="fill: #D2D4CE;"></path><path d="M88.17073170731709,93.63636363636364h6.585365853658537v6.36363636363636h-6.585365853658537Z" style="fill: #D2D4CE;"></path><path d="M95.48780487804879,92.72727272727272h6.585365853658537v7.2727272727272805h-6.585365853658537Z" style="fill: #D2D4CE;"></path><path d="M102.8048780487805,92.72727272727272h6.585365853658537v7.2727272727272805h-6.585365853658537Z" style="fill: #D2D4CE;"></path><path d="M110.12195121951221,91.81818181818183h6.585365853658537v8.181818181818173h-6.585365853658537Z" style="fill: #D2D4CE;"></path><path d="M117.43902439024392,89.0909090909091h6.585365853658537v10.909090909090907h-6.585365853658537Z" style="fill: #D2D4CE;"></path><path d="M124.75609756097562,87.27272727272728h6.585365853658537v12.72727272727272h-6.585365853658537Z" style="fill: #D2D4CE;"></path><path d="M132.07317073170734,86.36363636363636h6.585365853658537v13.63636363636364h-6.585365853658537Z" style="fill: #D2D4CE;"></path><path d="M139.39024390243904,86.36363636363636h6.585365853658537v13.63636363636364h-6.585365853658537Z" style="fill: #D2D4CE;"></path><path d="M146.70731707317074,86.36363636363636h6.585365853658537v13.63636363636364h-6.585365853658537Z" style="fill: #D2D4CE;"></path><path d="M154.02439024390245,86.36363636363636h6.585365853658537v13.63636363636364h-6.585365853658537Z" style="fill: #D2D4CE;"></path><path d="M161.34146341463415,84.54545454545455h6.585365853658537v15.454545454545453h-6.585365853658537Z" style="fill: #D2D4CE;"></path><path d="M168.65853658536588,83.63636363636364h6.585365853658537v16.36363636363636h-6.585365853658537Z" style="fill: #D2D4CE;"></path><path d="M175.97560975609758,81.81818181818181h6.585365853658537v18.181818181818187h-6.585365853658537Z" style="fill: #D2D4CE;"></path><path d="M183.2926829268293,81.81818181818181h6.585365853658537v18.181818181818187h-6.585365853658537Z" style="fill: #D2D4CE;"></path><path d="M190.609756097561,81.81818181818181h6.585365853658537v18.181818181818187h-6.585365853658537Z" style="fill: #D2D4CE;"></path><path d="M197.9268292682927,79.0909090909091h6.585365853658537v20.909090909090907h-6.585365853658537Z" style="fill: #D2D4CE;"></path><path d="M205.2439024390244,72.72727272727273h6.585365853658537v27.272727272727266h-6.585365853658537Z" style="fill: #D2D4CE;"></path><path d="M212.56097560975613,63.63636363636363h6.585365853658537v36.36363636363637h-6.585365853658537Z" style="fill: #D2D4CE;"></path><path d="M219.87804878048783,60h6.585365853658537v40h-6.585365853658537Z" style="fill: #D2D4CE;"></path><path d="M227.19512195121953,48.18181818181818h6.585365853658537v51.81818181818182h-6.585365853658537Z" style="fill: #D2D4CE;"></path><path d="M234.51219512195124,48.18181818181818h6.585365853658537v51.81818181818182h-6.585365853658537Z" style="fill: #D2D4CE;"></path><path d="M241.82926829268294,40.90909090909091h6.585365853658537v59.09090909090909h-6.585365853658537Z" style="fill: #D2D4CE;"></path><path d="M249.14634146341464,36.36363636363637h6.585365853658537v63.63636363636363h-6.585365853658537Z" style="fill: #D2D4CE;"></path><path d="M256.4634146341464,29.999999999999993h6.585365853658537v70h-6.585365853658537Z" style="fill: #00923E;"></path><path d="M263.7804878048781,21.818181818181827h6.585365853658537v78.18181818181817h-6.585365853658537Z" style="fill: #D2D4CE;"></path><path d="M271.0975609756098,20.90909090909091h6.585365853658537v79.0909090909091h-6.585365853658537Z" style="fill: #D2D4CE;"></path><path d="M278.4146341463415,19.999999999999996h6.585365853658537v80h-6.585365853658537Z" style="fill: #D2D4CE;"></path><path d="M285.7317073170732,13.636363636363635h6.585365853658537v86.36363636363636h-6.585365853658537Z" style="fill: #D2D4CE;"></path><path d="M293.0487804878049,5.454545454545457h6.585365853658537v94.54545454545455h-6.585365853658537Z" style="fill: #D2D4CE;"></path></g></g><path class="foreground" d="" style="display: none; fill: none;"></path></g></g></g></svg>