<svg class="marks" preserveAspectRatio="none" width="310" height="110"  version="1.1" xmlns="http://www.w3.org/2000/svg" xmlns:xlink="http://www.w3.org/1999/xlink"><g transform="translate(5,5)"><g class="mark-group role-frame root"><g transform="translate(0,0)"><path class="background" d="M0,0h300v100h-300Z" style="fill: none; stroke: #ddd; stroke-width: 0;"></path><g><g class="mark-rect role-mark marks"><path d="M0.3658536585365937,98.25454545454545h6.585365853658537v1.7454545454545496h-6.585365853658537Z" style="fill: #D2D4CE;"></path><path d="M7.682926829268301,97.2h6.585365853658537v2.799999999999997h-6.585365853658537Z" style="fill: #D2D4CE;"></path><path d="M15.000000000000009,92.92727272727272h6.585365853658537v7.072727272727278h-6.585365853658537Z" style="fill: #D2D4CE;"></path><path d="M22.317073170731717,92.69090909090909h6.585365853658537v7.309090909090912h-6.585365853658537Z" style="fill: #D2D4CE;"></path><path d="M29.634146341463424,87.52727272727273h6.585365853658537v12.472727272727269h-6.585365853658537Z" style="fill: #D2D4CE;"></path><path d="M36.95121951219513,85.89090909090909h6.585365853658537v14.10909090909091h-6.585365853658537Z" style="fill: #D2D4CE;"></path><path d="M44.26829268292684,84.8h6.585365853658537v15.200000000000003h-6.585365853658537Z" style="fill: #D2D4CE;"></path><path d="M51.585365853658544,84.78181818181818h6.585365853658537v15.218181818181819h-6.585365853658537Z" style="fill: #D2D4CE;"></path><path d="M58.902439024390254,82.92727272727272h6.585365853658537v17.072727272727278h-6.585365853658537Z" style="fill: #D2D4CE;"></path><path d="M66.21951219512196,77.12727272727274h6.585365853658537v22.87272727272726h-6.585365853658537Z" style="fill: #D2D4CE;"></path><path d="M73.53658536585367,75.34545454545454h6.585365853658537v24.654545454545456h-6.585365853658537Z" style="fill: #D2D4CE;"></path><path d="M80.85365853658537,74.36363636363636h6.585365853658537v25.63636363636364h-6.585365853658537Z" style="fill: #D2D4CE;"></path><path d="M88.17073170731709,72.18181818181819h6.585365853658537v27.818181818181813h-6.585365853658537Z" style="fill: #D2D4CE;"></path><path d="M95.48780487804879,72.18181818181819h6.585365853658537v27.818181818181813h-6.585365853658537Z" style="fill: #D2D4CE;"></path><path d="M102.8048780487805,67.58181818181819h6.585365853658537v32.41818181818181h-6.585365853658537Z" style="fill: #D2D4CE;"></path><path d="M110.12195121951221,67.18181818181819h6.585365853658537v32.81818181818181h-6.585365853658537Z" style="fill: #D2D4CE;"></path><path d="M117.43902439024392,65.74545454545455h6.585365853658537v34.25454545454545h-6.585365853658537Z" style="fill: #D2D4CE;"></path><path d="M124.75609756097562,65.34545454545454h6.585365853658537v34.654545454545456h-6.585365853658537Z" style="fill: #00923E;"></path><path d="M132.07317073170734,65h6.585365853658537v35h-6.585365853658537Z" style="fill: #D2D4CE;"></path><path d="M139.39024390243904,64.78181818181818h6.585365853658537v35.21818181818182h-6.585365853658537Z" style="fill: #D2D4CE;"></path><path d="M146.70731707317074,62.8h6.585365853658537v37.2h-6.585365853658537Z" style="fill: #D2D4CE;"></path><path d="M154.02439024390245,57.54545454545455h6.585365853658537v42.45454545454545h-6.585365853658537Z" style="fill: #D2D4CE;"></path><path d="M161.34146341463415,57.50909090909091h6.585365853658537v42.49090909090909h-6.585365853658537Z" style="fill: #D2D4CE;"></path><path d="M168.65853658536588,55.854545454545445h6.585365853658537v44.145454545454555h-6.585365853658537Z" style="fill: #D2D4CE;"></path><path d="M175.97560975609758,55.81818181818181h6.585365853658537v44.18181818181819h-6.585365853658537Z" style="fill: #D2D4CE;"></path><path d="M183.2926829268293,49.43636363636364h6.585365853658537v50.56363636363636h-6.585365853658537Z" style="fill: #D2D4CE;"></path><path d="M190.609756097561,47.018181818181816h6.585365853658537v52.981818181818184h-6.585365853658537Z" style="fill: #D2D4CE;"></path><path d="M197.9268292682927,41.36363636363637h6.585365853658537v58.63636363636363h-6.585365853658537Z" style="fill: #D2D4CE;"></path><path d="M205.2439024390244,40.654545454545456h6.585365853658537v59.345454545454544h-6.585365853658537Z" style="fill: #D2D4CE;"></path><path d="M212.56097560975613,39.63636363636363h6.585365853658537v60.36363636363637h-6.585365853658537Z" style="fill: #D2D4CE;"></path><path d="M219.87804878048783,30.781818181818178h6.585365853658537v69.21818181818182h-6.585365853658537Z" style="fill: #D2D4CE;"></path><path d="M227.19512195121953,29.83636363636363h6.585365853658537v70.16363636363637h-6.585365853658537Z" style="fill: #D2D4CE;"></path><path d="M234.51219512195124,29.56363636363636h6.585365853658537v70.43636363636364h-6.585365853658537Z" style="fill: #D2D4CE;"></path><path d="M241.82926829268294,28.272727272727273h6.585365853658537v71.72727272727272h-6.585365853658537Z" style="fill: #D2D4CE;"></path><path d="M249.14634146341464,24.6h6.585365853658537v75.4h-6.585365853658537Z" style="fill: #D2D4CE;"></path><path d="M256.4634146341464,23.18181818181818h6.585365853658537v76.81818181818181h-6.585365853658537Z" style="fill: #D2D4CE;"></path><path d="M263.7804878048781,20.90909090909091h6.585365853658537v79.0909090909091h-6.585365853658537Z" style="fill: #D2D4CE;"></path><path d="M271.0975609756098,14.763636363636357h6.585365853658537v85.23636363636365h-6.585365853658537Z" style="fill: #D2D4CE;"></path><path d="M278.4146341463415,12.545454545454538h6.585365853658537v87.45454545454547h-6.585365853658537Z" style="fill: #D2D4CE;"></path><path d="M285.7317073170732,8.963636363636363h6.585365853658537v91.03636363636363h-6.585365853658537Z" style="fill: #D2D4CE;"></path><path d="M293.0487804878049,7.3090909090909095h6.585365853658537v92.69090909090909h-6.585365853658537Z" style="fill: #D2D4CE;"></path></g></g><path class="foreground" d="" style="display: none; fill: none;"></path></g></g></g></svg>