<svg class="marks" preserveAspectRatio="none" width="310" height="110"  version="1.1" xmlns="http://www.w3.org/2000/svg" xmlns:xlink="http://www.w3.org/1999/xlink"><g transform="translate(5,5)"><g class="mark-group role-frame root"><g transform="translate(0,0)"><path class="background" d="M0,0h300v100h-300Z" style="fill: none; stroke: #ddd; stroke-width: 0;"></path><g><g class="mark-rect role-mark marks"><path d="M0.3658536585365937,16.21734423636364h6.585365853658537v83.78265576363636h-6.585365853658537Z" style="fill: #D2D4CE;"></path><path d="M7.682926829268301,15.700051572727268h6.585365853658537v84.29994842727274h-6.585365853658537Z" style="fill: #D2D4CE;"></path><path d="M15.000000000000009,14.987929518181819h6.585365853658537v85.01207048181818h-6.585365853658537Z" style="fill: #D2D4CE;"></path><path d="M22.317073170731717,14.549519809090905h6.585365853658537v85.45048019090909h-6.585365853658537Z" style="fill: #D2D4CE;"></path><path d="M29.634146341463424,13.780990727272712h6.585365853658537v86.21900927272729h-6.585365853658537Z" style="fill: #D2D4CE;"></path><path d="M36.95121951219513,13.759585036363642h6.585365853658537v86.24041496363635h-6.585365853658537Z" style="fill: #D2D4CE;"></path><path d="M44.26829268292684,13.66164922727272h6.585365853658537v86.33835077272728h-6.585365853658537Z" style="fill: #D2D4CE;"></path><path d="M51.585365853658544,13.172981963636365h6.585365853658537v86.82701803636364h-6.585365853658537Z" style="fill: #D2D4CE;"></path><path d="M58.902439024390254,13.159861690909091h6.585365853658537v86.8401383090909h-6.585365853658537Z" style="fill: #D2D4CE;"></path><path d="M66.21951219512196,12.837258518181816h6.585365853658537v87.16274148181819h-6.585365853658537Z" style="fill: #D2D4CE;"></path><path d="M73.53658536585367,12.766899927272735h6.585365853658537v87.23310007272727h-6.585365853658537Z" style="fill: #D2D4CE;"></path><path d="M80.85365853658537,12.468076636363634h6.585365853658537v87.53192336363637h-6.585365853658537Z" style="fill: #D2D4CE;"></path><path d="M88.17073170731709,12.350989563636372h6.585365853658537v87.64901043636362h-6.585365853658537Z" style="fill: #D2D4CE;"></path><path d="M95.48780487804879,12.168297545454543h6.585365853658537v87.83170245454545h-6.585365853658537Z" style="fill: #D2D4CE;"></path><path d="M102.8048780487805,12.161805727272734h6.585365853658537v87.83819427272726h-6.585365853658537Z" style="fill: #D2D4CE;"></path><path d="M110.12195121951221,11.713952854545461h6.585365853658537v88.28604714545455h-6.585365853658537Z" style="fill: #D2D4CE;"></path><path d="M117.43902439024392,11.42509835454546h6.585365853658537v88.57490164545455h-6.585365853658537Z" style="fill: #D2D4CE;"></path><path d="M124.75609756097562,11.354001163636362h6.585365853658537v88.64599883636365h-6.585365853658537Z" style="fill: #D2D4CE;"></path><path d="M132.07317073170734,11.314436563636365h6.585365853658537v88.68556343636364h-6.585365853658537Z" style="fill: #D2D4CE;"></path><path d="M139.39024390243904,11.298213090909092h6.585365853658537v88.70178690909091h-6.585365853658537Z" style="fill: #D2D4CE;"></path><path d="M146.70731707317074,11.18430190909091h6.585365853658537v88.8156980909091h-6.585365853658537Z" style="fill: #D2D4CE;"></path><path d="M154.02439024390245,11.130673227272725h6.585365853658537v88.86932677272728h-6.585365853658537Z" style="fill: #D2D4CE;"></path><path d="M161.34146341463415,10.939227381818185h6.585365853658537v89.06077261818182h-6.585365853658537Z" style="fill: #D2D4CE;"></path><path d="M168.65853658536588,10.866148563636358h6.585365853658537v89.13385143636364h-6.585365853658537Z" style="fill: #D2D4CE;"></path><path d="M175.97560975609758,10.676415136363637h6.585365853658537v89.32358486363637h-6.585365853658537Z" style="fill: #D2D4CE;"></path><path d="M183.2926829268293,10.48062095454545h6.585365853658537v89.51937904545454h-6.585365853658537Z" style="fill: #D2D4CE;"></path><path d="M190.609756097561,10.384300654545452h6.585365853658537v89.61569934545454h-6.585365853658537Z" style="fill: #D2D4CE;"></path><path d="M197.9268292682927,10.34309956363636h6.585365853658537v89.65690043636364h-6.585365853658537Z" style="fill: #D2D4CE;"></path><path d="M205.2439024390244,9.909822718181815h6.585365853658537v90.09017728181819h-6.585365853658537Z" style="fill: #D2D4CE;"></path><path d="M212.56097560975613,9.904175336363629h6.585365853658537v90.09582466363636h-6.585365853658537Z" style="fill: #D2D4CE;"></path><path d="M219.87804878048783,9.81328508181818h6.585365853658537v90.18671491818182h-6.585365853658537Z" style="fill: #D2D4CE;"></path><path d="M227.19512195121953,9.660796454545451h6.585365853658537v90.33920354545455h-6.585365853658537Z" style="fill: #D2D4CE;"></path><path d="M234.51219512195124,9.600325127272736h6.585365853658537v90.39967487272726h-6.585365853658537Z" style="fill: #00923E;"></path><path d="M241.82926829268294,9.473634227272731h6.585365853658537v90.52636577272727h-6.585365853658537Z" style="fill: #D2D4CE;"></path><path d="M249.14634146341464,9.195737563636364h6.585365853658537v90.80426243636364h-6.585365853658537Z" style="fill: #D2D4CE;"></path><path d="M256.4634146341464,9.185532190909084h6.585365853658537v90.81446780909091h-6.585365853658537Z" style="fill: #D2D4CE;"></path><path d="M263.7804878048781,8.79864609090909h6.585365853658537v91.20135390909091h-6.585365853658537Z" style="fill: #D2D4CE;"></path><path d="M271.0975609756098,8.562153181818177h6.585365853658537v91.43784681818182h-6.585365853658537Z" style="fill: #D2D4CE;"></path><path d="M278.4146341463415,8.553264363636359h6.585365853658537v91.44673563636364h-6.585365853658537Z" style="fill: #D2D4CE;"></path><path d="M285.7317073170732,8.499695727272726h6.585365853658537v91.50030427272728h-6.585365853658537Z" style="fill: #D2D4CE;"></path><path d="M293.0487804878049,7.844501909090907h6.585365853658537v92.15549809090909h-6.585365853658537Z" style="fill: #D2D4CE;"></path></g></g><path class="foreground" d="" style="display: none; fill: none;"></path></g></g></g></svg>