<svg class="marks" preserveAspectRatio="none" width="310" height="110"  version="1.1" xmlns="http://www.w3.org/2000/svg" xmlns:xlink="http://www.w3.org/1999/xlink"><g transform="translate(5,5)"><g class="mark-group role-frame root"><g transform="translate(0,0)"><path class="background" d="M0,0h300v100h-300Z" style="fill: none; stroke: #ddd; stroke-width: 0;"></path><g><g class="mark-rect role-mark marks"><path d="M0.3658536585365937,99h6.585365853658537v1h-6.585365853658537Z" style="fill: #D2D4CE;"></path><path d="M7.682926829268301,89h6.585365853658537v11h-6.585365853658537Z" style="fill: #D2D4CE;"></path><path d="M15.000000000000009,85h6.585365853658537v15h-6.585365853658537Z" style="fill: #D2D4CE;"></path><path d="M22.317073170731717,83h6.585365853658537v17h-6.585365853658537Z" style="fill: #D2D4CE;"></path><path d="M29.634146341463424,82h6.585365853658537v18h-6.585365853658537Z" style="fill: #D2D4CE;"></path><path d="M36.95121951219513,79.80000000000001h6.585365853658537v20.19999999999999h-6.585365853658537Z" style="fill: #D2D4CE;"></path><path d="M44.26829268292684,79.4h6.585365853658537v20.599999999999994h-6.585365853658537Z" style="fill: #D2D4CE;"></path><path d="M51.585365853658544,78.60000000000001h6.585365853658537v21.39999999999999h-6.585365853658537Z" style="fill: #D2D4CE;"></path><path d="M58.902439024390254,78h6.585365853658537v22h-6.585365853658537Z" style="fill: #D2D4CE;"></path><path d="M66.21951219512196,77h6.585365853658537v23h-6.585365853658537Z" style="fill: #D2D4CE;"></path><path d="M73.53658536585367,76.6h6.585365853658537v23.400000000000006h-6.585365853658537Z" style="fill: #D2D4CE;"></path><path d="M80.85365853658537,76h6.585365853658537v24h-6.585365853658537Z" style="fill: #00923E;"></path><path d="M88.17073170731709,74.4h6.585365853658537v25.599999999999994h-6.585365853658537Z" style="fill: #D2D4CE;"></path><path d="M95.48780487804879,65.60000000000001h6.585365853658537v34.39999999999999h-6.585365853658537Z" style="fill: #D2D4CE;"></path><path d="M102.8048780487805,65h6.585365853658537v35h-6.585365853658537Z" style="fill: #D2D4CE;"></path><path d="M110.12195121951221,63.6h6.585365853658537v36.4h-6.585365853658537Z" style="fill: #D2D4CE;"></path><path d="M117.43902439024392,60.8h6.585365853658537v39.2h-6.585365853658537Z" style="fill: #D2D4CE;"></path><path d="M124.75609756097562,60.20000000000001h6.585365853658537v39.79999999999999h-6.585365853658537Z" style="fill: #D2D4CE;"></path><path d="M132.07317073170734,59.8h6.585365853658537v40.2h-6.585365853658537Z" style="fill: #D2D4CE;"></path><path d="M139.39024390243904,58.60000000000001h6.585365853658537v41.39999999999999h-6.585365853658537Z" style="fill: #D2D4CE;"></path><path d="M146.70731707317074,57.00000000000001h6.585365853658537v42.99999999999999h-6.585365853658537Z" style="fill: #D2D4CE;"></path><path d="M154.02439024390245,51.6h6.585365853658537v48.4h-6.585365853658537Z" style="fill: #D2D4CE;"></path><path d="M161.34146341463415,50.2h6.585365853658537v49.8h-6.585365853658537Z" style="fill: #D2D4CE;"></path><path d="M168.65853658536588,47.4h6.585365853658537v52.6h-6.585365853658537Z" style="fill: #D2D4CE;"></path><path d="M175.97560975609758,43.2h6.585365853658537v56.8h-6.585365853658537Z" style="fill: #D2D4CE;"></path><path d="M183.2926829268293,42.39999999999999h6.585365853658537v57.60000000000001h-6.585365853658537Z" style="fill: #D2D4CE;"></path><path d="M190.609756097561,42.2h6.585365853658537v57.8h-6.585365853658537Z" style="fill: #D2D4CE;"></path><path d="M197.9268292682927,40h6.585365853658537v60h-6.585365853658537Z" style="fill: #D2D4CE;"></path><path d="M205.2439024390244,37.8h6.585365853658537v62.2h-6.585365853658537Z" style="fill: #D2D4CE;"></path><path d="M212.56097560975613,37.2h6.585365853658537v62.8h-6.585365853658537Z" style="fill: #D2D4CE;"></path><path d="M219.87804878048783,34.20000000000001h6.585365853658537v65.79999999999998h-6.585365853658537Z" style="fill: #D2D4CE;"></path><path d="M227.19512195121953,32.8h6.585365853658537v67.2h-6.585365853658537Z" style="fill: #D2D4CE;"></path><path d="M234.51219512195124,31.999999999999996h6.585365853658537v68h-6.585365853658537Z" style="fill: #D2D4CE;"></path><path d="M241.82926829268294,30.599999999999994h6.585365853658537v69.4h-6.585365853658537Z" style="fill: #D2D4CE;"></path><path d="M249.14634146341464,30.000000000000004h6.585365853658537v70h-6.585365853658537Z" style="fill: #D2D4CE;"></path><path d="M256.4634146341464,27h6.585365853658537v73h-6.585365853658537Z" style="fill: #D2D4CE;"></path><path d="M263.7804878048781,26.400000000000002h6.585365853658537v73.6h-6.585365853658537Z" style="fill: #D2D4CE;"></path><path d="M271.0975609756098,17.000000000000004h6.585365853658537v83h-6.585365853658537Z" style="fill: #D2D4CE;"></path><path d="M278.4146341463415,14.000000000000002h6.585365853658537v86h-6.585365853658537Z" style="fill: #D2D4CE;"></path><path d="M285.7317073170732,9.799999999999997h6.585365853658537v90.2h-6.585365853658537Z" style="fill: #D2D4CE;"></path><path d="M293.0487804878049,4.799999999999994h6.585365853658537v95.2h-6.585365853658537Z" style="fill: #D2D4CE;"></path></g></g><path class="foreground" d="" style="display: none; fill: none;"></path></g></g></g></svg>