<svg class="marks" preserveAspectRatio="none" width="310" height="110"  version="1.1" xmlns="http://www.w3.org/2000/svg" xmlns:xlink="http://www.w3.org/1999/xlink"><g transform="translate(5,5)"><g class="mark-group role-frame root"><g transform="translate(0,0)"><path class="background" d="M0,0h300v100h-300Z" style="fill: none; stroke: #ddd; stroke-width: 0;"></path><g><g class="mark-rect role-mark marks"><path d="M0.3658536585365937,20.900000000000006h6.585365853658537v79.1h-6.585365853658537Z" style="fill: #D2D4CE;"></path><path d="M7.682926829268301,17.599999999999994h6.585365853658537v82.4h-6.585365853658537Z" style="fill: #D2D4CE;"></path><path d="M15.000000000000009,16.799999999999994h6.585365853658537v83.2h-6.585365853658537Z" style="fill: #D2D4CE;"></path><path d="M22.317073170731717,16.700000000000003h6.585365853658537v83.3h-6.585365853658537Z" style="fill: #D2D4CE;"></path><path d="M29.634146341463424,16.500000000000004h6.585365853658537v83.5h-6.585365853658537Z" style="fill: #D2D4CE;"></path><path d="M36.95121951219513,15.000000000000002h6.585365853658537v85h-6.585365853658537Z" style="fill: #D2D4CE;"></path><path d="M44.26829268292684,14.3h6.585365853658537v85.7h-6.585365853658537Z" style="fill: #D2D4CE;"></path><path d="M51.585365853658544,13.8h6.585365853658537v86.2h-6.585365853658537Z" style="fill: #D2D4CE;"></path><path d="M58.902439024390254,13h6.585365853658537v87h-6.585365853658537Z" style="fill: #D2D4CE;"></path><path d="M66.21951219512196,12.9h6.585365853658537v87.1h-6.585365853658537Z" style="fill: #D2D4CE;"></path><path d="M73.53658536585367,12.5h6.585365853658537v87.5h-6.585365853658537Z" style="fill: #D2D4CE;"></path><path d="M80.85365853658537,10.999999999999998h6.585365853658537v89h-6.585365853658537Z" style="fill: #D2D4CE;"></path><path d="M88.17073170731709,10.999999999999998h6.585365853658537v89h-6.585365853658537Z" style="fill: #D2D4CE;"></path><path d="M95.48780487804879,10.40000000000001h6.585365853658537v89.6h-6.585365853658537Z" style="fill: #D2D4CE;"></path><path d="M102.8048780487805,9.799999999999997h6.585365853658537v90.2h-6.585365853658537Z" style="fill: #D2D4CE;"></path><path d="M110.12195121951221,9.299999999999997h6.585365853658537v90.7h-6.585365853658537Z" style="fill: #D2D4CE;"></path><path d="M117.43902439024392,8.900000000000007h6.585365853658537v91.1h-6.585365853658537Z" style="fill: #D2D4CE;"></path><path d="M124.75609756097562,8.799999999999997h6.585365853658537v91.2h-6.585365853658537Z" style="fill: #D2D4CE;"></path><path d="M132.07317073170734,8.499999999999996h6.585365853658537v91.5h-6.585365853658537Z" style="fill: #D2D4CE;"></path><path d="M139.39024390243904,8.499999999999996h6.585365853658537v91.5h-6.585365853658537Z" style="fill: #D2D4CE;"></path><path d="M146.70731707317074,8.299999999999997h6.585365853658537v91.7h-6.585365853658537Z" style="fill: #D2D4CE;"></path><path d="M154.02439024390245,7.700000000000006h6.585365853658537v92.3h-6.585365853658537Z" style="fill: #D2D4CE;"></path><path d="M161.34146341463415,7.499999999999996h6.585365853658537v92.5h-6.585365853658537Z" style="fill: #00923E;"></path><path d="M168.65853658536588,7.499999999999996h6.585365853658537v92.5h-6.585365853658537Z" style="fill: #D2D4CE;"></path><path d="M175.97560975609758,7.400000000000007h6.585365853658537v92.6h-6.585365853658537Z" style="fill: #D2D4CE;"></path><path d="M183.2926829268293,6.999999999999995h6.585365853658537v93h-6.585365853658537Z" style="fill: #D2D4CE;"></path><path d="M190.609756097561,6.900000000000006h6.585365853658537v93.1h-6.585365853658537Z" style="fill: #D2D4CE;"></path><path d="M197.9268292682927,6.700000000000006h6.585365853658537v93.3h-6.585365853658537Z" style="fill: #D2D4CE;"></path><path d="M205.2439024390244,6.599999999999994h6.585365853658537v93.4h-6.585365853658537Z" style="fill: #D2D4CE;"></path><path d="M212.56097560975613,6.2999999999999945h6.585365853658537v93.7h-6.585365853658537Z" style="fill: #D2D4CE;"></path><path d="M219.87804878048783,6.000000000000005h6.585365853658537v94h-6.585365853658537Z" style="fill: #D2D4CE;"></path><path d="M227.19512195121953,5.900000000000006h6.585365853658537v94.1h-6.585365853658537Z" style="fill: #D2D4CE;"></path><path d="M234.51219512195124,5.700000000000005h6.585365853658537v94.3h-6.585365853658537Z" style="fill: #D2D4CE;"></path><path d="M241.82926829268294,5.700000000000005h6.585365853658537v94.3h-6.585365853658537Z" style="fill: #D2D4CE;"></path><path d="M249.14634146341464,5.200000000000005h6.585365853658537v94.8h-6.585365853658537Z" style="fill: #D2D4CE;"></path><path d="M256.4634146341464,4.0000000000000036h6.585365853658537v96h-6.585365853658537Z" style="fill: #D2D4CE;"></path><path d="M263.7804878048781,3.7000000000000033h6.585365853658537v96.3h-6.585365853658537Z" style="fill: #D2D4CE;"></path><path d="M271.0975609756098,3.0000000000000027h6.585365853658537v97h-6.585365853658537Z" style="fill: #D2D4CE;"></path><path d="M278.4146341463415,2.500000000000002h6.585365853658537v97.5h-6.585365853658537Z" style="fill: #D2D4CE;"></path><path d="M285.7317073170732,2.500000000000002h6.585365853658537v97.5h-6.585365853658537Z" style="fill: #D2D4CE;"></path><path d="M293.0487804878049,2.200000000000002h6.585365853658537v97.8h-6.585365853658537Z" style="fill: #D2D4CE;"></path></g></g><path class="foreground" d="" style="display: none; fill: none;"></path></g></g></g></svg>