<svg class="marks" preserveAspectRatio="none" width="310" height="110"  version="1.1" xmlns="http://www.w3.org/2000/svg" xmlns:xlink="http://www.w3.org/1999/xlink"><g transform="translate(5,5)"><g class="mark-group role-frame root"><g transform="translate(0,0)"><path class="background" d="M0,0h300v100h-300Z" style="fill: none; stroke: #ddd; stroke-width: 0;"></path><g><g class="mark-rect role-mark marks"><path d="M0.3658536585365937,64.93333333333334h6.585365853658537v35.06666666666666h-6.585365853658537Z" style="fill: #D2D4CE;"></path><path d="M7.682926829268301,63.16666666666666h6.585365853658537v36.83333333333334h-6.585365853658537Z" style="fill: #D2D4CE;"></path><path d="M15.000000000000009,54.766666666666666h6.585365853658537v45.233333333333334h-6.585365853658537Z" style="fill: #D2D4CE;"></path><path d="M22.317073170731717,52.46666666666666h6.585365853658537v47.53333333333334h-6.585365853658537Z" style="fill: #D2D4CE;"></path><path d="M29.634146341463424,52.16666666666667h6.585365853658537v47.83333333333333h-6.585365853658537Z" style="fill: #D2D4CE;"></path><path d="M36.95121951219513,51.733333333333334h6.585365853658537v48.266666666666666h-6.585365853658537Z" style="fill: #D2D4CE;"></path><path d="M44.26829268292684,47.43333333333334h6.585365853658537v52.56666666666666h-6.585365853658537Z" style="fill: #D2D4CE;"></path><path d="M51.585365853658544,47.43333333333334h6.585365853658537v52.56666666666666h-6.585365853658537Z" style="fill: #D2D4CE;"></path><path d="M58.902439024390254,46.13333333333334h6.585365853658537v53.86666666666666h-6.585365853658537Z" style="fill: #D2D4CE;"></path><path d="M66.21951219512196,45.96666666666667h6.585365853658537v54.03333333333333h-6.585365853658537Z" style="fill: #00923E;"></path><path d="M73.53658536585367,44.10000000000001h6.585365853658537v55.89999999999999h-6.585365853658537Z" style="fill: #D2D4CE;"></path><path d="M80.85365853658537,43.699999999999996h6.585365853658537v56.300000000000004h-6.585365853658537Z" style="fill: #D2D4CE;"></path><path d="M88.17073170731709,42.699999999999996h6.585365853658537v57.300000000000004h-6.585365853658537Z" style="fill: #D2D4CE;"></path><path d="M95.48780487804879,42.50000000000001h6.585365853658537v57.49999999999999h-6.585365853658537Z" style="fill: #D2D4CE;"></path><path d="M102.8048780487805,42.2h6.585365853658537v57.8h-6.585365853658537Z" style="fill: #D2D4CE;"></path><path d="M110.12195121951221,41.49999999999999h6.585365853658537v58.50000000000001h-6.585365853658537Z" style="fill: #D2D4CE;"></path><path d="M117.43902439024392,41.466666666666676h6.585365853658537v58.533333333333324h-6.585365853658537Z" style="fill: #D2D4CE;"></path><path d="M124.75609756097562,41.233333333333334h6.585365853658537v58.766666666666666h-6.585365853658537Z" style="fill: #D2D4CE;"></path><path d="M132.07317073170734,40.33333333333334h6.585365853658537v59.66666666666666h-6.585365853658537Z" style="fill: #D2D4CE;"></path><path d="M139.39024390243904,40.19999999999999h6.585365853658537v59.80000000000001h-6.585365853658537Z" style="fill: #D2D4CE;"></path><path d="M146.70731707317074,39.63333333333333h6.585365853658537v60.36666666666667h-6.585365853658537Z" style="fill: #D2D4CE;"></path><path d="M154.02439024390245,35.26666666666666h6.585365853658537v64.73333333333335h-6.585365853658537Z" style="fill: #D2D4CE;"></path><path d="M161.34146341463415,34.43333333333333h6.585365853658537v65.56666666666666h-6.585365853658537Z" style="fill: #D2D4CE;"></path><path d="M168.65853658536588,34.23333333333333h6.585365853658537v65.76666666666668h-6.585365853658537Z" style="fill: #D2D4CE;"></path><path d="M175.97560975609758,34.133333333333326h6.585365853658537v65.86666666666667h-6.585365853658537Z" style="fill: #D2D4CE;"></path><path d="M183.2926829268293,33.666666666666664h6.585365853658537v66.33333333333334h-6.585365853658537Z" style="fill: #D2D4CE;"></path><path d="M190.609756097561,32.56666666666666h6.585365853658537v67.43333333333334h-6.585365853658537Z" style="fill: #D2D4CE;"></path><path d="M197.9268292682927,30.566666666666677h6.585365853658537v69.43333333333332h-6.585365853658537Z" style="fill: #D2D4CE;"></path><path d="M205.2439024390244,30.366666666666664h6.585365853658537v69.63333333333334h-6.585365853658537Z" style="fill: #D2D4CE;"></path><path d="M212.56097560975613,30.300000000000004h6.585365853658537v69.69999999999999h-6.585365853658537Z" style="fill: #D2D4CE;"></path><path d="M219.87804878048783,30.166666666666664h6.585365853658537v69.83333333333334h-6.585365853658537Z" style="fill: #D2D4CE;"></path><path d="M227.19512195121953,29.533333333333335h6.585365853658537v70.46666666666667h-6.585365853658537Z" style="fill: #D2D4CE;"></path><path d="M234.51219512195124,27.800000000000004h6.585365853658537v72.19999999999999h-6.585365853658537Z" style="fill: #D2D4CE;"></path><path d="M241.82926829268294,26.900000000000002h6.585365853658537v73.1h-6.585365853658537Z" style="fill: #D2D4CE;"></path><path d="M249.14634146341464,25.93333333333334h6.585365853658537v74.06666666666666h-6.585365853658537Z" style="fill: #D2D4CE;"></path><path d="M256.4634146341464,23.533333333333328h6.585365853658537v76.46666666666667h-6.585365853658537Z" style="fill: #D2D4CE;"></path><path d="M263.7804878048781,21.933333333333326h6.585365853658537v78.06666666666668h-6.585365853658537Z" style="fill: #D2D4CE;"></path><path d="M271.0975609756098,17.366666666666674h6.585365853658537v82.63333333333333h-6.585365853658537Z" style="fill: #D2D4CE;"></path><path d="M278.4146341463415,16.166666666666675h6.585365853658537v83.83333333333333h-6.585365853658537Z" style="fill: #D2D4CE;"></path><path d="M285.7317073170732,8.099999999999996h6.585365853658537v91.9h-6.585365853658537Z" style="fill: #D2D4CE;"></path><path d="M293.0487804878049,4.366666666666664h6.585365853658537v95.63333333333334h-6.585365853658537Z" style="fill: #D2D4CE;"></path></g></g><path class="foreground" d="" style="display: none; fill: none;"></path></g></g></g></svg>