<svg class="marks" preserveAspectRatio="none" width="310" height="110"  version="1.1" xmlns="http://www.w3.org/2000/svg" xmlns:xlink="http://www.w3.org/1999/xlink"><g transform="translate(5,5)"><g class="mark-group role-frame root"><g transform="translate(0,0)"><path class="background" d="M0,0h300v100h-300Z" style="fill: none; stroke: #ddd; stroke-width: 0;"></path><g><g class="mark-rect role-mark marks"><path d="M0.3658536585365937,40.025h6.585365853658537v59.975h-6.585365853658537Z" style="fill: #D2D4CE;"></path><path d="M7.682926829268301,37.975h6.585365853658537v62.025h-6.585365853658537Z" style="fill: #D2D4CE;"></path><path d="M15.000000000000009,35.199999999999996h6.585365853658537v64.80000000000001h-6.585365853658537Z" style="fill: #D2D4CE;"></path><path d="M22.317073170731717,34.12499999999999h6.585365853658537v65.875h-6.585365853658537Z" style="fill: #D2D4CE;"></path><path d="M29.634146341463424,32.95h6.585365853658537v67.05h-6.585365853658537Z" style="fill: #D2D4CE;"></path><path d="M36.95121951219513,32.574999999999996h6.585365853658537v67.42500000000001h-6.585365853658537Z" style="fill: #D2D4CE;"></path><path d="M44.26829268292684,32.00000000000001h6.585365853658537v68h-6.585365853658537Z" style="fill: #D2D4CE;"></path><path d="M51.585365853658544,28.974999999999994h6.585365853658537v71.025h-6.585365853658537Z" style="fill: #00923E;"></path><path d="M58.902439024390254,28.800000000000004h6.585365853658537v71.19999999999999h-6.585365853658537Z" style="fill: #D2D4CE;"></path><path d="M66.21951219512196,28.65h6.585365853658537v71.35h-6.585365853658537Z" style="fill: #D2D4CE;"></path><path d="M73.53658536585367,27.925h6.585365853658537v72.075h-6.585365853658537Z" style="fill: #D2D4CE;"></path><path d="M80.85365853658537,27.625h6.585365853658537v72.375h-6.585365853658537Z" style="fill: #D2D4CE;"></path><path d="M88.17073170731709,27.549999999999997h6.585365853658537v72.45h-6.585365853658537Z" style="fill: #D2D4CE;"></path><path d="M95.48780487804879,26.6h6.585365853658537v73.4h-6.585365853658537Z" style="fill: #D2D4CE;"></path><path d="M102.8048780487805,26.275000000000006h6.585365853658537v73.725h-6.585365853658537Z" style="fill: #D2D4CE;"></path><path d="M110.12195121951221,25.900000000000002h6.585365853658537v74.1h-6.585365853658537Z" style="fill: #D2D4CE;"></path><path d="M117.43902439024392,25.849999999999994h6.585365853658537v74.15h-6.585365853658537Z" style="fill: #D2D4CE;"></path><path d="M124.75609756097562,25.8h6.585365853658537v74.2h-6.585365853658537Z" style="fill: #D2D4CE;"></path><path d="M132.07317073170734,25.5h6.585365853658537v74.5h-6.585365853658537Z" style="fill: #D2D4CE;"></path><path d="M139.39024390243904,25.275000000000002h6.585365853658537v74.725h-6.585365853658537Z" style="fill: #D2D4CE;"></path><path d="M146.70731707317074,25.1h6.585365853658537v74.9h-6.585365853658537Z" style="fill: #D2D4CE;"></path><path d="M154.02439024390245,24.5h6.585365853658537v75.5h-6.585365853658537Z" style="fill: #D2D4CE;"></path><path d="M161.34146341463415,24.175h6.585365853658537v75.825h-6.585365853658537Z" style="fill: #D2D4CE;"></path><path d="M168.65853658536588,24.150000000000006h6.585365853658537v75.85h-6.585365853658537Z" style="fill: #D2D4CE;"></path><path d="M175.97560975609758,23.9h6.585365853658537v76.1h-6.585365853658537Z" style="fill: #D2D4CE;"></path><path d="M183.2926829268293,23.5h6.585365853658537v76.5h-6.585365853658537Z" style="fill: #D2D4CE;"></path><path d="M190.609756097561,23.449999999999992h6.585365853658537v76.55000000000001h-6.585365853658537Z" style="fill: #D2D4CE;"></path><path d="M197.9268292682927,22.750000000000004h6.585365853658537v77.25h-6.585365853658537Z" style="fill: #D2D4CE;"></path><path d="M205.2439024390244,22.625000000000007h6.585365853658537v77.375h-6.585365853658537Z" style="fill: #D2D4CE;"></path><path d="M212.56097560975613,22.599999999999998h6.585365853658537v77.4h-6.585365853658537Z" style="fill: #D2D4CE;"></path><path d="M219.87804878048783,22.550000000000004h6.585365853658537v77.44999999999999h-6.585365853658537Z" style="fill: #D2D4CE;"></path><path d="M227.19512195121953,22.424999999999994h6.585365853658537v77.575h-6.585365853658537Z" style="fill: #D2D4CE;"></path><path d="M234.51219512195124,21.90000000000001h6.585365853658537v78.1h-6.585365853658537Z" style="fill: #D2D4CE;"></path><path d="M241.82926829268294,21.799999999999997h6.585365853658537v78.2h-6.585365853658537Z" style="fill: #D2D4CE;"></path><path d="M249.14634146341464,21.675h6.585365853658537v78.325h-6.585365853658537Z" style="fill: #D2D4CE;"></path><path d="M256.4634146341464,21.199999999999996h6.585365853658537v78.80000000000001h-6.585365853658537Z" style="fill: #D2D4CE;"></path><path d="M263.7804878048781,20.724999999999994h6.585365853658537v79.275h-6.585365853658537Z" style="fill: #D2D4CE;"></path><path d="M271.0975609756098,20.450000000000003h6.585365853658537v79.55h-6.585365853658537Z" style="fill: #D2D4CE;"></path><path d="M278.4146341463415,20.174999999999997h6.585365853658537v79.825h-6.585365853658537Z" style="fill: #D2D4CE;"></path><path d="M285.7317073170732,18.75h6.585365853658537v81.25h-6.585365853658537Z" style="fill: #D2D4CE;"></path><path d="M293.0487804878049,12.050000000000004h6.585365853658537v87.94999999999999h-6.585365853658537Z" style="fill: #D2D4CE;"></path></g></g><path class="foreground" d="" style="display: none; fill: none;"></path></g></g></g></svg>