<svg class="marks" preserveAspectRatio="none" width="310" height="110"  version="1.1" xmlns="http://www.w3.org/2000/svg" xmlns:xlink="http://www.w3.org/1999/xlink"><g transform="translate(5,5)"><g class="mark-group role-frame root"><g transform="translate(0,0)"><path class="background" d="M0,0h300v100h-300Z" style="fill: none; stroke: #ddd; stroke-width: 0;"></path><g><g class="mark-rect role-mark marks"><path d="M0.3658536585365937,83.21428571428571h6.585365853658537v16.785714285714292h-6.585365853658537Z" style="fill: #D2D4CE;"></path><path d="M7.682926829268301,76.42857142857142h6.585365853658537v23.571428571428584h-6.585365853658537Z" style="fill: #D2D4CE;"></path><path d="M15.000000000000009,76.42857142857142h6.585365853658537v23.571428571428584h-6.585365853658537Z" style="fill: #D2D4CE;"></path><path d="M22.317073170731717,76.07142857142857h6.585365853658537v23.92857142857143h-6.585365853658537Z" style="fill: #D2D4CE;"></path><path d="M29.634146341463424,75.35714285714286h6.585365853658537v24.64285714285714h-6.585365853658537Z" style="fill: #D2D4CE;"></path><path d="M36.95121951219513,75.35714285714286h6.585365853658537v24.64285714285714h-6.585365853658537Z" style="fill: #D2D4CE;"></path><path d="M44.26829268292684,73.57142857142858h6.585365853658537v26.428571428571416h-6.585365853658537Z" style="fill: #D2D4CE;"></path><path d="M51.585365853658544,72.14285714285714h6.585365853658537v27.85714285714286h-6.585365853658537Z" style="fill: #D2D4CE;"></path><path d="M58.902439024390254,70.71428571428572h6.585365853658537v29.285714285714278h-6.585365853658537Z" style="fill: #D2D4CE;"></path><path d="M66.21951219512196,70.71428571428572h6.585365853658537v29.285714285714278h-6.585365853658537Z" style="fill: #D2D4CE;"></path><path d="M73.53658536585367,69.64285714285714h6.585365853658537v30.35714285714286h-6.585365853658537Z" style="fill: #D2D4CE;"></path><path d="M80.85365853658537,69.64285714285714h6.585365853658537v30.35714285714286h-6.585365853658537Z" style="fill: #D2D4CE;"></path><path d="M88.17073170731709,69.28571428571428h6.585365853658537v30.714285714285722h-6.585365853658537Z" style="fill: #D2D4CE;"></path><path d="M95.48780487804879,68.57142857142857h6.585365853658537v31.42857142857143h-6.585365853658537Z" style="fill: #D2D4CE;"></path><path d="M102.8048780487805,68.21428571428572h6.585365853658537v31.785714285714278h-6.585365853658537Z" style="fill: #D2D4CE;"></path><path d="M110.12195121951221,67.85714285714286h6.585365853658537v32.14285714285714h-6.585365853658537Z" style="fill: #D2D4CE;"></path><path d="M117.43902439024392,66.78571428571428h6.585365853658537v33.21428571428572h-6.585365853658537Z" style="fill: #00923E;"></path><path d="M124.75609756097562,65.35714285714286h6.585365853658537v34.64285714285714h-6.585365853658537Z" style="fill: #D2D4CE;"></path><path d="M132.07317073170734,64.28571428571428h6.585365853658537v35.71428571428572h-6.585365853658537Z" style="fill: #D2D4CE;"></path><path d="M139.39024390243904,63.57142857142857h6.585365853658537v36.42857142857143h-6.585365853658537Z" style="fill: #D2D4CE;"></path><path d="M146.70731707317074,63.21428571428571h6.585365853658537v36.78571428571429h-6.585365853658537Z" style="fill: #D2D4CE;"></path><path d="M154.02439024390245,62.5h6.585365853658537v37.5h-6.585365853658537Z" style="fill: #D2D4CE;"></path><path d="M161.34146341463415,61.78571428571429h6.585365853658537v38.21428571428571h-6.585365853658537Z" style="fill: #D2D4CE;"></path><path d="M168.65853658536588,60.71428571428572h6.585365853658537v39.28571428571428h-6.585365853658537Z" style="fill: #D2D4CE;"></path><path d="M175.97560975609758,55.714285714285715h6.585365853658537v44.285714285714285h-6.585365853658537Z" style="fill: #D2D4CE;"></path><path d="M183.2926829268293,53.92857142857142h6.585365853658537v46.07142857142858h-6.585365853658537Z" style="fill: #D2D4CE;"></path><path d="M190.609756097561,52.85714285714286h6.585365853658537v47.14285714285714h-6.585365853658537Z" style="fill: #D2D4CE;"></path><path d="M197.9268292682927,49.642857142857146h6.585365853658537v50.357142857142854h-6.585365853658537Z" style="fill: #D2D4CE;"></path><path d="M205.2439024390244,47.5h6.585365853658537v52.5h-6.585365853658537Z" style="fill: #D2D4CE;"></path><path d="M212.56097560975613,47.14285714285714h6.585365853658537v52.85714285714286h-6.585365853658537Z" style="fill: #D2D4CE;"></path><path d="M219.87804878048783,46.785714285714285h6.585365853658537v53.214285714285715h-6.585365853658537Z" style="fill: #D2D4CE;"></path><path d="M227.19512195121953,44.99999999999999h6.585365853658537v55.00000000000001h-6.585365853658537Z" style="fill: #D2D4CE;"></path><path d="M234.51219512195124,43.214285714285715h6.585365853658537v56.785714285714285h-6.585365853658537Z" style="fill: #D2D4CE;"></path><path d="M241.82926829268294,39.642857142857146h6.585365853658537v60.357142857142854h-6.585365853658537Z" style="fill: #D2D4CE;"></path><path d="M249.14634146341464,37.85714285714287h6.585365853658537v62.14285714285713h-6.585365853658537Z" style="fill: #D2D4CE;"></path><path d="M256.4634146341464,37.14285714285713h6.585365853658537v62.85714285714287h-6.585365853658537Z" style="fill: #D2D4CE;"></path><path d="M263.7804878048781,30.714285714285715h6.585365853658537v69.28571428571428h-6.585365853658537Z" style="fill: #D2D4CE;"></path><path d="M271.0975609756098,27.500000000000004h6.585365853658537v72.5h-6.585365853658537Z" style="fill: #D2D4CE;"></path><path d="M278.4146341463415,23.571428571428577h6.585365853658537v76.42857142857142h-6.585365853658537Z" style="fill: #D2D4CE;"></path><path d="M285.7317073170732,7.857142857142851h6.585365853658537v92.14285714285715h-6.585365853658537Z" style="fill: #D2D4CE;"></path><path d="M293.0487804878049,5.35714285714286h6.585365853658537v94.64285714285714h-6.585365853658537Z" style="fill: #D2D4CE;"></path></g></g><path class="foreground" d="" style="display: none; fill: none;"></path></g></g></g></svg>