<svg class="marks" preserveAspectRatio="none" width="310" height="110"  version="1.1" xmlns="http://www.w3.org/2000/svg" xmlns:xlink="http://www.w3.org/1999/xlink"><g transform="translate(5,5)"><g class="mark-group role-frame root"><g transform="translate(0,0)"><path class="background" d="M0,0h300v100h-300Z" style="fill: none; stroke: #ddd; stroke-width: 0;"></path><g><g class="mark-rect role-mark marks"><path d="M0.3658536585365937,60.769230769230774h6.585365853658537v39.230769230769226h-6.585365853658537Z" style="fill: #D2D4CE;"></path><path d="M7.682926829268301,59.53846153846154h6.585365853658537v40.46153846153846h-6.585365853658537Z" style="fill: #D2D4CE;"></path><path d="M15.000000000000009,59.23076923076923h6.585365853658537v40.76923076923077h-6.585365853658537Z" style="fill: #D2D4CE;"></path><path d="M22.317073170731717,58.30769230769231h6.585365853658537v41.69230769230769h-6.585365853658537Z" style="fill: #D2D4CE;"></path><path d="M29.634146341463424,58.00000000000001h6.585365853658537v41.99999999999999h-6.585365853658537Z" style="fill: #D2D4CE;"></path><path d="M36.95121951219513,57.53846153846154h6.585365853658537v42.46153846153846h-6.585365853658537Z" style="fill: #D2D4CE;"></path><path d="M44.26829268292684,56.92307692307692h6.585365853658537v43.07692307692308h-6.585365853658537Z" style="fill: #D2D4CE;"></path><path d="M51.585365853658544,54.3076923076923h6.585365853658537v45.6923076923077h-6.585365853658537Z" style="fill: #D2D4CE;"></path><path d="M58.902439024390254,54h6.585365853658537v46h-6.585365853658537Z" style="fill: #D2D4CE;"></path><path d="M66.21951219512196,52.76923076923077h6.585365853658537v47.23076923076923h-6.585365853658537Z" style="fill: #D2D4CE;"></path><path d="M73.53658536585367,51.69230769230769h6.585365853658537v48.30769230769231h-6.585365853658537Z" style="fill: #D2D4CE;"></path><path d="M80.85365853658537,51.23076923076923h6.585365853658537v48.76923076923077h-6.585365853658537Z" style="fill: #D2D4CE;"></path><path d="M88.17073170731709,51.23076923076923h6.585365853658537v48.76923076923077h-6.585365853658537Z" style="fill: #D2D4CE;"></path><path d="M95.48780487804879,48.92307692307691h6.585365853658537v51.07692307692309h-6.585365853658537Z" style="fill: #D2D4CE;"></path><path d="M102.8048780487805,46.61538461538461h6.585365853658537v53.38461538461539h-6.585365853658537Z" style="fill: #D2D4CE;"></path><path d="M110.12195121951221,46.61538461538461h6.585365853658537v53.38461538461539h-6.585365853658537Z" style="fill: #D2D4CE;"></path><path d="M117.43902439024392,45.53846153846154h6.585365853658537v54.46153846153846h-6.585365853658537Z" style="fill: #D2D4CE;"></path><path d="M124.75609756097562,45.07692307692307h6.585365853658537v54.92307692307693h-6.585365853658537Z" style="fill: #D2D4CE;"></path><path d="M132.07317073170734,44.46153846153847h6.585365853658537v55.53846153846153h-6.585365853658537Z" style="fill: #D2D4CE;"></path><path d="M139.39024390243904,44.30769230769231h6.585365853658537v55.69230769230769h-6.585365853658537Z" style="fill: #D2D4CE;"></path><path d="M146.70731707317074,42.92307692307692h6.585365853658537v57.07692307692308h-6.585365853658537Z" style="fill: #D2D4CE;"></path><path d="M154.02439024390245,40.92307692307693h6.585365853658537v59.07692307692307h-6.585365853658537Z" style="fill: #D2D4CE;"></path><path d="M161.34146341463415,39.69230769230769h6.585365853658537v60.30769230769231h-6.585365853658537Z" style="fill: #D2D4CE;"></path><path d="M168.65853658536588,37.69230769230769h6.585365853658537v62.30769230769231h-6.585365853658537Z" style="fill: #D2D4CE;"></path><path d="M175.97560975609758,37.69230769230769h6.585365853658537v62.30769230769231h-6.585365853658537Z" style="fill: #D2D4CE;"></path><path d="M183.2926829268293,36.30769230769231h6.585365853658537v63.69230769230769h-6.585365853658537Z" style="fill: #D2D4CE;"></path><path d="M190.609756097561,35.6923076923077h6.585365853658537v64.30769230769229h-6.585365853658537Z" style="fill: #D2D4CE;"></path><path d="M197.9268292682927,35.53846153846154h6.585365853658537v64.46153846153845h-6.585365853658537Z" style="fill: #D2D4CE;"></path><path d="M205.2439024390244,34.15384615384616h6.585365853658537v65.84615384615384h-6.585365853658537Z" style="fill: #D2D4CE;"></path><path d="M212.56097560975613,33.84615384615385h6.585365853658537v66.15384615384616h-6.585365853658537Z" style="fill: #D2D4CE;"></path><path d="M219.87804878048783,30.61538461538461h6.585365853658537v69.38461538461539h-6.585365853658537Z" style="fill: #D2D4CE;"></path><path d="M227.19512195121953,30.153846153846153h6.585365853658537v69.84615384615384h-6.585365853658537Z" style="fill: #D2D4CE;"></path><path d="M234.51219512195124,30.153846153846153h6.585365853658537v69.84615384615384h-6.585365853658537Z" style="fill: #D2D4CE;"></path><path d="M241.82926829268294,29.384615384615387h6.585365853658537v70.61538461538461h-6.585365853658537Z" style="fill: #D2D4CE;"></path><path d="M249.14634146341464,27.230769230769237h6.585365853658537v72.76923076923076h-6.585365853658537Z" style="fill: #D2D4CE;"></path><path d="M256.4634146341464,25.538461538461544h6.585365853658537v74.46153846153845h-6.585365853658537Z" style="fill: #D2D4CE;"></path><path d="M263.7804878048781,23.076923076923073h6.585365853658537v76.92307692307693h-6.585365853658537Z" style="fill: #D2D4CE;"></path><path d="M271.0975609756098,22.769230769230763h6.585365853658537v77.23076923076924h-6.585365853658537Z" style="fill: #00923E;"></path><path d="M278.4146341463415,18.307692307692303h6.585365853658537v81.6923076923077h-6.585365853658537Z" style="fill: #D2D4CE;"></path><path d="M285.7317073170732,16.61538461538461h6.585365853658537v83.38461538461539h-6.585365853658537Z" style="fill: #D2D4CE;"></path><path d="M293.0487804878049,3.076923076923077h6.585365853658537v96.92307692307692h-6.585365853658537Z" style="fill: #D2D4CE;"></path></g></g><path class="foreground" d="" style="display: none; fill: none;"></path></g></g></g></svg>