<svg class="marks" preserveAspectRatio="none" width="310" height="110"  version="1.1" xmlns="http://www.w3.org/2000/svg" xmlns:xlink="http://www.w3.org/1999/xlink"><g transform="translate(5,5)"><g class="mark-group role-frame root"><g transform="translate(0,0)"><path class="background" d="M0,0h300v100h-300Z" style="fill: none; stroke: #ddd; stroke-width: 0;"></path><g><g class="mark-rect role-mark marks"><path d="M0.3658536585365937,85.45454545454545h6.585365853658537v14.545454545454547h-6.585365853658537Z" style="fill: #D2D4CE;"></path><path d="M7.682926829268301,84.36363636363636h6.585365853658537v15.63636363636364h-6.585365853658537Z" style="fill: #D2D4CE;"></path><path d="M15.000000000000009,84.36363636363636h6.585365853658537v15.63636363636364h-6.585365853658537Z" style="fill: #D2D4CE;"></path><path d="M22.317073170731717,82.9090909090909h6.585365853658537v17.090909090909093h-6.585365853658537Z" style="fill: #D2D4CE;"></path><path d="M29.634146341463424,82.9090909090909h6.585365853658537v17.090909090909093h-6.585365853658537Z" style="fill: #D2D4CE;"></path><path d="M36.95121951219513,80.9090909090909h6.585365853658537v19.090909090909093h-6.585365853658537Z" style="fill: #D2D4CE;"></path><path d="M44.26829268292684,78.9090909090909h6.585365853658537v21.090909090909093h-6.585365853658537Z" style="fill: #D2D4CE;"></path><path d="M51.585365853658544,78.72727272727273h6.585365853658537v21.272727272727266h-6.585365853658537Z" style="fill: #D2D4CE;"></path><path d="M58.902439024390254,78.72727272727273h6.585365853658537v21.272727272727266h-6.585365853658537Z" style="fill: #D2D4CE;"></path><path d="M66.21951219512196,77.63636363636364h6.585365853658537v22.36363636363636h-6.585365853658537Z" style="fill: #D2D4CE;"></path><path d="M73.53658536585367,74.36363636363636h6.585365853658537v25.63636363636364h-6.585365853658537Z" style="fill: #D2D4CE;"></path><path d="M80.85365853658537,72.54545454545455h6.585365853658537v27.454545454545453h-6.585365853658537Z" style="fill: #D2D4CE;"></path><path d="M88.17073170731709,72.36363636363636h6.585365853658537v27.63636363636364h-6.585365853658537Z" style="fill: #D2D4CE;"></path><path d="M95.48780487804879,71.45454545454545h6.585365853658537v28.545454545454547h-6.585365853658537Z" style="fill: #D2D4CE;"></path><path d="M102.8048780487805,70h6.585365853658537v30h-6.585365853658537Z" style="fill: #D2D4CE;"></path><path d="M110.12195121951221,68.18181818181819h6.585365853658537v31.818181818181813h-6.585365853658537Z" style="fill: #D2D4CE;"></path><path d="M117.43902439024392,67.81818181818183h6.585365853658537v32.18181818181817h-6.585365853658537Z" style="fill: #D2D4CE;"></path><path d="M124.75609756097562,67.63636363636363h6.585365853658537v32.363636363636374h-6.585365853658537Z" style="fill: #D2D4CE;"></path><path d="M132.07317073170734,66.36363636363636h6.585365853658537v33.63636363636364h-6.585365853658537Z" style="fill: #D2D4CE;"></path><path d="M139.39024390243904,51.45454545454547h6.585365853658537v48.54545454545453h-6.585365853658537Z" style="fill: #00923E;"></path><path d="M146.70731707317074,50.90909090909091h6.585365853658537v49.09090909090909h-6.585365853658537Z" style="fill: #D2D4CE;"></path><path d="M154.02439024390245,49.45454545454545h6.585365853658537v50.54545454545455h-6.585365853658537Z" style="fill: #D2D4CE;"></path><path d="M161.34146341463415,49.45454545454545h6.585365853658537v50.54545454545455h-6.585365853658537Z" style="fill: #D2D4CE;"></path><path d="M168.65853658536588,46h6.585365853658537v54h-6.585365853658537Z" style="fill: #D2D4CE;"></path><path d="M175.97560975609758,36.54545454545455h6.585365853658537v63.45454545454545h-6.585365853658537Z" style="fill: #D2D4CE;"></path><path d="M183.2926829268293,34.54545454545455h6.585365853658537v65.45454545454545h-6.585365853658537Z" style="fill: #D2D4CE;"></path><path d="M190.609756097561,31.09090909090909h6.585365853658537v68.9090909090909h-6.585365853658537Z" style="fill: #D2D4CE;"></path><path d="M197.9268292682927,28.909090909090907h6.585365853658537v71.0909090909091h-6.585365853658537Z" style="fill: #D2D4CE;"></path><path d="M205.2439024390244,24.00000000000001h6.585365853658537v75.99999999999999h-6.585365853658537Z" style="fill: #D2D4CE;"></path><path d="M212.56097560975613,23.818181818181817h6.585365853658537v76.18181818181819h-6.585365853658537Z" style="fill: #D2D4CE;"></path><path d="M219.87804878048783,23.272727272727266h6.585365853658537v76.72727272727273h-6.585365853658537Z" style="fill: #D2D4CE;"></path><path d="M227.19512195121953,23.272727272727266h6.585365853658537v76.72727272727273h-6.585365853658537Z" style="fill: #D2D4CE;"></path><path d="M234.51219512195124,21.45454545454545h6.585365853658537v78.54545454545455h-6.585365853658537Z" style="fill: #D2D4CE;"></path><path d="M241.82926829268294,20.90909090909091h6.585365853658537v79.0909090909091h-6.585365853658537Z" style="fill: #D2D4CE;"></path><path d="M249.14634146341464,10.545454545454536h6.585365853658537v89.45454545454547h-6.585365853658537Z" style="fill: #D2D4CE;"></path><path d="M256.4634146341464,10.545454545454536h6.585365853658537v89.45454545454547h-6.585365853658537Z" style="fill: #D2D4CE;"></path><path d="M263.7804878048781,9.272727272727277h6.585365853658537v90.72727272727272h-6.585365853658537Z" style="fill: #D2D4CE;"></path><path d="M271.0975609756098,3.2727272727272716h6.585365853658537v96.72727272727273h-6.585365853658537Z" style="fill: #D2D4CE;"></path><path d="M278.4146341463415,3.2727272727272716h6.585365853658537v96.72727272727273h-6.585365853658537Z" style="fill: #D2D4CE;"></path><path d="M285.7317073170732,3.2727272727272716h6.585365853658537v96.72727272727273h-6.585365853658537Z" style="fill: #D2D4CE;"></path><path d="M293.0487804878049,2.7272727272727226h6.585365853658537v97.27272727272728h-6.585365853658537Z" style="fill: #D2D4CE;"></path></g></g><path class="foreground" d="" style="display: none; fill: none;"></path></g></g></g></svg>