<svg class="marks" preserveAspectRatio="none" width="310" height="110"  version="1.1" xmlns="http://www.w3.org/2000/svg" xmlns:xlink="http://www.w3.org/1999/xlink"><g transform="translate(5,5)"><g class="mark-group role-frame root"><g transform="translate(0,0)"><path class="background" d="M0,0h300v100h-300Z" style="fill: none; stroke: #ddd; stroke-width: 0;"></path><g><g class="mark-rect role-mark marks"><path d="M0.3658536585365937,82h6.585365853658537v18h-6.585365853658537Z" style="fill: #D2D4CE;"></path><path d="M7.682926829268301,80.75h6.585365853658537v19.25h-6.585365853658537Z" style="fill: #D2D4CE;"></path><path d="M15.000000000000009,77h6.585365853658537v23h-6.585365853658537Z" style="fill: #D2D4CE;"></path><path d="M22.317073170731717,76.75h6.585365853658537v23.25h-6.585365853658537Z" style="fill: #D2D4CE;"></path><path d="M29.634146341463424,76.25h6.585365853658537v23.75h-6.585365853658537Z" style="fill: #D2D4CE;"></path><path d="M36.95121951219513,74.5h6.585365853658537v25.5h-6.585365853658537Z" style="fill: #D2D4CE;"></path><path d="M44.26829268292684,73.75h6.585365853658537v26.25h-6.585365853658537Z" style="fill: #D2D4CE;"></path><path d="M51.585365853658544,73.5h6.585365853658537v26.5h-6.585365853658537Z" style="fill: #D2D4CE;"></path><path d="M58.902439024390254,73h6.585365853658537v27h-6.585365853658537Z" style="fill: #D2D4CE;"></path><path d="M66.21951219512196,71.5h6.585365853658537v28.5h-6.585365853658537Z" style="fill: #D2D4CE;"></path><path d="M73.53658536585367,71h6.585365853658537v29h-6.585365853658537Z" style="fill: #D2D4CE;"></path><path d="M80.85365853658537,71h6.585365853658537v29h-6.585365853658537Z" style="fill: #D2D4CE;"></path><path d="M88.17073170731709,69.25h6.585365853658537v30.75h-6.585365853658537Z" style="fill: #D2D4CE;"></path><path d="M95.48780487804879,69.25h6.585365853658537v30.75h-6.585365853658537Z" style="fill: #D2D4CE;"></path><path d="M102.8048780487805,67.5h6.585365853658537v32.5h-6.585365853658537Z" style="fill: #D2D4CE;"></path><path d="M110.12195121951221,67h6.585365853658537v33h-6.585365853658537Z" style="fill: #D2D4CE;"></path><path d="M117.43902439024392,67h6.585365853658537v33h-6.585365853658537Z" style="fill: #00923E;"></path><path d="M124.75609756097562,66.75h6.585365853658537v33.25h-6.585365853658537Z" style="fill: #D2D4CE;"></path><path d="M132.07317073170734,63.25000000000001h6.585365853658537v36.74999999999999h-6.585365853658537Z" style="fill: #D2D4CE;"></path><path d="M139.39024390243904,62.25000000000001h6.585365853658537v37.74999999999999h-6.585365853658537Z" style="fill: #D2D4CE;"></path><path d="M146.70731707317074,62h6.585365853658537v38h-6.585365853658537Z" style="fill: #D2D4CE;"></path><path d="M154.02439024390245,61.5h6.585365853658537v38.5h-6.585365853658537Z" style="fill: #D2D4CE;"></path><path d="M161.34146341463415,60.5h6.585365853658537v39.5h-6.585365853658537Z" style="fill: #D2D4CE;"></path><path d="M168.65853658536588,60h6.585365853658537v40h-6.585365853658537Z" style="fill: #D2D4CE;"></path><path d="M175.97560975609758,59.5h6.585365853658537v40.5h-6.585365853658537Z" style="fill: #D2D4CE;"></path><path d="M183.2926829268293,58.75h6.585365853658537v41.25h-6.585365853658537Z" style="fill: #D2D4CE;"></path><path d="M190.609756097561,58.25h6.585365853658537v41.75h-6.585365853658537Z" style="fill: #D2D4CE;"></path><path d="M197.9268292682927,57.99999999999999h6.585365853658537v42.00000000000001h-6.585365853658537Z" style="fill: #D2D4CE;"></path><path d="M205.2439024390244,56.75h6.585365853658537v43.25h-6.585365853658537Z" style="fill: #D2D4CE;"></path><path d="M212.56097560975613,54.25h6.585365853658537v45.75h-6.585365853658537Z" style="fill: #D2D4CE;"></path><path d="M219.87804878048783,53.49999999999999h6.585365853658537v46.50000000000001h-6.585365853658537Z" style="fill: #D2D4CE;"></path><path d="M227.19512195121953,52.5h6.585365853658537v47.5h-6.585365853658537Z" style="fill: #D2D4CE;"></path><path d="M234.51219512195124,46.75h6.585365853658537v53.25h-6.585365853658537Z" style="fill: #D2D4CE;"></path><path d="M241.82926829268294,46h6.585365853658537v54h-6.585365853658537Z" style="fill: #D2D4CE;"></path><path d="M249.14634146341464,43.75h6.585365853658537v56.25h-6.585365853658537Z" style="fill: #D2D4CE;"></path><path d="M256.4634146341464,42.75h6.585365853658537v57.25h-6.585365853658537Z" style="fill: #D2D4CE;"></path><path d="M263.7804878048781,36.5h6.585365853658537v63.5h-6.585365853658537Z" style="fill: #D2D4CE;"></path><path d="M271.0975609756098,31.75h6.585365853658537v68.25h-6.585365853658537Z" style="fill: #D2D4CE;"></path><path d="M278.4146341463415,25.5h6.585365853658537v74.5h-6.585365853658537Z" style="fill: #D2D4CE;"></path><path d="M285.7317073170732,19.999999999999996h6.585365853658537v80h-6.585365853658537Z" style="fill: #D2D4CE;"></path><path d="M293.0487804878049,7.750000000000002h6.585365853658537v92.25h-6.585365853658537Z" style="fill: #D2D4CE;"></path></g></g><path class="foreground" d="" style="display: none; fill: none;"></path></g></g></g></svg>